<?xml version="1.0" encoding="UTF-8" standalone="no"?>
<svg
   xmlns:dc="http://purl.org/dc/elements/1.1/"
   xmlns:cc="http://creativecommons.org/ns#"
   xmlns:rdf="http://www.w3.org/1999/02/22-rdf-syntax-ns#"
   xmlns:svg="http://www.w3.org/2000/svg"
   xmlns="http://www.w3.org/2000/svg"
   viewBox="0 0 418.75 136.25"
   height="136.25"
   width="418.75"
   xml:space="preserve"
   version="1.1"
   id="svg2"><metadata
     id="metadata8"><rdf:RDF><cc:Work
         rdf:about=""><dc:format>image/svg+xml</dc:format><dc:type
           rdf:resource="http://purl.org/dc/dcmitype/StillImage" /></cc:Work></rdf:RDF></metadata><defs
     id="defs6" /><g
     transform="matrix(1.25,0,0,-1.25,0,136.25)"
     id="g10"><g
       transform="scale(0.1,0.1)"
       id="g12"><path
         id="path14"
         style="fill:#ffffff;fill-opacity:1;fill-rule:evenodd;stroke:none"
         d="m 1087.79,806.836 -140.048,0 0,279.134 279.808,0 0,-279.134 -139.76,0" /><g
         transform="scale(1.00071,0.999294)"
         id="g16"><path
           id="path18"
           style="fill:none;stroke:#010101;stroke-width:7.08035994;stroke-linecap:butt;stroke-linejoin:round;stroke-miterlimit:10;stroke-dasharray:none;stroke-opacity:1"
           d="m 1087.02,807.406 -139.946,0 0,279.614 279.616,0 0,-279.614 -139.67,0 z" /></g><path
         id="path20"
         style="fill:#010101;fill-opacity:1;fill-rule:evenodd;stroke:none"
         d="m 1082.12,970.469 10.77,0 0,-65.399 -10.77,0 0,65.399 z m 0,25.476 10.77,0 0,-13.59 -10.77,0 0,13.59" /><path
         id="path22"
         style="fill:#ffffff;fill-opacity:1;fill-rule:evenodd;stroke:none"
         d="m 1367.61,806.836 -140.06,0 0,279.134 279.82,0 0,-279.134 -139.76,0" /><g
         transform="scale(1.00071,0.999294)"
         id="g24"><path
           id="path26"
           style="fill:none;stroke:#010101;stroke-width:7.08035994;stroke-linecap:butt;stroke-linejoin:round;stroke-miterlimit:10;stroke-dasharray:none;stroke-opacity:1"
           d="m 1366.64,807.406 -139.95,0 0,279.614 279.62,0 0,-279.614 -139.67,0 z" /></g><path
         id="path28"
         style="fill:#010101;fill-opacity:1;fill-rule:evenodd;stroke:none"
         d="m 1342.94,970.469 51.31,0 0,-9.91 -40.54,-46.996 40.54,0 0,-8.493 -52.73,0 0,9.91 40.54,46.993 -39.12,0 0,8.496" /><path
         id="path30"
         style="fill:#ffffff;fill-opacity:1;fill-rule:evenodd;stroke:none"
         d="m 808.543,806.836 -139.766,0 0,279.134 279.246,0 0,-279.134 -139.48,0" /><g
         transform="scale(1.00071,0.999294)"
         id="g32"><path
           id="path34"
           style="fill:none;stroke:#010101;stroke-width:7.08035994;stroke-linecap:butt;stroke-linejoin:round;stroke-miterlimit:10;stroke-dasharray:none;stroke-opacity:1"
           d="m 807.688,807.406 -139.667,0 0,279.614 279.334,0 0,-279.614 -139.667,0 z" /></g><path
         id="path36"
         style="fill:#010101;fill-opacity:1;fill-rule:evenodd;stroke:none"
         d="m 812.793,958.012 c 2.555,4.812 5.953,8.492 9.641,10.758 3.683,2.261 8.222,3.394 13.324,3.394 6.805,0 11.906,-2.262 15.594,-7.074 3.683,-4.813 5.668,-11.61 5.668,-20.668 l 0,-39.352 -10.774,0 0,39.071 c 0,6.226 -1.133,11.039 -3.402,14.152 -2.266,3.113 -5.668,4.531 -10.203,4.531 -5.672,0 -9.922,-1.984 -13.325,-5.664 -3.121,-3.68 -4.82,-8.773 -4.82,-15.285 l 0,-36.805 -10.773,0 0,39.071 c 0,6.507 -1.133,11.039 -3.403,14.152 -2.269,3.113 -5.668,4.531 -10.207,4.531 -5.668,0 -9.922,-1.984 -13.324,-5.664 -3.117,-3.68 -4.82,-8.773 -4.82,-15.285 l 0,-36.805 -10.77,0 0,65.399 10.77,0 0,-10.192 c 2.554,3.961 5.386,7.075 8.789,9.059 3.402,1.98 7.656,2.828 12.476,2.828 4.536,0 8.789,-1.133 11.907,-3.68 3.402,-2.546 5.953,-5.945 7.652,-10.472" /><path
         id="path38"
         style="fill:#ffffff;fill-opacity:1;fill-rule:evenodd;stroke:none"
         d="m 1647.42,806.836 -140.05,0 0,279.134 279.81,0 0,-279.134 -139.76,0" /><g
         transform="scale(1.00071,0.999294)"
         id="g40"><path
           id="path42"
           style="fill:none;stroke:#010101;stroke-width:7.08035994;stroke-linecap:butt;stroke-linejoin:round;stroke-miterlimit:10;stroke-dasharray:none;stroke-opacity:1"
           d="m 1646.26,807.406 -139.95,0 0,279.614 279.61,0 0,-279.614 -139.66,0 z" /></g><path
         id="path44"
         style="fill:#010101;fill-opacity:1;fill-rule:evenodd;stroke:none"
         d="m 1651.67,937.91 c -8.51,0 -14.46,-0.847 -17.86,-2.832 -3.4,-1.98 -5.1,-5.379 -5.1,-10.191 0,-3.961 1.13,-6.793 3.68,-9.059 2.56,-2.265 5.96,-3.398 10.21,-3.398 5.95,0 10.77,1.984 14.46,6.23 3.68,4.246 5.39,9.906 5.39,16.985 l 0,2.265 -10.78,0 z m 21.55,4.531 0,-37.371 -10.77,0 0,9.91 c -2.56,-3.964 -5.39,-6.796 -9.08,-8.777 -3.68,-1.98 -8.22,-2.832 -13.6,-2.832 -6.53,0 -11.91,1.984 -15.88,5.664 -3.97,3.68 -5.96,8.774 -5.96,15.004 0,7.359 2.55,13.024 7.37,16.703 4.83,3.68 12.2,5.66 22.12,5.66 l 15.03,0 0,1.133 c 0,4.813 -1.71,8.778 -4.82,11.61 -3.41,2.546 -7.94,3.96 -13.61,3.96 -3.97,0 -7.38,-0.566 -11.06,-1.414 -3.4,-0.851 -6.8,-2.265 -10.21,-3.964 l 0,9.91 c 3.97,1.414 7.66,2.547 11.34,3.394 3.69,0.852 7.37,1.133 11.06,1.133 9.36,0 16.44,-2.547 20.98,-7.359 4.82,-4.813 7.09,-12.457 7.09,-22.364" /><path
         id="path46"
         style="fill:#010101;fill-opacity:1;fill-rule:evenodd;stroke:none"
         d="m 81.6484,1007.27 10.7735,0 0,-53.79 32.0351,28.309 13.891,0 -34.871,-30.574 36.289,-34.82 -14.176,0 -33.1681,31.992 0,-31.992 -10.7735,0 0,90.875" /><path
         id="path48"
         style="fill:#010101;fill-opacity:1;fill-rule:evenodd;stroke:none"
         d="m 151.957,916.395 10.7734,0 0,90.875 -10.7734,0 0,-90.875 z" /><path
         id="path50"
         style="fill:#010101;fill-opacity:1;fill-rule:evenodd;stroke:none"
         d="m 185.41,981.789 10.774,0 0,-66.527 c 0,-8.492 -1.704,-14.438 -4.821,-18.117 -3.121,-3.68 -8.222,-5.665 -15.308,-5.665 l -4.254,0 0,9.063 2.836,0 c 4.25,0 7.086,0.848 8.504,2.828 1.418,1.984 2.269,5.945 2.269,11.891 l 0,66.527 z m 0,25.481 10.774,0 0,-13.59 -10.774,0 0,13.59" /><path
         id="path52"
         style="fill:#010101;fill-opacity:1;fill-rule:evenodd;stroke:none"
         d="m 218.012,942.441 0,39.348 10.773,0 0,-39.066 c 0,-6.227 1.133,-10.758 3.684,-13.871 2.269,-3.114 5.953,-4.813 10.773,-4.813 5.953,0 10.492,1.981 13.891,5.66 3.402,3.684 5.105,8.778 5.105,15.004 l 0,37.086 10.774,0 0,-65.394 -10.774,0 0,10.191 c -2.55,-3.961 -5.672,-7.078 -9.074,-9.059 -3.402,-1.98 -7.652,-2.832 -12.187,-2.832 -7.372,0 -13.325,2.266 -17.012,7.078 -3.969,4.532 -5.953,11.61 -5.953,20.668" /><path
         id="path54"
         style="fill:#010101;fill-opacity:1;fill-rule:evenodd;stroke:none"
         d="m 341.617,979.527 0,-10.191 c -3.117,1.695 -6.238,3.113 -9.07,3.961 -3.121,0.851 -6.238,1.133 -9.356,1.133 -7.089,0 -12.476,-2.266 -16.445,-6.793 -3.683,-4.246 -5.668,-10.477 -5.668,-18.403 0,-8.211 1.985,-14.437 5.668,-18.683 3.969,-4.531 9.356,-6.797 16.445,-6.797 3.118,0 6.235,0.566 9.356,1.418 2.832,0.848 5.953,1.98 9.07,3.68 l 0,-9.911 c -3.117,-1.414 -6.238,-2.546 -9.355,-3.113 -3.117,-0.848 -6.52,-1.133 -10.207,-1.133 -9.922,0 -17.86,3.114 -23.528,9.344 -5.957,6.227 -8.789,14.438 -8.789,25.195 0,10.477 2.832,18.969 8.789,25.196 5.953,5.945 13.891,9.058 24.094,9.058 3.402,0 6.524,-0.281 9.926,-0.847 3.117,-0.852 6.234,-1.7 9.07,-3.114 z M 316.953,990 l -14.457,22.08 8.219,0 10.492,-14.435 10.488,14.435 8.223,0 -14.461,-22.08 -8.504,0" /><path
         id="path56"
         style="fill:#010101;fill-opacity:1;fill-rule:evenodd;stroke:none"
         d="m 398.602,1007.27 10.773,0 0,-53.79 32.035,28.309 13.891,0 -34.871,-30.574 36.289,-34.82 -14.176,0 -33.168,31.992 0,-31.992 -10.773,0 0,90.875" /><path
         id="path58"
         style="fill:#010101;fill-opacity:1;fill-rule:evenodd;stroke:none"
         d="m 508.598,971.031 75.129,0 0,-9.906 -75.129,0 0,9.906 z m 0,-24.062 75.129,0 0,-9.906 -75.129,0 0,9.906" /><path
         id="path60"
         style="fill:#010101;fill-opacity:1;fill-rule:evenodd;stroke:none"
         d="m 722.074,675.477 16.16,0 0,55.488 -17.578,-3.399 0,9.059 17.293,3.398 9.926,0 0,-64.546 16.156,0 0,-8.211 -41.957,0 0,8.211" /><path
         id="path62"
         style="fill:#010101;fill-opacity:1;fill-rule:evenodd;stroke:none"
         d="m 804.855,733.512 c -5.101,0 -8.789,-2.547 -11.339,-7.36 -2.551,-5.097 -3.969,-12.457 -3.969,-22.648 0,-9.91 1.418,-17.27 3.969,-22.363 2.55,-4.817 6.238,-7.364 11.339,-7.364 5.106,0 8.79,2.547 11.34,7.364 2.555,5.093 3.969,12.453 3.969,22.363 0,10.191 -1.414,17.551 -3.969,22.648 -2.55,4.813 -6.234,7.36 -11.34,7.36 z m 0,7.926 c 8.223,0 14.461,-3.114 18.711,-9.625 4.254,-6.512 6.524,-15.852 6.524,-28.309 0,-12.172 -2.27,-21.516 -6.524,-28.027 -4.25,-6.512 -10.488,-9.625 -18.711,-9.625 -8.218,0 -14.457,3.113 -18.71,9.625 -4.25,6.511 -6.52,15.855 -6.52,28.027 0,12.457 2.27,21.797 6.52,28.309 4.253,6.511 10.492,9.625 18.71,9.625" /><path
         id="path64"
         style="fill:#010101;fill-opacity:1;fill-rule:evenodd;stroke:none"
         d="m 847.949,668.684 0,9.058 c 2.551,-1.133 5.102,-1.98 7.371,-2.832 2.551,-0.566 5.102,-0.847 7.653,-0.847 6.523,0 11.34,2.261 14.742,6.511 3.402,4.528 5.387,11.039 5.953,19.817 -1.984,-2.551 -4.25,-4.813 -7.086,-6.231 -3.117,-1.414 -6.238,-2.262 -9.641,-2.262 -7.371,0 -13.039,2.262 -17.293,6.508 -4.25,4.532 -6.519,10.477 -6.519,18.121 0,7.645 2.269,13.586 6.805,18.118 4.254,4.531 10.207,6.793 17.578,6.793 8.504,0 15.023,-3.114 19.277,-9.625 4.535,-6.512 6.805,-15.852 6.805,-28.309 0,-11.324 -2.836,-20.668 -8.223,-27.461 -5.387,-6.793 -12.758,-10.191 -22.113,-10.191 -2.27,0 -4.82,0.281 -7.371,0.847 -2.551,0.285 -5.102,1.133 -7.938,1.985 z m 19.563,30.855 c 4.535,0 7.937,1.418 10.488,4.531 2.551,3.114 3.969,7.078 3.969,12.457 0,5.379 -1.418,9.34 -3.969,12.457 -2.551,3.114 -5.953,4.528 -10.488,4.528 -4.539,0 -7.942,-1.414 -10.492,-4.528 -2.551,-3.117 -3.969,-7.078 -3.969,-12.457 0,-5.379 1.418,-9.343 3.969,-12.457 2.55,-3.113 5.953,-4.531 10.492,-4.531" /><path
         id="path66"
         style="fill:#010101;fill-opacity:1;fill-rule:evenodd;stroke:none"
         d="m 1007.56,675.477 16.16,0 0,55.488 -17.58,-3.399 0,9.059 17.29,3.398 9.93,0 0,-64.546 16.16,0 0,-8.211 -41.96,0 0,8.211" /><path
         id="path68"
         style="fill:#010101;fill-opacity:1;fill-rule:evenodd;stroke:none"
         d="m 1090.34,733.512 c -5.1,0 -8.79,-2.547 -11.34,-7.36 -2.55,-5.097 -3.97,-12.457 -3.97,-22.648 0,-9.91 1.42,-17.27 3.97,-22.363 2.55,-4.817 6.24,-7.364 11.34,-7.364 5.11,0 8.79,2.547 11.34,7.364 2.55,5.093 3.97,12.453 3.97,22.363 0,10.191 -1.42,17.551 -3.97,22.648 -2.55,4.813 -6.23,7.36 -11.34,7.36 z m 0,7.926 c 8.22,0 14.46,-3.114 18.71,-9.625 4.25,-6.512 6.52,-15.852 6.52,-28.309 0,-12.172 -2.27,-21.516 -6.52,-28.027 -4.25,-6.512 -10.49,-9.625 -18.71,-9.625 -8.22,0 -14.46,3.113 -18.71,9.625 -4.25,6.511 -6.52,15.855 -6.52,28.027 0,12.457 2.27,21.797 6.52,28.309 4.25,6.511 10.49,9.625 18.71,9.625" /><path
         id="path70"
         style="fill:#010101;fill-opacity:1;fill-rule:evenodd;stroke:none"
         d="m 1133.15,740.023 38.84,0 0,-8.21 -29.77,0 0,-17.836 c 1.42,0.566 2.83,0.851 4.25,1.132 1.42,0.286 2.84,0.286 4.26,0.286 8.22,0 14.74,-2.266 19.56,-6.797 4.82,-4.246 7.09,-10.473 7.09,-17.832 0,-7.93 -2.56,-14.157 -7.38,-18.403 -4.82,-4.246 -11.9,-6.511 -20.69,-6.511 -3.12,0 -6.24,0.281 -9.36,0.847 -3.11,0.567 -6.52,1.133 -9.92,2.266 l 0,9.91 c 2.84,-1.699 5.95,-2.832 9.07,-3.68 3.12,-0.851 6.53,-1.132 9.93,-1.132 5.67,0 10.2,1.414 13.6,4.527 3.12,2.832 4.82,7.078 4.82,12.176 0,5.093 -1.7,9.058 -4.82,11.89 -3.4,3.114 -7.93,4.528 -13.6,4.528 -2.56,0 -5.11,-0.282 -7.94,-0.848 -2.55,-0.566 -5.11,-1.699 -7.94,-2.832 l 0,36.519" /><path
         id="path72"
         style="fill:#010101;fill-opacity:1;fill-rule:evenodd;stroke:none"
         d="m 1301.27,675.477 16.16,0 0,55.488 -17.58,-3.399 0,9.059 17.29,3.398 9.92,0 0,-64.546 16.16,0 0,-8.211 -41.95,0 0,8.211" /><path
         id="path74"
         style="fill:#010101;fill-opacity:1;fill-rule:evenodd;stroke:none"
         d="m 1371.57,675.477 34.31,0 0,-8.211 -46.21,0 0,8.211 c 3.68,3.964 8.78,9.058 15.31,15.57 6.52,6.512 10.48,10.758 12.18,12.738 3.13,3.399 5.39,6.512 6.53,9.063 1.42,2.547 1.98,4.812 1.98,7.359 0,3.68 -1.42,6.793 -3.97,9.344 -2.83,2.547 -6.24,3.679 -10.77,3.679 -3.12,0 -6.24,-0.566 -9.64,-1.699 -3.4,-1.133 -7.09,-2.547 -11.06,-4.812 l 0,9.906 c 3.97,1.699 7.66,2.832 11.06,3.684 3.4,0.847 6.8,1.129 9.64,1.129 7.37,0 13.32,-1.981 17.86,-5.661 4.53,-3.679 6.8,-8.777 6.8,-15.289 0,-2.828 -0.56,-5.66 -1.7,-8.492 -1.13,-2.547 -3.12,-5.66 -6.23,-9.34 -0.57,-1.133 -3.41,-3.683 -7.66,-8.211 -4.25,-4.531 -10.49,-10.757 -18.43,-18.968" /><path
         id="path76"
         style="fill:#010101;fill-opacity:1;fill-rule:evenodd;stroke:none"
         d="m 1435.36,675.477 34.3,0 0,-8.211 -46.21,0 0,8.211 c 3.69,3.964 8.79,9.058 15.31,15.57 6.52,6.512 10.49,10.758 12.19,12.738 3.12,3.399 5.39,6.512 6.52,9.063 1.42,2.547 1.99,4.812 1.99,7.359 0,3.68 -1.42,6.793 -3.97,9.344 -2.84,2.547 -6.24,3.679 -10.78,3.679 -3.11,0 -6.23,-0.566 -9.63,-1.699 -3.4,-1.133 -7.09,-2.547 -11.06,-4.812 l 0,9.906 c 3.97,1.699 7.66,2.832 11.06,3.684 3.4,0.847 6.8,1.129 9.63,1.129 7.38,0 13.33,-1.981 17.87,-5.661 4.53,-3.679 6.8,-8.777 6.8,-15.289 0,-2.828 -0.57,-5.66 -1.7,-8.492 -1.13,-2.547 -3.12,-5.66 -6.24,-9.34 -0.56,-1.133 -3.4,-3.683 -7.65,-8.211 -4.25,-4.531 -10.49,-10.757 -18.43,-18.968" /><path
         id="path78"
         style="fill:#010101;fill-opacity:1;fill-rule:evenodd;stroke:none"
         d="m 1601.77,668.684 0,9.058 c 2.56,-1.133 5.11,-1.98 7.37,-2.832 2.56,-0.566 5.11,-0.847 7.66,-0.847 6.52,0 11.34,2.261 14.74,6.511 3.41,4.528 5.39,11.039 5.96,19.817 -1.99,-2.551 -4.26,-4.813 -7.09,-6.231 -3.12,-1.414 -6.24,-2.262 -9.64,-2.262 -7.37,0 -13.04,2.262 -17.29,6.508 -4.26,4.532 -6.52,10.477 -6.52,18.121 0,7.645 2.26,13.586 6.8,18.118 4.25,4.531 10.2,6.793 17.58,6.793 8.5,0 15.02,-3.114 19.27,-9.625 4.54,-6.512 6.81,-15.852 6.81,-28.309 0,-11.324 -2.84,-20.668 -8.22,-27.461 -5.39,-6.793 -12.76,-10.191 -22.11,-10.191 -2.27,0 -4.82,0.281 -7.38,0.847 -2.55,0.285 -5.1,1.133 -7.94,1.985 z m 19.57,30.855 c 4.53,0 7.93,1.418 10.48,4.531 2.56,3.114 3.98,7.078 3.98,12.457 0,5.379 -1.42,9.34 -3.98,12.457 -2.55,3.114 -5.95,4.528 -10.48,4.528 -4.54,0 -7.94,-1.414 -10.49,-4.528 -2.55,-3.117 -3.97,-7.078 -3.97,-12.457 0,-5.379 1.42,-9.343 3.97,-12.457 2.55,-3.113 5.95,-4.531 10.49,-4.531" /><path
         id="path80"
         style="fill:#010101;fill-opacity:1;fill-rule:evenodd;stroke:none"
         d="m 1662.45,740.023 46.77,0 0,-4.246 -26.36,-68.511 -10.21,0 24.67,64.547 -34.87,0 0,8.21" /><path
         id="path82"
         style="fill:#010101;fill-opacity:1;fill-rule:evenodd;stroke:none"
         d="m 136.648,112.676 0,-39.3518 -10.773,0 0,39.0668 c 0,6.226 -1.137,11.043 -3.687,14.156 -2.266,3.113 -5.954,4.527 -10.774,4.527 -5.953,0 -10.488,-1.98 -13.8906,-5.66 -3.4023,-3.68 -5.1015,-8.777 -5.1015,-15.289 l 0,-36.8008 -10.7735,0 0,90.8748 10.7735,0 0,-35.672 c 2.5508,3.965 5.6679,7.078 9.0701,9.059 3.688,1.984 7.656,2.832 12.192,2.832 7.656,0 13.324,-2.266 17.011,-7.078 3.969,-4.527 5.953,-11.606 5.953,-20.664" /><path
         id="path84"
         style="fill:#010101;fill-opacity:1;fill-rule:evenodd;stroke:none"
         d="m 183.707,164.199 c -5.387,-9.058 -9.07,-17.836 -11.621,-26.613 -2.555,-8.773 -3.969,-17.551 -3.969,-26.609 0,-9.059 1.414,-18.1215 3.969,-26.895 2.551,-8.7773 6.519,-17.5547 11.621,-26.6132 l -9.355,0 c -5.954,9.0585 -10.204,18.1171 -13.325,26.8945 -2.836,9.0586 -4.25,17.8357 -4.25,26.6137 0,8.492 1.414,17.269 4.25,26.328 2.836,8.773 7.371,17.55 13.325,26.894 l 9.355,0" /><path
         id="path86"
         style="fill:#010101;fill-opacity:1;fill-rule:evenodd;stroke:none"
         d="m 204.121,164.199 10.774,0 0,-53.789 32.035,28.309 13.89,0 -34.871,-30.574 36.289,-34.8208 -14.175,0 -33.168,31.9888 0,-31.9888 -10.774,0 0,90.8748" /><path
         id="path88"
         style="fill:#010101;fill-opacity:1;fill-rule:evenodd;stroke:none"
         d="m 272.445,164.199 9.356,0 c 5.953,-9.344 10.203,-18.121 13.324,-26.894 2.832,-9.059 4.25,-17.836 4.25,-26.328 0,-8.778 -1.418,-17.5551 -4.25,-26.6137 -3.121,-8.7774 -7.371,-17.836 -13.324,-26.8945 l -9.356,0 c 5.102,9.0585 9.071,17.8359 11.621,26.6132 2.551,8.7735 3.969,17.836 3.969,26.895 0,9.058 -1.418,17.836 -3.969,26.609 -2.55,8.777 -6.519,17.555 -11.621,26.613" /><path
         id="path90"
         style="fill:#010101;fill-opacity:1;fill-rule:evenodd;stroke:none"
         d="m 360.895,127.961 75.128,0 0,-9.906 -75.128,0 0,9.906 z m 0,-24.063 75.128,0 0,-9.9097 -75.128,0 0,9.9097" /><path
         id="path92"
         style="fill:#010101;fill-opacity:1;fill-rule:evenodd;stroke:none"
         d="m 524.477,164.199 c -5.387,-9.058 -9.075,-17.836 -11.625,-26.613 -2.551,-8.773 -3.969,-17.551 -3.969,-26.609 0,-9.059 1.418,-18.1215 3.969,-26.895 2.55,-8.7773 6.519,-17.5547 11.625,-26.6132 l -9.356,0 c -5.957,9.0585 -10.207,18.1171 -13.324,26.8945 -2.836,9.0586 -4.254,17.8357 -4.254,26.6137 0,8.492 1.418,17.269 4.254,26.328 2.832,8.773 7.367,17.55 13.324,26.894 l 9.356,0" /><path
         id="path94"
         style="fill:#010101;fill-opacity:1;fill-rule:evenodd;stroke:none"
         d="m 571.254,164.199 c -5.387,-9.058 -9.074,-17.836 -11.625,-26.613 -2.551,-8.773 -3.969,-17.551 -3.969,-26.609 0,-9.059 1.418,-18.1215 3.969,-26.895 2.551,-8.7773 6.519,-17.5547 11.625,-26.6132 l -9.356,0 c -5.953,9.0585 -10.207,18.1171 -13.324,26.8945 -2.836,9.0586 -4.254,17.8357 -4.254,26.6137 0,8.492 1.418,17.269 4.254,26.328 2.832,8.773 7.371,17.55 13.324,26.894 l 9.356,0" /><path
         id="path96"
         style="fill:#010101;fill-opacity:1;fill-rule:evenodd;stroke:none"
         d="m 618.031,164.199 c -5.386,-9.058 -9.074,-17.836 -11.625,-26.613 -2.551,-8.773 -3.968,-17.551 -3.968,-26.609 0,-9.059 1.417,-18.1215 3.968,-26.895 2.551,-8.7773 6.52,-17.5547 11.625,-26.6132 l -9.355,0 c -5.953,9.0585 -10.207,18.1171 -13.324,26.8945 -2.836,9.0586 -4.254,17.8357 -4.254,26.6137 0,8.492 1.418,17.269 4.254,26.328 2.832,8.773 7.371,17.55 13.324,26.894 l 9.355,0" /><path
         id="path98"
         style="fill:#010101;fill-opacity:1;fill-rule:evenodd;stroke:none"
         d="m 664.809,164.199 c -5.387,-9.058 -9.075,-17.836 -11.625,-26.613 -2.551,-8.773 -3.969,-17.551 -3.969,-26.609 0,-9.059 1.418,-18.1215 3.969,-26.895 2.55,-8.7773 6.519,-17.5547 11.625,-26.6132 l -9.356,0 c -5.953,9.0585 -10.207,18.1171 -13.324,26.8945 -2.836,9.0586 -4.254,17.8357 -4.254,26.6137 0,8.492 1.418,17.269 4.254,26.328 2.832,8.773 7.371,17.55 13.324,26.894 l 9.356,0" /><path
         id="path100"
         style="fill:#010101;fill-opacity:1;fill-rule:evenodd;stroke:none"
         d="m 711.586,164.199 c -5.387,-9.058 -9.074,-17.836 -11.625,-26.613 -2.551,-8.773 -3.969,-17.551 -3.969,-26.609 0,-9.059 1.418,-18.1215 3.969,-26.895 2.551,-8.7773 6.519,-17.5547 11.625,-26.6132 l -9.356,0 c -5.953,9.0585 -10.207,18.1171 -13.324,26.8945 -2.836,9.0586 -4.254,17.8357 -4.254,26.6137 0,8.492 1.418,17.269 4.254,26.328 2.832,8.773 7.371,17.55 13.324,26.894 l 9.356,0" /><path
         id="path102"
         style="fill:#010101;fill-opacity:1;fill-rule:evenodd;stroke:none"
         d="m 736.25,83.2305 19.277,0 0,66.5315 -20.98,-4.25 0,10.758 20.695,4.25 11.91,0 0,-77.2895 19.278,0 0,-9.9063 -50.18,0 0,9.9063" /><path
         id="path104"
         style="fill:#010101;fill-opacity:1;fill-rule:evenodd;stroke:none"
         d="m 836.043,152.875 c -5.953,0 -10.492,-3.113 -13.609,-9.059 -3.118,-5.945 -4.536,-15.003 -4.536,-26.894 0,-11.891 1.418,-20.9493 4.536,-26.8947 3.117,-5.9453 7.656,-9.0625 13.609,-9.0625 6.234,0 10.773,3.1172 13.891,9.0625 3.117,5.9454 4.535,15.0037 4.535,26.8947 0,11.891 -1.418,20.949 -4.535,26.894 -3.118,5.946 -7.657,9.059 -13.891,9.059 z m 0.281,9.34 c 9.641,0 17.012,-3.961 22.399,-11.606 5.101,-7.644 7.652,-18.968 7.652,-33.687 0,-14.723 -2.551,-26.047 -7.652,-33.6915 -5.387,-7.6446 -12.758,-11.6055 -22.399,-11.6055 -9.922,0 -17.293,3.9609 -22.679,11.6055 -5.102,7.6445 -7.653,18.9685 -7.653,33.6915 0,14.719 2.551,26.043 7.653,33.687 5.386,7.645 12.757,11.606 22.679,11.606" /><path
         id="path106"
         style="fill:#010101;fill-opacity:1;fill-rule:evenodd;stroke:none"
         d="m 888.207,75.0234 0,10.7579 c 2.832,-1.418 5.953,-2.5508 9.07,-3.1172 2.836,-0.8477 5.953,-1.1328 8.789,-1.1328 7.938,0 13.891,2.5507 17.86,7.9296 4.254,5.0938 6.519,13.0191 7.09,23.7771 -2.27,-3.394 -5.106,-5.941 -8.508,-7.64 -3.684,-1.985 -7.371,-2.832 -11.621,-2.832 -8.789,0 -15.594,2.547 -20.696,7.925 -5.105,5.379 -7.656,12.457 -7.656,21.801 0,9.059 2.551,16.137 7.938,21.516 5.386,5.379 12.476,8.207 21.261,8.207 10.207,0 17.864,-3.961 23.25,-11.606 5.387,-7.644 7.938,-18.968 7.938,-33.687 0,-13.875 -3.402,-24.9142 -9.922,-33.1251 -6.523,-8.211 -15.309,-12.1719 -26.367,-12.1719 -2.836,0 -5.953,0.2813 -9.07,0.8477 -2.836,0.5664 -5.954,1.4179 -9.356,2.5507 z m 23.527,37.0856 c 5.387,0 9.641,1.696 12.758,5.379 3.121,3.68 4.539,8.774 4.539,15.004 0,6.227 -1.418,11.324 -4.539,15.004 -3.117,3.68 -7.371,5.379 -12.758,5.379 -5.386,0 -9.636,-1.699 -12.757,-5.379 -3.118,-3.68 -4.536,-8.777 -4.536,-15.004 0,-6.23 1.418,-11.324 4.536,-15.004 3.121,-3.683 7.371,-5.379 12.757,-5.379" /><path
         id="path108"
         style="fill:#010101;fill-opacity:1;fill-rule:evenodd;stroke:none"
         d="m 1046.68,146.363 -20.98,-11.324 20.98,-11.605 -3.4,-5.664 -19.56,11.89 0,-21.801 -6.81,0 0,21.801 -19.558,-11.89 -3.403,5.664 20.981,11.605 -20.981,11.324 3.403,5.946 19.558,-11.891 0,21.797 6.81,0 0,-21.797 19.56,11.891 3.4,-5.946" /><path
         id="path110"
         style="fill:#010101;fill-opacity:1;fill-rule:evenodd;stroke:none"
         d="m 1147.04,106.164 c 0,7.641 -1.7,13.871 -4.82,18.399 -3.4,4.531 -7.93,6.796 -13.61,6.796 -5.66,0 -10.2,-2.265 -13.61,-6.796 -3.11,-4.528 -4.81,-10.758 -4.81,-18.399 0,-7.9296 1.7,-14.1562 4.81,-18.6874 3.41,-4.5274 7.95,-6.793 13.61,-6.793 5.68,0 10.21,2.2656 13.61,6.793 3.12,4.5312 4.82,10.7578 4.82,18.6874 z m -36.85,22.649 c 2.26,3.96 5.1,6.792 8.5,8.773 3.69,1.984 7.65,2.832 12.47,2.832 7.94,0 14.47,-3.113 19.57,-9.344 4.82,-6.511 7.37,-14.719 7.37,-24.91 0,-10.4765 -2.55,-18.6874 -7.37,-25.1992 -5.1,-6.2265 -11.63,-9.3398 -19.57,-9.3398 -4.82,0 -8.78,0.8477 -12.47,2.832 -3.4,1.9805 -6.24,4.8125 -8.5,8.7735 l 0,-9.9063 -10.78,0 0,90.8748 10.78,0 0,-35.386" /><path
         id="path112"
         style="fill:#010101;fill-opacity:1;fill-rule:evenodd;stroke:none"
         d="m 1173.97,164.199 9.36,0 c 5.95,-9.344 10.21,-18.121 13.32,-26.894 2.84,-9.059 4.26,-17.836 4.26,-26.328 0,-8.778 -1.42,-17.5551 -4.26,-26.6137 -3.11,-8.7774 -7.37,-17.836 -13.32,-26.8945 l -9.36,0 c 5.11,9.0585 9.08,17.8359 11.63,26.6132 2.55,8.7735 3.97,17.836 3.97,26.895 0,9.058 -1.42,17.836 -3.97,26.609 -2.55,8.777 -6.52,17.555 -11.63,26.613" /><path
         id="path114"
         style="fill:#010101;fill-opacity:1;fill-rule:evenodd;stroke:none"
         d="m 1304.67,148.344 0,-32.555 32.6,0 0,-9.91 -32.6,0 0,-32.5548 -9.92,0 0,32.5548 -32.61,0 0,9.91 32.61,0 0,32.555 9.92,0" /><path
         id="path116"
         style="fill:#010101;fill-opacity:1;fill-rule:evenodd;stroke:none"
         d="m 1403.61,83.2305 19.28,0 0,66.5315 -20.98,-4.25 0,10.758 20.69,4.25 11.91,0 0,-77.2895 19.28,0 0,-9.9063 -50.18,0 0,9.9063" /><path
         id="path118"
         style="fill:#010101;fill-opacity:1;fill-rule:evenodd;stroke:none"
         d="m 1503.4,152.875 c -5.95,0 -10.49,-3.113 -13.61,-9.059 -3.11,-5.945 -4.53,-15.003 -4.53,-26.894 0,-11.891 1.42,-20.9493 4.53,-26.8947 3.12,-5.9453 7.66,-9.0625 13.61,-9.0625 6.24,0 10.77,3.1172 13.89,9.0625 3.12,5.9454 4.54,15.0037 4.54,26.8947 0,11.891 -1.42,20.949 -4.54,26.894 -3.12,5.946 -7.65,9.059 -13.89,9.059 z m 0.28,9.34 c 9.64,0 17.02,-3.961 22.4,-11.606 5.1,-7.644 7.65,-18.968 7.65,-33.687 0,-14.723 -2.55,-26.047 -7.65,-33.6915 -5.38,-7.6446 -12.76,-11.6055 -22.4,-11.6055 -9.92,0 -17.29,3.9609 -22.68,11.6055 -5.1,7.6445 -7.65,18.9685 -7.65,33.6915 0,14.719 2.55,26.043 7.65,33.687 5.39,7.645 12.76,11.606 22.68,11.606" /><path
         id="path120"
         style="fill:#010101;fill-opacity:1;fill-rule:evenodd;stroke:none"
         d="m 1555.28,160.52 46.49,0 0,-9.911 -35.72,0 0,-21.234 c 1.7,0.566 3.41,0.852 5.11,1.133 1.7,0.285 3.4,0.566 5.38,0.566 9.64,0 17.58,-2.547 23.25,-7.926 5.67,-5.378 8.51,-12.738 8.51,-21.796 0,-9.3442 -2.84,-16.7036 -8.79,-21.8012 -5.96,-5.3789 -14.18,-7.9258 -24.95,-7.9258 -3.68,0 -7.37,0.2813 -11.06,0.8477 -3.96,0.5664 -7.93,1.6992 -11.91,2.832 l 0,11.8906 c 3.41,-1.9805 7.09,-3.3984 10.78,-4.2461 3.97,-0.8515 7.93,-1.4179 11.91,-1.4179 6.8,0 12.18,1.6992 16.15,5.3789 3.97,3.3984 5.96,8.2109 5.96,14.4418 0,6.226 -1.99,11.039 -5.96,14.437 -3.97,3.68 -9.35,5.379 -16.15,5.379 -3.12,0 -6.24,-0.285 -9.36,-1.133 -3.12,-0.566 -6.24,-1.699 -9.64,-3.113 l 0,43.598" /><path
         id="path122"
         style="fill:#010101;fill-opacity:1;fill-rule:evenodd;stroke:none"
         d="m 1628.71,164.199 9.35,0 c 5.96,-9.344 10.21,-18.121 13.33,-26.894 2.83,-9.059 4.25,-17.836 4.25,-26.328 0,-8.778 -1.42,-17.5551 -4.25,-26.6137 -3.12,-8.7774 -7.37,-17.836 -13.33,-26.8945 l -9.35,0 c 5.1,9.0585 9.07,17.8359 11.62,26.6132 2.55,8.7735 3.97,17.836 3.97,26.895 0,9.058 -1.42,17.836 -3.97,26.609 -2.55,8.777 -6.52,17.555 -11.62,26.613" /><path
         id="path124"
         style="fill:#010101;fill-opacity:1;fill-rule:evenodd;stroke:none"
         d="m 1760.82,146.363 -20.98,-11.324 20.98,-11.605 -3.4,-5.664 -19.56,11.89 0,-21.801 -6.81,0 0,21.801 -19.56,-11.89 -3.4,5.664 20.98,11.605 -20.98,11.324 3.4,5.946 19.56,-11.891 0,21.797 6.81,0 0,-21.797 19.56,11.891 3.4,-5.946" /><path
         id="path126"
         style="fill:#010101;fill-opacity:1;fill-rule:evenodd;stroke:none"
         d="m 1860.89,106.164 c 0,7.641 -1.7,13.871 -4.82,18.399 -3.4,4.531 -7.93,6.796 -13.61,6.796 -5.66,0 -10.2,-2.265 -13.6,-6.796 -3.12,-4.528 -4.82,-10.758 -4.82,-18.399 0,-7.9296 1.7,-14.1562 4.82,-18.6874 3.4,-4.5274 7.94,-6.793 13.6,-6.793 5.68,0 10.21,2.2656 13.61,6.793 3.12,4.5312 4.82,10.7578 4.82,18.6874 z m -36.85,22.649 c 2.27,3.96 5.1,6.792 8.5,8.773 3.69,1.984 7.66,2.832 12.48,2.832 7.94,0 14.46,-3.113 19.56,-9.344 4.82,-6.511 7.37,-14.719 7.37,-24.91 0,-10.4765 -2.55,-18.6874 -7.37,-25.1992 -5.1,-6.2265 -11.62,-9.3398 -19.56,-9.3398 -4.82,0 -8.79,0.8477 -12.48,2.832 -3.4,1.9805 -6.23,4.8125 -8.5,8.7735 l 0,-9.9063 -10.77,0 0,90.8748 10.77,0 0,-35.386" /><path
         id="path128"
         style="fill:#010101;fill-opacity:1;fill-rule:evenodd;stroke:none"
         d="m 1887.54,164.199 9.36,0 c 5.95,-9.344 10.21,-18.121 13.32,-26.894 2.84,-9.059 4.26,-17.836 4.26,-26.328 0,-8.778 -1.42,-17.5551 -4.26,-26.6137 -3.11,-8.7774 -7.37,-17.836 -13.32,-26.8945 l -9.36,0 c 5.1,9.0585 9.07,17.8359 11.63,26.6132 2.55,8.7735 3.97,17.836 3.97,26.895 0,9.058 -1.42,17.836 -3.97,26.609 -2.56,8.777 -6.53,17.555 -11.63,26.613" /><path
         id="path130"
         style="fill:#010101;fill-opacity:1;fill-rule:evenodd;stroke:none"
         d="m 2018.52,148.344 0,-32.555 32.6,0 0,-9.91 -32.6,0 0,-32.5548 -9.92,0 0,32.5548 -32.6,0 0,9.91 32.6,0 0,32.555 9.92,0" /><path
         id="path132"
         style="fill:#010101;fill-opacity:1;fill-rule:evenodd;stroke:none"
         d="m 2117.46,83.2305 19.28,0 0,66.5315 -20.98,-4.25 0,10.758 20.7,4.25 11.9,0 0,-77.2895 19.28,0 0,-9.9063 -50.18,0 0,9.9063" /><path
         id="path134"
         style="fill:#010101;fill-opacity:1;fill-rule:evenodd;stroke:none"
         d="m 2202.23,83.2305 41.39,0 0,-9.9063 -55.57,0 0,9.9063 c 4.54,4.5312 10.49,10.7578 18.43,18.6875 7.66,7.926 12.47,13.02 14.46,15.285 3.69,4.246 6.52,7.645 7.94,10.758 1.41,2.832 2.26,5.664 2.26,8.492 0,4.813 -1.69,8.496 -4.82,11.324 -3.4,3.114 -7.65,4.532 -12.75,4.532 -3.69,0 -7.66,-0.567 -11.62,-1.981 -4.26,-1.133 -8.51,-3.117 -13.33,-5.664 l 0,11.891 c 4.82,1.98 9.07,3.398 13.33,4.246 4.25,0.847 7.93,1.414 11.34,1.414 9.07,0 16.44,-2.262 21.82,-6.793 5.39,-4.531 7.94,-10.473 7.94,-18.117 0,-3.68 -0.57,-7.078 -1.98,-10.192 -1.42,-3.117 -3.97,-7.078 -7.37,-11.324 -0.85,-1.133 -3.97,-4.531 -9.36,-9.91 -5.1,-5.379 -12.47,-13.0235 -22.11,-22.6485" /><path
         id="path136"
         style="fill:#010101;fill-opacity:1;fill-rule:evenodd;stroke:none"
         d="m 2279.05,83.2305 41.4,0 0,-9.9063 -55.57,0 0,9.9063 c 4.54,4.5312 10.49,10.7578 18.43,18.6875 7.65,7.926 12.47,13.02 14.46,15.285 3.68,4.246 6.52,7.645 7.94,10.758 1.41,2.832 2.26,5.664 2.26,8.492 0,4.813 -1.7,8.496 -4.82,11.324 -3.4,3.114 -7.65,4.532 -12.75,4.532 -3.69,0 -7.66,-0.567 -11.63,-1.981 -4.25,-1.133 -8.5,-3.117 -13.32,-5.664 l 0,11.891 c 4.82,1.98 9.07,3.398 13.32,4.246 4.26,0.847 7.94,1.414 11.34,1.414 9.07,0 16.44,-2.262 21.83,-6.793 5.39,-4.531 7.94,-10.473 7.94,-18.117 0,-3.68 -0.57,-7.078 -1.99,-10.192 -1.41,-3.117 -3.96,-7.078 -7.37,-11.324 -0.84,-1.133 -3.97,-4.531 -9.35,-9.91 -5.1,-5.379 -12.47,-13.0235 -22.12,-22.6485" /><path
         id="path138"
         style="fill:#010101;fill-opacity:1;fill-rule:evenodd;stroke:none"
         d="m 2342.56,164.199 9.35,0 c 5.96,-9.344 10.21,-18.121 13.33,-26.894 2.83,-9.059 4.25,-17.836 4.25,-26.328 0,-8.778 -1.42,-17.5551 -4.25,-26.6137 -3.12,-8.7774 -7.37,-17.836 -13.33,-26.8945 l -9.35,0 c 5.1,9.0585 9.07,17.8359 11.62,26.6132 2.55,8.7735 3.97,17.836 3.97,26.895 0,9.058 -1.42,17.836 -3.97,26.609 -2.55,8.777 -6.52,17.555 -11.62,26.613" /><path
         id="path140"
         style="fill:#010101;fill-opacity:1;fill-rule:evenodd;stroke:none"
         d="m 2474.39,146.363 -20.98,-11.324 20.98,-11.605 -3.41,-5.664 -19.55,11.89 0,-21.801 -6.81,0 0,21.801 -19.56,-11.89 -3.4,5.664 20.98,11.605 -20.98,11.324 3.4,5.946 19.56,-11.891 0,21.797 6.81,0 0,-21.797 19.55,11.891 3.41,-5.946" /><path
         id="path142"
         style="fill:#010101;fill-opacity:1;fill-rule:evenodd;stroke:none"
         d="m 2575.03,106.164 c 0,7.641 -1.7,13.871 -4.82,18.399 -3.4,4.531 -7.94,6.796 -13.61,6.796 -5.67,0 -10.2,-2.265 -13.6,-6.796 -3.12,-4.528 -4.82,-10.758 -4.82,-18.399 0,-7.9296 1.7,-14.1562 4.82,-18.6874 3.4,-4.5274 7.93,-6.793 13.6,-6.793 5.67,0 10.21,2.2656 13.61,6.793 3.12,4.5312 4.82,10.7578 4.82,18.6874 z m -36.85,22.649 c 2.27,3.96 5.1,6.792 8.5,8.773 3.69,1.984 7.66,2.832 12.48,2.832 7.93,0 14.45,-3.113 19.55,-9.344 4.83,-6.511 7.38,-14.719 7.38,-24.91 0,-10.4765 -2.55,-18.6874 -7.38,-25.1992 -5.1,-6.2265 -11.62,-9.3398 -19.55,-9.3398 -4.82,0 -8.79,0.8477 -12.48,2.832 -3.4,1.9805 -6.23,4.8125 -8.5,8.7735 l 0,-9.9063 -10.78,0 0,90.8748 10.78,0 0,-35.386" /><path
         id="path144"
         style="fill:#010101;fill-opacity:1;fill-rule:evenodd;stroke:none"
         d="m 2685.88,148.344 0,-32.555 32.6,0 0,-9.91 -32.6,0 0,-32.5548 -9.92,0 0,32.5548 -32.6,0 0,9.91 32.6,0 0,32.555 9.92,0" /><path
         id="path146"
         style="fill:#010101;fill-opacity:1;fill-rule:evenodd;stroke:none"
         d="m 2783.12,75.0234 0,10.7579 c 2.83,-1.418 5.95,-2.5508 9.07,-3.1172 2.84,-0.8477 5.95,-1.1328 8.79,-1.1328 7.94,0 13.89,2.5507 17.86,7.9296 4.25,5.0938 6.52,13.0191 7.09,23.7771 -2.27,-3.394 -5.11,-5.941 -8.51,-7.64 -3.68,-1.985 -7.37,-2.832 -11.62,-2.832 -8.79,0 -15.59,2.547 -20.69,7.925 -5.11,5.379 -7.66,12.457 -7.66,21.801 0,9.059 2.55,16.137 7.94,21.516 5.38,5.379 12.47,8.207 21.26,8.207 10.21,0 17.86,-3.961 23.25,-11.606 5.39,-7.644 7.94,-18.968 7.94,-33.687 0,-13.875 -3.41,-24.9142 -9.93,-33.1251 -6.52,-8.211 -15.31,-12.1719 -26.36,-12.1719 -2.84,0 -5.96,0.2813 -9.07,0.8477 -2.84,0.5664 -5.96,1.4179 -9.36,2.5507 z m 23.53,37.0856 c 5.39,0 9.64,1.696 12.76,5.379 3.12,3.68 4.54,8.774 4.54,15.004 0,6.227 -1.42,11.324 -4.54,15.004 -3.12,3.68 -7.37,5.379 -12.76,5.379 -5.39,0 -9.64,-1.699 -12.76,-5.379 -3.12,-3.68 -4.53,-8.777 -4.53,-15.004 0,-6.23 1.41,-11.324 4.53,-15.004 3.12,-3.683 7.37,-5.379 12.76,-5.379" /><path
         id="path148"
         style="fill:#010101;fill-opacity:1;fill-rule:evenodd;stroke:none"
         d="m 2856.55,160.52 56.13,0 0,-5.098 -31.75,-82.0978 -12.19,0 29.76,77.2848 -41.95,0 0,9.911" /><path
         id="path150"
         style="fill:#010101;fill-opacity:1;fill-rule:evenodd;stroke:none"
         d="m 2933.09,164.199 9.36,0 c 5.95,-9.344 10.2,-18.121 13.32,-26.894 2.84,-9.059 4.25,-17.836 4.25,-26.328 0,-8.778 -1.41,-17.5551 -4.25,-26.6137 -3.12,-8.7774 -7.37,-17.836 -13.32,-26.8945 l -9.36,0 c 5.11,9.0585 9.07,17.8359 11.62,26.6132 2.56,8.7735 3.97,17.836 3.97,26.895 0,9.058 -1.41,17.836 -3.97,26.609 -2.55,8.777 -6.51,17.555 -11.62,26.613" /><path
         id="path152"
         style="fill:#010101;fill-opacity:1;fill-rule:evenodd;stroke:none"
         d="m 3095.54,111.824 c -3.41,0 -6.24,-1.414 -8.22,-4.246 -1.99,-3.113 -2.84,-7.078 -2.84,-12.1717 0,-5.0977 0.85,-9.0625 2.84,-12.1758 1.98,-2.8282 4.81,-4.2461 8.22,-4.2461 3.12,0 5.95,1.4179 7.93,4.2461 1.99,3.1133 2.84,7.0781 2.84,12.1758 0,5.0937 -0.85,9.0587 -2.84,12.1717 -1.98,2.832 -4.81,4.246 -7.93,4.246 z m 0,7.36 c 6.23,0 11.05,-2.262 14.74,-6.508 3.68,-4.25 5.38,-9.91 5.38,-17.2697 0,-7.3633 -1.7,-13.0235 -5.38,-17.2696 -3.69,-4.2461 -8.79,-6.5117 -14.74,-6.5117 -6.24,0 -11.34,2.2656 -15.03,6.5117 -3.69,4.2461 -5.38,9.9063 -5.38,17.2696 0,7.3597 1.69,13.0197 5.38,17.2697 3.69,4.246 8.79,6.508 15.03,6.508 z m -60.39,35.671 c -3.4,0 -5.95,-1.414 -7.94,-4.246 -1.98,-3.113 -2.83,-7.078 -2.83,-12.171 0,-5.098 0.85,-9.063 2.83,-12.176 1.99,-2.828 4.54,-4.246 7.94,-4.246 3.4,0 6.24,1.418 8.22,4.246 1.99,3.113 2.84,7.078 2.84,12.176 0,5.093 -0.85,9.058 -2.84,11.89 -1.98,3.113 -4.82,4.527 -8.22,4.527 z m 52.73,7.36 9.36,0 -54.44,-90.59 -9.35,0 54.43,90.59 z m -52.73,0 c 6.24,0 11.34,-2.262 15.03,-6.508 3.68,-4.25 5.38,-9.91 5.38,-17.269 0,-7.364 -1.7,-13.024 -5.38,-17.27 -3.69,-4.246 -8.79,-6.512 -15.03,-6.512 -6.24,0 -11.06,2.266 -14.74,6.512 -3.69,4.246 -5.39,9.906 -5.39,17.27 0,7.359 1.7,13.019 5.39,17.269 3.68,4.246 8.5,6.508 14.74,6.508" /><path
         id="path154"
         style="fill:#010101;fill-opacity:1;fill-rule:evenodd;stroke:none"
         d="m 3223.39,126.262 c 2.56,4.812 5.96,8.492 9.65,10.758 3.68,2.265 8.21,3.398 13.32,3.398 6.8,0 11.91,-2.266 15.59,-7.078 3.69,-4.813 5.67,-11.606 5.67,-20.664 l 0,-39.3518 -10.77,0 0,39.0668 c 0,6.226 -1.14,11.043 -3.4,14.156 -2.27,3.113 -5.67,4.527 -10.21,4.527 -5.67,0 -9.92,-1.98 -13.33,-5.66 -3.11,-3.68 -4.81,-8.777 -4.81,-15.289 l 0,-36.8008 -10.78,0 0,39.0668 c 0,6.511 -1.13,11.043 -3.4,14.156 -2.27,3.113 -5.67,4.527 -10.21,4.527 -5.66,0 -9.92,-1.98 -13.32,-5.66 -3.12,-3.68 -4.82,-8.777 -4.82,-15.289 l 0,-36.8008 -10.77,0 0,65.3948 10.77,0 0,-10.192 c 2.55,3.965 5.39,7.078 8.79,9.059 3.4,1.984 7.66,2.832 12.47,2.832 4.54,0 8.79,-1.133 11.91,-3.68 3.4,-2.547 5.96,-5.945 7.65,-10.476" /><path
         id="path156"
         style="fill:#010101;fill-opacity:1;fill-rule:evenodd;stroke:none"
         d="m 702.797,548.648 0,-8.492 c -2.551,1.414 -5.102,2.262 -7.938,3.114 -2.836,0.566 -5.671,0.847 -8.507,0.847 -4.536,0 -7.653,-0.566 -9.922,-1.98 -2.266,-1.414 -3.403,-3.399 -3.403,-6.227 0,-1.984 0.852,-3.683 2.27,-4.812 1.699,-1.133 4.82,-2.266 9.641,-3.399 l 3.117,-0.851 c 6.238,-1.129 10.773,-3.114 13.609,-5.66 2.551,-2.547 3.969,-5.946 3.969,-10.477 0,-5.094 -1.985,-9.059 -5.953,-11.887 -3.973,-3.117 -9.641,-4.531 -16.727,-4.531 -2.836,0 -5.957,0.281 -9.074,0.848 -3.117,0.566 -6.52,1.418 -9.922,2.55 l 0,9.34 c 3.402,-1.699 6.52,-2.828 9.641,-3.679 3.398,-0.848 6.519,-1.414 9.636,-1.414 4.254,0 7.371,0.847 9.641,2.265 2.266,1.414 3.402,3.395 3.402,5.942 0,2.55 -0.851,4.25 -2.554,5.664 -1.414,1.132 -5.102,2.546 -10.489,3.679 l -3.117,0.567 c -5.672,1.414 -9.64,3.113 -12.191,5.664 -2.551,2.261 -3.684,5.66 -3.684,9.906 0,5.098 1.699,9.059 5.387,11.891 3.684,2.832 9.07,4.246 15.59,4.246 3.402,0 6.519,-0.282 9.355,-0.848 3.121,-0.566 5.672,-1.133 8.223,-2.266 z m -21.547,8.493 -11.906,18.402 6.804,0 8.79,-11.891 8.785,11.891 6.804,0 -11.906,-18.402 -7.371,0" /><path
         id="path158"
         style="fill:#010101;fill-opacity:1;fill-rule:evenodd;stroke:none"
         d="m 728.313,565.918 0,-15.57 18.425,0 0,-7.078 -18.425,0 0,-29.442 c 0,-4.531 0.566,-7.363 1.699,-8.496 1.418,-1.414 3.687,-1.98 7.656,-1.98 l 9.07,0 0,-7.645 -9.07,0 c -7.09,0 -11.906,1.418 -14.461,3.965 -2.551,2.547 -3.969,7.359 -3.969,14.156 l 0,29.442 -6.519,0 0,7.078 6.519,0 0,15.57 9.075,0" /><path
         id="path160"
         style="fill:#010101;fill-opacity:1;fill-rule:evenodd;stroke:none"
         d="m 805.707,525.434 0,-4.532 -41.391,0 c 0.282,-6.226 2.266,-10.757 5.668,-14.152 3.403,-3.113 7.942,-4.812 13.895,-4.812 3.402,0 6.801,0.566 10.203,1.414 3.121,0.851 6.523,1.98 9.641,3.679 l 0,-8.492 c -3.118,-1.414 -6.52,-2.547 -9.922,-3.113 -3.403,-0.852 -6.805,-1.133 -10.492,-1.133 -8.504,0 -15.59,2.547 -20.696,7.645 -5.101,5.093 -7.652,11.89 -7.652,20.664 0,8.777 2.551,16.136 7.371,21.234 4.82,5.379 11.34,7.926 19.563,7.926 7.371,0 13.039,-2.266 17.293,-7.078 4.25,-4.813 6.519,-11.325 6.519,-19.25 z m -9.07,2.546 c 0,4.813 -1.418,8.778 -4.254,11.891 -2.551,2.832 -6.238,4.246 -10.488,4.246 -5.106,0 -9.075,-1.414 -12.192,-4.246 -2.836,-2.832 -4.535,-6.793 -5.105,-11.891 l 32.039,0" /><path
         id="path162"
         style="fill:#010101;fill-opacity:1;fill-rule:evenodd;stroke:none"
         d="m 813.93,550.348 9.636,0 17.012,-45.864 17.008,45.864 9.641,0 -20.411,-54.641 -12.476,0 -20.41,54.641" /><path
         id="path164"
         style="fill:#010101;fill-opacity:1;fill-rule:evenodd;stroke:none"
         d="m 878.852,550.348 9.07,0 0,-54.641 -9.07,0 0,54.641 z m 0,21.23 9.07,0 0,-11.324 -9.07,0 0,11.324" /><path
         id="path166"
         style="fill:#010101;fill-opacity:1;fill-rule:evenodd;stroke:none"
         d="m 906.348,495.707 9.07422,0 0,75.8711 -9.07422,0 0,-75.8711 z" /><path
         id="path168"
         style="fill:#010101;fill-opacity:1;fill-rule:evenodd;stroke:none"
         d="m 969.285,548.648 0,-8.492 c -2.551,1.414 -5.101,2.262 -7.937,3.114 -2.836,0.566 -5.668,0.847 -8.504,0.847 -4.535,0 -7.656,-0.566 -9.922,-1.98 -2.27,-1.414 -3.402,-3.399 -3.402,-6.227 0,-1.984 0.851,-3.683 2.265,-4.812 1.703,-1.133 4.82,-2.266 9.641,-3.399 l 3.117,-0.851 c 6.238,-1.129 10.773,-3.114 13.609,-5.66 2.551,-2.547 3.969,-5.946 3.969,-10.477 0,-5.094 -1.984,-9.059 -5.953,-11.887 -3.969,-3.117 -9.641,-4.531 -16.727,-4.531 -2.836,0 -5.953,0.281 -9.07,0.848 -3.121,0.566 -6.523,1.418 -9.926,2.55 l 0,9.34 c 3.403,-1.699 6.524,-2.828 9.641,-3.679 3.402,-0.848 6.519,-1.414 9.641,-1.414 4.25,0 7.371,0.847 9.636,2.265 2.27,1.414 3.403,3.395 3.403,5.942 0,2.55 -0.852,4.25 -2.551,5.664 -1.418,1.132 -5.102,2.546 -10.488,3.679 l -3.122,0.567 c -5.667,1.414 -9.636,3.113 -12.191,5.664 -2.551,2.261 -3.684,5.66 -3.684,9.906 0,5.098 1.7,9.059 5.387,11.891 3.684,2.832 9.071,4.246 15.594,4.246 3.402,0 6.519,-0.282 9.355,-0.848 3.118,-0.566 5.668,-1.133 8.219,-2.266" /><path
         id="path170"
         style="fill:#010101;fill-opacity:1;fill-rule:evenodd;stroke:none"
         d="m 985.445,571.578 9.075,0 0,-44.73 26.93,23.5 11.34,0 -28.91,-25.481 30.05,-29.16 -11.63,0 -27.78,26.613 0,-26.613 -9.075,0 0,75.871" /><path
         id="path172"
         style="fill:#010101;fill-opacity:1;fill-rule:evenodd;stroke:none"
         d="m 1086.37,525.434 0,-4.532 -41.39,0 c 0.29,-6.226 2.27,-10.757 5.67,-14.152 3.4,-3.113 7.94,-4.812 13.89,-4.812 3.41,0 6.81,0.566 10.21,1.414 3.12,0.851 6.52,1.98 9.64,3.679 l 0,-8.492 c -3.12,-1.414 -6.52,-2.547 -9.93,-3.113 -3.4,-0.852 -6.8,-1.133 -10.48,-1.133 -8.51,0 -15.6,2.547 -20.7,7.645 -5.1,5.093 -7.65,11.89 -7.65,20.664 0,8.777 2.55,16.136 7.37,21.234 4.82,5.379 11.34,7.926 19.56,7.926 7.37,0 13.04,-2.266 17.29,-7.078 4.26,-4.813 6.52,-11.325 6.52,-19.25 z m -9.07,2.546 c 0,4.813 -1.42,8.778 -4.25,11.891 -2.55,2.832 -6.24,4.246 -10.49,4.246 -5.11,0 -9.08,-1.414 -12.19,-4.246 -2.84,-2.832 -4.54,-6.793 -5.1,-11.891 l 32.03,0" /><path
         id="path174"
         style="fill:#010101;fill-opacity:1;fill-rule:evenodd;stroke:none"
         d="m 1131.73,571.578 9.07,0 0,-44.73 26.94,23.5 11.34,0 -28.92,-25.481 30.05,-29.16 -11.62,0 -27.79,26.613 0,-26.613 -9.07,0 0,75.871" /><path
         id="path176"
         style="fill:#010101;fill-opacity:1;fill-rule:evenodd;stroke:none"
         d="m 1207.14,544.117 c -4.82,0 -8.5,-1.98 -11.34,-5.66 -2.83,-3.68 -4.25,-8.777 -4.25,-15.289 0,-6.793 1.42,-11.891 4.25,-15.57 2.84,-3.68 6.52,-5.66 11.34,-5.66 4.82,0 8.51,1.98 11.34,5.66 2.84,3.679 4.25,9.058 4.25,15.57 0,6.23 -1.41,11.609 -4.25,15.289 -2.83,3.68 -6.52,5.66 -11.34,5.66 z m 0.29,7.645 c 7.65,0 13.89,-2.547 18.14,-7.645 4.54,-5.094 6.81,-12.172 6.81,-20.949 0,-9.059 -2.27,-16.137 -6.81,-21.23 -4.25,-5.098 -10.49,-7.645 -18.14,-7.645 -7.94,0 -14.18,2.547 -18.43,7.645 -4.54,5.093 -6.8,12.171 -6.8,21.23 0,8.777 2.26,15.855 6.8,20.949 4.25,5.098 10.49,7.645 18.43,7.645" /><path
         id="path178"
         style="fill:#010101;fill-opacity:1;fill-rule:evenodd;stroke:none"
         d="m 1283.41,542.137 0,29.441 9.07,0 0,-75.871 -9.07,0 0,8.211 c -1.99,-3.398 -4.26,-5.66 -7.09,-7.359 -2.84,-1.418 -6.52,-2.266 -10.49,-2.266 -6.52,0 -11.91,2.547 -16.16,7.926 -4.26,5.379 -6.24,12.176 -6.24,20.949 0,8.492 1.98,15.289 6.24,20.668 4.25,5.379 9.64,7.926 16.16,7.926 3.97,0 7.65,-0.848 10.49,-2.266 2.83,-1.699 5.1,-3.961 7.09,-7.359 z m -30.62,-18.969 c 0,-6.793 1.41,-11.891 3.96,-15.57 2.84,-3.68 6.53,-5.66 11.34,-5.66 4.82,0 8.51,1.98 11.34,5.66 2.56,3.679 3.98,8.777 3.98,15.57 0,6.512 -1.42,11.609 -3.98,15.289 -2.83,3.68 -6.52,5.66 -11.34,5.66 -4.81,0 -8.5,-1.98 -11.34,-5.66 -2.55,-3.68 -3.96,-8.777 -3.96,-15.289" /><path
         id="path180"
         style="fill:#010101;fill-opacity:1;fill-rule:evenodd;stroke:none"
         d="m 1357.68,525.434 0,-4.532 -41.39,0 c 0.28,-6.226 2.27,-10.757 5.67,-14.152 3.4,-3.113 7.94,-4.812 13.89,-4.812 3.4,0 6.81,0.566 10.21,1.414 3.12,0.851 6.52,1.98 9.64,3.679 l 0,-8.492 c -3.12,-1.414 -6.52,-2.547 -9.93,-3.113 -3.4,-0.852 -6.8,-1.133 -10.48,-1.133 -8.51,0 -15.6,2.547 -20.7,7.645 -5.1,5.093 -7.66,11.89 -7.66,20.664 0,8.777 2.56,16.136 7.37,21.234 4.83,5.379 11.34,7.926 19.57,7.926 7.37,0 13.04,-2.266 17.29,-7.078 4.25,-4.813 6.52,-11.325 6.52,-19.25 z m -9.07,2.546 c 0,4.813 -1.42,8.778 -4.25,11.891 -2.56,2.832 -6.24,4.246 -10.49,4.246 -5.1,0 -9.07,-1.414 -12.19,-4.246 -2.84,-2.832 -4.54,-6.793 -5.11,-11.891 l 32.04,0" /><path
         id="path182"
         style="fill:#010101;fill-opacity:1;fill-rule:evenodd;stroke:none"
         d="m 1399.36,550.348 42.8,0 0,-8.211 -34.02,-39.352 34.02,0 0,-7.078 -43.94,0 0,8.211 33.74,39.352 -32.6,0 0,7.078" /><path
         id="path184"
         style="fill:#010101;fill-opacity:1;fill-rule:evenodd;stroke:none"
         d="m 1501.7,528.547 0,-32.84 -9.07,0 0,32.559 c 0,5.379 -1.14,9.058 -3.12,11.605 -1.99,2.547 -4.82,3.965 -9.07,3.965 -4.82,0 -8.51,-1.418 -11.34,-4.531 -2.84,-3.114 -4.26,-7.36 -4.26,-12.739 l 0,-30.859 -9.07,0 0,54.641 9.07,0 0,-8.493 c 2.27,3.395 4.82,5.661 7.66,7.36 2.83,1.699 6.23,2.547 10.2,2.547 6.24,0 11.06,-1.981 14.18,-5.946 3.12,-3.679 4.82,-9.625 4.82,-17.269" /><path
         id="path186"
         style="fill:#010101;fill-opacity:1;fill-rule:evenodd;stroke:none"
         d="m 1544.79,523.168 c -7.37,0 -12.19,-0.848 -15.02,-2.547 -2.84,-1.699 -4.26,-4.246 -4.26,-8.492 0,-3.113 1.14,-5.664 3.12,-7.363 1.99,-1.981 4.82,-2.828 8.51,-2.828 5.1,0 9.07,1.699 11.9,5.378 3.12,3.395 4.54,7.926 4.54,13.872 l 0,1.98 -8.79,0 z m 17.86,3.68 0,-31.141 -9.07,0 0,8.211 c -1.99,-3.398 -4.54,-5.66 -7.65,-7.359 -3.12,-1.418 -6.81,-2.266 -11.34,-2.266 -5.39,0 -9.93,1.699 -13.33,4.812 -3.12,3.114 -4.82,7.36 -4.82,12.458 0,6.226 1.99,10.757 6.24,13.871 3.97,3.113 10.2,4.812 18.43,4.812 l 12.47,0 0,0.852 c 0,4.246 -1.42,7.359 -3.97,9.625 -2.83,2.261 -6.52,3.394 -11.62,3.394 -3.12,0 -5.95,-0.281 -9.08,-1.133 -2.83,-0.847 -5.66,-1.98 -8.5,-3.394 l 0,8.207 c 3.4,1.418 6.52,2.266 9.64,3.117 3.12,0.566 5.95,0.848 9.07,0.848 7.94,0 13.89,-1.981 17.58,-6.227 3.97,-3.965 5.95,-10.191 5.95,-18.687" /><path
         id="path188"
         style="fill:#010101;fill-opacity:1;fill-rule:evenodd;stroke:none"
         d="m 1580.8,571.578 9.07,0 0,-44.73 26.93,23.5 11.34,0 -28.92,-25.481 30.05,-29.16 -11.62,0 -27.78,26.613 0,-26.613 -9.07,0 0,75.871" /><path
         id="path190"
         style="fill:#010101;fill-opacity:1;fill-rule:evenodd;stroke:none"
         d="m 1655.92,544.117 c -4.81,0 -8.5,-1.98 -11.34,-5.66 -2.83,-3.68 -4.25,-8.777 -4.25,-15.289 0,-6.793 1.42,-11.891 4.25,-15.57 2.84,-3.68 6.53,-5.66 11.34,-5.66 4.82,0 8.51,1.98 11.34,5.66 2.84,3.679 4.26,9.058 4.26,15.57 0,6.23 -1.42,11.609 -4.26,15.289 -2.83,3.68 -6.52,5.66 -11.34,5.66 z m 0.29,7.645 c 7.65,0 13.89,-2.547 18.14,-7.645 4.54,-5.094 6.81,-12.172 6.81,-20.949 0,-9.059 -2.27,-16.137 -6.81,-21.23 -4.25,-5.098 -10.49,-7.645 -18.14,-7.645 -7.94,0 -14.18,2.547 -18.43,7.645 -4.54,5.093 -6.8,12.171 -6.8,21.23 0,8.777 2.26,15.855 6.8,20.949 4.25,5.098 10.49,7.645 18.43,7.645" /><path
         id="path192"
         style="fill:#010101;fill-opacity:1;fill-rule:evenodd;stroke:none"
         d="m 1689.95,550.348 9.63,0 17.01,-45.864 17.01,45.864 9.64,0 -20.41,-54.641 -12.47,0 -20.41,54.641" /><g
         transform="scale(1.00071,0.999294)"
         id="g194"><path
           id="path196"
           style="fill:none;stroke:#010101;stroke-width:7.08035994;stroke-linecap:butt;stroke-linejoin:round;stroke-miterlimit:10;stroke-dasharray:none;stroke-opacity:1"
           d="m 1869.78,932.909 463.76,0" /></g><g
         transform="scale(1.00071,0.999294)"
         id="g198"><path
           id="path200"
           style="fill:none;stroke:#010101;stroke-width:7.3657999;stroke-linecap:butt;stroke-linejoin:round;stroke-miterlimit:10;stroke-dasharray:none;stroke-opacity:1"
           d="m 2332.13,932.909 0,-634.593" /></g><path
         id="path202"
         style="fill:#010101;fill-opacity:1;fill-rule:evenodd;stroke:none"
         d="m 2333.77,221.383 26.93,80.117 -53.57,0 26.64,-80.117" /></g></g></svg>