<?xml version="1.0" encoding="UTF-8" standalone="no"?>
<svg
   xmlns:dc="http://purl.org/dc/elements/1.1/"
   xmlns:cc="http://creativecommons.org/ns#"
   xmlns:rdf="http://www.w3.org/1999/02/22-rdf-syntax-ns#"
   xmlns:svg="http://www.w3.org/2000/svg"
   xmlns="http://www.w3.org/2000/svg"
   viewBox="0 0 405 82.5"
   height="82.5"
   width="405"
   xml:space="preserve"
   version="1.1"
   id="svg2"><metadata
     id="metadata8"><rdf:RDF><cc:Work
         rdf:about=""><dc:format>image/svg+xml</dc:format><dc:type
           rdf:resource="http://purl.org/dc/dcmitype/StillImage" /></cc:Work></rdf:RDF></metadata><defs
     id="defs6" /><g
     transform="matrix(1.25,0,0,-1.25,0,82.5)"
     id="g10"><g
       transform="scale(0.1,0.1)"
       id="g12"><path
         id="path14"
         style="fill:#ffffff;fill-opacity:1;fill-rule:evenodd;stroke:none"
         d="m 1293.27,218.121 -215.88,0 0,217.551 431.75,0 0,-217.551 -215.87,0" /><g
         transform="scale(0.996132,1.00387)"
         id="g16"><path
           id="path18"
           style="fill:none;stroke:#010101;stroke-width:7.10784006;stroke-linecap:butt;stroke-linejoin:round;stroke-miterlimit:10;stroke-dasharray:none;stroke-opacity:1"
           d="m 1298,217.565 -216.43,0 0,216.428 433.14,0 0,-216.428 -216.71,0 z" /></g><path
         id="path20"
         style="fill:#ffffff;fill-opacity:1;fill-rule:evenodd;stroke:none"
         d="m 1725.02,218.121 -215.88,0 0,217.551 431.75,0 0,-217.551 -215.87,0" /><g
         transform="scale(0.996132,1.00387)"
         id="g22"><path
           id="path24"
           style="fill:none;stroke:#010101;stroke-width:7.10784006;stroke-linecap:butt;stroke-linejoin:round;stroke-miterlimit:10;stroke-dasharray:none;stroke-opacity:1"
           d="m 1731.43,217.565 -216.72,0 0,216.428 433.43,0 0,-216.428 -216.71,0 z" /></g><path
         id="path26"
         style="fill:#ffffff;fill-opacity:1;fill-rule:evenodd;stroke:none"
         d="m 2156.48,218.121 -215.59,0 0,217.551 431.47,0 0,-217.551 -215.88,0" /><g
         transform="scale(0.996132,1.00387)"
         id="g28"><path
           id="path30"
           style="fill:none;stroke:#010101;stroke-width:7.10784006;stroke-linecap:butt;stroke-linejoin:round;stroke-miterlimit:10;stroke-dasharray:none;stroke-opacity:1"
           d="m 2164.85,217.565 -216.71,0 0,216.428 433.43,0 0,-216.428 -216.72,0 z" /></g><path
         id="path32"
         style="fill:#ffffff;fill-opacity:1;fill-rule:evenodd;stroke:none"
         d="m 2588.23,218.121 -215.87,0 0,217.551 431.75,0 0,-217.551 -215.88,0" /><g
         transform="scale(0.996132,1.00387)"
         id="g34"><path
           id="path36"
           style="fill:none;stroke:#010101;stroke-width:7.10784006;stroke-linecap:butt;stroke-linejoin:round;stroke-miterlimit:10;stroke-dasharray:none;stroke-opacity:1"
           d="m 2598.28,217.565 -216.71,0 0,216.428 433.42,0 0,-216.428 -216.71,0 z" /></g><path
         id="path38"
         style="fill:#ffffff;fill-opacity:1;fill-rule:evenodd;stroke:none"
         d="m 3019.98,218.121 -215.87,0 0,217.551 431.74,0 0,-217.551 -215.87,0" /><g
         transform="scale(0.996132,1.00387)"
         id="g40"><path
           id="path42"
           style="fill:none;stroke:#010101;stroke-width:7.10784006;stroke-linecap:butt;stroke-linejoin:round;stroke-miterlimit:10;stroke-dasharray:none;stroke-opacity:1"
           d="m 3031.42,217.565 -216.43,0 0,216.428 433.14,0 0,-216.428 -216.71,0 z" /></g><path
         id="path44"
         style="fill:#010101;fill-opacity:1;fill-rule:evenodd;stroke:none"
         d="m 1324.14,521.039 c 0,11.418 -0.85,21.981 -6.51,31.688 -3.97,6.566 -11.33,10.851 -19.27,10.851 -5.95,0 -14.45,-2.57 -19.83,-11.992 -5.66,-9.422 -6.23,-22.27 -6.23,-30.547 0,-5.996 0,-19.988 5.38,-29.695 6.23,-10.563 15.3,-12.274 20.4,-12.274 7.08,0 15.58,2.856 20.68,12.848 4.82,8.848 5.38,19.414 5.38,29.121 z m -9.91,1.426 c 0,-8.281 0,-16.559 -2.84,-24.555 -2.83,-8.277 -8.49,-10.847 -13.03,-10.847 -16.15,0 -16.15,23.984 -16.15,35.402 0,7.707 0,13.703 1.99,19.984 2.26,8.281 7.08,13.133 13.88,13.133 16.15,0 16.15,-21.984 16.15,-33.117" /><path
         id="path46"
         style="fill:#010101;fill-opacity:1;fill-rule:evenodd;stroke:none"
         d="m 1751.64,481.637 0,7.426 -15.29,0 0,74.23 -2.55,0 c -8.22,-7.996 -19.55,-7.996 -23.8,-7.996 l 0,-7.422 c 3.4,0 9.35,0 16.15,2.855 l 0,-61.667 -15.3,0 0,-7.426 40.79,0" /><path
         id="path48"
         style="fill:#010101;fill-opacity:1;fill-rule:evenodd;stroke:none"
         d="m 2185.94,481.637 0,9.136 -22.38,0 c -1.42,0 -2.83,-0.285 -4.25,-0.285 l -13.31,0 19.83,17.989 c 12.46,10.562 20.11,17.128 20.11,28.836 0,13.703 -9.91,25.98 -26.06,25.98 -12.75,0 -20.4,-7.426 -24.08,-19.414 l 5.66,-6.852 c 3.12,13.989 9.35,17.985 16.72,17.985 10.77,0 17.28,-8.278 17.28,-17.985 0,-11.136 -7.65,-17.988 -16.43,-25.98 l -22.1,-21.129 0,-8.281 49.01,0" /><path
         id="path50"
         style="fill:#010101;fill-opacity:1;fill-rule:evenodd;stroke:none"
         d="m 2618.82,503.621 c 0,9.422 -7.08,17.418 -16.71,20.844 8.22,4.281 13.32,11.988 13.32,20.555 0,10.277 -10.2,18.273 -22.67,18.273 -9.91,0 -18.41,-5.141 -23.51,-12.848 l 4.81,-6.851 c 5.1,10.562 14.17,12.273 18.7,12.273 6.24,0 12.19,-3.426 12.19,-11.133 0,-4.281 -2.56,-14.847 -15.59,-15.988 -2.26,-0.285 -4.25,-0.285 -6.51,-0.285 l 0,-7.996 9.06,0 c 11.62,0 15.3,-9.418 15.3,-16.844 0,-9.422 -5.67,-16.558 -14.73,-16.558 -9.92,0 -18.98,5.425 -23.52,11.707 -0.85,-4.856 -0.85,-4.856 -1.41,-7.711 5.95,-7.137 15.01,-11.989 25.21,-11.989 15.02,0 26.06,11.703 26.06,24.551" /><path
         id="path52"
         style="fill:#010101;fill-opacity:1;fill-rule:evenodd;stroke:none"
         d="m 3052.27,501.91 0,7.707 -12.18,0 0,51.106 -11.61,0 -30.88,-51.106 0,-7.707 32.58,0 0,-20.273 9.91,0 0,20.273 12.18,0 z m -21.53,7.707 -23.23,0 7.37,11.992 c 3.68,6.282 15.86,27.121 15.86,33.403 l 0,-45.395" /><path
         id="path54"
         style="fill:#010101;fill-opacity:1;fill-rule:evenodd;stroke:none"
         d="m 1266.07,74.8008 0,9.1367 -22.38,0 c -1.42,0 -2.83,-0.2852 -4.25,-0.2852 l -13.32,0 19.83,17.9847 c 12.47,10.566 20.12,17.133 20.12,28.836 0,13.703 -9.92,25.98 -26.07,25.98 -12.75,0 -20.39,-7.422 -24.08,-19.414 l 5.67,-6.851 c 3.12,13.988 9.35,17.988 16.71,17.988 10.77,0 17.29,-8.281 17.29,-17.988 0,-11.133 -7.65,-17.985 -16.43,-25.981 l -22.1,-21.125 0,-8.2812 49.01,0" /><path
         id="path56"
         style="fill:#010101;fill-opacity:1;fill-rule:evenodd;stroke:none"
         d="m 1328.68,114.199 c 0,11.422 -0.85,21.985 -6.52,31.692 -3.96,6.566 -11.33,10.847 -19.26,10.847 -5.95,0 -14.45,-2.566 -19.83,-11.988 -5.67,-9.422 -6.24,-22.27 -6.24,-30.551 0,-5.996 0,-19.9842 5.38,-29.6912 6.24,-10.5625 15.31,-12.2773 20.4,-12.2773 7.09,0 15.59,2.8554 20.68,12.8476 4.82,8.8516 5.39,19.4139 5.39,29.1209 z m -9.92,1.43 c 0,-8.281 0,-16.5587 -2.83,-24.5548 -2.83,-8.2773 -8.5,-10.8476 -13.03,-10.8476 -16.15,0 -16.15,23.9804 -16.15,35.4024 0,7.707 0,13.703 1.98,19.984 2.27,8.278 7.08,13.133 13.88,13.133 16.15,0 16.15,-21.984 16.15,-33.117" /><path
         id="path58"
         style="fill:#010101;fill-opacity:1;fill-rule:evenodd;stroke:none"
         d="m 1389.87,114.199 c 0,11.422 -0.85,21.985 -6.51,31.692 -3.97,6.566 -11.34,10.847 -19.27,10.847 -5.95,0 -14.45,-2.566 -19.83,-11.988 -5.67,-9.422 -6.23,-22.27 -6.23,-30.551 0,-5.996 0,-19.9842 5.38,-29.6912 6.23,-10.5625 15.3,-12.2773 20.39,-12.2773 7.09,0 15.59,2.8554 20.69,12.8476 4.81,8.8516 5.38,19.4139 5.38,29.1209 z m -9.92,1.43 c 0,-8.281 0,-16.5587 -2.83,-24.5548 -2.83,-8.2773 -8.5,-10.8476 -13.03,-10.8476 -16.15,0 -16.15,23.9804 -16.15,35.4024 0,7.707 0,13.703 1.99,19.984 2.26,8.278 7.08,13.133 13.87,13.133 16.15,0 16.15,-21.984 16.15,-33.117" /><path
         id="path60"
         style="fill:#010101;fill-opacity:1;fill-rule:evenodd;stroke:none"
         d="m 1697.82,74.8008 0,9.1367 -22.38,0 c -1.42,0 -2.84,-0.2852 -4.25,-0.2852 l -13.32,0 19.83,17.9847 c 12.47,10.566 20.12,17.133 20.12,28.836 0,13.703 -9.92,25.98 -26.07,25.98 -12.75,0 -20.39,-7.422 -24.08,-19.414 l 5.67,-6.851 c 3.12,13.988 9.35,17.988 16.71,17.988 10.77,0 17.29,-8.281 17.29,-17.988 0,-11.133 -7.65,-17.985 -16.44,-25.981 l -22.1,-21.125 0,-8.2812 49.02,0" /><path
         id="path62"
         style="fill:#010101;fill-opacity:1;fill-rule:evenodd;stroke:none"
         d="m 1760.43,114.199 c 0,11.422 -0.85,21.985 -6.52,31.692 -3.96,6.566 -11.33,10.847 -19.27,10.847 -5.94,0 -14.44,-2.566 -19.82,-11.988 -5.67,-9.422 -6.24,-22.27 -6.24,-30.551 0,-5.996 0,-19.9842 5.38,-29.6912 6.24,-10.5625 15.3,-12.2773 20.4,-12.2773 7.09,0 15.59,2.8554 20.68,12.8476 4.82,8.8516 5.39,19.4139 5.39,29.1209 z m -9.92,1.43 c 0,-8.281 0,-16.5587 -2.83,-24.5548 -2.84,-8.2773 -8.5,-10.8476 -13.04,-10.8476 -16.14,0 -16.14,23.9804 -16.14,35.4024 0,7.707 0,13.703 1.98,19.984 2.27,8.278 7.08,13.133 13.88,13.133 16.15,0 16.15,-21.984 16.15,-33.117" /><path
         id="path64"
         style="fill:#010101;fill-opacity:1;fill-rule:evenodd;stroke:none"
         d="m 1821.34,96.7852 c 0,7.4218 -4.54,16.2738 -16.72,20.8398 7.37,2.285 15.02,8.566 15.02,17.703 0,11.133 -10.2,21.125 -23.8,21.125 -14.16,0 -24.08,-10.277 -24.08,-21.125 0,-9.137 7.65,-15.418 15.01,-17.703 -12.46,-4.566 -16.71,-13.703 -16.71,-20.8398 0,-13.418 11.33,-24.5547 25.49,-24.5547 14.74,0 25.79,11.4218 25.79,24.5547 z m -10.48,38.5428 c 0,-7.426 -5.39,-13.707 -15.31,-13.707 -9.34,0 -15.01,5.711 -15.01,13.707 0,7.992 5.95,13.703 15.01,13.703 9.92,0 15.31,-5.996 15.31,-13.703 z m 0,-38.5428 c 0,-11.1368 -7.09,-16.5586 -15.02,-16.5586 -8.5,0 -15.3,5.707 -15.3,16.5586 0,12.8478 9.07,16.8438 15.01,16.8438 6.81,0 15.31,-4.566 15.31,-16.8438" /><path
         id="path66"
         style="fill:#010101;fill-opacity:1;fill-rule:evenodd;stroke:none"
         d="m 2129.28,74.8008 0,9.1367 -22.38,0 c -1.42,0 -2.83,-0.2852 -4.25,-0.2852 l -13.31,0 19.83,17.9847 c 12.46,10.566 20.11,17.133 20.11,28.836 0,13.703 -9.91,25.98 -26.06,25.98 -12.75,0 -20.4,-7.422 -24.08,-19.414 l 5.66,-6.851 c 3.12,13.988 9.35,17.988 16.72,17.988 10.77,0 17.28,-8.281 17.28,-17.988 0,-11.133 -7.65,-17.985 -16.43,-25.981 l -22.1,-21.125 0,-8.2812 49.01,0" /><path
         id="path68"
         style="fill:#010101;fill-opacity:1;fill-rule:evenodd;stroke:none"
         d="m 2187.64,74.8008 0,7.4219 -15.3,0 0,74.2303 -2.55,0 c -8.21,-7.992 -19.54,-7.992 -23.79,-7.992 l 0,-7.426 c 3.4,0 9.35,0 16.14,2.856 l 0,-61.6683 -15.29,0 0,-7.4219 40.79,0" /><path
         id="path70"
         style="fill:#010101;fill-opacity:1;fill-rule:evenodd;stroke:none"
         d="m 2252.8,101.922 c 0,6.566 -1.13,12.562 -5.1,19.129 -4.81,7.711 -9.06,9.707 -14.73,9.707 -4.53,0 -13.31,-1.426 -20.68,-9.992 1.13,16.273 9.35,28.265 22.38,28.265 2.27,0 6.8,0 12.75,-2.57 l 0,7.711 c -5.67,2.281 -10.48,2.281 -13.03,2.281 -17.28,0 -32.87,-16.844 -32.87,-42.824 0,-33.1173 14.45,-41.3985 25.78,-41.3985 7.37,0 12.75,2.5703 17.29,7.9961 5.95,6.5664 8.21,11.9882 8.21,21.6954 z m -10.48,0 c 0,-4.8517 0,-9.7072 -3.12,-14.8439 -2.26,-3.7109 -5.66,-6.8515 -11.9,-6.8515 -12.75,0 -14.44,17.1289 -15.01,21.1254 0,1.714 0,2 0.28,3.14 0,9.137 5.67,18.559 15.3,18.559 4.53,0 8.78,-1.715 11.9,-7.422 2.27,-4.285 2.55,-8.281 2.55,-13.707" /><path
         id="path72"
         style="fill:#010101;fill-opacity:1;fill-rule:evenodd;stroke:none"
         d="m 2561.03,74.8008 0,9.1367 -22.38,0 c -1.42,0 -2.83,-0.2852 -4.25,-0.2852 l -13.31,0 19.83,17.9847 c 12.46,10.566 20.11,17.133 20.11,28.836 0,13.703 -9.91,25.98 -26.06,25.98 -12.75,0 -20.4,-7.422 -24.08,-19.414 l 5.66,-6.851 c 3.12,13.988 9.35,17.988 16.72,17.988 10.77,0 17.28,-8.281 17.28,-17.988 0,-11.133 -7.65,-17.985 -16.43,-25.981 l -22.1,-21.125 0,-8.2812 49.01,0" /><path
         id="path74"
         style="fill:#010101;fill-opacity:1;fill-rule:evenodd;stroke:none"
         d="m 2622.23,74.8008 0,9.1367 -22.39,0 c -1.41,0 -2.83,-0.2852 -4.25,-0.2852 l -13.31,0 19.83,17.9847 c 12.46,10.566 20.12,17.133 20.12,28.836 0,13.703 -9.92,25.98 -26.07,25.98 -12.75,0 -20.39,-7.422 -24.08,-19.414 l 5.67,-6.851 c 3.11,13.988 9.35,17.988 16.71,17.988 10.77,0 17.28,-8.281 17.28,-17.988 0,-11.133 -7.65,-17.985 -16.43,-25.981 l -22.1,-21.125 0,-8.2812 49.02,0" /><path
         id="path76"
         style="fill:#010101;fill-opacity:1;fill-rule:evenodd;stroke:none"
         d="m 2686.25,95.0703 0,7.7107 -12.18,0 0,51.102 -11.62,0 -30.88,-51.102 0,-7.7107 32.58,0 0,-20.2695 9.92,0 0,20.2695 12.18,0 z m -21.53,7.7107 -23.23,0 7.37,11.989 c 3.68,6.281 15.86,27.125 15.86,33.406 l 0,-45.395" /><path
         id="path78"
         style="fill:#010101;fill-opacity:1;fill-rule:evenodd;stroke:none"
         d="m 2992.78,74.8008 0,9.1367 -22.38,0 c -1.42,0 -2.83,-0.2852 -4.25,-0.2852 l -13.31,0 19.83,17.9847 c 12.46,10.566 20.11,17.133 20.11,28.836 0,13.703 -9.91,25.98 -26.06,25.98 -12.75,0 -20.4,-7.422 -24.08,-19.414 l 5.66,-6.851 c 3.12,13.988 9.35,17.988 16.72,17.988 10.77,0 17.28,-8.281 17.28,-17.988 0,-11.133 -7.65,-17.985 -16.43,-25.981 l -22.1,-21.125 0,-8.2812 49.01,0" /><path
         id="path80"
         style="fill:#010101;fill-opacity:1;fill-rule:evenodd;stroke:none"
         d="m 3055.11,96.7852 c 0,9.4218 -7.09,17.4138 -16.72,20.8398 8.22,4.285 13.32,11.992 13.32,20.559 0,10.277 -10.2,18.269 -22.67,18.269 -9.91,0 -18.41,-5.137 -23.51,-12.848 l 4.82,-6.851 c 5.1,10.562 14.16,12.277 18.69,12.277 6.24,0 12.19,-3.426 12.19,-11.136 0,-4.282 -2.55,-14.844 -15.59,-15.985 -2.26,-0.289 -4.25,-0.289 -6.51,-0.289 l 0,-7.992 9.07,0 c 11.61,0 15.29,-9.422 15.29,-16.8438 0,-9.4219 -5.66,-16.5586 -14.73,-16.5586 -9.92,0 -18.98,5.4218 -23.51,11.7031 -0.85,-4.8516 -0.85,-4.8516 -1.42,-7.707 5.95,-7.1368 15.01,-11.9922 25.21,-11.9922 15.02,0 26.07,11.707 26.07,24.5547" /><path
         id="path82"
         style="fill:#010101;fill-opacity:1;fill-rule:evenodd;stroke:none"
         d="m 3115.17,74.8008 0,9.1367 -22.38,0 c -1.42,0 -2.84,-0.2852 -4.25,-0.2852 l -13.32,0 19.83,17.9847 c 12.47,10.566 20.12,17.133 20.12,28.836 0,13.703 -9.92,25.98 -26.07,25.98 -12.74,0 -20.39,-7.422 -24.08,-19.414 l 5.67,-6.851 c 3.11,13.988 9.35,17.988 16.71,17.988 10.77,0 17.28,-8.281 17.28,-17.988 0,-11.133 -7.64,-17.985 -16.43,-25.981 l -22.09,-21.125 0,-8.2812 49.01,0" /><path
         id="path84"
         style="fill:#010101;fill-opacity:1;fill-rule:evenodd;stroke:none"
         d="m 701.734,483.922 0,53.676 -9.632,0 0,-53.676 9.632,0 z m 0.852,67.949 0,11.707 -11.332,0 0,-11.707 11.332,0" /><path
         id="path86"
         style="fill:#010101;fill-opacity:1;fill-rule:evenodd;stroke:none"
         d="m 766.043,483.922 0,35.973 c 0,8.851 -2.551,19.128 -16.996,19.128 -9.352,0 -15.016,-5.71 -17.848,-9.421 l 0,8.566 -9.351,0 0,-54.246 9.918,0 0,29.406 c 0,7.996 3.113,17.703 12.464,17.703 11.899,0 11.899,-8.566 11.899,-11.992 l 0,-35.117 9.914,0" /><path
         id="path88"
         style="fill:#010101;fill-opacity:1;fill-rule:evenodd;stroke:none"
         d="m 829.219,483.637 0,83.937 -9.633,0 0,-35.402 c -6.516,5.711 -14.445,6.566 -18.129,6.566 -12.184,0 -21.531,-12.562 -21.531,-27.98 0,-15.699 9.347,-28.262 20.965,-28.262 3.679,0 11.332,0.856 18.414,7.707 l 0,-6.566 9.914,0 z m -9.914,17.129 c 0,-2.282 0,-2.567 -1.418,-4.282 -3.117,-4.281 -7.082,-5.996 -11.614,-5.996 -7.652,0 -16.433,5.426 -16.433,19.985 0,15.418 10.199,20.558 17.848,20.558 5.382,0 9.351,-3.14 11.617,-6.281 l 0,-23.984" /><path
         id="path90"
         style="fill:#010101;fill-opacity:1;fill-rule:evenodd;stroke:none"
         d="m 890.695,510.188 c 0,3.71 -0.285,12.847 -4.816,20.273 -5.098,7.422 -12.75,8.848 -17.281,8.848 -13.883,0 -24.93,-12.848 -24.93,-28.262 0,-15.988 11.613,-28.551 26.629,-28.551 5.668,0 12.75,1.426 19.832,5.996 l -0.852,8.278 c -7.648,-5.426 -14.73,-6.282 -18.695,-6.282 -10.199,0 -17.848,8.567 -18.133,19.7 l 38.246,0 z m -7.367,7.136 -30.027,0 c 1.699,7.711 7.648,14.278 15.297,14.278 4.25,0 12.465,-2 14.73,-14.278" /><path
         id="path92"
         style="fill:#010101;fill-opacity:1;fill-rule:evenodd;stroke:none"
         d="m 952.453,483.922 -23.512,32.832 20.68,20.844 -11.332,0 -24.644,-24.84 0,55.101 -9.067,0 0,-83.937 8.781,0 0,17.129 9.633,9.707 18.981,-26.836 10.48,0" /><path
         id="path94"
         style="fill:#010101;fill-opacity:1;fill-rule:evenodd;stroke:none"
         d="m 998.914,499.34 c 0,4.281 -1.699,8.566 -5.949,12.277 -4.246,3.426 -7.649,3.996 -15.297,5.422 -4.25,0.859 -10.199,2 -10.199,7.711 0,7.137 8.5,7.137 10.199,7.137 8.781,0 14.164,-2.856 17.566,-4.567 l 1.414,8.278 c -7.363,3.425 -12.746,3.996 -17.847,3.996 -2.547,0 -20.399,0 -20.399,-15.989 0,-5.707 3.684,-9.421 4.817,-10.847 4.535,-3.996 7.652,-4.567 15.867,-5.996 3.965,-0.856 10.766,-2.285 10.766,-8.278 0,-7.996 -9.633,-7.996 -11.332,-7.996 -7.082,0 -13.883,2.571 -18.981,6.282 l -1.703,-8.852 c 7.367,-3.996 14.449,-5.422 20.684,-5.422 7.929,0 20.394,2.57 20.394,16.844" /><path
         id="path96"
         style="fill:#010101;fill-opacity:1;fill-rule:evenodd;stroke:none"
         d="m 1023.28,527.32 0,10.278 -10.2,0 0,-10.278 10.2,0 z m 0,-43.398 0,10.277 -10.2,0 0,-10.277 10.2,0" /><path
         id="path98"
         style="fill:#010101;fill-opacity:1;fill-rule:evenodd;stroke:none"
         d="m 130.035,112.203 c 0,14.274 -7.648,27.977 -19.265,27.977 -3.399,0 -12.1802,0 -20.3989,-6.852 l 0,5.711 -9.6289,0 0,-77.0859 9.9141,0 0,29.1211 c 4.5312,-4.2812 10.4807,-7.1367 16.7147,-7.1367 12.18,0 22.664,11.9922 22.664,28.2655 z m -9.914,0 c 0,-11.707 -8.5,-20.2733 -17.851,-20.2733 -3.6802,0 -8.2153,1.7148 -11.6137,7.4258 l 0,26.2655 c 1.6992,1.996 5.9492,6.567 12.7497,6.567 9.063,0 16.715,-8.567 16.715,-19.985" /><path
         id="path100"
         style="fill:#010101;fill-opacity:1;fill-rule:evenodd;stroke:none"
         d="m 194.629,111.914 c 0,15.703 -11.899,28.836 -27.199,28.836 -14.731,0 -26.914,-12.848 -26.914,-28.836 0,-15.9843 12.464,-27.9765 26.914,-27.9765 15.015,0 27.199,12.2773 27.199,27.9765 z m -9.918,1.145 c 0,-13.9887 -8.215,-20.8442 -16.996,-20.8442 -9.352,0 -17.281,7.1407 -17.281,20.8442 0,13.988 9.062,19.984 16.996,19.984 8.781,0 17.281,-6.281 17.281,-19.984" /><path
         id="path102"
         style="fill:#010101;fill-opacity:1;fill-rule:evenodd;stroke:none"
         d="m 285.852,85.3633 0,35.9727 c 0,8.852 -2.27,19.129 -16.715,19.129 -10.199,0 -15.867,-6.281 -18.699,-9.992 -0.852,2.285 -3.399,9.992 -15.583,9.992 -9.347,0 -15.015,-5.707 -17.847,-9.422 l 0,8.566 -9.348,0 0,-54.2457 9.914,0 0,29.4067 c 0,7.996 3.117,17.703 12.465,17.703 11.899,0 11.899,-8.567 11.899,-11.993 l 0,-35.1167 9.917,0 0,29.4067 c 0,7.996 3.114,17.703 12.18,17.703 11.899,0 11.899,-8.567 11.899,-11.993 l 0,-35.1167 9.918,0" /><path
         id="path104"
         style="fill:#010101;fill-opacity:1;fill-rule:evenodd;stroke:none"
         d="m 350.16,85.3633 0,35.9727 c 0,8.852 -2.551,19.129 -17,19.129 -9.347,0 -15.015,-5.707 -17.847,-9.422 l 0,8.566 -9.348,0 0,-54.2457 9.914,0 0,29.4067 c 0,7.996 3.117,17.703 12.465,17.703 11.898,0 11.898,-8.567 11.898,-11.993 l 0,-35.1167 9.918,0" /><path
         id="path106"
         style="fill:#010101;fill-opacity:1;fill-rule:evenodd;stroke:none"
         d="m 379.34,85.3633 0,53.6757 -9.633,0 0,-53.6757 9.633,0 z m 0.848,67.9497 0,11.707 -11.333,0 0,-11.707 11.333,0" /><path
         id="path108"
         style="fill:#010101;fill-opacity:1;fill-rule:evenodd;stroke:none"
         d="m 399.738,85.3633 9.62891,0 0,83.9375 -9.62891,0 0,-83.9375 z" /><path
         id="path110"
         style="fill:#010101;fill-opacity:1;fill-rule:evenodd;stroke:none"
         d="m 473.676,85.3633 0,35.9727 c 0,8.852 -2.547,19.129 -16.996,19.129 -9.348,0 -15.016,-5.707 -17.848,-9.422 l 0,8.566 -9.348,0 0,-54.2457 9.914,0 0,29.4067 c 0,7.996 3.118,17.703 12.465,17.703 11.899,0 11.899,-8.567 11.899,-11.993 l 0,-35.1167 9.914,0" /><path
         id="path112"
         style="fill:#010101;fill-opacity:1;fill-rule:evenodd;stroke:none"
         d="m 502.859,85.3633 0,53.6757 -9.632,0 0,-53.6757 9.632,0 z m 0.848,67.9497 0,11.707 -11.332,0 0,-11.707 11.332,0" /><path
         id="path114"
         style="fill:#010101;fill-opacity:1;fill-rule:evenodd;stroke:none"
         d="m 557.816,100.781 c 0,4.282 -1.699,8.567 -5.949,12.278 -4.25,3.425 -7.648,3.996 -15.297,5.425 -4.25,0.856 -10.199,1.996 -10.199,7.707 0,7.137 8.5,7.137 10.199,7.137 8.782,0 14.164,-2.855 17.567,-4.566 l 1.414,8.277 c -7.363,3.426 -12.746,3.996 -17.848,3.996 -2.551,0 -20.398,0 -20.398,-15.984 0,-5.711 3.683,-9.422 4.816,-10.852 4.535,-3.996 7.649,-4.566 15.867,-5.996 3.965,-0.855 10.766,-2.281 10.766,-8.2772 0,-7.9961 -9.633,-7.9961 -11.332,-7.9961 -7.086,0 -13.883,2.5703 -18.984,6.2812 l -1.7,-8.8476 c 7.367,-4 14.45,-5.4258 20.684,-5.4258 7.93,0 20.394,2.5703 20.394,16.8435 z m -2.265,68.805 -7.082,0 -11.614,-15.129 -11.332,15.129 -7.085,0 15.015,-20.84 7.082,0 15.016,20.84" /><path
         id="path116"
         style="fill:#010101;fill-opacity:1;fill-rule:evenodd;stroke:none"
         d="m 618.16,85.3633 -23.512,32.8317 20.68,20.844 -11.332,0 -24.648,-24.84 0,55.102 -9.067,0 0,-83.9377 8.785,0 0,17.1327 9.633,9.707 18.981,-26.8397 10.48,0" /><path
         id="path118"
         style="fill:#010101;fill-opacity:1;fill-rule:evenodd;stroke:none"
         d="m 639.691,85.3633 0,53.6757 -9.632,0 0,-53.6757 9.632,0 z m 0.852,67.9497 0,11.707 -11.332,0 0,-11.707 11.332,0" /><path
         id="path120"
         style="fill:#010101;fill-opacity:1;fill-rule:evenodd;stroke:none"
         d="m 744.797,85.3633 0,35.9727 c 0,8.852 -2.551,19.129 -17,19.129 -9.348,0 -15.016,-5.707 -17.848,-9.422 l 0,8.566 -9.347,0 0,-54.2457 9.914,0 0,29.4067 c 0,7.996 3.117,17.703 12.464,17.703 11.899,0 11.899,-8.567 11.899,-11.993 l 0,-35.1167 9.918,0" /><path
         id="path122"
         style="fill:#010101;fill-opacity:1;fill-rule:evenodd;stroke:none"
         d="m 805.141,85.3633 0,34.8317 c 0,11.993 -8.786,20.84 -20.684,20.84 -7.934,0 -13.598,-1.996 -19.262,-5.422 l 0.567,-8.281 c 5.949,4.285 11.898,5.996 18.414,5.996 6.797,0 10.765,-5.426 10.765,-13.133 l 0,-5.14 c -20.398,0 -33.996,-5.422 -33.996,-15.4144 0,-5.7109 3.68,-15.4179 14.164,-15.4179 2.266,0 12.746,0 20.399,5.7109 l 0,-4.5703 9.633,0 z m -10.2,16.8437 c 0,-2.5664 0,-5.4218 -4.25,-7.9922 -2.836,-1.7148 -6.8,-2.2851 -9.351,-2.2851 -5.949,0 -11.332,2.8555 -11.332,7.9961 0,8.5622 23.515,8.5622 24.933,8.5622 l 0,-6.281" /><path
         id="path124"
         style="fill:#010101;fill-opacity:1;fill-rule:evenodd;stroke:none"
         d="m 857.551,100.781 c 0,4.282 -1.703,8.567 -5.949,12.278 -4.25,3.425 -7.653,3.996 -15.301,5.425 -4.25,0.856 -10.199,1.996 -10.199,7.707 0,7.137 8.5,7.137 10.199,7.137 8.781,0 14.164,-2.855 17.566,-4.566 l 1.414,8.277 c -7.363,3.426 -12.746,3.996 -17.847,3.996 -2.547,0 -20.395,0 -20.395,-15.984 0,-5.711 3.68,-9.422 4.813,-10.852 4.535,-3.996 7.652,-4.566 15.867,-5.996 3.965,-0.855 10.765,-2.281 10.765,-8.2772 0,-7.9961 -9.632,-7.9961 -11.332,-7.9961 -7.082,0 -13.882,2.5703 -18.98,6.2812 l -1.703,-8.8476 c 7.367,-4 14.449,-5.4258 20.683,-5.4258 7.93,0 20.399,2.5703 20.399,16.8435" /><path
         id="path126"
         style="fill:#010101;fill-opacity:1;fill-rule:evenodd;stroke:none"
         d="m 870.016,85.3633 9.63281,0 0,83.9375 -9.63281,0 0,-83.9375 z" /><path
         id="path128"
         style="fill:#010101;fill-opacity:1;fill-rule:evenodd;stroke:none"
         d="m 947.355,111.914 c 0,15.703 -11.898,28.836 -27.195,28.836 -14.734,0 -26.914,-12.848 -26.914,-28.836 0,-15.9843 12.465,-27.9765 26.914,-27.9765 15.012,0 27.195,12.2773 27.195,27.9765 z m -9.914,1.145 c 0,-13.9887 -8.218,-20.8442 -17,-20.8442 -9.347,0 -17.281,7.1407 -17.281,20.8442 0,13.988 9.067,19.984 17,19.984 8.781,0 17.281,-6.281 17.281,-19.984" /><path
         id="path130"
         style="fill:#010101;fill-opacity:1;fill-rule:evenodd;stroke:none"
         d="m 1005.71,139.039 -9.343,0 c -5.101,-13.418 -5.383,-13.418 -9.633,-24.555 -2.265,-6.281 -6.8,-17.984 -7.367,-22.2692 l -0.281,0 c -0.285,2 -0.566,4.2852 -7.082,21.6992 l -9.633,25.125 -9.918,0 20.965,-53.6757 11.332,0 20.96,53.6757" /><path
         id="path132"
         style="fill:#010101;fill-opacity:1;fill-rule:evenodd;stroke:none"
         d="m 1029.23,128.762 0,10.277 -10.2,0 0,-10.277 10.2,0 z m 0,-43.3987 0,10.2773 -10.2,0 0,-10.2773 10.2,0" /></g></g></svg>