<?xml version="1.0" encoding="UTF-8" standalone="no"?>
<svg
   xmlns:dc="http://purl.org/dc/elements/1.1/"
   xmlns:cc="http://creativecommons.org/ns#"
   xmlns:rdf="http://www.w3.org/1999/02/22-rdf-syntax-ns#"
   xmlns:svg="http://www.w3.org/2000/svg"
   xmlns="http://www.w3.org/2000/svg"
   viewBox="0 0 990 262.5"
   height="262.5"
   width="990"
   xml:space="preserve"
   version="1.1"
   id="svg2"><metadata
     id="metadata8"><rdf:RDF><cc:Work
         rdf:about=""><dc:format>image/svg+xml</dc:format><dc:type
           rdf:resource="http://purl.org/dc/dcmitype/StillImage" /></cc:Work></rdf:RDF></metadata><defs
     id="defs6" /><g
     transform="matrix(1.25,0,0,-1.25,0,262.5)"
     id="g10"><g
       transform="scale(0.1,0.1)"
       id="g12"><g
         transform="scale(1.00053,0.99947)"
         id="g14"><path
           id="path16"
           style="fill:none;stroke:#010101;stroke-width:7.07753992;stroke-linecap:butt;stroke-linejoin:round;stroke-miterlimit:10;stroke-dasharray:none;stroke-opacity:1"
           d="M 3646.12,1917.21 3070.76,1341.85" /></g><g
         transform="scale(1.00053,0.99947)"
         id="g18"><path
           id="path20"
           style="fill:none;stroke:#010101;stroke-width:7.07753992;stroke-linecap:butt;stroke-linejoin:round;stroke-miterlimit:10;stroke-dasharray:none;stroke-opacity:1"
           d="M 3070.76,1341.85 2711.16,766.769" /></g><g
         transform="scale(1.00053,0.99947)"
         id="g22"><path
           id="path24"
           style="fill:none;stroke:#010101;stroke-width:7.07753992;stroke-linecap:butt;stroke-linejoin:round;stroke-miterlimit:10;stroke-dasharray:none;stroke-opacity:1"
           d="m 3430.36,766.769 -359.6,575.081" /></g><g
         transform="scale(1.00053,0.99947)"
         id="g26"><path
           id="path28"
           style="fill:none;stroke:#010101;stroke-width:7.07753992;stroke-linecap:butt;stroke-linejoin:round;stroke-miterlimit:10;stroke-dasharray:none;stroke-opacity:1"
           d="m 3214.6,191.691 215.76,575.078" /></g><g
         transform="scale(1.00053,0.99947)"
         id="g30"><path
           id="path32"
           style="fill:none;stroke:#010101;stroke-width:7.07753992;stroke-linecap:butt;stroke-linejoin:round;stroke-miterlimit:10;stroke-dasharray:none;stroke-opacity:1"
           d="M 4221.48,1341.85 4580.8,766.769" /></g><g
         transform="scale(1.00053,0.99947)"
         id="g34"><path
           id="path36"
           style="fill:none;stroke:#010101;stroke-width:7.07753992;stroke-linecap:butt;stroke-linejoin:round;stroke-miterlimit:10;stroke-dasharray:none;stroke-opacity:1"
           d="m 3646.12,1917.21 575.36,-575.36" /></g><path
         id="path38"
         style="fill:#ffffff;fill-opacity:1;fill-rule:evenodd;stroke:none"
         d="m 3648.05,2095.61 c 101.99,0 179.9,-77.82 179.9,-179.7 0,-101.6 -77.91,-179.42 -179.9,-179.42 -101.98,0 -179.89,77.82 -179.89,179.42 0,101.88 77.91,179.7 179.89,179.7 z m -179.89,0 0,0 z m 360.07,-359.41 0,0" /><g
         transform="scale(1.00053,0.99947)"
         id="g40"><path
           id="path42"
           style="fill:none;stroke:#010101;stroke-width:7.07753992;stroke-linecap:butt;stroke-linejoin:round;stroke-miterlimit:10;stroke-dasharray:none;stroke-opacity:1"
           d="m 3646.12,2097.01 c 101.94,0 179.8,-77.87 179.8,-179.8 0,-101.94 -77.86,-179.8 -179.8,-179.8 -101.93,0 -179.8,77.86 -179.8,179.8 0,101.93 77.87,179.8 179.8,179.8 z" /></g><g
         transform="scale(1.00053,0.99947)"
         id="g44"><path
           id="path46"
           style="fill:none;stroke:#010101;stroke-width:7.07753992;stroke-linecap:butt;stroke-linejoin:round;stroke-miterlimit:10;stroke-dasharray:none;stroke-opacity:1"
           d="m 3466.32,2097.01 0,0 z" /></g><g
         transform="scale(1.00053,0.99947)"
         id="g48"><path
           id="path50"
           style="fill:none;stroke:#010101;stroke-width:7.07753992;stroke-linecap:butt;stroke-linejoin:round;stroke-miterlimit:10;stroke-dasharray:none;stroke-opacity:1"
           d="m 3826.21,1737.12 0,0 z" /></g><path
         id="path52"
         style="fill:#010101;fill-opacity:1;fill-rule:evenodd;stroke:none"
         d="m 3638.14,1840.07 0,12.16 -32.01,0 c -1.99,0 -4.25,0 -6.24,0 l -19.26,0 c 4.53,4.82 21.25,21.23 32.86,31.7 13.32,11.89 24.65,22.93 24.65,39.62 0,19.81 -13.6,38.21 -37.4,38.21 -19.54,0 -29.46,-12.74 -34.28,-29.44 5.67,-7.36 5.67,-7.64 7.37,-9.9 4.53,19.24 11.05,28.3 24.37,28.3 15.57,0 25.77,-12.17 25.77,-27.74 0,-9.34 -3.96,-19.8 -15.86,-31.69 l -40.23,-39.9 0,-11.32 70.26,0" /><path
         id="path54"
         style="fill:#010101;fill-opacity:1;fill-rule:evenodd;stroke:none"
         d="m 3728.23,1898.93 c 0,11.89 -0.28,25.75 -5.1,38.49 -7.65,20.37 -21.81,24.34 -31.17,24.34 -11.89,0 -23.23,-5.95 -29.74,-20.1 -5.95,-12.73 -7.08,-27.45 -7.08,-42.73 0,-19.81 1.7,-30.85 7.36,-43.58 5.39,-11.89 17,-18.96 29.18,-18.96 11.9,0 23.23,6.5 29.18,18.96 6.23,12.73 7.37,25.75 7.37,43.58 z m -13.6,1.98 c 0,-11.32 0,-23.21 -3.12,-34.52 -4.81,-17.27 -15.01,-19.25 -19.55,-19.25 -23.23,0 -23.23,37.07 -23.23,53.77 0,11.89 0,22.64 3.4,33.11 4.25,12.74 12.19,16.98 19.55,16.98 22.95,0 22.95,-33.39 22.95,-50.09" /><path
         id="path56"
         style="fill:#ffffff;fill-opacity:1;fill-rule:evenodd;stroke:none"
         d="m 4223.72,1520.84 c 101.99,0 179.9,-77.82 179.9,-179.7 0,-101.88 -77.91,-179.71 -179.9,-179.71 -101.99,0 -179.9,77.83 -179.9,179.71 0,101.88 77.91,179.7 179.9,179.7 z m -179.9,0 0,0 z m 360.08,-359.69 0,0" /><g
         transform="scale(1.00053,0.99947)"
         id="g58"><path
           id="path60"
           style="fill:none;stroke:#010101;stroke-width:7.07753992;stroke-linecap:butt;stroke-linejoin:round;stroke-miterlimit:10;stroke-dasharray:none;stroke-opacity:1"
           d="m 4221.48,1521.65 c 101.94,0 179.81,-77.87 179.81,-179.8 0,-101.65 -77.87,-179.52 -179.81,-179.52 -101.93,0 -179.8,77.87 -179.8,179.52 0,101.93 77.87,179.8 179.8,179.8 z" /></g><g
         transform="scale(1.00053,0.99947)"
         id="g62"><path
           id="path64"
           style="fill:none;stroke:#010101;stroke-width:7.07753992;stroke-linecap:butt;stroke-linejoin:round;stroke-miterlimit:10;stroke-dasharray:none;stroke-opacity:1"
           d="m 4041.68,1521.65 0,0 z" /></g><g
         transform="scale(1.00053,0.99947)"
         id="g66"><path
           id="path68"
           style="fill:none;stroke:#010101;stroke-width:7.07753992;stroke-linecap:butt;stroke-linejoin:round;stroke-miterlimit:10;stroke-dasharray:none;stroke-opacity:1"
           d="m 4401.57,1162.05 0,0 z" /></g><path
         id="path70"
         style="fill:#010101;fill-opacity:1;fill-rule:evenodd;stroke:none"
         d="m 4215.22,1297.55 c 0,13.87 -9.06,26.04 -24.36,31.13 12.75,7.08 19.55,18.96 19.55,30.85 0,15.57 -14.45,27.17 -32.02,27.17 -14.16,0 -27.19,-7.92 -34,-19.81 l 6.52,-9.62 c 4.25,11.6 15.3,19.24 27.48,19.24 9.07,0 17.85,-5.09 17.85,-16.98 0,-11.89 -8.5,-21.79 -18.13,-24.05 -0.85,-0.28 -12.18,-1.14 -13.88,-1.14 l 0,-11.03 12.75,0 c 18.41,0 22.94,-15.85 22.94,-25.76 0,-14.43 -8.78,-25.46 -21.81,-25.46 -11.62,0 -25.78,5.94 -34,18.67 l -1.98,-10.47 c 11.62,-16.13 27.48,-18.96 36.26,-18.96 21.25,0 36.83,16.98 36.83,36.22" /><path
         id="path72"
         style="fill:#010101;fill-opacity:1;fill-rule:evenodd;stroke:none"
         d="m 4303.89,1323.88 c 0,11.88 -0.28,25.75 -5.1,38.48 -7.65,20.38 -21.81,24.34 -31.16,24.34 -11.9,0 -23.23,-5.94 -29.74,-20.09 -5.95,-12.74 -7.09,-27.45 -7.09,-42.73 0,-19.82 1.7,-30.85 7.37,-43.59 5.38,-11.88 17,-18.96 29.18,-18.96 11.9,0 23.23,6.51 29.18,18.96 6.23,12.74 7.36,25.76 7.36,43.59 z m -13.59,1.98 c 0,-11.32 0,-23.21 -3.12,-34.53 -4.82,-17.26 -15.02,-19.24 -19.55,-19.24 -23.23,0 -23.23,37.07 -23.23,53.77 0,11.88 0,22.64 3.4,33.1 4.25,12.74 12.18,16.99 19.55,16.99 22.95,0 22.95,-33.4 22.95,-50.09" /><path
         id="path74"
         style="fill:#ffffff;fill-opacity:1;fill-rule:evenodd;stroke:none"
         d="m 3072.39,1520.84 c 101.99,0 179.9,-77.82 179.9,-179.7 0,-101.88 -77.91,-179.71 -179.9,-179.71 -101.99,0 -179.9,77.83 -179.9,179.71 0,101.88 77.91,179.7 179.9,179.7 z m -179.9,0 0,0 z m 360.08,-359.69 0,0" /><g
         transform="scale(1.00053,0.99947)"
         id="g76"><path
           id="path78"
           style="fill:none;stroke:#010101;stroke-width:7.07753992;stroke-linecap:butt;stroke-linejoin:round;stroke-miterlimit:10;stroke-dasharray:none;stroke-opacity:1"
           d="m 3070.76,1521.65 c 101.93,0 179.8,-77.87 179.8,-179.8 0,-101.65 -77.87,-179.52 -179.8,-179.52 -101.93,0 -179.8,77.87 -179.8,179.52 0,101.93 77.87,179.8 179.8,179.8 z" /></g><g
         transform="scale(1.00053,0.99947)"
         id="g80"><path
           id="path82"
           style="fill:none;stroke:#010101;stroke-width:7.07753992;stroke-linecap:butt;stroke-linejoin:round;stroke-miterlimit:10;stroke-dasharray:none;stroke-opacity:1"
           d="m 2890.96,1521.65 0,0 z" /></g><g
         transform="scale(1.00053,0.99947)"
         id="g84"><path
           id="path86"
           style="fill:none;stroke:#010101;stroke-width:7.07753992;stroke-linecap:butt;stroke-linejoin:round;stroke-miterlimit:10;stroke-dasharray:none;stroke-opacity:1"
           d="m 3250.84,1162.05 0,0 z" /></g><path
         id="path88"
         style="fill:#010101;fill-opacity:1;fill-rule:evenodd;stroke:none"
         d="m 3058.22,1265.01 0,10.47 -21.81,0 0,111.22 -3.4,0 c -3.12,-2.83 -11.62,-11.6 -31.16,-11.6 -2.27,0 -2.55,0 -2.55,-3.4 l 0,-7.36 c 11.05,0 19.26,2.83 22.95,4.25 l 0,-93.11 -21.82,0 0,-10.47 57.79,0" /><path
         id="path90"
         style="fill:#010101;fill-opacity:1;fill-rule:evenodd;stroke:none"
         d="m 3152.56,1323.88 c 0,11.88 -0.28,25.75 -5.1,38.48 -7.65,20.38 -21.81,24.34 -31.16,24.34 -11.9,0 -23.23,-5.94 -29.75,-20.09 -5.94,-12.74 -7.08,-27.45 -7.08,-42.73 0,-19.82 1.7,-30.85 7.37,-43.59 5.38,-11.88 17,-18.96 29.18,-18.96 11.89,0 23.23,6.51 29.18,18.96 6.23,12.74 7.36,25.76 7.36,43.59 z m -13.6,1.98 c 0,-11.32 0,-23.21 -3.11,-34.53 -4.82,-17.26 -15.02,-19.24 -19.55,-19.24 -23.23,0 -23.23,37.07 -23.23,53.77 0,11.88 0,22.64 3.4,33.1 4.25,12.74 12.18,16.99 19.55,16.99 22.94,0 22.94,-33.4 22.94,-50.09" /><path
         id="path92"
         style="fill:#ffffff;fill-opacity:1;fill-rule:evenodd;stroke:none"
         d="m 2712.6,945.785 c 101.99,0 179.89,-77.824 179.89,-179.422 0,-101.879 -77.9,-179.703 -179.89,-179.703 -101.99,0 -179.9,77.824 -179.9,179.703 0,101.598 77.91,179.422 179.9,179.422 z m -179.9,0 0,0 z m 360.08,-359.41 0,0" /><g
         transform="scale(1.00053,0.99947)"
         id="g94"><path
           id="path96"
           style="fill:none;stroke:#010101;stroke-width:7.07753992;stroke-linecap:butt;stroke-linejoin:round;stroke-miterlimit:10;stroke-dasharray:none;stroke-opacity:1"
           d="m 2711.16,946.572 c 101.94,0 179.8,-77.87 179.8,-179.803 0,-101.932 -77.86,-179.798 -179.8,-179.798 -101.93,0 -179.8,77.866 -179.8,179.798 0,101.933 77.87,179.803 179.8,179.803 z" /></g><g
         transform="scale(1.00053,0.99947)"
         id="g98"><path
           id="path100"
           style="fill:none;stroke:#010101;stroke-width:7.07753992;stroke-linecap:butt;stroke-linejoin:round;stroke-miterlimit:10;stroke-dasharray:none;stroke-opacity:1"
           d="m 2531.36,946.572 0,0 z" /></g><g
         transform="scale(1.00053,0.99947)"
         id="g102"><path
           id="path104"
           style="fill:none;stroke:#010101;stroke-width:7.07753992;stroke-linecap:butt;stroke-linejoin:round;stroke-miterlimit:10;stroke-dasharray:none;stroke-opacity:1"
           d="m 2891.25,586.686 0,0 z" /></g><path
         id="path106"
         style="fill:#010101;fill-opacity:1;fill-rule:evenodd;stroke:none"
         d="m 2748.86,796.645 0,11.32 -73.09,0 0,-12.168 33.43,0 c 2.26,0 4.25,0.281 6.51,0.281 l 21.54,0 c -10.77,-12.734 -41.93,-48.676 -41.93,-107.82 l 14.73,0 c 0,46.976 19.26,85.18 38.81,108.387" /><path
         id="path108"
         style="fill:#ffffff;fill-opacity:1;fill-rule:evenodd;stroke:none"
         d="m 3216.3,371.012 c 101.99,0 179.9,-77.824 179.9,-179.703 0,-101.8793 -77.91,-179.7074 -179.9,-179.7074 -101.98,0 -179.89,77.8281 -179.89,179.7074 0,101.879 77.91,179.703 179.89,179.703 z m -179.89,0 0,0 z m 360.07,-359.6917 0,0" /><g
         transform="scale(1.00053,0.99947)"
         id="g110"><path
           id="path112"
           style="fill:none;stroke:#010101;stroke-width:7.07753992;stroke-linecap:butt;stroke-linejoin:round;stroke-miterlimit:10;stroke-dasharray:none;stroke-opacity:1"
           d="m 3214.6,371.208 c 101.94,0 179.8,-77.865 179.8,-179.517 0,-101.9325 -77.86,-179.798 -179.8,-179.798 -101.93,0 -179.8,77.8655 -179.8,179.798 0,101.652 77.87,179.517 179.8,179.517 z" /></g><g
         transform="scale(1.00053,0.99947)"
         id="g114"><path
           id="path116"
           style="fill:none;stroke:#010101;stroke-width:7.07753992;stroke-linecap:butt;stroke-linejoin:round;stroke-miterlimit:10;stroke-dasharray:none;stroke-opacity:1"
           d="m 3034.8,371.208 0,0 z" /></g><g
         transform="scale(1.00053,0.99947)"
         id="g118"><path
           id="path120"
           style="fill:none;stroke:#010101;stroke-width:7.07753992;stroke-linecap:butt;stroke-linejoin:round;stroke-miterlimit:10;stroke-dasharray:none;stroke-opacity:1"
           d="m 3394.69,11.6077 0,0 z" /></g><path
         id="path122"
         style="fill:#010101;fill-opacity:1;fill-rule:evenodd;stroke:none"
         d="m 3202.14,115.18 0,10.472 -21.82,0 0,111.219 -3.39,0 c -3.12,-2.832 -11.62,-11.601 -31.17,-11.601 -2.26,0 -2.55,0 -2.55,-3.399 l 0,-7.355 c 11.05,0 19.27,2.828 22.95,4.242 l 0,-93.106 -21.81,0 0,-10.472 57.79,0" /><path
         id="path124"
         style="fill:#010101;fill-opacity:1;fill-rule:evenodd;stroke:none"
         d="m 3295.06,115.18 0,12.172 -32.01,0 c -1.98,0 -4.25,0 -6.23,0 l -19.27,0 c 4.54,4.808 21.25,21.222 32.86,31.695 13.32,11.887 24.65,22.922 24.65,39.617 0,19.813 -13.6,38.207 -37.39,38.207 -19.55,0 -29.47,-12.734 -34.28,-29.433 5.66,-7.356 5.66,-7.641 7.36,-9.903 4.54,19.242 11.05,28.297 24.37,28.297 15.58,0 25.78,-12.168 25.78,-27.73 0,-9.34 -3.97,-19.813 -15.87,-31.7 l -40.23,-39.902 0,-11.32 70.26,0" /><path
         id="path126"
         style="fill:#ffffff;fill-opacity:1;fill-rule:evenodd;stroke:none"
         d="m 4583.51,945.785 c 101.99,0 179.9,-77.824 179.9,-179.422 0,-101.879 -77.91,-179.703 -179.9,-179.703 -101.99,0 -179.89,77.824 -179.89,179.703 0,101.598 77.9,179.422 179.89,179.422 z m -179.89,0 0,0 z m 360.07,-359.41 0,0" /><g
         transform="scale(1.00053,0.99947)"
         id="g128"><path
           id="path130"
           style="fill:none;stroke:#010101;stroke-width:7.07753992;stroke-linecap:butt;stroke-linejoin:round;stroke-miterlimit:10;stroke-dasharray:none;stroke-opacity:1"
           d="m 4580.8,946.572 c 101.93,0 179.8,-77.87 179.8,-179.803 0,-101.932 -77.87,-179.798 -179.8,-179.798 -101.93,0 -179.51,77.866 -179.51,179.798 0,101.933 77.58,179.803 179.51,179.803 z" /></g><g
         transform="scale(1.00053,0.99947)"
         id="g132"><path
           id="path134"
           style="fill:none;stroke:#010101;stroke-width:7.07753992;stroke-linecap:butt;stroke-linejoin:round;stroke-miterlimit:10;stroke-dasharray:none;stroke-opacity:1"
           d="m 4401.29,946.572 0,0 z" /></g><g
         transform="scale(1.00053,0.99947)"
         id="g136"><path
           id="path138"
           style="fill:none;stroke:#010101;stroke-width:7.07753992;stroke-linecap:butt;stroke-linejoin:round;stroke-miterlimit:10;stroke-dasharray:none;stroke-opacity:1"
           d="m 4760.88,586.686 0,0 z" /></g><path
         id="path140"
         style="fill:#010101;fill-opacity:1;fill-rule:evenodd;stroke:none"
         d="m 4575.01,722.781 c 0,13.867 -9.06,26.035 -24.36,31.129 12.75,7.078 19.55,18.961 19.55,30.848 0,15.566 -14.45,27.168 -32.02,27.168 -14.16,0 -27.19,-7.922 -33.99,-19.809 l 6.51,-9.621 c 4.25,11.602 15.3,19.242 27.48,19.242 9.07,0 17.85,-5.093 17.85,-16.98 0,-11.887 -8.5,-21.789 -18.13,-24.055 -0.85,-0.281 -12.18,-1.133 -13.88,-1.133 l 0,-11.035 12.75,0 c 18.41,0 22.94,-15.847 22.94,-25.754 0,-14.433 -8.78,-25.468 -21.81,-25.468 -11.61,0 -25.78,5.941 -34,18.675 l -1.98,-10.468 c 11.62,-16.133 27.48,-18.961 36.26,-18.961 21.25,0 36.83,16.98 36.83,36.222" /><path
         id="path142"
         style="fill:#010101;fill-opacity:1;fill-rule:evenodd;stroke:none"
         d="m 4662.27,727.027 c 0,22.356 -15.02,39.903 -33.15,39.903 -7.08,0 -13.88,-2.547 -18.98,-7.075 l 0,37.356 46.18,0 0,11.035 -58.93,0 0,-66.219 11.62,0 c 4.53,10.188 12.46,14.149 19.83,14.149 8.5,0 18.13,-7.641 18.13,-28.867 0,-22.922 -13.03,-29.996 -23.51,-29.996 -9.92,0 -21.82,5.375 -27.48,16.695 l -5.95,-9.621 c 11.9,-17.547 28.89,-17.547 33.71,-17.547 21.25,0 38.53,17.832 38.53,40.187" /><g
         transform="scale(1.00053,0.99947)"
         id="g144"><path
           id="path146"
           style="fill:none;stroke:#010101;stroke-width:7.07753992;stroke-linecap:butt;stroke-linejoin:round;stroke-miterlimit:10;stroke-dasharray:none;stroke-opacity:1"
           d="M 6154.55,1917.21 5579.19,1341.85" /></g><g
         transform="scale(1.00053,0.99947)"
         id="g148"><path
           id="path150"
           style="fill:none;stroke:#010101;stroke-width:7.07753992;stroke-linecap:butt;stroke-linejoin:round;stroke-miterlimit:10;stroke-dasharray:none;stroke-opacity:1"
           d="M 5579.19,1341.85 5219.59,766.769" /></g><g
         transform="scale(1.00053,0.99947)"
         id="g152"><path
           id="path154"
           style="fill:none;stroke:#010101;stroke-width:7.07753992;stroke-linecap:butt;stroke-linejoin:round;stroke-miterlimit:10;stroke-dasharray:none;stroke-opacity:1"
           d="m 5938.79,766.769 -359.6,575.081" /></g><g
         transform="scale(1.00053,0.99947)"
         id="g156"><path
           id="path158"
           style="fill:none;stroke:#010101;stroke-width:7.07753992;stroke-linecap:butt;stroke-linejoin:round;stroke-miterlimit:10;stroke-dasharray:none;stroke-opacity:1"
           d="m 5723.03,191.691 215.76,575.078" /></g><g
         transform="scale(1.00053,0.99947)"
         id="g160"><path
           id="path162"
           style="fill:none;stroke:#010101;stroke-width:7.07753992;stroke-linecap:butt;stroke-linejoin:round;stroke-miterlimit:10;stroke-dasharray:none;stroke-opacity:1"
           d="m 6729.91,1341.85 359.6,-575.081" /></g><g
         transform="scale(1.00053,0.99947)"
         id="g164"><path
           id="path166"
           style="fill:none;stroke:#010101;stroke-width:7.07753992;stroke-linecap:butt;stroke-linejoin:round;stroke-miterlimit:10;stroke-dasharray:none;stroke-opacity:1"
           d="m 6154.55,1917.21 575.36,-575.36" /></g><path
         id="path168"
         style="fill:#ffffff;fill-opacity:1;fill-rule:evenodd;stroke:none"
         d="m 6158.09,2095.61 c 101.99,0 179.9,-77.82 179.9,-179.7 0,-101.6 -77.91,-179.42 -179.9,-179.42 -101.98,0 -179.89,77.82 -179.89,179.42 0,101.88 77.91,179.7 179.89,179.7 z m -179.89,0 0,0 z m 360.07,-359.41 0,0" /><g
         transform="scale(1.00053,0.99947)"
         id="g170"><path
           id="path172"
           style="fill:none;stroke:#010101;stroke-width:7.07753992;stroke-linecap:butt;stroke-linejoin:round;stroke-miterlimit:10;stroke-dasharray:none;stroke-opacity:1"
           d="m 6154.55,2097.01 c 101.93,0 179.8,-77.87 179.8,-179.8 0,-101.94 -77.87,-179.8 -179.8,-179.8 -101.94,0 -179.8,77.86 -179.8,179.8 0,101.93 77.86,179.8 179.8,179.8 z" /></g><g
         transform="scale(1.00053,0.99947)"
         id="g174"><path
           id="path176"
           style="fill:none;stroke:#010101;stroke-width:7.07753992;stroke-linecap:butt;stroke-linejoin:round;stroke-miterlimit:10;stroke-dasharray:none;stroke-opacity:1"
           d="m 5974.75,2097.01 0,0 z" /></g><g
         transform="scale(1.00053,0.99947)"
         id="g178"><path
           id="path180"
           style="fill:none;stroke:#010101;stroke-width:7.07753992;stroke-linecap:butt;stroke-linejoin:round;stroke-miterlimit:10;stroke-dasharray:none;stroke-opacity:1"
           d="m 6334.63,1737.12 0,0 z" /></g><path
         id="path182"
         style="fill:#010101;fill-opacity:1;fill-rule:evenodd;stroke:none"
         d="m 6148.18,1840.07 0,12.16 -32.02,0 c -1.98,0 -4.25,0 -6.23,0 l -19.26,0 c 4.53,4.82 21.24,21.23 32.86,31.7 13.31,11.89 24.65,22.93 24.65,39.62 0,19.81 -13.6,38.21 -37.4,38.21 -19.55,0 -29.46,-12.74 -34.28,-29.44 5.67,-7.36 5.67,-7.64 7.37,-9.9 4.53,19.24 11.05,28.3 24.36,28.3 15.58,0 25.78,-12.17 25.78,-27.74 0,-9.34 -3.96,-19.8 -15.86,-31.69 l -40.23,-39.9 0,-11.32 70.26,0" /><path
         id="path184"
         style="fill:#010101;fill-opacity:1;fill-rule:evenodd;stroke:none"
         d="m 6238.27,1898.93 c 0,11.89 -0.29,25.75 -5.1,38.49 -7.65,20.37 -21.82,24.34 -31.17,24.34 -11.89,0 -23.23,-5.95 -29.74,-20.1 -5.95,-12.73 -7.08,-27.45 -7.08,-42.73 0,-19.81 1.7,-30.85 7.36,-43.58 5.38,-11.89 17,-18.96 29.18,-18.96 11.9,0 23.23,6.5 29.18,18.96 6.23,12.73 7.37,25.75 7.37,43.58 z m -13.6,1.98 c 0,-11.32 0,-23.21 -3.12,-34.52 -4.82,-17.27 -15.01,-19.25 -19.55,-19.25 -23.23,0 -23.23,37.07 -23.23,53.77 0,11.89 0,22.64 3.4,33.11 4.25,12.74 12.19,16.98 19.55,16.98 22.95,0 22.95,-33.39 22.95,-50.09" /><path
         id="path186"
         style="fill:#ffffff;fill-opacity:1;fill-rule:evenodd;stroke:none"
         d="m 6733.48,1520.84 c 101.98,0 179.89,-77.82 179.89,-179.7 0,-101.88 -77.91,-179.71 -179.89,-179.71 -101.99,0 -179.9,77.83 -179.9,179.71 0,101.88 77.91,179.7 179.9,179.7 z m -179.9,0 0,0 z m 360.07,-359.69 0,0" /><g
         transform="scale(1.00053,0.99947)"
         id="g188"><path
           id="path190"
           style="fill:none;stroke:#010101;stroke-width:7.07753992;stroke-linecap:butt;stroke-linejoin:round;stroke-miterlimit:10;stroke-dasharray:none;stroke-opacity:1"
           d="m 6729.91,1521.65 c 101.94,0 179.8,-77.87 179.8,-179.8 0,-101.65 -77.86,-179.52 -179.8,-179.52 -101.93,0 -179.8,77.87 -179.8,179.52 0,101.93 77.87,179.8 179.8,179.8 z" /></g><g
         transform="scale(1.00053,0.99947)"
         id="g192"><path
           id="path194"
           style="fill:none;stroke:#010101;stroke-width:7.07753992;stroke-linecap:butt;stroke-linejoin:round;stroke-miterlimit:10;stroke-dasharray:none;stroke-opacity:1"
           d="m 6550.11,1521.65 0,0 z" /></g><g
         transform="scale(1.00053,0.99947)"
         id="g196"><path
           id="path198"
           style="fill:none;stroke:#010101;stroke-width:7.07753992;stroke-linecap:butt;stroke-linejoin:round;stroke-miterlimit:10;stroke-dasharray:none;stroke-opacity:1"
           d="m 6909.99,1162.05 0,0 z" /></g><path
         id="path200"
         style="fill:#010101;fill-opacity:1;fill-rule:evenodd;stroke:none"
         d="m 6724.98,1297.55 c 0,13.87 -9.07,26.04 -24.37,31.13 12.75,7.08 19.55,18.96 19.55,30.85 0,15.57 -14.45,27.17 -32.01,27.17 -14.17,0 -27.2,-7.92 -34,-19.81 l 6.52,-9.62 c 4.25,11.6 15.29,19.24 27.48,19.24 9.06,0 17.85,-5.09 17.85,-16.98 0,-11.89 -8.5,-21.79 -18.14,-24.05 -0.84,-0.28 -12.18,-1.14 -13.88,-1.14 l 0,-11.03 12.75,0 c 18.41,0 22.95,-15.85 22.95,-25.76 0,-14.43 -8.79,-25.46 -21.82,-25.46 -11.61,0 -25.78,5.94 -33.99,18.67 l -1.99,-10.47 c 11.62,-16.13 27.48,-18.96 36.27,-18.96 21.24,0 36.83,16.98 36.83,36.22" /><path
         id="path202"
         style="fill:#010101;fill-opacity:1;fill-rule:evenodd;stroke:none"
         d="m 6813.65,1323.88 c 0,11.88 -0.28,25.75 -5.1,38.48 -7.65,20.38 -21.82,24.34 -31.16,24.34 -11.9,0 -23.23,-5.94 -29.75,-20.09 -5.95,-12.74 -7.08,-27.45 -7.08,-42.73 0,-19.82 1.7,-30.85 7.36,-43.59 5.38,-11.88 17,-18.96 29.18,-18.96 11.9,0 23.23,6.51 29.18,18.96 6.24,12.74 7.37,25.76 7.37,43.59 z m -13.6,1.98 c 0,-11.32 0,-23.21 -3.12,-34.53 -4.81,-17.26 -15.01,-19.24 -19.54,-19.24 -23.23,0 -23.23,37.07 -23.23,53.77 0,11.88 0,22.64 3.39,33.1 4.25,12.74 12.19,16.99 19.55,16.99 22.95,0 22.95,-33.4 22.95,-50.09" /><path
         id="path204"
         style="fill:#ffffff;fill-opacity:1;fill-rule:evenodd;stroke:none"
         d="m 5582.43,1520.84 c 101.98,0 179.89,-77.82 179.89,-179.7 0,-101.88 -77.91,-179.71 -179.89,-179.71 -101.99,0 -179.9,77.83 -179.9,179.71 0,101.88 77.91,179.7 179.9,179.7 z m -179.9,0 0,0 z m 360.08,-359.69 0,0" /><g
         transform="scale(1.00053,0.99947)"
         id="g206"><path
           id="path208"
           style="fill:none;stroke:#010101;stroke-width:7.07753992;stroke-linecap:butt;stroke-linejoin:round;stroke-miterlimit:10;stroke-dasharray:none;stroke-opacity:1"
           d="m 5579.19,1521.65 c 101.93,0 179.8,-77.87 179.8,-179.8 0,-101.65 -77.87,-179.52 -179.8,-179.52 -101.94,0 -179.8,77.87 -179.8,179.52 0,101.93 77.86,179.8 179.8,179.8 z" /></g><g
         transform="scale(1.00053,0.99947)"
         id="g210"><path
           id="path212"
           style="fill:none;stroke:#010101;stroke-width:7.07753992;stroke-linecap:butt;stroke-linejoin:round;stroke-miterlimit:10;stroke-dasharray:none;stroke-opacity:1"
           d="m 5399.39,1521.65 0,0 z" /></g><g
         transform="scale(1.00053,0.99947)"
         id="g214"><path
           id="path216"
           style="fill:none;stroke:#010101;stroke-width:7.07753992;stroke-linecap:butt;stroke-linejoin:round;stroke-miterlimit:10;stroke-dasharray:none;stroke-opacity:1"
           d="m 5759.27,1162.05 0,0 z" /></g><path
         id="path218"
         style="fill:#010101;fill-opacity:1;fill-rule:evenodd;stroke:none"
         d="m 5568.26,1265.01 0,10.47 -21.81,0 0,111.22 -3.4,0 c -3.12,-2.83 -11.62,-11.6 -31.16,-11.6 -2.27,0 -2.55,0 -2.55,-3.4 l 0,-7.36 c 11.04,0 19.26,2.83 22.94,4.25 l 0,-93.11 -21.81,0 0,-10.47 57.79,0" /><path
         id="path220"
         style="fill:#010101;fill-opacity:1;fill-rule:evenodd;stroke:none"
         d="m 5662.6,1323.88 c 0,11.88 -0.28,25.75 -5.1,38.48 -7.65,20.38 -21.81,24.34 -31.16,24.34 -11.9,0 -23.23,-5.94 -29.75,-20.09 -5.95,-12.74 -7.08,-27.45 -7.08,-42.73 0,-19.82 1.7,-30.85 7.37,-43.59 5.38,-11.88 17,-18.96 29.17,-18.96 11.9,0 23.24,6.51 29.18,18.96 6.24,12.74 7.37,25.76 7.37,43.59 z m -13.6,1.98 c 0,-11.32 0,-23.21 -3.11,-34.53 -4.82,-17.26 -15.02,-19.24 -19.55,-19.24 -23.23,0 -23.23,37.07 -23.23,53.77 0,11.88 0,22.64 3.4,33.1 4.25,12.74 12.18,16.99 19.54,16.99 22.95,0 22.95,-33.4 22.95,-50.09" /><path
         id="path222"
         style="fill:#ffffff;fill-opacity:1;fill-rule:evenodd;stroke:none"
         d="m 5222.64,945.785 c 101.99,0 179.89,-77.824 179.89,-179.422 0,-101.879 -77.9,-179.703 -179.89,-179.703 -101.99,0 -179.9,77.824 -179.9,179.703 0,101.598 77.91,179.422 179.9,179.422 z m -179.9,0 0,0 z m 360.08,-359.41 0,0" /><g
         transform="scale(1.00053,0.99947)"
         id="g224"><path
           id="path226"
           style="fill:none;stroke:#010101;stroke-width:7.07753992;stroke-linecap:butt;stroke-linejoin:round;stroke-miterlimit:10;stroke-dasharray:none;stroke-opacity:1"
           d="m 5219.59,946.572 c 101.93,0 179.8,-77.87 179.8,-179.803 0,-101.932 -77.87,-179.798 -179.8,-179.798 -101.94,0 -179.8,77.866 -179.8,179.798 0,101.933 77.86,179.803 179.8,179.803 z" /></g><g
         transform="scale(1.00053,0.99947)"
         id="g228"><path
           id="path230"
           style="fill:none;stroke:#010101;stroke-width:7.07753992;stroke-linecap:butt;stroke-linejoin:round;stroke-miterlimit:10;stroke-dasharray:none;stroke-opacity:1"
           d="m 5039.79,946.572 0,0 z" /></g><g
         transform="scale(1.00053,0.99947)"
         id="g232"><path
           id="path234"
           style="fill:none;stroke:#010101;stroke-width:7.07753992;stroke-linecap:butt;stroke-linejoin:round;stroke-miterlimit:10;stroke-dasharray:none;stroke-opacity:1"
           d="m 5399.67,586.686 0,0 z" /></g><path
         id="path236"
         style="fill:#010101;fill-opacity:1;fill-rule:evenodd;stroke:none"
         d="m 5258.9,796.645 0,11.32 -73.09,0 0,-12.168 33.43,0 c 2.26,0 4.24,0.281 6.51,0.281 l 21.53,0 c -10.76,-12.734 -41.92,-48.676 -41.92,-107.82 l 14.73,0 c 0,46.976 19.26,85.18 38.81,108.387" /><path
         id="path238"
         style="fill:#ffffff;fill-opacity:1;fill-rule:evenodd;stroke:none"
         d="m 5726.34,371.012 c 101.99,0 179.9,-77.824 179.9,-179.703 0,-101.8793 -77.91,-179.7074 -179.9,-179.7074 -101.98,0 -179.89,77.8281 -179.89,179.7074 0,101.879 77.91,179.703 179.89,179.703 z m -179.89,0 0,0 z m 360.07,-359.6917 0,0" /><g
         transform="scale(1.00053,0.99947)"
         id="g240"><path
           id="path242"
           style="fill:none;stroke:#010101;stroke-width:7.07753992;stroke-linecap:butt;stroke-linejoin:round;stroke-miterlimit:10;stroke-dasharray:none;stroke-opacity:1"
           d="m 5723.03,371.208 c 101.93,0 179.8,-77.865 179.8,-179.517 0,-101.9325 -77.87,-179.798 -179.8,-179.798 -101.94,0 -179.8,77.8655 -179.8,179.798 0,101.652 77.86,179.517 179.8,179.517 z" /></g><g
         transform="scale(1.00053,0.99947)"
         id="g244"><path
           id="path246"
           style="fill:none;stroke:#010101;stroke-width:7.07753992;stroke-linecap:butt;stroke-linejoin:round;stroke-miterlimit:10;stroke-dasharray:none;stroke-opacity:1"
           d="m 5543.23,371.208 0,0 z" /></g><g
         transform="scale(1.00053,0.99947)"
         id="g248"><path
           id="path250"
           style="fill:none;stroke:#010101;stroke-width:7.07753992;stroke-linecap:butt;stroke-linejoin:round;stroke-miterlimit:10;stroke-dasharray:none;stroke-opacity:1"
           d="m 5903.11,11.6077 0,0 z" /></g><path
         id="path252"
         style="fill:#010101;fill-opacity:1;fill-rule:evenodd;stroke:none"
         d="m 5712.18,115.18 0,10.472 -21.82,0 0,111.219 -3.4,0 c -3.11,-2.832 -11.61,-11.601 -31.16,-11.601 -2.26,0 -2.55,0 -2.55,-3.399 l 0,-7.355 c 11.05,0 19.27,2.828 22.95,4.242 l 0,-93.106 -21.81,0 0,-10.472 57.79,0" /><path
         id="path254"
         style="fill:#010101;fill-opacity:1;fill-rule:evenodd;stroke:none"
         d="m 5805.1,115.18 0,12.172 -32.01,0 c -1.98,0 -4.25,0 -6.23,0 l -19.27,0 c 4.54,4.808 21.25,21.222 32.86,31.695 13.32,11.887 24.65,22.922 24.65,39.617 0,19.813 -13.6,38.207 -37.39,38.207 -19.55,0 -29.47,-12.734 -34.28,-29.433 5.66,-7.356 5.66,-7.641 7.36,-9.903 4.53,19.242 11.05,28.297 24.37,28.297 15.58,0 25.78,-12.168 25.78,-27.73 0,-9.34 -3.97,-19.813 -15.87,-31.7 l -40.23,-39.902 0,-11.32 70.26,0" /><path
         id="path256"
         style="fill:#010101;fill-opacity:1;fill-rule:evenodd;stroke:none"
         d="m 3962.52,1893.27 0,7.07 -14.73,0 0,73.87 -2.27,0 c -1.7,-1.98 -7.65,-7.92 -20.4,-7.92 -1.7,0 -1.98,0 -1.98,-2.27 l 0,-4.81 c 7.36,0 12.75,1.7 15.3,2.83 l 0,-61.7 -14.45,0 0,-7.07 38.53,0" /><path
         id="path258"
         style="fill:#010101;fill-opacity:1;fill-rule:evenodd;stroke:none"
         d="m 4025.13,1914.78 c 0,9.62 -6.8,17.54 -16.43,20.66 7.64,2.26 14.73,9.05 14.73,17.83 0,11.32 -10.2,20.94 -22.67,20.94 -13.31,0 -22.94,-9.91 -22.94,-20.94 0,-9.06 7.36,-15.57 14.73,-17.83 -9.64,-3.12 -16.43,-11.04 -16.43,-20.66 0,-12.74 10.76,-24.06 24.36,-24.06 14.16,0 24.65,11.6 24.65,24.06 z m -9.92,38.49 c 0,-8.21 -5.66,-14.15 -14.45,-14.15 -9.63,0 -14.73,6.51 -14.73,14.15 0,9.05 6.52,14.15 14.45,14.15 8.78,0 14.73,-5.38 14.73,-14.15 z m 0.29,-38.49 c 0,-11.6 -7.37,-16.98 -14.74,-16.98 -8.21,0 -15.01,5.94 -15.01,16.98 0,12.73 8.5,17.26 14.73,17.26 6.8,0 15.02,-4.81 15.02,-17.26" /><path
         id="path260"
         style="fill:#010101;fill-opacity:1;fill-rule:evenodd;stroke:none"
         d="m 4151.2,1892.14 c 0,0.85 -0.29,1.7 -2.27,2.54 l -61.76,28.3 61.76,28.59 c 1.98,0.85 2.27,1.7 2.27,2.54 0,1.14 -0.86,2.27 -2.27,2.27 0,0 -0.29,-0.28 -1.98,-0.85 l -64.88,-30 c -1.98,-0.85 -2.27,-1.69 -2.27,-2.26 0,-0.85 0,-1.7 2.27,-2.83 l 64.88,-29.72 c 1.41,-0.84 1.98,-0.84 1.98,-0.84 1.41,0 2.27,0.84 2.27,2.26" /><path
         id="path262"
         style="fill:#010101;fill-opacity:1;fill-rule:evenodd;stroke:none"
         d="m 4253.18,1893.27 0,8.21 -21.24,0 c -1.42,0 -2.84,-0.28 -4.25,-0.28 l -13.03,0 c 3.11,3.39 14.44,14.43 22.09,21.22 8.79,7.92 16.43,15.28 16.43,26.32 0,13.3 -9.06,25.47 -24.93,25.47 -13.03,0 -19.54,-8.49 -22.95,-19.53 3.97,-4.81 3.97,-5.09 5.11,-6.51 2.83,12.74 7.36,18.68 16.14,18.68 10.49,0 17,-8.21 17,-18.39 0,-6.23 -2.55,-13.02 -10.48,-20.95 l -26.63,-26.6 0,-7.64 46.74,0" /><path
         id="path264"
         style="fill:#010101;fill-opacity:1;fill-rule:evenodd;stroke:none"
         d="m 4312.96,1932.32 c 0,7.93 -0.57,16.98 -3.68,25.47 -5.1,13.59 -14.45,16.14 -20.68,16.14 -7.94,0 -15.58,-3.97 -19.83,-13.3 -3.97,-8.5 -4.82,-18.12 -4.82,-28.31 0,-13.02 1.13,-20.66 5.1,-28.86 3.4,-7.92 11.05,-12.74 19.26,-12.74 7.94,0 15.58,4.25 19.55,12.46 4.25,8.48 5.1,17.26 5.1,29.14 z m -9.35,1.42 c 0,-7.64 0,-15.56 -1.98,-22.92 -3.4,-11.61 -9.92,-13.02 -13.03,-13.02 -15.58,0 -15.58,24.62 -15.58,35.94 0,7.64 0,15 2.26,21.79 2.83,8.49 8.22,11.32 13.03,11.32 15.3,0 15.3,-22.36 15.3,-33.11" /><g
         transform="scale(1.00053,0.99947)"
         id="g266"><path
           id="path268"
           style="fill:none;stroke:#0167ff;stroke-width:21.80249977;stroke-linecap:butt;stroke-linejoin:round;stroke-miterlimit:10;stroke-dasharray:none;stroke-opacity:1"
           d="M 3466.32,1835.38 3225.36,1594.42" /></g><path
         id="path270"
         style="fill:#0167ff;fill-opacity:1;fill-rule:evenodd;stroke:none"
         d="m 3154.26,1520.84 101.71,50.94 -50.71,50.66 -51,-101.6" /><g
         transform="scale(1.00053,0.99947)"
         id="g272"><path
           id="path274"
           style="fill:none;stroke:#010101;stroke-width:7.07753992;stroke-linecap:butt;stroke-linejoin:round;stroke-miterlimit:10;stroke-dasharray:none;stroke-opacity:1"
           d="m 4124.36,1848.12 -244.07,0 0,173.01 487.86,0 0,-173.01 -243.79,0 z" /></g><path
         id="path276"
         style="fill:#010101;fill-opacity:1;fill-rule:evenodd;stroke:none"
         d="m 3372.97,1293.59 0,7.08 -14.73,0 0,73.86 -2.27,0 c -1.7,-1.98 -7.65,-7.92 -20.4,-7.92 -1.69,0 -1.98,0 -1.98,-2.27 l 0,-4.81 c 7.37,0 12.75,1.7 15.3,2.83 l 0,-61.69 -14.45,0 0,-7.08 38.53,0" /><path
         id="path278"
         style="fill:#010101;fill-opacity:1;fill-rule:evenodd;stroke:none"
         d="m 3435.58,1315.1 c 0,9.62 -6.8,17.55 -16.43,20.66 7.65,2.26 14.73,9.06 14.73,17.83 0,11.32 -10.2,20.94 -22.67,20.94 -13.31,0 -22.94,-9.9 -22.94,-20.94 0,-9.06 7.36,-15.57 14.73,-17.83 -9.63,-3.11 -16.43,-11.04 -16.43,-20.66 0,-12.73 10.76,-24.05 24.36,-24.05 14.17,0 24.65,11.6 24.65,24.05 z m -9.92,38.49 c 0,-8.21 -5.66,-14.15 -14.45,-14.15 -9.63,0 -14.73,6.51 -14.73,14.15 0,9.05 6.52,14.15 14.45,14.15 8.78,0 14.73,-5.38 14.73,-14.15 z m 0.29,-38.49 c 0,-11.6 -7.37,-16.98 -14.74,-16.98 -8.21,0 -15.01,5.94 -15.01,16.98 0,12.74 8.5,17.26 14.73,17.26 6.8,0 15.02,-4.81 15.02,-17.26" /><path
         id="path280"
         style="fill:#010101;fill-opacity:1;fill-rule:evenodd;stroke:none"
         d="m 3561.65,1323.59 c 0,0.57 -0.29,1.42 -2.27,2.27 l -64.88,29.99 c -1.7,0.57 -1.98,0.85 -1.98,0.85 -1.41,0 -2.26,-1.41 -2.26,-2.26 0,-1.42 0.85,-1.98 2.54,-2.55 l 61.48,-28.3 -61.76,-28.58 c -2.26,-1.13 -2.26,-1.98 -2.26,-2.55 0,-1.13 0.85,-2.26 2.26,-2.26 0,0 0.28,0 1.98,0.85 l 64.88,29.71 c 2.27,1.13 2.27,1.98 2.27,2.83" /><path
         id="path282"
         style="fill:#010101;fill-opacity:1;fill-rule:evenodd;stroke:none"
         d="m 3660.8,1293.59 0,7.08 -14.73,0 0,73.86 -2.27,0 c -1.69,-1.98 -7.64,-7.92 -20.39,-7.92 -1.7,0 -1.98,0 -1.98,-2.27 l 0,-4.81 c 7.36,0 12.74,1.7 15.29,2.83 l 0,-61.69 -14.45,0 0,-7.08 38.53,0" /><path
         id="path284"
         style="fill:#010101;fill-opacity:1;fill-rule:evenodd;stroke:none"
         d="m 3723.41,1332.65 c 0,7.92 -0.57,16.98 -3.68,25.47 -5.1,13.58 -14.45,16.13 -20.68,16.13 -7.93,0 -15.58,-3.96 -19.83,-13.3 -3.97,-8.49 -4.82,-18.11 -4.82,-28.3 0,-13.02 1.14,-20.66 5.1,-28.87 3.4,-7.92 11.05,-12.73 19.27,-12.73 7.93,0 15.58,4.24 19.54,12.45 4.25,8.49 5.1,17.26 5.1,29.15 z m -9.35,1.41 c 0,-7.64 0,-15.56 -1.98,-22.92 -3.4,-11.6 -9.92,-13.02 -13.03,-13.02 -15.58,0 -15.58,24.62 -15.58,35.94 0,7.64 0,15 2.26,21.79 2.84,8.49 8.22,11.32 13.04,11.32 15.29,0 15.29,-22.35 15.29,-33.11" /><g
         transform="scale(1.00053,0.99947)"
         id="g286"><path
           id="path288"
           style="fill:none;stroke:#010101;stroke-width:7.07753992;stroke-linecap:butt;stroke-linejoin:round;stroke-miterlimit:10;stroke-dasharray:none;stroke-opacity:1"
           d="m 3530.31,1248.13 -238.98,0 0,170.45 477.96,0 0,-170.45 -238.98,0 z" /></g><g
         transform="scale(1.00053,0.99947)"
         id="g290"><path
           id="path292"
           style="fill:none;stroke:#0167ff;stroke-width:21.80249977;stroke-linecap:butt;stroke-linejoin:round;stroke-miterlimit:10;stroke-dasharray:none;stroke-opacity:1"
           d="m 3229.89,1188.1 81.83,-136.48" /></g><path
         id="path294"
         style="fill:#0167ff;fill-opacity:1;fill-rule:evenodd;stroke:none"
         d="m 3366.45,962.766 -24.64,110.934 -61.76,-37.07 86.4,-73.864" /><path
         id="path296"
         style="fill:#010101;fill-opacity:1;fill-rule:evenodd;stroke:none"
         d="m 6487.86,1886.2 c 0,9.34 -6.24,17.26 -16.44,20.94 8.5,4.52 13.03,12.45 13.03,20.37 0,10.47 -9.63,18.12 -21.24,18.12 -9.64,0 -18.14,-5.38 -22.67,-13.31 l 4.25,-6.22 c 2.84,7.64 10.2,12.73 18.13,12.73 6.24,0 11.9,-3.39 11.9,-11.32 0,-7.92 -5.38,-14.71 -11.9,-16.13 -0.56,0 -8.21,-0.56 -9.35,-0.85 l 0,-7.07 8.5,0 c 12.47,0 15.3,-10.47 15.3,-17.26 0,-9.63 -5.95,-16.99 -14.45,-16.99 -7.65,0 -17.28,3.97 -22.66,12.46 l -1.42,-7.08 c 7.94,-10.47 18.42,-12.45 24.37,-12.45 13.88,0 24.65,11.32 24.65,24.06" /><path
         id="path298"
         style="fill:#010101;fill-opacity:1;fill-rule:evenodd;stroke:none"
         d="m 6545.36,1864.69 0,8.2 -21.24,0 c -1.42,0 -2.83,-0.28 -4.25,-0.28 l -13.03,0 c 3.11,3.4 14.45,14.43 22.09,21.23 8.78,7.92 16.43,15.28 16.43,26.32 0,13.3 -9.06,25.47 -24.93,25.47 -13.03,0 -19.54,-8.49 -22.95,-19.53 3.97,-4.81 3.97,-5.1 5.11,-6.51 2.83,12.73 7.36,18.68 16.14,18.68 10.48,0 17,-8.21 17,-18.4 0,-6.23 -2.55,-13.01 -10.48,-20.94 l -26.63,-26.6 0,-7.64 46.74,0" /><path
         id="path300"
         style="fill:#010101;fill-opacity:1;fill-rule:evenodd;stroke:none"
         d="m 6672.57,1894.68 c 0,0.57 -0.29,1.42 -2.27,2.27 l -64.88,30 c -1.7,0.56 -1.98,0.85 -1.98,0.85 -1.42,0 -2.26,-1.42 -2.26,-2.27 0,-1.41 0.84,-1.98 2.54,-2.55 l 61.48,-28.3 -61.76,-28.58 c -2.26,-1.13 -2.26,-1.98 -2.26,-2.55 0,-1.13 0.84,-2.26 2.26,-2.26 0,0 0.28,0 1.98,0.85 l 64.88,29.72 c 2.27,1.13 2.27,1.98 2.27,2.82" /><path
         id="path302"
         style="fill:#010101;fill-opacity:1;fill-rule:evenodd;stroke:none"
         d="m 6774.55,1864.69 0,8.2 -21.25,0 c -1.41,0 -2.83,-0.28 -4.24,-0.28 l -13.04,0 c 3.12,3.4 14.45,14.43 22.1,21.23 8.79,7.92 16.43,15.28 16.43,26.32 0,13.3 -9.06,25.47 -24.92,25.47 -13.04,0 -19.56,-8.49 -22.95,-19.53 3.96,-4.81 3.96,-5.1 5.1,-6.51 2.83,12.73 7.36,18.68 16.14,18.68 10.49,0 17,-8.21 17,-18.4 0,-6.23 -2.55,-13.01 -10.48,-20.94 l -26.63,-26.6 0,-7.64 46.74,0" /><path
         id="path304"
         style="fill:#010101;fill-opacity:1;fill-rule:evenodd;stroke:none"
         d="m 6834.33,1903.74 c 0,7.92 -0.57,16.98 -3.68,25.47 -5.1,13.59 -14.45,16.13 -20.69,16.13 -7.92,0 -15.58,-3.96 -19.82,-13.3 -3.97,-8.49 -4.82,-18.11 -4.82,-28.3 0,-13.02 1.13,-20.66 5.1,-28.86 3.4,-7.93 11.05,-12.74 19.26,-12.74 7.94,0 15.59,4.25 19.55,12.45 4.25,8.49 5.1,17.27 5.1,29.15 z m -9.35,1.42 c 0,-7.64 0,-15.57 -1.98,-22.93 -3.4,-11.6 -9.92,-13.02 -13.04,-13.02 -15.58,0 -15.58,24.63 -15.58,35.95 0,7.64 0,15 2.27,21.79 2.83,8.49 8.22,11.32 13.03,11.32 15.3,0 15.3,-22.36 15.3,-33.11" /><g
         transform="scale(1.00053,0.99947)"
         id="g306"><path
           id="path308"
           style="fill:none;stroke:#010101;stroke-width:7.07753992;stroke-linecap:butt;stroke-linejoin:round;stroke-miterlimit:10;stroke-dasharray:none;stroke-opacity:1"
           d="m 6628.82,1819.52 -228.21,0 0,199.62 456.43,0 0,-199.62 -228.22,0 z" /></g><path
         id="path310"
         style="fill:#010101;fill-opacity:1;fill-rule:evenodd;stroke:none"
         d="m 7047.66,1320.2 c 0,9.34 -6.24,17.26 -16.44,20.94 8.5,4.52 13.03,12.45 13.03,20.37 0,10.47 -9.62,18.12 -21.24,18.12 -9.63,0 -18.13,-5.38 -22.67,-13.31 l 4.25,-6.22 c 2.84,7.64 10.2,12.73 18.13,12.73 6.24,0 11.91,-3.39 11.91,-11.32 0,-7.92 -5.39,-14.71 -11.91,-16.13 -0.56,0 -8.21,-0.56 -9.34,-0.85 l 0,-7.07 8.5,0 c 12.46,0 15.29,-10.47 15.29,-17.26 0,-9.63 -5.95,-16.99 -14.45,-16.99 -7.65,0 -17.28,3.97 -22.66,12.46 l -1.42,-7.08 c 7.94,-10.47 18.42,-12.45 24.37,-12.45 13.88,0 24.65,11.32 24.65,24.06" /><path
         id="path312"
         style="fill:#010101;fill-opacity:1;fill-rule:evenodd;stroke:none"
         d="m 7105.16,1298.69 0,8.2 -21.24,0 c -1.42,0 -2.83,-0.28 -4.25,-0.28 l -13.03,0 c 3.11,3.4 14.45,14.43 22.09,21.23 8.79,7.92 16.43,15.28 16.43,26.32 0,13.3 -9.06,25.47 -24.93,25.47 -13.03,0 -19.54,-8.49 -22.94,-19.53 3.96,-4.81 3.96,-5.1 5.1,-6.51 2.83,12.73 7.36,18.68 16.15,18.68 10.48,0 16.99,-8.21 16.99,-18.4 0,-6.23 -2.55,-13.01 -10.48,-20.94 l -26.63,-26.6 0,-7.64 46.74,0" /><path
         id="path314"
         style="fill:#010101;fill-opacity:1;fill-rule:evenodd;stroke:none"
         d="m 7232.37,1328.68 c 0,0.57 -0.29,1.42 -2.27,2.27 l -64.88,30 c -1.7,0.56 -1.98,0.85 -1.98,0.85 -1.42,0 -2.26,-1.42 -2.26,-2.27 0,-1.41 0.84,-1.98 2.54,-2.55 l 61.48,-28.3 -61.76,-28.58 c -2.26,-1.13 -2.26,-1.98 -2.26,-2.55 0,-1.13 0.84,-2.26 2.26,-2.26 0,0 0.28,0 1.98,0.85 l 64.88,29.72 c 2.27,1.13 2.27,1.98 2.27,2.82" /><path
         id="path316"
         style="fill:#010101;fill-opacity:1;fill-rule:evenodd;stroke:none"
         d="m 7335.49,1320.2 c 0,9.34 -6.24,17.26 -16.44,20.94 8.5,4.52 13.04,12.45 13.04,20.37 0,10.47 -9.63,18.12 -21.25,18.12 -9.63,0 -18.13,-5.38 -22.66,-13.31 l 4.25,-6.22 c 2.83,7.64 10.2,12.73 18.13,12.73 6.23,0 11.9,-3.39 11.9,-11.32 0,-7.92 -5.39,-14.71 -11.9,-16.13 -0.57,0 -8.22,-0.56 -9.35,-0.85 l 0,-7.07 8.5,0 c 12.46,0 15.29,-10.47 15.29,-17.26 0,-9.63 -5.95,-16.99 -14.44,-16.99 -7.65,0 -17.28,3.97 -22.67,12.46 l -1.41,-7.08 c 7.93,-10.47 18.41,-12.45 24.36,-12.45 13.88,0 24.65,11.32 24.65,24.06" /><path
         id="path318"
         style="fill:#010101;fill-opacity:1;fill-rule:evenodd;stroke:none"
         d="m 7394.13,1337.74 c 0,7.92 -0.57,16.98 -3.68,25.47 -5.1,13.59 -14.45,16.13 -20.68,16.13 -7.93,0 -15.59,-3.96 -19.83,-13.3 -3.97,-8.49 -4.82,-18.11 -4.82,-28.3 0,-13.02 1.13,-20.66 5.1,-28.86 3.4,-7.93 11.05,-12.74 19.26,-12.74 7.94,0 15.59,4.25 19.55,12.45 4.25,8.49 5.1,17.27 5.1,29.15 z m -9.35,1.42 c 0,-7.64 0,-15.57 -1.98,-22.93 -3.4,-11.6 -9.92,-13.02 -13.03,-13.02 -15.59,0 -15.59,24.63 -15.59,35.95 0,7.64 0,15 2.27,21.79 2.84,8.49 8.22,11.32 13.03,11.32 15.3,0 15.3,-22.36 15.3,-33.11" /><g
         transform="scale(1.00053,0.99947)"
         id="g320"><path
           id="path322"
           style="fill:none;stroke:#010101;stroke-width:7.07753992;stroke-linecap:butt;stroke-linejoin:round;stroke-miterlimit:10;stroke-dasharray:none;stroke-opacity:1"
           d="m 7188.33,1253.22 -228.22,0 0,199.34 456.44,0 0,-199.34 -228.22,0 z" /></g><g
         transform="scale(1.00053,0.99947)"
         id="g324"><path
           id="path326"
           style="fill:none;stroke:#0167ff;stroke-width:21.80249977;stroke-linecap:butt;stroke-linejoin:round;stroke-miterlimit:10;stroke-dasharray:none;stroke-opacity:1"
           d="m 6344.26,1802.81 203.3,-203.01" /></g><path
         id="path328"
         style="fill:#0167ff;fill-opacity:1;fill-rule:evenodd;stroke:none"
         d="m 6624.12,1526.22 -50.99,101.6 -50.71,-50.94 101.7,-50.66" /><path
         id="path330"
         style="fill:#010101;fill-opacity:1;fill-rule:evenodd;stroke:none"
         d="m 3729.08,726.461 0,7.074 -14.73,0 0,73.863 -2.27,0 c -1.7,-1.98 -7.65,-7.921 -20.4,-7.921 -1.7,0 -1.98,0 -1.98,-2.266 l 0,-4.813 c 7.37,0 12.75,1.7 15.3,2.832 l 0,-61.695 -14.45,0 0,-7.074 38.53,0" /><path
         id="path332"
         style="fill:#010101;fill-opacity:1;fill-rule:evenodd;stroke:none"
         d="m 3791.69,747.969 c 0,9.621 -6.8,17.547 -16.43,20.66 7.65,2.262 14.73,9.055 14.73,17.828 0,11.32 -10.2,20.941 -22.67,20.941 -13.31,0 -22.94,-9.906 -22.94,-20.941 0,-9.055 7.36,-15.566 14.73,-17.828 -9.63,-3.113 -16.43,-11.039 -16.43,-20.66 0,-12.735 10.76,-24.055 24.36,-24.055 14.17,0 24.65,11.602 24.65,24.055 z m -9.92,38.488 c 0,-8.207 -5.66,-14.148 -14.45,-14.148 -9.63,0 -14.73,6.507 -14.73,14.148 0,9.055 6.52,14.148 14.45,14.148 8.78,0 14.73,-5.375 14.73,-14.148 z m 0.28,-38.488 c 0,-11.602 -7.36,-16.981 -14.73,-16.981 -8.21,0 -15.01,5.946 -15.01,16.981 0,12.734 8.5,17.261 14.73,17.261 6.8,0 15.01,-4.808 15.01,-17.261" /><path
         id="path334"
         style="fill:#010101;fill-opacity:1;fill-rule:evenodd;stroke:none"
         d="m 3917.76,756.457 c 0,0.566 -0.29,1.418 -2.27,2.266 l -64.88,30 c -1.7,0.562 -1.98,0.847 -1.98,0.847 -1.42,0 -2.27,-1.414 -2.27,-2.265 0,-1.414 0.85,-1.981 2.55,-2.547 l 61.48,-28.301 -61.76,-28.582 c -2.27,-1.133 -2.27,-1.98 -2.27,-2.547 0,-1.133 0.85,-2.262 2.27,-2.262 0,0 0.28,0 1.98,0.848 l 64.88,29.715 c 2.27,1.133 2.27,1.98 2.27,2.828" /><path
         id="path336"
         style="fill:#010101;fill-opacity:1;fill-rule:evenodd;stroke:none"
         d="m 4016.91,726.461 0,7.074 -14.73,0 0,73.863 -2.27,0 c -1.7,-1.98 -7.64,-7.921 -20.39,-7.921 -1.7,0 -1.99,0 -1.99,-2.266 l 0,-4.813 c 7.37,0 12.75,1.7 15.3,2.832 l 0,-61.695 -14.45,0 0,-7.074 38.53,0" /><path
         id="path338"
         style="fill:#010101;fill-opacity:1;fill-rule:evenodd;stroke:none"
         d="m 4078.39,750.801 c 0,14.996 -9.92,26.601 -22.1,26.601 -4.82,0 -9.35,-1.699 -12.75,-4.812 l 0,24.902 30.88,0 0,7.36 -39.38,0 0,-44.149 7.94,0 c 2.83,6.793 8.21,9.621 13.03,9.621 5.66,0 12.18,-5.094 12.18,-19.242 0,-15.281 -8.78,-19.809 -15.58,-19.809 -6.8,0 -14.45,3.395 -18.42,11.036 l -3.96,-6.508 c 7.93,-11.606 19.26,-11.606 22.38,-11.606 14.16,0 25.78,11.887 25.78,26.606" /><g
         transform="scale(1.00053,0.99947)"
         id="g340"><path
           id="path342"
           style="fill:none;stroke:#010101;stroke-width:7.07753992;stroke-linecap:butt;stroke-linejoin:round;stroke-miterlimit:10;stroke-dasharray:none;stroke-opacity:1"
           d="m 3876.33,684.941 -225.96,0 0,170.739 451.91,0 0,-170.739 -225.95,0 z" /></g><g
         transform="scale(1.00053,0.99947)"
         id="g344"><path
           id="path346"
           style="fill:none;stroke:#019901;stroke-width:21.51569939;stroke-linecap:butt;stroke-linejoin:round;stroke-miterlimit:10;stroke-dasharray:none;stroke-opacity:1"
           d="M 3430.36,766.769 3667.92,191.41" /></g><path
         id="path348"
         style="fill:#ffffff;fill-opacity:1;fill-rule:evenodd;stroke:none"
         d="m 3432.18,945.785 c 101.99,0 179.89,-77.824 179.89,-179.422 0,-101.879 -77.9,-179.703 -179.89,-179.703 -101.99,0 -179.89,77.824 -179.89,179.703 0,101.598 77.9,179.422 179.89,179.422 z m -179.89,0 0,0 z m 360.07,-359.41 0,0" /><g
         transform="scale(1.00053,0.99947)"
         id="g350"><path
           id="path352"
           style="fill:none;stroke:#010101;stroke-width:7.07753992;stroke-linecap:butt;stroke-linejoin:round;stroke-miterlimit:10;stroke-dasharray:none;stroke-opacity:1"
           d="m 3430.36,946.572 c 101.94,0 179.8,-77.87 179.8,-179.803 0,-101.932 -77.86,-179.798 -179.8,-179.798 -101.93,0 -179.8,77.866 -179.8,179.798 0,101.933 77.87,179.803 179.8,179.803 z" /></g><g
         transform="scale(1.00053,0.99947)"
         id="g354"><path
           id="path356"
           style="fill:none;stroke:#010101;stroke-width:7.07753992;stroke-linecap:butt;stroke-linejoin:round;stroke-miterlimit:10;stroke-dasharray:none;stroke-opacity:1"
           d="m 3250.56,946.572 0,0 z" /></g><g
         transform="scale(1.00053,0.99947)"
         id="g358"><path
           id="path360"
           style="fill:none;stroke:#010101;stroke-width:7.07753992;stroke-linecap:butt;stroke-linejoin:round;stroke-miterlimit:10;stroke-dasharray:none;stroke-opacity:1"
           d="m 3610.45,586.686 0,0 z" /></g><path
         id="path362"
         style="fill:#010101;fill-opacity:1;fill-rule:evenodd;stroke:none"
         d="m 3418.02,690.238 0,10.469 -21.82,0 0,111.219 -3.4,0 c -3.12,-2.828 -11.61,-11.602 -31.16,-11.602 -2.27,0 -2.55,0 -2.55,-3.394 l 0,-7.36 c 11.05,0 19.26,2.828 22.95,4.246 l 0,-93.109 -21.82,0 0,-10.469 57.8,0" /><path
         id="path364"
         style="fill:#010101;fill-opacity:1;fill-rule:evenodd;stroke:none"
         d="m 3510.94,727.027 c 0,22.356 -15.02,39.903 -33.15,39.903 -7.08,0 -13.88,-2.547 -18.98,-7.075 l 0,37.356 46.18,0 0,11.035 -58.93,0 0,-66.219 11.62,0 c 4.53,10.188 12.46,14.149 19.83,14.149 8.5,0 18.13,-7.641 18.13,-28.867 0,-22.922 -13.03,-29.996 -23.51,-29.996 -9.92,0 -21.82,5.375 -27.49,16.695 l -5.94,-9.621 c 11.89,-17.547 28.89,-17.547 33.71,-17.547 21.25,0 38.53,17.832 38.53,40.187" /><path
         id="path366"
         style="fill:#ffffff;fill-opacity:1;fill-rule:evenodd;stroke:none"
         d="m 3669.87,370.73 c 101.99,0 179.9,-77.824 179.9,-179.707 0,-101.8785 -77.91,-179.7027 -179.9,-179.7027 -101.99,0 -179.9,77.8242 -179.9,179.7027 0,101.883 77.91,179.707 179.9,179.707 z m -179.9,0 0,0 z m 360.08,-359.6909 0,0" /><g
         transform="scale(1.00053,0.99947)"
         id="g368"><path
           id="path370"
           style="fill:none;stroke:#019901;stroke-width:21.51569939;stroke-linecap:butt;stroke-linejoin:round;stroke-miterlimit:10;stroke-dasharray:none;stroke-opacity:1"
           d="m 3667.92,370.927 c 101.94,0 179.81,-77.865 179.81,-179.517 0,-101.9329 -77.87,-179.8023 -179.81,-179.8023 -101.93,0 -179.8,77.8694 -179.8,179.8023 0,101.652 77.87,179.517 179.8,179.517 z" /></g><g
         transform="scale(1.00053,0.99947)"
         id="g372"><path
           id="path374"
           style="fill:none;stroke:#019901;stroke-width:21.51569939;stroke-linecap:butt;stroke-linejoin:round;stroke-miterlimit:10;stroke-dasharray:none;stroke-opacity:1"
           d="m 3488.12,370.927 0,0 z" /></g><g
         transform="scale(1.00053,0.99947)"
         id="g376"><path
           id="path378"
           style="fill:none;stroke:#019901;stroke-width:21.51569939;stroke-linecap:butt;stroke-linejoin:round;stroke-miterlimit:10;stroke-dasharray:none;stroke-opacity:1"
           d="m 3848.01,11.3263 0,0 z" /></g><path
         id="path380"
         style="fill:#010101;fill-opacity:1;fill-rule:evenodd;stroke:none"
         d="m 3655.7,114.898 0,10.469 -21.81,0 0,111.223 -3.4,0 c -3.11,-2.832 -11.61,-11.606 -31.16,-11.606 -2.27,0 -2.55,0 -2.55,-3.394 l 0,-7.36 c 11.04,0 19.26,2.833 22.94,4.247 l 0,-93.11 -21.81,0 0,-10.469 57.79,0" /><path
         id="path382"
         style="fill:#010101;fill-opacity:1;fill-rule:evenodd;stroke:none"
         d="m 3750.04,147.441 c 0,14.434 -9.63,26.606 -24.36,31.414 11.33,3.399 22.1,13.301 22.1,26.602 0,16.981 -15.02,31.133 -34,31.133 -19.83,0 -34.56,-14.719 -34.56,-31.133 0,-13.582 11.05,-23.488 22.1,-26.602 -14.45,-4.808 -24.37,-16.98 -24.37,-31.414 0,-19.242 16.15,-36.222 36.55,-36.222 21.25,0 36.54,17.261 36.54,36.222 z m -14.73,57.735 c 0,-11.887 -8.22,-20.942 -21.53,-20.942 -14.45,0 -22.1,9.621 -22.1,20.942 0,13.582 9.64,21.222 21.82,21.222 13.03,0 21.81,-8.207 21.81,-21.222 z m 0.57,-57.449 c 0,-17.547 -10.77,-25.754 -22.1,-25.754 -12.18,0 -22.66,8.773 -22.66,25.754 0,19.242 13.03,25.753 22.38,25.753 10.2,0 22.38,-7.078 22.38,-25.753" /><path
         id="path384"
         style="fill:#010101;fill-opacity:1;fill-rule:evenodd;stroke:none"
         d="m 7408.01,734.102 c 0,9.339 -6.23,17.261 -16.43,20.941 8.5,4.527 13.03,12.453 13.03,20.379 0,10.469 -9.63,18.109 -21.25,18.109 -9.63,0 -18.13,-5.375 -22.66,-13.301 l 4.25,-6.226 c 2.84,7.641 10.2,12.734 18.13,12.734 6.24,0 11.9,-3.394 11.9,-11.316 0,-7.926 -5.38,-14.719 -11.9,-16.133 -0.56,0 -8.21,-0.566 -9.35,-0.848 l 0,-7.078 8.5,0 c 12.47,0 15.3,-10.468 15.3,-17.261 0,-9.622 -5.95,-16.981 -14.45,-16.981 -7.65,0 -17.28,3.965 -22.66,12.453 L 7359,722.5 c 7.93,-10.473 18.41,-12.453 24.36,-12.453 13.89,0 24.65,11.32 24.65,24.055" /><path
         id="path386"
         style="fill:#010101;fill-opacity:1;fill-rule:evenodd;stroke:none"
         d="m 7465.52,712.594 0,8.207 -21.25,0 c -1.41,0 -2.83,-0.281 -4.25,-0.281 l -13.03,0 c 3.12,3.394 14.45,14.429 22.1,21.222 8.79,7.926 16.43,15.281 16.43,26.321 0,13.3 -9.06,25.468 -24.93,25.468 -13.03,0 -19.55,-8.488 -22.95,-19.527 3.97,-4.809 3.97,-5.094 5.1,-6.508 2.84,12.734 7.37,18.68 16.15,18.68 10.49,0 17,-8.207 17,-18.399 0,-6.222 -2.55,-13.015 -10.48,-20.941 l -26.63,-26.602 0,-7.64 46.74,0" /><path
         id="path388"
         style="fill:#010101;fill-opacity:1;fill-rule:evenodd;stroke:none"
         d="m 7592.72,711.461 c 0,0.852 -0.28,1.699 -2.26,2.547 l -61.76,28.301 61.76,28.582 c 1.98,0.851 2.26,1.699 2.26,2.547 0,1.132 -0.84,2.265 -2.26,2.265 0,0 -0.28,-0.281 -1.99,-0.848 l -64.87,-30 c -1.98,-0.847 -2.27,-1.699 -2.27,-2.261 0,-0.852 0,-1.699 2.27,-2.832 l 64.87,-29.715 c 1.42,-0.848 1.99,-0.848 1.99,-0.848 1.42,0 2.26,0.848 2.26,2.262" /><path
         id="path390"
         style="fill:#010101;fill-opacity:1;fill-rule:evenodd;stroke:none"
         d="m 7695.84,734.102 c 0,9.339 -6.23,17.261 -16.43,20.941 8.5,4.527 13.04,12.453 13.04,20.379 0,10.469 -9.64,18.109 -21.25,18.109 -9.63,0 -18.13,-5.375 -22.66,-13.301 l 4.25,-6.226 c 2.83,7.641 10.19,12.734 18.12,12.734 6.24,0 11.9,-3.394 11.9,-11.316 0,-7.926 -5.38,-14.719 -11.9,-16.133 -0.56,0 -8.21,-0.566 -9.34,-0.848 l 0,-7.078 8.5,0 c 12.46,0 15.29,-10.468 15.29,-17.261 0,-9.622 -5.95,-16.981 -14.45,-16.981 -7.64,0 -17.28,3.965 -22.66,12.453 l -1.41,-7.074 c 7.93,-10.473 18.41,-12.453 24.36,-12.453 13.88,0 24.64,11.32 24.64,24.055" /><path
         id="path392"
         style="fill:#010101;fill-opacity:1;fill-rule:evenodd;stroke:none"
         d="m 7753.36,736.934 c 0,14.996 -9.92,26.601 -22.1,26.601 -4.82,0 -9.35,-1.699 -12.75,-4.812 l 0,24.906 30.88,0 0,7.355 -39.38,0 0,-44.148 7.93,0 c 2.84,6.793 8.22,9.625 13.03,9.625 5.67,0 12.19,-5.098 12.19,-19.246 0,-15.281 -8.78,-19.809 -15.59,-19.809 -6.79,0 -14.44,3.395 -18.41,11.035 l -3.96,-6.507 c 7.93,-11.606 19.26,-11.606 22.37,-11.606 14.17,0 25.79,11.887 25.79,26.606" /><g
         transform="scale(1.00053,0.99947)"
         id="g394"><path
           id="path396"
           style="fill:none;stroke:#010101;stroke-width:7.07753992;stroke-linecap:butt;stroke-linejoin:round;stroke-miterlimit:10;stroke-dasharray:none;stroke-opacity:1"
           d="m 7548.5,666.537 -228.22,0 0,199.617 456.44,0 0,-199.617 -228.22,0 z" /></g><g
         transform="scale(1.00053,0.99947)"
         id="g398"><path
           id="path400"
           style="fill:none;stroke:#019901;stroke-width:21.51569939;stroke-linecap:butt;stroke-linejoin:round;stroke-miterlimit:10;stroke-dasharray:none;stroke-opacity:1"
           d="M 7089.51,766.769 6953.03,191.41" /></g><path
         id="path402"
         style="fill:#ffffff;fill-opacity:1;fill-rule:evenodd;stroke:none"
         d="m 7093.27,945.785 c 101.98,0 179.89,-77.824 179.89,-179.422 0,-101.879 -77.91,-179.703 -179.89,-179.703 -101.99,0 -179.9,77.824 -179.9,179.703 0,101.598 77.91,179.422 179.9,179.422 z m -179.9,0 0,0 z m 360.08,-359.41 0,0" /><g
         transform="scale(1.00053,0.99947)"
         id="g404"><path
           id="path406"
           style="fill:none;stroke:#010101;stroke-width:7.07753992;stroke-linecap:butt;stroke-linejoin:round;stroke-miterlimit:10;stroke-dasharray:none;stroke-opacity:1"
           d="m 7089.51,946.572 c 101.93,0 179.8,-77.87 179.8,-179.803 0,-101.932 -77.87,-179.798 -179.8,-179.798 -101.93,0 -179.8,77.866 -179.8,179.798 0,101.933 77.87,179.803 179.8,179.803 z" /></g><g
         transform="scale(1.00053,0.99947)"
         id="g408"><path
           id="path410"
           style="fill:none;stroke:#010101;stroke-width:7.07753992;stroke-linecap:butt;stroke-linejoin:round;stroke-miterlimit:10;stroke-dasharray:none;stroke-opacity:1"
           d="m 6909.71,946.572 0,0 z" /></g><g
         transform="scale(1.00053,0.99947)"
         id="g412"><path
           id="path414"
           style="fill:none;stroke:#010101;stroke-width:7.07753992;stroke-linecap:butt;stroke-linejoin:round;stroke-miterlimit:10;stroke-dasharray:none;stroke-opacity:1"
           d="m 7269.59,586.686 0,0 z" /></g><path
         id="path416"
         style="fill:#010101;fill-opacity:1;fill-rule:evenodd;stroke:none"
         d="m 7084.77,722.781 c 0,13.867 -9.07,26.035 -24.37,31.129 12.75,7.078 19.55,18.961 19.55,30.848 0,15.566 -14.45,27.168 -32.01,27.168 -14.17,0 -27.2,-7.922 -34,-19.809 l 6.52,-9.621 c 4.25,11.602 15.3,19.242 27.48,19.242 9.06,0 17.85,-5.093 17.85,-16.98 0,-11.887 -8.5,-21.789 -18.13,-24.055 -0.86,-0.281 -12.19,-1.133 -13.89,-1.133 l 0,-11.035 12.75,0 c 18.42,0 22.95,-15.847 22.95,-25.754 0,-14.433 -8.78,-25.468 -21.81,-25.468 -11.62,0 -25.78,5.941 -34,18.675 l -1.98,-10.468 c 11.61,-16.133 27.48,-18.961 36.26,-18.961 21.24,0 36.83,16.98 36.83,36.222" /><path
         id="path418"
         style="fill:#010101;fill-opacity:1;fill-rule:evenodd;stroke:none"
         d="m 7172.02,727.027 c 0,22.356 -15.01,39.903 -33.14,39.903 -7.09,0 -13.88,-2.547 -18.99,-7.075 l 0,37.356 46.18,0 0,11.035 -58.92,0 0,-66.219 11.61,0 c 4.54,10.188 12.47,14.149 19.83,14.149 8.5,0 18.14,-7.641 18.14,-28.867 0,-22.922 -13.03,-29.996 -23.52,-29.996 -9.91,0 -21.81,5.375 -27.48,16.695 l -5.95,-9.621 c 11.9,-17.547 28.9,-17.547 33.72,-17.547 21.24,0 38.52,17.832 38.52,40.187" /><path
         id="path420"
         style="fill:#ffffff;fill-opacity:1;fill-rule:evenodd;stroke:none"
         d="m 6956.71,370.73 c 101.99,0 179.9,-77.824 179.9,-179.707 0,-101.8785 -77.91,-179.7027 -179.9,-179.7027 -101.98,0 -179.89,77.8242 -179.89,179.7027 0,101.883 77.91,179.707 179.89,179.707 z m -179.89,0 0,0 z m 360.07,-359.6909 0,0" /><g
         transform="scale(1.00053,0.99947)"
         id="g422"><path
           id="path424"
           style="fill:none;stroke:#019901;stroke-width:21.51569939;stroke-linecap:butt;stroke-linejoin:round;stroke-miterlimit:10;stroke-dasharray:none;stroke-opacity:1"
           d="m 6953.03,370.927 c 101.94,0 179.8,-77.865 179.8,-179.517 0,-101.9329 -77.86,-179.8023 -179.8,-179.8023 -101.93,0 -179.8,77.8694 -179.8,179.8023 0,101.652 77.87,179.517 179.8,179.517 z" /></g><g
         transform="scale(1.00053,0.99947)"
         id="g426"><path
           id="path428"
           style="fill:none;stroke:#019901;stroke-width:21.51569939;stroke-linecap:butt;stroke-linejoin:round;stroke-miterlimit:10;stroke-dasharray:none;stroke-opacity:1"
           d="m 6773.23,370.927 0,0 z" /></g><g
         transform="scale(1.00053,0.99947)"
         id="g430"><path
           id="path432"
           style="fill:none;stroke:#019901;stroke-width:21.51569939;stroke-linecap:butt;stroke-linejoin:round;stroke-miterlimit:10;stroke-dasharray:none;stroke-opacity:1"
           d="m 7133.12,11.3263 0,0 z" /></g><path
         id="path434"
         style="fill:#010101;fill-opacity:1;fill-rule:evenodd;stroke:none"
         d="m 6948.21,147.441 c 0,13.868 -9.06,26.039 -24.36,31.133 12.75,7.074 19.55,18.961 19.55,30.848 0,15.562 -14.45,27.168 -32.01,27.168 -14.17,0 -27.2,-7.926 -34,-19.813 l 6.52,-9.621 c 4.25,11.602 15.3,19.242 27.48,19.242 9.06,0 17.84,-5.093 17.84,-16.976 0,-11.887 -8.49,-21.793 -18.12,-24.059 -0.86,-0.281 -12.19,-1.129 -13.89,-1.129 l 0,-11.039 12.75,0 c 18.42,0 22.95,-15.847 22.95,-25.754 0,-14.429 -8.78,-25.468 -21.81,-25.468 -11.62,0 -25.79,5.941 -34,18.679 l -1.98,-10.472 c 11.61,-16.129 27.48,-18.961 36.26,-18.961 21.25,0 36.82,16.98 36.82,36.222" /><path
         id="path436"
         style="fill:#010101;fill-opacity:1;fill-rule:evenodd;stroke:none"
         d="m 7035.47,114.898 0,12.168 -32.01,0 c -1.98,0 -4.25,0 -6.23,0 l -19.27,0 c 4.54,4.813 21.25,21.227 32.86,31.696 13.32,11.886 24.65,22.926 24.65,39.621 0,19.808 -13.59,38.207 -37.39,38.207 -19.55,0 -29.47,-12.738 -34.28,-29.434 5.66,-7.359 5.66,-7.64 7.36,-9.906 4.54,19.246 11.05,28.301 24.37,28.301 15.58,0 25.78,-12.168 25.78,-27.735 0,-9.339 -3.97,-19.808 -15.87,-31.695 l -40.23,-39.902 0,-11.321 70.26,0" /><g
         transform="scale(1.00053,0.99947)"
         id="g438"><path
           id="path440"
           style="fill:none;stroke:#0167ff;stroke-width:21.80249977;stroke-linecap:butt;stroke-linejoin:round;stroke-miterlimit:10;stroke-dasharray:none;stroke-opacity:1"
           d="m 3567.41,608.772 42.47,-112.411" /></g><path
         id="path442"
         style="fill:#0167ff;fill-opacity:1;fill-rule:evenodd;stroke:none"
         d="m 3648.34,399.598 -4.54,113.48 -67.42,-25.469 71.96,-88.011" /><g
         transform="scale(1.00053,0.99947)"
         id="g444"><path
           id="path446"
           style="fill:none;stroke:#0167ff;stroke-width:21.80249977;stroke-linecap:butt;stroke-linejoin:round;stroke-miterlimit:10;stroke-dasharray:none;stroke-opacity:1"
           d="m 6882.24,1194.61 91.46,-142.99" /></g><path
         id="path448"
         style="fill:#0167ff;fill-opacity:1;fill-rule:evenodd;stroke:none"
         d="m 7033.21,964.465 -28.05,110.085 -60.62,-38.77 88.67,-71.315" /><g
         transform="scale(1.00053,0.99947)"
         id="g450"><path
           id="path452"
           style="fill:none;stroke:#0167ff;stroke-width:21.80249977;stroke-linecap:butt;stroke-linejoin:round;stroke-miterlimit:10;stroke-dasharray:none;stroke-opacity:1"
           d="m 7104.23,566.3 -22.36,-95.14" /></g><path
         id="path454"
         style="fill:#0167ff;fill-opacity:1;fill-rule:evenodd;stroke:none"
         d="m 7062.1,370.73 59.78,96.786 -70.26,16.414 10.48,-113.2" /><g
         transform="scale(1.00053,0.99947)"
         id="g456"><path
           id="path458"
           style="fill:none;stroke:#010101;stroke-width:7.07753992;stroke-linecap:butt;stroke-linejoin:round;stroke-miterlimit:10;stroke-dasharray:none;stroke-opacity:1"
           d="M 5938.79,766.769 6216.28,191.125" /></g><path
         id="path460"
         style="fill:#ffffff;fill-opacity:1;fill-rule:evenodd;stroke:none"
         d="m 5942.22,945.785 c 101.99,0 179.89,-77.824 179.89,-179.422 0,-101.879 -77.9,-179.703 -179.89,-179.703 -101.99,0 -179.9,77.824 -179.9,179.703 0,101.598 77.91,179.422 179.9,179.422 z m -179.9,0 0,0 z m 360.08,-359.41 0,0" /><g
         transform="scale(1.00053,0.99947)"
         id="g462"><path
           id="path464"
           style="fill:none;stroke:#010101;stroke-width:7.07753992;stroke-linecap:butt;stroke-linejoin:round;stroke-miterlimit:10;stroke-dasharray:none;stroke-opacity:1"
           d="m 5938.79,946.572 c 101.93,0 179.8,-77.87 179.8,-179.803 0,-101.932 -77.87,-179.798 -179.8,-179.798 -101.94,0 -179.8,77.866 -179.8,179.798 0,101.933 77.86,179.803 179.8,179.803 z" /></g><g
         transform="scale(1.00053,0.99947)"
         id="g466"><path
           id="path468"
           style="fill:none;stroke:#010101;stroke-width:7.07753992;stroke-linecap:butt;stroke-linejoin:round;stroke-miterlimit:10;stroke-dasharray:none;stroke-opacity:1"
           d="m 5758.99,946.572 0,0 z" /></g><g
         transform="scale(1.00053,0.99947)"
         id="g470"><path
           id="path472"
           style="fill:none;stroke:#010101;stroke-width:7.07753992;stroke-linecap:butt;stroke-linejoin:round;stroke-miterlimit:10;stroke-dasharray:none;stroke-opacity:1"
           d="m 6118.87,586.686 0,0 z" /></g><path
         id="path474"
         style="fill:#010101;fill-opacity:1;fill-rule:evenodd;stroke:none"
         d="m 5928.05,690.238 0,10.469 -21.81,0 0,111.219 -3.4,0 c -3.12,-2.828 -11.62,-11.602 -31.16,-11.602 -2.27,0 -2.55,0 -2.55,-3.394 l 0,-7.36 c 11.05,0 19.26,2.828 22.94,4.246 l 0,-93.109 -21.81,0 0,-10.469 57.79,0" /><path
         id="path476"
         style="fill:#010101;fill-opacity:1;fill-rule:evenodd;stroke:none"
         d="m 6020.98,727.027 c 0,22.356 -15.02,39.903 -33.15,39.903 -7.08,0 -13.88,-2.547 -18.98,-7.075 l 0,37.356 46.18,0 0,11.035 -58.93,0 0,-66.219 11.61,0 c 4.54,10.188 12.47,14.149 19.84,14.149 8.5,0 18.13,-7.641 18.13,-28.867 0,-22.922 -13.04,-29.996 -23.52,-29.996 -9.91,0 -21.81,5.375 -27.48,16.695 l -5.95,-9.621 c 11.9,-17.547 28.9,-17.547 33.72,-17.547 21.25,0 38.53,17.832 38.53,40.187" /><path
         id="path478"
         style="fill:#ffffff;fill-opacity:1;fill-rule:evenodd;stroke:none"
         d="m 6219.85,370.445 c 101.99,0 179.9,-77.824 179.9,-179.703 0,-101.8787 -77.91,-179.7029 -179.9,-179.7029 -101.99,0 -179.89,77.8242 -179.89,179.7029 0,101.879 77.9,179.703 179.89,179.703 z m -179.89,0 0,0 z m 360.07,-359.6911 0,0" /><g
         transform="scale(1.00053,0.99947)"
         id="g480"><path
           id="path482"
           style="fill:none;stroke:#010101;stroke-width:7.07753992;stroke-linecap:butt;stroke-linejoin:round;stroke-miterlimit:10;stroke-dasharray:none;stroke-opacity:1"
           d="m 6216.28,370.642 c 101.93,0 179.8,-77.866 179.8,-179.517 0,-101.9332 -77.87,-179.7987 -179.8,-179.7987 -101.94,0 -179.81,77.8655 -179.81,179.7987 0,101.651 77.87,179.517 179.81,179.517 z" /></g><g
         transform="scale(1.00053,0.99947)"
         id="g484"><path
           id="path486"
           style="fill:none;stroke:#010101;stroke-width:7.07753992;stroke-linecap:butt;stroke-linejoin:round;stroke-miterlimit:10;stroke-dasharray:none;stroke-opacity:1"
           d="m 6036.47,370.642 0,0 z" /></g><g
         transform="scale(1.00053,0.99947)"
         id="g488"><path
           id="path490"
           style="fill:none;stroke:#010101;stroke-width:7.07753992;stroke-linecap:butt;stroke-linejoin:round;stroke-miterlimit:10;stroke-dasharray:none;stroke-opacity:1"
           d="m 6396.36,11.0449 0,0 z" /></g><path
         id="path492"
         style="fill:#010101;fill-opacity:1;fill-rule:evenodd;stroke:none"
         d="m 6205.69,114.613 0,10.473 -21.82,0 0,111.219 -3.4,0 c -3.11,-2.828 -11.61,-11.602 -31.16,-11.602 -2.27,0 -2.55,0 -2.55,-3.398 l 0,-7.356 c 11.05,0 19.26,2.828 22.95,4.242 l 0,-93.105 -21.82,0 0,-10.473 57.8,0" /><path
         id="path494"
         style="fill:#010101;fill-opacity:1;fill-rule:evenodd;stroke:none"
         d="m 6300.03,147.16 c 0,14.434 -9.64,26.602 -24.37,31.414 11.33,3.395 22.1,13.301 22.1,26.602 0,16.98 -15.01,31.129 -34,31.129 -19.83,0 -34.56,-14.715 -34.56,-31.129 0,-13.586 11.05,-23.488 22.1,-26.602 -14.45,-4.812 -24.37,-16.98 -24.37,-31.414 0,-19.246 16.15,-36.222 36.55,-36.222 21.25,0 36.55,17.261 36.55,36.222 z m -14.74,57.731 c 0,-11.883 -8.21,-20.942 -21.53,-20.942 -14.44,0 -22.09,9.621 -22.09,20.942 0,13.586 9.63,21.226 21.81,21.226 13.03,0 21.81,-8.207 21.81,-21.226 z m 0.57,-57.45 c 0,-17.543 -10.77,-25.75 -22.1,-25.75 -12.18,0 -22.66,8.774 -22.66,25.75 0,19.247 13.03,25.754 22.38,25.754 10.2,0 22.38,-7.074 22.38,-25.754" /><g
         transform="scale(1.00053,0.99947)"
         id="g496"><path
           id="path498"
           style="fill:none;stroke:#010101;stroke-width:7.07753992;stroke-linecap:butt;stroke-linejoin:round;stroke-miterlimit:10;stroke-dasharray:none;stroke-opacity:1"
           d="M 1118.16,1913.24 542.798,1337.88" /></g><g
         transform="scale(1.00053,0.99947)"
         id="g500"><path
           id="path502"
           style="fill:none;stroke:#010101;stroke-width:7.07753992;stroke-linecap:butt;stroke-linejoin:round;stroke-miterlimit:10;stroke-dasharray:none;stroke-opacity:1"
           d="M 542.798,1337.88 183.766,762.806" /></g><g
         transform="scale(1.00053,0.99947)"
         id="g504"><path
           id="path506"
           style="fill:none;stroke:#010101;stroke-width:7.07753992;stroke-linecap:butt;stroke-linejoin:round;stroke-miterlimit:10;stroke-dasharray:none;stroke-opacity:1"
           d="M 902.401,762.806 542.798,1337.88" /></g><g
         transform="scale(1.00053,0.99947)"
         id="g508"><path
           id="path510"
           style="fill:none;stroke:#010101;stroke-width:7.07753992;stroke-linecap:butt;stroke-linejoin:round;stroke-miterlimit:10;stroke-dasharray:none;stroke-opacity:1"
           d="M 686.64,187.728 902.401,762.806" /></g><g
         transform="scale(1.00053,0.99947)"
         id="g512"><path
           id="path514"
           style="fill:none;stroke:#010101;stroke-width:7.07753992;stroke-linecap:butt;stroke-linejoin:round;stroke-miterlimit:10;stroke-dasharray:none;stroke-opacity:1"
           d="M 1693.52,1337.88 2081.44,762.806" /></g><g
         transform="scale(1.00053,0.99947)"
         id="g516"><path
           id="path518"
           style="fill:none;stroke:#010101;stroke-width:7.07753992;stroke-linecap:butt;stroke-linejoin:round;stroke-miterlimit:10;stroke-dasharray:none;stroke-opacity:1"
           d="m 1118.16,1913.24 575.36,-575.36" /></g><path
         id="path520"
         style="fill:#ffffff;fill-opacity:1;fill-rule:evenodd;stroke:none"
         d="m 1119.04,2091.65 c 101.98,0 179.89,-77.82 179.89,-179.7 0,-101.6 -77.91,-179.42 -179.89,-179.42 -101.99,0 -179.899,77.82 -179.899,179.42 0,101.88 77.909,179.7 179.899,179.7 z m -179.899,0 0,0 z m 360.069,-359.41 0,0" /><g
         transform="scale(1.00053,0.99947)"
         id="g522"><path
           id="path524"
           style="fill:none;stroke:#010101;stroke-width:7.07753992;stroke-linecap:butt;stroke-linejoin:round;stroke-miterlimit:10;stroke-dasharray:none;stroke-opacity:1"
           d="m 1118.16,2093.05 c 101.93,0 179.8,-77.87 179.8,-179.81 0,-101.93 -77.87,-179.79 -179.8,-179.79 -101.93,0 -179.802,77.86 -179.802,179.79 0,101.94 77.872,179.81 179.802,179.81 z" /></g><g
         transform="scale(1.00053,0.99947)"
         id="g526"><path
           id="path528"
           style="fill:none;stroke:#010101;stroke-width:7.07753992;stroke-linecap:butt;stroke-linejoin:round;stroke-miterlimit:10;stroke-dasharray:none;stroke-opacity:1"
           d="m 938.358,2093.05 0,0 z" /></g><g
         transform="scale(1.00053,0.99947)"
         id="g530"><path
           id="path532"
           style="fill:none;stroke:#010101;stroke-width:7.07753992;stroke-linecap:butt;stroke-linejoin:round;stroke-miterlimit:10;stroke-dasharray:none;stroke-opacity:1"
           d="m 1298.24,1733.16 0,0 z" /></g><path
         id="path534"
         style="fill:#010101;fill-opacity:1;fill-rule:evenodd;stroke:none"
         d="m 1109.12,1836.11 0,12.16 -32.01,0 c -1.98,0 -4.25,0 -6.23,0 l -19.27,0 c 4.53,4.82 21.25,21.23 32.86,31.7 13.32,11.89 24.65,22.92 24.65,39.62 0,19.81 -13.6,38.2 -37.4,38.2 -19.54,0 -29.46,-12.73 -34.27,-29.43 5.66,-7.36 5.66,-7.64 7.36,-9.9 4.53,19.24 11.05,28.3 24.37,28.3 15.57,0 25.77,-12.17 25.77,-27.74 0,-9.34 -3.96,-19.81 -15.86,-31.69 l -40.23,-39.9 0,-11.32 70.26,0" /><path
         id="path536"
         style="fill:#010101;fill-opacity:1;fill-rule:evenodd;stroke:none"
         d="m 1199.21,1894.97 c 0,11.89 -0.28,25.75 -5.1,38.49 -7.65,20.37 -21.81,24.33 -31.16,24.33 -11.9,0 -23.24,-5.94 -29.75,-20.09 -5.95,-12.74 -7.08,-27.45 -7.08,-42.73 0,-19.81 1.7,-30.85 7.36,-43.58 5.39,-11.89 17,-18.96 29.18,-18.96 11.9,0 23.23,6.5 29.18,18.96 6.23,12.73 7.37,25.75 7.37,43.58 z m -13.6,1.98 c 0,-11.32 0,-23.21 -3.11,-34.53 -4.82,-17.26 -15.02,-19.24 -19.55,-19.24 -23.24,0 -23.24,37.07 -23.24,53.77 0,11.89 0,22.64 3.41,33.11 4.24,12.74 12.18,16.98 19.54,16.98 22.95,0 22.95,-33.4 22.95,-50.09" /><path
         id="path538"
         style="fill:#ffffff;fill-opacity:1;fill-rule:evenodd;stroke:none"
         d="m 1694.7,1516.88 c 101.99,0 179.9,-77.83 179.9,-179.7 0,-101.88 -77.91,-179.71 -179.9,-179.71 -101.99,0 -179.9,77.83 -179.9,179.71 0,101.87 77.91,179.7 179.9,179.7 z m -179.9,0 0,0 z m 360.08,-359.69 0,0" /><g
         transform="scale(1.00053,0.99947)"
         id="g540"><path
           id="path542"
           style="fill:none;stroke:#010101;stroke-width:7.07753992;stroke-linecap:butt;stroke-linejoin:round;stroke-miterlimit:10;stroke-dasharray:none;stroke-opacity:1"
           d="m 1693.52,1517.68 c 101.94,0 179.8,-77.86 179.8,-179.8 0,-101.65 -77.86,-179.51 -179.8,-179.51 -101.93,0 -179.8,77.86 -179.8,179.51 0,101.94 77.87,179.8 179.8,179.8 z" /></g><g
         transform="scale(1.00053,0.99947)"
         id="g544"><path
           id="path546"
           style="fill:none;stroke:#010101;stroke-width:7.07753992;stroke-linecap:butt;stroke-linejoin:round;stroke-miterlimit:10;stroke-dasharray:none;stroke-opacity:1"
           d="m 1513.72,1517.68 0,0 z" /></g><g
         transform="scale(1.00053,0.99947)"
         id="g548"><path
           id="path550"
           style="fill:none;stroke:#010101;stroke-width:7.07753992;stroke-linecap:butt;stroke-linejoin:round;stroke-miterlimit:10;stroke-dasharray:none;stroke-opacity:1"
           d="m 1873.61,1158.08 0,0 z" /></g><path
         id="path552"
         style="fill:#010101;fill-opacity:1;fill-rule:evenodd;stroke:none"
         d="m 1686.2,1293.59 c 0,13.87 -9.06,26.04 -24.36,31.13 12.75,7.08 19.55,18.96 19.55,30.85 0,15.57 -14.45,27.17 -32.02,27.17 -14.16,0 -27.19,-7.93 -33.99,-19.81 l 6.51,-9.63 c 4.25,11.61 15.3,19.25 27.48,19.25 9.07,0 17.85,-5.09 17.85,-16.98 0,-11.89 -8.5,-21.79 -18.13,-24.05 -0.85,-0.29 -12.18,-1.14 -13.88,-1.14 l 0,-11.03 12.75,0 c 18.41,0 22.94,-15.85 22.94,-25.76 0,-14.43 -8.78,-25.47 -21.81,-25.47 -11.62,0 -25.78,5.95 -34,18.68 l -1.98,-10.47 c 11.62,-16.13 27.48,-18.96 36.26,-18.96 21.25,0 36.83,16.98 36.83,36.22" /><path
         id="path554"
         style="fill:#010101;fill-opacity:1;fill-rule:evenodd;stroke:none"
         d="m 1774.88,1319.91 c 0,11.89 -0.29,25.75 -5.11,38.49 -7.64,20.38 -21.81,24.34 -31.16,24.34 -11.9,0 -23.23,-5.94 -29.74,-20.1 -5.95,-12.73 -7.09,-27.44 -7.09,-42.73 0,-19.81 1.7,-30.84 7.37,-43.58 5.38,-11.88 17,-18.96 29.18,-18.96 11.9,0 23.23,6.51 29.18,18.96 6.23,12.74 7.37,25.75 7.37,43.58 z m -13.6,1.98 c 0,-11.32 0,-23.2 -3.12,-34.52 -4.82,-17.26 -15.02,-19.25 -19.55,-19.25 -23.23,0 -23.23,37.08 -23.23,53.77 0,11.89 0,22.64 3.4,33.11 4.25,12.74 12.18,16.98 19.55,16.98 22.95,0 22.95,-33.39 22.95,-50.09" /><path
         id="path556"
         style="fill:#ffffff;fill-opacity:1;fill-rule:evenodd;stroke:none"
         d="m 543.371,1516.88 c 101.988,0 179.895,-77.83 179.895,-179.7 0,-101.88 -77.907,-179.71 -179.895,-179.71 -101.988,0 -179.898,77.83 -179.898,179.71 0,101.87 77.91,179.7 179.898,179.7 z m -179.898,0 0,0 z m 360.074,-359.69 0,0" /><g
         transform="scale(1.00053,0.99947)"
         id="g558"><path
           id="path560"
           style="fill:none;stroke:#010101;stroke-width:7.07753992;stroke-linecap:butt;stroke-linejoin:round;stroke-miterlimit:10;stroke-dasharray:none;stroke-opacity:1"
           d="m 542.798,1517.68 c 101.935,0 179.8,-77.86 179.8,-179.8 0,-101.65 -77.865,-179.51 -179.8,-179.51 -101.368,0 -179.233,77.86 -179.233,179.51 0,101.94 77.865,179.8 179.233,179.8 z" /></g><g
         transform="scale(1.00053,0.99947)"
         id="g562"><path
           id="path564"
           style="fill:none;stroke:#010101;stroke-width:7.07753992;stroke-linecap:butt;stroke-linejoin:round;stroke-miterlimit:10;stroke-dasharray:none;stroke-opacity:1"
           d="m 363.565,1517.68 0,0 z" /></g><g
         transform="scale(1.00053,0.99947)"
         id="g566"><path
           id="path568"
           style="fill:none;stroke:#010101;stroke-width:7.07753992;stroke-linecap:butt;stroke-linejoin:round;stroke-miterlimit:10;stroke-dasharray:none;stroke-opacity:1"
           d="m 722.883,1158.08 0,0 z" /></g><path
         id="path570"
         style="fill:#010101;fill-opacity:1;fill-rule:evenodd;stroke:none"
         d="m 529.203,1261.05 0,10.47 -21.812,0 0,111.22 -3.399,0 c -3.117,-2.83 -11.617,-11.6 -31.164,-11.6 -2.265,0 -2.551,0 -2.551,-3.4 l 0,-7.36 c 11.051,0 19.266,2.83 22.95,4.25 l 0,-93.11 -21.817,0 0,-10.47 57.793,0" /><path
         id="path572"
         style="fill:#010101;fill-opacity:1;fill-rule:evenodd;stroke:none"
         d="m 623.543,1319.91 c 0,11.89 -0.281,25.75 -5.098,38.49 -7.652,20.38 -21.816,24.34 -31.164,24.34 -11.898,0 -23.23,-5.94 -29.746,-20.1 -5.949,-12.73 -7.082,-27.44 -7.082,-42.73 0,-19.81 1.699,-30.84 7.363,-43.58 5.383,-11.88 17,-18.96 29.18,-18.96 11.899,0 23.231,6.51 29.18,18.96 6.234,12.74 7.367,25.75 7.367,43.58 z m -13.598,1.98 c 0,-11.32 0,-23.2 -3.117,-34.52 -4.816,-17.26 -15.015,-19.25 -19.547,-19.25 -23.23,0 -23.23,37.08 -23.23,53.77 0,11.89 0,22.64 3.398,33.11 4.25,12.74 12.184,16.98 19.547,16.98 22.949,0 22.949,-33.39 22.949,-50.09" /><path
         id="path574"
         style="fill:#ffffff;fill-opacity:1;fill-rule:evenodd;stroke:none"
         d="m 183.578,941.824 c 101.988,0 179.895,-77.824 179.895,-179.422 0,-101.879 -77.907,-179.707 -179.895,-179.707 -101.9882,0 -179.89441,77.828 -179.89441,179.707 0,101.598 77.90621,179.422 179.89441,179.422 z m -179.89441,0 0,0 z m 360.07441,-359.41 0,0" /><g
         transform="scale(1.00053,0.99947)"
         id="g576"><path
           id="path578"
           style="fill:none;stroke:#010101;stroke-width:7.07753992;stroke-linecap:butt;stroke-linejoin:round;stroke-miterlimit:10;stroke-dasharray:none;stroke-opacity:1"
           d="m 183.766,942.605 c 101.934,0 179.799,-77.866 179.799,-179.799 0,-101.932 -77.865,-179.802 -179.799,-179.802 -101.9344,0 -179.80326,77.87 -179.80326,179.802 0,101.933 77.86886,179.799 179.80326,179.799 z" /></g><g
         transform="scale(1.00053,0.99947)"
         id="g580"><path
           id="path582"
           style="fill:none;stroke:#010101;stroke-width:7.07753992;stroke-linecap:butt;stroke-linejoin:round;stroke-miterlimit:10;stroke-dasharray:none;stroke-opacity:1"
           d="m 3.96274,942.605 0,0 z" /></g><g
         transform="scale(1.00053,0.99947)"
         id="g584"><path
           id="path586"
           style="fill:none;stroke:#010101;stroke-width:7.07753992;stroke-linecap:butt;stroke-linejoin:round;stroke-miterlimit:10;stroke-dasharray:none;stroke-opacity:1"
           d="m 363.846,582.723 0,0 z" /></g><path
         id="path588"
         style="fill:#010101;fill-opacity:1;fill-rule:evenodd;stroke:none"
         d="m 219.559,792.684 0,11.32 -73.094,0 0,-12.168 33.43,0 c 2.265,0 4.25,0.281 6.515,0.281 l 21.531,0 C 197.176,779.383 166.016,743.441 166.016,684.293 l 14.73,0 c 0,46.98 19.266,85.184 38.813,108.391" /><path
         id="path590"
         style="fill:#ffffff;fill-opacity:1;fill-rule:evenodd;stroke:none"
         d="m 687.285,367.051 c 101.988,0 179.895,-77.824 179.895,-179.703 0,-101.8832 -77.907,-179.70737 -179.895,-179.70737 -101.988,0 -179.894,77.82417 -179.894,179.70737 0,101.879 77.906,179.703 179.894,179.703 z m -179.894,0 0,0 z M 867.465,7.35938 l 0,0" /><g
         transform="scale(1.00053,0.99947)"
         id="g592"><path
           id="path594"
           style="fill:none;stroke:#010101;stroke-width:7.07753992;stroke-linecap:butt;stroke-linejoin:round;stroke-miterlimit:10;stroke-dasharray:none;stroke-opacity:1"
           d="m 686.64,367.245 c 101.934,0 179.799,-77.865 179.799,-179.517 0,-101.9325 -77.865,-179.79802 -179.799,-179.79802 -101.934,0 -179.803,77.86552 -179.803,179.79802 0,101.652 77.869,179.517 179.803,179.517 z" /></g><g
         transform="scale(1.00053,0.99947)"
         id="g596"><path
           id="path598"
           style="fill:none;stroke:#010101;stroke-width:7.07753992;stroke-linecap:butt;stroke-linejoin:round;stroke-miterlimit:10;stroke-dasharray:none;stroke-opacity:1"
           d="m 506.837,367.245 0,0 z" /></g><g
         transform="scale(1.00053,0.99947)"
         id="g600"><path
           id="path602"
           style="fill:none;stroke:#010101;stroke-width:7.07753992;stroke-linecap:butt;stroke-linejoin:round;stroke-miterlimit:10;stroke-dasharray:none;stroke-opacity:1"
           d="m 866.721,7.64467 0,0 z" /></g><path
         id="path604"
         style="fill:#010101;fill-opacity:1;fill-rule:evenodd;stroke:none"
         d="m 673.121,111.219 0,10.472 -21.812,0 0,111.219 -3.403,0 c -3.117,-2.832 -11.613,-11.605 -31.164,-11.605 -2.265,0 -2.547,0 -2.547,-3.395 l 0,-7.359 c 11.047,0 19.262,2.832 22.946,4.246 l 0,-93.106 -21.813,0 0,-10.472 57.793,0" /><path
         id="path606"
         style="fill:#010101;fill-opacity:1;fill-rule:evenodd;stroke:none"
         d="m 766.043,111.219 0,12.168 -32.012,0 c -1.984,0 -4.25,0 -6.234,0 l -19.262,0 c 4.531,4.812 21.246,21.226 32.86,31.699 13.316,11.883 24.648,22.922 24.648,39.617 0,19.813 -13.598,38.207 -37.395,38.207 -19.546,0 -29.464,-12.734 -34.281,-29.433 5.668,-7.36 5.668,-7.641 7.367,-9.907 4.532,19.246 11.047,28.301 24.364,28.301 15.582,0 25.781,-12.168 25.781,-27.734 0,-9.336 -3.969,-19.809 -15.867,-31.696 l -40.227,-39.902 0,-11.32 70.258,0" /><path
         id="path608"
         style="fill:#ffffff;fill-opacity:1;fill-rule:evenodd;stroke:none"
         d="m 2054.49,941.824 c 101.99,0 179.9,-77.824 179.9,-179.422 0,-101.879 -77.91,-179.707 -179.9,-179.707 -101.99,0 -179.89,77.828 -179.89,179.707 0,101.598 77.9,179.422 179.89,179.422 z m -179.89,0 0,0 z m 360.07,-359.41 0,0" /><g
         transform="scale(1.00053,0.99947)"
         id="g610"><path
           id="path612"
           style="fill:none;stroke:#010101;stroke-width:7.07753992;stroke-linecap:butt;stroke-linejoin:round;stroke-miterlimit:10;stroke-dasharray:none;stroke-opacity:1"
           d="m 2053.12,942.605 c 101.93,0 179.8,-77.866 179.8,-179.799 0,-101.932 -77.87,-179.802 -179.8,-179.802 -101.93,0 -179.8,77.87 -179.8,179.802 0,101.933 77.87,179.799 179.8,179.799 z" /></g><g
         transform="scale(1.00053,0.99947)"
         id="g614"><path
           id="path616"
           style="fill:none;stroke:#010101;stroke-width:7.07753992;stroke-linecap:butt;stroke-linejoin:round;stroke-miterlimit:10;stroke-dasharray:none;stroke-opacity:1"
           d="m 1873.32,942.605 0,0 z" /></g><g
         transform="scale(1.00053,0.99947)"
         id="g618"><path
           id="path620"
           style="fill:none;stroke:#010101;stroke-width:7.07753992;stroke-linecap:butt;stroke-linejoin:round;stroke-miterlimit:10;stroke-dasharray:none;stroke-opacity:1"
           d="m 2233.2,582.723 0,0 z" /></g><path
         id="path622"
         style="fill:#010101;fill-opacity:1;fill-rule:evenodd;stroke:none"
         d="m 2045.99,718.82 c 0,13.868 -9.06,26.035 -24.36,31.129 12.75,7.074 19.55,18.961 19.55,30.848 0,15.566 -14.45,27.168 -32.02,27.168 -14.16,0 -27.19,-7.922 -33.99,-19.809 l 6.51,-9.625 c 4.25,11.606 15.3,19.246 27.48,19.246 9.07,0 17.85,-5.093 17.85,-16.98 0,-11.887 -8.5,-21.789 -18.13,-24.055 -0.85,-0.281 -12.18,-1.133 -13.88,-1.133 l 0,-11.035 12.75,0 c 18.41,0 22.95,-15.847 22.95,-25.754 0,-14.433 -8.79,-25.468 -21.82,-25.468 -11.61,0 -25.78,5.941 -34,18.675 l -1.98,-10.468 c 11.62,-16.133 27.48,-18.961 36.26,-18.961 21.25,0 36.83,16.976 36.83,36.222" /><path
         id="path624"
         style="fill:#010101;fill-opacity:1;fill-rule:evenodd;stroke:none"
         d="m 2133.25,723.066 c 0,22.356 -15.02,39.903 -33.15,39.903 -7.08,0 -13.88,-2.547 -18.98,-7.074 l 0,37.355 46.18,0 0,11.035 -58.92,0 0,-66.222 11.61,0 c 4.53,10.191 12.46,14.152 19.83,14.152 8.5,0 18.13,-7.641 18.13,-28.867 0,-22.922 -13.03,-29.996 -23.51,-29.996 -9.92,0 -21.82,5.375 -27.48,16.695 l -5.95,-9.621 c 11.9,-17.547 28.89,-17.547 33.71,-17.547 21.25,0 38.53,17.828 38.53,40.187" /><path
         id="path626"
         style="fill:#ffffff;fill-opacity:1;fill-rule:evenodd;stroke:none"
         d="m 903.16,941.824 c 101.99,0 179.89,-77.824 179.89,-179.422 0,-101.879 -77.9,-179.707 -179.89,-179.707 -101.988,0 -179.894,77.828 -179.894,179.707 0,101.598 77.906,179.422 179.894,179.422 z m -179.894,0 0,0 z m 360.074,-359.41 0,0" /><g
         transform="scale(1.00053,0.99947)"
         id="g628"><path
           id="path630"
           style="fill:none;stroke:#010101;stroke-width:7.07753992;stroke-linecap:butt;stroke-linejoin:round;stroke-miterlimit:10;stroke-dasharray:none;stroke-opacity:1"
           d="m 902.401,942.605 c 101.929,0 179.799,-77.866 179.799,-179.799 0,-101.932 -77.87,-179.802 -179.799,-179.802 -101.934,0 -179.803,77.87 -179.803,179.802 0,101.933 77.869,179.799 179.803,179.799 z" /></g><g
         transform="scale(1.00053,0.99947)"
         id="g632"><path
           id="path634"
           style="fill:none;stroke:#010101;stroke-width:7.07753992;stroke-linecap:butt;stroke-linejoin:round;stroke-miterlimit:10;stroke-dasharray:none;stroke-opacity:1"
           d="m 722.598,942.605 0,0 z" /></g><g
         transform="scale(1.00053,0.99947)"
         id="g636"><path
           id="path638"
           style="fill:none;stroke:#010101;stroke-width:7.07753992;stroke-linecap:butt;stroke-linejoin:round;stroke-miterlimit:10;stroke-dasharray:none;stroke-opacity:1"
           d="m 1082.48,582.723 0,0 z" /></g><path
         id="path640"
         style="fill:#010101;fill-opacity:1;fill-rule:evenodd;stroke:none"
         d="m 888.996,686.273 0,10.473 -21.816,0 0,111.219 -3.399,0 c -3.117,-2.828 -11.613,-11.602 -31.164,-11.602 -2.265,0 -2.547,0 -2.547,-3.398 l 0,-7.356 c 11.047,0 19.262,2.829 22.946,4.243 l 0,-93.106 -21.813,0 0,-10.473 57.793,0" /><path
         id="path642"
         style="fill:#010101;fill-opacity:1;fill-rule:evenodd;stroke:none"
         d="m 981.918,723.066 c 0,22.356 -15.016,39.903 -33.145,39.903 -7.085,0 -13.882,-2.547 -18.984,-7.074 l 0,37.355 46.18,0 0,11.035 -58.926,0 0,-66.222 11.613,0 c 4.535,10.191 12.465,14.152 19.832,14.152 8.5,0 18.133,-7.641 18.133,-28.867 0,-22.922 -13.035,-29.996 -23.516,-29.996 -9.914,0 -21.812,5.375 -27.48,16.695 l -5.949,-9.621 c 11.898,-17.547 28.898,-17.547 33.715,-17.547 21.246,0 38.527,17.828 38.527,40.187" /></g></g></svg>