<?xml version="1.0" encoding="UTF-8" standalone="no"?>
<svg
   xmlns:dc="http://purl.org/dc/elements/1.1/"
   xmlns:cc="http://creativecommons.org/ns#"
   xmlns:rdf="http://www.w3.org/1999/02/22-rdf-syntax-ns#"
   xmlns:svg="http://www.w3.org/2000/svg"
   xmlns="http://www.w3.org/2000/svg"
   viewBox="0 0 235 262.5"
   height="262.5"
   width="235"
   xml:space="preserve"
   version="1.1"
   id="svg2"><metadata
     id="metadata8"><rdf:RDF><cc:Work
         rdf:about=""><dc:format>image/svg+xml</dc:format><dc:type
           rdf:resource="http://purl.org/dc/dcmitype/StillImage" /></cc:Work></rdf:RDF></metadata><defs
     id="defs6" /><g
     transform="matrix(1.25,0,0,-1.25,0,262.5)"
     id="g10"><g
       transform="scale(0.1,0.1)"
       id="g12"><g
         transform="scale(0.999119,1.00088)"
         id="g14"><path
           id="path16"
           style="fill:none;stroke:#010101;stroke-width:7.0917201;stroke-linecap:butt;stroke-linejoin:round;stroke-miterlimit:10;stroke-dasharray:none;stroke-opacity:1"
           d="M 760.166,1914.18 183.588,1337.6" /></g><g
         transform="scale(0.999119,1.00088)"
         id="g18"><path
           id="path20"
           style="fill:none;stroke:#010101;stroke-width:7.0917201;stroke-linecap:butt;stroke-linejoin:round;stroke-miterlimit:10;stroke-dasharray:none;stroke-opacity:1"
           d="M 543.948,761.302 183.588,1337.6" /></g><g
         transform="scale(0.999119,1.00088)"
         id="g22"><path
           id="path24"
           style="fill:none;stroke:#010101;stroke-width:7.0917201;stroke-linecap:butt;stroke-linejoin:round;stroke-miterlimit:10;stroke-dasharray:none;stroke-opacity:1"
           d="M 327.73,184.72 543.948,761.302" /></g><g
         transform="scale(0.999119,1.00088)"
         id="g26"><path
           id="path28"
           style="fill:none;stroke:#010101;stroke-width:7.0917201;stroke-linecap:butt;stroke-linejoin:round;stroke-miterlimit:10;stroke-dasharray:none;stroke-opacity:1"
           d="M 1336.46,1337.6 1725.2,761.302" /></g><g
         transform="scale(0.999119,1.00088)"
         id="g30"><path
           id="path32"
           style="fill:none;stroke:#010101;stroke-width:7.0917201;stroke-linecap:butt;stroke-linejoin:round;stroke-miterlimit:10;stroke-dasharray:none;stroke-opacity:1"
           d="M 760.166,1914.18 1336.46,1337.6" /></g><path
         id="path34"
         style="fill:#ffffff;fill-opacity:1;fill-rule:evenodd;stroke:none"
         d="m 759.496,2095.92 c 102.059,0 180.024,-78.1 180.024,-180.34 0,-102.24 -77.965,-180.34 -180.024,-180.34 -102.058,0 -180.023,78.1 -180.023,180.34 0,102.24 77.965,180.34 180.023,180.34 z m -180.023,0 0,0 z m 360.328,-360.96 0,0" /><g
         transform="scale(0.999119,1.00088)"
         id="g36"><path
           id="path38"
           style="fill:none;stroke:#010101;stroke-width:7.0917201;stroke-linecap:butt;stroke-linejoin:round;stroke-miterlimit:10;stroke-dasharray:none;stroke-opacity:1"
           d="m 760.166,2094.08 c 102.148,0 179.897,-78.04 179.897,-179.9 0,-102.15 -77.749,-180.18 -179.897,-180.18 -102.149,0 -180.182,78.03 -180.182,180.18 0,101.86 78.033,179.9 180.182,179.9 z" /></g><g
         transform="scale(0.999119,1.00088)"
         id="g40"><path
           id="path42"
           style="fill:none;stroke:#010101;stroke-width:7.0917201;stroke-linecap:butt;stroke-linejoin:round;stroke-miterlimit:10;stroke-dasharray:none;stroke-opacity:1"
           d="m 579.984,2094.08 0,0 z" /></g><g
         transform="scale(0.999119,1.00088)"
         id="g44"><path
           id="path46"
           style="fill:none;stroke:#010101;stroke-width:7.0917201;stroke-linecap:butt;stroke-linejoin:round;stroke-miterlimit:10;stroke-dasharray:none;stroke-opacity:1"
           d="m 940.348,1733.71 0,0 z" /></g><path
         id="path48"
         style="fill:#010101;fill-opacity:1;fill-rule:evenodd;stroke:none"
         d="m 745.32,1839.18 0,10.51 -21.828,0 0,111.61 -3.402,0 c -3.117,-2.84 -11.625,-11.64 -31.184,-11.64 -2.269,0 -2.554,0 -2.554,-3.41 l 0,-7.38 c 11.058,0 19.281,2.84 22.964,4.26 l 0,-93.44 -21.828,0 0,-10.51 57.832,0" /><path
         id="path50"
         style="fill:#010101;fill-opacity:1;fill-rule:evenodd;stroke:none"
         d="m 839.727,1898.26 c 0,11.92 -0.282,25.84 -5.102,38.62 -7.656,20.45 -21.832,24.42 -31.187,24.42 -11.907,0 -23.247,-5.96 -29.766,-20.16 -5.953,-12.78 -7.086,-27.55 -7.086,-42.88 0,-19.88 1.699,-30.96 7.367,-43.74 5.387,-11.93 17.012,-19.03 29.203,-19.03 11.907,0 23.246,6.53 29.199,19.03 6.239,12.78 7.372,25.84 7.372,43.74 z m -13.61,1.99 c 0,-11.37 0,-23.29 -3.117,-34.65 -4.82,-17.33 -15.023,-19.31 -19.562,-19.31 -23.247,0 -23.247,37.2 -23.247,53.96 0,11.92 0,22.71 3.403,33.22 4.254,12.78 12.191,17.04 19.562,17.04 22.961,0 22.961,-33.51 22.961,-50.26" /><path
         id="path52"
         style="fill:#ffffff;fill-opacity:1;fill-rule:evenodd;stroke:none"
         d="m 183.707,1518.83 c 102.063,0 180.023,-78.1 180.023,-180.05 0,-102.24 -77.96,-180.34 -180.023,-180.34 -102.0586,0 -180.02341,78.1 -180.02341,180.34 0,101.95 77.96481,180.05 180.02341,180.05 z m -180.02341,0 0,0 z m 360.33241,-360.68 0,0" /><g
         transform="scale(0.999119,1.00088)"
         id="g54"><path
           id="path56"
           style="fill:none;stroke:#010101;stroke-width:7.0917201;stroke-linecap:butt;stroke-linejoin:round;stroke-miterlimit:10;stroke-dasharray:none;stroke-opacity:1"
           d="m 183.588,1517.78 c 102.148,0 180.178,-78.03 180.178,-180.18 0,-102.15 -78.03,-180.18 -180.178,-180.18 -102.153,0 -180.18266,78.03 -180.18266,180.18 0,102.15 78.02966,180.18 180.18266,180.18 z" /></g><g
         transform="scale(0.999119,1.00088)"
         id="g58"><path
           id="path60"
           style="fill:none;stroke:#010101;stroke-width:7.0917201;stroke-linecap:butt;stroke-linejoin:round;stroke-miterlimit:10;stroke-dasharray:none;stroke-opacity:1"
           d="m 3.40534,1517.78 0,0 z" /></g><g
         transform="scale(0.999119,1.00088)"
         id="g62"><path
           id="path64"
           style="fill:none;stroke:#010101;stroke-width:7.0917201;stroke-linecap:butt;stroke-linejoin:round;stroke-miterlimit:10;stroke-dasharray:none;stroke-opacity:1"
           d="m 364.051,1157.13 0,0 z" /></g><path
         id="path66"
         style="fill:#010101;fill-opacity:1;fill-rule:evenodd;stroke:none"
         d="m 218.578,1299.3 c 0,22.43 -15.023,40.04 -33.168,40.04 -7.09,0 -13.894,-2.55 -18.996,-7.1 l 0,37.49 46.211,0 0,11.08 -58.969,0 0,-66.46 11.625,0 c 4.535,10.22 12.473,14.2 19.844,14.2 8.504,0 18.145,-7.67 18.145,-28.97 0,-23 -13.043,-30.1 -23.532,-30.1 -9.922,0 -21.828,5.4 -27.5,16.75 l -5.953,-9.65 c 11.906,-17.61 28.918,-17.61 33.738,-17.61 21.262,0 38.555,17.89 38.555,40.33" /><path
         id="path68"
         style="fill:#ffffff;fill-opacity:1;fill-rule:evenodd;stroke:none"
         d="m 327.727,365.223 c 102.058,0 179.738,-78.098 179.738,-180.34 0,-102.2385 -77.68,-180.34003 -179.738,-180.34003 -102.063,0 -180.024,78.10153 -180.024,180.34003 0,102.242 77.961,180.34 180.024,180.34 z m -180.024,0 0,0 z M 507.75,4.26172 l 0,0" /><g
         transform="scale(0.999119,1.00088)"
         id="g70"><path
           id="path72"
           style="fill:none;stroke:#010101;stroke-width:7.0917201;stroke-linecap:butt;stroke-linejoin:round;stroke-miterlimit:10;stroke-dasharray:none;stroke-opacity:1"
           d="m 327.73,364.901 c 102.153,0 180.182,-78.029 180.182,-180.181 C 507.912,82.5718 429.883,4.53897 327.73,4.53897 225.582,4.53897 147.552,82.5718 147.552,184.72 c 0,102.152 78.03,180.181 180.178,180.181 z" /></g><g
         transform="scale(0.999119,1.00088)"
         id="g74"><path
           id="path76"
           style="fill:none;stroke:#010101;stroke-width:7.0917201;stroke-linecap:butt;stroke-linejoin:round;stroke-miterlimit:10;stroke-dasharray:none;stroke-opacity:1"
           d="m 147.552,364.901 0,0 z" /></g><g
         transform="scale(0.999119,1.00088)"
         id="g78"><path
           id="path80"
           style="fill:none;stroke:#010101;stroke-width:7.0917201;stroke-linecap:butt;stroke-linejoin:round;stroke-miterlimit:10;stroke-dasharray:none;stroke-opacity:1"
           d="m 508.198,4.25797 0,0 z" /></g><path
         id="path82"
         style="fill:#010101;fill-opacity:1;fill-rule:evenodd;stroke:none"
         d="m 364.016,215.273 0,11.36 -73.145,0 0,-12.215 33.453,0 c 2.27,0 4.254,0.285 6.52,0.285 l 21.547,0 C 341.617,201.922 310.434,165.855 310.434,106.5 l 14.742,0 c 0,47.145 19.277,85.484 38.84,108.773" /><path
         id="path84"
         style="fill:#ffffff;fill-opacity:1;fill-rule:evenodd;stroke:none"
         d="m 543.469,942.027 c 102.062,0 180.023,-78.097 180.023,-180.339 0,-102.239 -77.961,-180.34 -180.023,-180.34 -101.778,0 -179.739,78.101 -179.739,180.34 0,102.242 77.961,180.339 179.739,180.339 z m -179.739,0 0,0 z m 360.047,-360.964 0,0" /><g
         transform="scale(0.999119,1.00088)"
         id="g86"><path
           id="path88"
           style="fill:none;stroke:#010101;stroke-width:7.0917201;stroke-linecap:butt;stroke-linejoin:round;stroke-miterlimit:10;stroke-dasharray:none;stroke-opacity:1"
           d="m 543.948,941.198 c 102.153,0 180.182,-77.748 180.182,-179.896 0,-102.152 -78.029,-180.181 -180.182,-180.181 -102.149,0 -180.182,78.029 -180.182,180.181 0,102.148 78.033,179.896 180.182,179.896 z" /></g><g
         transform="scale(0.999119,1.00088)"
         id="g90"><path
           id="path92"
           style="fill:none;stroke:#010101;stroke-width:7.0917201;stroke-linecap:butt;stroke-linejoin:round;stroke-miterlimit:10;stroke-dasharray:none;stroke-opacity:1"
           d="m 363.766,941.198 0,0 z" /></g><g
         transform="scale(0.999119,1.00088)"
         id="g94"><path
           id="path96"
           style="fill:none;stroke:#010101;stroke-width:7.0917201;stroke-linecap:butt;stroke-linejoin:round;stroke-miterlimit:10;stroke-dasharray:none;stroke-opacity:1"
           d="m 724.416,580.836 0,0 z" /></g><path
         id="path98"
         style="fill:#010101;fill-opacity:1;fill-rule:evenodd;stroke:none"
         d="m 579.758,745.785 c 0,49.133 -20.129,61.625 -36.004,61.625 -12.758,0 -20.414,-5.961 -26.649,-13.347 -8.789,-10.508 -10.207,-19.879 -10.207,-30.387 0,-23.289 11.907,-42.883 28.067,-42.883 13.324,0 23.246,6.246 30.051,14.766 -1.418,-25.274 -13.043,-43.168 -29.485,-43.168 -7.371,0 -13.039,2.273 -17.859,7.101 L 512,689.836 c 8.223,-6.246 15.594,-8.234 23.531,-8.234 22.68,0 44.227,24.707 44.227,64.183 z m -15.028,13.914 c 0,-13.914 -7.652,-28.113 -22.679,-28.113 -3.117,0 -11.055,0 -17.008,10.789 -3.402,6.531 -3.969,11.645 -3.969,21.301 0,7.953 0,15.621 5.668,23.855 2.551,3.977 7.371,9.657 17.012,9.657 17.293,0 20.41,-24.422 20.976,-33.227 0,-1.137 0,-3.125 0,-4.262" /><g
         transform="scale(0.999119,1.00088)"
         id="g100"><path
           id="path102"
           style="fill:none;stroke:#010101;stroke-width:7.0917201;stroke-linecap:butt;stroke-linejoin:round;stroke-miterlimit:10;stroke-dasharray:none;stroke-opacity:1"
           d="M 1336.46,1337.6 1128.19,761.302" /></g><g
         transform="scale(0.999119,1.00088)"
         id="g104"><path
           id="path106"
           style="fill:none;stroke:#010101;stroke-width:7.0917201;stroke-linecap:butt;stroke-linejoin:round;stroke-miterlimit:10;stroke-dasharray:none;stroke-opacity:1"
           d="M 1696.82,761.302 1571.97,184.439" /></g><path
         id="path108"
         style="fill:#ffffff;fill-opacity:1;fill-rule:evenodd;stroke:none"
         d="m 1335.57,1518.83 c 101.77,0 179.74,-78.1 179.74,-180.05 0,-102.24 -77.97,-180.34 -179.74,-180.34 -102.06,0 -180.02,78.1 -180.02,180.34 0,101.95 77.96,180.05 180.02,180.05 z m -180.02,0 0,0 z m 360.04,-360.68 0,0" /><g
         transform="scale(0.999119,1.00088)"
         id="g110"><path
           id="path112"
           style="fill:none;stroke:#010101;stroke-width:7.0917201;stroke-linecap:butt;stroke-linejoin:round;stroke-miterlimit:10;stroke-dasharray:none;stroke-opacity:1"
           d="m 1336.46,1517.78 c 102.15,0 180.18,-78.03 180.18,-180.18 0,-102.15 -78.03,-180.18 -180.18,-180.18 -102.15,0 -180.18,78.03 -180.18,180.18 0,102.15 78.03,180.18 180.18,180.18 z" /></g><g
         transform="scale(0.999119,1.00088)"
         id="g114"><path
           id="path116"
           style="fill:none;stroke:#010101;stroke-width:7.0917201;stroke-linecap:butt;stroke-linejoin:round;stroke-miterlimit:10;stroke-dasharray:none;stroke-opacity:1"
           d="m 1156.28,1517.78 0,0 z" /></g><g
         transform="scale(0.999119,1.00088)"
         id="g118"><path
           id="path120"
           style="fill:none;stroke:#010101;stroke-width:7.0917201;stroke-linecap:butt;stroke-linejoin:round;stroke-miterlimit:10;stroke-dasharray:none;stroke-opacity:1"
           d="m 1516.93,1157.13 0,0 z" /></g><path
         id="path122"
         style="fill:#010101;fill-opacity:1;fill-rule:evenodd;stroke:none"
         d="m 1321.39,1262.38 0,10.51 -21.83,0 0,111.61 -3.4,0 c -3.12,-2.84 -11.62,-11.64 -31.18,-11.64 -2.27,0 -2.55,0 -2.55,-3.41 l 0,-7.39 c 11.05,0 19.27,2.84 22.96,4.26 l 0,-93.43 -21.83,0 0,-10.51 57.83,0" /><path
         id="path124"
         style="fill:#010101;fill-opacity:1;fill-rule:evenodd;stroke:none"
         d="m 1414.38,1299.3 c 0,22.43 -15.02,40.04 -33.17,40.04 -7.08,0 -13.89,-2.55 -18.99,-7.1 l 0,37.49 46.21,0 0,11.08 -58.97,0 0,-66.46 11.62,0 c 4.54,10.22 12.48,14.2 19.85,14.2 8.5,0 18.14,-7.67 18.14,-28.97 0,-23 -13.04,-30.1 -23.53,-30.1 -9.92,0 -21.83,5.4 -27.5,16.75 l -5.95,-9.65 c 11.91,-17.61 28.92,-17.61 33.73,-17.61 21.27,0 38.56,17.89 38.56,40.33" /><path
         id="path126"
         style="fill:#ffffff;fill-opacity:1;fill-rule:evenodd;stroke:none"
         d="m 1127.48,942.027 c 102.06,0 180.02,-78.097 180.02,-180.339 0,-102.239 -77.96,-180.34 -180.02,-180.34 -102.06,0 -180.023,78.101 -180.023,180.34 0,102.242 77.963,180.339 180.023,180.339 z m -180.023,0 0,0 z m 360.333,-360.964 0,0" /><g
         transform="scale(0.999119,1.00088)"
         id="g128"><path
           id="path130"
           style="fill:none;stroke:#010101;stroke-width:7.0917201;stroke-linecap:butt;stroke-linejoin:round;stroke-miterlimit:10;stroke-dasharray:none;stroke-opacity:1"
           d="m 1128.19,941.198 c 102.15,0 180.18,-77.748 180.18,-179.896 0,-102.152 -78.03,-180.181 -180.18,-180.181 -102.15,0 -180.183,78.029 -180.183,180.181 0,102.148 78.033,179.896 180.183,179.896 z" /></g><g
         transform="scale(0.999119,1.00088)"
         id="g132"><path
           id="path134"
           style="fill:none;stroke:#010101;stroke-width:7.0917201;stroke-linecap:butt;stroke-linejoin:round;stroke-miterlimit:10;stroke-dasharray:none;stroke-opacity:1"
           d="m 948.007,941.198 0,0 z" /></g><g
         transform="scale(0.999119,1.00088)"
         id="g136"><path
           id="path138"
           style="fill:none;stroke:#010101;stroke-width:7.0917201;stroke-linecap:butt;stroke-linejoin:round;stroke-miterlimit:10;stroke-dasharray:none;stroke-opacity:1"
           d="m 1308.66,580.836 0,0 z" /></g><path
         id="path140"
         style="fill:#010101;fill-opacity:1;fill-rule:evenodd;stroke:none"
         d="m 1113.3,685.293 0,10.508 -21.82,0 0,111.609 -3.41,0 c -3.12,-2.84 -11.62,-11.64 -31.18,-11.64 -2.27,0 -2.55,0 -2.55,-3.411 l 0,-7.382 c 11.05,0 19.27,2.839 22.96,4.257 l 0,-93.433 -21.83,0 0,-10.508 57.83,0" /><path
         id="path142"
         style="fill:#010101;fill-opacity:1;fill-rule:evenodd;stroke:none"
         d="m 1206.29,685.293 0,12.211 -32.03,0 c -1.99,0 -4.26,0 -6.24,0 l -19.28,0 c 4.54,4.828 21.26,21.301 32.89,31.809 13.32,11.925 24.66,23.003 24.66,39.757 0,19.883 -13.61,38.34 -37.42,38.34 -19.56,0 -29.48,-12.777 -34.3,-29.535 5.67,-7.383 5.67,-7.668 7.37,-9.937 4.53,19.308 11.06,28.398 24.38,28.398 15.59,0 25.8,-12.211 25.8,-27.832 0,-9.371 -3.97,-19.879 -15.88,-31.809 l -40.26,-40.043 0,-11.359 70.31,0" /><path
         id="path144"
         style="fill:#ffffff;fill-opacity:1;fill-rule:evenodd;stroke:none"
         d="m 1695.33,942.027 c 102.06,0 180.02,-78.097 180.02,-180.339 0,-102.239 -77.96,-180.34 -180.02,-180.34 -102.06,0 -180.02,78.101 -180.02,180.34 0,102.242 77.96,180.339 180.02,180.339 z m -180.02,0 0,0 z m 360.33,-360.964 0,0" /><g
         transform="scale(0.999119,1.00088)"
         id="g146"><path
           id="path148"
           style="fill:none;stroke:#010101;stroke-width:7.0917201;stroke-linecap:butt;stroke-linejoin:round;stroke-miterlimit:10;stroke-dasharray:none;stroke-opacity:1"
           d="m 1696.82,941.198 c 102.16,0 179.9,-77.748 179.9,-179.896 0,-102.152 -77.74,-180.181 -179.9,-180.181 -102.15,0 -180.18,78.029 -180.18,180.181 0,102.148 78.03,179.896 180.18,179.896 z" /></g><g
         transform="scale(0.999119,1.00088)"
         id="g150"><path
           id="path152"
           style="fill:none;stroke:#010101;stroke-width:7.0917201;stroke-linecap:butt;stroke-linejoin:round;stroke-miterlimit:10;stroke-dasharray:none;stroke-opacity:1"
           d="m 1516.64,941.198 0,0 z" /></g><g
         transform="scale(0.999119,1.00088)"
         id="g154"><path
           id="path156"
           style="fill:none;stroke:#010101;stroke-width:7.0917201;stroke-linecap:butt;stroke-linejoin:round;stroke-miterlimit:10;stroke-dasharray:none;stroke-opacity:1"
           d="m 1877.01,580.836 0,0 z" /></g><path
         id="path158"
         style="fill:#010101;fill-opacity:1;fill-rule:evenodd;stroke:none"
         d="m 1681.16,685.293 0,10.508 -21.84,0 0,111.609 -3.4,0 c -3.12,-2.84 -11.62,-11.64 -31.18,-11.64 -2.27,0 -2.55,0 -2.55,-3.411 l 0,-7.382 c 11.05,0 19.27,2.839 22.96,4.257 l 0,-93.433 -21.83,0 0,-10.508 57.84,0" /><path
         id="path160"
         style="fill:#010101;fill-opacity:1;fill-rule:evenodd;stroke:none"
         d="m 1775.56,717.953 c 0,14.485 -9.64,26.695 -24.38,31.524 11.34,3.406 22.11,13.347 22.11,26.695 0,17.039 -15.02,31.238 -34.02,31.238 -19.84,0 -34.59,-14.765 -34.59,-31.238 0,-13.633 11.06,-23.57 22.12,-26.695 -14.46,-4.829 -24.38,-17.039 -24.38,-31.524 0,-19.312 16.16,-36.351 36.57,-36.351 21.26,0 36.57,17.324 36.57,36.351 z m -14.74,57.934 c 0,-11.926 -8.22,-21.016 -21.55,-21.016 -14.46,0 -22.11,9.656 -22.11,21.016 0,13.633 9.64,21.301 21.83,21.301 13.04,0 21.83,-8.235 21.83,-21.301 z m 0.57,-57.653 c 0,-17.605 -10.78,-25.843 -22.12,-25.843 -12.19,0 -22.68,8.804 -22.68,25.843 0,19.313 13.04,25.844 22.4,25.844 10.21,0 22.4,-7.098 22.4,-25.844" /><path
         id="path162"
         style="fill:#ffffff;fill-opacity:1;fill-rule:evenodd;stroke:none"
         d="m 1570.59,364.941 c 102.06,0 180.02,-78.101 180.02,-180.339 0,-102.2426 -77.96,-180.34028 -180.02,-180.34028 -102.06,0 -180.02,78.09768 -180.02,180.34028 0,102.238 77.96,180.339 180.02,180.339 z m -180.02,0 0,0 z m 360.32,-360.96444 0,0" /><g
         transform="scale(0.999119,1.00088)"
         id="g164"><path
           id="path166"
           style="fill:none;stroke:#010101;stroke-width:7.0917201;stroke-linecap:butt;stroke-linejoin:round;stroke-miterlimit:10;stroke-dasharray:none;stroke-opacity:1"
           d="m 1571.97,364.62 c 102.15,0 180.19,-78.033 180.19,-180.181 0,-102.1521 -78.04,-180.18103 -180.19,-180.18103 -102.14,0 -180.18,78.02893 -180.18,180.18103 0,102.148 78.04,180.181 180.18,180.181 z" /></g><g
         transform="scale(0.999119,1.00088)"
         id="g168"><path
           id="path170"
           style="fill:none;stroke:#010101;stroke-width:7.0917201;stroke-linecap:butt;stroke-linejoin:round;stroke-miterlimit:10;stroke-dasharray:none;stroke-opacity:1"
           d="m 1391.79,364.62 0,0 z" /></g><g
         transform="scale(0.999119,1.00088)"
         id="g172"><path
           id="path174"
           style="fill:none;stroke:#010101;stroke-width:7.0917201;stroke-linecap:butt;stroke-linejoin:round;stroke-miterlimit:10;stroke-dasharray:none;stroke-opacity:1"
           d="m 1752.44,3.97306 0,0 z" /></g><path
         id="path176"
         style="fill:#010101;fill-opacity:1;fill-rule:evenodd;stroke:none"
         d="m 1556.41,108.203 0,10.508 -21.82,0 0,111.613 -3.41,0 c -3.11,-2.84 -11.62,-11.644 -31.18,-11.644 -2.27,0 -2.55,0 -2.55,-3.407 l 0,-7.386 c 11.05,0 19.28,2.84 22.96,4.261 l 0,-93.437 -21.83,0 0,-10.508 57.83,0" /><path
         id="path178"
         style="fill:#010101;fill-opacity:1;fill-rule:evenodd;stroke:none"
         d="m 1650.82,214.988 0,11.36 -73.14,0 0,-12.211 33.45,0 c 2.27,0 4.25,0.285 6.52,0.285 l 21.55,0 c -10.77,-12.781 -41.96,-48.852 -41.96,-108.207 l 14.74,0 c 0,47.144 19.28,85.484 38.84,108.773" /></g></g></svg>