<?xml version="1.0" encoding="UTF-8" standalone="no"?>
<svg
   xmlns:dc="http://purl.org/dc/elements/1.1/"
   xmlns:cc="http://creativecommons.org/ns#"
   xmlns:rdf="http://www.w3.org/1999/02/22-rdf-syntax-ns#"
   xmlns:svg="http://www.w3.org/2000/svg"
   xmlns="http://www.w3.org/2000/svg"
   viewBox="0 0 736.25 397.5"
   height="397.5"
   width="736.25"
   xml:space="preserve"
   version="1.1"
   id="svg2"><metadata
     id="metadata8"><rdf:RDF><cc:Work
         rdf:about=""><dc:format>image/svg+xml</dc:format><dc:type
           rdf:resource="http://purl.org/dc/dcmitype/StillImage" /></cc:Work></rdf:RDF></metadata><defs
     id="defs6" /><g
     transform="matrix(1.25,0,0,-1.25,0,397.5)"
     id="g10"><g
       transform="scale(0.1,0.1)"
       id="g12"><path
         id="path14"
         style="fill:#ffffff;fill-opacity:1;fill-rule:evenodd;stroke:none"
         d="m 1731.62,2887.83 -288.04,0 0,288.44 576.07,0 0,-288.44 -288.03,0" /><g
         transform="scale(0.999295,1.00071)"
         id="g16"><path
           id="path18"
           style="fill:none;stroke:#010101;stroke-width:7.09151983;stroke-linecap:butt;stroke-linejoin:round;stroke-miterlimit:10;stroke-dasharray:none;stroke-opacity:1"
           d="m 1732.84,2886.08 -288.24,0 0,288.24 576.48,0 0,-288.24 -288.24,0 z" /></g><path
         id="path20"
         style="fill:#010101;fill-opacity:1;fill-rule:evenodd;stroke:none"
         d="m 1721.98,2955.68 0,12.21 -32.03,0 c -1.99,0 -4.26,0 -6.24,0 l -19.28,0 c 4.53,4.83 21.26,21.29 32.89,31.8 13.32,11.92 24.66,22.99 24.66,39.74 0,19.87 -13.61,38.33 -37.42,38.33 -19.56,0 -29.49,-12.78 -34.31,-29.53 5.67,-7.38 5.67,-7.66 7.38,-9.93 4.53,19.3 11.05,28.39 24.37,28.39 15.6,0 25.8,-12.21 25.8,-27.82 0,-9.37 -3.96,-19.88 -15.87,-31.8 l -40.26,-40.03 0,-11.36 70.31,0" /><path
         id="path22"
         style="fill:#010101;fill-opacity:1;fill-rule:evenodd;stroke:none"
         d="m 1812.13,3014.73 c 0,11.93 -0.28,25.84 -5.1,38.61 -7.65,20.45 -21.83,24.42 -31.19,24.42 -11.9,0 -23.24,-5.96 -29.76,-20.16 -5.96,-12.77 -7.09,-27.53 -7.09,-42.87 0,-19.87 1.7,-30.94 7.37,-43.72 5.39,-11.92 17.01,-19.02 29.2,-19.02 11.91,0 23.25,6.53 29.2,19.02 6.24,12.78 7.37,25.84 7.37,43.72 z m -13.61,1.99 c 0,-11.35 0,-23.28 -3.11,-34.63 -4.82,-17.32 -15.03,-19.31 -19.57,-19.31 -23.24,0 -23.24,37.19 -23.24,53.94 0,11.92 0,22.71 3.4,33.22 4.25,12.77 12.19,17.03 19.56,17.03 22.96,0 22.96,-33.5 22.96,-50.25" /><path
         id="path24"
         style="fill:#ffffff;fill-opacity:1;fill-rule:evenodd;stroke:none"
         d="m 1587.6,2599.67 -144.02,0 0,288.16 288.04,0 0,-288.16 -144.02,0" /><g
         transform="scale(0.999295,1.00071)"
         id="g26"><path
           id="path28"
           style="fill:none;stroke:#010101;stroke-width:7.09151983;stroke-linecap:butt;stroke-linejoin:round;stroke-miterlimit:10;stroke-dasharray:none;stroke-opacity:1"
           d="m 1588.72,2597.84 -144.12,0 0,288.24 288.24,0 0,-288.24 -144.12,0 z" /></g><path
         id="path30"
         style="fill:#ffffff;fill-opacity:1;fill-rule:evenodd;stroke:none"
         d="m 2595.73,2022.79 -288.04,0 0,288.44 576.07,0 0,-288.44 -288.03,0" /><g
         transform="scale(0.999295,1.00071)"
         id="g32"><path
           id="path34"
           style="fill:none;stroke:#010101;stroke-width:7.09151983;stroke-linecap:butt;stroke-linejoin:round;stroke-miterlimit:10;stroke-dasharray:none;stroke-opacity:1"
           d="m 2597.27,2021.36 -287.95,0 0,288.24 576.19,0 0,-288.24 -288.24,0 z" /></g><path
         id="path36"
         style="fill:#010101;fill-opacity:1;fill-rule:evenodd;stroke:none"
         d="m 2587.5,2123.29 c 0,13.91 -9.07,26.12 -24.37,31.23 12.75,7.09 19.55,19.02 19.55,30.94 0,15.62 -14.45,27.25 -32.03,27.25 -14.18,0 -27.22,-7.94 -34.02,-19.87 l 6.52,-9.65 c 4.25,11.64 15.31,19.31 27.5,19.31 9.07,0 17.86,-5.11 17.86,-17.04 0,-11.92 -8.51,-21.86 -18.14,-24.13 -0.85,-0.28 -12.19,-1.13 -13.9,-1.13 l 0,-11.07 12.76,0 c 18.43,0 22.97,-15.9 22.97,-25.84 0,-14.48 -8.79,-25.55 -21.83,-25.55 -11.63,0 -25.8,5.96 -34.02,18.74 l -1.99,-10.51 c 11.62,-16.18 27.5,-19.02 36.29,-19.02 21.26,0 36.85,17.03 36.85,36.34" /><path
         id="path38"
         style="fill:#010101;fill-opacity:1;fill-rule:evenodd;stroke:none"
         d="m 2676.24,2149.69 c 0,11.92 -0.28,25.84 -5.1,38.61 -7.66,20.44 -21.83,24.41 -31.19,24.41 -11.9,0 -23.24,-5.96 -29.77,-20.15 -5.95,-12.77 -7.08,-27.54 -7.08,-42.87 0,-19.87 1.7,-30.94 7.37,-43.72 5.39,-11.92 17.01,-19.02 29.2,-19.02 11.9,0 23.24,6.53 29.2,19.02 6.24,12.78 7.37,25.83 7.37,43.72 z m -13.61,1.99 c 0,-11.36 0,-23.28 -3.12,-34.64 -4.81,-17.32 -15.02,-19.3 -19.56,-19.3 -23.24,0 -23.24,37.19 -23.24,53.94 0,11.92 0,22.71 3.4,33.21 4.25,12.78 12.19,17.04 19.56,17.04 22.96,0 22.96,-33.5 22.96,-50.25" /><path
         id="path40"
         style="fill:#ffffff;fill-opacity:1;fill-rule:evenodd;stroke:none"
         d="m 867.793,2022.79 -288.035,0 0,288.44 575.792,0 0,-288.44 -287.757,0" /><g
         transform="scale(0.999295,1.00071)"
         id="g42"><path
           id="path44"
           style="fill:none;stroke:#010101;stroke-width:7.09151983;stroke-linecap:butt;stroke-linejoin:round;stroke-miterlimit:10;stroke-dasharray:none;stroke-opacity:1"
           d="m 868.124,2021.36 -288.243,0 0,288.24 576.479,0 0,-288.24 -288.236,0 z" /></g><path
         id="path46"
         style="fill:#010101;fill-opacity:1;fill-rule:evenodd;stroke:none"
         d="m 853.902,2090.64 0,10.5 -21.828,0 0,111.57 -3.402,0 c -3.121,-2.83 -11.625,-11.63 -31.188,-11.63 -2.265,0 -2.55,0 -2.55,-3.41 l 0,-7.38 c 11.058,0 19.277,2.84 22.964,4.26 l 0,-93.41 -21.832,0 0,-10.5 57.836,0" /><path
         id="path48"
         style="fill:#010101;fill-opacity:1;fill-rule:evenodd;stroke:none"
         d="m 948.309,2149.69 c 0,11.92 -0.286,25.84 -5.106,38.61 -7.652,20.44 -21.828,24.41 -31.183,24.41 -11.907,0 -23.247,-5.96 -29.766,-20.15 -5.957,-12.77 -7.09,-27.54 -7.09,-42.87 0,-19.87 1.703,-30.94 7.371,-43.72 5.387,-11.92 17.012,-19.02 29.199,-19.02 11.911,0 23.25,6.53 29.204,19.02 6.234,12.78 7.371,25.83 7.371,43.72 z m -13.61,1.99 c 0,-11.36 0,-23.28 -3.117,-34.64 -4.82,-17.32 -15.027,-19.3 -19.562,-19.3 -23.247,0 -23.247,37.19 -23.247,53.94 0,11.92 0,22.71 3.403,33.21 4.25,12.78 12.187,17.04 19.558,17.04 22.965,0 22.965,-33.5 22.965,-50.25" /><path
         id="path50"
         style="fill:#ffffff;fill-opacity:1;fill-rule:evenodd;stroke:none"
         d="m 1443.58,1157.46 -288.03,0 0,288.44 576.07,0 0,-288.44 -288.04,0" /><g
         transform="scale(0.999295,1.00071)"
         id="g52"><path
           id="path54"
           style="fill:none;stroke:#010101;stroke-width:7.09151983;stroke-linecap:butt;stroke-linejoin:round;stroke-miterlimit:10;stroke-dasharray:none;stroke-opacity:1"
           d="m 1444.6,1156.93 -288.24,0 0,288.24 576.48,0 0,-288.24 -288.24,0 z" /></g><path
         id="path56"
         style="fill:#010101;fill-opacity:1;fill-rule:evenodd;stroke:none"
         d="m 1429.69,1225.31 0,10.51 -21.83,0 0,111.57 -3.4,0 c -3.12,-2.84 -11.62,-11.64 -31.19,-11.64 -2.26,0 -2.55,0 -2.55,-3.41 l 0,-7.38 c 11.06,0 19.28,2.84 22.97,4.26 l 0,-93.4 -21.83,0 0,-10.51 57.83,0" /><path
         id="path58"
         style="fill:#010101;fill-opacity:1;fill-rule:evenodd;stroke:none"
         d="m 1522.68,1262.22 c 0,22.43 -15.03,40.03 -33.17,40.03 -7.09,0 -13.89,-2.55 -18.99,-7.1 l 0,37.48 46.21,0 0,11.07 -58.97,0 0,-66.43 11.62,0 c 4.54,10.22 12.48,14.19 19.85,14.19 8.5,0 18.14,-7.66 18.14,-28.96 0,-22.99 -13.04,-30.09 -23.53,-30.09 -9.92,0 -21.83,5.39 -27.5,16.75 l -5.95,-9.65 c 11.9,-17.6 28.91,-17.6 33.73,-17.6 21.27,0 38.56,17.88 38.56,40.31" /><path
         id="path60"
         style="fill:#ffffff;fill-opacity:1;fill-rule:evenodd;stroke:none"
         d="m 291.723,1157.46 -288.03941,0 0,288.44 576.07441,0 0,-288.44 -288.035,0" /><g
         transform="scale(0.999295,1.00071)"
         id="g62"><path
           id="path64"
           style="fill:none;stroke:#010101;stroke-width:7.09151983;stroke-linecap:butt;stroke-linejoin:round;stroke-miterlimit:10;stroke-dasharray:none;stroke-opacity:1"
           d="m 291.643,1156.93 -288.23826,0 0,288.24 576.47626,0 0,-288.24 -288.238,0 z" /></g><path
         id="path66"
         style="fill:#010101;fill-opacity:1;fill-rule:evenodd;stroke:none"
         d="m 328.008,1332.06 0,11.35 -73.141,0 0,-12.2 33.453,0 c 2.266,0 4.25,0.28 6.52,0.28 l 21.547,0 c -10.774,-12.78 -41.957,-48.83 -41.957,-108.17 l 14.742,0 c 0,47.13 19.277,85.46 38.836,108.74" /><path
         id="path68"
         style="fill:#ffffff;fill-opacity:1;fill-rule:evenodd;stroke:none"
         d="m 1011.81,292.418 -288.033,0 0,288.441 575.783,0 0,-288.441 -287.75,0" /><g
         transform="scale(0.999295,1.00071)"
         id="g70"><path
           id="path72"
           style="fill:none;stroke:#010101;stroke-width:7.09151983;stroke-linecap:butt;stroke-linejoin:round;stroke-miterlimit:10;stroke-dasharray:none;stroke-opacity:1"
           d="m 1012.24,292.212 -288.237,0 0,288.238 576.477,0 0,-288.238 -288.24,0 z" /></g><path
         id="path74"
         style="fill:#010101;fill-opacity:1;fill-rule:evenodd;stroke:none"
         d="m 997.922,360.27 0,10.503 -21.832,0 0,111.575 -3.402,0 c -3.118,-2.84 -11.622,-11.641 -31.184,-11.641 -2.27,0 -2.551,0 -2.551,-3.406 l 0,-7.383 c 11.055,0 19.277,2.84 22.961,4.258 l 0,-93.403 -21.828,0 0,-10.503 57.836,0" /><path
         id="path76"
         style="fill:#010101;fill-opacity:1;fill-rule:evenodd;stroke:none"
         d="m 1090.91,360.27 0,12.207 -32.04,0 c -1.98,0 -4.25,0 -6.23,0 l -19.28,0 c 4.53,4.828 21.26,21.293 32.88,31.796 13.33,11.926 24.67,22.997 24.67,39.747 0,19.871 -13.61,38.328 -37.43,38.328 -19.55,0 -29.48,-12.778 -34.3,-29.528 5.67,-7.382 5.67,-7.664 7.37,-9.937 4.54,19.305 11.06,28.39 24.38,28.39 15.6,0 25.8,-12.207 25.8,-27.82 0,-9.371 -3.96,-19.875 -15.87,-31.797 l -40.26,-40.031 0,-11.355 70.31,0" /><g
         transform="scale(0.999295,1.00071)"
         id="g78"><path
           id="path80"
           style="fill:none;stroke:#010101;stroke-width:7.3762002;stroke-linecap:butt;stroke-linejoin:round;stroke-miterlimit:10;stroke-dasharray:none;stroke-opacity:1"
           d="M 1554.11,2720.97 939.33,2352.16" /></g><path
         id="path82"
         style="fill:#010101;fill-opacity:1;fill-rule:evenodd;stroke:none"
         d="m 1549.04,2725.16 -1.13,3.69 -0.28,4.54 0.57,4.26 1.69,4.26 2.27,3.69 2.84,2.84 3.12,2.55 3.68,1.71 3.97,1.13 4.25,0.28 4.26,-0.56 4.25,-1.71 3.68,-2.27 3.12,-2.84 2.27,-3.12 1.7,-3.69 1.13,-3.97 0.29,-4.26 -0.57,-4.55 -1.7,-3.97 -2.27,-3.69 -2.83,-3.12 -3.12,-2.27 -3.69,-1.71 -3.97,-1.13 -4.25,-0.29 -4.53,0.57 -3.97,1.7 -3.69,2.27 -3.12,2.84 -2.26,3.12 -1.71,3.7" /><path
         id="path84"
         style="fill:#010101;fill-opacity:1;fill-rule:evenodd;stroke:none"
         d="m 867.793,2311.23 88.734,19.87 -29.48,49.4 -59.254,-69.27" /><path
         id="path86"
         style="fill:#ffffff;fill-opacity:1;fill-rule:evenodd;stroke:none"
         d="m 1875.64,2599.67 -144.02,0 0,288.16 288.03,0 0,-288.16 -144.01,0" /><g
         transform="scale(0.999295,1.00071)"
         id="g88"><path
           id="path90"
           style="fill:none;stroke:#010101;stroke-width:7.09151983;stroke-linecap:butt;stroke-linejoin:round;stroke-miterlimit:10;stroke-dasharray:none;stroke-opacity:1"
           d="m 1876.96,2597.84 -144.12,0 0,288.24 288.24,0 0,-288.24 -144.12,0 z" /></g><path
         id="path92"
         style="fill:#ffffff;fill-opacity:1;fill-rule:evenodd;stroke:none"
         d="m 1011.81,1734.34 -144.017,0 0,288.45 287.757,0 0,-288.45 -143.74,0" /><g
         transform="scale(0.999295,1.00071)"
         id="g94"><path
           id="path96"
           style="fill:none;stroke:#010101;stroke-width:7.09151983;stroke-linecap:butt;stroke-linejoin:round;stroke-miterlimit:10;stroke-dasharray:none;stroke-opacity:1"
           d="m 1012.24,1733.41 -144.116,0 0,287.95 288.236,0 0,-287.95 -144.12,0 z" /></g><path
         id="path98"
         style="fill:#ffffff;fill-opacity:1;fill-rule:evenodd;stroke:none"
         d="m 723.777,1734.34 -144.019,0 0,288.45 288.035,0 0,-288.45 -144.016,0" /><g
         transform="scale(0.999295,1.00071)"
         id="g100"><path
           id="path102"
           style="fill:none;stroke:#010101;stroke-width:7.09151983;stroke-linecap:butt;stroke-linejoin:round;stroke-miterlimit:10;stroke-dasharray:none;stroke-opacity:1"
           d="m 724.003,1733.41 -144.122,0 0,287.95 288.243,0 0,-287.95 -144.121,0 z" /></g><path
         id="path104"
         style="fill:#ffffff;fill-opacity:1;fill-rule:evenodd;stroke:none"
         d="m 435.738,869.301 -144.015,0 0,288.159 288.035,0 0,-288.159 -144.02,0" /><g
         transform="scale(0.999295,1.00071)"
         id="g106"><path
           id="path108"
           style="fill:none;stroke:#010101;stroke-width:7.09151983;stroke-linecap:butt;stroke-linejoin:round;stroke-miterlimit:10;stroke-dasharray:none;stroke-opacity:1"
           d="m 435.764,868.688 -144.121,0 0,288.242 288.238,0 0,-288.242 -144.117,0 z" /></g><path
         id="path110"
         style="fill:#ffffff;fill-opacity:1;fill-rule:evenodd;stroke:none"
         d="m 147.703,869.301 -144.01941,0 0,288.159 288.03941,0 0,-288.159 -144.02,0" /><g
         transform="scale(0.999295,1.00071)"
         id="g112"><path
           id="path114"
           style="fill:none;stroke:#010101;stroke-width:7.09151983;stroke-linecap:butt;stroke-linejoin:round;stroke-miterlimit:10;stroke-dasharray:none;stroke-opacity:1"
           d="m 147.526,868.688 -144.12126,0 0,288.242 288.23826,0 0,-288.242 -144.117,0 z" /></g><path
         id="path116"
         style="fill:#ffffff;fill-opacity:1;fill-rule:evenodd;stroke:none"
         d="m 1155.55,3.97656 -143.74,0 0,288.44144 287.75,0 0,-288.44144 -144.01,0" /><g
         transform="scale(0.999295,1.00071)"
         id="g118"><path
           id="path120"
           style="fill:none;stroke:#010101;stroke-width:7.09151983;stroke-linecap:butt;stroke-linejoin:round;stroke-miterlimit:10;stroke-dasharray:none;stroke-opacity:1"
           d="m 1156.36,4.25481 -144.12,0 0,287.95719 288.24,0 0,-287.95719 -144.12,0 z" /></g><path
         id="path122"
         style="fill:#ffffff;fill-opacity:1;fill-rule:evenodd;stroke:none"
         d="m 867.793,3.97656 -144.016,0 0,288.44144 288.033,0 0,-288.44144 -144.017,0" /><g
         transform="scale(0.999295,1.00071)"
         id="g124"><path
           id="path126"
           style="fill:none;stroke:#010101;stroke-width:7.09151983;stroke-linecap:butt;stroke-linejoin:round;stroke-miterlimit:10;stroke-dasharray:none;stroke-opacity:1"
           d="m 868.124,4.25481 -144.121,0 0,287.95719 288.237,0 0,-287.95719 -144.116,0 z" /></g><path
         id="path128"
         style="fill:#ffffff;fill-opacity:1;fill-rule:evenodd;stroke:none"
         d="m 1587.6,869.301 -144.02,0 0,288.159 288.04,0 0,-288.159 -144.02,0" /><g
         transform="scale(0.999295,1.00071)"
         id="g130"><path
           id="path132"
           style="fill:none;stroke:#010101;stroke-width:7.09151983;stroke-linecap:butt;stroke-linejoin:round;stroke-miterlimit:10;stroke-dasharray:none;stroke-opacity:1"
           d="m 1588.72,868.688 -144.12,0 0,288.242 288.24,0 0,-288.242 -144.12,0 z" /></g><path
         id="path134"
         style="fill:#ffffff;fill-opacity:1;fill-rule:evenodd;stroke:none"
         d="m 1299.56,869.301 -144.01,0 0,288.159 288.03,0 0,-288.159 -144.02,0" /><g
         transform="scale(0.999295,1.00071)"
         id="g136"><path
           id="path138"
           style="fill:none;stroke:#010101;stroke-width:7.09151983;stroke-linecap:butt;stroke-linejoin:round;stroke-miterlimit:10;stroke-dasharray:none;stroke-opacity:1"
           d="m 1300.48,868.688 -144.12,0 0,288.242 288.24,0 0,-288.242 -144.12,0 z" /></g><path
         id="path140"
         style="fill:#ffffff;fill-opacity:1;fill-rule:evenodd;stroke:none"
         d="m 2739.74,1734.34 -144.01,0 0,288.45 288.03,0 0,-288.45 -144.02,0" /><g
         transform="scale(0.999295,1.00071)"
         id="g142"><path
           id="path144"
           style="fill:none;stroke:#010101;stroke-width:7.09151983;stroke-linecap:butt;stroke-linejoin:round;stroke-miterlimit:10;stroke-dasharray:none;stroke-opacity:1"
           d="m 2741.39,1733.41 -144.12,0 0,287.95 288.24,0 0,-287.95 -144.12,0 z" /></g><path
         id="path146"
         style="fill:#ffffff;fill-opacity:1;fill-rule:evenodd;stroke:none"
         d="m 2451.71,1734.34 -144.02,0 0,288.45 288.04,0 0,-288.45 -144.02,0" /><g
         transform="scale(0.999295,1.00071)"
         id="g148"><path
           id="path150"
           style="fill:none;stroke:#010101;stroke-width:7.09151983;stroke-linecap:butt;stroke-linejoin:round;stroke-miterlimit:10;stroke-dasharray:none;stroke-opacity:1"
           d="m 2453.44,1733.41 -144.12,0 0,287.95 287.95,0 0,-287.95 -143.83,0 z" /></g><g
         transform="scale(0.999295,1.00071)"
         id="g152"><path
           id="path154"
           style="fill:none;stroke:#010101;stroke-width:7.3762002;stroke-linecap:butt;stroke-linejoin:round;stroke-miterlimit:10;stroke-dasharray:none;stroke-opacity:1"
           d="M 695.916,1848.87 350.368,1503.33" /></g><path
         id="path156"
         style="fill:#010101;fill-opacity:1;fill-rule:evenodd;stroke:none"
         d="m 690.891,1851.31 -1.985,3.41 -1.418,4.26 -0.566,4.25 0.566,4.55 1.418,3.97 1.985,3.7 2.55,3.12 3.118,2.55 3.402,1.99 4.254,1.42 4.25,0.28 4.539,-0.56 3.969,-1.43 3.683,-1.7 3.121,-2.55 2.551,-3.12 1.985,-3.7 1.132,-3.97 0.567,-4.55 -0.282,-4.25 -1.417,-4.26 -1.985,-3.41 -2.551,-3.12 -3.121,-2.56 -3.683,-1.98 -3.969,-1.42 -4.539,-0.57 -4.25,0.57 -4.254,1.42 -3.402,1.98 -3.118,2.28 -2.55,3.4" /><path
         id="path158"
         style="fill:#010101;fill-opacity:1;fill-rule:evenodd;stroke:none"
         d="m 291.723,1445.9 81.363,40.89 -40.539,40.59 -40.824,-81.48" /><g
         transform="scale(0.999295,1.00071)"
         id="g160"><path
           id="path162"
           style="fill:none;stroke:#010101;stroke-width:7.3762002;stroke-linecap:butt;stroke-linejoin:round;stroke-miterlimit:10;stroke-dasharray:none;stroke-opacity:1"
           d="m 1040.89,1848.87 345.27,-345.54" /></g><path
         id="path164"
         style="fill:#010101;fill-opacity:1;fill-rule:evenodd;stroke:none"
         d="m 1039.03,1845.63 -3.4,-1.98 -4.26,-1.42 -4.25,-0.57 -4.53,0.57 -3.97,1.42 -3.69,1.98 -3.12,2.56 -2.55,3.12 -1.98,3.41 -1.42,4.26 -0.29,4.25 0.57,4.55 1.42,3.97 1.7,3.7 2.55,3.12 3.12,2.55 3.69,1.99 3.97,1.14 4.53,0.56 4.25,-0.28 4.26,-1.42 3.4,-1.99 3.11,-2.55 2.56,-3.12 1.98,-3.7 1.42,-3.97 0.57,-4.55 -0.57,-4.25 -1.42,-4.26 -1.98,-3.41 -2.27,-3.12 -3.4,-2.56" /><path
         id="path166"
         style="fill:#010101;fill-opacity:1;fill-rule:evenodd;stroke:none"
         d="m 1443.58,1445.9 -40.82,81.48 -40.54,-40.59 81.36,-40.89" /><g
         transform="scale(0.999295,1.00071)"
         id="g168"><path
           id="path170"
           style="fill:none;stroke:#010101;stroke-width:7.3762002;stroke-linecap:butt;stroke-linejoin:round;stroke-miterlimit:10;stroke-dasharray:none;stroke-opacity:1"
           d="M 1278.07,979.333 1058.2,649.105" /></g><path
         id="path172"
         style="fill:#010101;fill-opacity:1;fill-rule:evenodd;stroke:none"
         d="m 1272.63,980.309 -2.55,3.121 -2.27,3.691 -1.42,4.258 -0.28,4.543 0.57,4.258 1.13,3.69 1.99,3.69 2.55,3.12 3.11,2.56 3.69,2.27 4.26,1.13 4.53,0.57 4.25,-0.57 3.97,-1.13 3.4,-1.99 3.12,-2.55 2.55,-3.13 1.99,-3.68 1.42,-4.265 0.56,-4.543 -0.56,-4.258 -1.42,-3.973 -1.7,-3.406 -2.56,-3.125 -3.11,-2.555 -3.69,-2.269 -4.25,-1.422 -4.53,-0.281 -4.26,0.566 -3.97,1.137 -3.4,1.703 -3.12,2.84" /><path
         id="path174"
         style="fill:#010101;fill-opacity:1;fill-rule:evenodd;stroke:none"
         d="m 1011.81,580.859 71.73,55.93 -47.91,32.078 -23.82,-88.008" /><path
         id="path176"
         style="fill:#ffffff;fill-opacity:1;fill-rule:evenodd;stroke:none"
         d="m 3172.93,1157.46 -288.04,0 0,288.44 576.08,0 0,-288.44 -288.04,0" /><g
         transform="scale(0.999295,1.00071)"
         id="g178"><path
           id="path180"
           style="fill:none;stroke:#010101;stroke-width:7.09151983;stroke-linecap:butt;stroke-linejoin:round;stroke-miterlimit:10;stroke-dasharray:none;stroke-opacity:1"
           d="m 3174.89,1156.93 -288.24,0 0,288.24 576.48,0 0,-288.24 -288.24,0 z" /></g><path
         id="path182"
         style="fill:#010101;fill-opacity:1;fill-rule:evenodd;stroke:none"
         d="m 3164.71,1257.96 c 0,13.91 -9.07,26.12 -24.38,31.23 12.76,7.1 19.56,19.02 19.56,30.95 0,15.61 -14.46,27.25 -32.03,27.25 -14.18,0 -27.22,-7.95 -34.02,-19.87 l 6.52,-9.66 c 4.25,11.64 15.3,19.31 27.5,19.31 9.07,0 17.85,-5.11 17.85,-17.03 0,-11.93 -8.5,-21.87 -18.14,-24.14 -0.85,-0.28 -12.19,-1.13 -13.89,-1.13 l 0,-11.07 12.76,0 c 18.43,0 22.96,-15.9 22.96,-25.84 0,-14.48 -8.79,-25.55 -21.83,-25.55 -11.62,0 -25.8,5.96 -34.02,18.74 l -1.98,-10.51 c 11.62,-16.18 27.5,-19.02 36.29,-19.02 21.26,0 36.85,17.04 36.85,36.34" /><path
         id="path184"
         style="fill:#010101;fill-opacity:1;fill-rule:evenodd;stroke:none"
         d="m 3252.03,1262.22 c 0,22.43 -15.03,40.03 -33.17,40.03 -7.09,0 -13.89,-2.55 -19,-7.1 l 0,37.48 46.21,0 0,11.07 -58.96,0 0,-66.43 11.62,0 c 4.54,10.22 12.47,14.19 19.84,14.19 8.51,0 18.15,-7.66 18.15,-28.96 0,-22.99 -13.04,-30.09 -23.53,-30.09 -9.92,0 -21.83,5.39 -27.5,16.75 l -5.96,-9.65 c 11.91,-17.6 28.92,-17.6 33.74,-17.6 21.26,0 38.56,17.88 38.56,40.31" /><path
         id="path186"
         style="fill:#ffffff;fill-opacity:1;fill-rule:evenodd;stroke:none"
         d="m 3316.95,869.301 -144.02,0 0,288.159 288.04,0 0,-288.159 -144.02,0" /><g
         transform="scale(0.999295,1.00071)"
         id="g188"><path
           id="path190"
           style="fill:none;stroke:#010101;stroke-width:7.09151983;stroke-linecap:butt;stroke-linejoin:round;stroke-miterlimit:10;stroke-dasharray:none;stroke-opacity:1"
           d="m 3319.01,868.688 -144.12,0 0,288.242 288.24,0 0,-288.242 -144.12,0 z" /></g><path
         id="path192"
         style="fill:#ffffff;fill-opacity:1;fill-rule:evenodd;stroke:none"
         d="m 3028.91,869.301 -144.02,0 0,288.159 288.04,0 0,-288.159 -144.02,0" /><g
         transform="scale(0.999295,1.00071)"
         id="g194"><path
           id="path196"
           style="fill:none;stroke:#010101;stroke-width:7.09151983;stroke-linecap:butt;stroke-linejoin:round;stroke-miterlimit:10;stroke-dasharray:none;stroke-opacity:1"
           d="m 3030.77,868.688 -144.12,0 0,288.242 288.24,0 0,-288.242 -144.12,0 z" /></g><g
         transform="scale(0.999295,1.00071)"
         id="g198"><path
           id="path200"
           style="fill:none;stroke:#010101;stroke-width:7.3762002;stroke-linecap:butt;stroke-linejoin:round;stroke-miterlimit:10;stroke-dasharray:none;stroke-opacity:1"
           d="m 1911.57,2720.97 615.06,-368.81" /></g><path
         id="path202"
         style="fill:#010101;fill-opacity:1;fill-rule:evenodd;stroke:none"
         d="m 1910.22,2718.34 -3.11,-2.84 -3.69,-2.27 -3.97,-1.7 -4.54,-0.57 -4.25,0.29 -3.97,1.13 -3.68,1.71 -3.12,2.27 -2.84,3.12 -2.26,3.69 -1.7,3.97 -0.57,4.55 0.57,4.26 0.84,3.97 1.71,3.69 2.26,3.12 3.12,2.84 3.69,2.27 4.25,1.71 4.25,0.56 4.25,-0.28 3.97,-1.13 3.69,-1.71 3.12,-2.55 2.83,-2.84 2.27,-3.69 1.7,-4.26 0.57,-4.26 -0.29,-4.26 -1.13,-3.97 -1.42,-3.7 -2.55,-3.12" /><path
         id="path204"
         style="fill:#010101;fill-opacity:1;fill-rule:evenodd;stroke:none"
         d="m 2595.73,2311.23 -59.26,69.27 -29.48,-49.4 88.74,-19.87" /><g
         transform="scale(0.999295,1.00071)"
         id="g206"><path
           id="path208"
           style="fill:none;stroke:#010101;stroke-width:7.3762002;stroke-linecap:butt;stroke-linejoin:round;stroke-miterlimit:10;stroke-dasharray:none;stroke-opacity:1"
           d="m 2770.05,1848.87 346.68,-345.83" /></g><path
         id="path210"
         style="fill:#010101;fill-opacity:1;fill-rule:evenodd;stroke:none"
         d="m 2767.24,1845.63 -3.68,-1.98 -3.97,-1.42 -4.54,-0.57 -4.53,0.57 -3.97,1.42 -3.69,1.98 -3.12,2.56 -2.26,3.12 -2.27,3.41 -1.42,4.26 -0.28,4.25 0.56,4.55 1.42,3.97 1.7,3.7 2.55,3.12 3.12,2.55 3.69,1.99 3.97,1.14 4.53,0.56 4.25,-0.28 4.26,-1.42 3.4,-1.99 3.12,-2.55 2.55,-3.12 1.98,-3.41 1.42,-4.26 0.57,-4.55 -0.57,-4.25 -1.13,-3.98 -2.27,-3.69 -2.27,-3.12 -3.12,-2.56" /><path
         id="path212"
         style="fill:#010101;fill-opacity:1;fill-rule:evenodd;stroke:none"
         d="m 3172.93,1445.9 -40.82,81.48 -40.54,-40.88 81.36,-40.6" /><g
         transform="scale(0.999295,1.00071)"
         id="g214"><path
           id="path216"
           style="fill:none;stroke:#010101;stroke-width:7.09151983;stroke-linecap:butt;stroke-linejoin:round;stroke-miterlimit:10;stroke-dasharray:none;stroke-opacity:1"
           d="M 234.052,1099.34 60.9961,926.281" /></g><g
         transform="scale(0.999295,1.00071)"
         id="g218"><path
           id="path220"
           style="fill:none;stroke:#010101;stroke-width:7.09151983;stroke-linecap:butt;stroke-linejoin:round;stroke-miterlimit:10;stroke-dasharray:none;stroke-opacity:1"
           d="M 234.052,926.281 60.9961,1099.34" /></g><g
         transform="scale(0.999295,1.00071)"
         id="g222"><path
           id="path224"
           style="fill:none;stroke:#010101;stroke-width:7.09151983;stroke-linecap:butt;stroke-linejoin:round;stroke-miterlimit:10;stroke-dasharray:none;stroke-opacity:1"
           d="M 522.29,1099.34 349.234,926.281" /></g><g
         transform="scale(0.999295,1.00071)"
         id="g226"><path
           id="path228"
           style="fill:none;stroke:#010101;stroke-width:7.09151983;stroke-linecap:butt;stroke-linejoin:round;stroke-miterlimit:10;stroke-dasharray:none;stroke-opacity:1"
           d="M 522.29,926.281 349.234,1099.34" /></g><g
         transform="scale(0.999295,1.00071)"
         id="g230"><path
           id="path232"
           style="fill:none;stroke:#010101;stroke-width:7.09151983;stroke-linecap:butt;stroke-linejoin:round;stroke-miterlimit:10;stroke-dasharray:none;stroke-opacity:1"
           d="M 1675.25,1099.34 1502.19,926.281" /></g><g
         transform="scale(0.999295,1.00071)"
         id="g234"><path
           id="path236"
           style="fill:none;stroke:#010101;stroke-width:7.09151983;stroke-linecap:butt;stroke-linejoin:round;stroke-miterlimit:10;stroke-dasharray:none;stroke-opacity:1"
           d="M 1675.25,926.281 1502.19,1099.34" /></g><g
         transform="scale(0.999295,1.00071)"
         id="g238"><path
           id="path240"
           style="fill:none;stroke:#010101;stroke-width:7.09151983;stroke-linecap:butt;stroke-linejoin:round;stroke-miterlimit:10;stroke-dasharray:none;stroke-opacity:1"
           d="M 3116.16,1099.34 2943.1,926.281" /></g><g
         transform="scale(0.999295,1.00071)"
         id="g242"><path
           id="path244"
           style="fill:none;stroke:#010101;stroke-width:7.09151983;stroke-linecap:butt;stroke-linejoin:round;stroke-miterlimit:10;stroke-dasharray:none;stroke-opacity:1"
           d="M 3116.16,926.281 2943.1,1099.34" /></g><g
         transform="scale(0.999295,1.00071)"
         id="g246"><path
           id="path248"
           style="fill:none;stroke:#010101;stroke-width:7.09151983;stroke-linecap:butt;stroke-linejoin:round;stroke-miterlimit:10;stroke-dasharray:none;stroke-opacity:1"
           d="M 3404.4,1099.34 3231.34,926.281" /></g><g
         transform="scale(0.999295,1.00071)"
         id="g250"><path
           id="path252"
           style="fill:none;stroke:#010101;stroke-width:7.09151983;stroke-linecap:butt;stroke-linejoin:round;stroke-miterlimit:10;stroke-dasharray:none;stroke-opacity:1"
           d="M 3404.4,926.281 3231.34,1099.34" /></g><g
         transform="scale(0.999295,1.00071)"
         id="g254"><path
           id="path256"
           style="fill:none;stroke:#010101;stroke-width:7.09151983;stroke-linecap:butt;stroke-linejoin:round;stroke-miterlimit:10;stroke-dasharray:none;stroke-opacity:1"
           d="M 2539.97,1963.77 2366.91,1791" /></g><g
         transform="scale(0.999295,1.00071)"
         id="g258"><path
           id="path260"
           style="fill:none;stroke:#010101;stroke-width:7.09151983;stroke-linecap:butt;stroke-linejoin:round;stroke-miterlimit:10;stroke-dasharray:none;stroke-opacity:1"
           d="m 2539.97,1791 -173.06,172.77" /></g><g
         transform="scale(0.999295,1.00071)"
         id="g262"><path
           id="path264"
           style="fill:none;stroke:#010101;stroke-width:7.09151983;stroke-linecap:butt;stroke-linejoin:round;stroke-miterlimit:10;stroke-dasharray:none;stroke-opacity:1"
           d="M 1242.89,234.905 1069.83,61.847" /></g><g
         transform="scale(0.999295,1.00071)"
         id="g266"><path
           id="path268"
           style="fill:none;stroke:#010101;stroke-width:7.09151983;stroke-linecap:butt;stroke-linejoin:round;stroke-miterlimit:10;stroke-dasharray:none;stroke-opacity:1"
           d="M 1242.89,61.847 1069.83,234.905" /></g><g
         transform="scale(0.999295,1.00071)"
         id="g270"><path
           id="path272"
           style="fill:none;stroke:#010101;stroke-width:7.09151983;stroke-linecap:butt;stroke-linejoin:round;stroke-miterlimit:10;stroke-dasharray:none;stroke-opacity:1"
           d="M 954.65,234.905 781.594,61.847" /></g><g
         transform="scale(0.999295,1.00071)"
         id="g274"><path
           id="path276"
           style="fill:none;stroke:#010101;stroke-width:7.09151983;stroke-linecap:butt;stroke-linejoin:round;stroke-miterlimit:10;stroke-dasharray:none;stroke-opacity:1"
           d="M 954.65,61.847 781.594,234.905" /></g><g
         transform="scale(0.999295,1.00071)"
         id="g278"><path
           id="path280"
           style="fill:none;stroke:#010101;stroke-width:7.09151983;stroke-linecap:butt;stroke-linejoin:round;stroke-miterlimit:10;stroke-dasharray:none;stroke-opacity:1"
           d="M 4772.12,2994.17 4195.64,2417.69" /></g><g
         transform="scale(0.999295,1.00071)"
         id="g282"><path
           id="path284"
           style="fill:none;stroke:#010101;stroke-width:7.09151983;stroke-linecap:butt;stroke-linejoin:round;stroke-miterlimit:10;stroke-dasharray:none;stroke-opacity:1"
           d="m 4195.64,2417.69 -360.3,-576.2" /></g><g
         transform="scale(0.999295,1.00071)"
         id="g286"><path
           id="path288"
           style="fill:none;stroke:#010101;stroke-width:7.09151983;stroke-linecap:butt;stroke-linejoin:round;stroke-miterlimit:10;stroke-dasharray:none;stroke-opacity:1"
           d="m 4555.94,1841.49 -360.3,576.2" /></g><g
         transform="scale(0.999295,1.00071)"
         id="g290"><path
           id="path292"
           style="fill:none;stroke:#010101;stroke-width:7.09151983;stroke-linecap:butt;stroke-linejoin:round;stroke-miterlimit:10;stroke-dasharray:none;stroke-opacity:1"
           d="m 4339.76,1265.02 216.18,576.47" /></g><g
         transform="scale(0.999295,1.00071)"
         id="g294"><path
           id="path296"
           style="fill:none;stroke:#010101;stroke-width:7.09151983;stroke-linecap:butt;stroke-linejoin:round;stroke-miterlimit:10;stroke-dasharray:none;stroke-opacity:1"
           d="m 5348.59,2417.69 360.02,-576.2" /></g><g
         transform="scale(0.999295,1.00071)"
         id="g298"><path
           id="path300"
           style="fill:none;stroke:#010101;stroke-width:7.09151983;stroke-linecap:butt;stroke-linejoin:round;stroke-miterlimit:10;stroke-dasharray:none;stroke-opacity:1"
           d="m 4772.12,2994.17 576.47,-576.48" /></g><path
         id="path302"
         style="fill:#ffffff;fill-opacity:1;fill-rule:evenodd;stroke:none"
         d="m 4768.75,3176.27 c 102.06,0 180.03,-78.07 180.03,-180.27 0,-102.21 -77.97,-180.28 -180.03,-180.28 -102.05,0 -180.02,78.07 -180.02,180.28 0,102.2 77.97,180.27 180.02,180.27 z m -180.02,0 0,0 z m 360.33,-360.83 0,0" /><g
         transform="scale(0.999295,1.00071)"
         id="g304"><path
           id="path306"
           style="fill:none;stroke:#010101;stroke-width:7.09151983;stroke-linecap:butt;stroke-linejoin:round;stroke-miterlimit:10;stroke-dasharray:none;stroke-opacity:1"
           d="m 4772.12,3174.32 c 102.13,0 180.15,-78.02 180.15,-180.15 0,-102.13 -78.02,-180.15 -180.15,-180.15 -102.13,0 -180.15,78.02 -180.15,180.15 0,102.13 78.02,180.15 180.15,180.15 z" /></g><g
         transform="scale(0.999295,1.00071)"
         id="g308"><path
           id="path310"
           style="fill:none;stroke:#010101;stroke-width:7.09151983;stroke-linecap:butt;stroke-linejoin:round;stroke-miterlimit:10;stroke-dasharray:none;stroke-opacity:1"
           d="m 4591.97,3174.32 0,0 z" /></g><g
         transform="scale(0.999295,1.00071)"
         id="g312"><path
           id="path314"
           style="fill:none;stroke:#010101;stroke-width:7.09151983;stroke-linecap:butt;stroke-linejoin:round;stroke-miterlimit:10;stroke-dasharray:none;stroke-opacity:1"
           d="m 4952.55,2813.74 0,0 z" /></g><path
         id="path316"
         style="fill:#010101;fill-opacity:1;fill-rule:evenodd;stroke:none"
         d="m 4758.83,2919.63 0,12.21 -32.03,0 c -1.99,0 -4.26,-0.29 -6.53,-0.29 l -19.27,0 c 4.82,5.11 21.54,21.58 33.17,32.08 13.32,11.64 24.66,22.71 24.66,39.18 0,20.16 -13.89,38.33 -37.7,38.33 -19.28,0 -29.2,-12.78 -34.02,-29.53 5.67,-7.1 5.67,-7.38 7.37,-9.65 4.53,19.31 11.05,28.11 24.38,28.11 15.59,0 25.51,-11.93 25.51,-27.54 0,-9.37 -3.68,-19.88 -15.87,-31.52 l -39.98,-40.03 0,-11.35 70.31,0" /><path
         id="path318"
         style="fill:#010101;fill-opacity:1;fill-rule:evenodd;stroke:none"
         d="m 4848.98,2978.39 c 0,12.21 -0.56,25.84 -5.1,38.61 -7.94,20.16 -21.83,24.42 -31.47,24.42 -11.62,0 -22.96,-5.96 -29.48,-20.15 -5.95,-12.78 -7.09,-27.26 -7.09,-42.88 0,-19.59 1.7,-30.66 7.37,-43.43 5.39,-11.92 17.01,-19.02 29.2,-19.02 11.91,0 22.97,6.52 29.2,19.02 6.24,12.77 7.37,25.83 7.37,43.43 z m -13.6,2.28 c 0,-11.64 0,-23.57 -3.41,-34.64 -4.81,-17.32 -14.74,-19.3 -19.56,-19.3 -22.96,0 -22.96,36.9 -22.96,53.94 0,11.63 0,22.71 3.4,32.93 4.26,12.78 12.19,17.03 19.56,17.03 22.97,0 22.97,-33.5 22.97,-49.96" /><path
         id="path320"
         style="fill:#ffffff;fill-opacity:1;fill-rule:evenodd;stroke:none"
         d="m 5344.82,2599.67 c 102.07,0 180.03,-78.07 180.03,-180.28 0,-102.2 -77.96,-180.27 -180.03,-180.27 -102.05,0 -180.02,78.07 -180.02,180.27 0,102.21 77.97,180.28 180.02,180.28 z m -180.02,0 0,0 z m 360.33,-360.83 0,0" /><g
         transform="scale(0.999295,1.00071)"
         id="g322"><path
           id="path324"
           style="fill:none;stroke:#010101;stroke-width:7.09151983;stroke-linecap:butt;stroke-linejoin:round;stroke-miterlimit:10;stroke-dasharray:none;stroke-opacity:1"
           d="m 5348.59,2597.84 c 102.14,0 179.87,-78.01 179.87,-180.15 0,-102.13 -77.73,-180.15 -179.87,-180.15 -102.13,0 -180.14,78.02 -180.14,180.15 0,102.14 78.01,180.15 180.14,180.15 z" /></g><g
         transform="scale(0.999295,1.00071)"
         id="g326"><path
           id="path328"
           style="fill:none;stroke:#010101;stroke-width:7.09151983;stroke-linecap:butt;stroke-linejoin:round;stroke-miterlimit:10;stroke-dasharray:none;stroke-opacity:1"
           d="m 5168.45,2597.84 0,0 z" /></g><g
         transform="scale(0.999295,1.00071)"
         id="g330"><path
           id="path332"
           style="fill:none;stroke:#010101;stroke-width:7.09151983;stroke-linecap:butt;stroke-linejoin:round;stroke-miterlimit:10;stroke-dasharray:none;stroke-opacity:1"
           d="m 5528.75,2237.26 0,0 z" /></g><path
         id="path334"
         style="fill:#010101;fill-opacity:1;fill-rule:evenodd;stroke:none"
         d="m 5336.32,2375.39 c 0,13.91 -9.07,26.12 -24.38,31.51 12.47,6.82 19.56,18.74 19.56,30.67 0,15.61 -14.46,27.25 -32.04,27.25 -14.45,0 -27.21,-7.95 -34.01,-19.87 l 6.23,-9.66 c 4.54,11.64 15.59,19.31 27.5,19.31 9.36,0 17.86,-5.39 17.86,-17.03 0,-11.93 -8.22,-21.86 -17.86,-24.14 -0.85,0 -12.19,-1.13 -14.17,-1.13 l 0,-10.79 12.76,0 c 18.71,0 23.24,-15.9 23.24,-25.83 0,-14.48 -9.07,-25.55 -21.83,-25.55 -11.62,0 -25.8,5.67 -34.02,18.73 l -1.98,-10.5 c 11.62,-16.18 27.5,-19.02 36.28,-19.02 20.99,0 36.86,17.03 36.86,36.05" /><path
         id="path336"
         style="fill:#010101;fill-opacity:1;fill-rule:evenodd;stroke:none"
         d="m 5425.05,2401.79 c 0,12.21 -0.56,25.84 -5.1,38.62 -7.93,20.15 -21.82,24.41 -31.47,24.41 -11.62,0 -22.96,-5.96 -29.48,-20.16 -5.95,-12.77 -7.09,-27.25 -7.09,-42.87 0,-19.59 1.7,-30.66 7.38,-43.43 5.38,-11.93 17,-19.02 29.19,-19.02 11.91,0 22.97,6.53 29.2,19.02 6.24,12.77 7.37,25.83 7.37,43.43 z m -13.6,2.28 c 0,-11.64 0,-23.57 -3.4,-34.64 -4.82,-17.32 -14.75,-19.3 -19.57,-19.3 -22.96,0 -22.96,36.9 -22.96,53.94 0,11.64 0,22.71 3.4,32.93 4.26,12.77 12.19,17.03 19.56,17.03 22.97,0 22.97,-33.5 22.97,-49.96" /><path
         id="path338"
         style="fill:#ffffff;fill-opacity:1;fill-rule:evenodd;stroke:none"
         d="m 4192.68,2599.67 c 102.06,0 180.02,-78.07 180.02,-180.28 0,-102.2 -77.96,-180.27 -180.02,-180.27 -102.06,0 -179.74,78.07 -179.74,180.27 0,102.21 77.68,180.28 179.74,180.28 z m -179.74,0 0,0 z m 360.05,-360.83 0,0" /><g
         transform="scale(0.999295,1.00071)"
         id="g340"><path
           id="path342"
           style="fill:none;stroke:#010101;stroke-width:7.09151983;stroke-linecap:butt;stroke-linejoin:round;stroke-miterlimit:10;stroke-dasharray:none;stroke-opacity:1"
           d="m 4195.64,2597.84 c 102.13,0 180.15,-78.01 180.15,-180.15 0,-102.13 -78.02,-180.15 -180.15,-180.15 -102.13,0 -180.15,78.02 -180.15,180.15 0,102.14 78.02,180.15 180.15,180.15 z" /></g><g
         transform="scale(0.999295,1.00071)"
         id="g344"><path
           id="path346"
           style="fill:none;stroke:#010101;stroke-width:7.09151983;stroke-linecap:butt;stroke-linejoin:round;stroke-miterlimit:10;stroke-dasharray:none;stroke-opacity:1"
           d="m 4015.49,2597.84 0,0 z" /></g><g
         transform="scale(0.999295,1.00071)"
         id="g348"><path
           id="path350"
           style="fill:none;stroke:#010101;stroke-width:7.09151983;stroke-linecap:butt;stroke-linejoin:round;stroke-miterlimit:10;stroke-dasharray:none;stroke-opacity:1"
           d="m 4376.07,2237.26 0,0 z" /></g><path
         id="path352"
         style="fill:#010101;fill-opacity:1;fill-rule:evenodd;stroke:none"
         d="m 4178.51,2343.03 0,10.5 -22.12,0 0,111.29 -3.4,0 c -2.83,-3.12 -11.34,-11.64 -30.9,-11.64 -2.55,0 -2.55,-0.29 -2.55,-3.41 l 0,-7.38 c 10.77,0 19.28,2.56 22.96,4.26 l 0,-93.12 -21.83,0 0,-10.5 57.84,0" /><path
         id="path354"
         style="fill:#010101;fill-opacity:1;fill-rule:evenodd;stroke:none"
         d="m 4272.91,2401.79 c 0,12.21 -0.57,25.84 -5.1,38.62 -7.94,20.15 -21.83,24.41 -31.47,24.41 -11.62,0 -22.96,-5.96 -29.48,-20.16 -5.96,-12.77 -7.09,-27.25 -7.09,-42.87 0,-19.59 1.7,-30.66 7.37,-43.43 5.39,-11.93 17.01,-19.02 29.2,-19.02 11.91,0 22.96,6.53 29.2,19.02 6.24,12.77 7.37,25.83 7.37,43.43 z m -13.61,2.28 c 0,-11.64 0,-23.57 -3.4,-34.64 -4.82,-17.32 -14.74,-19.3 -19.56,-19.3 -22.96,0 -22.96,36.9 -22.96,53.94 0,11.64 0,22.71 3.4,32.93 4.25,12.77 12.19,17.03 19.56,17.03 22.96,0 22.96,-33.5 22.96,-49.96" /><path
         id="path356"
         style="fill:#ffffff;fill-opacity:1;fill-rule:evenodd;stroke:none"
         d="m 4552.73,2022.79 c 102.06,0 180.02,-78.08 180.02,-180.28 0,-102.2 -77.96,-180.28 -180.02,-180.28 -102.06,0 -180.03,78.08 -180.03,180.28 0,102.2 77.97,180.28 180.03,180.28 z m -180.03,0 0,0 z m 360.33,-360.84 0,0" /><g
         transform="scale(0.999295,1.00071)"
         id="g358"><path
           id="path360"
           style="fill:none;stroke:#010101;stroke-width:7.09151983;stroke-linecap:butt;stroke-linejoin:round;stroke-miterlimit:10;stroke-dasharray:none;stroke-opacity:1"
           d="m 4555.94,2021.36 c 102.13,0 180.15,-78.02 180.15,-179.87 0,-102.13 -78.02,-180.14 -180.15,-180.14 -102.13,0 -180.15,78.01 -180.15,180.14 0,101.85 78.02,179.87 180.15,179.87 z" /></g><g
         transform="scale(0.999295,1.00071)"
         id="g362"><path
           id="path364"
           style="fill:none;stroke:#010101;stroke-width:7.09151983;stroke-linecap:butt;stroke-linejoin:round;stroke-miterlimit:10;stroke-dasharray:none;stroke-opacity:1"
           d="m 4375.79,2021.36 0,0 z" /></g><g
         transform="scale(0.999295,1.00071)"
         id="g366"><path
           id="path368"
           style="fill:none;stroke:#010101;stroke-width:7.09151983;stroke-linecap:butt;stroke-linejoin:round;stroke-miterlimit:10;stroke-dasharray:none;stroke-opacity:1"
           d="m 4736.37,1661.06 0,0 z" /></g><path
         id="path370"
         style="fill:#010101;fill-opacity:1;fill-rule:evenodd;stroke:none"
         d="m 4538.55,1766.14 0,10.5 -22.11,0 0,111.29 -3.4,0 c -2.84,-3.12 -11.34,-11.63 -30.9,-11.63 -2.56,0 -2.56,-0.29 -2.56,-3.41 l 0,-7.38 c 10.78,0 19.28,2.55 22.97,4.26 l 0,-93.13 -21.83,0 0,-10.5 57.83,0" /><path
         id="path372"
         style="fill:#010101;fill-opacity:1;fill-rule:evenodd;stroke:none"
         d="m 4631.54,1802.77 c 0,22.42 -15.02,40.02 -33.17,40.02 -7.37,0 -13.89,-2.55 -18.99,-7.09 l 0,37.19 46.21,0 0,11.07 -58.97,0 0,-66.15 11.62,0 c 4.54,10.22 12.47,14.2 19.85,14.2 8.5,0 17.86,-7.67 17.86,-28.96 0,-22.71 -12.76,-29.81 -23.25,-29.81 -9.92,0 -21.83,5.39 -27.5,16.75 l -5.95,-9.94 c 11.9,-17.32 28.91,-17.32 33.73,-17.32 20.98,0 38.56,17.61 38.56,40.04" /><path
         id="path374"
         style="fill:#ffffff;fill-opacity:1;fill-rule:evenodd;stroke:none"
         d="m 3832.92,2022.79 c 102.06,0 180.02,-78.08 180.02,-180.28 0,-102.2 -77.96,-180.28 -180.02,-180.28 -102.06,0 -180.02,78.08 -180.02,180.28 0,102.2 77.96,180.28 180.02,180.28 z m -180.02,0 0,0 z m 360.33,-360.84 0,0" /><g
         transform="scale(0.999295,1.00071)"
         id="g376"><path
           id="path378"
           style="fill:none;stroke:#010101;stroke-width:7.09151983;stroke-linecap:butt;stroke-linejoin:round;stroke-miterlimit:10;stroke-dasharray:none;stroke-opacity:1"
           d="m 3835.34,2021.36 c 102.13,0 180.15,-78.02 180.15,-179.87 0,-102.13 -78.02,-180.14 -180.15,-180.14 -102.13,0 -180.15,78.01 -180.15,180.14 0,101.85 78.02,179.87 180.15,179.87 z" /></g><g
         transform="scale(0.999295,1.00071)"
         id="g380"><path
           id="path382"
           style="fill:none;stroke:#010101;stroke-width:7.09151983;stroke-linecap:butt;stroke-linejoin:round;stroke-miterlimit:10;stroke-dasharray:none;stroke-opacity:1"
           d="m 3655.19,2021.36 0,0 z" /></g><g
         transform="scale(0.999295,1.00071)"
         id="g384"><path
           id="path386"
           style="fill:none;stroke:#010101;stroke-width:7.09151983;stroke-linecap:butt;stroke-linejoin:round;stroke-miterlimit:10;stroke-dasharray:none;stroke-opacity:1"
           d="m 4015.77,1661.06 0,0 z" /></g><path
         id="path388"
         style="fill:#010101;fill-opacity:1;fill-rule:evenodd;stroke:none"
         d="m 3869.21,1872.61 0,11.35 -73.14,0 0,-12.21 33.45,0 c 2.27,0 4.25,0.29 6.52,0.29 l 21.55,0 c -10.78,-12.78 -41.96,-48.83 -41.96,-107.88 l 14.46,0 c 0,46.84 19.27,85.16 39.12,108.45" /><path
         id="path390"
         style="fill:#ffffff;fill-opacity:1;fill-rule:evenodd;stroke:none"
         d="m 4336.7,1445.9 c 102.06,0 180.02,-78.07 180.02,-180.27 0,-102.21 -77.96,-180.28 -180.02,-180.28 -102.06,0 -180.02,78.07 -180.02,180.28 0,102.2 77.96,180.27 180.02,180.27 z m -180.02,0 0,0 z m 360.32,-360.83 0,0" /><g
         transform="scale(0.999295,1.00071)"
         id="g392"><path
           id="path394"
           style="fill:none;stroke:#010101;stroke-width:7.09151983;stroke-linecap:butt;stroke-linejoin:round;stroke-miterlimit:10;stroke-dasharray:none;stroke-opacity:1"
           d="m 4339.76,1445.17 c 102.13,0 180.15,-78.02 180.15,-180.15 0,-102.13 -78.02,-180.15 -180.15,-180.15 -102.13,0 -180.15,78.02 -180.15,180.15 0,102.13 78.02,180.15 180.15,180.15 z" /></g><g
         transform="scale(0.999295,1.00071)"
         id="g396"><path
           id="path398"
           style="fill:none;stroke:#010101;stroke-width:7.09151983;stroke-linecap:butt;stroke-linejoin:round;stroke-miterlimit:10;stroke-dasharray:none;stroke-opacity:1"
           d="m 4159.61,1445.17 0,0 z" /></g><g
         transform="scale(0.999295,1.00071)"
         id="g400"><path
           id="path402"
           style="fill:none;stroke:#010101;stroke-width:7.09151983;stroke-linecap:butt;stroke-linejoin:round;stroke-miterlimit:10;stroke-dasharray:none;stroke-opacity:1"
           d="m 4520.19,1084.59 0,0 z" /></g><path
         id="path404"
         style="fill:#010101;fill-opacity:1;fill-rule:evenodd;stroke:none"
         d="m 4322.52,1189.26 0,10.5 -22.11,0 0,111.29 -3.4,0 c -2.83,-3.12 -11.34,-11.64 -30.9,-11.64 -2.56,0 -2.56,-0.28 -2.56,-3.41 l 0,-7.38 c 10.78,0 19.29,2.56 22.97,4.26 l 0,-93.12 -21.83,0 0,-10.5 57.83,0" /><path
         id="path406"
         style="fill:#010101;fill-opacity:1;fill-rule:evenodd;stroke:none"
         d="m 4415.51,1189.26 0,12.2 -32.03,0 c -1.99,0 -4.26,-0.28 -6.52,-0.28 l -19.28,0 c 4.82,5.11 21.54,21.58 33.17,32.08 13.32,11.64 24.66,22.71 24.66,39.18 0,20.16 -13.89,38.33 -37.7,38.33 -19.28,0 -29.2,-12.78 -34.02,-29.53 5.67,-7.1 5.67,-7.38 7.37,-9.65 4.54,19.3 11.05,28.11 24.38,28.11 15.59,0 25.51,-11.93 25.51,-27.54 0,-9.37 -3.68,-19.88 -15.87,-31.52 l -39.98,-40.03 0,-11.35 70.31,0" /><path
         id="path408"
         style="fill:#ffffff;fill-opacity:1;fill-rule:evenodd;stroke:none"
         d="m 5704.87,2022.79 c 102.06,0 180.02,-78.08 180.02,-180.28 0,-102.2 -77.96,-180.28 -180.02,-180.28 -102.06,0 -180.02,78.08 -180.02,180.28 0,102.2 77.96,180.28 180.02,180.28 z m -180.02,0 0,0 z m 360.33,-360.84 0,0" /><g
         transform="scale(0.999295,1.00071)"
         id="g410"><path
           id="path412"
           style="fill:none;stroke:#010101;stroke-width:7.09151983;stroke-linecap:butt;stroke-linejoin:round;stroke-miterlimit:10;stroke-dasharray:none;stroke-opacity:1"
           d="m 5708.61,2021.36 c 102.14,0 180.15,-78.02 180.15,-179.87 0,-102.13 -78.01,-180.14 -180.15,-180.14 -102.13,0 -180.15,78.01 -180.15,180.14 0,101.85 78.02,179.87 180.15,179.87 z" /></g><g
         transform="scale(0.999295,1.00071)"
         id="g414"><path
           id="path416"
           style="fill:none;stroke:#010101;stroke-width:7.09151983;stroke-linecap:butt;stroke-linejoin:round;stroke-miterlimit:10;stroke-dasharray:none;stroke-opacity:1"
           d="m 5528.46,2021.36 0,0 z" /></g><g
         transform="scale(0.999295,1.00071)"
         id="g418"><path
           id="path420"
           style="fill:none;stroke:#010101;stroke-width:7.09151983;stroke-linecap:butt;stroke-linejoin:round;stroke-miterlimit:10;stroke-dasharray:none;stroke-opacity:1"
           d="m 5889.05,1661.06 0,0 z" /></g><path
         id="path422"
         style="fill:#010101;fill-opacity:1;fill-rule:evenodd;stroke:none"
         d="m 5696.37,1798.51 c 0,13.91 -9.08,26.12 -24.39,31.51 12.48,6.81 19.57,18.74 19.57,30.66 0,15.62 -14.46,27.25 -32.04,27.25 -14.46,0 -27.22,-7.95 -34.02,-19.87 l 6.24,-9.65 c 4.53,11.64 15.59,19.3 27.5,19.3 9.35,0 17.86,-5.39 17.86,-17.03 0,-11.92 -8.22,-21.86 -17.86,-24.13 -0.85,0 -12.19,-1.14 -14.18,-1.14 l 0,-10.78 12.76,0 c 18.71,0 23.24,-15.9 23.24,-25.84 0,-14.48 -9.07,-25.55 -21.82,-25.55 -11.63,0 -25.8,5.68 -34.02,18.74 l -1.99,-10.51 c 11.63,-16.18 27.5,-19.02 36.29,-19.02 20.98,0 36.86,17.03 36.86,36.06" /><path
         id="path424"
         style="fill:#010101;fill-opacity:1;fill-rule:evenodd;stroke:none"
         d="m 5783.68,1802.77 c 0,22.42 -15.02,40.02 -33.16,40.02 -7.38,0 -13.9,-2.55 -19,-7.09 l 0,37.19 46.21,0 0,11.07 -58.97,0 0,-66.15 11.63,0 c 4.53,10.22 12.47,14.2 19.84,14.2 8.5,0 17.86,-7.67 17.86,-28.96 0,-22.71 -12.76,-29.81 -23.25,-29.81 -9.92,0 -21.82,5.39 -27.5,16.75 l -5.95,-9.94 c 11.91,-17.32 28.92,-17.32 33.74,-17.32 20.98,0 38.55,17.61 38.55,40.04" /></g></g></svg>