<?xml version="1.0" encoding="UTF-8" standalone="no"?>
<svg
   xmlns:dc="http://purl.org/dc/elements/1.1/"
   xmlns:cc="http://creativecommons.org/ns#"
   xmlns:rdf="http://www.w3.org/1999/02/22-rdf-syntax-ns#"
   xmlns:svg="http://www.w3.org/2000/svg"
   xmlns="http://www.w3.org/2000/svg"
   viewBox="0 0 675 262.5"
   height="262.5"
   width="675"
   xml:space="preserve"
   version="1.1"
   id="svg2"><metadata
     id="metadata8"><rdf:RDF><cc:Work
         rdf:about=""><dc:format>image/svg+xml</dc:format><dc:type
           rdf:resource="http://purl.org/dc/dcmitype/StillImage" /></cc:Work></rdf:RDF></metadata><defs
     id="defs6" /><g
     transform="matrix(1.25,0,0,-1.25,0,262.5)"
     id="g10"><g
       transform="scale(0.1,0.1)"
       id="g12"><g
         transform="scale(1.00071,0.999294)"
         id="g14"><path
           id="path16"
           style="fill:none;stroke:#010101;stroke-width:7.08117008;stroke-linecap:butt;stroke-linejoin:round;stroke-miterlimit:10;stroke-dasharray:none;stroke-opacity:1"
           d="M 1118.75,1917.94 543.085,1342.28" /></g><g
         transform="scale(1.00071,0.999294)"
         id="g18"><path
           id="path20"
           style="fill:none;stroke:#010101;stroke-width:7.08117008;stroke-linecap:butt;stroke-linejoin:round;stroke-miterlimit:10;stroke-dasharray:none;stroke-opacity:1"
           d="M 543.085,1342.28 183.296,766.893" /></g><g
         transform="scale(1.00071,0.999294)"
         id="g22"><path
           id="path24"
           style="fill:none;stroke:#010101;stroke-width:7.08117008;stroke-linecap:butt;stroke-linejoin:round;stroke-miterlimit:10;stroke-dasharray:none;stroke-opacity:1"
           d="M 902.878,766.893 543.085,1342.28" /></g><g
         transform="scale(1.00071,0.999294)"
         id="g26"><path
           id="path28"
           style="fill:none;stroke:#010101;stroke-width:7.08117008;stroke-linecap:butt;stroke-linejoin:round;stroke-miterlimit:10;stroke-dasharray:none;stroke-opacity:1"
           d="M 687.003,191.51 902.878,766.893" /></g><g
         transform="scale(1.00071,0.999294)"
         id="g30"><path
           id="path32"
           style="fill:none;stroke:#010101;stroke-width:7.08117008;stroke-linecap:butt;stroke-linejoin:round;stroke-miterlimit:10;stroke-dasharray:none;stroke-opacity:1"
           d="M 1694.42,1342.28 2054.21,766.893" /></g><g
         transform="scale(1.00071,0.999294)"
         id="g34"><path
           id="path36"
           style="fill:none;stroke:#010101;stroke-width:7.08117008;stroke-linecap:butt;stroke-linejoin:round;stroke-miterlimit:10;stroke-dasharray:none;stroke-opacity:1"
           d="m 1118.75,1917.94 575.67,-575.66" /></g><path
         id="path38"
         style="fill:#ffffff;fill-opacity:1;fill-rule:evenodd;stroke:none"
         d="m 1119.54,2096.07 c 102.06,0 180.02,-77.85 180.02,-179.77 0,-101.63 -77.96,-179.48 -180.02,-179.48 -101.77,0 -179.739,77.85 -179.739,179.48 0,101.92 77.969,179.77 179.739,179.77 z m -179.739,0 0,0 z m 360.049,-359.53 0,0" /><g
         transform="scale(1.00071,0.999294)"
         id="g40"><path
           id="path42"
           style="fill:none;stroke:#010101;stroke-width:7.08117008;stroke-linecap:butt;stroke-linejoin:round;stroke-miterlimit:10;stroke-dasharray:none;stroke-opacity:1"
           d="m 1118.75,2097.84 c 101.99,0 179.9,-77.91 179.9,-179.9 0,-101.99 -77.91,-179.89 -179.9,-179.89 -101.99,0 -179.893,77.9 -179.893,179.89 0,101.99 77.903,179.9 179.893,179.9 z" /></g><g
         transform="scale(1.00071,0.999294)"
         id="g44"><path
           id="path46"
           style="fill:none;stroke:#010101;stroke-width:7.08117008;stroke-linecap:butt;stroke-linejoin:round;stroke-miterlimit:10;stroke-dasharray:none;stroke-opacity:1"
           d="m 938.857,2097.84 0,0 z" /></g><g
         transform="scale(1.00071,0.999294)"
         id="g48"><path
           id="path50"
           style="fill:none;stroke:#010101;stroke-width:7.08117008;stroke-linecap:butt;stroke-linejoin:round;stroke-miterlimit:10;stroke-dasharray:none;stroke-opacity:1"
           d="m 1298.93,1737.76 0,0 z" /></g><path
         id="path52"
         style="fill:#010101;fill-opacity:1;fill-rule:evenodd;stroke:none"
         d="m 1109.9,1840.43 0,12.18 -32.03,0 c -1.99,0 -4.26,0 -6.24,0 l -19.28,0 c 4.54,4.81 21.26,21.23 32.89,31.7 13.32,11.89 24.66,22.94 24.66,39.64 0,19.82 -13.61,38.22 -37.42,38.22 -19.56,0 -29.48,-12.74 -34.3,-29.45 5.67,-7.36 5.67,-7.64 7.37,-9.9 4.54,19.25 11.06,28.31 24.38,28.31 15.59,0 25.8,-12.18 25.8,-27.75 0,-9.34 -3.97,-19.81 -15.88,-31.7 l -40.26,-39.92 0,-11.33 70.31,0" /><path
         id="path54"
         style="fill:#010101;fill-opacity:1;fill-rule:evenodd;stroke:none"
         d="m 1200.05,1899.32 c 0,11.89 -0.28,25.76 -5.1,38.5 -7.65,20.38 -21.82,24.35 -31.18,24.35 -11.91,0 -23.25,-5.95 -29.77,-20.1 -5.95,-12.74 -7.09,-27.46 -7.09,-42.75 0,-19.82 1.7,-30.86 7.38,-43.6 5.38,-11.89 17,-18.97 29.19,-18.97 11.91,0 23.25,6.52 29.2,18.97 6.24,12.74 7.37,25.76 7.37,43.6 z m -13.6,1.98 c 0,-11.32 0,-23.21 -3.12,-34.54 -4.82,-17.27 -15.03,-19.25 -19.56,-19.25 -23.25,0 -23.25,37.09 -23.25,53.79 0,11.89 0,22.65 3.4,33.12 4.26,12.74 12.19,16.99 19.56,16.99 22.97,0 22.97,-33.41 22.97,-50.11" /><path
         id="path56"
         style="fill:#ffffff;fill-opacity:1;fill-rule:evenodd;stroke:none"
         d="m 1695.61,1521.1 c 102.06,0 180.03,-77.86 180.03,-179.77 0,-101.92 -77.97,-179.77 -180.03,-179.77 -102.06,0 -180.02,77.85 -180.02,179.77 0,101.91 77.96,179.77 180.02,179.77 z m -180.02,0 0,0 z m 360.33,-359.82 0,0" /><g
         transform="scale(1.00071,0.999294)"
         id="g58"><path
           id="path60"
           style="fill:none;stroke:#010101;stroke-width:7.08117008;stroke-linecap:butt;stroke-linejoin:round;stroke-miterlimit:10;stroke-dasharray:none;stroke-opacity:1"
           d="m 1694.42,1522.17 c 101.98,0 179.89,-77.91 179.89,-179.89 0,-101.71 -77.91,-179.62 -179.89,-179.62 -101.99,0 -179.9,77.91 -179.9,179.62 0,101.98 77.91,179.89 179.9,179.89 z" /></g><g
         transform="scale(1.00071,0.999294)"
         id="g62"><path
           id="path64"
           style="fill:none;stroke:#010101;stroke-width:7.08117008;stroke-linecap:butt;stroke-linejoin:round;stroke-miterlimit:10;stroke-dasharray:none;stroke-opacity:1"
           d="m 1514.52,1522.17 0,0 z" /></g><g
         transform="scale(1.00071,0.999294)"
         id="g66"><path
           id="path68"
           style="fill:none;stroke:#010101;stroke-width:7.08117008;stroke-linecap:butt;stroke-linejoin:round;stroke-miterlimit:10;stroke-dasharray:none;stroke-opacity:1"
           d="m 1874.59,1162.38 0,0 z" /></g><path
         id="path70"
         style="fill:#010101;fill-opacity:1;fill-rule:evenodd;stroke:none"
         d="m 1687.11,1297.73 c 0,13.87 -9.07,26.05 -24.38,31.14 12.75,7.08 19.56,18.97 19.56,30.86 0,15.57 -14.46,27.18 -32.04,27.18 -14.17,0 -27.21,-7.93 -34.02,-19.82 l 6.52,-9.63 c 4.26,11.61 15.31,19.25 27.5,19.25 9.07,0 17.86,-5.09 17.86,-16.98 0,-11.89 -8.5,-21.8 -18.14,-24.07 -0.85,-0.28 -12.19,-1.12 -13.89,-1.12 l 0,-11.05 12.76,0 c 18.42,0 22.96,-15.85 22.96,-25.76 0,-14.44 -8.79,-25.48 -21.83,-25.48 -11.62,0 -25.8,5.95 -34.02,18.69 l -1.99,-10.48 c 11.63,-16.14 27.5,-18.97 36.29,-18.97 21.27,0 36.86,16.99 36.86,36.24" /><path
         id="path72"
         style="fill:#010101;fill-opacity:1;fill-rule:evenodd;stroke:none"
         d="m 1775.84,1324.06 c 0,11.89 -0.28,25.76 -5.1,38.5 -7.65,20.39 -21.83,24.35 -31.19,24.35 -11.9,0 -23.24,-5.95 -29.76,-20.1 -5.95,-12.74 -7.09,-27.46 -7.09,-42.75 0,-19.82 1.7,-30.86 7.37,-43.6 5.39,-11.89 17.01,-18.97 29.2,-18.97 11.91,0 23.25,6.51 29.2,18.97 6.24,12.74 7.37,25.76 7.37,43.6 z m -13.61,1.98 c 0,-11.33 0,-23.21 -3.11,-34.54 -4.82,-17.27 -15.03,-19.25 -19.57,-19.25 -23.24,0 -23.24,37.09 -23.24,53.79 0,11.89 0,22.65 3.4,33.12 4.25,12.74 12.19,16.99 19.56,16.99 22.96,0 22.96,-33.41 22.96,-50.11" /><path
         id="path74"
         style="fill:#ffffff;fill-opacity:1;fill-rule:evenodd;stroke:none"
         d="m 543.754,1521.1 c 102.059,0 180.023,-77.86 180.023,-179.77 0,-101.92 -77.964,-179.77 -180.023,-179.77 -102.063,0 -180.024,77.85 -180.024,179.77 0,101.91 77.961,179.77 180.024,179.77 z m -180.024,0 0,0 z m 360.329,-359.82 0,0" /><g
         transform="scale(1.00071,0.999294)"
         id="g76"><path
           id="path78"
           style="fill:none;stroke:#010101;stroke-width:7.08117008;stroke-linecap:butt;stroke-linejoin:round;stroke-miterlimit:10;stroke-dasharray:none;stroke-opacity:1"
           d="m 543.085,1522.17 c 101.991,0 179.897,-77.91 179.897,-179.89 0,-101.71 -77.906,-179.62 -179.897,-179.62 -101.986,0 -179.896,77.91 -179.896,179.62 0,101.98 77.91,179.89 179.896,179.89 z" /></g><g
         transform="scale(1.00071,0.999294)"
         id="g80"><path
           id="path82"
           style="fill:none;stroke:#010101;stroke-width:7.08117008;stroke-linecap:butt;stroke-linejoin:round;stroke-miterlimit:10;stroke-dasharray:none;stroke-opacity:1"
           d="m 363.189,1522.17 0,0 z" /></g><g
         transform="scale(1.00071,0.999294)"
         id="g84"><path
           id="path86"
           style="fill:none;stroke:#010101;stroke-width:7.08117008;stroke-linecap:butt;stroke-linejoin:round;stroke-miterlimit:10;stroke-dasharray:none;stroke-opacity:1"
           d="m 723.267,1162.38 0,0 z" /></g><path
         id="path88"
         style="fill:#010101;fill-opacity:1;fill-rule:evenodd;stroke:none"
         d="m 529.578,1265.18 0,10.47 -21.828,0 0,111.26 -3.402,0 c -3.121,-2.84 -11.625,-11.61 -31.188,-11.61 -2.265,0 -2.551,0 -2.551,-3.4 l 0,-7.36 c 11.059,0 19.278,2.83 22.965,4.25 l 0,-93.14 -21.832,0 0,-10.47 57.836,0" /><path
         id="path90"
         style="fill:#010101;fill-opacity:1;fill-rule:evenodd;stroke:none"
         d="m 623.984,1324.06 c 0,11.89 -0.285,25.76 -5.105,38.5 -7.652,20.39 -21.828,24.35 -31.184,24.35 -11.906,0 -23.246,-5.95 -29.765,-20.1 -5.957,-12.74 -7.09,-27.46 -7.09,-42.75 0,-19.82 1.703,-30.86 7.371,-43.6 5.387,-11.89 17.012,-18.97 29.199,-18.97 11.91,0 23.25,6.51 29.203,18.97 6.235,12.74 7.371,25.76 7.371,43.6 z m -13.609,1.98 c 0,-11.33 0,-23.21 -3.117,-34.54 -4.82,-17.27 -15.028,-19.25 -19.563,-19.25 -23.246,0 -23.246,37.09 -23.246,53.79 0,11.89 0,22.65 3.403,33.12 4.25,12.74 12.187,16.99 19.558,16.99 22.965,0 22.965,-33.41 22.965,-50.11" /><path
         id="path92"
         style="fill:#ffffff;fill-opacity:1;fill-rule:evenodd;stroke:none"
         d="m 903.797,945.836 c 102.063,0 179.743,-77.852 179.743,-179.484 0,-101.914 -77.68,-179.77 -179.743,-179.77 -102.059,0 -180.02,77.856 -180.02,179.77 0,101.632 77.961,179.484 180.02,179.484 z m -180.02,0 0,0 z m 360.043,-359.535 0,0" /><g
         transform="scale(1.00071,0.999294)"
         id="g94"><path
           id="path96"
           style="fill:none;stroke:#010101;stroke-width:7.08117008;stroke-linecap:butt;stroke-linejoin:round;stroke-miterlimit:10;stroke-dasharray:none;stroke-opacity:1"
           d="m 902.878,946.789 c 101.982,0 179.892,-77.906 179.892,-179.896 0,-101.986 -77.91,-179.897 -179.892,-179.897 -101.99,0 -179.896,77.911 -179.896,179.897 0,101.99 77.906,179.896 179.896,179.896 z" /></g><g
         transform="scale(1.00071,0.999294)"
         id="g98"><path
           id="path100"
           style="fill:none;stroke:#010101;stroke-width:7.08117008;stroke-linecap:butt;stroke-linejoin:round;stroke-miterlimit:10;stroke-dasharray:none;stroke-opacity:1"
           d="m 722.982,946.789 0,0 z" /></g><g
         transform="scale(1.00071,0.999294)"
         id="g102"><path
           id="path104"
           style="fill:none;stroke:#010101;stroke-width:7.08117008;stroke-linecap:butt;stroke-linejoin:round;stroke-miterlimit:10;stroke-dasharray:none;stroke-opacity:1"
           d="m 1083.06,586.715 0,0 z" /></g><path
         id="path106"
         style="fill:#010101;fill-opacity:1;fill-rule:evenodd;stroke:none"
         d="m 889.625,690.199 0,10.473 -21.832,0 0,111.258 -3.402,0 c -3.118,-2.828 -11.621,-11.606 -31.184,-11.606 -2.269,0 -2.551,0 -2.551,-3.398 l 0,-7.36 c 11.055,0 19.278,2.832 22.961,4.247 l 0,-93.141 -21.828,0 0,-10.473 57.836,0" /><path
         id="path108"
         style="fill:#010101;fill-opacity:1;fill-rule:evenodd;stroke:none"
         d="m 982.609,727 c 0,22.367 -15.023,39.918 -33.168,39.918 -7.086,0 -13.89,-2.547 -18.996,-7.078 l 0,37.371 46.211,0 0,11.039 -58.965,0 0,-66.246 11.622,0 c 4.535,10.191 12.472,14.156 19.843,14.156 8.508,0 18.145,-7.644 18.145,-28.875 0,-22.933 -13.039,-30.012 -23.528,-30.012 -9.925,0 -21.832,5.379 -27.5,16.704 l -5.953,-9.625 c 11.907,-17.551 28.914,-17.551 33.735,-17.551 21.261,0 38.554,17.836 38.554,40.199" /><path
         id="path110"
         style="fill:#ffffff;fill-opacity:1;fill-rule:evenodd;stroke:none"
         d="m 183.707,945.836 c 102.063,0 180.023,-77.852 180.023,-179.484 0,-101.914 -77.96,-179.77 -180.023,-179.77 -102.0586,0 -180.02341,77.856 -180.02341,179.77 0,101.632 77.96481,179.484 180.02341,179.484 z m -180.02341,0 0,0 z M 364.016,586.301 l 0,0" /><g
         transform="scale(1.00071,0.999294)"
         id="g112"><path
           id="path114"
           style="fill:none;stroke:#010101;stroke-width:7.08117008;stroke-linecap:butt;stroke-linejoin:round;stroke-miterlimit:10;stroke-dasharray:none;stroke-opacity:1"
           d="m 183.296,946.789 c 101.987,0 179.893,-77.906 179.893,-179.896 0,-101.986 -77.906,-179.897 -179.893,-179.897 -101.9901,0 -179.89606,77.911 -179.89606,179.897 0,101.99 77.90596,179.896 179.89606,179.896 z" /></g><g
         transform="scale(1.00071,0.999294)"
         id="g116"><path
           id="path118"
           style="fill:none;stroke:#010101;stroke-width:7.08117008;stroke-linecap:butt;stroke-linejoin:round;stroke-miterlimit:10;stroke-dasharray:none;stroke-opacity:1"
           d="m 3.39994,946.789 0,0 z" /></g><g
         transform="scale(1.00071,0.999294)"
         id="g120"><path
           id="path122"
           style="fill:none;stroke:#010101;stroke-width:7.08117008;stroke-linecap:butt;stroke-linejoin:round;stroke-miterlimit:10;stroke-dasharray:none;stroke-opacity:1"
           d="m 363.474,586.715 0,0 z" /></g><path
         id="path124"
         style="fill:#010101;fill-opacity:1;fill-rule:evenodd;stroke:none"
         d="m 219.996,796.645 0,11.324 -73.144,0 0,-12.176 33.453,0 c 2.269,0 4.254,0.285 6.523,0.285 l 21.543,0 C 197.598,783.336 166.414,747.383 166.414,688.215 l 14.742,0 c 0,46.996 19.278,85.215 38.84,108.43" /><path
         id="path126"
         style="fill:#ffffff;fill-opacity:1;fill-rule:evenodd;stroke:none"
         d="m 687.77,370.859 c 102.062,0 180.023,-77.851 180.023,-179.765 0,-101.9182 -77.961,-179.7698 -180.023,-179.7698 -102.059,0 -180.02,77.8516 -180.02,179.7698 0,101.914 77.961,179.765 180.02,179.765 z m -180.02,0 0,0 z m 360.328,-359.8199 0,0" /><g
         transform="scale(1.00071,0.999294)"
         id="g128"><path
           id="path130"
           style="fill:none;stroke:#019901;stroke-width:21.52680016;stroke-linecap:butt;stroke-linejoin:round;stroke-miterlimit:10;stroke-dasharray:none;stroke-opacity:1"
           d="M 687.003,371.121 C 788.99,371.121 866.9,293.215 866.9,191.51 866.9,89.5241 788.99,11.6137 687.003,11.6137 c -101.99,0 -179.896,77.9104 -179.896,179.8963 0,101.705 77.906,179.611 179.896,179.611 z" /></g><g
         transform="scale(1.00071,0.999294)"
         id="g132"><path
           id="path134"
           style="fill:none;stroke:#019901;stroke-width:21.52680016;stroke-linecap:butt;stroke-linejoin:round;stroke-miterlimit:10;stroke-dasharray:none;stroke-opacity:1"
           d="m 507.107,371.121 0,0 z" /></g><g
         transform="scale(1.00071,0.999294)"
         id="g136"><path
           id="path138"
           style="fill:none;stroke:#019901;stroke-width:21.52680016;stroke-linecap:butt;stroke-linejoin:round;stroke-miterlimit:10;stroke-dasharray:none;stroke-opacity:1"
           d="m 867.181,11.3322 0,0 z" /></g><path
         id="path140"
         style="fill:#010101;fill-opacity:1;fill-rule:evenodd;stroke:none"
         d="m 673.598,114.938 0,10.476 -21.832,0 0,111.258 -3.403,0 c -3.117,-2.832 -11.621,-11.609 -31.183,-11.609 -2.27,0 -2.551,0 -2.551,-3.395 l 0,-7.363 c 11.055,0 19.277,2.832 22.961,4.25 l 0,-93.141 -21.828,0 0,-10.476 57.836,0" /><path
         id="path142"
         style="fill:#010101;fill-opacity:1;fill-rule:evenodd;stroke:none"
         d="m 766.582,114.938 0,12.175 -32.035,0 c -1.984,0 -4.25,0 -6.234,0 l -19.278,0 c 4.535,4.813 21.262,21.231 32.883,31.707 13.324,11.891 24.664,22.93 24.664,39.633 0,19.817 -13.605,38.219 -37.422,38.219 -19.558,0 -29.48,-12.738 -34.301,-29.442 5.668,-7.363 5.668,-7.644 7.371,-9.91 4.536,19.25 11.055,28.309 24.379,28.309 15.594,0 25.801,-12.172 25.801,-27.742 0,-9.344 -3.969,-19.817 -15.879,-31.707 l -40.254,-39.918 0,-11.324 70.305,0" /><path
         id="path144"
         style="fill:#ffffff;fill-opacity:1;fill-rule:evenodd;stroke:none"
         d="m 2055.66,945.836 c 102.06,0 180.02,-77.852 180.02,-179.484 0,-101.914 -77.96,-179.77 -180.02,-179.77 -102.06,0 -180.02,77.856 -180.02,179.77 0,101.632 77.96,179.484 180.02,179.484 z m -180.02,0 0,0 z m 360.32,-359.535 0,0" /><g
         transform="scale(1.00071,0.999294)"
         id="g146"><path
           id="path148"
           style="fill:none;stroke:#010101;stroke-width:7.08117008;stroke-linecap:butt;stroke-linejoin:round;stroke-miterlimit:10;stroke-dasharray:none;stroke-opacity:1"
           d="m 2054.21,946.789 c 101.99,0 179.89,-77.906 179.89,-179.896 0,-101.986 -77.9,-179.897 -179.89,-179.897 -101.99,0 -179.9,77.911 -179.9,179.897 0,101.99 77.91,179.896 179.9,179.896 z" /></g><g
         transform="scale(1.00071,0.999294)"
         id="g150"><path
           id="path152"
           style="fill:none;stroke:#010101;stroke-width:7.08117008;stroke-linecap:butt;stroke-linejoin:round;stroke-miterlimit:10;stroke-dasharray:none;stroke-opacity:1"
           d="m 1874.31,946.789 0,0 z" /></g><g
         transform="scale(1.00071,0.999294)"
         id="g154"><path
           id="path156"
           style="fill:none;stroke:#010101;stroke-width:7.08117008;stroke-linecap:butt;stroke-linejoin:round;stroke-miterlimit:10;stroke-dasharray:none;stroke-opacity:1"
           d="m 2234.39,586.715 0,0 z" /></g><path
         id="path158"
         style="fill:#010101;fill-opacity:1;fill-rule:evenodd;stroke:none"
         d="m 2047.15,722.754 c 0,13.871 -9.07,26.047 -24.38,31.141 12.76,7.078 19.56,18.968 19.56,30.859 0,15.57 -14.45,27.176 -32.03,27.176 -14.17,0 -27.22,-7.926 -34.02,-19.817 l 6.52,-9.625 c 4.25,11.606 15.31,19.25 27.5,19.25 9.07,0 17.86,-5.093 17.86,-16.984 0,-11.891 -8.51,-21.801 -18.14,-24.063 -0.86,-0.285 -12.2,-1.132 -13.89,-1.132 l 0,-11.043 12.75,0 c 18.43,0 22.96,-15.852 22.96,-25.762 0,-14.438 -8.79,-25.481 -21.82,-25.481 -11.63,0 -25.81,5.946 -34.02,18.688 l -1.99,-10.477 c 11.62,-16.136 27.5,-18.968 36.29,-18.968 21.26,0 36.85,16.988 36.85,36.238" /><path
         id="path160"
         style="fill:#010101;fill-opacity:1;fill-rule:evenodd;stroke:none"
         d="m 2134.47,727 c 0,22.367 -15.02,39.918 -33.17,39.918 -7.09,0 -13.89,-2.547 -18.99,-7.078 l 0,37.371 46.21,0 0,11.039 -58.97,0 0,-66.246 11.62,0 c 4.54,10.191 12.48,14.156 19.85,14.156 8.5,0 18.14,-7.644 18.14,-28.875 0,-22.933 -13.04,-30.012 -23.53,-30.012 -9.92,0 -21.83,5.379 -27.5,16.704 l -5.95,-9.625 c 11.91,-17.551 28.92,-17.551 33.73,-17.551 21.27,0 38.56,17.836 38.56,40.199" /><g
         transform="scale(1.00071,0.999294)"
         id="g162"><path
           id="path164"
           style="fill:none;stroke:#010101;stroke-width:7.08117008;stroke-linecap:butt;stroke-linejoin:round;stroke-miterlimit:10;stroke-dasharray:none;stroke-opacity:1"
           d="M 3996.8,1917.94 3421.13,1342.28" /></g><g
         transform="scale(1.00071,0.999294)"
         id="g166"><path
           id="path168"
           style="fill:none;stroke:#010101;stroke-width:7.08117008;stroke-linecap:butt;stroke-linejoin:round;stroke-miterlimit:10;stroke-dasharray:none;stroke-opacity:1"
           d="M 3421.13,1342.28 3061.34,766.893" /></g><g
         transform="scale(1.00071,0.999294)"
         id="g170"><path
           id="path172"
           style="fill:none;stroke:#010101;stroke-width:7.08117008;stroke-linecap:butt;stroke-linejoin:round;stroke-miterlimit:10;stroke-dasharray:none;stroke-opacity:1"
           d="M 3780.92,766.893 3421.13,1342.28" /></g><g
         transform="scale(1.00071,0.999294)"
         id="g174"><path
           id="path176"
           style="fill:none;stroke:#010101;stroke-width:7.08117008;stroke-linecap:butt;stroke-linejoin:round;stroke-miterlimit:10;stroke-dasharray:none;stroke-opacity:1"
           d="m 3565.05,191.51 215.87,575.383" /></g><g
         transform="scale(1.00071,0.999294)"
         id="g178"><path
           id="path180"
           style="fill:none;stroke:#010101;stroke-width:7.08117008;stroke-linecap:butt;stroke-linejoin:round;stroke-miterlimit:10;stroke-dasharray:none;stroke-opacity:1"
           d="M 4572.46,1342.28 4932.25,766.893" /></g><g
         transform="scale(1.00071,0.999294)"
         id="g182"><path
           id="path184"
           style="fill:none;stroke:#010101;stroke-width:7.08117008;stroke-linecap:butt;stroke-linejoin:round;stroke-miterlimit:10;stroke-dasharray:none;stroke-opacity:1"
           d="m 3996.8,1917.94 575.66,-575.66" /></g><path
         id="path186"
         style="fill:#ffffff;fill-opacity:1;fill-rule:evenodd;stroke:none"
         d="m 3999.62,2096.07 c 102.06,0 180.02,-77.85 180.02,-179.77 0,-101.63 -77.96,-179.48 -180.02,-179.48 -102.06,0 -180.03,77.85 -180.03,179.48 0,101.92 77.97,179.77 180.03,179.77 z m -180.03,0 0,0 z m 360.34,-359.53 0,0" /><g
         transform="scale(1.00071,0.999294)"
         id="g188"><path
           id="path190"
           style="fill:none;stroke:#010101;stroke-width:7.08117008;stroke-linecap:butt;stroke-linejoin:round;stroke-miterlimit:10;stroke-dasharray:none;stroke-opacity:1"
           d="m 3996.8,2097.84 c 101.99,0 179.89,-77.91 179.89,-179.9 0,-101.99 -77.9,-179.89 -179.89,-179.89 -101.99,0 -179.9,77.9 -179.9,179.89 0,101.99 77.91,179.9 179.9,179.9 z" /></g><g
         transform="scale(1.00071,0.999294)"
         id="g192"><path
           id="path194"
           style="fill:none;stroke:#010101;stroke-width:7.08117008;stroke-linecap:butt;stroke-linejoin:round;stroke-miterlimit:10;stroke-dasharray:none;stroke-opacity:1"
           d="m 3816.9,2097.84 0,0 z" /></g><g
         transform="scale(1.00071,0.999294)"
         id="g196"><path
           id="path198"
           style="fill:none;stroke:#010101;stroke-width:7.08117008;stroke-linecap:butt;stroke-linejoin:round;stroke-miterlimit:10;stroke-dasharray:none;stroke-opacity:1"
           d="m 4176.98,1737.76 0,0 z" /></g><path
         id="path200"
         style="fill:#010101;fill-opacity:1;fill-rule:evenodd;stroke:none"
         d="m 3989.7,1840.43 0,12.18 -32.04,0 c -1.98,0 -4.25,0 -6.24,0 l -19.28,0 c 4.54,4.81 21.27,21.23 32.89,31.7 13.33,11.89 24.67,22.94 24.67,39.64 0,19.82 -13.61,38.22 -37.43,38.22 -19.56,0 -29.48,-12.74 -34.3,-29.45 5.67,-7.36 5.67,-7.64 7.37,-9.9 4.54,19.25 11.06,28.31 24.38,28.31 15.59,0 25.8,-12.18 25.8,-27.75 0,-9.34 -3.97,-19.81 -15.88,-31.7 l -40.25,-39.92 0,-11.33 70.31,0" /><path
         id="path202"
         style="fill:#010101;fill-opacity:1;fill-rule:evenodd;stroke:none"
         d="m 4079.85,1899.32 c 0,11.89 -0.28,25.76 -5.1,38.5 -7.66,20.38 -21.84,24.35 -31.19,24.35 -11.91,0 -23.25,-5.95 -29.77,-20.1 -5.95,-12.74 -7.08,-27.46 -7.08,-42.75 0,-19.82 1.7,-30.86 7.37,-43.6 5.38,-11.89 17.01,-18.97 29.2,-18.97 11.9,0 23.24,6.52 29.2,18.97 6.23,12.74 7.37,25.76 7.37,43.6 z m -13.61,1.98 c 0,-11.32 0,-23.21 -3.12,-34.54 -4.82,-17.27 -15.02,-19.25 -19.56,-19.25 -23.25,0 -23.25,37.09 -23.25,53.79 0,11.89 0,22.65 3.4,33.12 4.26,12.74 12.2,16.99 19.57,16.99 22.96,0 22.96,-33.41 22.96,-50.11" /><path
         id="path204"
         style="fill:#ffffff;fill-opacity:1;fill-rule:evenodd;stroke:none"
         d="m 4575.69,1521.1 c 102.06,0 180.02,-77.86 180.02,-179.77 0,-101.92 -77.96,-179.77 -180.02,-179.77 -102.06,0 -180.02,77.85 -180.02,179.77 0,101.91 77.96,179.77 180.02,179.77 z m -180.02,0 0,0 z m 360.33,-359.82 0,0" /><g
         transform="scale(1.00071,0.999294)"
         id="g206"><path
           id="path208"
           style="fill:none;stroke:#010101;stroke-width:7.08117008;stroke-linecap:butt;stroke-linejoin:round;stroke-miterlimit:10;stroke-dasharray:none;stroke-opacity:1"
           d="m 4572.46,1522.17 c 101.99,0 179.9,-77.91 179.9,-179.89 0,-101.71 -77.91,-179.62 -179.9,-179.62 -101.99,0 -179.89,77.91 -179.89,179.62 0,101.98 77.9,179.89 179.89,179.89 z" /></g><g
         transform="scale(1.00071,0.999294)"
         id="g210"><path
           id="path212"
           style="fill:none;stroke:#010101;stroke-width:7.08117008;stroke-linecap:butt;stroke-linejoin:round;stroke-miterlimit:10;stroke-dasharray:none;stroke-opacity:1"
           d="m 4392.57,1522.17 0,0 z" /></g><g
         transform="scale(1.00071,0.999294)"
         id="g214"><path
           id="path216"
           style="fill:none;stroke:#010101;stroke-width:7.08117008;stroke-linecap:butt;stroke-linejoin:round;stroke-miterlimit:10;stroke-dasharray:none;stroke-opacity:1"
           d="m 4752.64,1162.38 0,0 z" /></g><path
         id="path218"
         style="fill:#010101;fill-opacity:1;fill-rule:evenodd;stroke:none"
         d="m 4567.18,1297.73 c 0,13.87 -9.07,26.05 -24.38,31.14 12.76,7.08 19.57,18.97 19.57,30.86 0,15.57 -14.46,27.18 -32.04,27.18 -14.17,0 -27.22,-7.93 -34.02,-19.82 l 6.52,-9.63 c 4.25,11.61 15.31,19.25 27.5,19.25 9.07,0 17.86,-5.09 17.86,-16.98 0,-11.89 -8.5,-21.8 -18.14,-24.07 -0.85,-0.28 -12.19,-1.12 -13.89,-1.12 l 0,-11.05 12.75,0 c 18.43,0 22.97,-15.85 22.97,-25.76 0,-14.44 -8.79,-25.48 -21.83,-25.48 -11.63,0 -25.8,5.95 -34.02,18.69 l -1.99,-10.48 c 11.62,-16.14 27.5,-18.97 36.29,-18.97 21.26,0 36.85,16.99 36.85,36.24" /><path
         id="path220"
         style="fill:#010101;fill-opacity:1;fill-rule:evenodd;stroke:none"
         d="m 4655.92,1324.06 c 0,11.89 -0.28,25.76 -5.1,38.5 -7.66,20.39 -21.83,24.35 -31.19,24.35 -11.9,0 -23.24,-5.95 -29.77,-20.1 -5.95,-12.74 -7.08,-27.46 -7.08,-42.75 0,-19.82 1.7,-30.86 7.37,-43.6 5.39,-11.89 17.01,-18.97 29.2,-18.97 11.91,0 23.25,6.51 29.2,18.97 6.24,12.74 7.37,25.76 7.37,43.6 z m -13.61,1.98 c 0,-11.33 0,-23.21 -3.11,-34.54 -4.82,-17.27 -15.03,-19.25 -19.57,-19.25 -23.24,0 -23.24,37.09 -23.24,53.79 0,11.89 0,22.65 3.4,33.12 4.25,12.74 12.19,16.99 19.56,16.99 22.96,0 22.96,-33.41 22.96,-50.11" /><path
         id="path222"
         style="fill:#ffffff;fill-opacity:1;fill-rule:evenodd;stroke:none"
         d="m 3423.83,1521.1 c 102.06,0 180.02,-77.86 180.02,-179.77 0,-101.92 -77.96,-179.77 -180.02,-179.77 -102.06,0 -180.02,77.85 -180.02,179.77 0,101.91 77.96,179.77 180.02,179.77 z m -180.02,0 0,0 z m 360.33,-359.82 0,0" /><g
         transform="scale(1.00071,0.999294)"
         id="g224"><path
           id="path226"
           style="fill:none;stroke:#010101;stroke-width:7.08117008;stroke-linecap:butt;stroke-linejoin:round;stroke-miterlimit:10;stroke-dasharray:none;stroke-opacity:1"
           d="m 3421.13,1522.17 c 101.99,0 179.9,-77.91 179.9,-179.89 0,-101.71 -77.91,-179.62 -179.9,-179.62 -101.99,0 -179.89,77.91 -179.89,179.62 0,101.98 77.9,179.89 179.89,179.89 z" /></g><g
         transform="scale(1.00071,0.999294)"
         id="g228"><path
           id="path230"
           style="fill:none;stroke:#010101;stroke-width:7.08117008;stroke-linecap:butt;stroke-linejoin:round;stroke-miterlimit:10;stroke-dasharray:none;stroke-opacity:1"
           d="m 3241.24,1522.17 0,0 z" /></g><g
         transform="scale(1.00071,0.999294)"
         id="g232"><path
           id="path234"
           style="fill:none;stroke:#010101;stroke-width:7.08117008;stroke-linecap:butt;stroke-linejoin:round;stroke-miterlimit:10;stroke-dasharray:none;stroke-opacity:1"
           d="m 3601.31,1162.38 0,0 z" /></g><path
         id="path236"
         style="fill:#010101;fill-opacity:1;fill-rule:evenodd;stroke:none"
         d="m 3409.66,1265.18 0,10.47 -21.84,0 0,111.26 -3.4,0 c -3.12,-2.84 -11.62,-11.61 -31.18,-11.61 -2.27,0 -2.55,0 -2.55,-3.4 l 0,-7.36 c 11.05,0 19.27,2.83 22.96,4.25 l 0,-93.14 -21.83,0 0,-10.47 57.84,0" /><path
         id="path238"
         style="fill:#010101;fill-opacity:1;fill-rule:evenodd;stroke:none"
         d="m 3504.06,1324.06 c 0,11.89 -0.28,25.76 -5.1,38.5 -7.66,20.39 -21.83,24.35 -31.19,24.35 -11.91,0 -23.25,-5.95 -29.77,-20.1 -5.95,-12.74 -7.08,-27.46 -7.08,-42.75 0,-19.82 1.7,-30.86 7.37,-43.6 5.39,-11.89 17.01,-18.97 29.2,-18.97 11.9,0 23.24,6.51 29.2,18.97 6.24,12.74 7.37,25.76 7.37,43.6 z m -13.61,1.98 c 0,-11.33 0,-23.21 -3.12,-34.54 -4.81,-17.27 -15.02,-19.25 -19.56,-19.25 -23.25,0 -23.25,37.09 -23.25,53.79 0,11.89 0,22.65 3.41,33.12 4.25,12.74 12.19,16.99 19.56,16.99 22.96,0 22.96,-33.41 22.96,-50.11" /><path
         id="path240"
         style="fill:#ffffff;fill-opacity:1;fill-rule:evenodd;stroke:none"
         d="m 3783.59,945.836 c 102.06,0 180.02,-77.852 180.02,-179.484 0,-101.914 -77.96,-179.77 -180.02,-179.77 -101.77,0 -179.74,77.856 -179.74,179.77 0,101.632 77.97,179.484 179.74,179.484 z m -179.74,0 0,0 z m 360.05,-359.535 0,0" /><g
         transform="scale(1.00071,0.999294)"
         id="g242"><path
           id="path244"
           style="fill:none;stroke:#010101;stroke-width:7.08117008;stroke-linecap:butt;stroke-linejoin:round;stroke-miterlimit:10;stroke-dasharray:none;stroke-opacity:1"
           d="m 3780.92,946.789 c 101.99,0 179.9,-77.906 179.9,-179.896 0,-101.986 -77.91,-179.897 -179.9,-179.897 -101.99,0 -179.89,77.911 -179.89,179.897 0,101.99 77.9,179.896 179.89,179.896 z" /></g><g
         transform="scale(1.00071,0.999294)"
         id="g246"><path
           id="path248"
           style="fill:none;stroke:#010101;stroke-width:7.08117008;stroke-linecap:butt;stroke-linejoin:round;stroke-miterlimit:10;stroke-dasharray:none;stroke-opacity:1"
           d="m 3601.03,946.789 0,0 z" /></g><g
         transform="scale(1.00071,0.999294)"
         id="g250"><path
           id="path252"
           style="fill:none;stroke:#010101;stroke-width:7.08117008;stroke-linecap:butt;stroke-linejoin:round;stroke-miterlimit:10;stroke-dasharray:none;stroke-opacity:1"
           d="m 3961.1,586.715 0,0 z" /></g><path
         id="path254"
         style="fill:#010101;fill-opacity:1;fill-rule:evenodd;stroke:none"
         d="m 3769.7,690.199 0,10.473 -21.83,0 0,111.258 -3.4,0 c -3.12,-2.828 -11.63,-11.606 -31.19,-11.606 -2.26,0 -2.55,0 -2.55,-3.398 l 0,-7.36 c 11.06,0 19.28,2.832 22.97,4.247 l 0,-93.141 -21.83,0 0,-10.473 57.83,0" /><path
         id="path256"
         style="fill:#010101;fill-opacity:1;fill-rule:evenodd;stroke:none"
         d="m 3862.69,727 c 0,22.367 -15.03,39.918 -33.17,39.918 -7.09,0 -13.89,-2.547 -19,-7.078 l 0,37.371 46.21,0 0,11.039 -58.96,0 0,-66.246 11.62,0 c 4.54,10.191 12.47,14.156 19.84,14.156 8.51,0 18.15,-7.644 18.15,-28.875 0,-22.933 -13.04,-30.012 -23.53,-30.012 -9.92,0 -21.83,5.379 -27.5,16.704 l -5.96,-9.625 c 11.91,-17.551 28.92,-17.551 33.74,-17.551 21.26,0 38.56,17.836 38.56,40.199" /><path
         id="path258"
         style="fill:#ffffff;fill-opacity:1;fill-rule:evenodd;stroke:none"
         d="m 3063.79,945.836 c 102.05,0 180.02,-77.852 180.02,-179.484 0,-101.914 -77.97,-179.77 -180.02,-179.77 -102.07,0 -180.03,77.856 -180.03,179.77 0,101.632 77.96,179.484 180.03,179.484 z m -180.03,0 0,0 z m 360.33,-359.535 0,0" /><g
         transform="scale(1.00071,0.999294)"
         id="g260"><path
           id="path262"
           style="fill:none;stroke:#010101;stroke-width:7.08117008;stroke-linecap:butt;stroke-linejoin:round;stroke-miterlimit:10;stroke-dasharray:none;stroke-opacity:1"
           d="m 3061.34,946.789 c 101.99,0 179.9,-77.906 179.9,-179.896 0,-101.986 -77.91,-179.897 -179.9,-179.897 -101.99,0 -179.9,77.911 -179.9,179.897 0,101.99 77.91,179.896 179.9,179.896 z" /></g><g
         transform="scale(1.00071,0.999294)"
         id="g264"><path
           id="path266"
           style="fill:none;stroke:#010101;stroke-width:7.08117008;stroke-linecap:butt;stroke-linejoin:round;stroke-miterlimit:10;stroke-dasharray:none;stroke-opacity:1"
           d="m 2881.44,946.789 0,0 z" /></g><g
         transform="scale(1.00071,0.999294)"
         id="g268"><path
           id="path270"
           style="fill:none;stroke:#010101;stroke-width:7.08117008;stroke-linecap:butt;stroke-linejoin:round;stroke-miterlimit:10;stroke-dasharray:none;stroke-opacity:1"
           d="m 3241.52,586.715 0,0 z" /></g><path
         id="path272"
         style="fill:#010101;fill-opacity:1;fill-rule:evenodd;stroke:none"
         d="m 3100.07,796.645 0,11.324 -73.14,0 0,-12.176 33.45,0 c 2.27,0 4.26,0.285 6.52,0.285 l 21.55,0 c -10.77,-12.742 -41.96,-48.695 -41.96,-107.863 l 14.74,0 c 0,46.996 19.28,85.215 38.84,108.43" /><path
         id="path274"
         style="fill:#ffffff;fill-opacity:1;fill-rule:evenodd;stroke:none"
         d="m 3567.85,370.859 c 102.06,0 180.02,-77.851 180.02,-179.765 0,-101.9182 -77.96,-179.7698 -180.02,-179.7698 -102.06,0 -180.03,77.8516 -180.03,179.7698 0,101.914 77.97,179.765 180.03,179.765 z m -180.03,0 0,0 z m 360.33,-359.8199 0,0" /><g
         transform="scale(1.00071,0.999294)"
         id="g276"><path
           id="path278"
           style="fill:none;stroke:#010101;stroke-width:7.08117008;stroke-linecap:butt;stroke-linejoin:round;stroke-miterlimit:10;stroke-dasharray:none;stroke-opacity:1"
           d="m 3565.05,371.121 c 101.99,0 179.89,-77.906 179.89,-179.611 0,-101.9859 -77.9,-179.8963 -179.89,-179.8963 -101.99,0 -179.9,77.9104 -179.9,179.8963 0,101.705 77.91,179.611 179.9,179.611 z" /></g><g
         transform="scale(1.00071,0.999294)"
         id="g280"><path
           id="path282"
           style="fill:none;stroke:#010101;stroke-width:7.08117008;stroke-linecap:butt;stroke-linejoin:round;stroke-miterlimit:10;stroke-dasharray:none;stroke-opacity:1"
           d="m 3385.15,371.121 0,0 z" /></g><g
         transform="scale(1.00071,0.999294)"
         id="g284"><path
           id="path286"
           style="fill:none;stroke:#010101;stroke-width:7.08117008;stroke-linecap:butt;stroke-linejoin:round;stroke-miterlimit:10;stroke-dasharray:none;stroke-opacity:1"
           d="m 3745.23,11.3322 0,0 z" /></g><path
         id="path288"
         style="fill:#010101;fill-opacity:1;fill-rule:evenodd;stroke:none"
         d="m 3553.67,114.938 0,10.476 -21.83,0 0,111.258 -3.4,0 c -3.12,-2.832 -11.62,-11.609 -31.18,-11.609 -2.27,0 -2.56,0 -2.56,-3.395 l 0,-7.363 c 11.06,0 19.28,2.832 22.97,4.25 l 0,-93.141 -21.83,0 0,-10.476 57.83,0" /><path
         id="path290"
         style="fill:#010101;fill-opacity:1;fill-rule:evenodd;stroke:none"
         d="m 3646.66,114.938 0,12.175 -32.03,0 c -1.99,0 -4.26,0 -6.24,0 l -19.28,0 c 4.53,4.813 21.26,21.231 32.89,31.707 13.32,11.891 24.66,22.93 24.66,39.633 0,19.817 -13.61,38.219 -37.42,38.219 -19.56,0 -29.49,-12.738 -34.31,-29.442 5.68,-7.363 5.68,-7.644 7.37,-9.91 4.54,19.25 11.06,28.309 24.39,28.309 15.59,0 25.79,-12.172 25.79,-27.742 0,-9.344 -3.96,-19.817 -15.87,-31.707 l -40.26,-39.918 0,-11.324 70.31,0" /><path
         id="path292"
         style="fill:#ffffff;fill-opacity:1;fill-rule:evenodd;stroke:none"
         d="m 4935.73,945.836 c 102.07,0 180.03,-77.852 180.03,-179.484 0,-101.914 -77.96,-179.77 -180.03,-179.77 -102.05,0 -180.02,77.856 -180.02,179.77 0,101.632 77.97,179.484 180.02,179.484 z m -180.02,0 0,0 z m 360.33,-359.535 0,0" /><g
         transform="scale(1.00071,0.999294)"
         id="g294"><path
           id="path296"
           style="fill:none;stroke:#010101;stroke-width:7.08117008;stroke-linecap:butt;stroke-linejoin:round;stroke-miterlimit:10;stroke-dasharray:none;stroke-opacity:1"
           d="m 4932.25,946.789 c 101.99,0 179.9,-77.906 179.9,-179.896 0,-101.986 -77.91,-179.897 -179.9,-179.897 -101.98,0 -179.89,77.911 -179.89,179.897 0,101.99 77.91,179.896 179.89,179.896 z" /></g><g
         transform="scale(1.00071,0.999294)"
         id="g298"><path
           id="path300"
           style="fill:none;stroke:#010101;stroke-width:7.08117008;stroke-linecap:butt;stroke-linejoin:round;stroke-miterlimit:10;stroke-dasharray:none;stroke-opacity:1"
           d="m 4752.36,946.789 0,0 z" /></g><g
         transform="scale(1.00071,0.999294)"
         id="g302"><path
           id="path304"
           style="fill:none;stroke:#010101;stroke-width:7.08117008;stroke-linecap:butt;stroke-linejoin:round;stroke-miterlimit:10;stroke-dasharray:none;stroke-opacity:1"
           d="m 5112.43,586.715 0,0 z" /></g><path
         id="path306"
         style="fill:#010101;fill-opacity:1;fill-rule:evenodd;stroke:none"
         d="m 4927.23,722.754 c 0,13.871 -9.07,26.047 -24.38,31.141 12.76,7.078 19.56,18.968 19.56,30.859 0,15.57 -14.46,27.176 -32.03,27.176 -14.18,0 -27.22,-7.926 -34.02,-19.817 l 6.52,-9.625 c 4.25,11.606 15.3,19.25 27.5,19.25 9.07,0 17.85,-5.093 17.85,-16.984 0,-11.891 -8.5,-21.801 -18.14,-24.063 -0.85,-0.285 -12.19,-1.132 -13.89,-1.132 l 0,-11.043 12.76,0 c 18.43,0 22.96,-15.852 22.96,-25.762 0,-14.438 -8.79,-25.481 -21.83,-25.481 -11.62,0 -25.8,5.946 -34.02,18.688 l -1.98,-10.477 c 11.62,-16.136 27.5,-18.968 36.29,-18.968 21.26,0 36.85,16.988 36.85,36.238" /><path
         id="path308"
         style="fill:#010101;fill-opacity:1;fill-rule:evenodd;stroke:none"
         d="m 5014.55,727 c 0,22.367 -15.03,39.918 -33.17,39.918 -7.09,0 -13.89,-2.547 -19,-7.078 l 0,37.371 46.21,0 0,11.039 -58.96,0 0,-66.246 11.62,0 c 4.54,10.191 12.47,14.156 19.84,14.156 8.51,0 18.15,-7.644 18.15,-28.875 0,-22.933 -13.04,-30.012 -23.53,-30.012 -9.92,0 -21.83,5.379 -27.5,16.704 l -5.96,-9.625 c 11.91,-17.551 28.92,-17.551 33.74,-17.551 21.26,0 38.56,17.836 38.56,40.199" /><path
         id="path310"
         style="fill:#010101;fill-opacity:1;fill-rule:evenodd;stroke:none"
         d="m 1434.23,1865.35 0,7.07 -14.75,0 0,73.89 -2.27,0 c -1.69,-1.98 -7.65,-7.92 -20.41,-7.92 -1.7,0 -1.98,0 -1.98,-2.27 l 0,-4.81 c 7.37,0 12.76,1.7 15.31,2.83 l 0,-61.72 -14.46,0 0,-7.07 38.56,0" /><path
         id="path312"
         style="fill:#010101;fill-opacity:1;fill-rule:evenodd;stroke:none"
         d="m 1495.75,1865.35 0,8.2 -21.27,0 c -1.41,0 -2.83,-0.28 -4.25,-0.28 l -13.04,0 c 3.12,3.4 14.46,14.44 22.11,21.23 8.79,7.93 16.45,15.29 16.45,26.33 0,13.31 -9.07,25.48 -24.95,25.48 -13.04,0 -19.56,-8.49 -22.96,-19.53 3.96,-4.82 3.96,-5.1 5.1,-6.51 2.83,12.74 7.37,18.68 16.16,18.68 10.49,0 17.01,-8.21 17.01,-18.4 0,-6.23 -2.56,-13.02 -10.49,-20.95 l -26.65,-26.61 0,-7.64 46.78,0" /><path
         id="path314"
         style="fill:#010101;fill-opacity:1;fill-rule:evenodd;stroke:none"
         d="m 1623.04,1864.21 c 0,0.85 -0.29,1.7 -2.27,2.55 l -61.81,28.31 61.81,28.59 c 1.98,0.86 2.27,1.7 2.27,2.55 0,1.13 -0.85,2.27 -2.27,2.27 0,0 -0.29,-0.28 -1.98,-0.85 l -64.93,-30.01 c -1.98,-0.85 -2.27,-1.7 -2.27,-2.26 0,-0.86 0,-1.7 2.27,-2.84 l 64.93,-29.72 c 1.41,-0.85 1.98,-0.85 1.98,-0.85 1.42,0 2.27,0.85 2.27,2.26" /><path
         id="path316"
         style="fill:#010101;fill-opacity:1;fill-rule:evenodd;stroke:none"
         d="m 1725.1,1865.35 0,8.2 -21.26,0 c -1.42,0 -2.84,-0.28 -4.26,-0.28 l -13.04,0 c 3.12,3.4 14.46,14.44 22.12,21.23 8.78,7.93 16.44,15.29 16.44,26.33 0,13.31 -9.07,25.48 -24.95,25.48 -13.04,0 -19.56,-8.49 -22.96,-19.53 3.97,-4.82 3.97,-5.1 5.1,-6.51 2.84,12.74 7.37,18.68 16.16,18.68 10.49,0 17.01,-8.21 17.01,-18.4 0,-6.23 -2.55,-13.02 -10.49,-20.95 l -26.65,-26.61 0,-7.64 46.78,0" /><path
         id="path318"
         style="fill:#010101;fill-opacity:1;fill-rule:evenodd;stroke:none"
         d="m 1784.91,1904.41 c 0,7.93 -0.56,16.99 -3.68,25.48 -5.1,13.59 -14.46,16.14 -20.69,16.14 -7.94,0 -15.6,-3.96 -19.85,-13.31 -3.97,-8.49 -4.82,-18.11 -4.82,-28.31 0,-13.02 1.13,-20.66 5.1,-28.87 3.41,-7.93 11.06,-12.74 19.28,-12.74 7.94,0 15.59,4.24 19.56,12.45 4.26,8.5 5.1,17.27 5.1,29.16 z m -9.35,1.42 c 0,-7.65 0,-15.57 -1.99,-22.93 -3.39,-11.61 -9.92,-13.02 -13.03,-13.02 -15.6,0 -15.6,24.62 -15.6,35.95 0,7.64 0,15 2.27,21.8 2.84,8.49 8.22,11.32 13.04,11.32 15.31,0 15.31,-22.36 15.31,-33.12" /><g
         transform="scale(1.00071,0.999294)"
         id="g320"><path
           id="path322"
           style="fill:none;stroke:#0167ff;stroke-width:21.81410027;stroke-linecap:butt;stroke-linejoin:round;stroke-miterlimit:10;stroke-dasharray:none;stroke-opacity:1"
           d="M 939.138,1836.07 698.05,1594.98" /></g><path
         id="path324"
         style="fill:#0167ff;fill-opacity:1;fill-rule:evenodd;stroke:none"
         d="m 625.684,1521.1 101.777,50.95 -50.746,50.68 -51.031,-101.63" /><g
         transform="scale(1.00071,0.999294)"
         id="g326"><path
           id="path328"
           style="fill:none;stroke:#010101;stroke-width:7.08117008;stroke-linecap:butt;stroke-linejoin:round;stroke-miterlimit:10;stroke-dasharray:none;stroke-opacity:1"
           d="m 1581.66,1820.48 -228.33,0 0,199.73 456.67,0 0,-199.73 -228.34,0 z" /></g><path
         id="path330"
         style="fill:#010101;fill-opacity:1;fill-rule:evenodd;stroke:none"
         d="m 860.988,1285.56 0,7.07 -14.742,0 0,73.89 -2.266,0 c -1.703,-1.98 -7.656,-7.92 -20.414,-7.92 -1.699,0 -1.984,0 -1.984,-2.27 l 0,-4.81 c 7.371,0 12.758,1.7 15.309,2.83 l 0,-61.72 -14.457,0 0,-7.07 38.554,0" /><path
         id="path332"
         style="fill:#010101;fill-opacity:1;fill-rule:evenodd;stroke:none"
         d="m 922.508,1285.56 0,8.21 -21.262,0 c -1.418,0 -2.836,-0.29 -4.254,-0.29 l -13.039,0 c 3.117,3.4 14.457,14.44 22.113,21.23 8.789,7.93 16.442,15.29 16.442,26.33 0,13.31 -9.07,25.48 -24.945,25.48 -13.043,0 -19.563,-8.49 -22.965,-19.53 3.968,-4.81 3.968,-5.1 5.101,-6.51 2.836,12.74 7.371,18.68 16.16,18.68 10.489,0 17.012,-8.21 17.012,-18.4 0,-6.22 -2.551,-13.02 -10.492,-20.95 l -26.649,-26.61 0,-7.64 46.778,0" /><path
         id="path334"
         style="fill:#010101;fill-opacity:1;fill-rule:evenodd;stroke:none"
         d="m 1049.8,1315.57 c 0,0.56 -0.28,1.41 -2.27,2.26 l -64.921,30.01 c -1.699,0.57 -1.984,0.85 -1.984,0.85 -1.414,0 -2.266,-1.42 -2.266,-2.27 0,-1.41 0.852,-1.98 2.551,-2.54 l 61.52,-28.31 -61.805,-28.6 c -2.266,-1.13 -2.266,-1.98 -2.266,-2.54 0,-1.14 0.852,-2.27 2.266,-2.27 0,0 0.285,0 1.984,0.85 l 64.921,29.72 c 2.27,1.14 2.27,1.98 2.27,2.84" /><path
         id="path336"
         style="fill:#010101;fill-opacity:1;fill-rule:evenodd;stroke:none"
         d="m 1149.03,1285.56 0,7.07 -14.74,0 0,73.89 -2.27,0 c -1.7,-1.98 -7.66,-7.92 -20.41,-7.92 -1.71,0 -1.99,0 -1.99,-2.27 l 0,-4.81 c 7.37,0 12.76,1.7 15.31,2.83 l 0,-61.72 -14.46,0 0,-7.07 38.56,0" /><path
         id="path338"
         style="fill:#010101;fill-opacity:1;fill-rule:evenodd;stroke:none"
         d="m 1211.68,1324.63 c 0,7.92 -0.57,16.98 -3.69,25.48 -5.1,13.58 -14.45,16.13 -20.69,16.13 -7.94,0 -15.59,-3.96 -19.85,-13.31 -3.97,-8.49 -4.82,-18.11 -4.82,-28.3 0,-13.03 1.14,-20.67 5.11,-28.88 3.4,-7.93 11.05,-12.74 19.28,-12.74 7.93,0 15.59,4.24 19.55,12.45 4.26,8.5 5.11,17.27 5.11,29.17 z m -9.36,1.41 c 0,-7.64 0,-15.57 -1.98,-22.93 -3.4,-11.61 -9.92,-13.02 -13.04,-13.02 -15.59,0 -15.59,24.62 -15.59,35.95 0,7.64 0,15 2.26,21.8 2.84,8.49 8.23,11.32 13.05,11.32 15.3,0 15.3,-22.36 15.3,-33.12" /><g
         transform="scale(1.00071,0.999294)"
         id="g340"><path
           id="path342"
           style="fill:none;stroke:#010101;stroke-width:7.08117008;stroke-linecap:butt;stroke-linejoin:round;stroke-miterlimit:10;stroke-dasharray:none;stroke-opacity:1"
           d="m 1008.55,1240.29 -228.343,0 0,199.44 456.683,0 0,-199.44 -228.34,0 z" /></g><path
         id="path344"
         style="fill:#010101;fill-opacity:1;fill-rule:evenodd;stroke:none"
         d="m 1214.8,704.637 0,7.078 -14.75,0 0,73.887 -2.26,0 c -1.7,-1.981 -7.66,-7.926 -20.41,-7.926 -1.7,0 -1.99,0 -1.99,-2.266 l 0,-4.812 c 7.37,0 12.76,1.699 15.31,2.832 l 0,-61.715 -14.46,0 0,-7.078 38.56,0" /><path
         id="path346"
         style="fill:#010101;fill-opacity:1;fill-rule:evenodd;stroke:none"
         d="m 1276.32,704.637 0,8.211 -21.27,0 c -1.41,0 -2.83,-0.285 -4.25,-0.285 l -13.04,0 c 3.12,3.398 14.46,14.437 22.12,21.234 8.78,7.926 16.44,15.285 16.44,26.328 0,13.305 -9.07,25.477 -24.95,25.477 -13.04,0 -19.56,-8.493 -22.96,-19.532 3.97,-4.812 3.97,-5.097 5.1,-6.511 2.83,12.738 7.37,18.683 16.16,18.683 10.49,0 17.01,-8.211 17.01,-18.402 0,-6.227 -2.55,-13.024 -10.49,-20.949 l -26.65,-26.61 0,-7.644 46.78,0" /><path
         id="path348"
         style="fill:#010101;fill-opacity:1;fill-rule:evenodd;stroke:none"
         d="m 1403.61,703.504 c 0,0.848 -0.29,1.699 -2.27,2.547 l -61.8,28.312 61.8,28.59 c 1.98,0.852 2.27,1.699 2.27,2.551 0,1.133 -0.85,2.262 -2.27,2.262 0,0 -0.28,-0.282 -1.98,-0.848 l -64.93,-30.008 c -1.98,-0.851 -2.26,-1.699 -2.26,-2.265 0,-0.848 0,-1.7 2.26,-2.832 l 64.93,-29.723 c 1.41,-0.852 1.98,-0.852 1.98,-0.852 1.42,0 2.27,0.852 2.27,2.266" /><path
         id="path350"
         style="fill:#010101;fill-opacity:1;fill-rule:evenodd;stroke:none"
         d="m 1502.83,704.637 0,7.078 -14.74,0 0,73.887 -2.27,0 c -1.7,-1.981 -7.65,-7.926 -20.41,-7.926 -1.7,0 -1.98,0 -1.98,-2.266 l 0,-4.812 c 7.37,0 12.75,1.699 15.3,2.832 l 0,-61.715 -14.45,0 0,-7.078 38.55,0" /><path
         id="path352"
         style="fill:#010101;fill-opacity:1;fill-rule:evenodd;stroke:none"
         d="m 1564.35,728.984 c 0,15.004 -9.92,26.61 -22.11,26.61 -4.82,0 -9.36,-1.699 -12.76,-4.813 l 0,24.914 30.9,0 0,7.36 -39.4,0 0,-44.164 7.93,0 c 2.84,6.793 8.23,9.625 13.05,9.625 5.67,0 12.19,-5.094 12.19,-19.25 0,-15.289 -8.79,-19.817 -15.6,-19.817 -6.8,0 -14.45,3.399 -18.42,11.039 l -3.97,-6.511 c 7.94,-11.606 19.28,-11.606 22.39,-11.606 14.18,0 25.8,11.891 25.8,26.613" /><g
         transform="scale(1.00071,0.999294)"
         id="g354"><path
           id="path356"
           style="fill:none;stroke:#010101;stroke-width:7.08117008;stroke-linecap:butt;stroke-linejoin:round;stroke-miterlimit:10;stroke-dasharray:none;stroke-opacity:1"
           d="m 1362.39,658.672 -228.34,0 0,199.727 456.68,0 0,-199.727 -228.34,0 z" /></g><path
         id="path358"
         style="fill:#010101;fill-opacity:1;fill-rule:evenodd;stroke:none"
         d="m 1017.77,131.641 0,7.078 -14.75,0 0,73.89 -2.27,0 c -1.695,-1.984 -7.648,-7.929 -20.406,-7.929 -1.703,0 -1.985,0 -1.985,-2.262 l 0,-4.813 c 7.371,0 12.758,1.696 15.309,2.829 l 0,-61.715 -14.457,0 0,-7.078 38.559,0" /><path
         id="path360"
         style="fill:#010101;fill-opacity:1;fill-rule:evenodd;stroke:none"
         d="m 1079.29,131.641 0,8.211 -21.27,0 c -1.41,0 -2.83,-0.286 -4.25,-0.286 l -13.04,0 c 3.12,3.399 14.46,14.442 22.11,21.235 8.79,7.926 16.45,15.289 16.45,26.328 0,13.305 -9.08,25.48 -24.95,25.48 -13.04,0 -19.57,-8.496 -22.96,-19.535 3.96,-4.812 3.96,-5.097 5.1,-6.511 2.83,12.738 7.37,18.683 16.16,18.683 10.49,0 17,-8.207 17,-18.398 0,-6.231 -2.55,-13.024 -10.48,-20.953 l -26.65,-26.61 0,-7.644 46.78,0" /><path
         id="path362"
         style="fill:#010101;fill-opacity:1;fill-rule:evenodd;stroke:none"
         d="m 1209.98,172.973 c 0,2.265 -1.99,2.265 -3.69,2.265 l -70.87,0 c -1.71,0 -3.69,0 -3.69,-2.265 0,-2.262 1.98,-2.262 3.69,-2.262 l 70.87,0 c 1.42,0 3.69,0 3.69,2.262 z m 0,-22.93 c 0,2.266 -1.99,2.266 -3.69,2.266 l -70.87,0 c -1.71,0 -3.69,0 -3.69,-2.266 0,-2.266 1.98,-2.266 3.69,-2.266 l 70.87,0 c 1.42,0 3.69,0 3.69,2.266" /><path
         id="path364"
         style="fill:#010101;fill-opacity:1;fill-rule:evenodd;stroke:none"
         d="m 1305.8,131.641 0,7.078 -14.74,0 0,73.89 -2.27,0 c -1.7,-1.984 -7.65,-7.929 -20.41,-7.929 -1.7,0 -1.99,0 -1.99,-2.262 l 0,-4.813 c 7.38,0 12.76,1.696 15.31,2.829 l 0,-61.715 -14.45,0 0,-7.078 38.55,0" /><path
         id="path366"
         style="fill:#010101;fill-opacity:1;fill-rule:evenodd;stroke:none"
         d="m 1367.32,131.641 0,8.211 -21.26,0 c -1.42,0 -2.84,-0.286 -4.26,-0.286 l -13.03,0 c 3.11,3.399 14.45,14.442 22.11,21.235 8.79,7.926 16.44,15.289 16.44,26.328 0,13.305 -9.07,25.48 -24.95,25.48 -13.04,0 -19.56,-8.496 -22.96,-19.535 3.97,-4.812 3.97,-5.097 5.1,-6.511 2.84,12.738 7.37,18.683 16.16,18.683 10.49,0 17.01,-8.207 17.01,-18.398 0,-6.231 -2.55,-13.024 -10.49,-20.953 l -26.65,-26.61 0,-7.644 46.78,0" /><g
         transform="scale(1.00071,0.999294)"
         id="g368"><path
           id="path370"
           style="fill:none;stroke:#010101;stroke-width:7.08117008;stroke-linecap:butt;stroke-linejoin:round;stroke-miterlimit:10;stroke-dasharray:none;stroke-opacity:1"
           d="m 1165.21,85.5565 -228.336,0 0,199.4415 456.676,0 0,-199.4415 -228.34,0 z" /></g><g
         transform="scale(1.00071,0.999294)"
         id="g372"><path
           id="path374"
           style="fill:none;stroke:#0167ff;stroke-width:21.81410027;stroke-linecap:butt;stroke-linejoin:round;stroke-miterlimit:10;stroke-dasharray:none;stroke-opacity:1"
           d="M 606.544,1144.53 699.186,996.367" /></g><path
         id="path376"
         style="fill:#0167ff;fill-opacity:1;fill-rule:evenodd;stroke:none"
         d="m 754.395,908.184 -26.649,110.406 -61.238,-37.93 87.887,-72.476" /><g
         transform="scale(1.00071,0.999294)"
         id="g378"><path
           id="path380"
           style="fill:none;stroke:#0167ff;stroke-width:21.81410027;stroke-linecap:butt;stroke-linejoin:round;stroke-miterlimit:10;stroke-dasharray:none;stroke-opacity:1"
           d="M 780.492,606.545 737.148,482.176" /></g><path
         id="path382"
         style="fill:#0167ff;fill-opacity:1;fill-rule:evenodd;stroke:none"
         d="m 703.93,384.449 69.457,90.028 -68.039,23.781 -1.418,-113.809" /><path
         id="path384"
         style="fill:#010101;fill-opacity:1;fill-rule:evenodd;stroke:none"
         d="m 4328.76,1865.06 0,8.21 -21.26,0 c -1.42,0 -2.84,-0.28 -4.25,-0.28 l -13.04,0 c 3.11,3.4 14.45,14.44 22.11,21.23 8.79,7.93 16.44,15.29 16.44,26.33 0,13.31 -9.07,25.48 -24.95,25.48 -13.04,0 -19.56,-8.49 -22.96,-19.53 3.97,-4.82 3.97,-5.1 5.1,-6.52 2.84,12.74 7.37,18.69 16.16,18.69 10.49,0 17.01,-8.21 17.01,-18.4 0,-6.23 -2.55,-13.02 -10.49,-20.95 l -26.65,-26.61 0,-7.65 46.78,0" /><path
         id="path386"
         style="fill:#010101;fill-opacity:1;fill-rule:evenodd;stroke:none"
         d="m 4388.58,1935.84 0,7.64 -49.04,0 0,-8.21 22.39,0 c 1.42,0 2.84,0 4.25,0 l 14.46,0 c -7.09,-8.21 -28.07,-32.27 -28.07,-71.62 l 9.93,0 c 0,31.14 12.75,56.9 26.08,72.19" /><path
         id="path388"
         style="fill:#010101;fill-opacity:1;fill-rule:evenodd;stroke:none"
         d="m 4514.74,1895.07 c 0,0.57 -0.29,1.42 -2.27,2.27 l -64.92,30 c -1.7,0.57 -1.99,0.86 -1.99,0.86 -1.42,0 -2.26,-1.42 -2.26,-2.27 0,-1.41 0.84,-1.98 2.55,-2.55 l 61.52,-28.31 -61.81,-28.59 c -2.26,-1.13 -2.26,-1.98 -2.26,-2.55 0,-1.13 0.84,-2.27 2.26,-2.27 0,0 0.29,0 1.99,0.86 l 64.92,29.72 c 2.27,1.13 2.27,1.98 2.27,2.83" /><path
         id="path390"
         style="fill:#010101;fill-opacity:1;fill-rule:evenodd;stroke:none"
         d="m 4616.8,1865.06 0,8.21 -21.26,0 c -1.42,0 -2.84,-0.28 -4.26,-0.28 l -13.04,0 c 3.12,3.4 14.46,14.44 22.12,21.23 8.78,7.93 16.44,15.29 16.44,26.33 0,13.31 -9.07,25.48 -24.95,25.48 -13.04,0 -19.56,-8.49 -22.96,-19.53 3.97,-4.82 3.97,-5.1 5.1,-6.52 2.83,12.74 7.37,18.69 16.16,18.69 10.49,0 17.01,-8.21 17.01,-18.4 0,-6.23 -2.55,-13.02 -10.49,-20.95 l -26.65,-26.61 0,-7.65 46.78,0" /><path
         id="path392"
         style="fill:#010101;fill-opacity:1;fill-rule:evenodd;stroke:none"
         d="m 4676.62,1904.13 c 0,7.93 -0.57,16.99 -3.69,25.48 -5.1,13.59 -14.46,16.14 -20.7,16.14 -7.93,0 -15.59,-3.97 -19.84,-13.31 -3.97,-8.49 -4.82,-18.12 -4.82,-28.31 0,-13.02 1.13,-20.67 5.1,-28.88 3.4,-7.92 11.06,-12.73 19.28,-12.73 7.94,0 15.59,4.24 19.56,12.45 4.26,8.49 5.11,17.27 5.11,29.16 z m -9.36,1.42 c 0,-7.65 0,-15.57 -1.98,-22.94 -3.4,-11.6 -9.93,-13.02 -13.05,-13.02 -15.59,0 -15.59,24.63 -15.59,35.96 0,7.64 0,15 2.27,21.79 2.84,8.5 8.22,11.33 13.04,11.33 15.31,0 15.31,-22.37 15.31,-33.12" /><g
         transform="scale(1.00071,0.999294)"
         id="g394"><path
           id="path396"
           style="fill:none;stroke:#010101;stroke-width:7.08117008;stroke-linecap:butt;stroke-linejoin:round;stroke-miterlimit:10;stroke-dasharray:none;stroke-opacity:1"
           d="m 4471.32,1820.2 -228.33,0 0,199.73 456.67,0 0,-199.73 -228.34,0 z" /></g><path
         id="path398"
         style="fill:#010101;fill-opacity:1;fill-rule:evenodd;stroke:none"
         d="m 4888.96,1298.86 0,8.21 -21.26,0 c -1.42,0 -2.84,-0.28 -4.26,-0.28 l -13.04,0 c 3.12,3.4 14.46,14.44 22.12,21.23 8.78,7.93 16.44,15.29 16.44,26.33 0,13.31 -9.07,25.48 -24.95,25.48 -13.04,0 -19.56,-8.49 -22.96,-19.53 3.97,-4.82 3.97,-5.1 5.1,-6.51 2.83,12.73 7.37,18.68 16.16,18.68 10.49,0 17.01,-8.21 17.01,-18.4 0,-6.23 -2.55,-13.03 -10.49,-20.95 l -26.65,-26.61 0,-7.65 46.78,0" /><path
         id="path400"
         style="fill:#010101;fill-opacity:1;fill-rule:evenodd;stroke:none"
         d="m 4948.78,1369.64 0,7.64 -49.05,0 0,-8.21 22.4,0 c 1.41,0 2.83,0 4.25,0 l 14.46,0 c -7.09,-8.21 -28.07,-32.27 -28.07,-71.62 l 9.93,0 c 0,31.14 12.75,56.9 26.08,72.19" /><path
         id="path402"
         style="fill:#010101;fill-opacity:1;fill-rule:evenodd;stroke:none"
         d="m 5074.93,1297.73 c 0,0.85 -0.28,1.7 -2.27,2.55 l -61.8,28.31 61.8,28.59 c 1.99,0.85 2.27,1.7 2.27,2.55 0,1.13 -0.85,2.26 -2.27,2.26 0,0 -0.28,-0.28 -1.98,-0.85 l -64.92,-30 c -1.99,-0.85 -2.27,-1.7 -2.27,-2.27 0,-0.85 0,-1.7 2.27,-2.83 l 64.92,-29.72 c 1.42,-0.86 1.98,-0.86 1.98,-0.86 1.42,0 2.27,0.86 2.27,2.27" /><path
         id="path404"
         style="fill:#010101;fill-opacity:1;fill-rule:evenodd;stroke:none"
         d="m 5178.13,1320.38 c 0,9.34 -6.24,17.27 -16.45,20.95 8.51,4.53 13.05,12.46 13.05,20.38 0,10.48 -9.64,18.12 -21.27,18.12 -9.64,0 -18.14,-5.38 -22.68,-13.31 l 4.26,-6.22 c 2.83,7.64 10.2,12.74 18.14,12.74 6.24,0 11.91,-3.4 11.91,-11.33 0,-7.92 -5.39,-14.72 -11.91,-16.14 -0.57,0 -8.22,-0.56 -9.36,-0.84 l 0,-7.08 8.51,0 c 12.47,0 15.31,-10.48 15.31,-17.27 0,-9.63 -5.96,-16.99 -14.46,-16.99 -7.66,0 -17.29,3.97 -22.68,12.46 l -1.42,-7.08 c 7.94,-10.47 18.43,-12.45 24.38,-12.45 13.9,0 24.67,11.32 24.67,24.06" /><path
         id="path406"
         style="fill:#010101;fill-opacity:1;fill-rule:evenodd;stroke:none"
         d="m 5236.81,1337.93 c 0,7.93 -0.56,16.99 -3.68,25.48 -5.11,13.59 -14.46,16.14 -20.7,16.14 -7.94,0 -15.59,-3.97 -19.84,-13.31 -3.97,-8.49 -4.82,-18.12 -4.82,-28.31 0,-13.02 1.13,-20.66 5.1,-28.88 3.4,-7.92 11.06,-12.73 19.28,-12.73 7.94,0 15.59,4.24 19.56,12.45 4.25,8.5 5.1,17.27 5.1,29.16 z m -9.35,1.42 c 0,-7.65 0,-15.57 -1.99,-22.94 -3.4,-11.6 -9.92,-13.02 -13.04,-13.02 -15.59,0 -15.59,24.63 -15.59,35.96 0,7.64 0,15 2.27,21.79 2.83,8.5 8.22,11.33 13.04,11.33 15.31,0 15.31,-22.36 15.31,-33.12" /><g
         transform="scale(1.00071,0.999294)"
         id="g408"><path
           id="path410"
           style="fill:none;stroke:#010101;stroke-width:7.08117008;stroke-linecap:butt;stroke-linejoin:round;stroke-miterlimit:10;stroke-dasharray:none;stroke-opacity:1"
           d="m 5031.12,1253.6 -228.33,0 0,199.45 456.39,0 0,-199.45 -228.06,0 z" /></g><g
         transform="scale(1.00071,0.999294)"
         id="g412"><path
           id="path414"
           style="fill:none;stroke:#0167ff;stroke-width:21.81410027;stroke-linecap:butt;stroke-linejoin:round;stroke-miterlimit:10;stroke-dasharray:none;stroke-opacity:1"
           d="m 4186.33,1803.49 203.69,-203.13" /></g><path
         id="path416"
         style="fill:#0167ff;fill-opacity:1;fill-rule:evenodd;stroke:none"
         d="m 4466.26,1526.48 -51.03,101.63 -50.75,-50.96 101.78,-50.67" /><g
         transform="scale(1.00071,0.999294)"
         id="g418"><path
           id="path420"
           style="fill:none;stroke:#0167ff;stroke-width:21.81410027;stroke-linecap:butt;stroke-linejoin:round;stroke-miterlimit:10;stroke-dasharray:none;stroke-opacity:1"
           d="m 4471.04,1162.38 -49.58,-99.44" /></g><path
         id="path422"
         style="fill:#0167ff;fill-opacity:1;fill-rule:evenodd;stroke:none"
         d="m 4378.66,969.902 80.23,80.398 -64.35,32.27 -15.88,-112.668" /><path
         id="path424"
         style="fill:#ffffff;fill-opacity:1;fill-rule:evenodd;stroke:none"
         d="m 4312.32,945.555 c 102.06,0 180.02,-77.852 180.02,-179.485 0,-101.918 -77.96,-179.769 -180.02,-179.769 -102.06,0 -180.02,77.851 -180.02,179.769 0,101.633 77.96,179.485 180.02,179.485 z m -180.02,0 0,0 z m 360.33,-359.539 0,0" /><g
         transform="scale(1.00071,0.999294)"
         id="g426"><path
           id="path428"
           style="fill:none;stroke:#ff0101;stroke-width:21.81410027;stroke-linecap:butt;stroke-linejoin:round;stroke-miterlimit:10;stroke-dasharray:none;stroke-opacity:1"
           d="m 4278.11,943.674 c 10.2,1.696 20.68,2.549 31.17,2.549 14.73,0 28.61,-1.701 42.21,-4.535" /></g><g
         transform="scale(1.00071,0.999294)"
         id="g430"><path
           id="path432"
           style="fill:none;stroke:#ff0101;stroke-width:21.81410027;stroke-linecap:butt;stroke-linejoin:round;stroke-miterlimit:10;stroke-dasharray:none;stroke-opacity:1"
           d="m 4391.43,927.526 c 12.75,-6.235 24.65,-14.166 35.42,-23.231" /></g><g
         transform="scale(1.00071,0.999294)"
         id="g434"><path
           id="path436"
           style="fill:none;stroke:#ff0101;stroke-width:21.81410027;stroke-linecap:butt;stroke-linejoin:round;stroke-miterlimit:10;stroke-dasharray:none;stroke-opacity:1"
           d="m 4455.46,873.132 c 8.21,-11.332 15.01,-23.517 20.4,-36.831" /></g><g
         transform="scale(1.00071,0.999294)"
         id="g438"><path
           id="path440"
           style="fill:none;stroke:#ff0101;stroke-width:21.81410027;stroke-linecap:butt;stroke-linejoin:round;stroke-miterlimit:10;stroke-dasharray:none;stroke-opacity:1"
           d="m 4486.91,795.507 c 1.41,-9.35 2.26,-18.982 2.26,-28.896 0,-4.534 -0.28,-9.068 -0.57,-13.599" /></g><g
         transform="scale(1.00071,0.999294)"
         id="g442"><path
           id="path444"
           style="fill:none;stroke:#ff0101;stroke-width:21.81410027;stroke-linecap:butt;stroke-linejoin:round;stroke-miterlimit:10;stroke-dasharray:none;stroke-opacity:1"
           d="m 4481.24,711.365 c -4.25,-13.599 -10.2,-26.628 -17.28,-38.812" /></g><g
         transform="scale(1.00071,0.999294)"
         id="g446"><path
           id="path448"
           style="fill:none;stroke:#ff0101;stroke-width:21.81410027;stroke-linecap:butt;stroke-linejoin:round;stroke-miterlimit:10;stroke-dasharray:none;stroke-opacity:1"
           d="m 4438.18,639.123 c -9.92,-9.913 -20.97,-18.697 -33.15,-26.061" /></g><g
         transform="scale(1.00071,0.999294)"
         id="g450"><path
           id="path452"
           style="fill:none;stroke:#ff0101;stroke-width:21.81410027;stroke-linecap:butt;stroke-linejoin:round;stroke-miterlimit:10;stroke-dasharray:none;stroke-opacity:1"
           d="m 4366.5,595.495 c -13.31,-4.25 -27.19,-7.08 -41.64,-8.213" /></g><g
         transform="scale(1.00071,0.999294)"
         id="g454"><path
           id="path456"
           style="fill:none;stroke:#ff0101;stroke-width:21.81410027;stroke-linecap:butt;stroke-linejoin:round;stroke-miterlimit:10;stroke-dasharray:none;stroke-opacity:1"
           d="m 4282.36,588.697 c -14.45,1.982 -28.04,5.383 -41.08,10.484" /></g><g
         transform="scale(1.00071,0.999294)"
         id="g458"><path
           id="path460"
           style="fill:none;stroke:#ff0101;stroke-width:21.81410027;stroke-linecap:butt;stroke-linejoin:round;stroke-miterlimit:10;stroke-dasharray:none;stroke-opacity:1"
           d="m 4204.17,619.011 c -11.61,8.217 -22.38,17.849 -31.44,28.329" /></g><g
         transform="scale(1.00071,0.999294)"
         id="g462"><path
           id="path464"
           style="fill:none;stroke:#ff0101;stroke-width:21.81410027;stroke-linecap:butt;stroke-linejoin:round;stroke-miterlimit:10;stroke-dasharray:none;stroke-opacity:1"
           d="m 4148.93,682.751 c -6.23,12.185 -11.05,25.499 -14.45,39.665" /></g><g
         transform="scale(1.00071,0.999294)"
         id="g466"><path
           id="path468"
           style="fill:none;stroke:#ff0101;stroke-width:21.81410027;stroke-linecap:butt;stroke-linejoin:round;stroke-miterlimit:10;stroke-dasharray:none;stroke-opacity:1"
           d="m 4129.38,764.344 c 0,0.848 0,1.415 0,2.267 0,13.881 1.42,27.195 4.25,39.943" /></g><g
         transform="scale(1.00071,0.999294)"
         id="g470"><path
           id="path472"
           style="fill:none;stroke:#ff0101;stroke-width:21.81410027;stroke-linecap:butt;stroke-linejoin:round;stroke-miterlimit:10;stroke-dasharray:none;stroke-opacity:1"
           d="m 4147.23,846.5 c 6.23,13.033 13.88,24.932 22.66,35.697" /></g><g
         transform="scale(1.00071,0.999294)"
         id="g474"><path
           id="path476"
           style="fill:none;stroke:#ff0101;stroke-width:21.81410027;stroke-linecap:butt;stroke-linejoin:round;stroke-miterlimit:10;stroke-dasharray:none;stroke-opacity:1"
           d="m 4200.77,911.378 c 11.05,8.213 23.52,15.296 36.55,20.678" /></g></g></g></svg>