<?xml version="1.0" encoding="UTF-8" standalone="no"?>
<svg
   xmlns:dc="http://purl.org/dc/elements/1.1/"
   xmlns:cc="http://creativecommons.org/ns#"
   xmlns:rdf="http://www.w3.org/1999/02/22-rdf-syntax-ns#"
   xmlns:svg="http://www.w3.org/2000/svg"
   xmlns="http://www.w3.org/2000/svg"
   viewBox="0 0 677.5 265"
   height="265"
   width="677.5"
   xml:space="preserve"
   version="1.1"
   id="svg2"><metadata
     id="metadata8"><rdf:RDF><cc:Work
         rdf:about=""><dc:format>image/svg+xml</dc:format><dc:type
           rdf:resource="http://purl.org/dc/dcmitype/StillImage" /></cc:Work></rdf:RDF></metadata><defs
     id="defs6" /><g
     transform="matrix(1.25,0,0,-1.25,0,265)"
     id="g10"><g
       transform="scale(0.1,0.1)"
       id="g12"><g
         transform="scale(1.00018,0.999824)"
         id="g14"><path
           id="path16"
           style="fill:none;stroke:#010101;stroke-width:7.08492994;stroke-linecap:butt;stroke-linejoin:round;stroke-miterlimit:10;stroke-dasharray:none;stroke-opacity:1"
           d="M 1592.99,1911.87 1017.02,1335.9" /></g><g
         transform="scale(1.00018,0.999824)"
         id="g18"><path
           id="path20"
           style="fill:none;stroke:#010101;stroke-width:7.08492994;stroke-linecap:butt;stroke-linejoin:round;stroke-miterlimit:10;stroke-dasharray:none;stroke-opacity:1"
           d="M 1017.02,1335.9 657.036,760.212" /></g><g
         transform="scale(1.00018,0.999824)"
         id="g22"><path
           id="path24"
           style="fill:none;stroke:#010101;stroke-width:7.08492994;stroke-linecap:butt;stroke-linejoin:round;stroke-miterlimit:10;stroke-dasharray:none;stroke-opacity:1"
           d="M 1377,760.212 1017.02,1335.9" /></g><g
         transform="scale(1.00018,0.999824)"
         id="g26"><path
           id="path28"
           style="fill:none;stroke:#010101;stroke-width:7.08492994;stroke-linecap:butt;stroke-linejoin:round;stroke-miterlimit:10;stroke-dasharray:none;stroke-opacity:1"
           d="M 1592.99,1911.87 2168.96,1335.9" /></g><path
         id="path30"
         style="fill:#ffffff;fill-opacity:1;fill-rule:evenodd;stroke:none"
         d="m 1593.27,2091.21 c 102.06,0 180.02,-77.94 180.02,-179.96 0,-101.74 -77.96,-179.68 -180.02,-179.68 -102.06,0 -180.02,77.94 -180.02,179.68 0,102.02 77.96,179.96 180.02,179.96 z m -180.02,0 0,0 z m 360.32,-359.92 0,0" /><g
         transform="scale(1.00018,0.999824)"
         id="g32"><path
           id="path34"
           style="fill:none;stroke:#010101;stroke-width:7.08492994;stroke-linecap:butt;stroke-linejoin:round;stroke-miterlimit:10;stroke-dasharray:none;stroke-opacity:1"
           d="m 1592.99,2091.86 c 102.04,0 179.99,-77.95 179.99,-179.99 0,-102.04 -77.95,-179.99 -179.99,-179.99 -102.04,0 -179.99,77.95 -179.99,179.99 0,102.04 77.95,179.99 179.99,179.99 z" /></g><g
         transform="scale(1.00018,0.999824)"
         id="g36"><path
           id="path38"
           style="fill:none;stroke:#010101;stroke-width:7.08492994;stroke-linecap:butt;stroke-linejoin:round;stroke-miterlimit:10;stroke-dasharray:none;stroke-opacity:1"
           d="m 1413,2091.86 0,0 z" /></g><g
         transform="scale(1.00018,0.999824)"
         id="g40"><path
           id="path42"
           style="fill:none;stroke:#010101;stroke-width:7.08492994;stroke-linecap:butt;stroke-linejoin:round;stroke-miterlimit:10;stroke-dasharray:none;stroke-opacity:1"
           d="m 1773.26,1731.59 0,0 z" /></g><path
         id="path44"
         style="fill:#010101;fill-opacity:1;fill-rule:evenodd;stroke:none"
         d="m 1579.09,1835.3 0,10.49 -22.11,0 0,111.09 -3.4,0 c -2.83,-3.12 -11.34,-11.62 -30.9,-11.62 -2.55,0 -2.55,-0.29 -2.55,-3.4 l 0,-7.37 c 10.77,0 19.28,2.55 22.96,4.25 l 0,-92.95 -21.83,0 0,-10.49 57.83,0" /><path
         id="path46"
         style="fill:#010101;fill-opacity:1;fill-rule:evenodd;stroke:none"
         d="m 1673.5,1893.96 c 0,12.19 -0.57,25.79 -5.1,38.54 -7.94,20.13 -21.83,24.38 -31.47,24.38 -11.63,0 -22.97,-5.95 -29.48,-20.13 -5.96,-12.75 -7.09,-27.2 -7.09,-42.79 0,-19.55 1.7,-30.6 7.37,-43.36 5.38,-11.9 17.01,-18.99 29.2,-18.99 11.91,0 22.96,6.52 29.2,18.99 6.24,12.76 7.37,25.79 7.37,43.36 z m -13.61,2.27 c 0,-11.62 0,-23.52 -3.4,-34.57 -4.82,-17.29 -14.74,-19.28 -19.56,-19.28 -22.97,0 -22.97,36.85 -22.97,53.85 0,11.62 0,22.67 3.41,32.88 4.25,12.75 12.19,17 19.56,17 22.96,0 22.96,-33.44 22.96,-49.88" /><path
         id="path48"
         style="fill:#ffffff;fill-opacity:1;fill-rule:evenodd;stroke:none"
         d="m 2169.34,1515.63 c 102.06,0 180.02,-77.94 180.02,-179.97 0,-102.02 -77.96,-179.95 -180.02,-179.95 -102.06,0 -180.02,77.93 -180.02,179.95 0,102.03 77.96,179.97 180.02,179.97 z m -180.02,0 0,0 z m 360.33,-360.21 0,0" /><g
         transform="scale(1.00018,0.999824)"
         id="g50"><path
           id="path52"
           style="fill:none;stroke:#010101;stroke-width:7.08492994;stroke-linecap:butt;stroke-linejoin:round;stroke-miterlimit:10;stroke-dasharray:none;stroke-opacity:1"
           d="m 2168.96,1515.89 c 102.04,0 179.99,-77.95 179.99,-179.99 0,-101.76 -77.95,-179.71 -179.99,-179.71 -102.04,0 -179.99,77.95 -179.99,179.71 0,102.04 77.95,179.99 179.99,179.99 z" /></g><g
         transform="scale(1.00018,0.999824)"
         id="g54"><path
           id="path56"
           style="fill:none;stroke:#010101;stroke-width:7.08492994;stroke-linecap:butt;stroke-linejoin:round;stroke-miterlimit:10;stroke-dasharray:none;stroke-opacity:1"
           d="m 1988.97,1515.89 0,0 z" /></g><g
         transform="scale(1.00018,0.999824)"
         id="g58"><path
           id="path60"
           style="fill:none;stroke:#010101;stroke-width:7.08492994;stroke-linecap:butt;stroke-linejoin:round;stroke-miterlimit:10;stroke-dasharray:none;stroke-opacity:1"
           d="m 2349.23,1155.91 0,0 z" /></g><path
         id="path62"
         style="fill:#010101;fill-opacity:1;fill-rule:evenodd;stroke:none"
         d="m 2155.17,1259.43 0,10.48 -22.12,0 0,111.1 -3.4,0 c -2.83,-3.12 -11.34,-11.62 -30.9,-11.62 -2.55,0 -2.55,-0.28 -2.55,-3.4 l 0,-7.37 c 10.77,0 19.28,2.55 22.96,4.25 l 0,-92.96 -21.83,0 0,-10.48 57.84,0" /><path
         id="path64"
         style="fill:#010101;fill-opacity:1;fill-rule:evenodd;stroke:none"
         d="m 2248.16,1295.99 c 0,22.39 -15.03,39.96 -33.18,39.96 -7.37,0 -13.89,-2.55 -18.99,-7.09 l 0,37.13 46.21,0 0,11.05 -58.97,0 0,-66.03 11.63,0 c 4.53,10.2 12.47,14.17 19.84,14.17 8.51,0 17.86,-7.65 17.86,-28.91 0,-22.67 -12.76,-29.75 -23.24,-29.75 -9.93,0 -21.84,5.38 -27.5,16.71 l -5.96,-9.91 c 11.91,-17.29 28.92,-17.29 33.74,-17.29 20.98,0 38.56,17.57 38.56,39.96" /><path
         id="path66"
         style="fill:#ffffff;fill-opacity:1;fill-rule:evenodd;stroke:none"
         d="m 1017.48,1515.63 c 101.78,0 179.74,-77.94 179.74,-179.97 0,-102.02 -77.96,-179.95 -179.74,-179.95 -102.058,0 -180.023,77.93 -180.023,179.95 0,102.03 77.965,179.97 180.023,179.97 z m -180.023,0 0,0 z m 360.043,-360.21 0,0" /><g
         transform="scale(1.00018,0.999824)"
         id="g68"><path
           id="path70"
           style="fill:none;stroke:#010101;stroke-width:7.08492994;stroke-linecap:butt;stroke-linejoin:round;stroke-miterlimit:10;stroke-dasharray:none;stroke-opacity:1"
           d="m 1017.02,1515.89 c 102.04,0 179.99,-77.95 179.99,-179.99 0,-101.76 -77.95,-179.71 -179.99,-179.71 -102.045,0 -179.992,77.95 -179.992,179.71 0,102.04 77.947,179.99 179.992,179.99 z" /></g><g
         transform="scale(1.00018,0.999824)"
         id="g72"><path
           id="path74"
           style="fill:none;stroke:#010101;stroke-width:7.08492994;stroke-linecap:butt;stroke-linejoin:round;stroke-miterlimit:10;stroke-dasharray:none;stroke-opacity:1"
           d="m 837.028,1515.89 0,0 z" /></g><g
         transform="scale(1.00018,0.999824)"
         id="g76"><path
           id="path78"
           style="fill:none;stroke:#010101;stroke-width:7.08492994;stroke-linecap:butt;stroke-linejoin:round;stroke-miterlimit:10;stroke-dasharray:none;stroke-opacity:1"
           d="m 1197.29,1155.91 0,0 z" /></g><path
         id="path80"
         style="fill:#010101;fill-opacity:1;fill-rule:evenodd;stroke:none"
         d="m 1052.35,1295.99 c 0,22.39 -15.02,39.96 -33.17,39.96 -7.37,0 -13.89,-2.55 -18.99,-7.09 l 0,37.13 46.21,0 0,11.05 -58.97,0 0,-66.03 11.625,0 c 4.535,10.2 12.475,14.17 19.845,14.17 8.5,0 17.86,-7.65 17.86,-28.91 0,-22.67 -12.76,-29.75 -23.25,-29.75 -9.92,0 -21.826,5.38 -27.498,16.71 l -5.953,-9.91 c 11.906,-17.29 28.921,-17.29 33.741,-17.29 20.97,0 38.55,17.57 38.55,39.96" /><path
         id="path82"
         style="fill:#ffffff;fill-opacity:1;fill-rule:evenodd;stroke:none"
         d="m 1377.24,939.754 c 102.06,0 180.03,-77.934 180.03,-179.676 0,-102.023 -77.97,-179.957 -180.03,-179.957 -102.06,0 -180.02,77.934 -180.02,179.957 0,101.742 77.96,179.676 180.02,179.676 z m -180.02,0 0,0 z m 360.33,-359.918 0,0" /><g
         transform="scale(1.00018,0.999824)"
         id="g84"><path
           id="path86"
           style="fill:none;stroke:#010101;stroke-width:7.08492994;stroke-linecap:butt;stroke-linejoin:round;stroke-miterlimit:10;stroke-dasharray:none;stroke-opacity:1"
           d="m 1377,940.205 c 102.04,0 179.99,-77.951 179.99,-179.993 0,-102.041 -77.95,-179.989 -179.99,-179.989 -102.04,0 -179.99,77.948 -179.99,179.989 0,102.042 77.95,179.993 179.99,179.993 z" /></g><g
         transform="scale(1.00018,0.999824)"
         id="g88"><path
           id="path90"
           style="fill:none;stroke:#010101;stroke-width:7.08492994;stroke-linecap:butt;stroke-linejoin:round;stroke-miterlimit:10;stroke-dasharray:none;stroke-opacity:1"
           d="m 1197.01,940.205 0,0 z" /></g><g
         transform="scale(1.00018,0.999824)"
         id="g92"><path
           id="path94"
           style="fill:none;stroke:#010101;stroke-width:7.08492994;stroke-linecap:butt;stroke-linejoin:round;stroke-miterlimit:10;stroke-dasharray:none;stroke-opacity:1"
           d="m 1557.28,579.938 0,0 z" /></g><path
         id="path96"
         style="fill:#010101;fill-opacity:1;fill-rule:evenodd;stroke:none"
         d="m 1363.07,683.844 0,10.484 -22.12,0 0,111.094 -3.4,0 c -2.83,-3.117 -11.34,-11.617 -30.9,-11.617 -2.55,0 -2.55,-0.285 -2.55,-3.403 l 0,-7.367 c 10.77,0 19.28,2.551 22.96,4.25 l 0,-92.957 -21.83,0 0,-10.484 57.84,0" /><path
         id="path98"
         style="fill:#010101;fill-opacity:1;fill-rule:evenodd;stroke:none"
         d="m 1451.8,683.844 0,10.484 -22.11,0 0,111.094 -3.4,0 c -2.84,-3.117 -11.34,-11.617 -30.9,-11.617 -2.55,0 -2.55,-0.285 -2.55,-3.403 l 0,-7.367 c 10.77,0 19.27,2.551 22.96,4.25 l 0,-92.957 -21.83,0 0,-10.484 57.83,0" /><path
         id="path100"
         style="fill:#ffffff;fill-opacity:1;fill-rule:evenodd;stroke:none"
         d="m 657.438,939.754 c 102.058,0 180.019,-77.934 180.019,-179.676 0,-102.023 -77.961,-179.957 -180.019,-179.957 -102.063,0 -180.024,77.934 -180.024,179.957 0,101.742 77.961,179.676 180.024,179.676 z m -180.024,0 0,0 z m 360.328,-359.918 0,0" /><g
         transform="scale(1.00018,0.999824)"
         id="g102"><path
           id="path104"
           style="fill:none;stroke:#010101;stroke-width:7.08492994;stroke-linecap:butt;stroke-linejoin:round;stroke-miterlimit:10;stroke-dasharray:none;stroke-opacity:1"
           d="m 657.036,940.205 c 102.045,0 179.992,-77.951 179.992,-179.993 0,-102.041 -77.947,-179.989 -179.992,-179.989 -102.04,0 -179.991,77.948 -179.991,179.989 0,102.042 77.951,179.993 179.991,179.993 z" /></g><g
         transform="scale(1.00018,0.999824)"
         id="g106"><path
           id="path108"
           style="fill:none;stroke:#010101;stroke-width:7.08492994;stroke-linecap:butt;stroke-linejoin:round;stroke-miterlimit:10;stroke-dasharray:none;stroke-opacity:1"
           d="m 477.045,940.205 0,0 z" /></g><g
         transform="scale(1.00018,0.999824)"
         id="g110"><path
           id="path112"
           style="fill:none;stroke:#010101;stroke-width:7.08492994;stroke-linecap:butt;stroke-linejoin:round;stroke-miterlimit:10;stroke-dasharray:none;stroke-opacity:1"
           d="m 837.309,579.938 0,0 z" /></g><path
         id="path114"
         style="fill:#010101;fill-opacity:1;fill-rule:evenodd;stroke:none"
         d="m 693.723,716.152 c 0,13.887 -9.071,26.075 -24.379,31.457 12.472,6.801 19.562,18.704 19.562,30.606 0,15.59 -14.461,27.207 -32.035,27.207 -14.461,0 -27.219,-7.934 -34.023,-19.836 l 6.238,-9.637 c 4.535,11.621 15.594,19.27 27.5,19.27 9.355,0 17.859,-5.383 17.859,-17.004 0,-11.902 -8.218,-21.82 -17.859,-24.086 -0.852,0 -12.191,-1.137 -14.176,-1.137 l 0,-10.765 12.758,0 c 18.711,0 23.246,-15.872 23.246,-25.793 0,-14.454 -9.07,-25.504 -21.828,-25.504 -11.625,0 -25.797,5.668 -34.02,18.703 l -1.984,-10.485 c 11.621,-16.156 27.5,-18.988 36.289,-18.988 20.977,0 36.852,17.004 36.852,35.992" /><path
         id="path116"
         style="fill:#ffffff;fill-opacity:1;fill-rule:evenodd;stroke:none"
         d="m 605.273,2091.21 c 102.059,0 180.024,-77.94 180.024,-179.96 0,-101.74 -77.965,-179.68 -180.024,-179.68 -102.062,0 -180.023,77.94 -180.023,179.68 0,102.02 77.961,179.96 180.023,179.96 z m -180.023,0 0,0 z m 360.328,-359.92 0,0" /><g
         transform="scale(1.00018,0.999824)"
         id="g118"><path
           id="path120"
           style="fill:none;stroke:#010101;stroke-width:7.08492994;stroke-linecap:butt;stroke-linejoin:round;stroke-miterlimit:10;stroke-dasharray:none;stroke-opacity:1"
           d="m 604.882,2091.86 c 102.044,0 179.991,-77.95 179.991,-179.99 0,-102.04 -77.947,-179.99 -179.991,-179.99 -102.041,0 -179.992,77.95 -179.992,179.99 0,102.04 77.951,179.99 179.992,179.99 z" /></g><g
         transform="scale(1.00018,0.999824)"
         id="g122"><path
           id="path124"
           style="fill:none;stroke:#010101;stroke-width:7.08492994;stroke-linecap:butt;stroke-linejoin:round;stroke-miterlimit:10;stroke-dasharray:none;stroke-opacity:1"
           d="m 424.89,2091.86 0,0 z" /></g><g
         transform="scale(1.00018,0.999824)"
         id="g126"><path
           id="path128"
           style="fill:none;stroke:#010101;stroke-width:7.08492994;stroke-linecap:butt;stroke-linejoin:round;stroke-miterlimit:10;stroke-dasharray:none;stroke-opacity:1"
           d="m 785.158,1731.59 0,0 z" /></g><path
         id="path130"
         style="fill:#010101;fill-opacity:1;fill-rule:evenodd;stroke:none"
         d="m 641.559,1867.61 c 0,13.88 -9.071,26.07 -24.379,31.45 12.472,6.8 19.562,18.71 19.562,30.61 0,15.59 -14.461,27.21 -32.035,27.21 -14.461,0 -27.219,-7.94 -34.023,-19.84 l 6.238,-9.64 c 4.535,11.62 15.594,19.28 27.5,19.28 9.355,0 17.859,-5.39 17.859,-17.01 0,-11.9 -8.218,-21.82 -17.859,-24.09 -0.852,0 -12.192,-1.13 -14.176,-1.13 l 0,-10.77 12.758,0 c 18.711,0 23.246,-15.87 23.246,-25.79 0,-14.45 -9.07,-25.51 -21.828,-25.51 -11.625,0 -25.797,5.67 -34.02,18.71 l -1.984,-10.49 c 11.625,-16.15 27.5,-18.99 36.289,-18.99 20.977,0 36.852,17.01 36.852,36" /><g
         transform="scale(1.00018,0.999824)"
         id="g132"><path
           id="path134"
           style="fill:none;stroke:#010101;stroke-width:7.08492994;stroke-linecap:butt;stroke-linejoin:round;stroke-miterlimit:10;stroke-dasharray:none;stroke-opacity:1"
           d="M 3125.32,1911.87 2765.34,1335.9" /></g><g
         transform="scale(1.00018,0.999824)"
         id="g136"><path
           id="path138"
           style="fill:none;stroke:#010101;stroke-width:7.08492994;stroke-linecap:butt;stroke-linejoin:round;stroke-miterlimit:10;stroke-dasharray:none;stroke-opacity:1"
           d="m 3485.3,1335.9 -359.98,575.97" /></g><path
         id="path140"
         style="fill:#ffffff;fill-opacity:1;fill-rule:evenodd;stroke:none"
         d="m 3126.16,2091.21 c 102.05,0 180.02,-77.94 180.02,-179.96 0,-101.74 -77.97,-179.68 -180.02,-179.68 -102.07,0 -180.03,77.94 -180.03,179.68 0,102.02 77.96,179.96 180.03,179.96 z m -180.03,0 0,0 z m 360.33,-359.92 0,0" /><g
         transform="scale(1.00018,0.999824)"
         id="g142"><path
           id="path144"
           style="fill:none;stroke:#010101;stroke-width:7.08492994;stroke-linecap:butt;stroke-linejoin:round;stroke-miterlimit:10;stroke-dasharray:none;stroke-opacity:1"
           d="m 3125.32,2091.86 c 102.04,0 179.99,-77.95 179.99,-179.99 0,-102.04 -77.95,-179.99 -179.99,-179.99 -102.04,0 -179.99,77.95 -179.99,179.99 0,102.04 77.95,179.99 179.99,179.99 z" /></g><g
         transform="scale(1.00018,0.999824)"
         id="g146"><path
           id="path148"
           style="fill:none;stroke:#010101;stroke-width:7.08492994;stroke-linecap:butt;stroke-linejoin:round;stroke-miterlimit:10;stroke-dasharray:none;stroke-opacity:1"
           d="m 2945.33,2091.86 0,0 z" /></g><g
         transform="scale(1.00018,0.999824)"
         id="g150"><path
           id="path152"
           style="fill:none;stroke:#010101;stroke-width:7.08492994;stroke-linecap:butt;stroke-linejoin:round;stroke-miterlimit:10;stroke-dasharray:none;stroke-opacity:1"
           d="m 3305.59,1731.59 0,0 z" /></g><path
         id="path154"
         style="fill:#010101;fill-opacity:1;fill-rule:evenodd;stroke:none"
         d="m 3161.02,1871.86 c 0,22.39 -15.02,39.96 -33.16,39.96 -7.38,0 -13.9,-2.55 -19,-7.09 l 0,37.13 46.21,0 0,11.05 -58.96,0 0,-66.03 11.62,0 c 4.53,10.2 12.47,14.17 19.84,14.17 8.51,0 17.86,-7.66 17.86,-28.91 0,-22.67 -12.75,-29.76 -23.24,-29.76 -9.93,0 -21.83,5.39 -27.5,16.73 l -5.96,-9.93 c 11.91,-17.28 28.92,-17.28 33.74,-17.28 20.98,0 38.55,17.57 38.55,39.96" /><path
         id="path156"
         style="fill:#ffffff;fill-opacity:1;fill-rule:evenodd;stroke:none"
         d="m 3486.2,1515.63 c 102.06,0 180.02,-77.94 180.02,-179.97 0,-102.02 -77.96,-179.95 -180.02,-179.95 -102.06,0 -180.02,77.93 -180.02,179.95 0,102.03 77.96,179.97 180.02,179.97 z m -180.02,0 0,0 z m 360.32,-360.21 0,0" /><g
         transform="scale(1.00018,0.999824)"
         id="g158"><path
           id="path160"
           style="fill:none;stroke:#010101;stroke-width:7.08492994;stroke-linecap:butt;stroke-linejoin:round;stroke-miterlimit:10;stroke-dasharray:none;stroke-opacity:1"
           d="m 3485.3,1515.89 c 102.04,0 179.99,-77.95 179.99,-179.99 0,-101.76 -77.95,-179.71 -179.99,-179.71 -102.04,0 -179.99,77.95 -179.99,179.71 0,102.04 77.95,179.99 179.99,179.99 z" /></g><g
         transform="scale(1.00018,0.999824)"
         id="g162"><path
           id="path164"
           style="fill:none;stroke:#010101;stroke-width:7.08492994;stroke-linecap:butt;stroke-linejoin:round;stroke-miterlimit:10;stroke-dasharray:none;stroke-opacity:1"
           d="m 3305.31,1515.89 0,0 z" /></g><g
         transform="scale(1.00018,0.999824)"
         id="g166"><path
           id="path168"
           style="fill:none;stroke:#010101;stroke-width:7.08492994;stroke-linecap:butt;stroke-linejoin:round;stroke-miterlimit:10;stroke-dasharray:none;stroke-opacity:1"
           d="m 3665.58,1155.91 0,0 z" /></g><path
         id="path170"
         style="fill:#010101;fill-opacity:1;fill-rule:evenodd;stroke:none"
         d="m 3522.49,1291.74 c 0,13.89 -9.08,26.07 -24.38,31.46 12.47,6.8 19.56,18.7 19.56,30.6 0,15.59 -14.46,27.21 -32.04,27.21 -14.45,0 -27.21,-7.94 -34.02,-19.84 l 6.24,-9.63 c 4.54,11.61 15.59,19.26 27.5,19.26 9.35,0 17.86,-5.38 17.86,-17 0,-11.9 -8.22,-21.82 -17.86,-24.09 -0.85,0 -12.19,-1.13 -14.17,-1.13 l 0,-10.77 12.75,0 c 18.71,0 23.25,-15.87 23.25,-25.79 0,-14.45 -9.07,-25.5 -21.83,-25.5 -11.62,0 -25.8,5.66 -34.02,18.7 l -1.99,-10.49 c 11.63,-16.15 27.5,-18.98 36.29,-18.98 20.98,0 36.86,17 36.86,35.99" /><path
         id="path172"
         style="fill:#ffffff;fill-opacity:1;fill-rule:evenodd;stroke:none"
         d="m 2766.11,1515.63 c 102.06,0 180.02,-77.94 180.02,-179.97 0,-102.02 -77.96,-179.95 -180.02,-179.95 -102.06,0 -180.02,77.93 -180.02,179.95 0,102.03 77.96,179.97 180.02,179.97 z m -180.02,0 0,0 z m 360.32,-360.21 0,0" /><g
         transform="scale(1.00018,0.999824)"
         id="g174"><path
           id="path176"
           style="fill:none;stroke:#010101;stroke-width:7.08492994;stroke-linecap:butt;stroke-linejoin:round;stroke-miterlimit:10;stroke-dasharray:none;stroke-opacity:1"
           d="m 2765.34,1515.89 c 102.04,0 179.99,-77.95 179.99,-179.99 0,-101.76 -77.95,-179.71 -179.99,-179.71 -102.04,0 -179.99,77.95 -179.99,179.71 0,102.04 77.95,179.99 179.99,179.99 z" /></g><g
         transform="scale(1.00018,0.999824)"
         id="g178"><path
           id="path180"
           style="fill:none;stroke:#010101;stroke-width:7.08492994;stroke-linecap:butt;stroke-linejoin:round;stroke-miterlimit:10;stroke-dasharray:none;stroke-opacity:1"
           d="m 2585.35,1515.89 0,0 z" /></g><g
         transform="scale(1.00018,0.999824)"
         id="g182"><path
           id="path184"
           style="fill:none;stroke:#010101;stroke-width:7.08492994;stroke-linecap:butt;stroke-linejoin:round;stroke-miterlimit:10;stroke-dasharray:none;stroke-opacity:1"
           d="m 2945.61,1155.91 0,0 z" /></g><path
         id="path186"
         style="fill:#010101;fill-opacity:1;fill-rule:evenodd;stroke:none"
         d="m 2800.98,1259.43 0,12.19 -32.03,0 c -1.99,0 -4.26,-0.29 -6.52,-0.29 l -19.29,0 c 4.82,5.1 21.55,21.54 33.18,32.03 13.32,11.62 24.66,22.67 24.66,39.1 0,20.13 -13.89,38.27 -37.71,38.27 -19.27,0 -29.2,-12.76 -34.02,-29.48 5.68,-7.08 5.68,-7.37 7.38,-9.63 4.53,19.27 11.05,28.05 24.38,28.05 15.59,0 25.51,-11.9 25.51,-27.49 0,-9.35 -3.68,-19.84 -15.88,-31.45 l -39.97,-39.96 0,-11.34 70.31,0" /><g
         transform="scale(1.00018,0.999824)"
         id="g188"><path
           id="path190"
           style="fill:none;stroke:#010101;stroke-width:7.08492994;stroke-linecap:butt;stroke-linejoin:round;stroke-miterlimit:10;stroke-dasharray:none;stroke-opacity:1"
           d="m 4513.38,1335.9 -359.99,575.97" /></g><path
         id="path192"
         style="fill:#ffffff;fill-opacity:1;fill-rule:evenodd;stroke:none"
         d="m 4154.13,2091.21 c 102.06,0 180.02,-77.94 180.02,-179.96 0,-101.74 -77.96,-179.68 -180.02,-179.68 -102.06,0 -180.03,77.94 -180.03,179.68 0,102.02 77.97,179.96 180.03,179.96 z m -180.03,0 0,0 z m 360.33,-359.92 0,0" /><g
         transform="scale(1.00018,0.999824)"
         id="g194"><path
           id="path196"
           style="fill:none;stroke:#010101;stroke-width:7.08492994;stroke-linecap:butt;stroke-linejoin:round;stroke-miterlimit:10;stroke-dasharray:none;stroke-opacity:1"
           d="m 4153.39,2091.86 c 102.05,0 179.99,-77.95 179.99,-179.99 0,-102.04 -77.94,-179.99 -179.99,-179.99 -102.04,0 -179.99,77.95 -179.99,179.99 0,102.04 77.95,179.99 179.99,179.99 z" /></g><g
         transform="scale(1.00018,0.999824)"
         id="g198"><path
           id="path200"
           style="fill:none;stroke:#010101;stroke-width:7.08492994;stroke-linecap:butt;stroke-linejoin:round;stroke-miterlimit:10;stroke-dasharray:none;stroke-opacity:1"
           d="m 3973.4,2091.86 0,0 z" /></g><g
         transform="scale(1.00018,0.999824)"
         id="g202"><path
           id="path204"
           style="fill:none;stroke:#010101;stroke-width:7.08492994;stroke-linecap:butt;stroke-linejoin:round;stroke-miterlimit:10;stroke-dasharray:none;stroke-opacity:1"
           d="m 4333.67,1731.59 0,0 z" /></g><path
         id="path206"
         style="fill:#010101;fill-opacity:1;fill-rule:evenodd;stroke:none"
         d="m 4190.41,1941.57 0,11.34 -73.14,0 0,-12.19 33.45,0 c 2.27,0 4.26,0.29 6.53,0.29 l 21.54,0 c -10.77,-12.76 -41.96,-48.75 -41.96,-107.69 l 14.46,0 c 0,46.75 19.28,85.02 39.12,108.25" /><g
         transform="scale(1.00018,0.999824)"
         id="g208"><path
           id="path210"
           style="fill:none;stroke:#010101;stroke-width:7.08492994;stroke-linecap:butt;stroke-linejoin:round;stroke-miterlimit:10;stroke-dasharray:none;stroke-opacity:1"
           d="M 4873.36,760.212 4513.38,1335.9" /></g><g
         transform="scale(1.00018,0.999824)"
         id="g212"><path
           id="path214"
           style="fill:none;stroke:#010101;stroke-width:7.08492994;stroke-linecap:butt;stroke-linejoin:round;stroke-miterlimit:10;stroke-dasharray:none;stroke-opacity:1"
           d="M 5233.05,184.525 4873.36,760.212" /></g><path
         id="path216"
         style="fill:#ffffff;fill-opacity:1;fill-rule:evenodd;stroke:none"
         d="m 4514.17,1515.63 c 102.06,0 180.02,-77.94 180.02,-179.97 0,-102.02 -77.96,-179.95 -180.02,-179.95 -102.06,0 -180.02,77.93 -180.02,179.95 0,102.03 77.96,179.97 180.02,179.97 z m -180.02,0 0,0 z m 360.33,-360.21 0,0" /><g
         transform="scale(1.00018,0.999824)"
         id="g218"><path
           id="path220"
           style="fill:none;stroke:#010101;stroke-width:7.08492994;stroke-linecap:butt;stroke-linejoin:round;stroke-miterlimit:10;stroke-dasharray:none;stroke-opacity:1"
           d="m 4513.38,1515.89 c 102.04,0 179.98,-77.95 179.98,-179.99 0,-101.76 -77.94,-179.71 -179.98,-179.71 -102.05,0 -180,77.95 -180,179.71 0,102.04 77.95,179.99 180,179.99 z" /></g><g
         transform="scale(1.00018,0.999824)"
         id="g222"><path
           id="path224"
           style="fill:none;stroke:#010101;stroke-width:7.08492994;stroke-linecap:butt;stroke-linejoin:round;stroke-miterlimit:10;stroke-dasharray:none;stroke-opacity:1"
           d="m 4333.38,1515.89 0,0 z" /></g><g
         transform="scale(1.00018,0.999824)"
         id="g226"><path
           id="path228"
           style="fill:none;stroke:#010101;stroke-width:7.08492994;stroke-linecap:butt;stroke-linejoin:round;stroke-miterlimit:10;stroke-dasharray:none;stroke-opacity:1"
           d="m 4693.65,1155.91 0,0 z" /></g><path
         id="path230"
         style="fill:#010101;fill-opacity:1;fill-rule:evenodd;stroke:none"
         d="m 4500,1259.43 0,10.48 -22.12,0 0,111.1 -3.4,0 c -2.84,-3.12 -11.34,-11.62 -30.9,-11.62 -2.55,0 -2.55,-0.28 -2.55,-3.4 l 0,-7.37 c 10.77,0 19.27,2.55 22.96,4.25 l 0,-92.96 -21.83,0 0,-10.48 57.84,0" /><path
         id="path232"
         style="fill:#010101;fill-opacity:1;fill-rule:evenodd;stroke:none"
         d="m 4594.4,1318.09 c 0,12.19 -0.56,25.79 -5.1,38.55 -7.94,20.12 -21.83,24.37 -31.47,24.37 -11.62,0 -22.96,-5.95 -29.49,-20.12 -5.95,-12.76 -7.08,-27.21 -7.08,-42.8 0,-19.55 1.7,-30.6 7.37,-43.36 5.39,-11.9 17.01,-18.98 29.2,-18.98 11.91,0 22.96,6.52 29.2,18.98 6.24,12.76 7.37,25.79 7.37,43.36 z m -13.61,2.27 c 0,-11.62 0,-23.52 -3.4,-34.57 -4.82,-17.29 -14.74,-19.27 -19.56,-19.27 -22.96,0 -22.96,36.84 -22.96,53.84 0,11.62 0,22.67 3.4,32.87 4.25,12.76 12.19,17.01 19.56,17.01 22.96,0 22.96,-33.44 22.96,-49.88" /><path
         id="path234"
         style="fill:#ffffff;fill-opacity:1;fill-rule:evenodd;stroke:none"
         d="m 4874.21,939.754 c 102.07,0 180.03,-77.934 180.03,-179.676 0,-102.023 -77.96,-179.957 -180.03,-179.957 -102.05,0 -180.02,77.934 -180.02,179.957 0,101.742 77.97,179.676 180.02,179.676 z m -180.02,0 0,0 z m 360.33,-359.918 0,0" /><g
         transform="scale(1.00018,0.999824)"
         id="g236"><path
           id="path238"
           style="fill:none;stroke:#010101;stroke-width:7.08492994;stroke-linecap:butt;stroke-linejoin:round;stroke-miterlimit:10;stroke-dasharray:none;stroke-opacity:1"
           d="m 4873.36,940.205 c 102.04,0 179.99,-77.951 179.99,-179.993 0,-102.041 -77.95,-179.989 -179.99,-179.989 -102.05,0 -180,77.948 -180,179.989 0,102.042 77.95,179.993 180,179.993 z" /></g><g
         transform="scale(1.00018,0.999824)"
         id="g240"><path
           id="path242"
           style="fill:none;stroke:#010101;stroke-width:7.08492994;stroke-linecap:butt;stroke-linejoin:round;stroke-miterlimit:10;stroke-dasharray:none;stroke-opacity:1"
           d="m 4693.36,940.205 0,0 z" /></g><g
         transform="scale(1.00018,0.999824)"
         id="g244"><path
           id="path246"
           style="fill:none;stroke:#010101;stroke-width:7.08492994;stroke-linecap:butt;stroke-linejoin:round;stroke-miterlimit:10;stroke-dasharray:none;stroke-opacity:1"
           d="m 5053.63,579.938 0,0 z" /></g><path
         id="path248"
         style="fill:#010101;fill-opacity:1;fill-rule:evenodd;stroke:none"
         d="m 4860.04,683.844 0,10.484 -22.11,0 0,111.094 -3.4,0 c -2.84,-3.117 -11.35,-11.617 -30.9,-11.617 -2.56,0 -2.56,-0.285 -2.56,-3.403 l 0,-7.367 c 10.77,0 19.28,2.551 22.97,4.25 l 0,-92.957 -21.83,0 0,-10.484 57.83,0" /><path
         id="path250"
         style="fill:#010101;fill-opacity:1;fill-rule:evenodd;stroke:none"
         d="m 4953.03,720.402 c 0,22.391 -15.03,39.961 -33.17,39.961 -7.37,0 -13.89,-2.55 -19,-7.086 l 0,37.125 46.21,0 0,11.055 -58.96,0 0,-66.035 11.62,0 c 4.54,10.203 12.47,14.172 19.84,14.172 8.51,0 17.87,-7.653 17.87,-28.906 0,-22.672 -12.76,-29.758 -23.25,-29.758 -9.92,0 -21.83,5.383 -27.5,16.718 l -5.96,-9.918 c 11.91,-17.285 28.92,-17.285 33.74,-17.285 20.98,0 38.56,17.571 38.56,39.957" /><path
         id="path252"
         style="fill:#ffffff;fill-opacity:1;fill-rule:evenodd;stroke:none"
         d="m 5234.26,364.168 c 102.06,0 180.02,-77.934 180.02,-179.957 0,-102.0235 -77.96,-179.961 -180.02,-179.961 -102.06,0 -180.02,77.9375 -180.02,179.961 0,102.023 77.96,179.957 180.02,179.957 z m -180.02,0 0,0 z m 360.33,-360.19925 0,0" /><g
         transform="scale(1.00018,0.999824)"
         id="g254"><path
           id="path256"
           style="fill:none;stroke:#010101;stroke-width:7.08492994;stroke-linecap:butt;stroke-linejoin:round;stroke-miterlimit:10;stroke-dasharray:none;stroke-opacity:1"
           d="m 5233.05,364.232 c 102.04,0 179.99,-77.947 179.99,-179.707 0,-102.0417 -77.95,-179.98904 -179.99,-179.98904 -101.76,0 -179.7,77.94734 -179.7,179.98904 0,101.76 77.94,179.707 179.7,179.707 z" /></g><g
         transform="scale(1.00018,0.999824)"
         id="g258"><path
           id="path260"
           style="fill:none;stroke:#010101;stroke-width:7.08492994;stroke-linecap:butt;stroke-linejoin:round;stroke-miterlimit:10;stroke-dasharray:none;stroke-opacity:1"
           d="m 5053.35,364.232 0,0 z" /></g><g
         transform="scale(1.00018,0.999824)"
         id="g262"><path
           id="path264"
           style="fill:none;stroke:#010101;stroke-width:7.08492994;stroke-linecap:butt;stroke-linejoin:round;stroke-miterlimit:10;stroke-dasharray:none;stroke-opacity:1"
           d="m 5413.33,4.25075 0,0 z" /></g><path
         id="path266"
         style="fill:#010101;fill-opacity:1;fill-rule:evenodd;stroke:none"
         d="m 5224.34,107.977 0,12.183 -32.04,0 c -1.98,0 -4.25,-0.281 -6.52,-0.281 l -19.28,0 c 4.82,5.101 21.55,21.539 33.17,32.023 13.33,11.621 24.67,22.672 24.67,39.11 0,20.121 -13.89,38.258 -37.71,38.258 -19.27,0 -29.2,-12.754 -34.02,-29.473 5.67,-7.086 5.67,-7.367 7.37,-9.637 4.54,19.274 11.06,28.059 24.38,28.059 15.6,0 25.52,-11.903 25.52,-27.492 0,-9.352 -3.68,-19.836 -15.88,-31.457 l -39.97,-39.957 0,-11.336 70.31,0" /><path
         id="path268"
         style="fill:#010101;fill-opacity:1;fill-rule:evenodd;stroke:none"
         d="m 5314.49,166.641 c 0,12.183 -0.56,25.789 -5.1,38.539 -7.94,20.125 -21.83,24.375 -31.47,24.375 -11.62,0 -22.96,-5.953 -29.49,-20.121 -5.95,-12.754 -7.08,-27.207 -7.08,-42.793 0,-19.555 1.7,-30.61 7.37,-43.364 5.39,-11.902 17.01,-18.984 29.2,-18.984 11.91,0 22.96,6.516 29.2,18.984 6.24,12.754 7.37,25.789 7.37,43.364 z m -13.61,2.265 c 0,-11.621 0,-23.523 -3.4,-34.574 -4.82,-17.289 -14.74,-19.273 -19.56,-19.273 -22.96,0 -22.96,36.843 -22.96,53.847 0,11.621 0,22.672 3.4,32.875 4.25,12.754 12.19,17.004 19.56,17.004 22.96,0 22.96,-33.441 22.96,-49.879" /><path
         id="path270"
         style="fill:#010101;fill-opacity:1;fill-rule:evenodd;stroke:none"
         d="m 132.68,1833.03 c 0,0.57 0,0.85 -2.836,3.97 -18.145,18.14 -28.067,47.89 -28.067,84.45 0,34.86 8.219,64.9 29.2,86.16 1.703,1.69 1.703,1.98 1.703,2.55 0,1.13 -0.852,1.41 -1.418,1.41 -2.551,0 -17.293,-13.03 -26.082,-30.61 -9.0745,-18.13 -13.3245,-37.4 -13.3245,-59.51 0,-15.87 2.5508,-37.41 11.9065,-56.68 10.773,-21.54 25.515,-33.16 27.5,-33.16 0.566,0 1.418,0.29 1.418,1.42" /><path
         id="path272"
         style="fill:#010101;fill-opacity:1;fill-rule:evenodd;stroke:none"
         d="m 227.934,1892.83 0,9.92 -3.969,0 0,-9.92 c 0,-10.49 -4.254,-11.9 -6.805,-11.9 -6.805,0 -6.805,9.63 -6.805,12.46 l 0,31.46 c 0,9.64 0,16.72 -7.937,23.81 -6.234,5.67 -14.457,8.22 -22.395,8.22 -14.742,0 -26.082,-9.64 -26.082,-21.26 0,-5.1 3.403,-7.65 7.653,-7.65 4.254,0 7.371,3.12 7.371,7.37 0,7.37 -6.52,7.37 -9.356,7.37 4.254,7.36 12.758,10.48 20.129,10.48 8.223,0 18.711,-6.8 18.711,-23.24 l 0,-7.08 c -36.004,0 -49.613,-15.3 -49.613,-29.19 0,-14.17 16.445,-18.71 27.5,-18.71 11.906,0 19.848,7.09 23.246,15.87 0.852,-8.5 6.523,-15.02 14.176,-15.02 3.687,0 14.176,2.56 14.176,17.01 z m -29.485,8.5 c 0,-17 -13.039,-22.67 -20.695,-22.67 -8.789,0 -16.16,6.52 -16.16,15.59 0,24.37 30.621,24.37 36.855,24.37 l 0,-17.29" /><path
         id="path274"
         style="fill:#010101;fill-opacity:1;fill-rule:evenodd;stroke:none"
         d="m 282.367,1921.45 c 0,13.89 -1.703,36 -11.906,56.96 -10.492,21.54 -25.234,33.16 -27.219,33.16 -0.851,0 -1.699,-0.28 -1.699,-1.41 0,-0.57 0,-0.86 3.117,-3.97 17.86,-18.14 28.067,-47.9 28.067,-84.46 0,-34.85 -8.504,-64.89 -29.485,-86.15 -1.699,-1.7 -1.699,-1.98 -1.699,-2.55 0,-1.13 0.848,-1.42 1.699,-1.42 2.27,0 17.012,13.04 25.801,30.61 9.07,18.42 13.324,37.69 13.324,59.23" /><path
         id="path276"
         style="fill:#010101;fill-opacity:1;fill-rule:evenodd;stroke:none"
         d="m 1153.28,1832.75 c 0,0.57 0,0.85 -2.84,3.96 -18.14,18.14 -28.06,47.9 -28.06,84.46 0,34.86 8.22,64.9 29.2,86.15 1.7,1.7 1.7,1.98 1.7,2.55 0,1.14 -0.85,1.42 -1.42,1.42 -2.55,0 -17.29,-13.04 -26.08,-30.61 -9.07,-18.13 -13.33,-37.41 -13.33,-59.51 0,-15.87 2.55,-37.41 11.91,-56.68 10.77,-21.54 25.52,-33.16 27.5,-33.16 0.57,0 1.42,0.28 1.42,1.42" /><path
         id="path278"
         style="fill:#010101;fill-opacity:1;fill-rule:evenodd;stroke:none"
         d="m 1254.77,1915.22 c 0,22.95 -17.01,40.52 -37.14,40.52 -9.92,0 -18.14,-4.53 -24.38,-11.9 l 0,57.53 -24.95,-1.98 0,-5.1 c 12.19,0 13.61,-1.42 13.61,-10.21 l 0,-107.69 3.97,0 6.52,11.9 c 3.97,-6.8 11.91,-13.6 23.25,-13.6 20.69,0 39.12,17.57 39.12,40.53 z m -13.89,0.28 c 0,-12.18 -1.7,-19.55 -5.95,-26.07 -3.69,-5.67 -10.78,-11.05 -19.85,-11.05 -9.64,0 -16.16,6.23 -18.99,11.05 -2.55,3.68 -2.55,4.53 -2.55,7.65 l 0,36.84 c 0,3.4 0,3.69 1.98,6.52 4.53,6.52 12.19,11.62 21.26,11.62 5.39,0 24.1,-1.99 24.1,-36.56" /><path
         id="path280"
         style="fill:#010101;fill-opacity:1;fill-rule:evenodd;stroke:none"
         d="m 1312.32,1921.17 c 0,13.88 -1.7,35.99 -11.91,56.96 -10.48,21.54 -25.23,33.16 -27.21,33.16 -0.85,0 -1.7,-0.28 -1.7,-1.42 0,-0.57 0,-0.85 3.12,-3.96 17.86,-18.14 28.06,-47.9 28.06,-84.46 0,-34.86 -8.5,-64.9 -29.48,-86.15 -1.7,-1.7 -1.7,-1.98 -1.7,-2.55 0,-1.14 0.85,-1.42 1.7,-1.42 2.26,0 17.01,13.04 25.8,30.61 9.07,18.42 13.32,37.69 13.32,59.23" /><path
         id="path282"
         style="fill:#010101;fill-opacity:1;fill-rule:evenodd;stroke:none"
         d="m 2683.89,1832.46 c 0,0.57 0,0.86 -2.83,3.97 -18.15,18.14 -28.07,47.9 -28.07,84.46 0,34.85 8.22,64.9 29.21,86.15 1.69,1.7 1.69,1.98 1.69,2.55 0,1.13 -0.85,1.42 -1.41,1.42 -2.55,0 -17.3,-13.04 -26.09,-30.61 -9.07,-18.14 -13.32,-37.41 -13.32,-59.51 0,-15.87 2.55,-37.41 11.91,-56.68 10.77,-21.54 25.51,-33.16 27.5,-33.16 0.56,0 1.41,0.28 1.41,1.41" /><path
         id="path284"
         style="fill:#010101;fill-opacity:1;fill-rule:evenodd;stroke:none"
         d="m 2766.96,1897.65 c 0,1.7 -1.42,1.7 -1.98,1.7 -1.42,0 -1.71,-0.57 -2.27,-2.84 -3.97,-12.75 -13.61,-18.13 -23.25,-18.13 -11.06,0 -25.8,9.63 -25.8,36.84 0,29.75 15.31,37.12 24.38,37.12 6.81,0 16.73,-2.55 20.98,-9.63 -2.27,0 -8.79,0 -8.79,-7.37 0,-4.25 3.12,-7.37 7.38,-7.37 3.96,0 7.37,2.55 7.37,7.65 0,12.19 -12.48,20.69 -26.94,20.69 -21.26,0 -37.99,-18.7 -37.99,-41.38 0,-22.95 17.3,-40.52 37.71,-40.52 23.81,0 29.2,21.54 29.2,23.24" /><path
         id="path286"
         style="fill:#010101;fill-opacity:1;fill-rule:evenodd;stroke:none"
         d="m 2822.53,1920.89 c 0,13.88 -1.71,35.99 -11.91,56.96 -10.49,21.54 -25.23,33.16 -27.22,33.16 -0.85,0 -1.7,-0.29 -1.7,-1.42 0,-0.57 0,-0.85 3.12,-3.97 17.86,-18.14 28.07,-47.89 28.07,-84.45 0,-34.86 -8.51,-64.9 -29.49,-86.15 -1.7,-1.7 -1.7,-1.99 -1.7,-2.56 0,-1.13 0.85,-1.41 1.7,-1.41 2.27,0 17.01,13.03 25.8,30.61 9.07,18.41 13.33,37.69 13.33,59.23" /><path
         id="path288"
         style="fill:#010101;fill-opacity:1;fill-rule:evenodd;stroke:none"
         d="m 3732.56,1832.18 c 0,0.57 0,0.85 -2.83,3.97 -18.15,18.14 -28.07,47.89 -28.07,84.45 0,34.86 8.22,64.9 29.2,86.15 1.7,1.71 1.7,1.99 1.7,2.55 0,1.14 -0.85,1.42 -1.42,1.42 -2.55,0 -17.29,-13.03 -26.08,-30.6 -9.07,-18.14 -13.32,-37.41 -13.32,-59.52 0,-15.87 2.55,-37.41 11.9,-56.68 10.78,-21.54 25.52,-33.15 27.5,-33.15 0.57,0 1.42,0.28 1.42,1.41" /><path
         id="path290"
         style="fill:#010101;fill-opacity:1;fill-rule:evenodd;stroke:none"
         d="m 3835.19,1874.97 0,6.24 c -12.19,0 -13.61,1.13 -13.61,9.92 l 0,109.67 -24.95,-1.98 0,-5.1 c 12.19,0 13.61,-1.42 13.61,-10.2 l 0,-39.96 c -3.97,5.38 -11.62,11.62 -22.68,11.62 -20.7,0 -38.84,-17.57 -38.84,-40.53 0,-22.95 17.3,-40.52 36.85,-40.52 13.9,0 21.84,9.06 24.1,12.46 l 0,-11.62 25.52,0 z m -25.52,22.11 c 0,-3.4 0,-3.97 -2.26,-7.94 -4.54,-6.23 -11.91,-11.33 -20.7,-11.33 -4.82,0 -24.38,1.7 -24.38,36.56 0,13.03 2.27,20.12 6.24,26.07 3.68,5.67 10.77,11.05 19.84,11.05 11.06,0 17.58,-7.93 19.28,-10.77 1.98,-3.11 1.98,-3.4 1.98,-6.8 l 0,-36.84" /><path
         id="path292"
         style="fill:#010101;fill-opacity:1;fill-rule:evenodd;stroke:none"
         d="m 3891.61,1920.6 c 0,13.89 -1.71,35.99 -11.91,56.97 -10.49,21.54 -25.24,33.15 -27.22,33.15 -0.85,0 -1.7,-0.28 -1.7,-1.42 0,-0.56 0,-0.84 3.12,-3.96 17.86,-18.14 28.06,-47.89 28.06,-84.45 0,-34.86 -8.5,-64.9 -29.48,-86.16 -1.7,-1.7 -1.7,-1.98 -1.7,-2.55 0,-1.13 0.85,-1.41 1.7,-1.41 2.27,0 17.01,13.03 25.8,30.6 9.07,18.42 13.33,37.69 13.33,59.23" /></g></g></svg>