<?xml version="1.0" encoding="UTF-8" standalone="no"?>
<svg
   xmlns:dc="http://purl.org/dc/elements/1.1/"
   xmlns:cc="http://creativecommons.org/ns#"
   xmlns:rdf="http://www.w3.org/1999/02/22-rdf-syntax-ns#"
   xmlns:svg="http://www.w3.org/2000/svg"
   xmlns="http://www.w3.org/2000/svg"
   viewBox="0 0 618.75 111.25"
   height="111.25"
   width="618.75"
   xml:space="preserve"
   version="1.1"
   id="svg2"><metadata
     id="metadata8"><rdf:RDF><cc:Work
         rdf:about=""><dc:format>image/svg+xml</dc:format><dc:type
           rdf:resource="http://purl.org/dc/dcmitype/StillImage" /></cc:Work></rdf:RDF></metadata><defs
     id="defs6" /><g
     transform="matrix(1.25,0,0,-1.25,0,111.25)"
     id="g10"><g
       transform="scale(0.1,0.1)"
       id="g12"><g
         transform="scale(0.998239,1.00176)"
         id="g14"><path
           id="path16"
           style="fill:none;stroke:#010101;stroke-width:7.09732008;stroke-linecap:butt;stroke-linejoin:round;stroke-miterlimit:10;stroke-dasharray:none;stroke-opacity:1"
           d="m 149.67,152.224 728.172,0" /></g><g
         transform="scale(0.998239,1.00176)"
         id="g18"><path
           id="path20"
           style="fill:none;stroke:#010101;stroke-width:7.09732008;stroke-linecap:butt;stroke-linejoin:round;stroke-miterlimit:10;stroke-dasharray:none;stroke-opacity:1"
           d="M 1247.04,741.807 877.842,152.224" /></g><g
         transform="scale(0.998239,1.00176)"
         id="g22"><path
           id="path24"
           style="fill:none;stroke:#010101;stroke-width:7.09732008;stroke-linecap:butt;stroke-linejoin:round;stroke-miterlimit:10;stroke-dasharray:none;stroke-opacity:1"
           d="m 877.842,152.224 728.178,0" /></g><g
         transform="scale(0.998239,1.00176)"
         id="g26"><path
           id="path28"
           style="fill:none;stroke:#010101;stroke-width:7.09732008;stroke-linecap:butt;stroke-linejoin:round;stroke-miterlimit:10;stroke-dasharray:none;stroke-opacity:1"
           d="m 1606.02,152.224 727.89,0" /></g><g
         transform="scale(0.998239,1.00176)"
         id="g30"><path
           id="path32"
           style="fill:none;stroke:#010101;stroke-width:7.09732008;stroke-linecap:butt;stroke-linejoin:round;stroke-miterlimit:10;stroke-dasharray:none;stroke-opacity:1"
           d="m 2333.91,152.224 727.89,0" /></g><path
         id="path34"
         style="fill:#ffffff;fill-opacity:1;fill-rule:evenodd;stroke:none"
         d="m 148.836,295.594 c 82.215,0 145.437,-62.871 145.437,-145.379 C 294.273,67.7109 231.051,4.26563 148.836,4.26563 66.6211,4.26563 3.68359,67.7109 3.68359,150.215 c 0,82.508 62.93751,145.379 145.15241,145.379 z m -145.15241,0 0,0 z M 294.555,3.98438 l 0,0" /><g
         transform="scale(0.998239,1.00176)"
         id="g36"><path
           id="path38"
           style="fill:none;stroke:#010101;stroke-width:7.09732008;stroke-linecap:butt;stroke-linejoin:round;stroke-miterlimit:10;stroke-dasharray:none;stroke-opacity:1"
           d="m 148.817,295.359 c 82.36,0 145.69,-63.045 145.69,-145.408 0,-82.3591 -63.33,-145.40822 -145.69,-145.40822 -82.3602,0 -145.40866,63.04912 -145.40866,145.40822 0,82.363 63.04846,145.408 145.40866,145.408 z" /></g><g
         transform="scale(0.998239,1.00176)"
         id="g40"><path
           id="path42"
           style="fill:none;stroke:#010101;stroke-width:7.09732008;stroke-linecap:butt;stroke-linejoin:round;stroke-miterlimit:10;stroke-dasharray:none;stroke-opacity:1"
           d="m 3.40834,295.359 0,0 z" /></g><g
         transform="scale(0.998239,1.00176)"
         id="g44"><path
           id="path46"
           style="fill:none;stroke:#010101;stroke-width:7.09732008;stroke-linecap:butt;stroke-linejoin:round;stroke-miterlimit:10;stroke-dasharray:none;stroke-opacity:1"
           d="m 294.792,4.25813 0,0 z" /></g><path
         id="path48"
         style="fill:#010101;fill-opacity:1;fill-rule:evenodd;stroke:none"
         d="m 182.574,149.648 c 0,-16.218 -2.836,-28.453 -8.504,-36.988 -5.672,-8.531 -14.175,-12.8006 -25.234,-12.8006 -11.055,0 -19.559,4.2696 -24.945,12.8006 -5.672,8.254 -8.508,20.77 -8.508,36.988 0,16.5 2.836,29.016 8.222,37.27 5.387,8.25 13.891,12.516 25.516,12.516 11.34,0 19.844,-4.266 25.231,-12.516 5.386,-8.535 8.222,-20.77 8.222,-37.27 z m -12.472,0 c 0,13.938 -1.704,24.18 -4.821,30.442 -3.402,6.258 -8.789,9.387 -16.16,9.387 -7.371,0 -13.043,-3.129 -16.16,-9.387 -3.402,-5.977 -5.102,-16.219 -5.102,-30.442 0,-13.656 1.7,-23.613 5.102,-29.875 3.402,-6.543 8.789,-9.671 15.875,-9.671 7.371,0 12.758,3.128 16.16,9.671 3.402,6.543 5.106,16.504 5.106,29.875" /><path
         id="path50"
         style="fill:#ffffff;fill-opacity:1;fill-rule:evenodd;stroke:none"
         d="m 875.73,295.594 c 82.215,0 145.15,-62.871 145.15,-145.379 0,-82.5041 -62.935,-145.94937 -145.15,-145.94937 -82.214,0 -145.152,63.44527 -145.152,145.94937 0,82.508 62.938,145.379 145.152,145.379 z m -145.152,0 0,0 z M 1021.17,3.98438 l 0,0" /><g
         transform="scale(0.998239,1.00176)"
         id="g52"><path
           id="path54"
           style="fill:none;stroke:#010101;stroke-width:7.09732008;stroke-linecap:butt;stroke-linejoin:round;stroke-miterlimit:10;stroke-dasharray:none;stroke-opacity:1"
           d="m 876.993,295.359 c 82.36,0 145.687,-63.045 145.687,-145.408 0,-82.3591 -63.327,-145.40822 -145.687,-145.40822 -82.36,0 -145.408,63.04912 -145.408,145.40822 0,82.363 63.048,145.408 145.408,145.408 z" /></g><g
         transform="scale(0.998239,1.00176)"
         id="g56"><path
           id="path58"
           style="fill:none;stroke:#010101;stroke-width:7.09732008;stroke-linecap:butt;stroke-linejoin:round;stroke-miterlimit:10;stroke-dasharray:none;stroke-opacity:1"
           d="m 731.585,295.359 0,0 z" /></g><g
         transform="scale(0.998239,1.00176)"
         id="g60"><path
           id="path62"
           style="fill:none;stroke:#010101;stroke-width:7.09732008;stroke-linecap:butt;stroke-linejoin:round;stroke-miterlimit:10;stroke-dasharray:none;stroke-opacity:1"
           d="m 1022.97,4.25813 0,0 z" /></g><path
         id="path64"
         style="fill:#010101;fill-opacity:1;fill-rule:evenodd;stroke:none"
         d="m 847.664,101.281 0,10.528 24.383,0 0,74.539 -21.547,-15.649 0,11.664 22.68,15.649 11.34,0 0,-86.203 23.531,0 0,-10.528 -60.387,0" /><path
         id="path66"
         style="fill:#ffffff;fill-opacity:1;fill-rule:evenodd;stroke:none"
         d="m 2329.52,295.594 c 82.5,0 145.43,-62.871 145.43,-145.379 0,-82.5041 -62.93,-145.94937 -145.43,-145.94937 -82.5,0 -145.43,63.44527 -145.43,145.94937 0,82.508 62.93,145.379 145.43,145.379 z m -145.43,0 0,0 z m 291.15,-291.60962 0,0" /><g
         transform="scale(0.998239,1.00176)"
         id="g68"><path
           id="path70"
           style="fill:none;stroke:#010101;stroke-width:7.09732008;stroke-linecap:butt;stroke-linejoin:round;stroke-miterlimit:10;stroke-dasharray:none;stroke-opacity:1"
           d="m 2333.34,295.359 c 82.65,0 145.7,-63.045 145.7,-145.408 0,-82.3591 -63.05,-145.40822 -145.7,-145.40822 -82.64,0 -145.4,63.04912 -145.4,145.40822 0,82.363 62.76,145.408 145.4,145.408 z" /></g><g
         transform="scale(0.998239,1.00176)"
         id="g72"><path
           id="path74"
           style="fill:none;stroke:#010101;stroke-width:7.09732008;stroke-linecap:butt;stroke-linejoin:round;stroke-miterlimit:10;stroke-dasharray:none;stroke-opacity:1"
           d="m 2187.94,295.359 0,0 z" /></g><g
         transform="scale(0.998239,1.00176)"
         id="g76"><path
           id="path78"
           style="fill:none;stroke:#010101;stroke-width:7.09732008;stroke-linecap:butt;stroke-linejoin:round;stroke-miterlimit:10;stroke-dasharray:none;stroke-opacity:1"
           d="m 2479.32,4.25813 0,0 z" /></g><path
         id="path80"
         style="fill:#010101;fill-opacity:1;fill-rule:evenodd;stroke:none"
         d="m 2297.48,101.281 0,8.821 c 2.27,5.406 5.11,9.957 8.51,14.226 3.4,3.981 6.8,7.68 10.49,11.094 3.68,3.129 7.37,6.258 11.06,9.105 3.68,2.844 6.8,5.688 9.92,8.536 2.83,2.843 5.1,5.687 7.09,8.816 1.7,3.133 2.55,6.828 2.55,10.527 0,5.407 -1.42,9.391 -4.54,12.52 -3.12,2.844 -7.37,4.265 -13.04,4.265 -5.1,0 -9.64,-1.421 -13.04,-4.265 -3.4,-2.848 -5.39,-6.828 -5.96,-11.949 l -12.47,1.136 c 0.85,7.684 4.25,13.942 9.64,18.492 5.67,4.555 13.04,6.829 21.83,6.829 9.64,0 17.29,-2.274 22.4,-6.829 5.38,-4.55 7.94,-11.093 7.94,-19.628 0,-3.7 -0.86,-7.399 -2.56,-11.098 -1.7,-3.695 -4.25,-7.395 -7.65,-11.094 -3.4,-3.984 -9.92,-9.672 -19.28,-17.355 -5.39,-4.266 -9.64,-8.25 -12.76,-11.664 -3.12,-3.414 -5.38,-6.828 -6.52,-9.957 l 50.18,0 0,-10.528 -63.79,0" /><path
         id="path82"
         style="fill:#ffffff;fill-opacity:1;fill-rule:evenodd;stroke:none"
         d="m 3055.85,295.594 c 82.21,0 145.43,-62.871 145.43,-145.379 0,-82.5041 -63.22,-145.94937 -145.43,-145.94937 -82.22,0 -145.15,63.44527 -145.15,145.94937 0,82.508 62.93,145.379 145.15,145.379 z m -145.15,0 0,0 z m 290.87,-291.60962 0,0" /><g
         transform="scale(0.998239,1.00176)"
         id="g84"><path
           id="path86"
           style="fill:none;stroke:#010101;stroke-width:7.09732008;stroke-linecap:butt;stroke-linejoin:round;stroke-miterlimit:10;stroke-dasharray:none;stroke-opacity:1"
           d="m 3060.95,295.359 c 82.36,0 145.7,-63.045 145.7,-145.408 0,-82.3591 -63.34,-145.40822 -145.7,-145.40822 -82.36,0 -145.41,63.04912 -145.41,145.40822 0,82.363 63.05,145.408 145.41,145.408 z" /></g><g
         transform="scale(0.998239,1.00176)"
         id="g88"><path
           id="path90"
           style="fill:none;stroke:#010101;stroke-width:7.09732008;stroke-linecap:butt;stroke-linejoin:round;stroke-miterlimit:10;stroke-dasharray:none;stroke-opacity:1"
           d="m 2915.54,295.359 0,0 z" /></g><g
         transform="scale(0.998239,1.00176)"
         id="g92"><path
           id="path94"
           style="fill:none;stroke:#010101;stroke-width:7.09732008;stroke-linecap:butt;stroke-linejoin:round;stroke-miterlimit:10;stroke-dasharray:none;stroke-opacity:1"
           d="m 3206.93,4.25813 0,0 z" /></g><path
         id="path96"
         style="fill:#010101;fill-opacity:1;fill-rule:evenodd;stroke:none"
         d="m 3077.39,123.188 0,-21.907 -11.62,0 0,21.907 -45.64,0 0,9.675 44.22,65.149 13.04,0 0,-65.149 13.33,0 0,-9.675 -13.33,0 z m -11.62,60.882 c -0.29,-0.285 -0.85,-1.422 -1.98,-3.699 -1.14,-1.988 -1.99,-3.695 -2.56,-4.551 l -24.94,-36.414 -3.69,-5.121 -1.14,-1.422 34.31,0 0,51.207" /><g
         transform="scale(0.998239,1.00176)"
         id="g98"><path
           id="path100"
           style="fill:none;stroke:#010101;stroke-width:7.09732008;stroke-linecap:butt;stroke-linejoin:round;stroke-miterlimit:10;stroke-dasharray:none;stroke-opacity:1"
           d="m 4081.08,152.224 727.89,0" /></g><path
         id="path102"
         style="fill:#ffffff;fill-opacity:1;fill-rule:evenodd;stroke:none"
         d="m 4073.04,295.594 c 82.22,0 145.44,-62.871 145.44,-145.379 0,-82.5041 -63.22,-145.94937 -145.44,-145.94937 -82.21,0 -145.15,63.44527 -145.15,145.94937 0,82.508 62.94,145.379 145.15,145.379 z m -145.15,0 0,0 z m 290.88,-291.60962 0,0" /><g
         transform="scale(0.998239,1.00176)"
         id="g104"><path
           id="path106"
           style="fill:none;stroke:#010101;stroke-width:7.09732008;stroke-linecap:butt;stroke-linejoin:round;stroke-miterlimit:10;stroke-dasharray:none;stroke-opacity:1"
           d="m 4080.23,295.359 c 82.36,0 145.69,-63.045 145.69,-145.408 0,-82.3591 -63.33,-145.40822 -145.69,-145.40822 -82.36,0 -145.41,63.04912 -145.41,145.40822 0,82.363 63.05,145.408 145.41,145.408 z" /></g><g
         transform="scale(0.998239,1.00176)"
         id="g108"><path
           id="path110"
           style="fill:none;stroke:#010101;stroke-width:7.09732008;stroke-linecap:butt;stroke-linejoin:round;stroke-miterlimit:10;stroke-dasharray:none;stroke-opacity:1"
           d="m 3934.82,295.359 0,0 z" /></g><g
         transform="scale(0.998239,1.00176)"
         id="g112"><path
           id="path114"
           style="fill:none;stroke:#010101;stroke-width:7.09732008;stroke-linecap:butt;stroke-linejoin:round;stroke-miterlimit:10;stroke-dasharray:none;stroke-opacity:1"
           d="m 4226.21,4.25813 0,0 z" /></g><path
         id="path116"
         style="fill:#010101;fill-opacity:1;fill-rule:evenodd;stroke:none"
         d="m 4105.93,128.023 c 0,-9.101 -2.84,-15.929 -8.5,-20.765 -5.68,-4.836 -13.61,-7.3986 -24.1,-7.3986 -9.92,0 -17.58,2.2776 -23.53,6.5426 -5.67,4.551 -9.07,11.098 -10.21,19.633 l 12.76,1.137 c 1.7,-11.379 8.51,-17.07 20.98,-17.07 6.24,0 11.05,1.421 14.46,4.55 3.68,3.129 5.38,7.684 5.38,13.657 0,5.406 -1.98,9.39 -5.95,12.234 -3.97,3.129 -9.92,4.551 -17.58,4.551 l -7.09,0 0,10.812 6.81,0 c 6.8,0 11.91,1.422 15.87,4.266 3.69,3.133 5.39,7.113 5.39,12.234 0,5.121 -1.42,9.391 -4.53,12.235 -3.12,3.129 -7.38,4.55 -13.61,4.55 -5.39,0 -9.64,-1.421 -13.04,-4.265 -3.4,-2.563 -5.39,-6.543 -5.96,-11.664 l -12.19,0.851 c 0.85,7.965 3.97,14.227 9.64,18.778 5.67,4.269 13.04,6.543 21.83,6.543 9.64,0 17.29,-2.274 22.4,-6.829 5.38,-4.55 8.22,-10.808 8.22,-18.777 0,-6.258 -1.7,-11.094 -5.1,-15.078 -3.69,-3.98 -8.51,-6.543 -15.03,-7.965 l 0,0 c 7.09,-0.855 12.76,-3.414 16.73,-7.398 3.97,-3.981 5.95,-9.102 5.95,-15.364" /><path
         id="path118"
         style="fill:#ffffff;fill-opacity:1;fill-rule:evenodd;stroke:none"
         d="m 4799.94,295.594 c 82.21,0 145.44,-62.871 145.44,-145.379 0,-82.5041 -63.23,-145.94937 -145.44,-145.94937 -82.22,0 -145.15,63.44527 -145.15,145.94937 0,82.508 62.93,145.379 145.15,145.379 z m -145.15,0 0,0 z m 290.87,-291.60962 0,0" /><g
         transform="scale(0.998239,1.00176)"
         id="g120"><path
           id="path122"
           style="fill:none;stroke:#010101;stroke-width:7.09732008;stroke-linecap:butt;stroke-linejoin:round;stroke-miterlimit:10;stroke-dasharray:none;stroke-opacity:1"
           d="m 4808.12,295.359 c 82.36,0 145.69,-63.045 145.69,-145.408 0,-82.3591 -63.33,-145.40822 -145.69,-145.40822 -82.36,0 -145.13,63.04912 -145.13,145.40822 0,82.363 62.77,145.408 145.13,145.408 z" /></g><g
         transform="scale(0.998239,1.00176)"
         id="g124"><path
           id="path126"
           style="fill:none;stroke:#010101;stroke-width:7.09732008;stroke-linecap:butt;stroke-linejoin:round;stroke-miterlimit:10;stroke-dasharray:none;stroke-opacity:1"
           d="m 4662.99,295.359 0,0 z" /></g><g
         transform="scale(0.998239,1.00176)"
         id="g128"><path
           id="path130"
           style="fill:none;stroke:#010101;stroke-width:7.09732008;stroke-linecap:butt;stroke-linejoin:round;stroke-miterlimit:10;stroke-dasharray:none;stroke-opacity:1"
           d="m 4954.1,4.25813 0,0 z" /></g><path
         id="path132"
         style="fill:#010101;fill-opacity:1;fill-rule:evenodd;stroke:none"
         d="m 4832.82,132.863 c 0,-10.242 -2.55,-18.211 -8.22,-24.183 -5.38,-5.977 -13.04,-8.8206 -22.96,-8.8206 -10.77,0 -19,3.9846 -24.66,12.2346 -5.96,7.965 -8.79,19.914 -8.79,35.277 0,16.785 3.11,29.59 9.07,38.692 5.95,8.82 14.46,13.371 25.51,13.371 14.46,0 23.53,-6.543 27.5,-19.629 l -11.9,-2.278 c -2.27,7.965 -7.66,11.95 -15.88,11.95 -6.8,0 -12.47,-3.414 -16.16,-9.957 -3.97,-6.543 -5.95,-15.934 -5.95,-28.45 2.26,3.981 5.39,7.395 9.64,9.387 3.96,2.277 8.5,3.414 13.89,3.414 8.79,0 15.88,-2.844 21.26,-8.25 5.1,-5.691 7.65,-13.371 7.65,-22.758 z m -12.47,-0.57 c 0,7.113 -1.7,12.516 -5.1,16.215 -3.4,3.699 -8.22,5.691 -14.18,5.691 -5.95,0 -10.49,-1.707 -14.17,-5.121 -3.4,-3.414 -5.11,-7.965 -5.11,-13.941 0,-7.395 1.71,-13.371 5.39,-18.207 3.69,-4.836 8.51,-7.114 14.18,-7.114 5.95,0 10.49,1.993 13.89,5.977 3.4,3.98 5.1,9.387 5.1,16.5" /><g
         transform="scale(0.998239,1.00176)"
         id="g134"><path
           id="path136"
           style="fill:none;stroke:#010101;stroke-width:7.09732008;stroke-linecap:butt;stroke-linejoin:round;stroke-miterlimit:10;stroke-dasharray:none;stroke-opacity:1"
           d="M 1247.04,741.807 1606.02,152.224" /></g><path
         id="path138"
         style="fill:#ffffff;fill-opacity:1;fill-rule:evenodd;stroke:none"
         d="m 1244,886.219 c 82.21,0 145.43,-63.16 145.43,-145.664 0,-82.223 -63.22,-145.664 -145.43,-145.664 -82.22,0 -145.15,63.441 -145.15,145.664 0,82.504 62.93,145.664 145.15,145.664 z m -145.15,0 0,0 z m 290.87,-291.614 0,0" /><g
         transform="scale(0.998239,1.00176)"
         id="g140"><path
           id="path142"
           style="fill:none;stroke:#010101;stroke-width:7.09732008;stroke-linecap:butt;stroke-linejoin:round;stroke-miterlimit:10;stroke-dasharray:none;stroke-opacity:1"
           d="m 1246.19,884.946 c 82.36,0 145.69,-63.049 145.69,-145.408 0,-82.363 -63.33,-145.693 -145.69,-145.693 -82.36,0 -145.4,63.33 -145.4,145.693 0,82.359 63.04,145.408 145.4,145.408 z" /></g><g
         transform="scale(0.998239,1.00176)"
         id="g144"><path
           id="path146"
           style="fill:none;stroke:#010101;stroke-width:7.09732008;stroke-linecap:butt;stroke-linejoin:round;stroke-miterlimit:10;stroke-dasharray:none;stroke-opacity:1"
           d="m 1100.79,884.946 0,0 z" /></g><g
         transform="scale(0.998239,1.00176)"
         id="g148"><path
           id="path150"
           style="fill:none;stroke:#010101;stroke-width:7.09732008;stroke-linecap:butt;stroke-linejoin:round;stroke-miterlimit:10;stroke-dasharray:none;stroke-opacity:1"
           d="m 1392.17,593.56 0,0 z" /></g><path
         id="path152"
         style="fill:#010101;fill-opacity:1;fill-rule:evenodd;stroke:none"
         d="m 1276.04,778.676 c -9.93,-15.078 -16.73,-27.028 -20.99,-35.563 -3.96,-8.535 -7.08,-17.07 -9.07,-25.32 -1.98,-8.25 -3.12,-17.07 -3.12,-25.891 l -12.75,0 c 0,12.235 2.55,25.321 7.93,38.977 5.11,13.656 13.9,29.305 26.09,47.23 l -51.88,0 0,10.524 63.79,0 0,-9.957" /><path
         id="path154"
         style="fill:#ffffff;fill-opacity:1;fill-rule:evenodd;stroke:none"
         d="m 1602.63,295.594 c 82.5,0 145.43,-62.871 145.43,-145.379 0,-82.5041 -62.93,-145.94937 -145.43,-145.94937 -82.5,0 -145.44,63.44527 -145.44,145.94937 0,82.508 62.94,145.379 145.44,145.379 z m -145.44,0 0,0 z m 291.15,-291.60962 0,0" /><g
         transform="scale(0.998239,1.00176)"
         id="g156"><path
           id="path158"
           style="fill:none;stroke:#010101;stroke-width:7.09732008;stroke-linecap:butt;stroke-linejoin:round;stroke-miterlimit:10;stroke-dasharray:none;stroke-opacity:1"
           d="m 1605.45,295.359 c 82.65,0 145.7,-63.045 145.7,-145.408 0,-82.3591 -63.05,-145.40822 -145.7,-145.40822 -82.64,0 -145.69,63.04912 -145.69,145.40822 0,82.363 63.05,145.408 145.69,145.408 z" /></g><g
         transform="scale(0.998239,1.00176)"
         id="g160"><path
           id="path162"
           style="fill:none;stroke:#010101;stroke-width:7.09732008;stroke-linecap:butt;stroke-linejoin:round;stroke-miterlimit:10;stroke-dasharray:none;stroke-opacity:1"
           d="m 1459.76,295.359 0,0 z" /></g><g
         transform="scale(0.998239,1.00176)"
         id="g164"><path
           id="path166"
           style="fill:none;stroke:#010101;stroke-width:7.09732008;stroke-linecap:butt;stroke-linejoin:round;stroke-miterlimit:10;stroke-dasharray:none;stroke-opacity:1"
           d="m 1751.43,4.25813 0,0 z" /></g><path
         id="path168"
         style="fill:#010101;fill-opacity:1;fill-rule:evenodd;stroke:none"
         d="m 1635.51,132.863 c 0,-10.242 -2.83,-18.211 -9.07,-24.183 -5.96,-5.977 -14.46,-8.8206 -24.95,-8.8206 -9.07,0 -16.44,1.9926 -21.83,5.9766 -5.67,3.98 -9.07,9.672 -10.49,17.066 l 12.48,1.426 c 2.55,-9.39 9.07,-14.226 19.84,-14.226 6.81,0 11.91,1.992 15.6,5.972 3.96,3.985 5.66,9.391 5.66,16.504 0,5.973 -1.98,10.809 -5.66,14.508 -3.69,3.699 -8.79,5.691 -15.32,5.691 -3.11,0 -6.23,-0.57 -9.07,-1.707 -3.11,-0.855 -5.95,-2.847 -8.79,-5.121 l -11.9,0 3.12,52.063 54.71,0 0,-10.528 -43.38,0 -1.98,-30.726 c 5.39,4.269 11.91,6.262 19.85,6.262 9.63,0 17.29,-2.848 22.68,-8.25 5.67,-5.692 8.5,-13.09 8.5,-21.907" /></g></g></svg>