<?xml version="1.0" encoding="UTF-8" standalone="no"?>
<svg
   xmlns:dc="http://purl.org/dc/elements/1.1/"
   xmlns:cc="http://creativecommons.org/ns#"
   xmlns:rdf="http://www.w3.org/1999/02/22-rdf-syntax-ns#"
   xmlns:svg="http://www.w3.org/2000/svg"
   xmlns="http://www.w3.org/2000/svg"
   viewBox="0 0 570 147.5"
   height="147.5"
   width="570"
   xml:space="preserve"
   version="1.1"
   id="svg2"><metadata
     id="metadata8"><rdf:RDF><cc:Work
         rdf:about=""><dc:format>image/svg+xml</dc:format><dc:type
           rdf:resource="http://purl.org/dc/dcmitype/StillImage" /></cc:Work></rdf:RDF></metadata><defs
     id="defs6" /><g
     transform="matrix(1.25,0,0,-1.25,0,147.5)"
     id="g10"><g
       transform="scale(0.1,0.1)"
       id="g12"><path
         id="path14"
         style="fill:#ffd321;fill-opacity:1;fill-rule:evenodd;stroke:none"
         d="m 111.66,595.352 -107.97641,0 0,216.027 215.95341,0 0,-216.027 -107.977,0" /><g
         transform="scale(0.999824,1.00018)"
         id="g16"><path
           id="path18"
           style="fill:none;stroke:#010101;stroke-width:7.08410978;stroke-linecap:butt;stroke-linejoin:round;stroke-miterlimit:10;stroke-dasharray:none;stroke-opacity:1"
           d="m 111.395,595.528 -107.99206,0 0,215.989 215.98706,0 0,-215.989 -107.995,0 z" /></g><path
         id="path20"
         style="fill:#010101;fill-opacity:1;fill-rule:evenodd;stroke:none"
         d="m 137.449,723.207 0,8.223 -51.2967,0 0,-9.071 23.5237,0 c 1.418,0 2.836,0 4.25,0 l 14.738,0 C 109.961,702.797 99.7578,678.699 99.7578,651.484 l 10.7692,0 c 0,31.184 13.036,56.414 26.922,71.723" /><path
         id="path22"
         style="fill:#ffd321;fill-opacity:1;fill-rule:evenodd;stroke:none"
         d="m 111.66,379.605 -107.97641,0 0,215.747 215.95341,0 0,-215.747 -107.977,0" /><g
         transform="scale(0.999824,1.00018)"
         id="g24"><path
           id="path26"
           style="fill:none;stroke:#010101;stroke-width:7.08410978;stroke-linecap:butt;stroke-linejoin:round;stroke-miterlimit:10;stroke-dasharray:none;stroke-opacity:1"
           d="m 111.395,379.539 -107.99206,0 0,215.989 215.98706,0 0,-215.989 -107.995,0 z" /></g><path
         id="path28"
         style="fill:#010101;fill-opacity:1;fill-rule:evenodd;stroke:none"
         d="m 133.48,437.156 0,7.371 -15.3,0 0,73.711 -2.551,0 c -8.219,-7.937 -19.5548,-7.937 -23.8087,-7.937 l 0,-7.371 c 3.4024,0 9.3557,0 16.1567,2.836 l 0,-61.239 -15.3051,0 0,-7.371 40.8081,0" /><path
         id="path30"
         style="fill:#ffffff;fill-opacity:1;fill-rule:evenodd;stroke:none"
         d="m 543.563,595.352 -107.977,0 0,216.027 215.668,0 0,-216.027 -107.691,0" /><g
         transform="scale(0.999824,1.00018)"
         id="g32"><path
           id="path34"
           style="fill:none;stroke:#010101;stroke-width:7.08410978;stroke-linecap:butt;stroke-linejoin:round;stroke-miterlimit:10;stroke-dasharray:none;stroke-opacity:1"
           d="m 543.373,595.528 -107.995,0 0,215.989 215.991,0 0,-215.989 -107.996,0 z" /></g><path
         id="path36"
         style="fill:#010101;fill-opacity:1;fill-rule:evenodd;stroke:none"
         d="m 533.074,664.523 c 0,3.688 -3.117,3.688 -4.816,3.688 l -10.485,0 0,62.652 c 0,1.985 0,5.102 -3.687,5.102 -1.981,0 -2.551,-1.133 -3.398,-2.832 -2.27,-5.106 -6.235,-11.625 -12.469,-12.192 -1.985,0 -4.535,-0.285 -4.535,-3.402 0,-1.984 1.418,-3.402 3.968,-3.402 6.801,0 11.903,5.101 12.184,5.386 l 0,-51.312 -10.484,0 c -1.7,0 -4.821,0 -4.821,-3.688 0,-3.402 3.121,-3.402 4.821,-3.402 l 28.906,0 c 1.699,0 4.816,0 4.816,3.402" /><path
         id="path38"
         style="fill:#010101;fill-opacity:1;fill-rule:evenodd;stroke:none"
         d="m 599.109,697.695 c 0,22.395 -11.906,38.27 -24.656,38.27 -13.039,0 -24.941,-16.16 -24.941,-38.27 0,-22.113 11.902,-37.992 24.941,-37.992 13.035,0 24.656,16.16 24.656,37.992 z m -7.652,1.414 c 0,-17.859 -7.652,-32.316 -17.004,-32.316 -9.637,0 -17.004,14.457 -17.004,32.316 0,17.864 8.219,29.77 17.004,29.77 8.785,0 17.004,-11.906 17.004,-29.77" /><path
         id="path40"
         style="fill:#ffffff;fill-opacity:1;fill-rule:evenodd;stroke:none"
         d="m 543.563,379.605 -107.977,0 0,215.747 215.668,0 0,-215.747 -107.691,0" /><g
         transform="scale(0.999824,1.00018)"
         id="g42"><path
           id="path44"
           style="fill:none;stroke:#010101;stroke-width:7.08410978;stroke-linecap:butt;stroke-linejoin:round;stroke-miterlimit:10;stroke-dasharray:none;stroke-opacity:1"
           d="m 543.373,379.539 -107.995,0 0,215.989 215.991,0 0,-215.989 -107.996,0 z" /></g><path
         id="path46"
         style="fill:#010101;fill-opacity:1;fill-rule:evenodd;stroke:none"
         d="m 569.352,458.988 c 0,9.356 -7.086,17.293 -16.723,20.696 8.219,4.25 13.32,11.906 13.32,20.41 0,10.207 -10.203,18.144 -22.672,18.144 -9.918,0 -18.422,-5.101 -23.523,-12.758 l 4.82,-6.804 c 5.102,10.488 14.168,12.191 18.703,12.191 6.235,0 12.188,-3.402 12.188,-11.058 0,-4.25 -2.551,-14.739 -15.586,-15.875 -2.27,-0.282 -4.254,-0.282 -6.52,-0.282 l 0,-7.937 9.067,0 c 11.621,0 15.304,-9.356 15.304,-16.727 0,-9.355 -5.667,-16.445 -14.734,-16.445 -9.922,0 -18.988,5.387 -23.523,11.625 -0.852,-4.82 -0.852,-4.82 -1.418,-7.656 5.953,-7.086 15.019,-11.907 25.222,-11.907 15.02,0 26.075,11.625 26.075,24.383" /><path
         id="path48"
         style="fill:#ffffff;fill-opacity:1;fill-rule:evenodd;stroke:none"
         d="m 543.563,163.578 -107.977,0 0,216.027 215.668,0 0,-216.027 -107.691,0" /><g
         transform="scale(0.999824,1.00018)"
         id="g50"><path
           id="path52"
           style="fill:none;stroke:#010101;stroke-width:7.08410978;stroke-linecap:butt;stroke-linejoin:round;stroke-miterlimit:10;stroke-dasharray:none;stroke-opacity:1"
           d="m 543.373,163.834 -107.995,0 0,215.705 215.991,0 0,-215.705 -107.996,0 z" /></g><path
         id="path54"
         style="fill:#010101;fill-opacity:1;fill-rule:evenodd;stroke:none"
         d="m 571.051,241.258 0,7.656 -12.188,0 0,50.746 -11.617,0 -30.891,-50.746 0,-7.656 32.59,0 0,-20.129 9.918,0 0,20.129 12.188,0 z m -21.539,7.656 -23.239,0 7.368,11.906 c 3.687,6.239 15.871,26.934 15.871,33.168 l 0,-45.074" /><path
         id="path56"
         style="fill:#ffffff;fill-opacity:1;fill-rule:evenodd;stroke:none"
         d="m 759.23,595.352 -107.976,0 0,216.027 215.949,0 0,-216.027 -107.973,0" /><g
         transform="scale(0.999824,1.00018)"
         id="g58"><path
           id="path60"
           style="fill:none;stroke:#010101;stroke-width:7.08410978;stroke-linecap:butt;stroke-linejoin:round;stroke-miterlimit:10;stroke-dasharray:none;stroke-opacity:1"
           d="m 759.364,595.528 -107.995,0 0,215.989 215.987,0 0,-215.989 -107.992,0 z" /></g><path
         id="path62"
         style="fill:#010101;fill-opacity:1;fill-rule:evenodd;stroke:none"
         d="m 784.453,730.863 c 0,3.403 -3.121,3.403 -4.82,3.403 l -39.11,0 c 0,0 -0.566,1.699 -3.398,1.699 -3.969,0 -3.969,-2.551 -3.969,-4.82 l 0,-4.536 c 0,-1.984 0,-4.82 3.969,-4.82 3.965,0 3.965,2.555 3.965,5.387 l 31.742,0 c -23.238,-25.797 -24.656,-54.43 -24.656,-62.086 0,-1.699 0,-5.668 3.969,-5.668 3.683,0 3.964,3.969 3.964,5.668 0.286,23.25 10.204,45.644 26.641,62.371 1.418,1.418 1.703,1.699 1.703,3.402" /><path
         id="path64"
         style="fill:#ffffff;fill-opacity:1;fill-rule:evenodd;stroke:none"
         d="m 759.23,379.605 -107.976,0 0,215.747 215.949,0 0,-215.747 -107.973,0" /><g
         transform="scale(0.999824,1.00018)"
         id="g66"><path
           id="path68"
           style="fill:none;stroke:#010101;stroke-width:7.08410978;stroke-linecap:butt;stroke-linejoin:round;stroke-miterlimit:10;stroke-dasharray:none;stroke-opacity:1"
           d="m 759.364,379.539 -107.995,0 0,215.989 215.987,0 0,-215.989 -107.992,0 z" /></g><path
         id="path70"
         style="fill:#010101;fill-opacity:1;fill-rule:evenodd;stroke:none"
         d="m 785.301,476.281 c 0,11.34 -0.848,21.828 -6.516,31.469 -3.969,6.52 -11.34,10.773 -19.273,10.773 -5.949,0 -14.453,-2.554 -19.836,-11.91 -5.668,-9.355 -6.238,-22.113 -6.238,-30.332 0,-5.953 0,-19.847 5.386,-29.484 6.235,-10.492 15.305,-12.192 20.406,-12.192 7.083,0 15.586,2.836 20.688,12.758 4.816,8.789 5.383,19.278 5.383,28.918 z m -9.918,1.418 c 0,-8.222 0,-16.445 -2.836,-24.383 -2.832,-8.222 -8.5,-10.773 -13.035,-10.773 -16.153,0 -16.153,23.816 -16.153,35.156 0,7.653 0,13.606 1.985,19.844 2.265,8.223 7.082,13.039 13.886,13.039 16.153,0 16.153,-21.828 16.153,-32.883" /><path
         id="path72"
         style="fill:#ffffff;fill-opacity:1;fill-rule:evenodd;stroke:none"
         d="m 759.23,163.578 -107.976,0 0,216.027 215.949,0 0,-216.027 -107.973,0" /><g
         transform="scale(0.999824,1.00018)"
         id="g74"><path
           id="path76"
           style="fill:none;stroke:#010101;stroke-width:7.08410978;stroke-linecap:butt;stroke-linejoin:round;stroke-miterlimit:10;stroke-dasharray:none;stroke-opacity:1"
           d="m 759.364,163.834 -107.995,0 0,215.705 215.987,0 0,-215.705 -107.992,0 z" /></g><path
         id="path78"
         style="fill:#010101;fill-opacity:1;fill-rule:evenodd;stroke:none"
         d="m 785.301,260.254 c 0,11.34 -0.848,21.828 -6.516,31.469 -3.969,6.519 -11.34,10.773 -19.273,10.773 -5.949,0 -14.453,-2.555 -19.836,-11.91 -5.668,-9.356 -6.238,-22.113 -6.238,-30.332 0,-5.953 0,-19.848 5.386,-29.484 6.235,-10.489 15.305,-12.192 20.406,-12.192 7.083,0 15.586,2.836 20.688,12.758 4.816,8.789 5.383,19.277 5.383,28.918 z m -9.918,1.418 c 0,-8.223 0,-16.445 -2.836,-24.383 -2.832,-8.223 -8.5,-10.773 -13.035,-10.773 -16.153,0 -16.153,23.816 -16.153,35.156 0,7.652 0,13.605 1.985,19.844 2.265,8.222 7.082,13.039 13.886,13.039 16.153,0 16.153,-21.828 16.153,-32.883" /><path
         id="path80"
         style="fill:#ffffff;fill-opacity:1;fill-rule:evenodd;stroke:none"
         d="m 327.609,595.352 -107.972,0 0,216.027 215.949,0 0,-216.027 -107.977,0" /><g
         transform="scale(0.999824,1.00018)"
         id="g82"><path
           id="path84"
           style="fill:none;stroke:#010101;stroke-width:7.08410978;stroke-linecap:butt;stroke-linejoin:round;stroke-miterlimit:10;stroke-dasharray:none;stroke-opacity:1"
           d="m 327.386,595.528 -107.996,0 0,215.989 215.988,0 0,-215.989 -107.992,0 z" /></g><path
         id="path86"
         style="fill:#010101;fill-opacity:1;fill-rule:evenodd;stroke:none"
         d="m 320.809,665.941 0,2.551 c 0,2.27 0,5.106 -3.969,5.106 -3.965,0 -3.965,-2.555 -3.965,-5.387 l -28.906,0 22.953,19.277 c 1.699,1.418 13.887,11.907 13.887,24.946 0,13.894 -11.336,23.531 -26.356,23.531 -13.887,0 -22.957,-10.488 -22.957,-20.695 0,-5.102 3.969,-5.387 4.82,-5.387 2.266,0 4.817,1.703 4.817,5.105 0,2.266 -0.852,2.832 -1.418,3.403 1.703,6.234 7.086,10.488 14.172,10.488 10.203,0 18.988,-5.953 18.988,-16.445 0,-9.356 -7.086,-16.442 -13.32,-22.11 l -26.356,-22.965 c -1.418,-0.851 -1.703,-1.418 -1.703,-2.836 0,-3.402 3.117,-3.402 4.82,-3.402 l 41.942,0 c 2.551,0.852 2.551,3.121 2.551,4.82" /><path
         id="path88"
         style="fill:#010101;fill-opacity:1;fill-rule:evenodd;stroke:none"
         d="m 383.156,697.695 c 0,22.395 -11.902,38.27 -24.656,38.27 -13.035,0 -24.937,-16.16 -24.937,-38.27 0,-22.113 11.902,-37.992 24.937,-37.992 13.039,0 24.656,16.16 24.656,37.992 z m -7.652,1.414 c 0,-17.859 -7.652,-32.316 -17.004,-32.316 -9.633,0 -17.004,14.457 -17.004,32.316 0,17.864 8.219,29.77 17.004,29.77 8.785,0 17.004,-11.906 17.004,-29.77" /><path
         id="path90"
         style="fill:#ffffff;fill-opacity:1;fill-rule:evenodd;stroke:none"
         d="m 327.609,379.605 -107.972,0 0,215.747 215.949,0 0,-215.747 -107.977,0" /><g
         transform="scale(0.999824,1.00018)"
         id="g92"><path
           id="path94"
           style="fill:none;stroke:#010101;stroke-width:7.08410978;stroke-linecap:butt;stroke-linejoin:round;stroke-miterlimit:10;stroke-dasharray:none;stroke-opacity:1"
           d="m 327.386,379.539 -107.996,0 0,215.989 215.988,0 0,-215.989 -107.992,0 z" /></g><path
         id="path96"
         style="fill:#010101;fill-opacity:1;fill-rule:evenodd;stroke:none"
         d="m 352.266,437.156 0,9.074 -22.387,0 c -1.418,0 -2.836,-0.285 -4.254,-0.285 l -13.316,0 19.836,17.86 c 12.468,10.492 20.121,17.011 20.121,28.636 0,13.606 -9.918,25.797 -26.071,25.797 -12.754,0 -20.406,-7.371 -24.09,-19.277 l 5.668,-6.805 c 3.118,13.891 9.352,17.86 16.719,17.86 10.77,0 17.289,-8.219 17.289,-17.86 0,-11.058 -7.652,-17.859 -16.437,-25.797 l -22.106,-20.98 0,-8.223 49.028,0" /><path
         id="path98"
         style="fill:#ffffff;fill-opacity:1;fill-rule:evenodd;stroke:none"
         d="m 327.609,163.578 -107.972,0 0,216.027 215.949,0 0,-216.027 -107.977,0" /><g
         transform="scale(0.999824,1.00018)"
         id="g100"><path
           id="path102"
           style="fill:none;stroke:#010101;stroke-width:7.08410978;stroke-linecap:butt;stroke-linejoin:round;stroke-miterlimit:10;stroke-dasharray:none;stroke-opacity:1"
           d="m 327.386,163.834 -107.996,0 0,215.705 215.988,0 0,-215.705 -107.992,0 z" /></g><path
         id="path104"
         style="fill:#010101;fill-opacity:1;fill-rule:evenodd;stroke:none"
         d="m 353.398,248.063 c 0,6.519 -1.132,12.472 -5.101,18.996 -4.817,7.652 -9.067,9.636 -14.734,9.636 -4.536,0 -13.321,-1.418 -20.688,-9.922 1.133,16.161 9.352,28.067 22.387,28.067 2.269,0 6.801,0 12.754,-2.551 l 0,7.652 c -5.668,2.27 -10.485,2.27 -13.036,2.27 -17.289,0 -32.875,-16.727 -32.875,-42.523 0,-32.887 14.454,-41.11 25.79,-41.11 7.367,0 12.753,2.551 17.285,7.938 5.953,6.519 8.218,11.906 8.218,21.547 z m -10.484,0 c 0,-4.821 0,-9.641 -3.117,-14.743 -2.266,-3.683 -5.668,-6.804 -11.902,-6.804 -12.754,0 -14.454,17.011 -15.02,20.98 0,1.699 0,1.984 0.281,3.117 0,9.075 5.668,18.43 15.305,18.43 4.535,0 8.785,-1.703 11.902,-7.371 2.266,-4.254 2.551,-8.223 2.551,-13.609" /><path
         id="path106"
         style="fill:#ffffff;fill-opacity:1;fill-rule:evenodd;stroke:none"
         d="m 975.18,595.352 -107.977,0 0,216.027 215.957,0 0,-216.027 -107.98,0" /><g
         transform="scale(0.999824,1.00018)"
         id="g108"><path
           id="path110"
           style="fill:none;stroke:#010101;stroke-width:7.08410978;stroke-linecap:butt;stroke-linejoin:round;stroke-miterlimit:10;stroke-dasharray:none;stroke-opacity:1"
           d="m 975.352,595.528 -107.996,0 0,215.989 215.994,0 0,-215.989 -107.998,0 z" /></g><path
         id="path112"
         style="fill:#010101;fill-opacity:1;fill-rule:evenodd;stroke:none"
         d="m 964.695,664.523 c 0,3.688 -3.117,3.688 -4.82,3.688 l -10.484,0 0,62.652 c 0,1.985 0,5.102 -3.684,5.102 -1.984,0 -2.551,-1.133 -3.402,-2.832 -2.266,-5.106 -6.235,-11.625 -12.469,-12.192 -1.984,0 -4.535,-0.285 -4.535,-3.402 0,-1.984 1.418,-3.402 3.969,-3.402 6.8,0 11.902,5.101 12.183,5.386 l 0,-51.312 -10.484,0 c -1.699,0 -4.817,0 -4.817,-3.688 0,-3.402 3.118,-3.402 4.817,-3.402 l 28.906,0 c 1.703,0 4.82,0 4.82,3.402" /><path
         id="path114"
         style="fill:#010101;fill-opacity:1;fill-rule:evenodd;stroke:none"
         d="m 1030.73,683.801 c 0,12.191 -9.07,24.097 -22.96,24.097 -3.97,0 -9.352,-0.847 -14.168,-3.683 l 0,22.961 28.058,0 c 1.7,0 4.82,0 4.82,3.687 0,3.403 -3.12,3.403 -4.82,3.403 l -31.176,0 c -3.687,0 -4.82,-0.852 -4.82,-4.536 l 0,-32.035 c 0,-1.703 0,-4.82 3.684,-4.82 1.984,0 2.269,0.566 3.402,1.699 3.402,4.254 8.79,6.239 15.02,6.239 9.35,0 15.02,-8.504 15.02,-17.012 0,-9.637 -8.22,-17.293 -18.42,-17.293 -6.233,0 -12.472,3.121 -14.737,8.504 0.566,0.57 1.418,1.418 1.418,3.687 0,3.117 -2.836,4.821 -4.821,4.821 -1.132,0 -4.816,-0.567 -4.816,-5.387 0,-9.922 9.918,-18.711 22.956,-18.711 14.45,0 26.36,11.055 26.36,24.379" /><path
         id="path116"
         style="fill:#ffffff;fill-opacity:1;fill-rule:evenodd;stroke:none"
         d="m 975.18,379.605 -107.977,0 0,215.747 215.957,0 0,-215.747 -107.98,0" /><g
         transform="scale(0.999824,1.00018)"
         id="g118"><path
           id="path120"
           style="fill:none;stroke:#010101;stroke-width:7.08410978;stroke-linecap:butt;stroke-linejoin:round;stroke-miterlimit:10;stroke-dasharray:none;stroke-opacity:1"
           d="m 975.352,379.539 -107.996,0 0,215.989 215.994,0 0,-215.989 -107.998,0 z" /></g><path
         id="path122"
         style="fill:#010101;fill-opacity:1;fill-rule:evenodd;stroke:none"
         d="m 999.836,461.539 c 0,15.024 -10.488,26.93 -23.238,26.93 -1.703,0 -7.371,0 -13.039,-4.817 l 0,23.813 32.308,0 0,8.223 -41.66,0 0,-44.512 8.785,0 c 3.684,8.789 11.055,9.355 13.321,9.355 4.816,0 12.187,-3.683 12.187,-18.711 0,-14.742 -8.785,-19.277 -15.871,-19.277 -6.234,0 -14.453,2.836 -18.988,10.773 l -4.25,-7.086 c 1.699,-2.554 9.918,-11.625 23.238,-11.625 15.019,0 27.207,11.907 27.207,26.934" /><path
         id="path124"
         style="fill:#ffffff;fill-opacity:1;fill-rule:evenodd;stroke:none"
         d="m 975.18,163.578 -107.977,0 0,216.027 215.957,0 0,-216.027 -107.98,0" /><g
         transform="scale(0.999824,1.00018)"
         id="g126"><path
           id="path128"
           style="fill:none;stroke:#010101;stroke-width:7.08410978;stroke-linecap:butt;stroke-linejoin:round;stroke-miterlimit:10;stroke-dasharray:none;stroke-opacity:1"
           d="m 975.352,163.834 -107.996,0 0,215.705 215.994,0 0,-215.705 -107.998,0 z" /></g><path
         id="path130"
         style="fill:#010101;fill-opacity:1;fill-rule:evenodd;stroke:none"
         d="m 1001.25,260.254 c 0,11.34 -0.85,21.828 -6.516,31.469 -3.968,6.519 -11.336,10.773 -19.273,10.773 -5.949,0 -14.453,-2.555 -19.836,-11.91 -5.668,-9.356 -6.234,-22.113 -6.234,-30.332 0,-5.953 0,-19.848 5.382,-29.484 6.235,-10.489 15.305,-12.192 20.407,-12.192 7.086,0 15.586,2.836 20.687,12.758 4.813,8.789 5.383,19.277 5.383,28.918 z m -9.918,1.418 c 0,-8.223 0,-16.445 -2.832,-24.383 -2.836,-8.223 -8.504,-10.773 -13.039,-10.773 -16.152,0 -16.152,23.816 -16.152,35.156 0,7.652 0,13.605 1.984,19.844 2.266,8.222 7.086,13.039 13.887,13.039 16.152,0 16.152,-21.828 16.152,-32.883" /><path
         id="path132"
         style="fill:#010101;fill-opacity:1;fill-rule:evenodd;stroke:none"
         d="m 137.734,908.051 c 0,11.34 -0.851,21.828 -6.519,31.469 -3.969,6.519 -11.336,10.773 -19.274,10.773 -5.949,0 -14.4527,-2.551 -19.8355,-11.906 -5.668,-9.356 -6.2344,-22.114 -6.2344,-30.336 0,-5.953 0,-19.844 5.3828,-29.485 6.2344,-10.488 15.3051,-12.191 20.4061,-12.191 7.086,0 15.586,2.836 20.688,12.758 4.816,8.789 5.386,19.277 5.386,28.918 z m -9.921,1.418 c 0,-8.223 0,-16.446 -2.833,-24.383 -2.835,-8.219 -8.503,-10.773 -13.039,-10.773 -16.1519,0 -16.1519,23.816 -16.1519,35.156 0,7.652 0,13.605 1.9843,19.844 2.2656,8.222 7.0856,13.042 13.8866,13.042 16.153,0 16.153,-21.832 16.153,-32.886" /><path
         id="path134"
         style="fill:#010101;fill-opacity:1;fill-rule:evenodd;stroke:none"
         d="m 349.434,868.926 0,7.371 -15.305,0 0,73.711 -2.551,0 c -8.219,-7.938 -19.555,-7.938 -23.805,-7.938 l 0,-7.371 c 3.399,0 9.352,0 16.153,2.836 l 0,-61.238 -15.305,0 0,-7.371 40.813,0" /><path
         id="path136"
         style="fill:#010101;fill-opacity:1;fill-rule:evenodd;stroke:none"
         d="m 568.219,868.926 0,9.074 -22.391,0 c -1.418,0 -2.832,-0.285 -4.25,-0.285 l -13.32,0 19.836,17.863 c 12.472,10.488 20.125,17.008 20.125,28.633 0,13.605 -9.922,25.797 -26.074,25.797 -12.754,0 -20.407,-7.371 -24.09,-19.278 l 5.668,-6.804 c 3.117,13.89 9.351,17.859 16.722,17.859 10.77,0 17.285,-8.219 17.285,-17.859 0,-11.055 -7.652,-17.86 -16.437,-25.797 l -22.105,-20.981 0,-8.222 49.031,0" /><path
         id="path138"
         style="fill:#010101;fill-opacity:1;fill-rule:evenodd;stroke:none"
         d="m 785.02,890.758 c 0,9.355 -7.086,17.293 -16.723,20.695 8.219,4.25 13.32,11.906 13.32,20.41 0,10.207 -10.203,18.145 -22.672,18.145 -9.918,0 -18.422,-5.102 -23.523,-12.758 l 4.82,-6.805 c 5.102,10.493 14.168,12.192 18.703,12.192 6.235,0 12.188,-3.403 12.188,-11.055 0,-4.254 -2.551,-14.742 -15.59,-15.879 -2.266,-0.281 -4.25,-0.281 -6.516,-0.281 l 0,-7.938 9.067,0 c 11.621,0 15.304,-9.355 15.304,-16.726 0,-9.356 -5.668,-16.445 -14.738,-16.445 -9.918,0 -18.984,5.386 -23.519,11.625 -0.852,-4.821 -0.852,-4.821 -1.418,-7.657 5.953,-7.086 15.019,-11.906 25.222,-11.906 15.02,0 26.075,11.625 26.075,24.383" /><path
         id="path140"
         style="fill:#010101;fill-opacity:1;fill-rule:evenodd;stroke:none"
         d="m 1002.67,889.055 0,7.656 -12.186,0 0,50.746 -11.621,0 -30.89,-50.746 0,-7.656 32.59,0 0,-20.129 9.921,0 0,20.129 12.186,0 z m -21.541,7.656 -23.238,0 7.371,11.906 c 3.683,6.238 15.867,26.934 15.867,33.168 l 0,-45.074" /><path
         id="path142"
         style="fill:#010101;fill-opacity:1;fill-rule:evenodd;stroke:none"
         d="m 389.109,1005.29 0,53.3 -9.636,0 0,-53.3 9.636,0 z m 0.848,67.48 0,11.62 -11.336,0 0,-11.62 11.336,0" /><path
         id="path144"
         style="fill:#010101;fill-opacity:1;fill-rule:evenodd;stroke:none"
         d="m 453.441,1005.29 0,35.72 c 0,8.79 -2.55,19 -17.003,19 -9.356,0 -15.024,-5.67 -17.856,-9.36 l 0,8.51 -9.352,0 0,-53.87 9.918,0 0,29.2 c 0,7.94 3.118,17.58 12.469,17.58 11.903,0 11.903,-8.51 11.903,-11.91 l 0,-34.87 9.921,0" /><path
         id="path146"
         style="fill:#010101;fill-opacity:1;fill-rule:evenodd;stroke:none"
         d="m 516.637,1005.01 0,83.35 -9.633,0 0,-35.16 c -6.52,5.67 -14.453,6.52 -18.141,6.52 -12.183,0 -21.535,-12.47 -21.535,-27.78 0,-15.59 9.352,-28.06 20.969,-28.06 3.683,0 11.336,0.84 18.422,7.65 l 0,-6.52 9.918,0 z m -9.918,17.01 c 0,-2.27 0,-2.56 -1.418,-4.25 -3.117,-4.26 -7.082,-5.96 -11.617,-5.96 -7.653,0 -16.438,5.39 -16.438,19.85 0,15.3 10.203,20.41 17.856,20.41 5.382,0 9.351,-3.12 11.617,-6.24 l 0,-23.81" /><path
         id="path148"
         style="fill:#010101;fill-opacity:1;fill-rule:evenodd;stroke:none"
         d="m 578.137,1031.37 c 0,3.69 -0.285,12.76 -4.821,20.13 -5.097,7.37 -12.75,8.79 -17.285,8.79 -13.886,0 -24.941,-12.76 -24.941,-28.07 0,-15.87 11.621,-28.34 26.64,-28.34 5.668,0 12.754,1.41 19.84,5.95 l -0.851,8.22 c -7.653,-5.39 -14.739,-6.24 -18.703,-6.24 -10.203,0 -17.856,8.51 -18.137,19.56 l 38.258,0 z m -7.367,7.09 -30.043,0 c 1.699,7.65 7.652,14.18 15.304,14.18 4.25,0 12.469,-1.99 14.739,-14.18" /><path
         id="path150"
         style="fill:#010101;fill-opacity:1;fill-rule:evenodd;stroke:none"
         d="m 639.918,1005.29 -23.523,32.6 20.687,20.7 -11.336,0 -24.656,-24.66 0,54.71 -9.067,0 0,-83.35 8.786,0 0,17.01 9.636,9.64 18.985,-26.65 10.488,0" /><path
         id="path152"
         style="fill:#010101;fill-opacity:1;fill-rule:evenodd;stroke:none"
         d="m 686.395,1020.6 c 0,4.25 -1.7,8.51 -5.95,12.19 -4.254,3.4 -7.652,3.97 -15.304,5.39 -4.25,0.85 -10.203,1.98 -10.203,7.65 0,7.09 8.5,7.09 10.203,7.09 8.785,0 14.168,-2.83 17.57,-4.54 l 1.418,8.23 c -7.371,3.4 -12.754,3.96 -17.856,3.96 -2.55,0 -20.406,0 -20.406,-15.87 0,-5.67 3.688,-9.36 4.821,-10.77 4.535,-3.97 7.652,-4.54 15.871,-5.96 3.964,-0.85 10.765,-2.27 10.765,-8.22 0,-7.94 -9.633,-7.94 -11.336,-7.94 -7.082,0 -13.886,2.55 -18.984,6.24 l -1.703,-8.79 c 7.371,-3.97 14.453,-5.38 20.687,-5.38 7.938,0 20.407,2.55 20.407,16.72" /><path
         id="path154"
         style="fill:#010101;fill-opacity:1;fill-rule:evenodd;stroke:none"
         d="m 708.215,1005.29 0,53.3 -9.633,0 0,-53.3 9.633,0 z m 0.851,67.48 0,11.62 -11.336,0 0,-11.62 11.336,0" /><path
         id="path156"
         style="fill:#010101;fill-opacity:1;fill-rule:evenodd;stroke:none"
         d="m 1861.66,679.266 c 0,3.687 -0.29,12.757 -4.82,20.129 -5.11,7.371 -12.75,8.789 -17.29,8.789 -13.89,0 -24.94,-12.758 -24.94,-28.067 0,-15.875 11.62,-28.351 26.64,-28.351 5.67,0 12.75,1.418 19.84,5.953 l -0.85,8.222 c -7.65,-5.386 -14.74,-6.238 -18.7,-6.238 -10.21,0 -17.86,8.508 -18.15,19.563 l 38.27,0 z m -7.37,7.086 -30.04,0 c 1.7,7.656 7.65,14.175 15.3,14.175 4.25,0 12.47,-1.984 14.74,-14.175" /><path
         id="path158"
         style="fill:#010101;fill-opacity:1;fill-rule:evenodd;stroke:none"
         d="m 1875.54,653.184 9.6328,0 0,83.3477 -9.6328,0 0,-83.3477 z" /><path
         id="path160"
         style="fill:#010101;fill-opacity:1;fill-rule:evenodd;stroke:none"
         d="m 1946.96,679.266 c 0,3.687 -0.28,12.757 -4.82,20.129 -5.1,7.371 -12.75,8.789 -17.29,8.789 -13.89,0 -24.94,-12.758 -24.94,-28.067 0,-15.875 11.63,-28.351 26.64,-28.351 5.67,0 12.75,1.418 19.84,5.953 l -0.85,8.222 c -7.65,-5.386 -14.74,-6.238 -18.7,-6.238 -10.21,0 -17.86,8.508 -18.14,19.563 l 38.26,0 z m -7.37,7.086 -30.04,0 c 1.7,7.656 7.65,14.175 15.3,14.175 4.26,0 12.47,-1.984 14.74,-14.175" /><path
         id="path162"
         style="fill:#010101;fill-opacity:1;fill-rule:evenodd;stroke:none"
         d="m 2038.5,653.184 0,35.722 c 0,8.789 -2.27,18.992 -16.72,18.992 -10.21,0 -15.87,-6.234 -18.71,-9.921 -0.85,2.269 -3.4,9.921 -15.59,9.921 -9.35,0 -15.02,-5.668 -17.85,-9.355 l 0,8.508 -9.35,0 0,-53.867 9.92,0 0,29.199 c 0,7.941 3.11,17.578 12.47,17.578 11.9,0 11.9,-8.504 11.9,-11.906 l 0,-34.871 9.92,0 0,29.199 c 0,7.941 3.12,17.578 12.19,17.578 11.9,0 11.9,-8.504 11.9,-11.906 l 0,-34.871 9.92,0" /><path
         id="path164"
         style="fill:#010101;fill-opacity:1;fill-rule:evenodd;stroke:none"
         d="m 2100.28,679.266 c 0,3.687 -0.28,12.757 -4.82,20.129 -5.1,7.371 -12.75,8.789 -17.29,8.789 -13.88,0 -24.94,-12.758 -24.94,-28.067 0,-15.875 11.62,-28.351 26.64,-28.351 5.67,0 12.76,1.418 19.84,5.953 l -0.85,8.222 c -7.65,-5.386 -14.73,-6.238 -18.7,-6.238 -10.21,0 -17.86,8.508 -18.14,19.563 l 38.26,0 z m -7.37,7.086 -30.04,0 c 1.7,7.656 7.65,14.175 15.3,14.175 4.25,0 12.47,-1.984 14.74,-14.175" /><path
         id="path166"
         style="fill:#010101;fill-opacity:1;fill-rule:evenodd;stroke:none"
         d="m 2158.09,653.184 0,35.722 c 0,8.789 -2.55,18.992 -17,18.992 -9.36,0 -15.02,-5.668 -17.86,-9.355 l 0,8.508 -9.35,0 0,-53.867 9.92,0 0,29.199 c 0,7.941 3.12,17.578 12.47,17.578 11.9,0 11.9,-8.504 11.9,-11.906 l 0,-34.871 9.92,0" /><path
         id="path168"
         style="fill:#010101;fill-opacity:1;fill-rule:evenodd;stroke:none"
         d="m 2209.1,656.301 -2.26,7.371 c -3.12,-2.266 -7.09,-3.684 -10.77,-3.684 -4.82,0 -6.24,4.254 -6.24,10.489 l 0,28.351 17.01,0 0,7.371 -17.01,0 0,15.309 -9.07,0 0,-15.309 -10.48,0 0,-7.371 10.2,0 0,-30.617 c 0,-7.09 1.42,-16.445 10.2,-16.445 5.39,0 11.62,1.136 18.42,4.535" /><path
         id="path170"
         style="fill:#010101;fill-opacity:1;fill-rule:evenodd;stroke:none"
         d="m 2231.77,653.184 0,53.296 -9.63,0 0,-53.296 9.63,0 z m 0.86,67.472 0,11.625 -11.34,0 0,-11.625 11.34,0" /><path
         id="path172"
         style="fill:#010101;fill-opacity:1;fill-rule:evenodd;stroke:none"
         d="m 1829.91,437.441 0,53.297 -9.63,0 0,-53.297 9.63,0 z m 0.86,67.473 0,11.621 -11.34,0 0,-11.621 11.34,0" /><path
         id="path174"
         style="fill:#010101;fill-opacity:1;fill-rule:evenodd;stroke:none"
         d="m 1894.25,437.441 0,35.719 c 0,8.789 -2.55,18.996 -17.01,18.996 -9.35,0 -15.02,-5.672 -17.85,-9.355 l 0,8.504 -9.35,0 0,-53.864 9.91,0 0,29.2 c 0,7.937 3.12,17.578 12.48,17.578 11.9,0 11.9,-8.504 11.9,-11.906 l 0,-34.872 9.92,0" /><path
         id="path176"
         style="fill:#010101;fill-opacity:1;fill-rule:evenodd;stroke:none"
         d="m 1957.45,437.156 0,83.352 -9.64,0 0,-35.156 c -6.52,5.671 -14.45,6.519 -18.14,6.519 -12.19,0 -21.54,-12.473 -21.54,-27.781 0,-15.594 9.35,-28.067 20.98,-28.067 3.68,0 11.33,0.852 18.41,7.653 l 0,-6.52 9.93,0 z m -9.93,17.012 c 0,-2.27 0,-2.551 -1.41,-4.254 -3.12,-4.254 -7.09,-5.953 -11.62,-5.953 -7.65,0 -16.44,5.387 -16.44,19.844 0,15.308 10.2,20.414 17.86,20.414 5.38,0 9.35,-3.121 11.61,-6.239 l 0,-23.812" /><path
         id="path178"
         style="fill:#010101;fill-opacity:1;fill-rule:evenodd;stroke:none"
         d="m 2018.94,463.523 c 0,3.684 -0.28,12.758 -4.81,20.129 -5.11,7.371 -12.76,8.786 -17.29,8.786 -13.89,0 -24.94,-12.754 -24.94,-28.067 0,-15.875 11.62,-28.348 26.64,-28.348 5.66,0 12.75,1.418 19.84,5.954 l -0.86,8.222 c -7.65,-5.386 -14.73,-6.238 -18.7,-6.238 -10.2,0 -17.86,8.504 -18.14,19.562 l 38.26,0 z m -7.37,7.086 -30.04,0 c 1.7,7.657 7.65,14.176 15.31,14.176 4.25,0 12.46,-1.984 14.73,-14.176" /><path
         id="path180"
         style="fill:#010101;fill-opacity:1;fill-rule:evenodd;stroke:none"
         d="m 2080.72,437.441 -23.52,32.602 20.69,20.695 -11.34,0 -24.65,-24.664 0,54.715 -9.07,0 0,-83.348 8.78,0 0,17.008 9.64,9.641 18.99,-26.649 10.48,0" /><path
         id="path182"
         style="fill:#010101;fill-opacity:1;fill-rule:evenodd;stroke:none"
         d="m 2127.2,452.75 c 0,4.25 -1.7,8.504 -5.95,12.191 -4.25,3.403 -7.65,3.969 -15.3,5.387 -4.25,0.848 -10.21,1.985 -10.21,7.652 0,7.09 8.51,7.09 10.21,7.09 8.78,0 14.17,-2.836 17.57,-4.539 l 1.41,8.223 c -7.36,3.402 -12.75,3.969 -17.85,3.969 -2.55,0 -20.4,0 -20.4,-15.875 0,-5.672 3.68,-9.356 4.81,-10.774 4.54,-3.969 7.65,-4.535 15.87,-5.953 3.97,-0.851 10.77,-2.269 10.77,-8.223 0,-7.937 -9.63,-7.937 -11.33,-7.937 -7.09,0 -13.89,2.551 -18.99,6.238 l -1.7,-8.789 c 7.37,-3.969 14.45,-5.387 20.69,-5.387 7.93,0 20.4,2.551 20.4,16.727" /><path
         id="path184"
         style="fill:#010101;fill-opacity:1;fill-rule:evenodd;stroke:none"
         d="m 2149.02,437.441 0,53.297 -9.63,0 0,-53.297 9.63,0 z m 0.85,67.473 0,11.621 -11.33,0 0,-11.621 11.33,0" /><path
         id="path186"
         style="fill:#010101;fill-opacity:1;fill-rule:evenodd;stroke:none"
         d="m 2210.24,437.441 9.6328,0 0,83.3477 -9.6328,0 0,-83.3477 z" /><path
         id="path188"
         style="fill:#010101;fill-opacity:1;fill-rule:evenodd;stroke:none"
         d="m 2281.65,463.523 c 0,3.684 -0.28,12.758 -4.81,20.129 -5.11,7.371 -12.76,8.786 -17.29,8.786 -13.89,0 -24.94,-12.754 -24.94,-28.067 0,-15.875 11.62,-28.348 26.64,-28.348 5.67,0 12.75,1.418 19.84,5.954 l -0.85,8.222 c -7.65,-5.386 -14.74,-6.238 -18.71,-6.238 -10.2,0 -17.85,8.504 -18.14,19.562 l 38.26,0 z m -7.36,7.086 -30.04,0 c 1.7,7.657 7.65,14.176 15.3,14.176 4.25,0 12.47,-1.984 14.74,-14.176" /><path
         id="path190"
         style="fill:#010101;fill-opacity:1;fill-rule:evenodd;stroke:none"
         d="m 2340.32,490.738 -9.36,0 c -5.1,-13.324 -5.38,-13.324 -9.63,-24.379 -2.27,-6.238 -6.8,-17.863 -7.37,-22.113 l -0.28,0 c -0.29,1.984 -0.57,4.25 -7.09,21.543 l -9.63,24.949 -9.92,0 20.97,-53.297 11.34,0 20.97,53.297" /><path
         id="path192"
         style="fill:#010101;fill-opacity:1;fill-rule:evenodd;stroke:none"
         d="m 2361.29,437.441 0,53.297 -9.64,0 0,-53.297 9.64,0 z m 0.85,67.473 0,11.621 -11.34,0 0,-11.621 11.34,0" /><path
         id="path194"
         style="fill:#010101;fill-opacity:1;fill-rule:evenodd;stroke:none"
         d="m 2425.62,437.441 0,35.719 c 0,8.789 -2.55,18.996 -17,18.996 -6.8,0 -13.32,-3.402 -17.57,-8.789 l 0,37.422 -9.64,0 0,-83.348 9.92,0 0,29.2 c 0,7.937 3.12,17.578 12.47,17.578 11.9,0 11.9,-8.504 11.9,-11.906 l 0,-34.872 9.92,0" /><path
         id="path196"
         style="fill:#010101;fill-opacity:1;fill-rule:evenodd;stroke:none"
         d="m 2530.2,437.441 0,35.719 c 0,8.789 -2.56,18.996 -17.01,18.996 -9.35,0 -15.02,-5.672 -17.85,-9.355 l 0,8.504 -9.36,0 0,-53.864 9.92,0 0,29.2 c 0,7.937 3.12,17.578 12.48,17.578 11.9,0 11.9,-8.504 11.9,-11.906 l 0,-34.872 9.92,0" /><path
         id="path198"
         style="fill:#010101;fill-opacity:1;fill-rule:evenodd;stroke:none"
         d="m 2590.56,437.441 0,34.586 c 0,11.907 -8.79,20.696 -20.69,20.696 -7.93,0 -13.6,-1.985 -19.27,-5.387 l 0.57,-8.223 c 5.95,4.254 11.9,5.957 18.42,5.957 6.8,0 10.77,-5.386 10.77,-13.043 l 0,-5.101 c -20.41,0 -34.01,-5.387 -34.01,-15.309 0,-5.672 3.69,-15.312 14.17,-15.312 2.27,0 12.75,0 20.41,5.672 l 0,-4.536 9.63,0 z m -10.2,16.727 c 0,-2.551 0,-5.387 -4.25,-7.938 -2.84,-1.703 -6.81,-2.269 -9.36,-2.269 -5.95,0 -11.33,2.836 -11.33,7.937 0,8.504 23.52,8.504 24.94,8.504 l 0,-6.234" /><path
         id="path200"
         style="fill:#010101;fill-opacity:1;fill-rule:evenodd;stroke:none"
         d="m 2642.99,452.75 c 0,4.25 -1.7,8.504 -5.95,12.191 -4.25,3.403 -7.65,3.969 -15.31,5.387 -4.25,0.848 -10.2,1.985 -10.2,7.652 0,7.09 8.51,7.09 10.2,7.09 8.79,0 14.17,-2.836 17.57,-4.539 l 1.42,8.223 c -7.37,3.402 -12.75,3.969 -17.85,3.969 -2.55,0 -20.41,0 -20.41,-15.875 0,-5.672 3.69,-9.356 4.82,-10.774 4.54,-3.969 7.65,-4.535 15.87,-5.953 3.97,-0.851 10.77,-2.269 10.77,-8.223 0,-7.937 -9.63,-7.937 -11.34,-7.937 -7.08,0 -13.88,2.551 -18.98,6.238 l -1.71,-8.789 c 7.38,-3.969 14.46,-5.387 20.69,-5.387 7.94,0 20.41,2.551 20.41,16.727" /><path
         id="path202"
         style="fill:#010101;fill-opacity:1;fill-rule:evenodd;stroke:none"
         d="m 2655.18,437.441 9.6328,0 0,83.3477 -9.6328,0 0,-83.3477 z" /><path
         id="path204"
         style="fill:#010101;fill-opacity:1;fill-rule:evenodd;stroke:none"
         d="m 2726.59,463.523 c 0,3.684 -0.28,12.758 -4.82,20.129 -5.1,7.371 -12.75,8.786 -17.28,8.786 -13.89,0 -24.94,-12.754 -24.94,-28.067 0,-15.875 11.62,-28.348 26.64,-28.348 5.67,0 12.75,1.418 19.83,5.954 l -0.84,8.222 c -7.66,-5.386 -14.74,-6.238 -18.71,-6.238 -10.2,0 -17.85,8.504 -18.14,19.562 l 38.26,0 z m -7.37,7.086 -30.04,0 c 1.7,7.657 7.66,14.176 15.31,14.176 4.25,0 12.47,-1.984 14.73,-14.176" /><path
         id="path206"
         style="fill:#010101;fill-opacity:1;fill-rule:evenodd;stroke:none"
         d="m 2784.12,437.156 0,83.352 -9.64,0 0,-35.156 c -6.51,5.671 -14.45,6.519 -18.13,6.519 -12.19,0 -21.54,-12.473 -21.54,-27.781 0,-15.594 9.35,-28.067 20.97,-28.067 3.68,0 11.34,0.852 18.42,7.653 l 0,-6.52 9.92,0 z m -9.92,17.012 c 0,-2.27 0,-2.551 -1.41,-4.254 -3.12,-4.254 -7.09,-5.953 -11.62,-5.953 -7.65,0 -16.44,5.387 -16.44,19.844 0,15.308 10.2,20.414 17.85,20.414 5.39,0 9.36,-3.121 11.62,-6.239 l 0,-23.812" /><path
         id="path208"
         style="fill:#010101;fill-opacity:1;fill-rule:evenodd;stroke:none"
         d="m 2847.89,437.441 0,35.719 c 0,8.789 -2.55,18.996 -17.01,18.996 -9.35,0 -15.02,-5.672 -17.85,-9.355 l 0,8.504 -9.35,0 0,-53.864 9.91,0 0,29.2 c 0,7.937 3.12,17.578 12.48,17.578 11.9,0 11.9,-8.504 11.9,-11.906 l 0,-34.872 9.92,0" /><path
         id="path210"
         style="fill:#010101;fill-opacity:1;fill-rule:evenodd;stroke:none"
         d="m 2877.36,437.441 0,53.297 -9.63,0 0,-53.297 9.63,0 z m 0.85,67.473 0,11.621 -11.33,0 0,-11.621 11.33,0" /><path
         id="path212"
         style="fill:#010101;fill-opacity:1;fill-rule:evenodd;stroke:none"
         d="m 2945.94,437.441 -23.52,32.602 20.69,20.695 -11.34,0 -24.65,-24.664 0,54.715 -9.07,0 0,-83.348 8.79,0 0,17.008 9.63,9.641 18.99,-26.649 10.48,0" /><path
         id="path214"
         style="fill:#010101;fill-opacity:1;fill-rule:evenodd;stroke:none"
         d="m 3002.05,463.805 c 0,15.593 -11.9,28.633 -27.2,28.633 -14.74,0 -26.92,-12.754 -26.92,-28.633 0,-15.875 12.47,-27.782 26.92,-27.782 15.02,0 27.2,12.192 27.2,27.782 z m -9.91,1.136 c 0,-13.894 -8.22,-20.695 -17.01,-20.695 -9.35,0 -17.28,7.086 -17.28,20.695 0,13.891 9.06,19.844 17,19.844 8.79,0 17.29,-6.238 17.29,-19.844" /><path
         id="path216"
         style="fill:#010101;fill-opacity:1;fill-rule:evenodd;stroke:none"
         d="m 3059.87,490.738 -9.35,0 c -5.1,-13.324 -5.39,-13.324 -9.64,-24.379 -2.27,-6.238 -6.8,-17.863 -7.36,-22.113 l -0.29,0 c -0.28,1.984 -0.57,4.25 -7.09,21.543 l -9.63,24.949 -9.92,0 20.97,-53.297 11.34,0 20.97,53.297" /><path
         id="path218"
         style="fill:#010101;fill-opacity:1;fill-rule:evenodd;stroke:none"
         d="m 1829.91,221.414 0,53.297 -9.63,0 0,-53.297 9.63,0 z m 0.86,67.473 0,11.625 -11.34,0 0,-11.625 11.34,0" /><path
         id="path220"
         style="fill:#010101;fill-opacity:1;fill-rule:evenodd;stroke:none"
         d="m 1894.25,221.414 0,35.719 c 0,8.789 -2.55,18.996 -17.01,18.996 -9.35,0 -15.02,-5.672 -17.85,-9.356 l 0,8.504 -9.35,0 0,-53.863 9.91,0 0,29.199 c 0,7.938 3.12,17.578 12.48,17.578 11.9,0 11.9,-8.503 11.9,-11.906 l 0,-34.871 9.92,0" /><path
         id="path222"
         style="fill:#010101;fill-opacity:1;fill-rule:evenodd;stroke:none"
         d="m 1957.45,221.129 0,83.351 -9.64,0 0,-35.156 c -6.52,5.672 -14.45,6.52 -18.14,6.52 -12.19,0 -21.54,-12.473 -21.54,-27.781 0,-15.594 9.35,-28.067 20.98,-28.067 3.68,0 11.33,0.852 18.41,7.656 l 0,-6.523 9.93,0 z m -9.93,17.012 c 0,-2.27 0,-2.551 -1.41,-4.254 -3.12,-4.25 -7.09,-5.953 -11.62,-5.953 -7.65,0 -16.44,5.386 -16.44,19.843 0,15.313 10.2,20.414 17.86,20.414 5.38,0 9.35,-3.117 11.61,-6.238 l 0,-23.812" /><path
         id="path224"
         style="fill:#010101;fill-opacity:1;fill-rule:evenodd;stroke:none"
         d="m 2018.94,247.496 c 0,3.684 -0.28,12.758 -4.81,20.129 -5.11,7.371 -12.76,8.789 -17.29,8.789 -13.89,0 -24.94,-12.758 -24.94,-28.066 0,-15.879 11.62,-28.352 26.64,-28.352 5.66,0 12.75,1.418 19.84,5.953 l -0.86,8.223 c -7.65,-5.387 -14.73,-6.238 -18.7,-6.238 -10.2,0 -17.86,8.504 -18.14,19.562 l 38.26,0 z m -7.37,7.086 -30.04,0 c 1.7,7.656 7.65,14.176 15.31,14.176 4.25,0 12.46,-1.985 14.73,-14.176" /><path
         id="path226"
         style="fill:#010101;fill-opacity:1;fill-rule:evenodd;stroke:none"
         d="m 2080.72,221.414 -23.52,32.602 20.69,20.695 -11.34,0 -24.65,-24.664 0,54.715 -9.07,0 0,-83.348 8.78,0 0,17.008 9.64,9.641 18.99,-26.649 10.48,0" /><path
         id="path228"
         style="fill:#010101;fill-opacity:1;fill-rule:evenodd;stroke:none"
         d="m 2127.2,236.723 c 0,4.254 -1.7,8.504 -5.95,12.191 -4.25,3.402 -7.65,3.969 -15.3,5.387 -4.25,0.847 -10.21,1.984 -10.21,7.652 0,7.09 8.51,7.09 10.21,7.09 8.78,0 14.17,-2.836 17.57,-4.539 l 1.41,8.223 c -7.36,3.402 -12.75,3.968 -17.85,3.968 -2.55,0 -20.4,0 -20.4,-15.875 0,-5.672 3.68,-9.355 4.81,-10.773 4.54,-3.969 7.65,-4.535 15.87,-5.953 3.97,-0.852 10.77,-2.27 10.77,-8.223 0,-7.937 -9.63,-7.937 -11.33,-7.937 -7.09,0 -13.89,2.55 -18.99,6.238 l -1.7,-8.789 c 7.37,-3.969 14.45,-5.387 20.69,-5.387 7.93,0 20.4,2.551 20.4,16.727" /><path
         id="path230"
         style="fill:#010101;fill-opacity:1;fill-rule:evenodd;stroke:none"
         d="m 2149.02,221.414 0,53.297 -9.63,0 0,-53.297 9.63,0 z m 0.85,67.473 0,11.625 -11.33,0 0,-11.625 11.33,0" /><path
         id="path232"
         style="fill:#010101;fill-opacity:1;fill-rule:evenodd;stroke:none"
         d="m 2253.88,221.129 0,83.351 -9.63,0 0,-35.156 c -6.52,5.672 -14.46,6.52 -18.14,6.52 -12.19,0 -21.54,-12.473 -21.54,-27.781 0,-15.594 9.35,-28.067 20.97,-28.067 3.69,0 11.34,0.852 18.42,7.656 l 0,-6.523 9.92,0 z m -9.92,17.012 c 0,-2.27 0,-2.551 -1.42,-4.254 -3.11,-4.25 -7.08,-5.953 -11.61,-5.953 -7.66,0 -16.44,5.386 -16.44,19.843 0,15.313 10.2,20.414 17.85,20.414 5.39,0 9.36,-3.117 11.62,-6.238 l 0,-23.812" /><path
         id="path234"
         style="fill:#010101;fill-opacity:1;fill-rule:evenodd;stroke:none"
         d="m 2315.09,247.496 c 0,3.684 -0.28,12.758 -4.81,20.129 -5.1,7.371 -12.76,8.789 -17.29,8.789 -13.89,0 -24.94,-12.758 -24.94,-28.066 0,-15.879 11.62,-28.352 26.64,-28.352 5.67,0 12.75,1.418 19.84,5.953 l -0.85,8.223 c -7.65,-5.387 -14.74,-6.238 -18.71,-6.238 -10.2,0 -17.85,8.504 -18.13,19.562 l 38.25,0 z m -7.36,7.086 -30.04,0 c 1.7,7.656 7.65,14.176 15.3,14.176 4.25,0 12.47,-1.985 14.74,-14.176" /><path
         id="path236"
         style="fill:#010101;fill-opacity:1;fill-rule:evenodd;stroke:none"
         d="m 2363.55,236.723 c 0,4.254 -1.69,8.504 -5.94,12.191 -4.25,3.402 -7.66,3.969 -15.31,5.387 -4.25,0.847 -10.2,1.984 -10.2,7.652 0,7.09 8.5,7.09 10.2,7.09 8.79,0 14.17,-2.836 17.57,-4.539 l 1.42,8.223 c -7.37,3.402 -12.75,3.968 -17.86,3.968 -2.55,0 -20.4,0 -20.4,-15.875 0,-5.672 3.68,-9.355 4.82,-10.773 4.53,-3.969 7.65,-4.535 15.87,-5.953 3.97,-0.852 10.77,-2.27 10.77,-8.223 0,-7.937 -9.64,-7.937 -11.34,-7.937 -7.08,0 -13.88,2.55 -18.99,6.238 l -1.7,-8.789 c 7.37,-3.969 14.46,-5.387 20.69,-5.387 7.94,0 20.4,2.551 20.4,16.727" /><path
         id="path238"
         style="fill:#010101;fill-opacity:1;fill-rule:evenodd;stroke:none"
         d="m 2419.67,221.414 0,35.719 c 0,8.789 -2.55,18.996 -17.01,18.996 -9.35,0 -15.02,-5.672 -17.85,-9.356 l 0,8.504 -9.35,0 0,-53.863 9.92,0 0,29.199 c 0,7.938 3.12,17.578 12.47,17.578 11.9,0 11.9,-8.503 11.9,-11.906 l 0,-34.871 9.92,0" /><path
         id="path240"
         style="fill:#010101;fill-opacity:1;fill-rule:evenodd;stroke:none"
         d="m 2448.86,221.414 0,53.297 -9.64,0 0,-53.297 9.64,0 z m 0.85,67.473 0,11.625 -11.33,0 0,-11.625 11.33,0" /><path
         id="path242"
         style="fill:#010101;fill-opacity:1;fill-rule:evenodd;stroke:none"
         d="m 2513.19,221.414 0,35.719 c 0,8.789 -2.55,18.996 -17,18.996 -6.8,0 -13.32,-3.402 -17.57,-8.789 l 0,37.422 -9.64,0 0,-83.348 9.92,0 0,29.199 c 0,7.938 3.12,17.578 12.47,17.578 11.9,0 11.9,-8.503 11.9,-11.906 l 0,-34.871 9.92,0" /><path
         id="path244"
         style="fill:#010101;fill-opacity:1;fill-rule:evenodd;stroke:none"
         d="m 2617.77,221.414 0,35.719 c 0,8.789 -2.56,18.996 -17.01,18.996 -9.35,0 -15.02,-5.672 -17.85,-9.356 l 0,8.504 -9.36,0 0,-53.863 9.93,0 0,29.199 c 0,7.938 3.11,17.578 12.47,17.578 11.9,0 11.9,-8.503 11.9,-11.906 l 0,-34.871 9.92,0" /><path
         id="path246"
         style="fill:#010101;fill-opacity:1;fill-rule:evenodd;stroke:none"
         d="m 2678.13,221.414 0,34.586 c 0,11.906 -8.79,20.695 -20.69,20.695 -7.93,0 -13.6,-1.984 -19.27,-5.386 l 0.57,-8.219 c 5.95,4.25 11.9,5.953 18.42,5.953 6.8,0 10.77,-5.387 10.77,-13.043 l 0,-5.102 c -20.41,0 -34.01,-5.386 -34.01,-15.308 0,-5.672 3.69,-15.309 14.17,-15.309 2.27,0 12.75,0 20.41,5.668 l 0,-4.535 9.63,0 z m -10.2,16.727 c 0,-2.551 0,-5.387 -4.25,-7.938 -2.84,-1.703 -6.8,-2.269 -9.36,-2.269 -5.94,0 -11.33,2.836 -11.33,7.937 0,8.508 23.52,8.508 24.94,8.508 l 0,-6.238" /><path
         id="path248"
         style="fill:#010101;fill-opacity:1;fill-rule:evenodd;stroke:none"
         d="m 2730.56,236.723 c 0,4.254 -1.7,8.504 -5.95,12.191 -4.25,3.402 -7.65,3.969 -15.31,5.387 -4.25,0.847 -10.2,1.984 -10.2,7.652 0,7.09 8.51,7.09 10.2,7.09 8.79,0 14.17,-2.836 17.58,-4.539 l 1.41,8.223 c -7.37,3.402 -12.75,3.968 -17.85,3.968 -2.55,0 -20.41,0 -20.41,-15.875 0,-5.672 3.69,-9.355 4.82,-10.773 4.54,-3.969 7.65,-4.535 15.87,-5.953 3.97,-0.852 10.77,-2.27 10.77,-8.223 0,-7.937 -9.63,-7.937 -11.33,-7.937 -7.09,0 -13.89,2.55 -18.99,6.238 l -1.71,-8.789 c 7.38,-3.969 14.46,-5.387 20.7,-5.387 7.93,0 20.4,2.551 20.4,16.727" /><path
         id="path250"
         style="fill:#010101;fill-opacity:1;fill-rule:evenodd;stroke:none"
         d="m 2742.75,221.414 9.6367,0 0,83.3477 -9.6367,0 0,-83.3477 z" /><path
         id="path252"
         style="fill:#010101;fill-opacity:1;fill-rule:evenodd;stroke:none"
         d="m 2814.16,247.496 c 0,3.684 -0.28,12.758 -4.82,20.129 -5.1,7.371 -12.75,8.789 -17.28,8.789 -13.89,0 -24.94,-12.758 -24.94,-28.066 0,-15.879 11.62,-28.352 26.64,-28.352 5.67,0 12.75,1.418 19.83,5.953 l -0.84,8.223 c -7.66,-5.387 -14.74,-6.238 -18.71,-6.238 -10.2,0 -17.85,8.504 -18.14,19.562 l 38.26,0 z m -7.37,7.086 -30.04,0 c 1.7,7.656 7.66,14.176 15.31,14.176 4.25,0 12.47,-1.985 14.73,-14.176" /><path
         id="path254"
         style="fill:#010101;fill-opacity:1;fill-rule:evenodd;stroke:none"
         d="m 2871.69,221.129 0,83.351 -9.63,0 0,-35.156 c -6.52,5.672 -14.45,6.52 -18.14,6.52 -12.19,0 -21.54,-12.473 -21.54,-27.781 0,-15.594 9.35,-28.067 20.97,-28.067 3.69,0 11.34,0.852 18.42,7.656 l 0,-6.523 9.92,0 z m -9.92,17.012 c 0,-2.27 0,-2.551 -1.41,-4.254 -3.12,-4.25 -7.09,-5.953 -11.62,-5.953 -7.65,0 -16.44,5.386 -16.44,19.843 0,15.313 10.2,20.414 17.85,20.414 5.39,0 9.36,-3.117 11.62,-6.238 l 0,-23.812" /><path
         id="path256"
         style="fill:#010101;fill-opacity:1;fill-rule:evenodd;stroke:none"
         d="m 2935.46,221.414 0,35.719 c 0,8.789 -2.55,18.996 -17.01,18.996 -9.35,0 -15.02,-5.672 -17.85,-9.356 l 0,8.504 -9.35,0 0,-53.863 9.92,0 0,29.199 c 0,7.938 3.12,17.578 12.47,17.578 11.9,0 11.9,-8.503 11.9,-11.906 l 0,-34.871 9.92,0" /><path
         id="path258"
         style="fill:#010101;fill-opacity:1;fill-rule:evenodd;stroke:none"
         d="m 2964.93,221.414 0,53.297 -9.63,0 0,-53.297 9.63,0 z m 0.85,67.473 0,11.625 -11.33,0 0,-11.625 11.33,0" /><path
         id="path260"
         style="fill:#010101;fill-opacity:1;fill-rule:evenodd;stroke:none"
         d="m 3033.23,221.414 -23.52,32.602 20.69,20.695 -11.34,0 -24.65,-24.664 0,54.715 -9.07,0 0,-83.348 8.78,0 0,17.008 9.64,9.641 18.99,-26.649 10.48,0" /><path
         id="path262"
         style="fill:#010101;fill-opacity:1;fill-rule:evenodd;stroke:none"
         d="m 3089.34,247.777 c 0,15.594 -11.9,28.637 -27.2,28.637 -14.74,0 -26.93,-12.758 -26.93,-28.637 0,-15.875 12.47,-27.781 26.93,-27.781 15.02,0 27.2,12.192 27.2,27.781 z m -9.91,1.137 c 0,-13.894 -8.22,-20.695 -17.01,-20.695 -9.35,0 -17.29,7.086 -17.29,20.695 0,13.891 9.07,19.844 17.01,19.844 8.78,0 17.29,-6.238 17.29,-19.844" /><path
         id="path264"
         style="fill:#010101;fill-opacity:1;fill-rule:evenodd;stroke:none"
         d="m 3147.44,274.711 -9.35,0 c -5.1,-13.324 -5.39,-13.324 -9.64,-24.379 -2.26,-6.238 -6.8,-17.863 -7.36,-22.113 l -0.29,0 c -0.28,1.984 -0.57,4.25 -7.09,21.543 l -9.63,24.949 -9.92,0 20.97,-53.297 11.34,0 20.97,53.297" /><path
         id="path266"
         style="fill:#ffffff;fill-opacity:1;fill-rule:evenodd;stroke:none"
         d="m 1191.13,595.352 -107.97,0 0,216.027 215.95,0 0,-216.027 -107.98,0" /><g
         transform="scale(0.999824,1.00018)"
         id="g268"><path
           id="path270"
           style="fill:none;stroke:#010101;stroke-width:7.08410978;stroke-linecap:butt;stroke-linejoin:round;stroke-miterlimit:10;stroke-dasharray:none;stroke-opacity:1"
           d="m 1191.34,595.528 -107.99,0 0,215.989 215.98,0 0,-215.989 -107.99,0 z" /></g><path
         id="path272"
         style="fill:#010101;fill-opacity:1;fill-rule:evenodd;stroke:none"
         d="m 1180.64,664.523 c 0,3.688 -3.11,3.688 -4.81,3.688 l -10.49,0 0,62.652 c 0,1.985 0,5.102 -3.68,5.102 -1.99,0 -2.55,-1.133 -3.4,-2.832 -2.27,-5.106 -6.24,-11.625 -12.47,-12.192 -1.99,0 -4.54,-0.285 -4.54,-3.402 0,-1.984 1.42,-3.402 3.97,-3.402 6.8,0 11.9,5.101 12.19,5.386 l 0,-51.312 -10.49,0 c -1.7,0 -4.82,0 -4.82,-3.688 0,-3.402 3.12,-3.402 4.82,-3.402 l 28.91,0 c 1.7,0 4.81,0 4.81,3.402" /><path
         id="path274"
         style="fill:#010101;fill-opacity:1;fill-rule:evenodd;stroke:none"
         d="m 1246.68,665.941 0,2.551 c 0,2.27 0,5.106 -3.97,5.106 -3.97,0 -3.97,-2.555 -3.97,-5.387 l -28.9,0 22.95,19.277 c 1.7,1.418 13.89,11.907 13.89,24.946 0,13.894 -11.34,23.531 -26.36,23.531 -13.89,0 -22.96,-10.488 -22.96,-20.695 0,-5.102 3.97,-5.387 4.82,-5.387 2.27,0 4.82,1.703 4.82,5.105 0,2.266 -0.85,2.832 -1.42,3.403 1.71,6.234 7.09,10.488 14.17,10.488 10.21,0 18.99,-5.953 18.99,-16.445 0,-9.356 -7.08,-16.442 -13.32,-22.11 l -26.35,-22.965 c -1.42,-0.851 -1.71,-1.418 -1.71,-2.836 0,-3.402 3.12,-3.402 4.82,-3.402 l 41.95,0 c 2.55,0.852 2.55,3.121 2.55,4.82" /><path
         id="path276"
         style="fill:#ffffff;fill-opacity:1;fill-rule:evenodd;stroke:none"
         d="m 1191.13,379.605 -107.97,0 0,215.747 215.95,0 0,-215.747 -107.98,0" /><g
         transform="scale(0.999824,1.00018)"
         id="g278"><path
           id="path280"
           style="fill:none;stroke:#010101;stroke-width:7.08410978;stroke-linecap:butt;stroke-linejoin:round;stroke-miterlimit:10;stroke-dasharray:none;stroke-opacity:1"
           d="m 1191.34,379.539 -107.99,0 0,215.989 215.98,0 0,-215.989 -107.99,0 z" /></g><path
         id="path282"
         style="fill:#010101;fill-opacity:1;fill-rule:evenodd;stroke:none"
         d="m 1217.2,476.281 c 0,11.34 -0.85,21.828 -6.52,31.469 -3.96,6.52 -11.33,10.773 -19.27,10.773 -5.95,0 -14.45,-2.554 -19.84,-11.91 -5.66,-9.355 -6.23,-22.113 -6.23,-30.332 0,-5.953 0,-19.847 5.39,-29.484 6.23,-10.492 15.3,-12.192 20.4,-12.192 7.08,0 15.59,2.836 20.69,12.758 4.82,8.789 5.38,19.278 5.38,28.918 z m -9.91,1.418 c 0,-8.222 0,-16.445 -2.84,-24.383 -2.83,-8.222 -8.5,-10.773 -13.04,-10.773 -16.15,0 -16.15,23.816 -16.15,35.156 0,7.653 0,13.606 1.98,19.844 2.27,8.223 7.09,13.039 13.89,13.039 16.16,0 16.16,-21.828 16.16,-32.883" /><path
         id="path284"
         style="fill:#ffffff;fill-opacity:1;fill-rule:evenodd;stroke:none"
         d="m 1191.13,163.578 -107.97,0 0,216.027 215.95,0 0,-216.027 -107.98,0" /><g
         transform="scale(0.999824,1.00018)"
         id="g286"><path
           id="path288"
           style="fill:none;stroke:#010101;stroke-width:7.08410978;stroke-linecap:butt;stroke-linejoin:round;stroke-miterlimit:10;stroke-dasharray:none;stroke-opacity:1"
           d="m 1191.34,163.834 -107.99,0 0,215.705 215.98,0 0,-215.705 -107.99,0 z" /></g><path
         id="path290"
         style="fill:#010101;fill-opacity:1;fill-rule:evenodd;stroke:none"
         d="m 1217.2,260.254 c 0,11.34 -0.85,21.828 -6.52,31.469 -3.96,6.519 -11.33,10.773 -19.27,10.773 -5.95,0 -14.45,-2.555 -19.84,-11.91 -5.66,-9.356 -6.23,-22.113 -6.23,-30.332 0,-5.953 0,-19.848 5.39,-29.484 6.23,-10.489 15.3,-12.192 20.4,-12.192 7.08,0 15.59,2.836 20.69,12.758 4.82,8.789 5.38,19.277 5.38,28.918 z m -9.91,1.418 c 0,-8.223 0,-16.445 -2.84,-24.383 -2.83,-8.223 -8.5,-10.773 -13.04,-10.773 -16.15,0 -16.15,23.816 -16.15,35.156 0,7.652 0,13.605 1.98,19.844 2.27,8.222 7.09,13.039 13.89,13.039 16.16,0 16.16,-21.828 16.16,-32.883" /><path
         id="path292"
         style="fill:#010101;fill-opacity:1;fill-rule:evenodd;stroke:none"
         d="m 1215.79,893.309 c 0,15.027 -10.49,26.933 -23.24,26.933 -1.7,0 -7.37,0 -13.04,-4.82 l 0,23.812 32.31,0 0,8.223 -41.66,0 0,-44.508 8.79,0 c 3.68,8.785 11.05,9.356 13.32,9.356 4.81,0 12.18,-3.688 12.18,-18.711 0,-14.742 -8.79,-19.281 -15.87,-19.281 -6.24,0 -14.45,2.835 -18.99,10.773 L 1165.34,878 c 1.7,-2.551 9.92,-11.625 23.24,-11.625 15.02,0 27.21,11.906 27.21,26.934" /><path
         id="path294"
         style="fill:#ffffff;fill-opacity:1;fill-rule:evenodd;stroke:none"
         d="m 1407.08,595.352 -107.97,0 0,216.027 215.94,0 0,-216.027 -107.97,0" /><g
         transform="scale(0.999824,1.00018)"
         id="g296"><path
           id="path298"
           style="fill:none;stroke:#010101;stroke-width:7.08410978;stroke-linecap:butt;stroke-linejoin:round;stroke-miterlimit:10;stroke-dasharray:none;stroke-opacity:1"
           d="m 1407.33,595.528 -108,0 0,215.989 215.99,0 0,-215.989 -107.99,0 z" /></g><path
         id="path300"
         style="fill:#010101;fill-opacity:1;fill-rule:evenodd;stroke:none"
         d="m 1401.13,681.816 c 0,6.239 -3.4,14.743 -13.89,19.278 7.37,4.539 10.49,11.625 10.49,17.863 0,9.07 -8.78,16.727 -21.82,16.727 -13.32,0 -22.68,-5.672 -22.68,-14.743 0,-3.687 3.12,-5.105 4.82,-5.105 2.27,0 4.82,1.703 4.82,5.105 0,1.7 -0.85,3.118 -0.85,3.118 3.68,4.535 11.9,4.535 13.89,4.535 8.22,0 14.17,-4.25 14.17,-10.203 0,-3.403 -2.27,-13.61 -15.02,-13.61 -4.26,0 -6.24,-0.566 -6.81,-0.566 -2.26,-0.285 -2.83,-1.985 -2.83,-3.688 0,-3.402 2.55,-3.402 4.54,-3.402 l 5.38,0 c 12.47,0 18.14,-8.785 18.14,-15.309 0,-7.652 -7.09,-15.023 -17.57,-15.023 -11.91,0 -17.29,6.234 -17.29,7.937 l 0,0.567 c 0.57,0.851 0.85,1.984 0.85,2.836 0,2.551 -1.7,4.82 -4.54,4.82 -2.54,0 -5.09,-1.418 -5.09,-5.105 0,-10.489 11.33,-18.145 26.07,-18.145 15.02,0 25.22,10.774 25.22,22.113" /><path
         id="path302"
         style="fill:#010101;fill-opacity:1;fill-rule:evenodd;stroke:none"
         d="m 1462.63,697.695 c 0,22.395 -11.91,38.27 -24.66,38.27 -13.04,0 -24.94,-16.16 -24.94,-38.27 0,-22.113 11.9,-37.992 24.94,-37.992 13.04,0 24.66,16.16 24.66,37.992 z m -7.65,1.414 c 0,-17.859 -7.66,-32.316 -17.01,-32.316 -9.63,0 -17,14.457 -17,32.316 0,17.864 8.22,29.77 17,29.77 8.79,0 17.01,-11.906 17.01,-29.77" /><path
         id="path304"
         style="fill:#ffffff;fill-opacity:1;fill-rule:evenodd;stroke:none"
         d="m 1407.08,379.605 -107.97,0 0,215.747 215.94,0 0,-215.747 -107.97,0" /><g
         transform="scale(0.999824,1.00018)"
         id="g306"><path
           id="path308"
           style="fill:none;stroke:#010101;stroke-width:7.08410978;stroke-linecap:butt;stroke-linejoin:round;stroke-miterlimit:10;stroke-dasharray:none;stroke-opacity:1"
           d="m 1407.33,379.539 -108,0 0,215.989 215.99,0 0,-215.989 -107.99,0 z" /></g><path
         id="path310"
         style="fill:#010101;fill-opacity:1;fill-rule:evenodd;stroke:none"
         d="m 1433.15,476.281 c 0,11.34 -0.85,21.828 -6.51,31.469 -3.97,6.52 -11.34,10.773 -19.28,10.773 -5.95,0 -14.45,-2.554 -19.83,-11.91 -5.67,-9.355 -6.24,-22.113 -6.24,-30.332 0,-5.953 0,-19.847 5.39,-29.484 6.23,-10.492 15.3,-12.192 20.4,-12.192 7.09,0 15.59,2.836 20.69,12.758 4.82,8.789 5.38,19.278 5.38,28.918 z m -9.92,1.418 c 0,-8.222 0,-16.445 -2.83,-24.383 -2.83,-8.222 -8.5,-10.773 -13.04,-10.773 -16.15,0 -16.15,23.816 -16.15,35.156 0,7.653 0,13.606 1.99,19.844 2.26,8.223 7.08,13.039 13.88,13.039 16.15,0 16.15,-21.828 16.15,-32.883" /><path
         id="path312"
         style="fill:#ffffff;fill-opacity:1;fill-rule:evenodd;stroke:none"
         d="m 1407.08,163.578 -107.97,0 0,216.027 215.94,0 0,-216.027 -107.97,0" /><g
         transform="scale(0.999824,1.00018)"
         id="g314"><path
           id="path316"
           style="fill:none;stroke:#010101;stroke-width:7.08410978;stroke-linecap:butt;stroke-linejoin:round;stroke-miterlimit:10;stroke-dasharray:none;stroke-opacity:1"
           d="m 1407.33,163.834 -108,0 0,215.705 215.99,0 0,-215.705 -107.99,0 z" /></g><path
         id="path318"
         style="fill:#010101;fill-opacity:1;fill-rule:evenodd;stroke:none"
         d="m 1432.87,291.438 0,8.222 -51.3,0 0,-9.074 23.53,0 c 1.42,0 2.83,0 4.25,0 l 14.74,0 c -18.71,-19.559 -28.91,-43.656 -28.91,-70.875 l 10.77,0 c 0,31.187 13.03,56.418 26.92,71.727" /><path
         id="path320"
         style="fill:#010101;fill-opacity:1;fill-rule:evenodd;stroke:none"
         d="m 1432.87,895.859 c 0,6.52 -1.13,12.477 -5.1,18.996 -4.82,7.653 -9.07,9.637 -14.74,9.637 -4.53,0 -13.32,-1.418 -20.69,-9.922 1.14,16.16 9.36,28.067 22.39,28.067 2.27,0 6.81,0 12.75,-2.551 l 0,7.656 c -5.66,2.266 -10.48,2.266 -13.03,2.266 -17.29,0 -32.88,-16.727 -32.88,-42.524 0,-32.886 14.46,-41.109 25.79,-41.109 7.37,0 12.76,2.551 17.29,7.938 5.95,6.523 8.22,11.91 8.22,21.546 z m -10.49,0 c 0,-4.82 0,-9.636 -3.11,-14.742 -2.27,-3.683 -5.67,-6.804 -11.91,-6.804 -12.75,0 -14.45,17.011 -15.02,20.98 0,1.699 0,1.984 0.29,3.117 0,9.074 5.67,18.43 15.3,18.43 4.53,0 8.78,-1.703 11.91,-7.371 2.26,-4.254 2.54,-8.223 2.54,-13.61" /><path
         id="path322"
         style="fill:#ffffff;fill-opacity:1;fill-rule:evenodd;stroke:none"
         d="m 1623.03,595.352 -107.98,0 0,216.027 215.96,0 0,-216.027 -107.98,0" /><g
         transform="scale(0.999824,1.00018)"
         id="g324"><path
           id="path326"
           style="fill:none;stroke:#010101;stroke-width:7.08410978;stroke-linecap:butt;stroke-linejoin:round;stroke-miterlimit:10;stroke-dasharray:none;stroke-opacity:1"
           d="m 1623.32,595.528 -108,0 0,215.989 215.71,0 0,-215.989 -107.71,0 z" /></g><path
         id="path328"
         style="fill:#010101;fill-opacity:1;fill-rule:evenodd;stroke:none"
         d="m 1617.08,681.816 c 0,6.239 -3.4,14.743 -13.88,19.278 7.36,4.539 10.48,11.625 10.48,17.863 0,9.07 -8.79,16.727 -21.82,16.727 -13.32,0 -22.67,-5.672 -22.67,-14.743 0,-3.687 3.11,-5.105 4.81,-5.105 2.27,0 4.82,1.703 4.82,5.105 0,1.7 -0.85,3.118 -0.85,3.118 3.69,4.535 11.91,4.535 13.89,4.535 8.22,0 14.17,-4.25 14.17,-10.203 0,-3.403 -2.27,-13.61 -15.02,-13.61 -4.25,0 -6.24,-0.566 -6.8,-0.566 -2.27,-0.285 -2.84,-1.985 -2.84,-3.688 0,-3.402 2.55,-3.402 4.54,-3.402 l 5.38,0 c 12.47,0 18.14,-8.785 18.14,-15.309 0,-7.652 -7.09,-15.023 -17.57,-15.023 -11.9,0 -17.29,6.234 -17.29,7.937 l 0,0.567 c 0.57,0.851 0.85,1.984 0.85,2.836 0,2.551 -1.7,4.82 -4.53,4.82 -2.55,0 -5.1,-1.418 -5.1,-5.105 0,-10.489 11.33,-18.145 26.07,-18.145 15.02,0 25.22,10.774 25.22,22.113" /><path
         id="path330"
         style="fill:#010101;fill-opacity:1;fill-rule:evenodd;stroke:none"
         d="m 1678.58,683.801 c 0,12.191 -9.07,24.097 -22.96,24.097 -3.96,0 -9.35,-0.847 -14.17,-3.683 l 0,22.961 28.06,0 c 1.7,0 4.82,0 4.82,3.687 0,3.403 -3.12,3.403 -4.82,3.403 l -31.17,0 c -3.69,0 -4.82,-0.852 -4.82,-4.536 l 0,-32.035 c 0,-1.703 0,-4.82 3.68,-4.82 1.99,0 2.27,0.566 3.4,1.699 3.4,4.254 8.79,6.239 15.02,6.239 9.36,0 15.02,-8.504 15.02,-17.012 0,-9.637 -8.21,-17.293 -18.42,-17.293 -6.23,0 -12.47,3.121 -14.74,8.504 0.57,0.57 1.42,1.418 1.42,3.687 0,3.117 -2.83,4.821 -4.81,4.821 -1.14,0 -4.82,-0.567 -4.82,-5.387 0,-9.922 9.92,-18.711 22.95,-18.711 14.46,0 26.36,11.055 26.36,24.379" /><path
         id="path332"
         style="fill:#ffffff;fill-opacity:1;fill-rule:evenodd;stroke:none"
         d="m 1623.03,379.605 -107.98,0 0,215.747 215.96,0 0,-215.747 -107.98,0" /><g
         transform="scale(0.999824,1.00018)"
         id="g334"><path
           id="path336"
           style="fill:none;stroke:#010101;stroke-width:7.08410978;stroke-linecap:butt;stroke-linejoin:round;stroke-miterlimit:10;stroke-dasharray:none;stroke-opacity:1"
           d="m 1623.32,379.539 -108,0 0,215.989 215.71,0 0,-215.989 -107.71,0 z" /></g><path
         id="path338"
         style="fill:#010101;fill-opacity:1;fill-rule:evenodd;stroke:none"
         d="m 1649.11,476.281 c 0,11.34 -0.86,21.828 -6.52,31.469 -3.97,6.52 -11.34,10.773 -19.27,10.773 -5.96,0 -14.46,-2.554 -19.84,-11.91 -5.67,-9.355 -6.24,-22.113 -6.24,-30.332 0,-5.953 0,-19.847 5.39,-29.484 6.23,-10.492 15.3,-12.192 20.4,-12.192 7.09,0 15.59,2.836 20.69,12.758 4.82,8.789 5.39,19.278 5.39,28.918 z m -9.92,1.418 c 0,-8.222 0,-16.445 -2.84,-24.383 -2.83,-8.222 -8.5,-10.773 -13.03,-10.773 -16.16,0 -16.16,23.816 -16.16,35.156 0,7.653 0,13.606 1.98,19.844 2.27,8.223 7.09,13.039 13.89,13.039 16.16,0 16.16,-21.828 16.16,-32.883" /><path
         id="path340"
         style="fill:#ffffff;fill-opacity:1;fill-rule:evenodd;stroke:none"
         d="m 1623.03,163.578 -107.98,0 0,216.027 215.96,0 0,-216.027 -107.98,0" /><g
         transform="scale(0.999824,1.00018)"
         id="g342"><path
           id="path344"
           style="fill:none;stroke:#010101;stroke-width:7.08410978;stroke-linecap:butt;stroke-linejoin:round;stroke-miterlimit:10;stroke-dasharray:none;stroke-opacity:1"
           d="m 1623.32,163.834 -108,0 0,215.705 215.71,0 0,-215.705 -107.71,0 z" /></g><path
         id="path346"
         style="fill:#010101;fill-opacity:1;fill-rule:evenodd;stroke:none"
         d="m 1649.11,260.254 c 0,11.34 -0.86,21.828 -6.52,31.469 -3.97,6.519 -11.34,10.773 -19.27,10.773 -5.96,0 -14.46,-2.555 -19.84,-11.91 -5.67,-9.356 -6.24,-22.113 -6.24,-30.332 0,-5.953 0,-19.848 5.39,-29.484 6.23,-10.489 15.3,-12.192 20.4,-12.192 7.09,0 15.59,2.836 20.69,12.758 4.82,8.789 5.39,19.277 5.39,28.918 z m -9.92,1.418 c 0,-8.223 0,-16.445 -2.84,-24.383 -2.83,-8.223 -8.5,-10.773 -13.03,-10.773 -16.16,0 -16.16,23.816 -16.16,35.156 0,7.652 0,13.605 1.98,19.844 2.27,8.222 7.09,13.039 13.89,13.039 16.16,0 16.16,-21.828 16.16,-32.883" /><path
         id="path348"
         style="fill:#010101;fill-opacity:1;fill-rule:evenodd;stroke:none"
         d="m 1648.82,939.234 0,8.223 -51.29,0 0,-9.07 23.52,0 c 1.41,0 2.83,0 4.25,0 l 14.74,0 c -18.71,-19.563 -28.91,-43.66 -28.91,-70.875 l 10.77,0 c 0,31.183 13.03,56.414 26.92,71.722" /><g
         transform="scale(0.999824,1.00018)"
         id="g350"><path
           id="path352"
           style="fill:none;stroke:#010101;stroke-width:7.08410978;stroke-linecap:butt;stroke-linejoin:round;stroke-miterlimit:10;stroke-dasharray:none;stroke-opacity:1"
           d="M 3975.95,990.657 3677.2,693.034" /></g><g
         transform="scale(0.999824,1.00018)"
         id="g354"><path
           id="path356"
           style="fill:none;stroke:#010101;stroke-width:7.08410978;stroke-linecap:butt;stroke-linejoin:round;stroke-miterlimit:10;stroke-dasharray:none;stroke-opacity:1"
           d="M 3677.2,693.034 3490.4,395.13" /></g><g
         transform="scale(0.999824,1.00018)"
         id="g358"><path
           id="path360"
           style="fill:none;stroke:#010101;stroke-width:7.08410978;stroke-linecap:butt;stroke-linejoin:round;stroke-miterlimit:10;stroke-dasharray:none;stroke-opacity:1"
           d="M 3863.99,395.13 3677.2,693.034" /></g><g
         transform="scale(0.999824,1.00018)"
         id="g362"><path
           id="path364"
           style="fill:none;stroke:#010101;stroke-width:7.08410978;stroke-linecap:butt;stroke-linejoin:round;stroke-miterlimit:10;stroke-dasharray:none;stroke-opacity:1"
           d="M 3752.03,97.5062 3863.99,395.13" /></g><g
         transform="scale(0.999824,1.00018)"
         id="g366"><path
           id="path368"
           style="fill:none;stroke:#010101;stroke-width:7.08410978;stroke-linecap:butt;stroke-linejoin:round;stroke-miterlimit:10;stroke-dasharray:none;stroke-opacity:1"
           d="m 4274.99,693.034 201.82,-298.19" /></g><g
         transform="scale(0.999824,1.00018)"
         id="g370"><path
           id="path372"
           style="fill:none;stroke:#010101;stroke-width:7.08410978;stroke-linecap:butt;stroke-linejoin:round;stroke-miterlimit:10;stroke-dasharray:none;stroke-opacity:1"
           d="M 3975.95,990.657 4274.99,693.034" /></g><path
         id="path374"
         style="fill:#ffffff;fill-opacity:1;fill-rule:evenodd;stroke:none"
         d="m 3975.25,1084.11 c 53,0 93.52,-40.26 93.52,-92.993 0,-52.73 -40.52,-93.273 -93.52,-93.273 -52.99,0 -93.24,40.543 -93.24,93.273 0,52.733 40.25,92.993 93.24,92.993 z m -93.24,0 0,0 z m 187.05,-186.547 0,0" /><g
         transform="scale(0.999824,1.00018)"
         id="g376"><path
           id="path378"
           style="fill:none;stroke:#010101;stroke-width:7.08410978;stroke-linecap:butt;stroke-linejoin:round;stroke-miterlimit:10;stroke-dasharray:none;stroke-opacity:1"
           d="m 3975.67,1083.91 c 53.01,0 93.54,-40.25 93.54,-92.968 0,-52.721 -40.53,-93.257 -93.54,-93.257 -52.72,0 -92.97,40.536 -92.97,93.257 0,52.718 40.25,92.968 92.97,92.968 z" /></g><g
         transform="scale(0.999824,1.00018)"
         id="g380"><path
           id="path382"
           style="fill:none;stroke:#010101;stroke-width:7.08410978;stroke-linecap:butt;stroke-linejoin:round;stroke-miterlimit:10;stroke-dasharray:none;stroke-opacity:1"
           d="m 3882.7,1083.91 0,0 z" /></g><g
         transform="scale(0.999824,1.00018)"
         id="g384"><path
           id="path386"
           style="fill:none;stroke:#010101;stroke-width:7.08410978;stroke-linecap:butt;stroke-linejoin:round;stroke-miterlimit:10;stroke-dasharray:none;stroke-opacity:1"
           d="m 4069.49,897.404 0,0 z" /></g><path
         id="path388"
         style="fill:#010101;fill-opacity:1;fill-rule:evenodd;stroke:none"
         d="m 3969.3,939.801 0,8.222 -21.25,0 c -1.42,0 -2.84,-0.281 -4.26,-0.281 l -13.03,0 c 3.12,3.399 14.45,14.457 22.1,21.262 8.79,7.937 16.44,15.309 16.44,26.363 0,13.323 -9.07,25.513 -24.94,25.513 -13.04,0 -19.55,-8.5 -22.95,-19.56 3.97,-4.816 3.97,-5.101 5.1,-6.519 2.83,12.759 7.37,18.709 16.15,18.709 10.49,0 17,-8.22 17,-18.424 0,-6.238 -2.55,-13.043 -10.48,-20.981 l -26.64,-26.648 0,-7.656 46.76,0" /><path
         id="path390"
         style="fill:#010101;fill-opacity:1;fill-rule:evenodd;stroke:none"
         d="m 4029.1,978.926 c 0,7.937 -0.57,17.008 -3.69,25.514 -5.1,13.61 -14.45,16.16 -20.68,16.16 -7.94,0 -15.59,-3.97 -19.84,-13.32 -3.97,-8.51 -4.82,-18.147 -4.82,-28.354 0,-13.043 1.13,-20.696 5.1,-28.918 3.4,-7.938 11.05,-12.758 19.27,-12.758 7.94,0 15.59,4.254 19.56,12.477 4.25,8.503 5.1,17.293 5.1,29.199 z m -9.35,1.418 c 0,-7.656 0,-15.594 -1.99,-22.965 -3.4,-11.621 -9.92,-13.039 -13.03,-13.039 -15.59,0 -15.59,24.664 -15.59,36.004 0,7.652 0,15.023 2.27,21.826 2.83,8.51 8.22,11.34 13.03,11.34 15.31,0 15.31,-22.393 15.31,-33.166" /><path
         id="path392"
         style="fill:#ffffff;fill-opacity:1;fill-rule:evenodd;stroke:none"
         d="m 4274.24,786.145 c 52.99,0 93.52,-40.258 93.52,-92.989 0,-52.73 -40.53,-93.269 -93.52,-93.269 -53,0 -93.24,40.539 -93.24,93.269 0,52.731 40.24,92.989 93.24,92.989 z m -93.24,0 0,0 z m 187.04,-186.543 0,0" /><g
         transform="scale(0.999824,1.00018)"
         id="g394"><path
           id="path396"
           style="fill:none;stroke:#010101;stroke-width:7.08410978;stroke-linecap:butt;stroke-linejoin:round;stroke-miterlimit:10;stroke-dasharray:none;stroke-opacity:1"
           d="m 4274.71,786.291 c 53.01,0 93.54,-40.251 93.54,-92.972 0,-52.721 -40.53,-93.257 -93.54,-93.257 -53,0 -93.25,40.536 -93.25,93.257 0,52.721 40.25,92.972 93.25,92.972 z" /></g><g
         transform="scale(0.999824,1.00018)"
         id="g398"><path
           id="path400"
           style="fill:none;stroke:#010101;stroke-width:7.08410978;stroke-linecap:butt;stroke-linejoin:round;stroke-miterlimit:10;stroke-dasharray:none;stroke-opacity:1"
           d="m 4181.46,786.291 0,0 z" /></g><g
         transform="scale(0.999824,1.00018)"
         id="g402"><path
           id="path404"
           style="fill:none;stroke:#010101;stroke-width:7.08410978;stroke-linecap:butt;stroke-linejoin:round;stroke-miterlimit:10;stroke-dasharray:none;stroke-opacity:1"
           d="m 4368.53,599.781 0,0 z" /></g><path
         id="path406"
         style="fill:#010101;fill-opacity:1;fill-rule:evenodd;stroke:none"
         d="m 4269.42,663.391 c 0,9.355 -6.23,17.293 -16.44,20.976 8.5,4.539 13.04,12.477 13.04,20.414 0,10.489 -9.64,18.145 -21.25,18.145 -9.64,0 -18.14,-5.387 -22.68,-13.324 l 4.25,-6.239 c 2.84,7.657 10.21,12.758 18.14,12.758 6.23,0 11.9,-3.402 11.9,-11.34 0,-7.937 -5.38,-14.742 -11.9,-16.16 -0.57,0 -8.22,-0.566 -9.35,-0.851 l 0,-7.086 8.5,0 c 12.47,0 15.3,-10.489 15.3,-17.293 0,-9.641 -5.95,-17.012 -14.45,-17.012 -7.65,0 -17.28,3.969 -22.67,12.476 l -1.42,-7.089 c 7.94,-10.489 18.42,-12.473 24.38,-12.473 13.88,0 24.65,11.34 24.65,24.098" /><path
         id="path408"
         style="fill:#010101;fill-opacity:1;fill-rule:evenodd;stroke:none"
         d="m 4328.09,680.969 c 0,7.937 -0.57,17.008 -3.69,25.511 -5.1,13.61 -14.45,16.161 -20.69,16.161 -7.93,0 -15.58,-3.969 -19.83,-13.325 -3.97,-8.503 -4.83,-18.144 -4.83,-28.347 0,-13.043 1.14,-20.696 5.11,-28.918 3.4,-7.938 11.05,-12.758 19.27,-12.758 7.93,0 15.59,4.254 19.55,12.473 4.25,8.507 5.11,17.293 5.11,29.203 z m -9.36,1.414 c 0,-7.653 0,-15.59 -1.98,-22.961 -3.4,-11.625 -9.92,-13.043 -13.04,-13.043 -15.58,0 -15.58,24.664 -15.58,36.004 0,7.656 0,15.027 2.26,21.832 2.84,8.504 8.22,11.34 13.04,11.34 15.3,0 15.3,-22.399 15.3,-33.172" /><path
         id="path410"
         style="fill:#ffffff;fill-opacity:1;fill-rule:evenodd;stroke:none"
         d="m 3676.27,786.145 c 52.99,0 93.52,-40.258 93.52,-92.989 0,-52.73 -40.53,-93.269 -93.52,-93.269 -53,0 -93.24,40.539 -93.24,93.269 0,52.731 40.24,92.989 93.24,92.989 z m -93.24,0 0,0 z m 187.04,-186.543 0,0" /><g
         transform="scale(0.999824,1.00018)"
         id="g412"><path
           id="path414"
           style="fill:none;stroke:#010101;stroke-width:7.08410978;stroke-linecap:butt;stroke-linejoin:round;stroke-miterlimit:10;stroke-dasharray:none;stroke-opacity:1"
           d="m 3676.91,786.291 c 53.01,0 93.54,-40.251 93.54,-92.972 0,-52.721 -40.53,-93.257 -93.54,-93.257 -53,0 -93.25,40.536 -93.25,93.257 0,52.721 40.25,92.972 93.25,92.972 z" /></g><g
         transform="scale(0.999824,1.00018)"
         id="g416"><path
           id="path418"
           style="fill:none;stroke:#010101;stroke-width:7.08410978;stroke-linecap:butt;stroke-linejoin:round;stroke-miterlimit:10;stroke-dasharray:none;stroke-opacity:1"
           d="m 3583.66,786.291 0,0 z" /></g><g
         transform="scale(0.999824,1.00018)"
         id="g420"><path
           id="path422"
           style="fill:none;stroke:#010101;stroke-width:7.08410978;stroke-linecap:butt;stroke-linejoin:round;stroke-miterlimit:10;stroke-dasharray:none;stroke-opacity:1"
           d="m 3770.74,599.781 0,0 z" /></g><path
         id="path424"
         style="fill:#010101;fill-opacity:1;fill-rule:evenodd;stroke:none"
         d="m 3667.48,641.844 0,7.086 -14.74,0 0,73.996 -2.26,0 c -1.71,-1.985 -7.66,-7.938 -20.41,-7.938 -1.7,0 -1.98,0 -1.98,-2.269 l 0,-4.821 c 7.37,0 12.75,1.704 15.3,2.836 l 0,-61.804 -14.45,0 0,-7.086 38.54,0" /><path
         id="path426"
         style="fill:#010101;fill-opacity:1;fill-rule:evenodd;stroke:none"
         d="m 3730.11,680.969 c 0,7.937 -0.57,17.008 -3.68,25.511 -5.11,13.61 -14.46,16.161 -20.69,16.161 -7.94,0 -15.59,-3.969 -19.84,-13.325 -3.97,-8.503 -4.82,-18.144 -4.82,-28.347 0,-13.043 1.13,-20.696 5.1,-28.918 3.41,-7.938 11.06,-12.758 19.27,-12.758 7.94,0 15.59,4.254 19.56,12.473 4.25,8.507 5.1,17.293 5.1,29.203 z m -9.35,1.414 c 0,-7.653 0,-15.59 -1.99,-22.961 -3.39,-11.625 -9.91,-13.043 -13.03,-13.043 -15.59,0 -15.59,24.664 -15.59,36.004 0,7.656 0,15.027 2.27,21.832 2.83,8.504 8.22,11.34 13.03,11.34 15.31,0 15.31,-22.399 15.31,-33.172" /><path
         id="path428"
         style="fill:#ffffff;fill-opacity:1;fill-rule:evenodd;stroke:none"
         d="m 3489.79,488.469 c 53,0 93.52,-40.254 93.52,-92.985 0,-52.734 -40.52,-93.273 -93.52,-93.273 -53,0 -93.52,40.539 -93.52,93.273 0,52.731 40.52,92.985 93.52,92.985 z m -93.52,0 0,0 z m 187.32,-186.543 0,0" /><g
         transform="scale(0.999824,1.00018)"
         id="g430"><path
           id="path432"
           style="fill:none;stroke:#010101;stroke-width:7.08410978;stroke-linecap:butt;stroke-linejoin:round;stroke-miterlimit:10;stroke-dasharray:none;stroke-opacity:1"
           d="m 3490.4,488.383 c 53.01,0 93.54,-40.247 93.54,-92.968 0,-52.725 -40.53,-93.257 -93.54,-93.257 -53,0 -93.54,40.532 -93.54,93.257 0,52.721 40.54,92.968 93.54,92.968 z" /></g><g
         transform="scale(0.999824,1.00018)"
         id="g434"><path
           id="path436"
           style="fill:none;stroke:#010101;stroke-width:7.08410978;stroke-linecap:butt;stroke-linejoin:round;stroke-miterlimit:10;stroke-dasharray:none;stroke-opacity:1"
           d="m 3396.86,488.383 0,0 z" /></g><g
         transform="scale(0.999824,1.00018)"
         id="g438"><path
           id="path440"
           style="fill:none;stroke:#010101;stroke-width:7.08410978;stroke-linecap:butt;stroke-linejoin:round;stroke-miterlimit:10;stroke-dasharray:none;stroke-opacity:1"
           d="m 3584.23,301.873 0,0 z" /></g><path
         id="path442"
         style="fill:#010101;fill-opacity:1;fill-rule:evenodd;stroke:none"
         d="m 3514.16,415.043 0,7.656 -49.03,0 0,-8.222 22.39,0 c 1.42,0 2.84,0 4.25,0 l 14.46,0 c -7.09,-8.223 -28.06,-32.321 -28.06,-71.727 l 9.92,0 c 0,31.188 12.75,56.984 26.07,72.293" /><path
         id="path444"
         style="fill:#ffffff;fill-opacity:1;fill-rule:evenodd;stroke:none"
         d="m 3751.37,190.512 c 52.99,0 93.52,-40.258 93.52,-92.9886 0,-52.7304 -40.53,-93.26949 -93.52,-93.26949 -53,0 -93.53,40.53909 -93.53,93.26949 0,52.7306 40.53,92.9886 93.53,92.9886 z m -93.53,0 0,0 z m 187.33,-186.54325 0,0" /><g
         transform="scale(0.999824,1.00018)"
         id="g446"><path
           id="path448"
           style="fill:none;stroke:#010101;stroke-width:7.08410978;stroke-linecap:butt;stroke-linejoin:round;stroke-miterlimit:10;stroke-dasharray:none;stroke-opacity:1"
           d="m 3752.03,190.763 c 53,0 93.53,-40.25 93.53,-92.9717 0,-52.7211 -40.53,-93.25694 -93.53,-93.25694 -53.01,0 -93.54,40.53584 -93.54,93.25694 0,52.7217 40.53,92.9717 93.54,92.9717 z" /></g><g
         transform="scale(0.999824,1.00018)"
         id="g450"><path
           id="path452"
           style="fill:none;stroke:#010101;stroke-width:7.08410978;stroke-linecap:butt;stroke-linejoin:round;stroke-miterlimit:10;stroke-dasharray:none;stroke-opacity:1"
           d="m 3658.49,190.763 0,0 z" /></g><g
         transform="scale(0.999824,1.00018)"
         id="g454"><path
           id="path456"
           style="fill:none;stroke:#010101;stroke-width:7.08410978;stroke-linecap:butt;stroke-linejoin:round;stroke-miterlimit:10;stroke-dasharray:none;stroke-opacity:1"
           d="m 3845.85,4.25316 0,0 z" /></g><path
         id="path458"
         style="fill:#010101;fill-opacity:1;fill-rule:evenodd;stroke:none"
         d="m 3742.3,46.2109 0,7.086 -14.74,0 0,73.9961 -2.27,0 c -1.7,-1.984 -7.65,-7.941 -20.4,-7.941 -1.7,0 -1.98,0 -1.98,-2.266 l 0,-4.82 c 7.36,0 12.75,1.703 15.3,2.836 l 0,-61.8051 -14.46,0 0,-7.086 38.55,0" /><path
         id="path460"
         style="fill:#010101;fill-opacity:1;fill-rule:evenodd;stroke:none"
         d="m 3803.8,46.2109 0,8.2227 -21.26,0 c -1.42,0 -2.83,-0.2852 -4.25,-0.2852 l -13.04,0 c 3.12,3.4024 14.46,14.4571 22.11,21.2618 8.78,7.9375 16.44,15.3086 16.44,26.3668 0,13.325 -9.07,25.516 -24.94,25.516 -13.04,0 -19.56,-8.508 -22.96,-19.563 3.97,-4.82 3.97,-5.105 5.1,-6.519 2.84,12.758 7.37,18.711 16.16,18.711 10.48,0 17,-8.223 17,-18.43 0,-6.2342 -2.55,-13.0389 -10.49,-20.9764 l -26.63,-26.6523 0,-7.6524 46.76,0" /><path
         id="path462"
         style="fill:#ffffff;fill-opacity:1;fill-rule:evenodd;stroke:none"
         d="m 4461.57,488.469 c 52.99,0 93.52,-40.254 93.52,-92.985 0,-52.734 -40.53,-93.273 -93.52,-93.273 -53,0 -93.53,40.539 -93.53,93.273 0,52.731 40.53,92.985 93.53,92.985 z m -93.53,0 0,0 z m 187.33,-186.543 0,0" /><g
         transform="scale(0.999824,1.00018)"
         id="g464"><path
           id="path466"
           style="fill:none;stroke:#010101;stroke-width:7.08410978;stroke-linecap:butt;stroke-linejoin:round;stroke-miterlimit:10;stroke-dasharray:none;stroke-opacity:1"
           d="m 4462.07,488.383 c 53,0 93.54,-40.247 93.54,-92.968 0,-52.725 -40.54,-93.257 -93.54,-93.257 -53.01,0 -93.54,40.532 -93.54,93.257 0,52.721 40.53,92.968 93.54,92.968 z" /></g><g
         transform="scale(0.999824,1.00018)"
         id="g468"><path
           id="path470"
           style="fill:none;stroke:#010101;stroke-width:7.08410978;stroke-linecap:butt;stroke-linejoin:round;stroke-miterlimit:10;stroke-dasharray:none;stroke-opacity:1"
           d="m 4368.53,488.383 0,0 z" /></g><g
         transform="scale(0.999824,1.00018)"
         id="g472"><path
           id="path474"
           style="fill:none;stroke:#010101;stroke-width:7.08410978;stroke-linecap:butt;stroke-linejoin:round;stroke-miterlimit:10;stroke-dasharray:none;stroke-opacity:1"
           d="m 4555.89,301.873 0,0 z" /></g><path
         id="path476"
         style="fill:#010101;fill-opacity:1;fill-rule:evenodd;stroke:none"
         d="m 4456.46,365.715 c 0,9.355 -6.23,17.293 -16.43,20.98 8.5,4.535 13.03,12.473 13.03,20.41 0,10.489 -9.63,18.145 -21.25,18.145 -9.64,0 -18.14,-5.387 -22.67,-13.324 l 4.25,-6.238 c 2.83,7.656 10.2,12.757 18.14,12.757 6.23,0 11.9,-3.402 11.9,-11.34 0,-7.937 -5.39,-14.742 -11.9,-16.16 -0.57,0 -8.22,-0.566 -9.36,-0.847 l 0,-7.09 8.51,0 c 12.46,0 15.3,-10.488 15.3,-17.293 0,-9.641 -5.95,-17.012 -14.45,-17.012 -7.65,0 -17.29,3.973 -22.67,12.477 l -1.42,-7.09 c 7.93,-10.488 18.42,-12.473 24.37,-12.473 13.89,0 24.65,11.34 24.65,24.098" /><path
         id="path478"
         style="fill:#010101;fill-opacity:1;fill-rule:evenodd;stroke:none"
         d="m 4514,368.551 c 0,15.023 -9.93,26.648 -22.11,26.648 -4.82,0 -9.35,-1.703 -12.75,-4.82 l 0,24.949 30.89,0 0,7.371 -39.39,0 0,-44.226 7.93,0 c 2.83,6.804 8.22,9.64 13.04,9.64 5.66,0 12.18,-5.105 12.18,-19.281 0,-15.309 -8.78,-19.844 -15.58,-19.844 -6.81,0 -14.46,3.403 -18.42,11.059 l -3.97,-6.524 c 7.93,-11.621 19.27,-11.621 22.39,-11.621 14.17,0 25.79,11.907 25.79,26.649" /><path
         id="path480"
         style="fill:#ffffff;fill-opacity:1;fill-rule:evenodd;stroke:none"
         d="m 3863.03,488.469 c 52.99,0 93.52,-40.254 93.52,-92.985 0,-52.734 -40.53,-93.273 -93.52,-93.273 -53,0 -93.24,40.539 -93.24,93.273 0,52.731 40.24,92.985 93.24,92.985 z m -93.24,0 0,0 z m 187.04,-186.543 0,0" /><g
         transform="scale(0.999824,1.00018)"
         id="g482"><path
           id="path484"
           style="fill:none;stroke:#010101;stroke-width:7.08410978;stroke-linecap:butt;stroke-linejoin:round;stroke-miterlimit:10;stroke-dasharray:none;stroke-opacity:1"
           d="m 3863.71,488.383 c 53,0 93.53,-40.247 93.53,-92.968 0,-52.725 -40.53,-93.257 -93.53,-93.257 -53.01,0 -93.26,40.532 -93.26,93.257 0,52.721 40.25,92.968 93.26,92.968 z" /></g><g
         transform="scale(0.999824,1.00018)"
         id="g486"><path
           id="path488"
           style="fill:none;stroke:#010101;stroke-width:7.08410978;stroke-linecap:butt;stroke-linejoin:round;stroke-miterlimit:10;stroke-dasharray:none;stroke-opacity:1"
           d="m 3770.45,488.383 0,0 z" /></g><g
         transform="scale(0.999824,1.00018)"
         id="g490"><path
           id="path492"
           style="fill:none;stroke:#010101;stroke-width:7.08410978;stroke-linecap:butt;stroke-linejoin:round;stroke-miterlimit:10;stroke-dasharray:none;stroke-opacity:1"
           d="m 3957.53,301.873 0,0 z" /></g><path
         id="path494"
         style="fill:#010101;fill-opacity:1;fill-rule:evenodd;stroke:none"
         d="m 3854.24,344.168 0,7.09 -14.74,0 0,73.992 -2.27,0 c -1.69,-1.984 -7.64,-7.937 -20.4,-7.937 -1.7,0 -1.98,0 -1.98,-2.27 l 0,-4.82 c 7.36,0 12.75,1.703 15.3,2.836 l 0,-61.801 -14.45,0 0,-7.09 38.54,0" /><path
         id="path496"
         style="fill:#010101;fill-opacity:1;fill-rule:evenodd;stroke:none"
         d="m 3915.74,368.551 c 0,15.023 -9.92,26.648 -22.11,26.648 -4.81,0 -9.35,-1.703 -12.75,-4.82 l 0,24.949 30.89,0 0,7.371 -39.39,0 0,-44.226 7.93,0 c 2.84,6.804 8.22,9.64 13.04,9.64 5.67,0 12.19,-5.105 12.19,-19.281 0,-15.309 -8.79,-19.844 -15.59,-19.844 -6.8,0 -14.45,3.403 -18.42,11.059 l -3.97,-6.524 c 7.94,-11.621 19.27,-11.621 22.39,-11.621 14.17,0 25.79,11.907 25.79,26.649" /></g></g></svg>