<?xml version="1.0" encoding="UTF-8" standalone="no"?>
<svg
   xmlns:dc="http://purl.org/dc/elements/1.1/"
   xmlns:cc="http://creativecommons.org/ns#"
   xmlns:rdf="http://www.w3.org/1999/02/22-rdf-syntax-ns#"
   xmlns:svg="http://www.w3.org/2000/svg"
   xmlns="http://www.w3.org/2000/svg"
   viewBox="0 0 575 240"
   height="240"
   width="575"
   xml:space="preserve"
   version="1.1"
   id="svg2"><metadata
     id="metadata8"><rdf:RDF><cc:Work
         rdf:about=""><dc:format>image/svg+xml</dc:format><dc:type
           rdf:resource="http://purl.org/dc/dcmitype/StillImage" /></cc:Work></rdf:RDF></metadata><defs
     id="defs6" /><g
     transform="matrix(1.25,0,0,-1.25,0,240)"
     id="g10"><g
       transform="scale(0.1,0.1)"
       id="g12"><g
         transform="scale(0.999119,1.00088)"
         id="g14"><path
           id="path16"
           style="fill:none;stroke:#010101;stroke-width:7.09475994;stroke-linecap:butt;stroke-linejoin:round;stroke-miterlimit:10;stroke-dasharray:none;stroke-opacity:1"
           d="M 3499.87,1824.3 2923.09,1247.52" /></g><g
         transform="scale(0.999119,1.00088)"
         id="g18"><path
           id="path20"
           style="fill:none;stroke:#010101;stroke-width:7.09475994;stroke-linecap:butt;stroke-linejoin:round;stroke-miterlimit:10;stroke-dasharray:none;stroke-opacity:1"
           d="M 2923.09,1247.52 2634.7,671.022" /></g><g
         transform="scale(0.999119,1.00088)"
         id="g22"><path
           id="path24"
           style="fill:none;stroke:#010101;stroke-width:7.09475994;stroke-linecap:butt;stroke-linejoin:round;stroke-miterlimit:10;stroke-dasharray:none;stroke-opacity:1"
           d="M 2490.5,94.5222 2634.7,671.022" /></g><g
         transform="scale(0.999119,1.00088)"
         id="g26"><path
           id="path28"
           style="fill:none;stroke:#010101;stroke-width:7.09475994;stroke-linecap:butt;stroke-linejoin:round;stroke-miterlimit:10;stroke-dasharray:none;stroke-opacity:1"
           d="M 2778.89,94.5222 2634.7,671.022" /></g><g
         transform="scale(0.999119,1.00088)"
         id="g30"><path
           id="path32"
           style="fill:none;stroke:#010101;stroke-width:7.09475994;stroke-linecap:butt;stroke-linejoin:round;stroke-miterlimit:10;stroke-dasharray:none;stroke-opacity:1"
           d="m 3067.28,94.5222 144.2,576.4998" /></g><g
         transform="scale(0.999119,1.00088)"
         id="g34"><path
           id="path36"
           style="fill:none;stroke:#010101;stroke-width:7.09475994;stroke-linecap:butt;stroke-linejoin:round;stroke-miterlimit:10;stroke-dasharray:none;stroke-opacity:1"
           d="M 3355.67,94.5222 3211.48,671.022" /></g><g
         transform="scale(0.999119,1.00088)"
         id="g38"><path
           id="path40"
           style="fill:none;stroke:#010101;stroke-width:7.09475994;stroke-linecap:butt;stroke-linejoin:round;stroke-miterlimit:10;stroke-dasharray:none;stroke-opacity:1"
           d="m 3644.06,94.5222 144.2,576.4998" /></g><g
         transform="scale(0.999119,1.00088)"
         id="g42"><path
           id="path44"
           style="fill:none;stroke:#010101;stroke-width:7.09475994;stroke-linecap:butt;stroke-linejoin:round;stroke-miterlimit:10;stroke-dasharray:none;stroke-opacity:1"
           d="M 3932.46,94.5222 3788.26,671.022" /></g><g
         transform="scale(0.999119,1.00088)"
         id="g46"><path
           id="path48"
           style="fill:none;stroke:#010101;stroke-width:7.09475994;stroke-linecap:butt;stroke-linejoin:round;stroke-miterlimit:10;stroke-dasharray:none;stroke-opacity:1"
           d="M 4220.85,94.5222 4364.76,671.022" /></g><g
         transform="scale(0.999119,1.00088)"
         id="g50"><path
           id="path52"
           style="fill:none;stroke:#010101;stroke-width:7.09475994;stroke-linecap:butt;stroke-linejoin:round;stroke-miterlimit:10;stroke-dasharray:none;stroke-opacity:1"
           d="M 4508.96,94.5222 4364.76,671.022" /></g><g
         transform="scale(0.999119,1.00088)"
         id="g54"><path
           id="path56"
           style="fill:none;stroke:#010101;stroke-width:7.09475994;stroke-linecap:butt;stroke-linejoin:round;stroke-miterlimit:10;stroke-dasharray:none;stroke-opacity:1"
           d="m 3788.26,671.022 288.39,576.498" /></g><g
         transform="scale(0.999119,1.00088)"
         id="g58"><path
           id="path60"
           style="fill:none;stroke:#010101;stroke-width:7.09475994;stroke-linecap:butt;stroke-linejoin:round;stroke-miterlimit:10;stroke-dasharray:none;stroke-opacity:1"
           d="M 4364.76,671.022 4076.65,1247.52" /></g><g
         transform="scale(0.999119,1.00088)"
         id="g62"><path
           id="path64"
           style="fill:none;stroke:#010101;stroke-width:7.09475994;stroke-linecap:butt;stroke-linejoin:round;stroke-miterlimit:10;stroke-dasharray:none;stroke-opacity:1"
           d="M 3211.48,671.022 2923.09,1247.52" /></g><g
         transform="scale(0.999119,1.00088)"
         id="g66"><path
           id="path68"
           style="fill:none;stroke:#010101;stroke-width:7.09475994;stroke-linecap:butt;stroke-linejoin:round;stroke-miterlimit:10;stroke-dasharray:none;stroke-opacity:1"
           d="M 4076.65,1247.52 3499.87,1824.3" /></g><path
         id="path70"
         style="fill:#ffffff;fill-opacity:1;fill-rule:evenodd;stroke:none"
         d="m 4504.99,184.664 c 51.05,0 90.18,-38.922 90.18,-90.0585 0,-51.1367 -39.13,-90.34378 -90.18,-90.34378 -51.05,0 -89.9,39.20708 -89.9,90.34378 0,51.1365 38.85,90.0585 89.9,90.0585 z m -89.9,0 0,0 z m 180.36,-180.68744 0,0" /><g
         transform="scale(0.999119,1.00088)"
         id="g72"><path
           id="path74"
           style="fill:none;stroke:#010101;stroke-width:7.09475994;stroke-linecap:butt;stroke-linejoin:round;stroke-miterlimit:10;stroke-dasharray:none;stroke-opacity:1"
           d="m 4508.67,184.786 c 51.1,0 90.27,-38.887 90.27,-89.9789 0,-51.0956 -39.17,-90.26423 -90.27,-90.26423 -51.09,0 -89.98,39.16863 -89.98,90.26423 0,51.0919 38.89,89.9789 89.98,89.9789 z" /></g><g
         transform="scale(0.999119,1.00088)"
         id="g76"><path
           id="path78"
           style="fill:none;stroke:#010101;stroke-width:7.09475994;stroke-linecap:butt;stroke-linejoin:round;stroke-miterlimit:10;stroke-dasharray:none;stroke-opacity:1"
           d="m 4418.69,184.786 0,0 z" /></g><g
         transform="scale(0.999119,1.00088)"
         id="g80"><path
           id="path82"
           style="fill:none;stroke:#010101;stroke-width:7.09475994;stroke-linecap:butt;stroke-linejoin:round;stroke-miterlimit:10;stroke-dasharray:none;stroke-opacity:1"
           d="m 4599.22,4.25797 0,0 z" /></g><path
         id="path84"
         style="fill:#ffffff;fill-opacity:1;fill-rule:evenodd;stroke:none"
         d="m 4216.85,184.664 c 51.05,0 90.19,-38.922 90.19,-90.0585 0,-51.1367 -39.14,-90.34378 -90.19,-90.34378 -51.05,0 -89.9,39.20708 -89.9,90.34378 0,51.1365 38.85,90.0585 89.9,90.0585 z m -89.9,0 0,0 z m 180.37,-180.68744 0,0" /><g
         transform="scale(0.999119,1.00088)"
         id="g86"><path
           id="path88"
           style="fill:none;stroke:#010101;stroke-width:7.09475994;stroke-linecap:butt;stroke-linejoin:round;stroke-miterlimit:10;stroke-dasharray:none;stroke-opacity:1"
           d="m 4220.56,184.786 c 51.1,0 90.27,-38.887 90.27,-89.9789 0,-51.0956 -39.17,-90.26423 -90.27,-90.26423 -51.09,0 -89.97,39.16863 -89.97,90.26423 0,51.0919 38.88,89.9789 89.97,89.9789 z" /></g><g
         transform="scale(0.999119,1.00088)"
         id="g90"><path
           id="path92"
           style="fill:none;stroke:#010101;stroke-width:7.09475994;stroke-linecap:butt;stroke-linejoin:round;stroke-miterlimit:10;stroke-dasharray:none;stroke-opacity:1"
           d="m 4130.59,184.786 0,0 z" /></g><g
         transform="scale(0.999119,1.00088)"
         id="g94"><path
           id="path96"
           style="fill:none;stroke:#010101;stroke-width:7.09475994;stroke-linecap:butt;stroke-linejoin:round;stroke-miterlimit:10;stroke-dasharray:none;stroke-opacity:1"
           d="m 4311.11,4.25797 0,0 z" /></g><path
         id="path98"
         style="fill:#ffffff;fill-opacity:1;fill-rule:evenodd;stroke:none"
         d="m 3928.71,184.664 c 51.05,0 90.18,-38.922 90.18,-90.0585 0,-51.1367 -39.13,-90.34378 -90.18,-90.34378 -51.05,0 -89.9,39.20708 -89.9,90.34378 0,51.1365 38.85,90.0585 89.9,90.0585 z m -89.9,0 0,0 z m 180.37,-180.68744 0,0" /><g
         transform="scale(0.999119,1.00088)"
         id="g100"><path
           id="path102"
           style="fill:none;stroke:#010101;stroke-width:7.09475994;stroke-linecap:butt;stroke-linejoin:round;stroke-miterlimit:10;stroke-dasharray:none;stroke-opacity:1"
           d="m 3932.17,184.786 c 51.1,0 90.27,-38.887 90.27,-89.9789 0,-51.0956 -39.17,-90.26423 -90.27,-90.26423 -51.09,0 -89.98,39.16863 -89.98,90.26423 0,51.0919 38.89,89.9789 89.98,89.9789 z" /></g><g
         transform="scale(0.999119,1.00088)"
         id="g104"><path
           id="path106"
           style="fill:none;stroke:#010101;stroke-width:7.09475994;stroke-linecap:butt;stroke-linejoin:round;stroke-miterlimit:10;stroke-dasharray:none;stroke-opacity:1"
           d="m 3842.19,184.786 0,0 z" /></g><g
         transform="scale(0.999119,1.00088)"
         id="g108"><path
           id="path110"
           style="fill:none;stroke:#010101;stroke-width:7.09475994;stroke-linecap:butt;stroke-linejoin:round;stroke-miterlimit:10;stroke-dasharray:none;stroke-opacity:1"
           d="m 4022.72,4.25797 0,0 z" /></g><path
         id="path112"
         style="fill:#ffffff;fill-opacity:1;fill-rule:evenodd;stroke:none"
         d="m 3640.57,184.664 c 51.05,0 90.19,-38.922 90.19,-90.0585 0,-51.1367 -39.14,-90.34378 -90.19,-90.34378 -51.05,0 -89.9,39.20708 -89.9,90.34378 0,51.1365 38.85,90.0585 89.9,90.0585 z m -89.9,0 0,0 z m 180.37,-180.68744 0,0" /><g
         transform="scale(0.999119,1.00088)"
         id="g114"><path
           id="path116"
           style="fill:none;stroke:#010101;stroke-width:7.09475994;stroke-linecap:butt;stroke-linejoin:round;stroke-miterlimit:10;stroke-dasharray:none;stroke-opacity:1"
           d="m 3643.78,184.786 c 51.1,0 90.27,-38.887 90.27,-89.9789 0,-51.0956 -39.17,-90.26423 -90.27,-90.26423 -51.09,0 -89.98,39.16863 -89.98,90.26423 0,51.0919 38.89,89.9789 89.98,89.9789 z" /></g><g
         transform="scale(0.999119,1.00088)"
         id="g118"><path
           id="path120"
           style="fill:none;stroke:#010101;stroke-width:7.09475994;stroke-linecap:butt;stroke-linejoin:round;stroke-miterlimit:10;stroke-dasharray:none;stroke-opacity:1"
           d="m 3553.8,184.786 0,0 z" /></g><g
         transform="scale(0.999119,1.00088)"
         id="g122"><path
           id="path124"
           style="fill:none;stroke:#010101;stroke-width:7.09475994;stroke-linecap:butt;stroke-linejoin:round;stroke-miterlimit:10;stroke-dasharray:none;stroke-opacity:1"
           d="m 3734.33,4.25797 0,0 z" /></g><path
         id="path126"
         style="fill:#ffffff;fill-opacity:1;fill-rule:evenodd;stroke:none"
         d="m 3352.44,184.664 c 51.04,0 90.18,-38.922 90.18,-90.0585 0,-51.1367 -39.14,-90.34378 -90.18,-90.34378 -51.05,0 -89.9,39.20708 -89.9,90.34378 0,51.1365 38.85,90.0585 89.9,90.0585 z m -89.9,0 0,0 z M 3442.9,3.97656 l 0,0" /><g
         transform="scale(0.999119,1.00088)"
         id="g128"><path
           id="path130"
           style="fill:none;stroke:#010101;stroke-width:7.09475994;stroke-linecap:butt;stroke-linejoin:round;stroke-miterlimit:10;stroke-dasharray:none;stroke-opacity:1"
           d="m 3355.39,184.786 c 51.09,0 90.27,-38.887 90.27,-89.9789 0,-51.0956 -39.18,-90.26423 -90.27,-90.26423 -51.09,0 -89.98,39.16863 -89.98,90.26423 0,51.0919 38.89,89.9789 89.98,89.9789 z" /></g><g
         transform="scale(0.999119,1.00088)"
         id="g132"><path
           id="path134"
           style="fill:none;stroke:#010101;stroke-width:7.09475994;stroke-linecap:butt;stroke-linejoin:round;stroke-miterlimit:10;stroke-dasharray:none;stroke-opacity:1"
           d="m 3265.41,184.786 0,0 z" /></g><g
         transform="scale(0.999119,1.00088)"
         id="g136"><path
           id="path138"
           style="fill:none;stroke:#010101;stroke-width:7.09475994;stroke-linecap:butt;stroke-linejoin:round;stroke-miterlimit:10;stroke-dasharray:none;stroke-opacity:1"
           d="m 3445.94,4.25797 0,0 z" /></g><path
         id="path140"
         style="fill:#ffffff;fill-opacity:1;fill-rule:evenodd;stroke:none"
         d="m 3064.58,184.664 c 51.05,0 90.19,-38.922 90.19,-90.0585 0,-51.1367 -39.14,-90.34378 -90.19,-90.34378 -51.04,0 -89.9,39.20708 -89.9,90.34378 0,51.1365 38.86,90.0585 89.9,90.0585 z m -89.9,0 0,0 z m 180.37,-180.68744 0,0" /><g
         transform="scale(0.999119,1.00088)"
         id="g142"><path
           id="path144"
           style="fill:none;stroke:#010101;stroke-width:7.09475994;stroke-linecap:butt;stroke-linejoin:round;stroke-miterlimit:10;stroke-dasharray:none;stroke-opacity:1"
           d="m 3067,184.786 c 51.09,0 90.27,-38.887 90.27,-89.9789 0,-51.0956 -39.18,-90.26423 -90.27,-90.26423 -51.09,0 -89.98,39.16863 -89.98,90.26423 0,51.0919 38.89,89.9789 89.98,89.9789 z" /></g><g
         transform="scale(0.999119,1.00088)"
         id="g146"><path
           id="path148"
           style="fill:none;stroke:#010101;stroke-width:7.09475994;stroke-linecap:butt;stroke-linejoin:round;stroke-miterlimit:10;stroke-dasharray:none;stroke-opacity:1"
           d="m 2977.02,184.786 0,0 z" /></g><g
         transform="scale(0.999119,1.00088)"
         id="g150"><path
           id="path152"
           style="fill:none;stroke:#010101;stroke-width:7.09475994;stroke-linecap:butt;stroke-linejoin:round;stroke-miterlimit:10;stroke-dasharray:none;stroke-opacity:1"
           d="m 3157.55,4.25797 0,0 z" /></g><path
         id="path154"
         style="fill:#ffffff;fill-opacity:1;fill-rule:evenodd;stroke:none"
         d="m 2776.45,184.664 c 51.04,0 90.18,-38.922 90.18,-90.0585 0,-51.1367 -39.14,-90.34378 -90.18,-90.34378 -51.06,0 -89.91,39.20708 -89.91,90.34378 0,51.1365 38.85,90.0585 89.91,90.0585 z m -89.91,0 0,0 z m 180.37,-180.68744 0,0" /><g
         transform="scale(0.999119,1.00088)"
         id="g156"><path
           id="path158"
           style="fill:none;stroke:#010101;stroke-width:7.09475994;stroke-linecap:butt;stroke-linejoin:round;stroke-miterlimit:10;stroke-dasharray:none;stroke-opacity:1"
           d="m 2778.61,184.786 c 51.09,0 90.26,-38.887 90.26,-89.9789 0,-51.0956 -39.17,-90.26423 -90.26,-90.26423 -51.09,0 -89.98,39.16863 -89.98,90.26423 0,51.0919 38.89,89.9789 89.98,89.9789 z" /></g><g
         transform="scale(0.999119,1.00088)"
         id="g160"><path
           id="path162"
           style="fill:none;stroke:#010101;stroke-width:7.09475994;stroke-linecap:butt;stroke-linejoin:round;stroke-miterlimit:10;stroke-dasharray:none;stroke-opacity:1"
           d="m 2688.63,184.786 0,0 z" /></g><g
         transform="scale(0.999119,1.00088)"
         id="g164"><path
           id="path166"
           style="fill:none;stroke:#010101;stroke-width:7.09475994;stroke-linecap:butt;stroke-linejoin:round;stroke-miterlimit:10;stroke-dasharray:none;stroke-opacity:1"
           d="m 2869.16,4.25797 0,0 z" /></g><path
         id="path168"
         style="fill:#ffffff;fill-opacity:1;fill-rule:evenodd;stroke:none"
         d="m 2488.3,184.664 c 51.06,0 90.19,-38.922 90.19,-90.0585 0,-51.1367 -39.13,-90.34378 -90.19,-90.34378 -51.04,0 -89.89,39.20708 -89.89,90.34378 0,51.1365 38.85,90.0585 89.89,90.0585 z m -89.89,0 0,0 z m 180.36,-180.68744 0,0" /><g
         transform="scale(0.999119,1.00088)"
         id="g170"><path
           id="path172"
           style="fill:none;stroke:#010101;stroke-width:7.09475994;stroke-linecap:butt;stroke-linejoin:round;stroke-miterlimit:10;stroke-dasharray:none;stroke-opacity:1"
           d="m 2490.22,184.786 c 51.09,0 90.26,-38.887 90.26,-89.9789 0,-51.0956 -39.17,-90.26423 -90.26,-90.26423 -51.1,0 -89.98,39.16863 -89.98,90.26423 0,51.0919 38.88,89.9789 89.98,89.9789 z" /></g><g
         transform="scale(0.999119,1.00088)"
         id="g174"><path
           id="path176"
           style="fill:none;stroke:#010101;stroke-width:7.09475994;stroke-linecap:butt;stroke-linejoin:round;stroke-miterlimit:10;stroke-dasharray:none;stroke-opacity:1"
           d="m 2400.24,184.786 0,0 z" /></g><g
         transform="scale(0.999119,1.00088)"
         id="g178"><path
           id="path180"
           style="fill:none;stroke:#010101;stroke-width:7.09475994;stroke-linecap:butt;stroke-linejoin:round;stroke-miterlimit:10;stroke-dasharray:none;stroke-opacity:1"
           d="m 2580.77,4.25797 0,0 z" /></g><path
         id="path182"
         style="fill:#ffffff;fill-opacity:1;fill-rule:evenodd;stroke:none"
         d="m 4360.92,761.672 c 51.04,0 90.18,-38.637 90.18,-89.774 0,-51.14 -39.14,-90.343 -90.18,-90.343 -51.05,0 -89.9,39.203 -89.9,90.343 0,51.137 38.85,89.774 89.9,89.774 z m -89.9,0 0,0 z m 180.37,-180.402 0,0" /><g
         transform="scale(0.999119,1.00088)"
         id="g184"><path
           id="path186"
           style="fill:none;stroke:#010101;stroke-width:7.09475994;stroke-linecap:butt;stroke-linejoin:round;stroke-miterlimit:10;stroke-dasharray:none;stroke-opacity:1"
           d="m 4364.48,761.287 c 51.09,0 90.26,-38.888 90.26,-89.98 0,-51.095 -39.17,-90.264 -90.26,-90.264 -50.81,0 -89.7,39.169 -89.7,90.264 0,51.092 38.89,89.98 89.7,89.98 z" /></g><g
         transform="scale(0.999119,1.00088)"
         id="g188"><path
           id="path190"
           style="fill:none;stroke:#010101;stroke-width:7.09475994;stroke-linecap:butt;stroke-linejoin:round;stroke-miterlimit:10;stroke-dasharray:none;stroke-opacity:1"
           d="m 4274.78,761.287 0,0 z" /></g><g
         transform="scale(0.999119,1.00088)"
         id="g192"><path
           id="path194"
           style="fill:none;stroke:#010101;stroke-width:7.09475994;stroke-linecap:butt;stroke-linejoin:round;stroke-miterlimit:10;stroke-dasharray:none;stroke-opacity:1"
           d="m 4455.03,580.758 0,0 z" /></g><path
         id="path196"
         style="fill:#ffffff;fill-opacity:1;fill-rule:evenodd;stroke:none"
         d="m 3784.64,761.672 c 51.05,0 90.19,-38.637 90.19,-89.774 0,-51.14 -39.14,-90.343 -90.19,-90.343 -51.05,0 -89.9,39.203 -89.9,90.343 0,51.137 38.85,89.774 89.9,89.774 z m -89.9,0 0,0 z m 180.37,-180.402 0,0" /><g
         transform="scale(0.999119,1.00088)"
         id="g198"><path
           id="path200"
           style="fill:none;stroke:#010101;stroke-width:7.09475994;stroke-linecap:butt;stroke-linejoin:round;stroke-miterlimit:10;stroke-dasharray:none;stroke-opacity:1"
           d="m 3787.98,761.287 c 51.09,0 90.26,-38.888 90.26,-89.98 0,-51.095 -39.17,-90.264 -90.26,-90.264 -51.1,0 -89.98,39.169 -89.98,90.264 0,51.092 38.88,89.98 89.98,89.98 z" /></g><g
         transform="scale(0.999119,1.00088)"
         id="g202"><path
           id="path204"
           style="fill:none;stroke:#010101;stroke-width:7.09475994;stroke-linecap:butt;stroke-linejoin:round;stroke-miterlimit:10;stroke-dasharray:none;stroke-opacity:1"
           d="m 3698,761.287 0,0 z" /></g><g
         transform="scale(0.999119,1.00088)"
         id="g206"><path
           id="path208"
           style="fill:none;stroke:#010101;stroke-width:7.09475994;stroke-linecap:butt;stroke-linejoin:round;stroke-miterlimit:10;stroke-dasharray:none;stroke-opacity:1"
           d="m 3878.53,580.758 0,0 z" /></g><path
         id="path210"
         style="fill:#ffffff;fill-opacity:1;fill-rule:evenodd;stroke:none"
         d="m 3208.37,761.672 c 51.04,0 90.18,-38.637 90.18,-89.774 0,-51.14 -39.14,-90.343 -90.18,-90.343 -50.77,0 -89.62,39.203 -89.62,90.343 0,51.137 38.85,89.774 89.62,89.774 z m -89.62,0 0,0 z m 180.09,-180.402 0,0" /><g
         transform="scale(0.999119,1.00088)"
         id="g212"><path
           id="path214"
           style="fill:none;stroke:#010101;stroke-width:7.09475994;stroke-linecap:butt;stroke-linejoin:round;stroke-miterlimit:10;stroke-dasharray:none;stroke-opacity:1"
           d="m 3211.2,761.287 c 51.09,0 90.26,-38.888 90.26,-89.98 0,-51.095 -39.17,-90.264 -90.26,-90.264 -51.1,0 -89.99,39.169 -89.99,90.264 0,51.092 38.89,89.98 89.99,89.98 z" /></g><g
         transform="scale(0.999119,1.00088)"
         id="g216"><path
           id="path218"
           style="fill:none;stroke:#010101;stroke-width:7.09475994;stroke-linecap:butt;stroke-linejoin:round;stroke-miterlimit:10;stroke-dasharray:none;stroke-opacity:1"
           d="m 3121.21,761.287 0,0 z" /></g><g
         transform="scale(0.999119,1.00088)"
         id="g220"><path
           id="path222"
           style="fill:none;stroke:#010101;stroke-width:7.09475994;stroke-linecap:butt;stroke-linejoin:round;stroke-miterlimit:10;stroke-dasharray:none;stroke-opacity:1"
           d="m 3301.74,580.758 0,0 z" /></g><path
         id="path224"
         style="fill:#ffffff;fill-opacity:1;fill-rule:evenodd;stroke:none"
         d="m 2632.38,761.672 c 51.04,0 90.18,-38.637 90.18,-89.774 0,-51.14 -39.14,-90.343 -90.18,-90.343 -51.05,0 -89.91,39.203 -89.91,90.343 0,51.137 38.86,89.774 89.91,89.774 z m -89.91,0 0,0 z m 180.37,-180.402 0,0" /><g
         transform="scale(0.999119,1.00088)"
         id="g226"><path
           id="path228"
           style="fill:none;stroke:#010101;stroke-width:7.09475994;stroke-linecap:butt;stroke-linejoin:round;stroke-miterlimit:10;stroke-dasharray:none;stroke-opacity:1"
           d="m 2634.41,761.287 c 51.1,0 90.27,-38.888 90.27,-89.98 0,-51.095 -39.17,-90.264 -90.27,-90.264 -51.09,0 -89.98,39.169 -89.98,90.264 0,51.092 38.89,89.98 89.98,89.98 z" /></g><g
         transform="scale(0.999119,1.00088)"
         id="g230"><path
           id="path232"
           style="fill:none;stroke:#010101;stroke-width:7.09475994;stroke-linecap:butt;stroke-linejoin:round;stroke-miterlimit:10;stroke-dasharray:none;stroke-opacity:1"
           d="m 2544.43,761.287 0,0 z" /></g><g
         transform="scale(0.999119,1.00088)"
         id="g234"><path
           id="path236"
           style="fill:none;stroke:#010101;stroke-width:7.09475994;stroke-linecap:butt;stroke-linejoin:round;stroke-miterlimit:10;stroke-dasharray:none;stroke-opacity:1"
           d="m 2724.96,580.758 0,0 z" /></g><path
         id="path238"
         style="fill:#ffffff;fill-opacity:1;fill-rule:evenodd;stroke:none"
         d="m 4072.78,1338.96 c 51.05,0 90.18,-38.92 90.18,-90.06 0,-51.13 -39.13,-90.34 -90.18,-90.34 -51.05,0 -89.9,39.21 -89.9,90.34 0,51.14 38.85,90.06 89.9,90.06 z m -89.9,0 0,0 z m 180.37,-180.68 0,0" /><g
         transform="scale(0.999119,1.00088)"
         id="g240"><path
           id="path242"
           style="fill:none;stroke:#010101;stroke-width:7.09475994;stroke-linecap:butt;stroke-linejoin:round;stroke-miterlimit:10;stroke-dasharray:none;stroke-opacity:1"
           d="m 4076.37,1337.79 c 51.09,0 90.26,-38.89 90.26,-89.99 0,-50.8 -39.17,-89.98 -90.26,-89.98 -51.09,0 -89.98,39.18 -89.98,89.98 0,51.1 38.89,89.99 89.98,89.99 z" /></g><g
         transform="scale(0.999119,1.00088)"
         id="g244"><path
           id="path246"
           style="fill:none;stroke:#010101;stroke-width:7.09475994;stroke-linecap:butt;stroke-linejoin:round;stroke-miterlimit:10;stroke-dasharray:none;stroke-opacity:1"
           d="m 3986.39,1337.79 0,0 z" /></g><g
         transform="scale(0.999119,1.00088)"
         id="g248"><path
           id="path250"
           style="fill:none;stroke:#010101;stroke-width:7.09475994;stroke-linecap:butt;stroke-linejoin:round;stroke-miterlimit:10;stroke-dasharray:none;stroke-opacity:1"
           d="m 4166.92,1157.54 0,0 z" /></g><path
         id="path252"
         style="fill:#ffffff;fill-opacity:1;fill-rule:evenodd;stroke:none"
         d="m 2920.51,1338.96 c 51.05,0 90.19,-38.92 90.19,-90.06 0,-51.13 -39.14,-90.34 -90.19,-90.34 -51.05,0 -89.9,39.21 -89.9,90.34 0,51.14 38.85,90.06 89.9,90.06 z m -89.9,0 0,0 z m 180.37,-180.68 0,0" /><g
         transform="scale(0.999119,1.00088)"
         id="g254"><path
           id="path256"
           style="fill:none;stroke:#010101;stroke-width:7.09475994;stroke-linecap:butt;stroke-linejoin:round;stroke-miterlimit:10;stroke-dasharray:none;stroke-opacity:1"
           d="m 2922.8,1337.79 c 51.1,0 90.27,-38.89 90.27,-89.99 0,-50.8 -39.17,-89.98 -90.27,-89.98 -51.09,0 -89.98,39.18 -89.98,89.98 0,51.1 38.89,89.99 89.98,89.99 z" /></g><g
         transform="scale(0.999119,1.00088)"
         id="g258"><path
           id="path260"
           style="fill:none;stroke:#010101;stroke-width:7.09475994;stroke-linecap:butt;stroke-linejoin:round;stroke-miterlimit:10;stroke-dasharray:none;stroke-opacity:1"
           d="m 2832.82,1337.79 0,0 z" /></g><g
         transform="scale(0.999119,1.00088)"
         id="g262"><path
           id="path264"
           style="fill:none;stroke:#010101;stroke-width:7.09475994;stroke-linecap:butt;stroke-linejoin:round;stroke-miterlimit:10;stroke-dasharray:none;stroke-opacity:1"
           d="m 3013.35,1157.54 0,0 z" /></g><path
         id="path266"
         style="fill:#ffffff;fill-opacity:1;fill-rule:evenodd;stroke:none"
         d="m 3496.5,1915.97 c 51.05,0 90.19,-38.92 90.19,-90.06 0,-51.14 -39.14,-90.34 -90.19,-90.34 -51.04,0 -89.9,39.2 -89.9,90.34 0,51.14 38.86,90.06 89.9,90.06 z m -89.9,0 0,0 z m 180.37,-180.69 0,0" /><g
         transform="scale(0.999119,1.00088)"
         id="g268"><path
           id="path270"
           style="fill:none;stroke:#010101;stroke-width:7.09475994;stroke-linecap:butt;stroke-linejoin:round;stroke-miterlimit:10;stroke-dasharray:none;stroke-opacity:1"
           d="m 3499.59,1914.57 c 51.09,0 90.26,-38.89 90.26,-89.98 0,-51.09 -39.17,-90.27 -90.26,-90.27 -51.1,0 -89.99,39.18 -89.99,90.27 0,51.09 38.89,89.98 89.99,89.98 z" /></g><g
         transform="scale(0.999119,1.00088)"
         id="g272"><path
           id="path274"
           style="fill:none;stroke:#010101;stroke-width:7.09475994;stroke-linecap:butt;stroke-linejoin:round;stroke-miterlimit:10;stroke-dasharray:none;stroke-opacity:1"
           d="m 3409.6,1914.57 0,0 z" /></g><g
         transform="scale(0.999119,1.00088)"
         id="g276"><path
           id="path278"
           style="fill:none;stroke:#010101;stroke-width:7.09475994;stroke-linecap:butt;stroke-linejoin:round;stroke-miterlimit:10;stroke-dasharray:none;stroke-opacity:1"
           d="m 3590.13,1734.04 0,0 z" /></g><g
         transform="scale(0.999119,1.00088)"
         id="g280"><path
           id="path282"
           style="fill:none;stroke:#010101;stroke-width:7.09475994;stroke-linecap:butt;stroke-linejoin:round;stroke-miterlimit:10;stroke-dasharray:none;stroke-opacity:1"
           d="M 1663.08,1824.3 1374.69,1247.52" /></g><g
         transform="scale(0.999119,1.00088)"
         id="g284"><path
           id="path286"
           style="fill:none;stroke:#010101;stroke-width:7.09475994;stroke-linecap:butt;stroke-linejoin:round;stroke-miterlimit:10;stroke-dasharray:none;stroke-opacity:1"
           d="m 1230.49,671.022 144.2,576.498" /></g><g
         transform="scale(0.999119,1.00088)"
         id="g288"><path
           id="path290"
           style="fill:none;stroke:#010101;stroke-width:7.09475994;stroke-linecap:butt;stroke-linejoin:round;stroke-miterlimit:10;stroke-dasharray:none;stroke-opacity:1"
           d="M 1518.88,671.022 1374.69,1247.52" /></g><g
         transform="scale(0.999119,1.00088)"
         id="g292"><path
           id="path294"
           style="fill:none;stroke:#010101;stroke-width:7.09475994;stroke-linecap:butt;stroke-linejoin:round;stroke-miterlimit:10;stroke-dasharray:none;stroke-opacity:1"
           d="m 1807.27,671.022 144.2,576.498" /></g><g
         transform="scale(0.999119,1.00088)"
         id="g296"><path
           id="path298"
           style="fill:none;stroke:#010101;stroke-width:7.09475994;stroke-linecap:butt;stroke-linejoin:round;stroke-miterlimit:10;stroke-dasharray:none;stroke-opacity:1"
           d="M 2095.38,671.022 1951.47,1247.52" /></g><g
         transform="scale(0.999119,1.00088)"
         id="g300"><path
           id="path302"
           style="fill:none;stroke:#010101;stroke-width:7.09475994;stroke-linecap:butt;stroke-linejoin:round;stroke-miterlimit:10;stroke-dasharray:none;stroke-opacity:1"
           d="M 1951.47,1247.52 1663.08,1824.3" /></g><path
         id="path304"
         style="fill:#ffffff;fill-opacity:1;fill-rule:evenodd;stroke:none"
         d="m 2093.54,761.672 c 51.04,0 90.18,-38.637 90.18,-89.774 0,-51.14 -39.14,-90.343 -90.18,-90.343 -51.05,0 -89.91,39.203 -89.91,90.343 0,51.137 38.86,89.774 89.91,89.774 z m -89.91,0 0,0 z M 2184,581.27 l 0,0" /><g
         transform="scale(0.999119,1.00088)"
         id="g306"><path
           id="path308"
           style="fill:none;stroke:#010101;stroke-width:7.09475994;stroke-linecap:butt;stroke-linejoin:round;stroke-miterlimit:10;stroke-dasharray:none;stroke-opacity:1"
           d="m 2095.1,761.287 c 51.09,0 90.26,-38.888 90.26,-89.98 0,-51.095 -39.17,-90.264 -90.26,-90.264 -51.1,0 -89.7,39.169 -89.7,90.264 0,51.092 38.6,89.98 89.7,89.98 z" /></g><g
         transform="scale(0.999119,1.00088)"
         id="g310"><path
           id="path312"
           style="fill:none;stroke:#010101;stroke-width:7.09475994;stroke-linecap:butt;stroke-linejoin:round;stroke-miterlimit:10;stroke-dasharray:none;stroke-opacity:1"
           d="m 2005.4,761.287 0,0 z" /></g><g
         transform="scale(0.999119,1.00088)"
         id="g314"><path
           id="path316"
           style="fill:none;stroke:#010101;stroke-width:7.09475994;stroke-linecap:butt;stroke-linejoin:round;stroke-miterlimit:10;stroke-dasharray:none;stroke-opacity:1"
           d="m 2185.64,580.758 0,0 z" /></g><path
         id="path318"
         style="fill:#ffffff;fill-opacity:1;fill-rule:evenodd;stroke:none"
         d="m 1805.4,761.672 c 51.05,0 90.18,-38.637 90.18,-89.774 0,-51.14 -39.13,-90.343 -90.18,-90.343 -51.05,0 -89.9,39.203 -89.9,90.343 0,51.137 38.85,89.774 89.9,89.774 z m -89.9,0 0,0 z m 180.37,-180.402 0,0" /><g
         transform="scale(0.999119,1.00088)"
         id="g320"><path
           id="path322"
           style="fill:none;stroke:#010101;stroke-width:7.09475994;stroke-linecap:butt;stroke-linejoin:round;stroke-miterlimit:10;stroke-dasharray:none;stroke-opacity:1"
           d="m 1806.99,761.287 c 51.09,0 90.26,-38.888 90.26,-89.98 0,-51.095 -39.17,-90.264 -90.26,-90.264 -51.09,0 -89.98,39.169 -89.98,90.264 0,51.092 38.89,89.98 89.98,89.98 z" /></g><g
         transform="scale(0.999119,1.00088)"
         id="g324"><path
           id="path326"
           style="fill:none;stroke:#010101;stroke-width:7.09475994;stroke-linecap:butt;stroke-linejoin:round;stroke-miterlimit:10;stroke-dasharray:none;stroke-opacity:1"
           d="m 1717.01,761.287 0,0 z" /></g><g
         transform="scale(0.999119,1.00088)"
         id="g328"><path
           id="path330"
           style="fill:none;stroke:#010101;stroke-width:7.09475994;stroke-linecap:butt;stroke-linejoin:round;stroke-miterlimit:10;stroke-dasharray:none;stroke-opacity:1"
           d="m 1897.54,580.758 0,0 z" /></g><path
         id="path332"
         style="fill:#ffffff;fill-opacity:1;fill-rule:evenodd;stroke:none"
         d="m 1517.26,761.672 c 51.05,0 90.19,-38.637 90.19,-89.774 0,-51.14 -39.14,-90.343 -90.19,-90.343 -51.05,0 -89.9,39.203 -89.9,90.343 0,51.137 38.85,89.774 89.9,89.774 z m -89.9,0 0,0 z m 180.37,-180.402 0,0" /><g
         transform="scale(0.999119,1.00088)"
         id="g334"><path
           id="path336"
           style="fill:none;stroke:#010101;stroke-width:7.09475994;stroke-linecap:butt;stroke-linejoin:round;stroke-miterlimit:10;stroke-dasharray:none;stroke-opacity:1"
           d="m 1518.6,761.287 c 51.09,0 90.26,-38.888 90.26,-89.98 0,-51.095 -39.17,-90.264 -90.26,-90.264 -51.1,0 -89.98,39.169 -89.98,90.264 0,51.092 38.88,89.98 89.98,89.98 z" /></g><g
         transform="scale(0.999119,1.00088)"
         id="g338"><path
           id="path340"
           style="fill:none;stroke:#010101;stroke-width:7.09475994;stroke-linecap:butt;stroke-linejoin:round;stroke-miterlimit:10;stroke-dasharray:none;stroke-opacity:1"
           d="m 1428.62,761.287 0,0 z" /></g><g
         transform="scale(0.999119,1.00088)"
         id="g342"><path
           id="path344"
           style="fill:none;stroke:#010101;stroke-width:7.09475994;stroke-linecap:butt;stroke-linejoin:round;stroke-miterlimit:10;stroke-dasharray:none;stroke-opacity:1"
           d="m 1609.14,580.758 0,0 z" /></g><path
         id="path346"
         style="fill:#ffffff;fill-opacity:1;fill-rule:evenodd;stroke:none"
         d="m 1229.12,761.672 c 51.05,0 90.19,-38.637 90.19,-89.774 0,-51.14 -39.14,-90.343 -90.19,-90.343 -51.05,0 -89.9,39.203 -89.9,90.343 0,51.137 38.85,89.774 89.9,89.774 z m -89.9,0 0,0 z m 180.37,-180.402 0,0" /><g
         transform="scale(0.999119,1.00088)"
         id="g348"><path
           id="path350"
           style="fill:none;stroke:#010101;stroke-width:7.09475994;stroke-linecap:butt;stroke-linejoin:round;stroke-miterlimit:10;stroke-dasharray:none;stroke-opacity:1"
           d="m 1230.2,761.287 c 51.1,0 90.27,-38.888 90.27,-89.98 0,-51.095 -39.17,-90.264 -90.27,-90.264 -51.09,0 -89.97,39.169 -89.97,90.264 0,51.092 38.88,89.98 89.97,89.98 z" /></g><g
         transform="scale(0.999119,1.00088)"
         id="g352"><path
           id="path354"
           style="fill:none;stroke:#010101;stroke-width:7.09475994;stroke-linecap:butt;stroke-linejoin:round;stroke-miterlimit:10;stroke-dasharray:none;stroke-opacity:1"
           d="m 1140.23,761.287 0,0 z" /></g><g
         transform="scale(0.999119,1.00088)"
         id="g356"><path
           id="path358"
           style="fill:none;stroke:#010101;stroke-width:7.09475994;stroke-linecap:butt;stroke-linejoin:round;stroke-miterlimit:10;stroke-dasharray:none;stroke-opacity:1"
           d="m 1320.75,580.758 0,0 z" /></g><path
         id="path360"
         style="fill:#ffffff;fill-opacity:1;fill-rule:evenodd;stroke:none"
         d="m 1949.46,1338.96 c 51.06,0 90.19,-38.92 90.19,-90.06 0,-51.13 -39.13,-90.34 -90.19,-90.34 -51.04,0 -89.89,39.21 -89.89,90.34 0,51.14 38.85,90.06 89.89,90.06 z m -89.89,0 0,0 z m 180.36,-180.68 0,0" /><g
         transform="scale(0.999119,1.00088)"
         id="g362"><path
           id="path364"
           style="fill:none;stroke:#010101;stroke-width:7.09475994;stroke-linecap:butt;stroke-linejoin:round;stroke-miterlimit:10;stroke-dasharray:none;stroke-opacity:1"
           d="m 1951.18,1337.79 c 51.1,0 89.98,-38.89 89.98,-89.99 0,-50.8 -38.88,-89.98 -89.98,-89.98 -51.09,0 -89.97,39.18 -89.97,89.98 0,51.1 38.88,89.99 89.97,89.99 z" /></g><g
         transform="scale(0.999119,1.00088)"
         id="g366"><path
           id="path368"
           style="fill:none;stroke:#010101;stroke-width:7.09475994;stroke-linecap:butt;stroke-linejoin:round;stroke-miterlimit:10;stroke-dasharray:none;stroke-opacity:1"
           d="m 1861.21,1337.79 0,0 z" /></g><g
         transform="scale(0.999119,1.00088)"
         id="g370"><path
           id="path372"
           style="fill:none;stroke:#010101;stroke-width:7.09475994;stroke-linecap:butt;stroke-linejoin:round;stroke-miterlimit:10;stroke-dasharray:none;stroke-opacity:1"
           d="m 2041.45,1157.54 0,0 z" /></g><path
         id="path374"
         style="fill:#ffffff;fill-opacity:1;fill-rule:evenodd;stroke:none"
         d="m 1373.19,1338.96 c 51.05,0 90.19,-38.92 90.19,-90.06 0,-51.13 -39.14,-90.34 -90.19,-90.34 -51.05,0 -89.9,39.21 -89.9,90.34 0,51.14 38.85,90.06 89.9,90.06 z m -89.9,0 0,0 z m 180.37,-180.68 0,0" /><g
         transform="scale(0.999119,1.00088)"
         id="g376"><path
           id="path378"
           style="fill:none;stroke:#010101;stroke-width:7.09475994;stroke-linecap:butt;stroke-linejoin:round;stroke-miterlimit:10;stroke-dasharray:none;stroke-opacity:1"
           d="m 1374.4,1337.79 c 51.09,0 90.26,-38.89 90.26,-89.99 0,-50.8 -39.17,-89.98 -90.26,-89.98 -51.09,0 -89.98,39.18 -89.98,89.98 0,51.1 38.89,89.99 89.98,89.99 z" /></g><g
         transform="scale(0.999119,1.00088)"
         id="g380"><path
           id="path382"
           style="fill:none;stroke:#010101;stroke-width:7.09475994;stroke-linecap:butt;stroke-linejoin:round;stroke-miterlimit:10;stroke-dasharray:none;stroke-opacity:1"
           d="m 1284.42,1337.79 0,0 z" /></g><g
         transform="scale(0.999119,1.00088)"
         id="g384"><path
           id="path386"
           style="fill:none;stroke:#010101;stroke-width:7.09475994;stroke-linecap:butt;stroke-linejoin:round;stroke-miterlimit:10;stroke-dasharray:none;stroke-opacity:1"
           d="m 1464.95,1157.54 0,0 z" /></g><path
         id="path388"
         style="fill:#ffffff;fill-opacity:1;fill-rule:evenodd;stroke:none"
         d="m 1661.33,1915.97 c 51.05,0 90.18,-38.92 90.18,-90.06 0,-51.14 -39.13,-90.34 -90.18,-90.34 -51.05,0 -89.9,39.2 -89.9,90.34 0,51.14 38.85,90.06 89.9,90.06 z m -89.9,0 0,0 z m 180.37,-180.69 0,0" /><g
         transform="scale(0.999119,1.00088)"
         id="g390"><path
           id="path392"
           style="fill:none;stroke:#010101;stroke-width:7.09475994;stroke-linecap:butt;stroke-linejoin:round;stroke-miterlimit:10;stroke-dasharray:none;stroke-opacity:1"
           d="m 1662.79,1914.57 c 51.09,0 90.27,-38.89 90.27,-89.98 0,-51.09 -39.18,-90.27 -90.27,-90.27 -51.09,0 -89.98,39.18 -89.98,90.27 0,51.09 38.89,89.98 89.98,89.98 z" /></g><g
         transform="scale(0.999119,1.00088)"
         id="g394"><path
           id="path396"
           style="fill:none;stroke:#010101;stroke-width:7.09475994;stroke-linecap:butt;stroke-linejoin:round;stroke-miterlimit:10;stroke-dasharray:none;stroke-opacity:1"
           d="m 1572.81,1914.57 0,0 z" /></g><g
         transform="scale(0.999119,1.00088)"
         id="g398"><path
           id="path400"
           style="fill:none;stroke:#010101;stroke-width:7.09475994;stroke-linecap:butt;stroke-linejoin:round;stroke-miterlimit:10;stroke-dasharray:none;stroke-opacity:1"
           d="m 1753.34,1734.04 0,0 z" /></g><g
         transform="scale(0.999119,1.00088)"
         id="g402"><path
           id="path404"
           style="fill:none;stroke:#010101;stroke-width:7.09475994;stroke-linecap:butt;stroke-linejoin:round;stroke-miterlimit:10;stroke-dasharray:none;stroke-opacity:1"
           d="m 515.755,1243.55 144.197,576.78" /></g><g
         transform="scale(0.999119,1.00088)"
         id="g406"><path
           id="path408"
           style="fill:none;stroke:#010101;stroke-width:7.09475994;stroke-linecap:butt;stroke-linejoin:round;stroke-miterlimit:10;stroke-dasharray:none;stroke-opacity:1"
           d="M 804.146,1243.55 659.952,1820.33" /></g><path
         id="path410"
         style="fill:#ffffff;fill-opacity:1;fill-rule:evenodd;stroke:none"
         d="m 803.438,1334.98 c 51.05,0 89.902,-38.92 89.902,-90.05 0,-51.14 -38.852,-90.35 -89.902,-90.35 -51.047,0 -89.899,39.21 -89.899,90.35 0,51.13 38.852,90.05 89.899,90.05 z m -89.899,0 0,0 z m 180.086,-180.68 0,0" /><g
         transform="scale(0.999119,1.00088)"
         id="g412"><path
           id="path414"
           style="fill:none;stroke:#010101;stroke-width:7.09475994;stroke-linecap:butt;stroke-linejoin:round;stroke-miterlimit:10;stroke-dasharray:none;stroke-opacity:1"
           d="m 803.864,1333.81 c 51.092,0 90.263,-38.89 90.263,-89.98 0,-50.81 -39.171,-89.98 -90.263,-89.98 -51.096,0 -89.981,39.17 -89.981,89.98 0,51.09 38.885,89.98 89.981,89.98 z" /></g><g
         transform="scale(0.999119,1.00088)"
         id="g416"><path
           id="path418"
           style="fill:none;stroke:#010101;stroke-width:7.09475994;stroke-linecap:butt;stroke-linejoin:round;stroke-miterlimit:10;stroke-dasharray:none;stroke-opacity:1"
           d="m 713.883,1333.81 0,0 z" /></g><g
         transform="scale(0.999119,1.00088)"
         id="g420"><path
           id="path422"
           style="fill:none;stroke:#010101;stroke-width:7.09475994;stroke-linecap:butt;stroke-linejoin:round;stroke-miterlimit:10;stroke-dasharray:none;stroke-opacity:1"
           d="m 894.413,1153.57 0,0 z" /></g><path
         id="path424"
         style="fill:#ffffff;fill-opacity:1;fill-rule:evenodd;stroke:none"
         d="m 515.301,1334.98 c 51.047,0 90.183,-38.92 90.183,-90.05 0,-51.14 -39.136,-90.35 -90.183,-90.35 -51.047,0 -89.903,39.21 -89.903,90.35 0,51.13 38.856,90.05 89.903,90.05 z m -89.903,0 0,0 z m 180.372,-180.68 0,0" /><g
         transform="scale(0.999119,1.00088)"
         id="g426"><path
           id="path428"
           style="fill:none;stroke:#010101;stroke-width:7.09475994;stroke-linecap:butt;stroke-linejoin:round;stroke-miterlimit:10;stroke-dasharray:none;stroke-opacity:1"
           d="m 515.474,1333.81 c 51.091,0 90.263,-38.89 90.263,-89.98 0,-50.81 -39.172,-89.98 -90.263,-89.98 -51.096,0 -89.982,39.17 -89.982,89.98 0,51.09 38.886,89.98 89.982,89.98 z" /></g><g
         transform="scale(0.999119,1.00088)"
         id="g430"><path
           id="path432"
           style="fill:none;stroke:#010101;stroke-width:7.09475994;stroke-linecap:butt;stroke-linejoin:round;stroke-miterlimit:10;stroke-dasharray:none;stroke-opacity:1"
           d="m 425.492,1333.81 0,0 z" /></g><g
         transform="scale(0.999119,1.00088)"
         id="g434"><path
           id="path436"
           style="fill:none;stroke:#010101;stroke-width:7.09475994;stroke-linecap:butt;stroke-linejoin:round;stroke-miterlimit:10;stroke-dasharray:none;stroke-opacity:1"
           d="m 606.018,1153.57 0,0 z" /></g><path
         id="path438"
         style="fill:#ffffff;fill-opacity:1;fill-rule:evenodd;stroke:none"
         d="m 659.371,1911.99 c 51.047,0 90.184,-38.92 90.184,-90.06 0,-51.13 -39.137,-90.34 -90.184,-90.34 -51.051,0 -89.902,39.21 -89.902,90.34 0,51.14 38.851,90.06 89.902,90.06 z m -89.902,0 0,0 z m 180.371,-180.69 0,0" /><g
         transform="scale(0.999119,1.00088)"
         id="g440"><path
           id="path442"
           style="fill:none;stroke:#010101;stroke-width:7.09475994;stroke-linecap:butt;stroke-linejoin:round;stroke-miterlimit:10;stroke-dasharray:none;stroke-opacity:1"
           d="m 659.667,1910.59 c 51.092,0 90.263,-38.88 90.263,-89.97 0,-51.1 -39.171,-90.27 -90.263,-90.27 -51.092,0 -89.982,39.17 -89.982,90.27 0,51.09 38.89,89.97 89.982,89.97 z" /></g><g
         transform="scale(0.999119,1.00088)"
         id="g444"><path
           id="path446"
           style="fill:none;stroke:#010101;stroke-width:7.09475994;stroke-linecap:butt;stroke-linejoin:round;stroke-miterlimit:10;stroke-dasharray:none;stroke-opacity:1"
           d="m 569.685,1910.59 0,0 z" /></g><g
         transform="scale(0.999119,1.00088)"
         id="g448"><path
           id="path450"
           style="fill:none;stroke:#010101;stroke-width:7.09475994;stroke-linecap:butt;stroke-linejoin:round;stroke-miterlimit:10;stroke-dasharray:none;stroke-opacity:1"
           d="m 750.215,1730.07 0,0 z" /></g><path
         id="path452"
         style="fill:#ffffff;fill-opacity:1;fill-rule:evenodd;stroke:none"
         d="m 93.5898,1915.97 c 51.0472,0 90.1832,-38.92 90.1832,-90.06 0,-51.14 -39.136,-90.34 -90.1832,-90.34 -51.0507,0 -89.9023,39.2 -89.9023,90.34 0,51.14 38.8516,90.06 89.9023,90.06 z m -89.9023,0 0,0 z m 180.3675,-180.69 0,0" /><g
         transform="scale(0.999119,1.00088)"
         id="g454"><path
           id="path456"
           style="fill:none;stroke:#010101;stroke-width:7.09475994;stroke-linecap:butt;stroke-linejoin:round;stroke-miterlimit:10;stroke-dasharray:none;stroke-opacity:1"
           d="m 93.3869,1914.57 c 51.0921,0 90.2631,-38.89 90.2631,-89.98 0,-51.09 -39.171,-90.27 -90.2631,-90.27 -51.0918,0 -89.98156,39.18 -89.98156,90.27 0,51.09 38.88976,89.98 89.98156,89.98 z" /></g><g
         transform="scale(0.999119,1.00088)"
         id="g458"><path
           id="path460"
           style="fill:none;stroke:#010101;stroke-width:7.09475994;stroke-linecap:butt;stroke-linejoin:round;stroke-miterlimit:10;stroke-dasharray:none;stroke-opacity:1"
           d="m 3.40534,1914.57 0,0 z" /></g><g
         transform="scale(0.999119,1.00088)"
         id="g462"><path
           id="path464"
           style="fill:none;stroke:#010101;stroke-width:7.09475994;stroke-linecap:butt;stroke-linejoin:round;stroke-miterlimit:10;stroke-dasharray:none;stroke-opacity:1"
           d="m 183.935,1734.04 0,0 z" /></g></g></g></svg>