<?xml version="1.0" encoding="UTF-8" standalone="no"?>
<svg
   xmlns:dc="http://purl.org/dc/elements/1.1/"
   xmlns:cc="http://creativecommons.org/ns#"
   xmlns:rdf="http://www.w3.org/1999/02/22-rdf-syntax-ns#"
   xmlns:svg="http://www.w3.org/2000/svg"
   xmlns="http://www.w3.org/2000/svg"
   viewBox="0 0 513.75 81.25"
   height="81.25"
   width="513.75"
   xml:space="preserve"
   version="1.1"
   id="svg2"><metadata
     id="metadata8"><rdf:RDF><cc:Work
         rdf:about=""><dc:format>image/svg+xml</dc:format><dc:type
           rdf:resource="http://purl.org/dc/dcmitype/StillImage" /></cc:Work></rdf:RDF></metadata><defs
     id="defs6" /><g
     transform="matrix(1.25,0,0,-1.25,0,81.25)"
     id="g10"><g
       transform="scale(0.1,0.1)"
       id="g12"><path
         id="path14"
         style="fill:#010101;fill-opacity:1;fill-rule:evenodd;stroke:none"
         d="m 152.93,449.414 c 0,4.844 -4.532,4.844 -5.95,4.844 -4.246,0 -5.097,-1.426 -5.945,-3.988 -3.965,-9.969 -12.746,-11.11 -16.992,-11.11 -15.293,0 -28.3203,12.817 -28.3203,29.621 0,9.399 5.3793,30.188 28.8863,30.188 4.813,0 8.496,-0.285 10.196,-0.571 1.414,-0.281 1.414,-0.566 1.414,-1.421 0.566,-7.692 6.23,-7.692 7.363,-7.692 3.965,0 7.363,2.848 7.363,7.692 0,12.531 -18.406,12.531 -26.054,12.531 -30.8676,0 -40.7816,-25.348 -40.7816,-40.727 0,-21.929 16.7106,-40.156 38.2346,-40.156 24.07,0 30.586,17.941 30.586,20.789" /><path
         id="path16"
         style="fill:#ffffff;fill-opacity:1;fill-rule:evenodd;stroke:none"
         d="m 1261.66,140.977 -640.035,0 0,319.828 1279.785,0 0,-319.828 -639.75,0" /><g
         transform="scale(0.997183,1.00282)"
         id="g18"><path
           id="path20"
           style="fill:none;stroke:#010101;stroke-width:7.09796;stroke-linecap:butt;stroke-linejoin:round;stroke-miterlimit:10;stroke-dasharray:none;stroke-opacity:1"
           d="m 1265.22,140.581 -641.839,0 0,319.214 1283.109,0 0,-319.214 -641.27,0 z" /></g><path
         id="path22"
         style="fill:#010101;fill-opacity:1;fill-rule:evenodd;stroke:none"
         d="m 789.844,227.27 c 0,2.847 -1.414,5.414 -4.531,5.414 -25.489,0 -25.489,6.265 -25.489,11.961 l 0,29.617 c 0,4.843 -0.847,13.101 -11.043,17.941 11.043,5.699 11.043,14.242 11.043,19.938 l 0,21.074 c 0,3.988 0,10.539 0.852,11.961 2.832,6.836 19.824,6.836 24.922,6.836 1.699,0 4.246,1.426 4.246,5.129 0,4.839 -3.68,4.839 -7.078,4.839 -8.496,0 -32.852,0 -34.551,-18.511 l 0,-28.481 c 0,-8.543 0,-10.535 -3.965,-13.101 -5.098,-3.418 -11.328,-4.27 -17.559,-4.27 -5.382,0 -8.781,0 -8.781,-5.129 0,-5.695 3.965,-5.695 6.516,-5.695 11.609,0 23.504,-2.848 23.789,-10.535 l 0,-30.192 c 0,-7.117 0,-24.207 34.551,-24.207 3.398,0 7.078,0 7.078,5.411" /><path
         id="path24"
         style="fill:#010101;fill-opacity:1;fill-rule:evenodd;stroke:none"
         d="m 877.922,242.082 c 0,5.41 -4.817,5.41 -7.363,5.41 l -15.86,0 0,94.836 c 0,2.848 0,7.692 -5.097,7.692 -3.118,0 -4.25,-1.711 -5.383,-4.274 -3.399,-7.687 -9.344,-17.371 -18.692,-18.226 -2.832,0 -6.511,-0.286 -6.511,-5.125 0,-2.848 1.699,-5.129 5.664,-5.129 10.195,0 17.84,7.691 18.406,7.976 l 0,-77.75 -15.859,0 c -2.547,0 -7.364,0 -7.364,-5.41 0,-5.129 4.817,-5.129 7.364,-5.129 l 43.332,0 c 2.546,0 7.363,0 7.363,5.129" /><path
         id="path26"
         style="fill:#010101;fill-opacity:1;fill-rule:evenodd;stroke:none"
         d="m 952.684,240.086 c 0,9.684 -5.946,17.375 -13.875,17.375 -6.797,0 -10.196,-5.414 -10.196,-10.254 0,-5.98 4.532,-10.254 9.91,-10.254 1.133,0 2.266,0.285 3.399,0.57 -0.848,-5.695 -4.531,-12.531 -13.309,-15.664 -1.418,-0.285 -4.25,-1.14 -4.25,-4.558 0,-2.563 2.832,-5.696 5.664,-5.696 4.817,0 22.657,9.114 22.657,28.481" /><path
         id="path28"
         style="fill:#010101;fill-opacity:1;fill-rule:evenodd;stroke:none"
         d="m 1160.27,244.359 0,3.704 c 0,3.414 0,7.687 -5.66,7.687 -5.95,0 -5.95,-3.988 -5.95,-8.258 l -43.33,0 34.27,29.332 c 2.54,2.281 20.67,17.66 20.67,37.879 0,20.508 -16.99,35.031 -39.36,35.031 -20.96,0 -34.84,-15.664 -34.84,-31.043 0,-7.406 6.52,-7.972 7.36,-7.972 3.4,0 7.37,2.562 7.37,7.402 0,3.418 -1.42,4.559 -2.27,5.129 2.55,9.68 10.76,15.945 21.24,15.945 15.3,0 28.89,-8.828 28.89,-24.492 0,-14.238 -10.76,-25.062 -20.39,-33.605 l -39.65,-34.461 c -1.98,-1.707 -2.55,-2.278 -2.55,-4.555 0,-5.129 5.1,-5.129 7.36,-5.129 l 62.87,0 c 3.97,1.141 3.97,4.844 3.97,7.406" /><path
         id="path30"
         style="fill:#010101;fill-opacity:1;fill-rule:evenodd;stroke:none"
         d="m 1229.66,240.086 c 0,9.684 -5.95,17.375 -13.88,17.375 -6.8,0 -10.2,-5.414 -10.2,-10.254 0,-5.98 4.53,-10.254 9.92,-10.254 1.13,0 2.26,0.285 3.39,0.57 -0.85,-5.695 -4.53,-12.531 -13.31,-15.664 -1.41,-0.285 -4.24,-1.14 -4.24,-4.558 0,-2.563 2.83,-5.696 5.66,-5.696 4.81,0 22.66,9.114 22.66,28.481" /><path
         id="path32"
         style="fill:#010101;fill-opacity:1;fill-rule:evenodd;stroke:none"
         d="m 1438.66,268.281 c 0,9.114 -5.1,21.93 -20.96,29.051 11.04,6.836 15.86,17.656 15.86,27.055 0,13.672 -13.31,25.347 -32.85,25.347 -19.83,0 -33.99,-8.828 -33.99,-22.214 0,-5.981 4.53,-7.688 7.37,-7.688 3.39,0 7.36,2.563 7.36,7.402 0,2.848 -1.7,4.844 -1.7,4.844 5.38,6.832 17.84,6.832 20.96,6.832 12.18,0 21.24,-6.547 21.24,-15.094 0,-5.41 -3.4,-20.789 -22.38,-20.789 -6.51,0 -9.34,-1.14 -10.19,-1.14 -3.68,-0.285 -4.53,-2.563 -4.53,-5.125 0,-5.41 3.96,-5.41 6.79,-5.41 l 8.5,0 c 18.69,0 26.9,-13.102 26.9,-23.071 0,-11.961 -10.47,-23.07 -26.33,-23.07 -17.84,0 -26.06,9.684 -26.06,12.25 l 0.29,0.852 c 0.85,1.425 1.41,2.847 1.41,4.558 0,3.703 -2.83,7.121 -7.36,7.121 -3.68,0 -7.36,-2.281 -7.36,-7.976 0,-15.664 17.27,-27.34 39.08,-27.34 22.65,0 37.95,16.234 37.95,33.605" /><path
         id="path34"
         style="fill:#010101;fill-opacity:1;fill-rule:evenodd;stroke:none"
         d="m 1506.63,240.086 c 0,9.684 -5.95,17.375 -13.88,17.375 -6.8,0 -10.2,-5.414 -10.2,-10.254 0,-5.98 4.53,-10.254 9.91,-10.254 1.14,0 2.27,0.285 3.4,0.57 -0.85,-5.695 -4.53,-12.531 -13.31,-15.664 -1.41,-0.285 -4.25,-1.14 -4.25,-4.558 0,-2.563 2.84,-5.696 5.67,-5.696 4.81,0 22.66,9.114 22.66,28.481" /><path
         id="path36"
         style="fill:#010101;fill-opacity:1;fill-rule:evenodd;stroke:none"
         d="m 1718.18,272.555 c 0,5.41 -4.82,5.41 -7.09,5.41 l -13.59,0 0,64.648 c 0,5.981 -1.13,7.692 -7.36,7.692 l -4.25,0 c -4.25,0 -5.1,-0.285 -7.36,-3.703 l -40.78,-66.075 c -1.7,-2.277 -1.7,-2.847 -1.7,-5.98 0,-6.266 2.54,-7.121 7.36,-7.121 l 43.89,0 0,-19.934 -10.76,0 c -2.54,0 -7.08,0 -7.08,-5.41 0,-5.129 4.54,-5.129 7.08,-5.129 l 31.72,0 c 2.55,0 7.08,0 7.08,5.129 0,5.41 -4.53,5.41 -7.08,5.41 l -10.76,0 0,19.934 13.59,0 c 2.27,0 7.09,0 7.09,5.129 z m -30.88,5.41 -39.08,0 39.08,63.226 0,-63.226" /><path
         id="path38"
         style="fill:#010101;fill-opacity:1;fill-rule:evenodd;stroke:none"
         d="m 1805.4,292.203 c 0,5.699 -3.97,5.699 -6.51,5.699 -13.32,0 -23.23,3.418 -23.51,10.536 l 0,30.191 c 0,7.117 0,24.207 -34.55,24.207 -3.4,0 -7.36,0 -7.36,-5.41 0,-3.133 1.41,-5.414 4.81,-5.414 25.49,0 25.49,-6.266 25.49,-12.246 l 0,-29.332 c 0,-3.133 0,-12.532 11.04,-17.946 -11.04,-5.695 -11.04,-14.238 -11.04,-19.933 l 0,-21.078 c 0,-3.985 0,-10.536 -0.85,-11.961 -2.83,-6.832 -19.82,-6.832 -25.21,-6.832 -1.41,0 -4.24,-1.141 -4.24,-5.129 0,-4.84 3.96,-4.84 7.36,-4.84 9.35,0 32.85,0 34.55,18.512 l 0,28.48 c 0,8.828 0,11.106 5.38,13.953 4.81,2.563 10.48,3.418 15.86,3.418 5.38,0 8.78,0 8.78,5.125" /><path
         id="path40"
         style="fill:#ffffff;fill-opacity:1;fill-rule:evenodd;stroke:none"
         d="m 3466.09,140.977 -640.04,0 0,319.828 1279.78,0 0,-319.828 -639.74,0" /><g
         transform="scale(0.997183,1.00282)"
         id="g42"><path
           id="path44"
           style="fill:none;stroke:#010101;stroke-width:7.09796;stroke-linecap:butt;stroke-linejoin:round;stroke-miterlimit:10;stroke-dasharray:none;stroke-opacity:1"
           d="m 3475.59,140.581 -641.55,0 0,319.214 1283.11,0 0,-319.214 -641.56,0 z" /></g><path
         id="path46"
         style="fill:#010101;fill-opacity:1;fill-rule:evenodd;stroke:none"
         d="m 3132.76,227.27 c 0,2.847 -1.42,5.414 -4.53,5.414 -25.49,0 -25.49,6.265 -25.49,11.961 l 0,29.617 c 0,4.843 -0.85,13.101 -11.04,17.941 11.04,5.699 11.04,14.242 11.04,19.938 l 0,21.074 c 0,3.988 0,10.539 0.85,11.961 2.83,6.836 19.82,6.836 24.92,6.836 1.7,0 4.25,1.426 4.25,5.129 0,4.839 -3.68,4.839 -7.08,4.839 -8.5,0 -32.85,0 -34.55,-18.511 l 0,-28.481 c 0,-8.543 0,-10.535 -3.97,-13.101 -5.09,-3.418 -11.32,-4.27 -17.55,-4.27 -5.39,0 -8.79,0 -8.79,-5.129 0,-5.695 3.97,-5.695 6.52,-5.695 11.61,0 23.5,-2.848 23.79,-10.535 l 0,-30.192 c 0,-7.117 0,-24.207 34.55,-24.207 3.4,0 7.08,0 7.08,5.411" /><path
         id="path48"
         style="fill:#010101;fill-opacity:1;fill-rule:evenodd;stroke:none"
         d="m 3227.63,268.281 c 0,9.114 -5.1,21.93 -20.96,29.051 11.05,6.836 15.86,17.656 15.86,27.055 0,13.672 -13.31,25.347 -32.85,25.347 -19.82,0 -33.98,-8.828 -33.98,-22.214 0,-5.981 4.53,-7.688 7.36,-7.688 3.4,0 7.37,2.563 7.37,7.402 0,2.848 -1.7,4.844 -1.7,4.844 5.38,6.832 17.84,6.832 20.95,6.832 12.18,0 21.24,-6.547 21.24,-15.094 0,-5.41 -3.4,-20.789 -22.37,-20.789 -6.51,0 -9.35,-1.14 -10.19,-1.14 -3.69,-0.285 -4.54,-2.563 -4.54,-5.125 0,-5.41 3.97,-5.41 6.8,-5.41 l 8.5,0 c 18.68,0 26.9,-13.102 26.9,-23.071 0,-11.961 -10.48,-23.07 -26.34,-23.07 -17.84,0 -26.05,9.684 -26.05,12.25 l 0.28,0.852 c 0.85,1.425 1.42,2.847 1.42,4.558 0,3.703 -2.83,7.121 -7.37,7.121 -3.68,0 -7.36,-2.281 -7.36,-7.976 0,-15.664 17.28,-27.34 39.08,-27.34 22.66,0 37.95,16.234 37.95,33.605" /><path
         id="path50"
         style="fill:#010101;fill-opacity:1;fill-rule:evenodd;stroke:none"
         d="m 3295.6,240.086 c 0,9.684 -5.95,17.375 -13.88,17.375 -6.79,0 -10.19,-5.414 -10.19,-10.254 0,-5.98 4.53,-10.254 9.91,-10.254 1.13,0 2.26,0.285 3.4,0.57 -0.85,-5.695 -4.54,-12.531 -13.31,-15.664 -1.42,-0.285 -4.25,-1.14 -4.25,-4.558 0,-2.563 2.83,-5.696 5.66,-5.696 4.82,0 22.66,9.114 22.66,28.481" /><path
         id="path52"
         style="fill:#010101;fill-opacity:1;fill-rule:evenodd;stroke:none"
         d="m 3507.15,272.555 c 0,5.41 -4.81,5.41 -7.08,5.41 l -13.59,0 0,64.648 c 0,5.981 -1.14,7.692 -7.37,7.692 l -4.25,0 c -4.24,0 -5.09,-0.285 -7.36,-3.703 l -40.78,-66.075 c -1.7,-2.277 -1.7,-2.847 -1.7,-5.98 0,-6.266 2.55,-7.121 7.36,-7.121 l 43.9,0 0,-19.934 -10.76,0 c -2.55,0 -7.08,0 -7.08,-5.41 0,-5.129 4.53,-5.129 7.08,-5.129 l 31.72,0 c 2.55,0 7.08,0 7.08,5.129 0,5.41 -4.53,5.41 -7.08,5.41 l -10.76,0 0,19.934 13.59,0 c 2.27,0 7.08,0 7.08,5.129 z m -30.87,5.41 -39.08,0 39.08,63.226 0,-63.226" /><path
         id="path54"
         style="fill:#010101;fill-opacity:1;fill-rule:evenodd;stroke:none"
         d="m 3572.57,240.086 c 0,9.684 -5.95,17.375 -13.88,17.375 -6.8,0 -10.19,-5.414 -10.19,-10.254 0,-5.98 4.53,-10.254 9.91,-10.254 1.13,0 2.26,0.285 3.39,0.57 -0.84,-5.695 -4.53,-12.531 -13.3,-15.664 -1.42,-0.285 -4.25,-1.14 -4.25,-4.558 0,-2.563 2.83,-5.696 5.66,-5.696 4.82,0 22.66,9.114 22.66,28.481" /><path
         id="path56"
         style="fill:#010101;fill-opacity:1;fill-rule:evenodd;stroke:none"
         d="m 3780.15,271.414 c 0,18.227 -13.59,36.172 -34.26,36.172 -5.95,0 -13.88,-1.141 -21.53,-5.129 l 0,34.746 42.2,0 c 2.55,0 7.36,0 7.36,5.41 0,5.129 -4.81,5.129 -7.36,5.129 l -46.73,0 c -5.66,0 -7.08,-1.426 -7.08,-7.121 l 0,-48.418 c 0,-2.562 0,-7.117 5.38,-7.117 2.83,0 3.69,0.852 5.1,2.848 5.38,6.265 13.31,9.113 22.66,9.113 13.87,0 22.65,-12.817 22.65,-25.633 0,-14.809 -12.74,-26.203 -27.75,-26.203 -9.35,0 -18.97,4.559 -22.09,13.102 0.57,0.57 1.98,1.996 1.98,5.128 0,5.125 -4.25,7.403 -7.36,7.403 -1.42,0 -7.36,-0.852 -7.36,-7.973 0,-15.094 15,-28.195 34.83,-28.195 21.8,0 39.36,16.234 39.36,36.738" /><path
         id="path58"
         style="fill:#010101;fill-opacity:1;fill-rule:evenodd;stroke:none"
         d="m 3871.34,292.203 c 0,5.699 -3.96,5.699 -6.51,5.699 -13.31,0 -23.22,3.418 -23.51,10.536 l 0,30.191 c 0,7.117 0,24.207 -34.55,24.207 -3.39,0 -7.36,0 -7.36,-5.41 0,-3.133 1.42,-5.414 4.82,-5.414 25.48,0 25.48,-6.266 25.48,-12.246 l 0,-29.332 c 0,-3.133 0,-12.532 11.05,-17.946 -11.05,-5.695 -11.05,-14.238 -11.05,-19.933 l 0,-21.078 c 0,-3.985 0,-10.536 -0.85,-11.961 -2.83,-6.832 -19.82,-6.832 -25.2,-6.832 -1.42,0 -4.25,-1.141 -4.25,-5.129 0,-4.84 3.97,-4.84 7.36,-4.84 9.35,0 32.86,0 34.55,18.512 l 0,28.48 c 0,8.828 0,11.106 5.39,13.953 4.81,2.563 10.47,3.418 15.86,3.418 5.38,0 8.77,0 8.77,5.125" /><path
         id="path60"
         style="fill:#010101;fill-opacity:1;fill-rule:evenodd;stroke:none"
         d="m 162.273,98.2578 c 0,5.1252 -4.531,5.1252 -7.078,5.1252 -4.816,0 -8.215,0.285 -10.761,1.422 l 0,39.59 c 0,13.668 -10.196,28.195 -34.551,28.195 -7.649,0 -24.9221,0 -24.9221,-12.531 0,-4.844 3.3985,-7.407 7.3633,-7.407 0.8477,0 6.7969,0 7.0781,7.692 0,0.851 0.2852,1.136 3.9647,1.422 2.266,0.285 4.531,0.285 6.516,0.285 4.246,0 10.476,0 16.426,-4.555 6.23,-5.414 6.23,-10.539 6.23,-15.949 -10.48,0 -20.957,0 -32.004,-3.703 -9.0623,-3.133 -20.6717,-9.684 -20.6717,-22.215 0,-12.816 11.3281,-23.922 28.0347,-23.922 5.95,0 16.993,0.8516 26.34,7.4024 3.68,-5.9805 12.742,-5.9805 19.539,-5.9805 4.25,0 8.496,0 8.496,5.1289 z M 132.539,116.77 c 0,-4.274 0,-7.977 -7.363,-11.395 -6.231,-3.133 -14.727,-3.133 -15.293,-3.133 -10.4807,0 -18.1252,5.696 -18.1252,13.102 0,10.824 19.2582,17.09 40.7812,17.09 l 0,-15.664" /><path
         id="path62"
         style="fill:#010101;fill-opacity:1;fill-rule:evenodd;stroke:none"
         d="m 2376.9,285.086 c 0,22.5 -15.01,40.156 -33.7,40.156 -13.31,0 -21.53,-7.976 -23.23,-9.683 l 0,33.89 c 0,5.696 -1.13,7.406 -7.08,7.406 l -11.89,0 c -2.55,0 -7.08,0 -7.08,-5.128 0,-5.411 4.53,-5.411 7.08,-5.411 l 7.36,0 0,-92.843 c 0,-3.133 0,-7.407 5.95,-7.407 5.66,0 5.66,3.704 5.66,9.114 4.25,-4.84 11.05,-10.25 21.24,-10.25 18.98,0 35.69,17.371 35.69,40.156 z m -11.61,0 c 0,-17.375 -12.47,-29.621 -25.21,-29.621 -13.31,0 -20.11,15.379 -20.11,24.492 l 0,14.242 c 0,10.254 10.2,20.504 21.81,20.504 13.03,0 23.51,-13.101 23.51,-29.617" /><g
         transform="scale(0.997183,1.00282)"
         id="g64"><path
           id="path66"
           style="fill:none;stroke:#010101;stroke-width:7.38399982;stroke-linecap:butt;stroke-linejoin:round;stroke-miterlimit:10;stroke-dasharray:none;stroke-opacity:1"
           d="M 194.254,145.122 544.428,248.215" /></g><path
         id="path68"
         style="fill:#010101;fill-opacity:1;fill-rule:evenodd;stroke:none"
         d="m 621.906,271.984 -90.906,3.133 16.426,-54.965 74.48,51.832" /><g
         transform="scale(0.997183,1.00282)"
         id="g70"><path
           id="path72"
           style="fill:none;stroke:#010101;stroke-width:7.38399982;stroke-linecap:butt;stroke-linejoin:round;stroke-miterlimit:10;stroke-dasharray:none;stroke-opacity:1"
           d="M 186.302,453.262 542.438,350.739" /></g><path
         id="path74"
         style="fill:#010101;fill-opacity:1;fill-rule:evenodd;stroke:none"
         d="m 620.207,328.66 -75.047,51.832 -15.859,-55.535 90.906,3.703" /><g
         transform="scale(0.997183,1.00282)"
         id="g76"><path
           id="path78"
           style="fill:none;stroke:#010101;stroke-width:7.38399982;stroke-linecap:butt;stroke-linejoin:round;stroke-miterlimit:10;stroke-dasharray:none;stroke-opacity:1"
           d="m 2416.56,293.373 335.12,0" /></g><path
         id="path80"
         style="fill:#010101;fill-opacity:1;fill-rule:evenodd;stroke:none"
         d="m 2826.34,294.199 -86.1,28.766 0,-57.817 86.1,29.051" /></g></g></svg>