<?xml version="1.0" encoding="UTF-8" standalone="no"?>
<svg
   xmlns:dc="http://purl.org/dc/elements/1.1/"
   xmlns:cc="http://creativecommons.org/ns#"
   xmlns:rdf="http://www.w3.org/1999/02/22-rdf-syntax-ns#"
   xmlns:svg="http://www.w3.org/2000/svg"
   xmlns="http://www.w3.org/2000/svg"
   viewBox="0 0 513.75 131.25"
   height="131.25"
   width="513.75"
   xml:space="preserve"
   version="1.1"
   id="svg2"><metadata
     id="metadata8"><rdf:RDF><cc:Work
         rdf:about=""><dc:format>image/svg+xml</dc:format><dc:type
           rdf:resource="http://purl.org/dc/dcmitype/StillImage" /></cc:Work></rdf:RDF></metadata><defs
     id="defs6" /><g
     transform="matrix(1.25,0,0,-1.25,0,131.25)"
     id="g10"><g
       transform="scale(0.1,0.1)"
       id="g12"><path
         id="path14"
         style="fill:#010101;fill-opacity:1;fill-rule:evenodd;stroke:none"
         d="m 152.93,850.645 c 0,4.804 -4.532,4.804 -5.95,4.804 -4.246,0 -5.097,-1.414 -5.945,-3.957 -3.965,-9.894 -12.746,-11.023 -16.992,-11.023 -15.293,0 -28.3203,12.719 -28.3203,29.398 0,9.328 5.3793,29.969 28.8863,29.969 4.813,0 8.496,-0.285 10.196,-0.566 1.414,-0.286 1.414,-0.567 1.414,-1.415 0.566,-7.632 6.23,-7.632 7.363,-7.632 3.965,0 7.363,2.828 7.363,7.632 0,12.438 -18.406,12.438 -26.054,12.438 -30.8676,0 -40.7816,-25.16 -40.7816,-40.426 0,-21.765 16.7106,-39.859 38.2346,-39.859 24.07,0 30.586,17.808 30.586,20.637" /><path
         id="path16"
         style="fill:#ffffff;fill-opacity:1;fill-rule:evenodd;stroke:none"
         d="m 1261.66,544.48 -640.035,0 0,317.473 1279.785,0 0,-317.473 -639.75,0" /><g
         transform="scale(1.00088,0.999116)"
         id="g18"><path
           id="path20"
           style="fill:none;stroke:#010101;stroke-width:7.07136011;stroke-linecap:butt;stroke-linejoin:round;stroke-miterlimit:10;stroke-dasharray:none;stroke-opacity:1"
           d="m 1260.54,544.962 -639.464,0 0,318.035 1278.364,0 0,-318.035 -638.9,0 z" /></g><path
         id="path22"
         style="fill:#010101;fill-opacity:1;fill-rule:evenodd;stroke:none"
         d="m 789.844,630.137 c 0,2.828 -1.414,5.375 -4.531,5.375 -25.489,0 -25.489,6.218 -25.489,11.871 l 0,29.402 c 0,4.805 -0.847,13.004 -11.043,17.809 11.043,5.656 11.043,14.136 11.043,19.789 l 0,20.922 c 0,3.957 0,10.457 0.852,11.871 2.832,6.785 19.824,6.785 24.922,6.785 1.699,0 4.246,1.414 4.246,5.09 0,4.804 -3.68,4.804 -7.078,4.804 -8.496,0 -32.852,0 -34.551,-18.375 l 0,-28.269 c 0,-8.481 0,-10.461 -3.965,-13.004 -5.098,-3.394 -11.328,-4.242 -17.559,-4.242 -5.382,0 -8.781,0 -8.781,-5.09 0,-5.652 3.965,-5.652 6.516,-5.652 11.609,0 23.504,-2.828 23.789,-10.461 l 0,-29.965 c 0,-7.067 0,-24.031 34.551,-24.031 3.398,0 7.078,0 7.078,5.371" /><path
         id="path24"
         style="fill:#010101;fill-opacity:1;fill-rule:evenodd;stroke:none"
         d="m 877.922,644.84 c 0,5.371 -4.817,5.371 -7.363,5.371 l -15.86,0 0,94.137 c 0,2.828 0,7.632 -5.097,7.632 -3.118,0 -4.25,-1.695 -5.383,-4.238 -3.399,-7.633 -9.344,-17.246 -18.692,-18.094 -2.832,0 -6.511,-0.281 -6.511,-5.089 0,-2.825 1.699,-5.086 5.664,-5.086 10.195,0 17.84,7.632 18.406,7.914 l 0,-77.176 -15.859,0 c -2.547,0 -7.364,0 -7.364,-5.371 0,-5.09 4.817,-5.09 7.364,-5.09 l 43.332,0 c 2.546,0 7.363,0 7.363,5.09" /><path
         id="path26"
         style="fill:#010101;fill-opacity:1;fill-rule:evenodd;stroke:none"
         d="m 952.684,642.859 c 0,9.614 -5.946,17.246 -13.875,17.246 -6.797,0 -10.196,-5.371 -10.196,-10.179 0,-5.934 4.532,-10.176 9.91,-10.176 1.133,0 2.266,0.281 3.399,0.566 -0.848,-5.656 -4.531,-12.441 -13.309,-15.55 -1.418,-0.282 -4.25,-1.129 -4.25,-4.524 0,-2.543 2.832,-5.652 5.664,-5.652 4.817,0 22.657,9.047 22.657,28.269" /><path
         id="path28"
         style="fill:#010101;fill-opacity:1;fill-rule:evenodd;stroke:none"
         d="m 1160.27,647.102 0,3.675 c 0,3.391 0,7.633 -5.66,7.633 -5.95,0 -5.95,-3.961 -5.95,-8.199 l -43.33,0 34.27,29.117 c 2.54,2.262 20.67,17.527 20.67,37.598 0,20.355 -16.99,34.773 -39.36,34.773 -20.96,0 -34.84,-15.547 -34.84,-30.812 0,-7.352 6.52,-7.918 7.36,-7.918 3.4,0 7.37,2.547 7.37,7.351 0,3.391 -1.42,4.524 -2.27,5.09 2.55,9.61 10.76,15.828 21.24,15.828 15.3,0 28.89,-8.761 28.89,-24.312 0,-14.133 -10.76,-24.875 -20.39,-33.356 l -39.65,-34.207 c -1.98,-1.699 -2.55,-2.261 -2.55,-4.523 0,-5.09 5.1,-5.09 7.36,-5.09 l 62.87,0 c 3.97,1.133 3.97,4.805 3.97,7.352" /><path
         id="path30"
         style="fill:#010101;fill-opacity:1;fill-rule:evenodd;stroke:none"
         d="m 1229.66,642.859 c 0,9.614 -5.95,17.246 -13.88,17.246 -6.8,0 -10.2,-5.371 -10.2,-10.179 0,-5.934 4.53,-10.176 9.92,-10.176 1.13,0 2.26,0.281 3.39,0.566 -0.85,-5.656 -4.53,-12.441 -13.31,-15.55 -1.41,-0.282 -4.24,-1.129 -4.24,-4.524 0,-2.543 2.83,-5.652 5.66,-5.652 4.81,0 22.66,9.047 22.66,28.269" /><path
         id="path32"
         style="fill:#010101;fill-opacity:1;fill-rule:evenodd;stroke:none"
         d="m 1438.66,670.848 c 0,9.047 -5.1,21.765 -20.96,28.836 11.04,6.785 15.86,17.527 15.86,26.855 0,13.57 -13.31,25.16 -32.85,25.16 -19.83,0 -33.99,-8.761 -33.99,-22.051 0,-5.937 4.53,-7.632 7.37,-7.632 3.39,0 7.36,2.543 7.36,7.351 0,2.824 -1.7,4.805 -1.7,4.805 5.38,6.785 17.84,6.785 20.96,6.785 12.18,0 21.24,-6.504 21.24,-14.984 0,-5.371 -3.4,-20.637 -22.38,-20.637 -6.51,0 -9.34,-1.129 -10.19,-1.129 -3.68,-0.285 -4.53,-2.547 -4.53,-5.09 0,-5.371 3.96,-5.371 6.79,-5.371 l 8.5,0 c 18.69,0 26.9,-13.004 26.9,-22.898 0,-11.875 -10.47,-22.899 -26.33,-22.899 -17.84,0 -26.06,9.61 -26.06,12.156 l 0.29,0.848 c 0.85,1.414 1.41,2.828 1.41,4.524 0,3.675 -2.83,7.066 -7.36,7.066 -3.68,0 -7.36,-2.262 -7.36,-7.914 0,-15.551 17.27,-27.141 39.08,-27.141 22.65,0 37.95,16.114 37.95,33.36" /><path
         id="path34"
         style="fill:#010101;fill-opacity:1;fill-rule:evenodd;stroke:none"
         d="m 1506.63,642.859 c 0,9.614 -5.95,17.246 -13.88,17.246 -6.8,0 -10.2,-5.371 -10.2,-10.179 0,-5.934 4.53,-10.176 9.91,-10.176 1.14,0 2.27,0.281 3.4,0.566 -0.85,-5.656 -4.53,-12.441 -13.31,-15.55 -1.41,-0.282 -4.25,-1.129 -4.25,-4.524 0,-2.543 2.84,-5.652 5.67,-5.652 4.81,0 22.66,9.047 22.66,28.269" /><path
         id="path36"
         style="fill:#010101;fill-opacity:1;fill-rule:evenodd;stroke:none"
         d="m 1718.18,675.086 c 0,5.375 -4.82,5.375 -7.09,5.375 l -13.59,0 0,64.172 c 0,5.937 -1.13,7.633 -7.36,7.633 l -4.25,0 c -4.25,0 -5.1,-0.286 -7.36,-3.676 l -40.78,-65.586 c -1.7,-2.262 -1.7,-2.828 -1.7,-5.938 0,-6.218 2.54,-7.066 7.36,-7.066 l 43.89,0 0,-19.789 -10.76,0 c -2.54,0 -7.08,0 -7.08,-5.371 0,-5.09 4.54,-5.09 7.08,-5.09 l 31.72,0 c 2.55,0 7.08,0 7.08,5.09 0,5.371 -4.53,5.371 -7.08,5.371 l -10.76,0 0,19.789 13.59,0 c 2.27,0 7.09,0 7.09,5.086 z m -30.88,5.375 -39.08,0 39.08,62.758 0,-62.758" /><path
         id="path38"
         style="fill:#010101;fill-opacity:1;fill-rule:evenodd;stroke:none"
         d="m 1805.4,694.594 c 0,5.656 -3.97,5.656 -6.51,5.656 -13.32,0 -23.23,3.391 -23.51,10.457 l 0,29.969 c 0,7.066 0,24.027 -34.55,24.027 -3.4,0 -7.36,0 -7.36,-5.371 0,-3.109 1.41,-5.371 4.81,-5.371 25.49,0 25.49,-6.219 25.49,-12.156 l 0,-29.117 c 0,-3.11 0,-12.438 11.04,-17.813 -11.04,-5.652 -11.04,-14.133 -11.04,-19.789 l 0,-20.918 c 0,-3.957 0,-10.461 -0.85,-11.875 -2.83,-6.781 -19.82,-6.781 -25.21,-6.781 -1.41,0 -4.24,-1.133 -4.24,-5.09 0,-4.805 3.96,-4.805 7.36,-4.805 9.35,0 32.85,0 34.55,18.375 l 0,28.27 c 0,8.761 0,11.023 5.38,13.851 4.81,2.543 10.48,3.391 15.86,3.391 5.38,0 8.78,0 8.78,5.09" /><path
         id="path40"
         style="fill:#ffffff;fill-opacity:1;fill-rule:evenodd;stroke:none"
         d="m 3466.09,544.48 -640.04,0 0,317.473 1279.78,0 0,-317.473 -639.74,0" /><g
         transform="scale(1.00088,0.999116)"
         id="g42"><path
           id="path44"
           style="fill:none;stroke:#010101;stroke-width:7.07136011;stroke-linecap:butt;stroke-linejoin:round;stroke-miterlimit:10;stroke-dasharray:none;stroke-opacity:1"
           d="m 3462.74,544.962 -639.18,0 0,318.035 1278.37,0 0,-318.035 -639.19,0 z" /></g><path
         id="path46"
         style="fill:#010101;fill-opacity:1;fill-rule:evenodd;stroke:none"
         d="m 3132.76,630.137 c 0,2.828 -1.42,5.375 -4.53,5.375 -25.49,0 -25.49,6.218 -25.49,11.871 l 0,29.402 c 0,4.805 -0.85,13.004 -11.04,17.809 11.04,5.656 11.04,14.136 11.04,19.789 l 0,20.922 c 0,3.957 0,10.457 0.85,11.871 2.83,6.785 19.82,6.785 24.92,6.785 1.7,0 4.25,1.414 4.25,5.09 0,4.804 -3.68,4.804 -7.08,4.804 -8.5,0 -32.85,0 -34.55,-18.375 l 0,-28.269 c 0,-8.481 0,-10.461 -3.97,-13.004 -5.09,-3.394 -11.32,-4.242 -17.55,-4.242 -5.39,0 -8.79,0 -8.79,-5.09 0,-5.652 3.97,-5.652 6.52,-5.652 11.61,0 23.5,-2.828 23.79,-10.461 l 0,-29.965 c 0,-7.067 0,-24.031 34.55,-24.031 3.4,0 7.08,0 7.08,5.371" /><path
         id="path48"
         style="fill:#010101;fill-opacity:1;fill-rule:evenodd;stroke:none"
         d="m 3227.63,670.848 c 0,9.047 -5.1,21.765 -20.96,28.836 11.05,6.785 15.86,17.527 15.86,26.855 0,13.57 -13.31,25.16 -32.85,25.16 -19.82,0 -33.98,-8.761 -33.98,-22.051 0,-5.937 4.53,-7.632 7.36,-7.632 3.4,0 7.37,2.543 7.37,7.351 0,2.824 -1.7,4.805 -1.7,4.805 5.38,6.785 17.84,6.785 20.95,6.785 12.18,0 21.24,-6.504 21.24,-14.984 0,-5.371 -3.4,-20.637 -22.37,-20.637 -6.51,0 -9.35,-1.129 -10.19,-1.129 -3.69,-0.285 -4.54,-2.547 -4.54,-5.09 0,-5.371 3.97,-5.371 6.8,-5.371 l 8.5,0 c 18.68,0 26.9,-13.004 26.9,-22.898 0,-11.875 -10.48,-22.899 -26.34,-22.899 -17.84,0 -26.05,9.61 -26.05,12.156 l 0.28,0.848 c 0.85,1.414 1.42,2.828 1.42,4.524 0,3.675 -2.83,7.066 -7.37,7.066 -3.68,0 -7.36,-2.262 -7.36,-7.914 0,-15.551 17.28,-27.141 39.08,-27.141 22.66,0 37.95,16.114 37.95,33.36" /><path
         id="path50"
         style="fill:#010101;fill-opacity:1;fill-rule:evenodd;stroke:none"
         d="m 3295.6,642.859 c 0,9.614 -5.95,17.246 -13.88,17.246 -6.79,0 -10.19,-5.371 -10.19,-10.179 0,-5.934 4.53,-10.176 9.91,-10.176 1.13,0 2.26,0.281 3.4,0.566 -0.85,-5.656 -4.54,-12.441 -13.31,-15.55 -1.42,-0.282 -4.25,-1.129 -4.25,-4.524 0,-2.543 2.83,-5.652 5.66,-5.652 4.82,0 22.66,9.047 22.66,28.269" /><path
         id="path52"
         style="fill:#010101;fill-opacity:1;fill-rule:evenodd;stroke:none"
         d="m 3507.15,675.086 c 0,5.375 -4.81,5.375 -7.08,5.375 l -13.59,0 0,64.172 c 0,5.937 -1.14,7.633 -7.37,7.633 l -4.25,0 c -4.24,0 -5.09,-0.286 -7.36,-3.676 l -40.78,-65.586 c -1.7,-2.262 -1.7,-2.828 -1.7,-5.938 0,-6.218 2.55,-7.066 7.36,-7.066 l 43.9,0 0,-19.789 -10.76,0 c -2.55,0 -7.08,0 -7.08,-5.371 0,-5.09 4.53,-5.09 7.08,-5.09 l 31.72,0 c 2.55,0 7.08,0 7.08,5.09 0,5.371 -4.53,5.371 -7.08,5.371 l -10.76,0 0,19.789 13.59,0 c 2.27,0 7.08,0 7.08,5.086 z m -30.87,5.375 -39.08,0 39.08,62.758 0,-62.758" /><path
         id="path54"
         style="fill:#010101;fill-opacity:1;fill-rule:evenodd;stroke:none"
         d="m 3572.57,642.859 c 0,9.614 -5.95,17.246 -13.88,17.246 -6.8,0 -10.19,-5.371 -10.19,-10.179 0,-5.934 4.53,-10.176 9.91,-10.176 1.13,0 2.26,0.281 3.39,0.566 -0.84,-5.656 -4.53,-12.441 -13.3,-15.55 -1.42,-0.282 -4.25,-1.129 -4.25,-4.524 0,-2.543 2.83,-5.652 5.66,-5.652 4.82,0 22.66,9.047 22.66,28.269" /><path
         id="path56"
         style="fill:#010101;fill-opacity:1;fill-rule:evenodd;stroke:none"
         d="m 3780.15,673.957 c 0,18.094 -13.59,35.902 -34.26,35.902 -5.95,0 -13.88,-1.129 -21.53,-5.089 l 0,34.492 42.2,0 c 2.55,0 7.36,0 7.36,5.371 0,5.086 -4.81,5.086 -7.36,5.086 l -46.73,0 c -5.66,0 -7.08,-1.41 -7.08,-7.067 l 0,-48.058 c 0,-2.543 0,-7.067 5.38,-7.067 2.83,0 3.69,0.848 5.1,2.828 5.38,6.219 13.31,9.043 22.66,9.043 13.87,0 22.65,-12.718 22.65,-25.441 0,-14.699 -12.74,-26.008 -27.75,-26.008 -9.35,0 -18.97,4.524 -22.09,13.004 0.57,0.567 1.98,1.981 1.98,5.09 0,5.086 -4.25,7.348 -7.36,7.348 -1.42,0 -7.36,-0.848 -7.36,-7.914 0,-14.985 15,-27.989 34.83,-27.989 21.8,0 39.36,16.114 39.36,36.469" /><path
         id="path58"
         style="fill:#010101;fill-opacity:1;fill-rule:evenodd;stroke:none"
         d="m 3871.34,694.594 c 0,5.656 -3.96,5.656 -6.51,5.656 -13.31,0 -23.22,3.391 -23.51,10.457 l 0,29.969 c 0,7.066 0,24.027 -34.55,24.027 -3.39,0 -7.36,0 -7.36,-5.371 0,-3.109 1.42,-5.371 4.82,-5.371 25.48,0 25.48,-6.219 25.48,-12.156 l 0,-29.117 c 0,-3.11 0,-12.438 11.05,-17.813 -11.05,-5.652 -11.05,-14.133 -11.05,-19.789 l 0,-20.918 c 0,-3.957 0,-10.461 -0.85,-11.875 -2.83,-6.781 -19.82,-6.781 -25.2,-6.781 -1.42,0 -4.25,-1.133 -4.25,-5.09 0,-4.805 3.97,-4.805 7.36,-4.805 9.35,0 32.86,0 34.55,18.375 l 0,28.27 c 0,8.761 0,11.023 5.39,13.851 4.81,2.543 10.47,3.391 15.86,3.391 5.38,0 8.77,0 8.77,5.09" /><path
         id="path60"
         style="fill:#010101;fill-opacity:1;fill-rule:evenodd;stroke:none"
         d="m 162.273,483.418 c 0,5.086 -4.531,5.086 -7.078,5.086 -4.816,0 -8.215,0.285 -10.761,1.414 l 0,39.297 c 0,13.57 -10.196,27.988 -34.551,27.988 -7.649,0 -24.9221,0 -24.9221,-12.441 0,-4.805 3.3985,-7.348 7.3633,-7.348 0.8477,0 6.7969,0 7.0781,7.633 0,0.848 0.2852,1.129 3.9647,1.414 2.266,0.281 4.531,0.281 6.516,0.281 4.246,0 10.476,0 16.426,-4.523 6.23,-5.371 6.23,-10.461 6.23,-15.832 -10.48,0 -20.957,0 -32.004,-3.676 -9.0623,-3.109 -20.6717,-9.609 -20.6717,-22.051 0,-12.719 11.3281,-23.746 28.0347,-23.746 5.95,0 16.993,0.848 26.34,7.352 3.68,-5.938 12.742,-5.938 19.539,-5.938 4.25,0 8.496,0 8.496,5.09 z m -29.734,18.375 c 0,-4.242 0,-7.914 -7.363,-11.309 -6.231,-3.109 -14.727,-3.109 -15.293,-3.109 -10.4807,0 -18.1252,5.652 -18.1252,13.004 0,10.742 19.2582,16.961 40.7812,16.961 l 0,-15.547" /><path
         id="path62"
         style="fill:#010101;fill-opacity:1;fill-rule:evenodd;stroke:none"
         d="m 2376.9,687.527 c 0,22.332 -15.01,39.86 -33.7,39.86 -13.31,0 -21.53,-7.914 -23.23,-9.61 l 0,33.641 c 0,5.652 -1.13,7.348 -7.08,7.348 l -11.89,0 c -2.55,0 -7.08,0 -7.08,-5.086 0,-5.371 4.53,-5.371 7.08,-5.371 l 7.36,0 0,-92.161 c 0,-3.109 0,-7.351 5.95,-7.351 5.66,0 5.66,3.676 5.66,9.047 4.25,-4.805 11.05,-10.18 21.24,-10.18 18.98,0 35.69,17.246 35.69,39.863 z m -11.61,0 c 0,-17.246 -12.47,-29.402 -25.21,-29.402 -13.31,0 -20.11,15.266 -20.11,24.313 l 0,14.136 c 0,10.176 10.2,20.352 21.81,20.352 13.03,0 23.51,-13.004 23.51,-29.399" /><g
         transform="scale(1.00088,0.999116)"
         id="g64"><path
           id="path66"
           style="fill:none;stroke:#010101;stroke-width:7.35669994;stroke-linecap:butt;stroke-linejoin:round;stroke-miterlimit:10;stroke-dasharray:none;stroke-opacity:1"
           d="M 193.536,549.489 542.415,652.201" /></g><path
         id="path68"
         style="fill:#010101;fill-opacity:1;fill-rule:evenodd;stroke:none"
         d="m 621.906,674.805 -90.906,3.109 16.426,-54.844 74.48,51.735" /><g
         transform="scale(1.00088,0.999116)"
         id="g70"><path
           id="path72"
           style="fill:none;stroke:#010101;stroke-width:7.35669994;stroke-linecap:butt;stroke-linejoin:round;stroke-miterlimit:10;stroke-dasharray:none;stroke-opacity:1"
           d="M 185.613,856.491 540.433,754.346" /></g><path
         id="path74"
         style="fill:#010101;fill-opacity:1;fill-rule:evenodd;stroke:none"
         d="m 620.207,730.781 -75.047,51.449 -15.859,-55.125 90.906,3.676" /><g
         transform="scale(1.00088,0.999116)"
         id="g76"><path
           id="path78"
           style="fill:none;stroke:#010101;stroke-width:7.35669994;stroke-linecap:butt;stroke-linejoin:round;stroke-miterlimit:10;stroke-dasharray:none;stroke-opacity:1"
           d="m 2407.62,697.19 333.88,0" /></g><path
         id="path80"
         style="fill:#010101;fill-opacity:1;fill-rule:evenodd;stroke:none"
         d="m 2826.34,696.574 -86.1,28.551 0,-57.105 86.1,28.554" /><path
         id="path82"
         style="fill:#ffffff;fill-opacity:1;fill-rule:evenodd;stroke:none"
         d="m 1261.66,7.63281 -640.035,0 0,317.47219 1279.785,0 0,-317.47219 -639.75,0" /><g
         transform="scale(1.00088,0.999116)"
         id="g84"><path
           id="path86"
           style="fill:none;stroke:#01ae01;stroke-width:14.42560005;stroke-linecap:butt;stroke-linejoin:round;stroke-miterlimit:10;stroke-dasharray:none;stroke-opacity:1"
           d="m 1260.54,7.63956 -639.464,0 0,318.03444 1278.364,0 0,-318.03444 -638.9,0 z" /></g><path
         id="path88"
         style="fill:#01ae01;fill-opacity:1;fill-rule:evenodd;stroke:none"
         d="m 1066.82,93.293 c 0,2.8242 -1.42,5.3711 -4.53,5.3711 -25.49,0 -25.49,6.2189 -25.49,11.8709 l 0,29.403 c 0,4.804 -0.85,13.003 -11.05,17.808 11.05,5.656 11.05,14.137 11.05,19.789 l 0,20.922 c 0,3.957 0,10.457 0.84,11.871 2.84,6.785 19.83,6.785 24.93,6.785 1.7,0 4.25,1.414 4.25,5.09 0,4.805 -3.69,4.805 -7.09,4.805 -8.49,0 -32.85,0 -34.55,-18.375 l 0,-28.27 c 0,-8.48 0,-10.461 -3.96,-13.004 -5.1,-3.394 -11.33,-4.242 -17.56,-4.242 -5.379,0 -8.777,0 -8.777,-5.086 0,-5.656 3.965,-5.656 6.507,-5.656 11.62,0 23.51,-2.828 23.79,-10.461 l 0,-29.965 c 0,-7.066 0,-24.031 34.55,-24.031 3.4,0 7.09,0 7.09,5.375" /><path
         id="path90"
         style="fill:#01ae01;fill-opacity:1;fill-rule:evenodd;stroke:none"
         d="m 1161.69,134 c 0,9.047 -5.1,21.77 -20.96,28.836 11.04,6.785 15.86,17.527 15.86,26.855 0,13.571 -13.31,25.161 -32.85,25.161 -19.83,0 -33.99,-8.762 -33.99,-22.051 0,-5.938 4.54,-7.633 7.37,-7.633 3.4,0 7.36,2.543 7.36,7.352 0,2.828 -1.7,4.804 -1.7,4.804 5.38,6.785 17.84,6.785 20.96,6.785 12.17,0 21.24,-6.504 21.24,-14.984 0,-5.371 -3.4,-20.637 -22.37,-20.637 -6.52,0 -9.35,-1.129 -10.2,-1.129 -3.68,-0.285 -4.53,-2.546 -4.53,-5.089 0,-5.372 3.96,-5.372 6.8,-5.372 l 8.49,0 c 18.69,0 26.9,-13.003 26.9,-22.898 0,-11.875 -10.47,-22.898 -26.33,-22.898 -17.85,0 -26.06,9.613 -26.06,12.156 l 0.28,0.847 c 0.86,1.415 1.42,2.829 1.42,4.524 0,3.676 -2.83,7.066 -7.36,7.066 -3.68,0 -7.36,-2.261 -7.36,-7.914 0,-15.551 17.27,-27.14 39.08,-27.14 22.65,0 37.95,16.113 37.95,33.359" /><path
         id="path92"
         style="fill:#01ae01;fill-opacity:1;fill-rule:evenodd;stroke:none"
         d="m 1229.66,106.012 c 0,9.613 -5.95,17.246 -13.88,17.246 -6.8,0 -10.2,-5.371 -10.2,-10.18 0,-5.933 4.53,-10.176 9.92,-10.176 1.13,0 2.26,0.282 3.39,0.567 -0.85,-5.6565 -4.53,-12.4377 -13.31,-15.551 -1.41,-0.2813 -4.24,-1.1289 -4.24,-4.5196 0,-2.5468 2.83,-5.6562 5.66,-5.6562 4.81,0 22.66,9.0469 22.66,28.2698" /><path
         id="path94"
         style="fill:#01ae01;fill-opacity:1;fill-rule:evenodd;stroke:none"
         d="m 1441.2,138.242 c 0,5.371 -4.81,5.371 -7.07,5.371 l -13.6,0 0,64.172 c 0,5.938 -1.13,7.633 -7.36,7.633 l -4.25,0 c -4.25,0 -5.1,-0.285 -7.36,-3.676 l -40.78,-65.586 c -1.7,-2.261 -1.7,-2.828 -1.7,-5.937 0,-6.219 2.55,-7.067 7.36,-7.067 l 43.9,0 0,-19.789 -10.77,0 c -2.54,0 -7.07,0 -7.07,-5.371 0,-5.09 4.53,-5.09 7.07,-5.09 l 31.72,0 c 2.55,0 7.08,0 7.08,5.09 0,5.371 -4.53,5.371 -7.08,5.371 l -10.76,0 0,19.789 13.6,0 c 2.26,0 7.07,0 7.07,5.09 z m -30.86,5.371 -39.09,0 39.09,62.758 0,-62.758" /><path
         id="path96"
         style="fill:#01ae01;fill-opacity:1;fill-rule:evenodd;stroke:none"
         d="m 1528.43,157.746 c 0,5.656 -3.97,5.656 -6.51,5.656 -13.31,0 -23.22,3.391 -23.51,10.457 l 0,29.969 c 0,7.067 0,24.027 -34.55,24.027 -3.4,0 -7.36,0 -7.36,-5.371 0,-3.109 1.41,-5.371 4.81,-5.371 25.49,0 25.49,-6.218 25.49,-12.156 l 0,-29.117 c 0,-3.11 0,-12.438 11.04,-17.809 -11.04,-5.656 -11.04,-14.136 -11.04,-19.789 l 0,-20.922 c 0,-3.957 0,-10.461 -0.85,-11.875 -2.83,-6.7809 -19.82,-6.7809 -25.2,-6.7809 -1.42,0 -4.25,-1.1328 -4.25,-5.0899 0,-4.8047 3.96,-4.8047 7.36,-4.8047 9.35,0 32.85,0 34.55,18.3755 l 0,28.269 c 0,8.762 0,11.024 5.38,13.852 4.82,2.543 10.48,3.39 15.86,3.39 5.38,0 8.78,0 8.78,5.09" /><g
         transform="scale(1.00088,0.999116)"
         id="g98"><path
           id="path100"
           style="fill:none;stroke:#01ae01;stroke-width:14.71339989;stroke-linecap:butt;stroke-linejoin:round;stroke-miterlimit:10;stroke-dasharray:none;stroke-opacity:1"
           d="M 192.123,490.637 543.828,219.569" /></g><path
         id="path102"
         style="fill:#01ae01;fill-opacity:1;fill-rule:evenodd;stroke:none"
         d="m 621.906,160.008 -60.32,89.051 -41.629,-53.996 101.949,-35.055" /><g
         transform="scale(1.00088,0.999116)"
         id="g104"><path
           id="path106"
           style="fill:none;stroke:#ff3434;stroke-width:14.42560005;stroke-linecap:butt;stroke-linejoin:round;stroke-miterlimit:10;stroke-dasharray:none;stroke-opacity:1"
           d="M 328.788,667.762 452.721,543.828" /></g><g
         transform="scale(1.00088,0.999116)"
         id="g108"><path
           id="path110"
           style="fill:none;stroke:#ff3434;stroke-width:14.42560005;stroke-linecap:butt;stroke-linejoin:round;stroke-miterlimit:10;stroke-dasharray:none;stroke-opacity:1"
           d="m 368.116,521.195 45.273,169.204" /></g></g></g></svg>