<?xml version="1.0" encoding="UTF-8" standalone="no"?>
<svg
   xmlns:dc="http://purl.org/dc/elements/1.1/"
   xmlns:cc="http://creativecommons.org/ns#"
   xmlns:rdf="http://www.w3.org/1999/02/22-rdf-syntax-ns#"
   xmlns:svg="http://www.w3.org/2000/svg"
   xmlns="http://www.w3.org/2000/svg"
   viewBox="0 0 513.75 83.75"
   height="83.75"
   width="513.75"
   xml:space="preserve"
   version="1.1"
   id="svg2"><metadata
     id="metadata8"><rdf:RDF><cc:Work
         rdf:about=""><dc:format>image/svg+xml</dc:format><dc:type
           rdf:resource="http://purl.org/dc/dcmitype/StillImage" /></cc:Work></rdf:RDF></metadata><defs
     id="defs6" /><g
     transform="matrix(1.25,0,0,-1.25,0,83.75)"
     id="g10"><g
       transform="scale(0.1,0.1)"
       id="g12"><path
         id="path14"
         style="fill:#010101;fill-opacity:1;fill-rule:evenodd;stroke:none"
         d="m 152.93,469.316 c 0,4.852 -4.532,4.852 -5.95,4.852 -4.246,0 -5.097,-1.426 -5.945,-3.992 -3.965,-9.988 -12.746,-11.129 -16.992,-11.129 -15.293,0 -28.3203,12.84 -28.3203,29.672 0,9.414 5.3793,30.242 28.8863,30.242 4.813,0 8.496,-0.285 10.196,-0.57 1.414,-0.286 1.414,-0.571 1.414,-1.426 0.566,-7.703 6.23,-7.703 7.363,-7.703 3.965,0 7.363,2.851 7.363,7.703 0,12.551 -18.406,12.551 -26.054,12.551 -30.8676,0 -40.7816,-25.391 -40.7816,-40.797 0,-21.969 16.7106,-40.227 38.2346,-40.227 24.07,0 30.586,17.973 30.586,20.824" /><path
         id="path16"
         style="fill:#ffffff;fill-opacity:1;fill-rule:evenodd;stroke:none"
         d="m 1261.66,46.2188 -640.035,0 0,557.1912 1279.785,0 0,-557.1912 -639.75,0" /><g
         transform="scale(0.996306,1.00369)"
         id="g18"><path
           id="path20"
           style="fill:none;stroke:#010101;stroke-width:7.10424995;stroke-linecap:butt;stroke-linejoin:round;stroke-miterlimit:10;stroke-dasharray:none;stroke-opacity:1"
           d="m 1266.33,46.3328 -642.4,0 0,555.1412 1284.24,0 0,-555.1412 -641.84,0 z" /></g><path
         id="path22"
         style="fill:#010101;fill-opacity:1;fill-rule:evenodd;stroke:none"
         d="m 789.844,372.031 c 0,2.852 -1.414,5.422 -4.531,5.422 -25.489,0 -25.489,6.274 -25.489,11.981 l 0,29.671 c 0,4.852 -0.847,13.125 -11.043,17.973 11.043,5.707 11.043,14.266 11.043,19.973 l 0,21.113 c 0,3.992 0,10.555 0.852,11.981 2.832,6.847 19.824,6.847 24.922,6.847 1.699,0 4.246,1.426 4.246,5.137 0,4.848 -3.68,4.848 -7.078,4.848 -8.496,0 -32.852,0 -34.551,-18.543 l 0,-28.532 c 0,-8.558 0,-10.554 -3.965,-13.121 -5.098,-3.426 -11.328,-4.281 -17.559,-4.281 -5.382,0 -8.781,0 -8.781,-5.137 0,-5.703 3.965,-5.703 6.516,-5.703 11.609,0 23.504,-2.855 23.789,-10.558 l 0,-30.243 c 0,-7.132 0,-24.25 34.551,-24.25 3.398,0 7.078,0 7.078,5.422" /><path
         id="path24"
         style="fill:#010101;fill-opacity:1;fill-rule:evenodd;stroke:none"
         d="m 877.922,386.867 c 0,5.422 -4.817,5.422 -7.363,5.422 l -15.86,0 0,95.004 c 0,2.852 0,7.703 -5.097,7.703 -3.118,0 -4.25,-1.711 -5.383,-4.281 -3.399,-7.703 -9.344,-17.402 -18.692,-18.258 -2.832,0 -6.511,-0.285 -6.511,-5.137 0,-2.851 1.699,-5.132 5.664,-5.132 10.195,0 17.84,7.703 18.406,7.988 l 0,-77.887 -15.859,0 c -2.547,0 -7.364,0 -7.364,-5.422 0,-5.137 4.817,-5.137 7.364,-5.137 l 43.332,0 c 2.546,0 7.363,0 7.363,5.137" /><path
         id="path26"
         style="fill:#010101;fill-opacity:1;fill-rule:evenodd;stroke:none"
         d="m 952.684,384.871 c 0,9.699 -5.946,17.402 -13.875,17.402 -6.797,0 -10.196,-5.421 -10.196,-10.269 0,-5.992 4.532,-10.274 9.91,-10.274 1.133,0 2.266,0.286 3.399,0.571 -0.848,-5.703 -4.531,-12.551 -13.309,-15.692 -1.418,-0.285 -4.25,-1.14 -4.25,-4.562 0,-2.57 2.832,-5.707 5.664,-5.707 4.817,0 22.657,9.129 22.657,28.531" /><path
         id="path28"
         style="fill:#010101;fill-opacity:1;fill-rule:evenodd;stroke:none"
         d="m 1160.27,389.148 0,3.711 c 0,3.422 0,7.704 -5.66,7.704 -5.95,0 -5.95,-3.997 -5.95,-8.274 l -43.33,0 34.27,29.383 c 2.54,2.285 20.67,17.691 20.67,37.945 0,20.543 -16.99,35.094 -39.36,35.094 -20.96,0 -34.84,-15.691 -34.84,-31.098 0,-7.418 6.52,-7.988 7.36,-7.988 3.4,0 7.37,2.566 7.37,7.418 0,3.422 -1.42,4.562 -2.27,5.133 2.55,9.703 10.76,15.976 21.24,15.976 15.3,0 28.89,-8.843 28.89,-24.535 0,-14.265 -10.76,-25.105 -20.39,-33.664 l -39.65,-34.523 c -1.98,-1.711 -2.55,-2.282 -2.55,-4.563 0,-5.137 5.1,-5.137 7.36,-5.137 l 62.87,0 c 3.97,1.141 3.97,4.852 3.97,7.418" /><path
         id="path30"
         style="fill:#010101;fill-opacity:1;fill-rule:evenodd;stroke:none"
         d="m 1229.66,384.871 c 0,9.699 -5.95,17.402 -13.88,17.402 -6.8,0 -10.2,-5.421 -10.2,-10.269 0,-5.992 4.53,-10.274 9.92,-10.274 1.13,0 2.26,0.286 3.39,0.571 -0.85,-5.703 -4.53,-12.551 -13.31,-15.692 -1.41,-0.285 -4.24,-1.14 -4.24,-4.562 0,-2.57 2.83,-5.707 5.66,-5.707 4.81,0 22.66,9.129 22.66,28.531" /><path
         id="path32"
         style="fill:#010101;fill-opacity:1;fill-rule:evenodd;stroke:none"
         d="m 1438.66,413.113 c 0,9.129 -5.1,21.969 -20.96,29.102 11.04,6.848 15.86,17.687 15.86,27.101 0,13.696 -13.31,25.395 -32.85,25.395 -19.83,0 -33.99,-8.844 -33.99,-22.254 0,-5.992 4.53,-7.703 7.37,-7.703 3.39,0 7.36,2.566 7.36,7.418 0,2.851 -1.7,4.848 -1.7,4.848 5.38,6.847 17.84,6.847 20.96,6.847 12.18,0 21.24,-6.558 21.24,-15.121 0,-5.418 -3.4,-20.824 -22.38,-20.824 -6.51,0 -9.34,-1.141 -10.19,-1.141 -3.68,-0.285 -4.53,-2.57 -4.53,-5.136 0,-5.422 3.96,-5.422 6.79,-5.422 l 8.5,0 c 18.69,0 26.9,-13.121 26.9,-23.11 0,-11.98 -10.47,-23.109 -26.33,-23.109 -17.84,0 -26.06,9.703 -26.06,12.269 l 0.29,0.856 c 0.85,1.426 1.41,2.851 1.41,4.566 0,3.707 -2.83,7.129 -7.36,7.129 -3.68,0 -7.36,-2.281 -7.36,-7.988 0,-15.691 17.27,-27.387 39.08,-27.387 22.65,0 37.95,16.262 37.95,33.664" /><path
         id="path34"
         style="fill:#010101;fill-opacity:1;fill-rule:evenodd;stroke:none"
         d="m 1506.63,384.871 c 0,9.699 -5.95,17.402 -13.88,17.402 -6.8,0 -10.2,-5.421 -10.2,-10.269 0,-5.992 4.53,-10.274 9.91,-10.274 1.14,0 2.27,0.286 3.4,0.571 -0.85,-5.703 -4.53,-12.551 -13.31,-15.692 -1.41,-0.285 -4.25,-1.14 -4.25,-4.562 0,-2.57 2.84,-5.707 5.67,-5.707 4.81,0 22.66,9.129 22.66,28.531" /><path
         id="path36"
         style="fill:#010101;fill-opacity:1;fill-rule:evenodd;stroke:none"
         d="m 1718.18,417.395 c 0,5.418 -4.82,5.418 -7.09,5.418 l -13.59,0 0,64.765 c 0,5.992 -1.13,7.703 -7.36,7.703 l -4.25,0 c -4.25,0 -5.1,-0.285 -7.36,-3.711 l -40.78,-66.187 c -1.7,-2.281 -1.7,-2.856 -1.7,-5.992 0,-6.278 2.54,-7.133 7.36,-7.133 l 43.89,0 0,-19.969 -10.76,0 c -2.54,0 -7.08,0 -7.08,-5.422 0,-5.137 4.54,-5.137 7.08,-5.137 l 31.72,0 c 2.55,0 7.08,0 7.08,5.137 0,5.422 -4.53,5.422 -7.08,5.422 l -10.76,0 0,19.969 13.59,0 c 2.27,0 7.09,0 7.09,5.137 z m -30.88,5.418 -39.08,0 39.08,63.339 0,-63.339" /><path
         id="path38"
         style="fill:#010101;fill-opacity:1;fill-rule:evenodd;stroke:none"
         d="m 1805.4,437.078 c 0,5.707 -3.97,5.707 -6.51,5.707 -13.32,0 -23.23,3.426 -23.51,10.555 l 0,30.242 c 0,7.133 0,24.25 -34.55,24.25 -3.4,0 -7.36,0 -7.36,-5.418 0,-3.141 1.41,-5.422 4.81,-5.422 25.49,0 25.49,-6.277 25.49,-12.269 l 0,-29.383 c 0,-3.141 0,-12.555 11.04,-17.977 -11.04,-5.703 -11.04,-14.261 -11.04,-19.968 l 0,-21.114 c 0,-3.992 0,-10.554 -0.85,-11.98 -2.83,-6.848 -19.82,-6.848 -25.21,-6.848 -1.41,0 -4.24,-1.144 -4.24,-5.137 0,-4.851 3.96,-4.851 7.36,-4.851 9.35,0 32.85,0 34.55,18.547 l 0,28.527 c 0,8.848 0,11.129 5.38,13.981 4.81,2.57 10.48,3.425 15.86,3.425 5.38,0 8.78,0 8.78,5.133" /><path
         id="path40"
         style="fill:#01ae01;fill-opacity:1;fill-rule:evenodd;stroke:none"
         d="m 1066.82,130.383 c 0,2.851 -1.42,5.422 -4.53,5.422 -25.49,0 -25.49,6.273 -25.49,11.98 l 0,29.672 c 0,4.852 -0.85,13.125 -11.05,17.973 11.05,5.707 11.05,14.265 11.05,19.972 l 0,21.114 c 0,3.992 0,10.554 0.84,11.98 2.84,6.848 19.83,6.848 24.93,6.848 1.7,0 4.25,1.426 4.25,5.136 0,4.848 -3.69,4.848 -7.09,4.848 -8.49,0 -32.85,0 -34.55,-18.543 l 0,-28.531 c 0,-8.559 0,-10.555 -3.96,-13.125 -5.1,-3.422 -11.33,-4.277 -17.56,-4.277 -5.379,0 -8.777,0 -8.777,-5.137 0,-5.703 3.965,-5.703 6.507,-5.703 11.62,0 23.51,-2.856 23.79,-10.559 l 0,-30.242 c 0,-7.133 0,-24.25 34.55,-24.25 3.4,0 7.09,0 7.09,5.422" /><path
         id="path42"
         style="fill:#01ae01;fill-opacity:1;fill-rule:evenodd;stroke:none"
         d="m 1161.69,171.465 c 0,9.129 -5.1,21.969 -20.96,29.101 11.04,6.848 15.86,17.688 15.86,27.102 0,13.695 -13.31,25.395 -32.85,25.395 -19.83,0 -33.99,-8.848 -33.99,-22.254 0,-5.993 4.54,-7.704 7.37,-7.704 3.4,0 7.36,2.567 7.36,7.418 0,2.852 -1.7,4.848 -1.7,4.848 5.38,6.848 17.84,6.848 20.96,6.848 12.17,0 21.24,-6.563 21.24,-15.121 0,-5.418 -3.4,-20.825 -22.37,-20.825 -6.52,0 -9.35,-1.144 -10.2,-1.144 -3.68,-0.285 -4.53,-2.566 -4.53,-5.133 0,-5.422 3.96,-5.422 6.8,-5.422 l 8.49,0 c 18.69,0 26.9,-13.125 26.9,-23.109 0,-11.981 -10.47,-23.11 -26.33,-23.11 -17.85,0 -26.06,9.7 -26.06,12.27 l 0.28,0.855 c 0.86,1.426 1.42,2.852 1.42,4.563 0,3.711 -2.83,7.133 -7.36,7.133 -3.68,0 -7.36,-2.281 -7.36,-7.988 0,-15.692 17.27,-27.387 39.08,-27.387 22.65,0 37.95,16.262 37.95,33.664" /><path
         id="path44"
         style="fill:#01ae01;fill-opacity:1;fill-rule:evenodd;stroke:none"
         d="m 1229.66,143.219 c 0,9.703 -5.95,17.406 -13.88,17.406 -6.8,0 -10.2,-5.422 -10.2,-10.273 0,-5.989 4.53,-10.27 9.92,-10.27 1.13,0 2.26,0.285 3.39,0.57 -0.85,-5.707 -4.53,-12.55 -13.31,-15.691 -1.41,-0.285 -4.24,-1.141 -4.24,-4.563 0,-2.57 2.83,-5.707 5.66,-5.707 4.81,0 22.66,9.129 22.66,28.528" /><path
         id="path46"
         style="fill:#01ae01;fill-opacity:1;fill-rule:evenodd;stroke:none"
         d="m 1441.2,175.746 c 0,5.418 -4.81,5.418 -7.07,5.418 l -13.6,0 0,64.766 c 0,5.988 -1.13,7.703 -7.36,7.703 l -4.25,0 c -4.25,0 -5.1,-0.285 -7.36,-3.711 l -40.78,-66.188 c -1.7,-2.285 -1.7,-2.855 -1.7,-5.992 0,-6.277 2.55,-7.133 7.36,-7.133 l 43.9,0 0,-19.972 -10.77,0 c -2.54,0 -7.07,0 -7.07,-5.418 0,-5.137 4.53,-5.137 7.07,-5.137 l 31.72,0 c 2.55,0 7.08,0 7.08,5.137 0,5.418 -4.53,5.418 -7.08,5.418 l -10.76,0 0,19.972 13.6,0 c 2.26,0 7.07,0 7.07,5.137 z m -30.86,5.418 -39.09,0 39.09,63.34 0,-63.34" /><path
         id="path48"
         style="fill:#01ae01;fill-opacity:1;fill-rule:evenodd;stroke:none"
         d="m 1528.43,195.43 c 0,5.707 -3.97,5.707 -6.51,5.707 -13.31,0 -23.22,3.422 -23.51,10.554 l 0,30.243 c 0,7.132 0,24.25 -34.55,24.25 -3.4,0 -7.36,0 -7.36,-5.418 0,-3.141 1.41,-5.422 4.81,-5.422 25.49,0 25.49,-6.278 25.49,-12.27 l 0,-29.383 c 0,-3.14 0,-12.554 11.04,-17.976 -11.04,-5.703 -11.04,-14.266 -11.04,-19.969 l 0,-21.113 c 0,-3.996 0,-10.555 -0.85,-11.985 -2.83,-6.843 -19.82,-6.843 -25.2,-6.843 -1.42,0 -4.25,-1.145 -4.25,-5.137 0,-4.852 3.96,-4.852 7.36,-4.852 9.35,0 32.85,0 34.55,18.547 l 0,28.528 c 0,8.843 0,11.129 5.38,13.98 4.82,2.567 10.48,3.426 15.86,3.426 5.38,0 8.78,0 8.78,5.133" /><path
         id="path50"
         style="fill:#ffffff;fill-opacity:1;fill-rule:evenodd;stroke:none"
         d="m 3466.09,160.055 -640.04,0 0,320.675 1279.78,0 0,-320.675 -639.74,0" /><g
         transform="scale(0.996306,1.00369)"
         id="g52"><path
           id="path54"
           style="fill:none;stroke:#010101;stroke-width:7.10424995;stroke-linecap:butt;stroke-linejoin:round;stroke-miterlimit:10;stroke-dasharray:none;stroke-opacity:1"
           d="m 3478.65,159.75 -642.12,0 0,319.211 1284.24,0 0,-319.211 -642.12,0 z" /></g><path
         id="path56"
         style="fill:#010101;fill-opacity:1;fill-rule:evenodd;stroke:none"
         d="m 3132.76,246.5 c 0,2.852 -1.42,5.418 -4.53,5.418 -25.49,0 -25.49,6.277 -25.49,11.984 l 0,29.672 c 0,4.848 -0.85,13.125 -11.04,17.973 11.04,5.707 11.04,14.266 11.04,19.973 l 0,21.109 c 0,3.996 0,10.559 0.85,11.984 2.83,6.848 19.82,6.848 24.92,6.848 1.7,0 4.25,1.426 4.25,5.137 0,4.847 -3.68,4.847 -7.08,4.847 -8.5,0 -32.85,0 -34.55,-18.543 l 0,-28.531 c 0,-8.558 0,-10.555 -3.97,-13.125 -5.09,-3.422 -11.32,-4.277 -17.55,-4.277 -5.39,0 -8.79,0 -8.79,-5.137 0,-5.707 3.97,-5.707 6.52,-5.707 11.61,0 23.5,-2.852 23.79,-10.555 l 0,-30.242 c 0,-7.133 0,-24.25 34.55,-24.25 3.4,0 7.08,0 7.08,5.422" /><path
         id="path58"
         style="fill:#010101;fill-opacity:1;fill-rule:evenodd;stroke:none"
         d="m 3227.63,287.582 c 0,9.129 -5.1,21.969 -20.96,29.102 11.05,6.847 15.86,17.687 15.86,27.101 0,13.695 -13.31,25.395 -32.85,25.395 -19.82,0 -33.98,-8.848 -33.98,-22.254 0,-5.992 4.53,-7.703 7.36,-7.703 3.4,0 7.37,2.566 7.37,7.418 0,2.851 -1.7,4.847 -1.7,4.847 5.38,6.848 17.84,6.848 20.95,6.848 12.18,0 21.24,-6.563 21.24,-15.121 0,-5.418 -3.4,-20.824 -22.37,-20.824 -6.51,0 -9.35,-1.145 -10.19,-1.145 -3.69,-0.285 -4.54,-2.566 -4.54,-5.133 0,-5.422 3.97,-5.422 6.8,-5.422 l 8.5,0 c 18.68,0 26.9,-13.125 26.9,-23.109 0,-11.98 -10.48,-23.109 -26.34,-23.109 -17.84,0 -26.05,9.699 -26.05,12.269 l 0.28,0.856 c 0.85,1.425 1.42,2.851 1.42,4.562 0,3.711 -2.83,7.133 -7.37,7.133 -3.68,0 -7.36,-2.281 -7.36,-7.988 0,-15.692 17.28,-27.387 39.08,-27.387 22.66,0 37.95,16.262 37.95,33.664" /><path
         id="path60"
         style="fill:#010101;fill-opacity:1;fill-rule:evenodd;stroke:none"
         d="m 3295.6,259.336 c 0,9.703 -5.95,17.406 -13.88,17.406 -6.79,0 -10.19,-5.422 -10.19,-10.273 0,-5.989 4.53,-10.27 9.91,-10.27 1.13,0 2.26,0.285 3.4,0.571 -0.85,-5.707 -4.54,-12.555 -13.31,-15.692 -1.42,-0.285 -4.25,-1.14 -4.25,-4.566 0,-2.567 2.83,-5.703 5.66,-5.703 4.82,0 22.66,9.129 22.66,28.527" /><path
         id="path62"
         style="fill:#010101;fill-opacity:1;fill-rule:evenodd;stroke:none"
         d="m 3507.15,291.863 c 0,5.418 -4.81,5.418 -7.08,5.418 l -13.59,0 0,64.766 c 0,5.988 -1.14,7.703 -7.37,7.703 l -4.25,0 c -4.24,0 -5.09,-0.285 -7.36,-3.711 l -40.78,-66.187 c -1.7,-2.286 -1.7,-2.856 -1.7,-5.993 0,-6.277 2.55,-7.132 7.36,-7.132 l 43.9,0 0,-19.973 -10.76,0 c -2.55,0 -7.08,0 -7.08,-5.418 0,-5.137 4.53,-5.137 7.08,-5.137 l 31.72,0 c 2.55,0 7.08,0 7.08,5.137 0,5.418 -4.53,5.418 -7.08,5.418 l -10.76,0 0,19.973 13.59,0 c 2.27,0 7.08,0 7.08,5.136 z m -30.87,5.418 -39.08,0 39.08,63.336 0,-63.336" /><path
         id="path64"
         style="fill:#010101;fill-opacity:1;fill-rule:evenodd;stroke:none"
         d="m 3572.57,259.336 c 0,9.703 -5.95,17.406 -13.88,17.406 -6.8,0 -10.19,-5.422 -10.19,-10.273 0,-5.989 4.53,-10.27 9.91,-10.27 1.13,0 2.26,0.285 3.39,0.571 -0.84,-5.707 -4.53,-12.555 -13.3,-15.692 -1.42,-0.285 -4.25,-1.14 -4.25,-4.566 0,-2.567 2.83,-5.703 5.66,-5.703 4.82,0 22.66,9.129 22.66,28.527" /><path
         id="path66"
         style="fill:#010101;fill-opacity:1;fill-rule:evenodd;stroke:none"
         d="m 3780.15,290.719 c 0,18.261 -13.59,36.234 -34.26,36.234 -5.95,0 -13.88,-1.14 -21.53,-5.137 l 0,34.809 42.2,0 c 2.55,0 7.36,0 7.36,5.422 0,5.133 -4.81,5.133 -7.36,5.133 l -46.73,0 c -5.66,0 -7.08,-1.426 -7.08,-7.133 l 0,-48.5 c 0,-2.567 0,-7.133 5.38,-7.133 2.83,0 3.69,0.856 5.1,2.856 5.38,6.273 13.31,9.128 22.66,9.128 13.87,0 22.65,-12.839 22.65,-25.679 0,-14.832 -12.74,-26.246 -27.75,-26.246 -9.35,0 -18.97,4.566 -22.09,13.125 0.57,0.57 1.98,1.996 1.98,5.132 0,5.137 -4.25,7.418 -7.36,7.418 -1.42,0 -7.36,-0.855 -7.36,-7.988 0,-15.121 15,-28.242 34.83,-28.242 21.8,0 39.36,16.262 39.36,36.801" /><path
         id="path68"
         style="fill:#010101;fill-opacity:1;fill-rule:evenodd;stroke:none"
         d="m 3871.34,311.547 c 0,5.707 -3.96,5.707 -6.51,5.707 -13.31,0 -23.22,3.422 -23.51,10.555 l 0,30.242 c 0,7.133 0,24.25 -34.55,24.25 -3.39,0 -7.36,0 -7.36,-5.418 0,-3.141 1.42,-5.422 4.82,-5.422 25.48,0 25.48,-6.277 25.48,-12.27 l 0,-29.386 c 0,-3.137 0,-12.551 11.05,-17.973 -11.05,-5.707 -11.05,-14.266 -11.05,-19.969 l 0,-21.113 c 0,-3.996 0,-10.555 -0.85,-11.984 -2.83,-6.848 -19.82,-6.848 -25.2,-6.848 -1.42,0 -4.25,-1.141 -4.25,-5.133 0,-4.851 3.97,-4.851 7.36,-4.851 9.35,0 32.86,0 34.55,18.546 l 0,28.528 c 0,8.844 0,11.129 5.39,13.98 4.81,2.567 10.47,3.422 15.86,3.422 5.38,0 8.77,0 8.77,5.137" /><path
         id="path70"
         style="fill:#010101;fill-opacity:1;fill-rule:evenodd;stroke:none"
         d="m 162.273,98.4297 c 0,5.1333 -4.531,5.1333 -7.078,5.1333 -4.816,0 -8.215,0.285 -10.761,1.429 l 0,39.656 c 0,13.692 -10.196,28.243 -34.551,28.243 -7.649,0 -24.9221,0 -24.9221,-12.551 0,-4.852 3.3985,-7.418 7.3633,-7.418 0.8477,0 6.7969,0 7.0781,7.703 0,0.855 0.2852,1.141 3.9647,1.426 2.266,0.285 4.531,0.285 6.516,0.285 4.246,0 10.476,0 16.426,-4.566 6.23,-5.418 6.23,-10.555 6.23,-15.977 -10.48,0 -20.957,0 -32.004,-3.707 -9.0623,-3.141 -20.6717,-9.699 -20.6717,-22.254 0,-12.84 11.3281,-23.9648 28.0347,-23.9648 5.95,0 16.993,0.8555 26.34,7.418 3.68,-5.9922 12.742,-5.9922 19.539,-5.9922 4.25,0 8.496,0 8.496,5.1367 z m -29.734,18.5433 c 0,-4.278 0,-7.989 -7.363,-11.41 -6.231,-3.141 -14.727,-3.141 -15.293,-3.141 -10.4807,0 -18.1252,5.707 -18.1252,13.125 0,10.84 19.2582,17.117 40.7812,17.117 l 0,-15.691" /><path
         id="path72"
         style="fill:#010101;fill-opacity:1;fill-rule:evenodd;stroke:none"
         d="m 2376.9,304.414 c 0,22.539 -15.01,40.227 -33.7,40.227 -13.31,0 -21.53,-7.989 -23.23,-9.7 l 0,33.954 c 0,5.703 -1.13,7.418 -7.08,7.418 l -11.89,0 c -2.55,0 -7.08,0 -7.08,-5.137 0,-5.422 4.53,-5.422 7.08,-5.422 l 7.36,0 0,-93.008 c 0,-3.137 0,-7.418 5.95,-7.418 5.66,0 5.66,3.711 5.66,9.129 4.25,-4.848 11.05,-10.269 21.24,-10.269 18.98,0 35.69,17.402 35.69,40.226 z m -11.61,0 c 0,-17.402 -12.47,-29.672 -25.21,-29.672 -13.31,0 -20.11,15.406 -20.11,24.539 l 0,14.262 c 0,10.273 10.2,20.543 21.81,20.543 13.03,0 23.51,-13.125 23.51,-29.672" /><g
         transform="scale(0.996306,1.00369)"
         id="g74"><path
           id="path76"
           style="fill:none;stroke:#010101;stroke-width:7.39050007;stroke-linecap:butt;stroke-linejoin:round;stroke-miterlimit:10;stroke-dasharray:none;stroke-opacity:1"
           d="M 194.425,164.011 544.907,267.197" /></g><path
         id="path78"
         style="fill:#010101;fill-opacity:1;fill-rule:evenodd;stroke:none"
         d="m 621.906,291.578 -90.906,3.137 16.426,-55.348 74.48,52.211" /><g
         transform="scale(0.996306,1.00369)"
         id="g80"><path
           id="path82"
           style="fill:none;stroke:#010101;stroke-width:7.39050007;stroke-linecap:butt;stroke-linejoin:round;stroke-miterlimit:10;stroke-dasharray:none;stroke-opacity:1"
           d="M 186.466,472.707 542.916,370.094" /></g><path
         id="path84"
         style="fill:#010101;fill-opacity:1;fill-rule:evenodd;stroke:none"
         d="m 620.207,348.352 -75.047,51.925 -15.859,-55.636 90.906,3.711" /><g
         transform="scale(0.996306,1.00369)"
         id="g86"><path
           id="path88"
           style="fill:none;stroke:#010101;stroke-width:7.39050007;stroke-linecap:butt;stroke-linejoin:round;stroke-miterlimit:10;stroke-dasharray:none;stroke-opacity:1"
           d="m 2418.68,312.673 335.42,0" /></g><path
         id="path90"
         style="fill:#010101;fill-opacity:1;fill-rule:evenodd;stroke:none"
         d="m 2826.34,313.828 -86.1,28.817 0,-57.915 86.1,29.098" /><g
         transform="scale(0.996306,1.00369)"
         id="g92"><path
           id="path94"
           style="fill:none;stroke:#ff3434;stroke-width:14.49269962;stroke-linecap:butt;stroke-linejoin:round;stroke-miterlimit:10;stroke-dasharray:none;stroke-opacity:1"
           d="m 706.932,445.421 1122.498,0" /></g></g></g></svg>