<?xml version="1.0" encoding="UTF-8" standalone="no"?>
<svg
   xmlns:dc="http://purl.org/dc/elements/1.1/"
   xmlns:cc="http://creativecommons.org/ns#"
   xmlns:rdf="http://www.w3.org/1999/02/22-rdf-syntax-ns#"
   xmlns:svg="http://www.w3.org/2000/svg"
   xmlns="http://www.w3.org/2000/svg"
   viewBox="0 0 466.25 250"
   height="250"
   width="466.25"
   xml:space="preserve"
   version="1.1"
   id="svg2"><metadata
     id="metadata8"><rdf:RDF><cc:Work
         rdf:about=""><dc:format>image/svg+xml</dc:format><dc:type
           rdf:resource="http://purl.org/dc/dcmitype/StillImage" /></cc:Work></rdf:RDF></metadata><defs
     id="defs6" /><g
     transform="matrix(1.25,0,0,-1.25,0,250)"
     id="g10"><g
       transform="scale(0.1,0.1)"
       id="g12"><path
         id="path14"
         style="fill:#ffd321;fill-opacity:1;fill-rule:evenodd;stroke:none"
         d="m 372.652,1199.78 -164.207,0 0,327.31 328.125,0 0,-327.31 -163.918,0" /><g
         transform="scale(1.00124,0.998764)"
         id="g16"><path
           id="path18"
           style="fill:none;stroke:#010101;stroke-width:7.99997807;stroke-linecap:butt;stroke-linejoin:round;stroke-miterlimit:10;stroke-dasharray:none;stroke-opacity:1"
           d="m 371.908,1201.26 -164.001,0 0,328.01 327.72,0 0,-328.01 -163.719,0 z" /></g><path
         id="path20"
         style="fill:#010101;fill-opacity:1;fill-rule:evenodd;stroke:none"
         d="m 378.891,1396.39 -27.512,-42.71 27.512,0 0,42.71 z m -2.836,9.34 13.613,0 0,-52.05 11.344,0 0,-9.05 -11.344,0 0,-18.96 -10.777,0 0,18.96 -36.301,0 0,10.46 33.465,50.64" /><path
         id="path22"
         style="fill:#ffd321;fill-opacity:1;fill-rule:evenodd;stroke:none"
         d="m 372.652,872.18 -164.207,0 0,327.88 328.125,0 0,-327.88 -163.918,0" /><g
         transform="scale(1.00124,0.998764)"
         id="g24"><path
           id="path26"
           style="fill:none;stroke:#010101;stroke-width:7.99997807;stroke-linecap:butt;stroke-linejoin:round;stroke-miterlimit:10;stroke-dasharray:none;stroke-opacity:1"
           d="m 371.908,873.259 -164.001,0 0,328.291 327.72,0 0,-328.291 -163.719,0 z" /></g><path
         id="path28"
         style="fill:#010101;fill-opacity:1;fill-rule:evenodd;stroke:none"
         d="m 381.727,1041.64 c 5.386,-1.13 9.359,-3.4 12.476,-7.07 2.836,-3.4 4.254,-7.93 4.254,-13.02 0,-7.92 -2.836,-14.14 -8.223,-18.39 -5.39,-4.238 -13.046,-6.504 -22.972,-6.504 -3.403,0 -7.09,0.285 -10.492,1.133 -3.688,0.566 -7.375,1.414 -11.063,2.831 l 0,10.47 c 3.121,-1.7 6.242,-3.12 9.926,-3.96 3.406,-0.86 7.375,-1.42 11.062,-1.42 6.805,0 12.196,1.42 15.598,3.96 3.687,2.83 5.387,6.79 5.387,11.88 0,4.81 -1.7,8.49 -5.102,11.32 -3.121,2.54 -7.66,3.96 -13.613,3.96 l -9.36,0 0,8.77 9.641,0 c 5.391,0 9.359,1.13 12.195,3.11 2.836,2.26 4.254,5.38 4.254,9.34 0,3.96 -1.418,7.35 -4.254,9.33 -3.117,2.26 -7.089,3.4 -12.476,3.4 -3.121,0 -6.242,-0.29 -9.645,-0.85 -3.402,-0.85 -7.09,-1.7 -11.058,-3.11 l 0,9.61 c 3.968,1.14 7.941,1.98 11.625,2.55 3.406,0.57 6.808,0.85 9.926,0.85 8.226,0 14.75,-1.98 19.57,-5.66 4.82,-3.68 7.09,-8.77 7.09,-14.99 0,-4.53 -1.133,-8.21 -3.688,-11.32 -2.551,-3.11 -6.238,-5.09 -11.058,-6.22" /><path
         id="path30"
         style="fill:#ffd321;fill-opacity:1;fill-rule:evenodd;stroke:none"
         d="m 372.652,544.867 -164.207,0 0,327.313 328.125,0 0,-327.313 -163.918,0" /><g
         transform="scale(1.00124,0.998764)"
         id="g32"><path
           id="path34"
           style="fill:none;stroke:#010101;stroke-width:7.99997807;stroke-linecap:butt;stroke-linejoin:round;stroke-miterlimit:10;stroke-dasharray:none;stroke-opacity:1"
           d="m 371.908,545.541 -164.001,0 0,327.718 327.72,0 0,-327.718 -163.719,0 z" /></g><path
         id="path36"
         style="fill:#010101;fill-opacity:1;fill-rule:evenodd;stroke:none"
         d="m 350.813,679.809 17.867,0 0,61.105 -19.285,-3.961 0,9.902 19.285,3.961 10.777,0 0,-71.007 17.867,0 0,-9.051 -46.511,0 0,9.051" /><path
         id="path38"
         style="fill:#ffffff;fill-opacity:1;fill-rule:evenodd;stroke:none"
         d="m 1029.18,1199.78 -163.918,0 0,327.31 328.128,0 0,-327.31 -164.21,0" /><g
         transform="scale(1.00124,0.998764)"
         id="g40"><path
           id="path42"
           style="fill:none;stroke:#010101;stroke-width:7.99997807;stroke-linecap:butt;stroke-linejoin:round;stroke-miterlimit:10;stroke-dasharray:none;stroke-opacity:1"
           d="m 1027.91,1201.26 -163.997,0 0,328.01 328.007,0 0,-328.01 -164.01,0 z" /></g><path
         id="path44"
         style="fill:#010101;fill-opacity:1;fill-rule:evenodd;stroke:none"
         d="m 958.566,1376.03 9.07813,0 0,29.7031 -9.07813,0 0,-29.7031 z" /><path
         id="path46"
         style="fill:#010101;fill-opacity:1;fill-rule:evenodd;stroke:none"
         d="m 1005.93,1405.73 52.18,0 0,-8.2 -41.97,-62.81 43.11,0 0,-9.05 -54.46,0 0,8.21 40.84,62.8 -39.7,0 0,9.05" /><path
         id="path48"
         style="fill:#010101;fill-opacity:1;fill-rule:evenodd;stroke:none"
         d="m 1090.73,1376.03 9.0742,0 0,29.7031 -9.0742,0 0,-29.7031 z" /><path
         id="path50"
         style="fill:#ffffff;fill-opacity:1;fill-rule:evenodd;stroke:none"
         d="m 1029.18,872.18 -163.918,0 0,327.88 328.128,0 0,-327.88 -164.21,0" /><g
         transform="scale(1.00124,0.998764)"
         id="g52"><path
           id="path54"
           style="fill:none;stroke:#010101;stroke-width:7.99997807;stroke-linecap:butt;stroke-linejoin:round;stroke-miterlimit:10;stroke-dasharray:none;stroke-opacity:1"
           d="m 1027.91,873.259 -163.997,0 0,328.291 328.007,0 0,-328.291 -164.01,0 z" /></g><path
         id="path56"
         style="fill:#010101;fill-opacity:1;fill-rule:evenodd;stroke:none"
         d="m 1007.35,1007.41 17.86,0 0,61.1 -19.28,-3.96 0,9.9 19.28,3.96 10.78,0 0,-71 17.87,0 0,-9.055 -46.51,0 0,9.055" /><path
         id="path58"
         style="fill:#ffffff;fill-opacity:1;fill-rule:evenodd;stroke:none"
         d="m 1029.18,544.867 -163.918,0 0,327.313 328.128,0 0,-327.313 -164.21,0" /><g
         transform="scale(1.00124,0.998764)"
         id="g60"><path
           id="path62"
           style="fill:none;stroke:#010101;stroke-width:7.99997807;stroke-linecap:butt;stroke-linejoin:round;stroke-miterlimit:10;stroke-dasharray:none;stroke-opacity:1"
           d="m 1027.91,545.541 -163.997,0 0,327.718 328.007,0 0,-327.718 -164.01,0 z" /></g><path
         id="path64"
         style="fill:#010101;fill-opacity:1;fill-rule:evenodd;stroke:none"
         d="m 1035.42,741.48 -27.51,-42.718 27.51,0 0,42.718 z m -2.83,9.336 13.61,0 0,-52.054 11.34,0 0,-9.051 -11.34,0 0,-18.953 -10.78,0 0,18.953 -36.299,0 0,10.465 33.469,50.64" /><path
         id="path66"
         style="fill:#ffffff;fill-opacity:1;fill-rule:evenodd;stroke:none"
         d="m 1357.59,1199.78 -164.48,0 0,327.31 328.69,0 0,-327.31 -164.21,0" /><g
         transform="scale(1.00124,0.998764)"
         id="g68"><path
           id="path70"
           style="fill:none;stroke:#010101;stroke-width:7.99997807;stroke-linecap:butt;stroke-linejoin:round;stroke-miterlimit:10;stroke-dasharray:none;stroke-opacity:1"
           d="m 1355.92,1201.26 -164.29,0 0,328.01 328.29,0 0,-328.01 -164,0 z" /></g><path
         id="path72"
         style="fill:#010101;fill-opacity:1;fill-rule:evenodd;stroke:none"
         d="m 1286.69,1376.03 9.0781,0 0,29.7031 -9.0781,0 0,-29.7031 z" /><path
         id="path74"
         style="fill:#010101;fill-opacity:1;fill-rule:evenodd;stroke:none"
         d="m 1328.95,1405.73 14.46,0 13.9,-40.74 14.18,40.74 14.46,0 0,-80.06 -9.92,0 0,70.72 -14.47,-42.15 -8.22,0 -14.46,42.15 0,-70.72 -9.93,0 0,80.06" /><path
         id="path76"
         style="fill:#010101;fill-opacity:1;fill-rule:evenodd;stroke:none"
         d="m 1418.85,1376.03 9.0742,0 0,29.7031 -9.0742,0 0,-29.7031 z" /><path
         id="path78"
         style="fill:#ffffff;fill-opacity:1;fill-rule:evenodd;stroke:none"
         d="m 1357.59,872.18 -164.48,0 0,327.88 328.69,0 0,-327.88 -164.21,0" /><g
         transform="scale(1.00124,0.998764)"
         id="g80"><path
           id="path82"
           style="fill:none;stroke:#010101;stroke-width:7.99997807;stroke-linecap:butt;stroke-linejoin:round;stroke-miterlimit:10;stroke-dasharray:none;stroke-opacity:1"
           d="m 1355.92,873.259 -164.29,0 0,328.291 328.29,0 0,-328.291 -164,0 z" /></g><path
         id="path84"
         style="fill:#010101;fill-opacity:1;fill-rule:evenodd;stroke:none"
         d="m 1363.83,1069.08 -27.51,-42.72 27.51,0 0,42.72 z m -2.83,9.33 13.61,0 0,-52.05 11.34,0 0,-9.05 -11.34,0 0,-18.955 -10.78,0 0,18.955 -36.3,0 0,10.47 33.47,50.63" /><path
         id="path86"
         style="fill:#ffffff;fill-opacity:1;fill-rule:evenodd;stroke:none"
         d="m 1357.59,544.867 -164.48,0 0,327.313 328.69,0 0,-327.313 -164.21,0" /><g
         transform="scale(1.00124,0.998764)"
         id="g88"><path
           id="path90"
           style="fill:none;stroke:#010101;stroke-width:7.99997807;stroke-linecap:butt;stroke-linejoin:round;stroke-miterlimit:10;stroke-dasharray:none;stroke-opacity:1"
           d="m 1355.92,545.541 -164.29,0 0,327.718 328.29,0 0,-327.718 -164,0 z" /></g><path
         id="path92"
         style="fill:#010101;fill-opacity:1;fill-rule:evenodd;stroke:none"
         d="m 1357.31,743.742 c -5.67,0 -9.93,-2.828 -12.76,-8.203 -2.84,-5.656 -4.26,-13.859 -4.26,-24.894 0,-11.032 1.42,-19.239 4.26,-24.895 2.83,-5.375 7.09,-8.203 12.76,-8.203 5.67,0 9.92,2.828 12.76,8.203 2.84,5.656 4.25,13.863 4.25,24.895 0,11.035 -1.41,19.238 -4.25,24.894 -2.84,5.375 -7.09,8.203 -12.76,8.203 z m 0,8.488 c 9.08,0 15.88,-3.675 20.7,-10.75 4.82,-7.07 7.09,-17.257 7.09,-30.835 0,-13.579 -2.27,-23.762 -7.09,-30.836 -4.82,-7.075 -11.62,-10.75 -20.7,-10.75 -9.08,0 -15.88,3.675 -20.7,10.75 -4.82,7.074 -7.09,17.257 -7.09,30.836 0,13.578 2.27,23.765 7.09,30.835 4.82,7.075 11.62,10.75 20.7,10.75" /><path
         id="path94"
         style="fill:#ffffff;fill-opacity:1;fill-rule:evenodd;stroke:none"
         d="m 701.059,1199.78 -164.204,0 0,327.31 328.407,0 0,-327.31 -164.203,0" /><g
         transform="scale(1.00124,0.998764)"
         id="g96"><path
           id="path98"
           style="fill:none;stroke:#010101;stroke-width:7.99997807;stroke-linecap:butt;stroke-linejoin:round;stroke-miterlimit:10;stroke-dasharray:none;stroke-opacity:1"
           d="m 699.913,1201.26 -164.005,0 0,328.01 328.005,0 0,-328.01 -164,0 z" /></g><path
         id="path100"
         style="fill:#010101;fill-opacity:1;fill-rule:evenodd;stroke:none"
         d="m 630.16,1376.03 9.07422,0 0,29.7031 -9.07422,0 0,-29.7031 z" /><path
         id="path102"
         style="fill:#010101;fill-opacity:1;fill-rule:evenodd;stroke:none"
         d="m 701.059,1396.11 -11.625,-41.02 22.968,0 -11.343,41.02 z m -6.524,9.62 13.047,0 24.672,-80.06 -11.344,0 -5.953,20.65 -28.078,0 -5.672,-20.65 -11.344,0 24.672,80.06" /><path
         id="path104"
         style="fill:#010101;fill-opacity:1;fill-rule:evenodd;stroke:none"
         d="m 762.316,1376.03 9.07422,0 0,29.7031 -9.07422,0 0,-29.7031 z" /><path
         id="path106"
         style="fill:#ffffff;fill-opacity:1;fill-rule:evenodd;stroke:none"
         d="m 701.059,872.18 -164.204,0 0,327.88 328.407,0 0,-327.88 -164.203,0" /><g
         transform="scale(1.00124,0.998764)"
         id="g108"><path
           id="path110"
           style="fill:none;stroke:#010101;stroke-width:7.99997807;stroke-linecap:butt;stroke-linejoin:round;stroke-miterlimit:10;stroke-dasharray:none;stroke-opacity:1"
           d="m 699.913,873.259 -164.005,0 0,328.291 328.005,0 0,-328.291 -164,0 z" /></g><path
         id="path112"
         style="fill:#010101;fill-opacity:1;fill-rule:evenodd;stroke:none"
         d="m 700.777,1071.34 c -5.672,0 -9.925,-2.83 -12.765,-8.2 -2.836,-5.66 -4.254,-13.86 -4.254,-24.9 0,-11.03 1.418,-19.24 4.254,-24.89 2.84,-5.38 7.093,-8.21 12.765,-8.21 5.672,0 9.926,2.83 12.762,8.21 2.836,5.65 4.254,13.86 4.254,24.89 0,11.04 -1.418,19.24 -4.254,24.9 -2.836,5.37 -7.09,8.2 -12.762,8.2 z m 0,8.49 c 9.075,0 15.879,-3.68 20.7,-10.75 4.824,-7.07 7.093,-17.26 7.093,-30.84 0,-13.58 -2.269,-23.76 -7.093,-30.83 -4.821,-7.07 -11.625,-10.754 -20.7,-10.754 -9.078,0 -15.882,3.684 -20.703,10.754 -4.824,7.07 -7.09,17.25 -7.09,30.83 0,13.58 2.266,23.77 7.09,30.84 4.821,7.07 11.625,10.75 20.703,10.75" /><path
         id="path114"
         style="fill:#ffffff;fill-opacity:1;fill-rule:evenodd;stroke:none"
         d="m 701.059,544.867 -164.204,0 0,327.313 328.407,0 0,-327.313 -164.203,0" /><g
         transform="scale(1.00124,0.998764)"
         id="g116"><path
           id="path118"
           style="fill:none;stroke:#010101;stroke-width:7.99997807;stroke-linecap:butt;stroke-linejoin:round;stroke-miterlimit:10;stroke-dasharray:none;stroke-opacity:1"
           d="m 699.913,545.541 -164.005,0 0,327.718 328.005,0 0,-327.718 -164,0 z" /></g><path
         id="path120"
         style="fill:#010101;fill-opacity:1;fill-rule:evenodd;stroke:none"
         d="m 686.594,679.809 38.004,0 0,-9.051 -51.047,0 0,9.051 c 4.254,4.242 9.64,9.902 17.015,17.257 7.09,7.071 11.344,11.598 13.329,13.86 3.402,3.961 5.957,7.074 7.375,9.902 1.418,2.547 1.984,5.375 1.984,7.922 0,4.242 -1.418,7.641 -4.539,10.469 -2.836,2.547 -6.805,3.961 -11.625,3.961 -3.402,0 -7.09,-0.567 -10.777,-1.7 -3.973,-1.414 -7.942,-3.113 -12.196,-5.656 l 0,11.031 c 4.254,1.7 8.508,3.114 12.196,3.961 3.968,0.848 7.375,1.414 10.492,1.414 8.226,0 14.746,-1.98 19.851,-6.222 4.821,-4.242 7.375,-9.617 7.375,-16.692 0,-3.113 -0.566,-6.222 -1.984,-9.336 -1.137,-2.828 -3.406,-6.507 -6.524,-10.468 -0.851,-0.848 -3.687,-3.961 -8.507,-9.051 -4.821,-4.809 -11.629,-11.883 -20.422,-20.652" /><path
         id="path122"
         style="fill:#ffffff;fill-opacity:1;fill-rule:evenodd;stroke:none"
         d="m 1686,1199.78 -164.2,0 0,327.31 328.12,0 0,-327.31 -163.92,0" /><g
         transform="scale(1.00124,0.998764)"
         id="g124"><path
           id="path126"
           style="fill:none;stroke:#010101;stroke-width:7.99997807;stroke-linecap:butt;stroke-linejoin:round;stroke-miterlimit:10;stroke-dasharray:none;stroke-opacity:1"
           d="m 1683.92,1201.26 -164,0 0,328.01 327.72,0 0,-328.01 -163.72,0 z" /></g><path
         id="path128"
         style="fill:#010101;fill-opacity:1;fill-rule:evenodd;stroke:none"
         d="m 1615.1,1376.03 9.0742,0 0,29.7031 -9.0742,0 0,-29.7031 z" /><path
         id="path130"
         style="fill:#010101;fill-opacity:1;fill-rule:evenodd;stroke:none"
         d="m 1663.6,1405.73 44.24,0 0,-9.05 -16.73,0 0,-61.96 16.73,0 0,-9.05 -44.24,0 0,9.05 16.73,0 0,61.96 -16.73,0 0,9.05" /><path
         id="path132"
         style="fill:#010101;fill-opacity:1;fill-rule:evenodd;stroke:none"
         d="m 1747.26,1376.03 9.0742,0 0,29.7031 -9.0742,0 0,-29.7031 z" /><path
         id="path134"
         style="fill:#ffffff;fill-opacity:1;fill-rule:evenodd;stroke:none"
         d="m 1686,872.18 -164.2,0 0,327.88 328.12,0 0,-327.88 -163.92,0" /><g
         transform="scale(1.00124,0.998764)"
         id="g136"><path
           id="path138"
           style="fill:none;stroke:#010101;stroke-width:7.99997807;stroke-linecap:butt;stroke-linejoin:round;stroke-miterlimit:10;stroke-dasharray:none;stroke-opacity:1"
           d="m 1683.92,873.259 -164,0 0,328.291 327.72,0 0,-328.291 -163.72,0 z" /></g><path
         id="path140"
         style="fill:#010101;fill-opacity:1;fill-rule:evenodd;stroke:none"
         d="m 1671.54,1007.41 38,0 0,-9.055 -51.05,0 0,9.055 c 4.26,4.24 9.65,9.9 17.02,17.25 7.09,7.08 11.34,11.6 13.33,13.87 3.4,3.96 5.95,7.07 7.37,9.9 1.42,2.54 1.99,5.37 1.99,7.92 0,4.24 -1.42,7.64 -4.54,10.47 -2.84,2.54 -6.81,3.96 -11.63,3.96 -3.4,0 -7.09,-0.57 -10.78,-1.7 -3.96,-1.42 -7.94,-3.11 -12.19,-5.66 l 0,11.03 c 4.25,1.7 8.51,3.12 12.19,3.96 3.98,0.85 7.38,1.42 10.5,1.42 8.22,0 14.75,-1.98 19.85,-6.22 4.82,-4.25 7.37,-9.62 7.37,-16.7 0,-3.11 -0.56,-6.22 -1.98,-9.33 -1.13,-2.83 -3.4,-6.51 -6.53,-10.47 -0.85,-0.85 -3.68,-3.96 -8.5,-9.05 -4.82,-4.81 -11.63,-11.88 -20.42,-20.65" /><path
         id="path142"
         style="fill:#ffffff;fill-opacity:1;fill-rule:evenodd;stroke:none"
         d="m 1686,544.867 -164.2,0 0,327.313 328.12,0 0,-327.313 -163.92,0" /><g
         transform="scale(1.00124,0.998764)"
         id="g144"><path
           id="path146"
           style="fill:none;stroke:#010101;stroke-width:7.99997807;stroke-linecap:butt;stroke-linejoin:round;stroke-miterlimit:10;stroke-dasharray:none;stroke-opacity:1"
           d="m 1683.92,545.541 -164,0 0,327.718 327.72,0 0,-327.718 -163.72,0 z" /></g><path
         id="path148"
         style="fill:#010101;fill-opacity:1;fill-rule:evenodd;stroke:none"
         d="m 1695.08,714.039 c 5.38,-1.133 9.36,-3.394 12.47,-7.07 2.84,-3.395 4.26,-7.922 4.26,-13.016 0,-7.922 -2.84,-14.144 -8.22,-18.387 -5.39,-4.246 -13.05,-6.507 -22.98,-6.507 -3.4,0 -7.09,0.281 -10.49,1.132 -3.69,0.567 -7.37,1.414 -11.06,2.829 l 0,10.468 c 3.12,-1.699 6.24,-3.113 9.92,-3.961 3.41,-0.851 7.38,-1.418 11.07,-1.418 6.8,0 12.19,1.418 15.59,3.961 3.69,2.832 5.39,6.793 5.39,11.883 0,4.809 -1.7,8.488 -5.1,11.317 -3.12,2.546 -7.66,3.96 -13.61,3.96 l -9.36,0 0,8.77 9.64,0 c 5.39,0 9.36,1.133 12.19,3.113 2.84,2.262 4.26,5.375 4.26,9.336 0,3.961 -1.42,7.356 -4.26,9.336 -3.11,2.262 -7.09,3.395 -12.47,3.395 -3.12,0 -6.25,-0.285 -9.65,-0.852 -3.4,-0.848 -7.09,-1.695 -11.06,-3.109 l 0,9.617 c 3.97,1.133 7.94,1.98 11.63,2.547 3.4,0.566 6.81,0.847 9.93,0.847 8.22,0 14.74,-1.98 19.56,-5.656 4.82,-3.679 7.09,-8.769 7.09,-14.996 0,-4.523 -1.13,-8.203 -3.68,-11.316 -2.55,-3.11 -6.24,-5.09 -11.06,-6.223" /><path
         id="path150"
         style="fill:#010101;fill-opacity:1;fill-rule:evenodd;stroke:none"
         d="m 372.367,1683.25 c -5.672,0 -9.926,-2.82 -12.762,-8.2 -2.835,-5.66 -4.253,-13.86 -4.253,-24.89 0,-11.04 1.418,-19.24 4.253,-24.9 2.836,-5.37 7.09,-8.21 12.762,-8.21 5.672,0 9.926,2.84 12.762,8.21 2.836,5.66 4.254,13.86 4.254,24.9 0,11.03 -1.418,19.23 -4.254,24.89 -2.836,5.38 -7.09,8.2 -12.762,8.2 z m 0,8.49 c 9.074,0 15.883,-3.68 20.703,-10.75 4.821,-7.07 7.09,-17.26 7.09,-30.83 0,-13.58 -2.269,-23.77 -7.09,-30.84 -4.82,-7.07 -11.629,-10.75 -20.703,-10.75 -9.074,0 -15.883,3.68 -20.703,10.75 -4.82,7.07 -7.09,17.26 -7.09,30.84 0,13.57 2.27,23.76 7.09,30.83 4.82,7.07 11.629,10.75 20.703,10.75" /><path
         id="path152"
         style="fill:#010101;fill-opacity:1;fill-rule:evenodd;stroke:none"
         d="m 679.223,1619.32 17.867,0 0,61.11 -19.285,-3.97 0,9.91 19.285,3.96 10.777,0 0,-71.01 17.867,0 0,-9.05 -46.511,0 0,9.05" /><path
         id="path154"
         style="fill:#010101;fill-opacity:1;fill-rule:evenodd;stroke:none"
         d="m 1014.72,1619.32 38,0 0,-9.05 -51.04,0 0,9.05 c 4.25,4.24 9.64,9.9 17.01,17.26 7.09,7.07 11.35,11.6 13.33,13.86 3.4,3.96 5.96,7.07 7.37,9.9 1.42,2.55 1.99,5.37 1.99,7.92 0,4.24 -1.42,7.64 -4.54,10.47 -2.84,2.54 -6.8,3.96 -11.63,3.96 -3.4,0 -7.08,-0.56 -10.77,-1.7 -3.97,-1.41 -7.94,-3.11 -12.2,-5.66 l 0,11.04 c 4.26,1.69 8.51,3.11 12.2,3.96 3.97,0.85 7.37,1.41 10.49,1.41 8.23,0 14.75,-1.98 19.85,-6.22 4.83,-4.25 7.38,-9.62 7.38,-16.69 0,-3.12 -0.57,-6.23 -1.99,-9.34 -1.13,-2.83 -3.4,-6.51 -6.52,-10.47 -0.85,-0.84 -3.69,-3.96 -8.51,-9.05 -4.82,-4.81 -11.63,-11.88 -20.42,-20.65" /><path
         id="path156"
         style="fill:#010101;fill-opacity:1;fill-rule:evenodd;stroke:none"
         d="m 1366.67,1653.55 c 5.39,-1.13 9.36,-3.39 12.48,-7.07 2.83,-3.4 4.25,-7.92 4.25,-13.02 0,-7.92 -2.83,-14.14 -8.22,-18.38 -5.39,-4.25 -13.05,-6.51 -22.98,-6.51 -3.4,0 -7.09,0.28 -10.49,1.13 -3.69,0.57 -7.37,1.42 -11.06,2.83 l 0,10.47 c 3.12,-1.7 6.24,-3.11 9.93,-3.96 3.4,-0.85 7.37,-1.42 11.06,-1.42 6.81,0 12.19,1.42 15.59,3.96 3.69,2.83 5.4,6.79 5.4,11.88 0,4.81 -1.71,8.49 -5.11,11.32 -3.12,2.55 -7.66,3.96 -13.61,3.96 l -9.36,0 0,8.77 9.64,0 c 5.39,0 9.36,1.13 12.2,3.12 2.83,2.26 4.25,5.37 4.25,9.33 0,3.96 -1.42,7.35 -4.25,9.33 -3.12,2.27 -7.09,3.4 -12.48,3.4 -3.12,0 -6.24,-0.28 -9.64,-0.85 -3.41,-0.85 -7.09,-1.7 -11.07,-3.11 l 0,9.62 c 3.98,1.13 7.94,1.98 11.63,2.54 3.4,0.57 6.81,0.85 9.93,0.85 8.22,0 14.74,-1.98 19.56,-5.65 4.83,-3.68 7.09,-8.78 7.09,-15 0,-4.53 -1.13,-8.2 -3.68,-11.32 -2.55,-3.11 -6.24,-5.09 -11.06,-6.22" /><path
         id="path158"
         style="fill:#010101;fill-opacity:1;fill-rule:evenodd;stroke:none"
         d="m 1692.24,1680.99 -27.51,-42.72 27.51,0 0,42.72 z m -2.83,9.34 13.61,0 0,-52.06 11.34,0 0,-9.05 -11.34,0 0,-18.95 -10.78,0 0,18.95 -36.3,0 0,10.47 33.47,50.64" /><path
         id="path160"
         style="fill:#010101;fill-opacity:1;fill-rule:evenodd;stroke:none"
         d="m 710.133,386.16 c 5.39,-1.133 9.359,-3.394 12.48,-7.074 2.836,-3.395 4.254,-7.922 4.254,-13.012 0,-7.922 -2.836,-14.148 -8.226,-18.39 -5.387,-4.243 -13.043,-6.508 -22.969,-6.508 -3.402,0 -7.09,0.285 -10.496,1.133 -3.684,0.566 -7.371,1.414 -11.059,2.828 l 0,10.468 c 3.121,-1.699 6.238,-3.113 9.926,-3.96 3.402,-0.848 7.375,-1.415 11.062,-1.415 6.805,0 12.192,1.415 15.598,3.961 3.684,2.829 5.387,6.789 5.387,11.883 0,4.809 -1.703,8.485 -5.106,11.313 -3.117,2.547 -7.656,3.961 -13.613,3.961 l -9.359,0 0,8.769 9.644,0 c 5.387,0 9.36,1.133 12.196,3.113 2.836,2.266 4.253,5.375 4.253,9.336 0,3.961 -1.417,7.356 -4.253,9.336 -3.122,2.262 -7.09,3.395 -12.481,3.395 -3.117,0 -6.238,-0.281 -9.641,-0.848 -3.402,-0.847 -7.089,-1.699 -11.062,-3.113 l 0,9.621 c 3.973,1.129 7.941,1.977 11.629,2.543 3.402,0.566 6.808,0.852 9.926,0.852 8.226,0 14.746,-1.981 19.57,-5.661 4.82,-3.675 7.09,-8.769 7.09,-14.992 0,-4.527 -1.137,-8.203 -3.688,-11.316 -2.554,-3.113 -6.238,-5.094 -11.062,-6.223" /><path
         id="path162"
         style="fill:#010101;fill-opacity:1;fill-rule:evenodd;stroke:none"
         d="m 1014.72,351.926 38,0 0,-9.051 -51.04,0 0,9.051 c 4.25,4.246 9.64,9.902 17.01,17.258 7.09,7.074 11.35,11.601 13.33,13.863 3.4,3.961 5.96,7.07 7.37,9.902 1.42,2.547 1.99,5.375 1.99,7.922 0,4.242 -1.42,7.637 -4.54,10.465 -2.84,2.547 -6.8,3.961 -11.63,3.961 -3.4,0 -7.08,-0.567 -10.77,-1.695 -3.97,-1.418 -7.94,-3.114 -12.2,-5.661 l 0,11.036 c 4.26,1.695 8.51,3.109 12.2,3.957 3.97,0.851 7.37,1.418 10.49,1.418 8.23,0 14.75,-1.981 19.85,-6.227 4.83,-4.242 7.38,-9.617 7.38,-16.691 0,-3.11 -0.57,-6.223 -1.99,-9.336 -1.13,-2.828 -3.4,-6.504 -6.52,-10.465 -0.85,-0.848 -3.69,-3.961 -8.51,-9.055 -4.82,-4.808 -11.63,-11.879 -20.42,-20.652" /><path
         id="path164"
         style="fill:#010101;fill-opacity:1;fill-rule:evenodd;stroke:none"
         d="m 1357.31,415.863 c -5.67,0 -9.93,-2.828 -12.76,-8.203 -2.84,-5.66 -4.26,-13.863 -4.26,-24.894 0,-11.036 1.42,-19.239 4.26,-24.899 2.83,-5.375 7.09,-8.203 12.76,-8.203 5.67,0 9.92,2.828 12.76,8.203 2.84,5.66 4.25,13.863 4.25,24.899 0,11.031 -1.41,19.234 -4.25,24.894 -2.84,5.375 -7.09,8.203 -12.76,8.203 z m 0,8.489 c 9.08,0 15.88,-3.68 20.7,-10.75 4.82,-7.075 7.09,-17.258 7.09,-30.836 0,-13.582 -2.27,-23.766 -7.09,-30.84 -4.82,-7.071 -11.62,-10.75 -20.7,-10.75 -9.08,0 -15.88,3.679 -20.7,10.75 -4.82,7.074 -7.09,17.258 -7.09,30.84 0,13.578 2.27,23.761 7.09,30.836 4.82,7.07 11.62,10.75 20.7,10.75" /><path
         id="path166"
         style="fill:#010101;fill-opacity:1;fill-rule:evenodd;stroke:none"
         d="m 1664.16,351.926 17.87,0 0,61.109 -19.28,-3.961 0,9.903 19.28,3.957 10.78,0 0,-71.008 17.87,0 0,-9.051 -46.52,0 0,9.051" /><path
         id="path168"
         style="fill:#010101;fill-opacity:1;fill-rule:evenodd;stroke:none"
         d="m 738.496,1922.59 9.926,0 0,-59.98 -9.926,0 0,59.98 z m 0,23.48 9.926,0 0,-12.45 -9.926,0 0,12.45" /><path
         id="path170"
         style="fill:#010101;fill-opacity:1;fill-rule:evenodd;stroke:none"
         d="m 819.605,1898.82 0,-36.21 -9.925,0 0,35.93 c 0,5.66 -1.137,9.91 -3.407,12.73 -2.265,2.83 -5.386,4.25 -9.925,4.25 -5.387,0 -9.641,-1.7 -12.762,-5.1 -3.117,-3.39 -4.535,-7.92 -4.535,-13.86 l 0,-33.95 -9.926,0 0,59.98 9.926,0 0,-9.34 c 2.265,3.68 5.101,6.23 8.508,8.21 3.117,1.69 6.804,2.54 11.058,2.54 6.809,0 12.196,-2.26 15.598,-6.5 3.687,-4.25 5.39,-10.47 5.39,-18.68" /><path
         id="path172"
         style="fill:#010101;fill-opacity:1;fill-rule:evenodd;stroke:none"
         d="m 878.875,1913.54 0,32.53 9.926,0 0,-83.46 -9.926,0 0,8.77 c -1.984,-3.67 -4.82,-6.22 -7.937,-7.92 -3.122,-1.69 -6.809,-2.54 -11.348,-2.54 -7.371,0 -13.328,2.83 -17.863,8.77 -4.539,5.65 -6.809,13.29 -6.809,22.91 0,9.34 2.27,16.97 6.809,22.63 4.535,5.95 10.492,8.77 17.863,8.77 4.539,0 8.226,-0.85 11.348,-2.54 3.117,-1.7 5.953,-4.25 7.937,-7.92 z m -33.746,-20.94 c 0,-7.35 1.418,-13.01 4.535,-17.26 2.836,-4.24 7.09,-6.22 12.195,-6.22 5.391,0 9.36,1.98 12.481,6.22 3.117,4.25 4.535,9.91 4.535,17.26 0,7.07 -1.418,12.73 -4.535,16.97 -3.121,4.25 -7.09,6.23 -12.481,6.23 -5.105,0 -9.359,-1.98 -12.195,-6.23 -3.117,-4.24 -4.535,-9.9 -4.535,-16.97" /><path
         id="path174"
         style="fill:#010101;fill-opacity:1;fill-rule:evenodd;stroke:none"
         d="m 960.27,1894.86 0,-4.81 -45.661,0 c 0.567,-6.78 2.555,-11.88 6.239,-15.27 3.687,-3.68 8.793,-5.38 15.316,-5.38 3.969,0 7.656,0.57 11.059,1.42 3.687,0.85 7.375,2.26 10.777,4.24 l 0,-9.33 c -3.687,-1.7 -7.09,-2.83 -11.059,-3.68 -3.687,-0.85 -7.375,-1.13 -11.343,-1.13 -9.645,0 -17.016,2.83 -22.688,8.48 -5.672,5.38 -8.508,13.02 -8.508,22.64 0,9.61 2.551,17.53 7.938,23.19 5.39,5.95 12.48,8.77 21.555,8.77 8.226,0 14.464,-2.54 19.285,-7.92 4.82,-5.09 7.09,-12.16 7.09,-21.22 z m -9.926,2.83 c 0,5.38 -1.703,9.62 -4.539,13.02 -3.117,3.11 -6.805,4.81 -11.91,4.81 -5.387,0 -9.926,-1.7 -13.329,-4.81 -3.121,-3.12 -5.105,-7.36 -5.671,-13.02 l 35.449,0" /><path
         id="path176"
         style="fill:#010101;fill-opacity:1;fill-rule:evenodd;stroke:none"
         d="m 976.719,1946.07 9.926,0 0,-49.23 29.495,25.75 12.48,0 -31.765,-28.01 33.185,-31.97 -12.77,0 -30.625,29.43 0,-29.43 -9.926,0 0,83.46" /><path
         id="path178"
         style="fill:#010101;fill-opacity:1;fill-rule:evenodd;stroke:none"
         d="m 1079.66,1920.89 0,-9.34 c -2.83,1.42 -5.67,2.55 -8.78,3.12 -2.84,0.85 -5.96,1.13 -9.36,1.13 -4.82,0 -8.51,-0.85 -11.07,-2.26 -2.55,-1.42 -3.68,-3.68 -3.68,-6.79 0,-2.27 0.85,-3.96 2.55,-5.38 1.7,-1.41 5.39,-2.55 10.78,-3.68 l 3.11,-0.85 c 7.09,-1.41 12.2,-3.67 15.04,-6.22 3.12,-2.83 4.54,-6.79 4.54,-11.6 0,-5.66 -2.27,-9.9 -6.81,-13.29 -4.26,-3.12 -10.5,-4.81 -18.15,-4.81 -3.4,0 -6.53,0.28 -10.21,0.85 -3.41,0.56 -7.09,1.69 -11.06,2.82 l 0,10.19 c 3.69,-1.98 7.37,-3.4 10.78,-4.24 3.68,-0.85 7.09,-1.42 10.77,-1.42 4.54,0 8.23,0.85 10.78,2.26 2.55,1.7 3.68,3.96 3.68,6.79 0,2.83 -0.85,4.81 -2.83,6.23 -1.7,1.41 -5.67,2.83 -11.63,4.24 l -3.68,0.85 c -5.96,1.13 -10.5,3.11 -13.33,5.94 -2.56,2.55 -3.97,6.22 -3.97,10.75 0,5.66 1.98,10.18 5.95,13.3 4.26,3.11 9.93,4.52 17.3,4.52 3.69,0 7.09,-0.28 10.21,-0.85 3.4,-0.56 6.24,-1.13 9.07,-2.26" /><path
         id="path180"
         style="fill:#010101;fill-opacity:1;fill-rule:evenodd;stroke:none"
         d="m 1098.67,1922.59 9.92,0 0,-59.98 -9.92,0 0,59.98 z m 0,23.48 9.92,0 0,-12.45 -9.92,0 0,12.45" /><path
         id="path182"
         style="fill:#010101;fill-opacity:1;fill-rule:evenodd;stroke:none"
         d="m 780.184,176.246 0,-31.683 -9.926,0 0,82.89 9.926,0 0,-9.055 c 1.984,3.68 4.82,6.223 7.941,7.922 3.117,1.696 6.805,2.547 11.344,2.547 7.375,0 13.328,-2.828 17.867,-8.769 4.535,-5.66 6.805,-13.297 6.805,-22.633 0,-9.621 -2.27,-17.258 -6.805,-22.914 -4.539,-5.942 -10.492,-8.77 -17.867,-8.77 -4.539,0 -8.227,0.848 -11.344,2.543 -3.121,1.699 -5.957,4.246 -7.941,7.922 z m 33.75,21.219 c 0,7.07 -1.418,12.73 -4.539,16.973 -2.836,4.246 -7.09,6.222 -12.196,6.222 -5.386,0 -9.64,-1.976 -12.476,-6.222 -3.121,-4.243 -4.539,-9.903 -4.539,-16.973 0,-7.356 1.418,-13.016 4.539,-17.258 2.836,-4.242 7.09,-6.223 12.476,-6.223 5.106,0 9.36,1.981 12.196,6.223 3.121,4.242 4.539,9.902 4.539,17.258" /><path
         id="path184"
         style="fill:#010101;fill-opacity:1;fill-rule:evenodd;stroke:none"
         d="m 863.844,220.379 c -5.387,0 -9.641,-1.981 -12.762,-6.223 -3.117,-3.961 -4.535,-9.621 -4.535,-16.691 0,-7.356 1.418,-13.016 4.535,-16.977 3.121,-4.242 7.375,-6.222 12.762,-6.222 5.105,0 9.359,1.98 12.48,6.222 3.121,3.961 4.539,9.621 4.539,16.977 0,7.07 -1.418,12.445 -4.539,16.691 -3.121,4.242 -7.375,6.223 -12.48,6.223 z m 0,8.488 c 8.511,0 15.316,-2.828 20.136,-8.488 4.821,-5.375 7.375,-13.297 7.375,-22.914 0,-9.902 -2.554,-17.824 -7.375,-23.199 -4.82,-5.657 -11.625,-8.485 -20.136,-8.485 -8.789,0 -15.598,2.828 -20.418,8.485 -4.821,5.375 -7.371,13.297 -7.371,23.199 0,9.617 2.55,17.539 7.371,22.914 4.82,5.66 11.629,8.488 20.418,8.488" /><path
         id="path186"
         style="fill:#010101;fill-opacity:1;fill-rule:evenodd;stroke:none"
         d="m 907.805,167.477 9.92578,0 0,83.457 -9.92578,0 0,-83.457 z" /><path
         id="path188"
         style="fill:#010101;fill-opacity:1;fill-rule:evenodd;stroke:none"
         d="m 962.254,220.379 c -5.387,0 -9.641,-1.981 -12.762,-6.223 -3.117,-3.961 -4.535,-9.621 -4.535,-16.691 0,-7.356 1.418,-13.016 4.535,-16.977 3.121,-4.242 7.375,-6.222 12.762,-6.222 5.105,0 9.359,1.98 12.48,6.222 3.118,3.961 4.536,9.621 4.536,16.977 0,7.07 -1.418,12.445 -4.536,16.691 -3.121,4.242 -7.375,6.223 -12.48,6.223 z m 0,8.488 c 8.508,0 15.316,-2.828 20.137,-8.488 4.82,-5.375 7.375,-13.297 7.375,-22.914 0,-9.902 -2.555,-17.824 -7.375,-23.199 -4.821,-5.657 -11.629,-8.485 -20.137,-8.485 -8.789,0 -15.598,2.828 -20.418,8.485 -4.82,5.375 -7.375,13.297 -7.375,23.199 0,9.617 2.555,17.539 7.375,22.914 4.82,5.66 11.629,8.488 20.418,8.488" /><path
         id="path190"
         style="fill:#010101;fill-opacity:1;fill-rule:evenodd;stroke:none"
         d="m 1001.96,227.453 46.79,0 0,-9.055 -37.15,-43 37.15,0 0,-7.921 -48.21,0 0,9.054 37.15,43 -35.73,0 0,7.922 z m 19.28,7.637 -13.04,20.086 7.37,0 9.93,-13.012 9.64,13.012 7.38,0 -13.05,-20.086 -8.23,0" /><path
         id="path192"
         style="fill:#010101;fill-opacity:1;fill-rule:evenodd;stroke:none"
         d="m 1090.73,197.746 c -7.94,0 -13.34,-0.848 -16.45,-2.828 -3.12,-1.695 -4.54,-4.809 -4.54,-9.336 0,-3.676 1.14,-6.508 3.4,-8.488 2.27,-1.981 5.39,-3.11 9.36,-3.11 5.39,0 9.93,1.981 13.33,5.942 3.12,3.961 4.82,9.051 4.82,15.558 l 0,2.262 -9.92,0 z m 19.85,3.961 0,-34.23 -9.93,0 0,9.054 c -2.27,-3.679 -5.1,-6.508 -8.51,-8.207 -3.4,-1.695 -7.37,-2.543 -12.19,-2.543 -6.24,0 -11.06,1.696 -14.75,5.09 -3.68,3.68 -5.39,8.203 -5.39,14.145 0,6.789 2.27,11.882 6.81,15.277 4.54,3.395 11.34,5.094 20.13,5.094 l 13.9,0 0,0.847 c 0,4.528 -1.42,7.922 -4.54,10.469 -2.83,2.543 -7.09,3.676 -12.47,3.676 -3.41,0 -6.81,-0.281 -9.93,-1.133 -3.12,-0.848 -6.24,-1.98 -9.36,-3.676 l 0,9.051 c 3.69,1.418 7.09,2.547 10.49,3.113 3.41,0.848 6.81,1.133 9.93,1.133 8.51,0 15.03,-2.265 19.28,-6.789 4.26,-4.527 6.53,-11.316 6.53,-20.371" /><path
         id="path194"
         style="fill:#010101;fill-opacity:1;fill-rule:evenodd;stroke:none"
         d="m 1131,227.453 9.92,0 0,-61.109 c 0,-7.637 -1.42,-13.293 -4.53,-16.692 -2.84,-3.394 -7.66,-5.089 -14.18,-5.089 l -3.69,0 0,8.488 2.55,0 c 3.97,0 6.52,0.847 7.94,2.543 1.42,1.699 1.99,5.375 1.99,10.75 l 0,61.109 z m 0,23.481 9.92,0 0,-12.45 -9.92,0 0,12.45" /><path
         id="path196"
         style="fill:#010101;fill-opacity:1;fill-rule:evenodd;stroke:none"
         d="m 1162.19,227.453 9.93,0 0,-59.976 -9.93,0 0,59.976 z m 0,23.481 9.93,0 0,-12.45 -9.93,0 0,12.45" /><path
         id="path198"
         style="fill:#010101;fill-opacity:1;fill-rule:evenodd;stroke:none"
         d="m 2000.23,1404.32 0,-4.81 -45.66,0 c 0.57,-6.8 2.56,-11.88 6.24,-15.28 3.69,-3.68 8.79,-5.37 15.32,-5.37 3.96,0 7.65,0.56 11.05,1.41 3.69,0.85 7.38,2.26 10.78,4.24 l 0,-9.33 c -3.69,-1.7 -7.09,-2.83 -11.06,-3.68 -3.69,-0.85 -7.37,-1.13 -11.34,-1.13 -9.65,0 -17.02,2.83 -22.69,8.49 -5.67,5.37 -8.51,13.01 -8.51,22.63 0,9.62 2.55,17.54 7.94,23.19 5.39,5.95 12.48,8.77 21.56,8.77 8.22,0 14.46,-2.54 19.28,-7.92 4.82,-5.09 7.09,-12.16 7.09,-21.21 z m -9.93,2.82 c 0,5.38 -1.7,9.62 -4.53,13.02 -3.12,3.11 -6.81,4.81 -11.91,4.81 -5.39,0 -9.93,-1.7 -13.33,-4.81 -3.12,-3.11 -5.11,-7.36 -5.67,-13.02 l 35.44,0" /><path
         id="path200"
         style="fill:#010101;fill-opacity:1;fill-rule:evenodd;stroke:none"
         d="m 2017.25,1372.07 9.9258,0 0,83.4531 -9.9258,0 0,-83.4531 z" /><path
         id="path202"
         style="fill:#010101;fill-opacity:1;fill-rule:evenodd;stroke:none"
         d="m 2099.77,1404.32 0,-4.81 -45.66,0 c 0.57,-6.8 2.56,-11.88 6.25,-15.28 3.68,-3.68 8.78,-5.37 15.31,-5.37 3.97,0 7.65,0.56 11.06,1.41 3.68,0.85 7.37,2.26 10.77,4.24 l 0,-9.33 c -3.68,-1.7 -7.09,-2.83 -11.05,-3.68 -3.69,-0.85 -7.38,-1.13 -11.35,-1.13 -9.64,0 -17.01,2.83 -22.69,8.49 -5.67,5.37 -8.5,13.01 -8.5,22.63 0,9.62 2.55,17.54 7.94,23.19 5.38,5.95 12.47,8.77 21.55,8.77 8.23,0 14.46,-2.54 19.28,-7.92 4.82,-5.09 7.09,-12.16 7.09,-21.21 z m -9.92,2.82 c 0,5.38 -1.7,9.62 -4.54,13.02 -3.12,3.11 -6.81,4.81 -11.91,4.81 -5.39,0 -9.93,-1.7 -13.33,-4.81 -3.12,-3.11 -5.11,-7.36 -5.67,-13.02 l 35.45,0" /><path
         id="path204"
         style="fill:#010101;fill-opacity:1;fill-rule:evenodd;stroke:none"
         d="m 2163.59,1420.44 c 2.55,4.53 5.38,7.64 8.79,9.9 3.4,1.98 7.66,3.11 12.19,3.11 6.24,0 11.06,-2.26 14.47,-6.5 3.4,-4.53 5.1,-10.75 5.1,-18.67 l 0,-36.21 -9.93,0 0,35.92 c 0,5.66 -1.13,9.9 -3.12,12.73 -1.98,2.83 -5.1,4.25 -9.36,4.25 -5.1,0 -9.07,-1.7 -11.91,-5.09 -3.12,-3.4 -4.53,-7.93 -4.53,-13.87 l 0,-33.94 -9.93,0 0,35.92 c 0,5.66 -1.13,9.9 -3.12,12.73 -1.99,2.83 -5.1,4.25 -9.36,4.25 -5.1,0 -9.08,-1.7 -11.91,-5.09 -3.12,-3.4 -4.54,-8.21 -4.54,-13.87 l 0,-33.94 -9.92,0 0,59.97 9.92,0 0,-9.34 c 2.27,3.68 4.82,6.51 8.23,8.21 3.12,1.7 6.8,2.54 11.06,2.54 4.25,0 7.94,-1.13 11.06,-3.39 3.12,-2.26 5.39,-5.38 6.81,-9.62" /><path
         id="path206"
         style="fill:#010101;fill-opacity:1;fill-rule:evenodd;stroke:none"
         d="m 2276.46,1404.32 0,-4.81 -45.66,0 c 0.56,-6.8 2.55,-11.88 6.24,-15.28 3.68,-3.68 8.79,-5.37 15.31,-5.37 3.97,0 7.66,0.56 11.06,1.41 3.69,0.85 7.38,2.26 10.78,4.24 l 0,-9.33 c -3.69,-1.7 -7.09,-2.83 -11.06,-3.68 -3.69,-0.85 -7.38,-1.13 -11.34,-1.13 -9.65,0 -17.02,2.83 -22.69,8.49 -5.67,5.37 -8.51,13.01 -8.51,22.63 0,9.62 2.55,17.54 7.94,23.19 5.39,5.95 12.48,8.77 21.55,8.77 8.23,0 14.47,-2.54 19.29,-7.92 4.82,-5.09 7.09,-12.16 7.09,-21.21 z m -9.93,2.82 c 0,5.38 -1.7,9.62 -4.54,13.02 -3.11,3.11 -6.8,4.81 -11.91,4.81 -5.38,0 -9.92,-1.7 -13.33,-4.81 -3.12,-3.11 -5.1,-7.36 -5.67,-13.02 l 35.45,0" /><path
         id="path208"
         style="fill:#010101;fill-opacity:1;fill-rule:evenodd;stroke:none"
         d="m 2343.39,1408.28 0,-36.21 -9.93,0 0,35.92 c 0,5.66 -1.13,9.9 -3.4,12.73 -2.27,2.83 -5.39,4.25 -9.93,4.25 -5.39,0 -9.64,-1.7 -12.76,-5.09 -3.12,-3.4 -4.54,-7.93 -4.54,-13.87 l 0,-33.94 -9.92,0 0,59.97 9.92,0 0,-9.34 c 2.27,3.68 5.11,6.23 8.51,8.21 3.12,1.7 6.81,2.54 11.06,2.54 6.81,0 12.19,-2.26 15.6,-6.5 3.68,-4.25 5.39,-10.47 5.39,-18.67" /><path
         id="path210"
         style="fill:#010101;fill-opacity:1;fill-rule:evenodd;stroke:none"
         d="m 2372.88,1449.02 0,-16.98 20.42,0 0,-7.64 -20.42,0 0,-32.53 c 0,-5.09 0.57,-8.21 1.99,-9.62 1.42,-1.41 4.25,-1.98 8.22,-1.98 l 10.21,0 0,-8.2 -10.21,0 c -7.66,0 -12.76,1.41 -15.88,4.24 -2.83,2.83 -4.25,7.92 -4.25,15.56 l 0,32.53 -7.38,0 0,7.64 7.38,0 0,16.98 9.92,0" /><path
         id="path212"
         style="fill:#010101;fill-opacity:1;fill-rule:evenodd;stroke:none"
         d="m 2406.35,1432.04 9.92,0 0,-59.97 -9.92,0 0,59.97 z m 0,23.48 9.92,0 0,-12.45 -9.92,0 0,12.45" /><path
         id="path214"
         style="fill:#010101;fill-opacity:1;fill-rule:evenodd;stroke:none"
         d="m 1948.9,1104.16 9.92,0 0,-59.98 -9.92,0 0,59.98 z m 0,23.48 9.92,0 0,-12.45 -9.92,0 0,12.45" /><path
         id="path216"
         style="fill:#010101;fill-opacity:1;fill-rule:evenodd;stroke:none"
         d="m 2030.01,1080.39 0,-36.21 -9.93,0 0,35.93 c 0,5.66 -1.13,9.91 -3.4,12.73 -2.27,2.83 -5.39,4.25 -9.93,4.25 -5.38,0 -9.64,-1.7 -12.76,-5.1 -3.12,-3.39 -4.54,-7.92 -4.54,-13.86 l 0,-33.95 -9.92,0 0,59.98 9.92,0 0,-9.34 c 2.27,3.68 5.11,6.23 8.51,8.21 3.12,1.69 6.81,2.54 11.06,2.54 6.81,0 12.2,-2.26 15.6,-6.5 3.69,-4.25 5.39,-10.47 5.39,-18.68" /><path
         id="path218"
         style="fill:#010101;fill-opacity:1;fill-rule:evenodd;stroke:none"
         d="m 2089.28,1095.11 0,32.53 9.93,0 0,-83.46 -9.93,0 0,8.77 c -1.98,-3.67 -4.82,-6.22 -7.94,-7.92 -3.12,-1.69 -6.8,-2.54 -11.34,-2.54 -7.38,0 -13.33,2.83 -17.87,8.77 -4.54,5.65 -6.81,13.29 -6.81,22.91 0,9.34 2.27,16.97 6.81,22.63 4.54,5.95 10.49,8.77 17.87,8.77 4.54,0 8.22,-0.85 11.34,-2.54 3.12,-1.7 5.96,-4.24 7.94,-7.92 z m -33.75,-20.94 c 0,-7.35 1.42,-13.01 4.54,-17.26 2.84,-4.24 7.09,-6.22 12.2,-6.22 5.38,0 9.36,1.98 12.47,6.22 3.12,4.25 4.54,9.91 4.54,17.26 0,7.07 -1.42,12.73 -4.54,16.97 -3.11,4.25 -7.09,6.23 -12.47,6.23 -5.11,0 -9.36,-1.98 -12.2,-6.23 -3.12,-4.24 -4.54,-9.9 -4.54,-16.97" /><path
         id="path220"
         style="fill:#010101;fill-opacity:1;fill-rule:evenodd;stroke:none"
         d="m 2170.68,1076.43 0,-4.8 -45.66,0 c 0.56,-6.79 2.55,-11.89 6.23,-15.28 3.69,-3.68 8.8,-5.38 15.32,-5.38 3.97,0 7.66,0.57 11.06,1.42 3.69,0.85 7.37,2.26 10.78,4.24 l 0,-9.33 c -3.69,-1.7 -7.09,-2.83 -11.07,-3.68 -3.68,-0.85 -7.37,-1.13 -11.34,-1.13 -9.64,0 -17.02,2.83 -22.69,8.48 -5.67,5.38 -8.51,13.02 -8.51,22.64 0,9.61 2.56,17.53 7.95,23.19 5.38,5.95 12.47,8.77 21.55,8.77 8.22,0 14.46,-2.54 19.29,-7.92 4.82,-5.09 7.09,-12.16 7.09,-21.22 z m -9.93,2.83 c 0,5.38 -1.7,9.62 -4.54,13.02 -3.12,3.11 -6.8,4.81 -11.91,4.81 -5.39,0 -9.92,-1.7 -13.33,-4.81 -3.12,-3.12 -5.1,-7.36 -5.67,-13.02 l 35.45,0" /><path
         id="path222"
         style="fill:#010101;fill-opacity:1;fill-rule:evenodd;stroke:none"
         d="m 2187.13,1127.64 9.92,0 0,-49.23 29.49,25.75 12.48,0 -31.76,-28.01 33.18,-31.97 -12.76,0 -30.63,29.43 0,-29.43 -9.92,0 0,83.46" /><path
         id="path224"
         style="fill:#010101;fill-opacity:1;fill-rule:evenodd;stroke:none"
         d="m 2290.07,1102.46 0,-9.33 c -2.84,1.41 -5.67,2.54 -8.79,3.11 -2.84,0.85 -5.96,1.13 -9.36,1.13 -4.82,0 -8.51,-0.85 -11.06,-2.26 -2.55,-1.42 -3.69,-3.68 -3.69,-6.79 0,-2.27 0.85,-3.96 2.56,-5.38 1.7,-1.41 5.38,-2.55 10.77,-3.68 l 3.12,-0.85 c 7.09,-1.41 12.2,-3.67 15.03,-6.22 3.12,-2.83 4.54,-6.79 4.54,-11.6 0,-5.66 -2.27,-9.9 -6.81,-13.29 -4.25,-3.12 -10.49,-4.81 -18.15,-4.81 -3.4,0 -6.52,0.28 -10.21,0.85 -3.4,0.56 -7.09,1.69 -11.06,2.82 l 0,10.19 c 3.69,-1.98 7.38,-3.4 10.78,-4.24 3.69,-0.85 7.09,-1.42 10.78,-1.42 4.53,0 8.22,0.85 10.77,2.26 2.56,1.7 3.69,3.96 3.69,6.79 0,2.83 -0.85,4.81 -2.84,6.23 -1.7,1.41 -5.67,2.83 -11.62,4.24 l -3.69,0.85 c -5.95,1.13 -10.49,3.11 -13.33,5.94 -2.55,2.55 -3.97,6.22 -3.97,10.75 0,5.66 1.99,10.18 5.95,13.3 4.26,3.11 9.93,4.52 17.31,4.52 3.68,0 7.09,-0.28 10.21,-0.85 3.4,-0.56 6.23,-1.13 9.07,-2.26" /><path
         id="path226"
         style="fill:#010101;fill-opacity:1;fill-rule:evenodd;stroke:none"
         d="m 2309.07,1104.16 9.93,0 0,-59.98 -9.93,0 0,59.98 z m 0,23.48 9.93,0 0,-12.45 -9.93,0 0,12.45" /><path
         id="path228"
         style="fill:#010101;fill-opacity:1;fill-rule:evenodd;stroke:none"
         d="m 2425.06,1080.39 0,-36.21 -9.92,0 0,35.93 c 0,5.66 -1.14,9.91 -3.41,12.73 -2.27,2.83 -5.38,4.25 -9.92,4.25 -5.39,0 -9.64,-1.7 -12.76,-5.1 -3.12,-3.39 -4.54,-7.92 -4.54,-13.86 l 0,-33.95 -9.93,0 0,59.98 9.93,0 0,-9.34 c 2.27,3.68 5.1,6.23 8.51,8.21 3.12,1.69 6.8,2.54 11.06,2.54 6.8,0 12.19,-2.26 15.6,-6.5 3.68,-4.25 5.38,-10.47 5.38,-18.68" /><path
         id="path230"
         style="fill:#010101;fill-opacity:1;fill-rule:evenodd;stroke:none"
         d="m 2471.57,1074.45 c -7.94,0 -13.32,-0.84 -16.44,-2.82 -3.13,-1.7 -4.54,-4.81 -4.54,-9.34 0,-3.68 1.13,-6.51 3.4,-8.49 2.27,-1.98 5.39,-3.11 9.36,-3.11 5.39,0 9.93,1.98 13.33,5.94 3.12,3.96 4.82,9.05 4.82,15.56 l 0,2.26 -9.93,0 z m 19.86,3.96 0,-34.23 -9.93,0 0,9.06 c -2.27,-3.68 -5.11,-6.51 -8.51,-8.21 -3.4,-1.69 -7.37,-2.54 -12.19,-2.54 -6.24,0 -11.06,1.69 -14.75,5.09 -3.69,3.68 -5.39,8.2 -5.39,14.14 0,6.79 2.27,11.89 6.81,15.28 4.53,3.39 11.34,5.09 20.14,5.09 l 13.89,0 0,0.85 c 0,4.53 -1.42,7.92 -4.54,10.47 -2.83,2.54 -7.09,3.68 -12.48,3.68 -3.4,0 -6.8,-0.29 -9.92,-1.14 -3.12,-0.84 -6.24,-1.98 -9.36,-3.67 l 0,9.05 c 3.69,1.42 7.09,2.55 10.49,3.11 3.41,0.85 6.81,1.13 9.93,1.13 8.51,0 15.03,-2.26 19.28,-6.78 4.26,-4.53 6.53,-11.32 6.53,-20.38" /><path
         id="path232"
         style="fill:#010101;fill-opacity:1;fill-rule:evenodd;stroke:none"
         d="m 2550.41,1102.46 0,-9.33 c -2.83,1.41 -5.67,2.54 -8.78,3.11 -2.84,0.85 -5.96,1.13 -9.36,1.13 -4.82,0 -8.51,-0.85 -11.07,-2.26 -2.55,-1.42 -3.68,-3.68 -3.68,-6.79 0,-2.27 0.85,-3.96 2.55,-5.38 1.7,-1.41 5.39,-2.55 10.78,-3.68 l 3.11,-0.85 c 7.09,-1.41 12.2,-3.67 15.04,-6.22 3.12,-2.83 4.54,-6.79 4.54,-11.6 0,-5.66 -2.27,-9.9 -6.81,-13.29 -4.26,-3.12 -10.5,-4.81 -18.15,-4.81 -3.4,0 -6.53,0.28 -10.21,0.85 -3.41,0.56 -7.09,1.69 -11.06,2.82 l 0,10.19 c 3.69,-1.98 7.37,-3.4 10.78,-4.24 3.68,-0.85 7.09,-1.42 10.77,-1.42 4.54,0 8.23,0.85 10.78,2.26 2.55,1.7 3.68,3.96 3.68,6.79 0,2.83 -0.85,4.81 -2.83,6.23 -1.7,1.41 -5.67,2.83 -11.63,4.24 l -3.68,0.85 c -5.96,1.13 -10.5,3.11 -13.34,5.94 -2.55,2.55 -3.96,6.22 -3.96,10.75 0,5.66 1.98,10.18 5.95,13.3 4.26,3.11 9.93,4.52 17.3,4.52 3.69,0 7.09,-0.28 10.21,-0.85 3.4,-0.56 6.24,-1.13 9.07,-2.26" /><path
         id="path234"
         style="fill:#010101;fill-opacity:1;fill-rule:evenodd;stroke:none"
         d="m 2569.7,1044.18 9.9258,0 0,83.457 -9.9258,0 0,-83.457 z" /><path
         id="path236"
         style="fill:#010101;fill-opacity:1;fill-rule:evenodd;stroke:none"
         d="m 2652.23,1076.43 0,-4.8 -45.66,0 c 0.57,-6.79 2.55,-11.89 6.24,-15.28 3.68,-3.68 8.79,-5.38 15.31,-5.38 3.97,0 7.66,0.57 11.06,1.42 3.69,0.85 7.37,2.26 10.78,4.24 l 0,-9.33 c -3.69,-1.7 -7.09,-2.83 -11.06,-3.68 -3.69,-0.85 -7.38,-1.13 -11.35,-1.13 -9.64,0 -17.01,2.83 -22.68,8.48 -5.67,5.38 -8.51,13.02 -8.51,22.64 0,9.61 2.55,17.53 7.94,23.19 5.39,5.95 12.48,8.77 21.55,8.77 8.23,0 14.47,-2.54 19.29,-7.92 4.82,-5.09 7.09,-12.16 7.09,-21.22 z m -9.93,2.83 c 0,5.38 -1.7,9.62 -4.53,13.02 -3.13,3.11 -6.81,4.81 -11.92,4.81 -5.39,0 -9.92,-1.7 -13.33,-4.81 -3.12,-3.12 -5.1,-7.36 -5.67,-13.02 l 35.45,0" /><path
         id="path238"
         style="fill:#010101;fill-opacity:1;fill-rule:evenodd;stroke:none"
         d="m 2708.66,1095.11 0,32.53 9.93,0 0,-83.46 -9.93,0 0,8.77 c -1.98,-3.67 -4.82,-6.22 -7.94,-7.92 -3.12,-1.69 -6.8,-2.54 -11.34,-2.54 -7.38,0 -13.33,2.83 -17.87,8.77 -4.54,5.65 -6.8,13.29 -6.8,22.91 0,9.34 2.26,16.97 6.8,22.63 4.54,5.95 10.49,8.77 17.87,8.77 4.54,0 8.22,-0.85 11.34,-2.54 3.12,-1.7 5.96,-4.24 7.94,-7.92 z m -33.75,-20.94 c 0,-7.35 1.42,-13.01 4.54,-17.26 2.84,-4.24 7.09,-6.22 12.2,-6.22 5.39,0 9.36,1.98 12.48,6.22 3.12,4.25 4.53,9.91 4.53,17.26 0,7.07 -1.41,12.73 -4.53,16.97 -3.12,4.25 -7.09,6.23 -12.48,6.23 -5.11,0 -9.36,-1.98 -12.2,-6.23 -3.12,-4.24 -4.54,-9.9 -4.54,-16.97" /><path
         id="path240"
         style="fill:#010101;fill-opacity:1;fill-rule:evenodd;stroke:none"
         d="m 2788.92,1080.39 0,-36.21 -9.92,0 0,35.93 c 0,5.66 -1.14,9.91 -3.41,12.73 -2.27,2.83 -5.39,4.25 -9.92,4.25 -5.39,0 -9.65,-1.7 -12.76,-5.1 -3.12,-3.39 -4.54,-7.92 -4.54,-13.86 l 0,-33.95 -9.93,0 0,59.98 9.93,0 0,-9.34 c 2.27,3.68 5.1,6.23 8.51,8.21 3.12,1.69 6.8,2.54 11.06,2.54 6.8,0 12.19,-2.26 15.6,-6.5 3.68,-4.25 5.38,-10.47 5.38,-18.68" /><path
         id="path242"
         style="fill:#010101;fill-opacity:1;fill-rule:evenodd;stroke:none"
         d="m 2808.49,1104.16 9.93,0 0,-59.98 -9.93,0 0,59.98 z m 0,23.48 9.93,0 0,-12.45 -9.93,0 0,12.45" /><path
         id="path244"
         style="fill:#010101;fill-opacity:1;fill-rule:evenodd;stroke:none"
         d="m 2839.12,1127.64 9.93,0 0,-49.23 29.49,25.75 12.48,0 -31.77,-28.01 33.19,-31.97 -12.76,0 -30.63,29.43 0,-29.43 -9.93,0 0,83.46" /><path
         id="path246"
         style="fill:#010101;fill-opacity:1;fill-rule:evenodd;stroke:none"
         d="m 2923.07,1097.09 c -5.39,0 -9.65,-1.98 -12.77,-6.23 -3.12,-3.96 -4.53,-9.62 -4.53,-16.69 0,-7.35 1.41,-13.01 4.53,-16.97 3.12,-4.25 7.38,-6.23 12.77,-6.23 5.1,0 9.36,1.98 12.47,6.23 3.12,3.96 4.54,9.62 4.54,16.97 0,7.07 -1.42,12.45 -4.54,16.69 -3.11,4.25 -7.37,6.23 -12.47,6.23 z m 0,8.48 c 8.5,0 15.31,-2.82 20.13,-8.48 4.82,-5.38 7.37,-13.3 7.37,-22.92 0,-9.9 -2.55,-17.82 -7.37,-23.2 -4.82,-5.65 -11.63,-8.48 -20.13,-8.48 -8.8,0 -15.6,2.83 -20.43,8.48 -4.82,5.38 -7.37,13.3 -7.37,23.2 0,9.62 2.55,17.54 7.37,22.92 4.83,5.66 11.63,8.48 20.43,8.48" /><path
         id="path248"
         style="fill:#010101;fill-opacity:1;fill-rule:evenodd;stroke:none"
         d="m 2959.93,1104.16 10.5,0 19,-50.36 18.71,50.36 10.5,0 -22.69,-59.98 -13.33,0 -22.69,59.98" /><path
         id="path250"
         style="fill:#010101;fill-opacity:1;fill-rule:evenodd;stroke:none"
         d="m 120.813,432.27 c 0,7.355 -1.418,12.73 -4.536,16.691 -2.836,3.961 -7.089,5.941 -12.48,5.941 -5.1056,0 -9.3595,-1.98 -12.1954,-5.941 -3.1172,-3.961 -4.5352,-9.336 -4.5352,-16.691 0,-7.071 1.418,-12.446 4.5352,-16.407 2.8359,-3.961 7.0898,-5.941 12.1954,-5.941 5.391,0 9.644,1.98 12.48,5.941 3.118,3.961 4.536,9.336 4.536,16.407 z m 9.925,-23.196 c 0,-10.183 -2.265,-17.824 -6.804,-22.914 -4.539,-4.812 -11.629,-7.355 -20.989,-7.355 -3.402,0 -6.8044,0.281 -9.6403,0.847 -3.1211,0.567 -6.2383,1.133 -9.0742,2.262 l 0,9.621 c 2.8359,-1.418 5.6718,-2.547 8.5078,-3.394 2.8359,-0.852 5.6719,-1.133 8.7887,-1.133 6.524,0 11.344,1.695 14.465,5.09 3.121,3.398 4.821,8.488 4.821,15.277 l 0,4.809 c -1.985,-3.395 -4.536,-6.223 -7.942,-7.918 -3.117,-1.7 -6.805,-2.547 -11.344,-2.547 -7.3707,0 -13.3278,2.828 -17.8668,8.484 -4.5352,5.66 -6.8047,13.016 -6.8047,22.067 0,9.335 2.2695,16.691 6.8047,22.351 4.539,5.656 10.4961,8.484 17.8668,8.484 4.539,0 8.227,-0.847 11.344,-2.542 3.406,-1.7 5.957,-4.528 7.942,-7.922 l 0,9.05 9.925,0 0,-52.617" /><path
         id="path252"
         style="fill:#010101;fill-opacity:1;fill-rule:evenodd;stroke:none"
         d="m 151.16,401.719 9.92578,0 0,83.4531 -9.92578,0 0,-83.4531 z" /><path
         id="path254"
         style="fill:#010101;fill-opacity:1;fill-rule:evenodd;stroke:none"
         d="m 209.297,431.988 c -7.942,0 -13.328,-0.847 -16.449,-2.828 -3.121,-1.699 -4.539,-4.808 -4.539,-9.336 0,-3.679 1.136,-6.508 3.406,-8.488 2.269,-1.981 5.387,-3.109 9.359,-3.109 5.387,0 9.926,1.976 13.328,5.937 3.118,3.961 4.821,9.055 4.821,15.563 l 0,2.261 -9.926,0 z m 19.851,3.961 0,-34.23 -9.925,0 0,9.051 c -2.27,-3.676 -5.106,-6.504 -8.508,-8.204 -3.402,-1.695 -7.375,-2.546 -12.195,-2.546 -6.239,0 -11.059,1.699 -14.747,5.093 -3.687,3.676 -5.39,8.203 -5.39,14.145 0,6.789 2.269,11.883 6.808,15.277 4.536,3.395 11.344,5.09 20.137,5.09 l 13.895,0 0,0.852 c 0,4.523 -1.418,7.921 -4.539,10.464 -2.836,2.547 -7.09,3.68 -12.477,3.68 -3.402,0 -6.805,-0.285 -9.926,-1.133 -3.121,-0.847 -6.238,-1.98 -9.359,-3.675 l 0,9.05 c 3.687,1.414 7.09,2.547 10.492,3.114 3.406,0.847 6.809,1.128 9.926,1.128 8.508,0 15.031,-2.261 19.285,-6.789 4.254,-4.523 6.523,-11.316 6.523,-20.367" /><path
         id="path256"
         style="fill:#010101;fill-opacity:1;fill-rule:evenodd;stroke:none"
         d="m 242.477,461.691 10.496,0 19,-50.355 18.718,50.355 10.493,0 -22.688,-59.972 -13.328,0 -22.691,59.972" /><path
         id="path258"
         style="fill:#010101;fill-opacity:1;fill-rule:evenodd;stroke:none"
         d="m 341.172,431.988 c -7.942,0 -13.332,-0.847 -16.449,-2.828 -3.121,-1.699 -4.539,-4.808 -4.539,-9.336 0,-3.679 1.136,-6.508 3.402,-8.488 2.269,-1.981 5.391,-3.109 9.359,-3.109 5.391,0 9.926,1.976 13.332,5.937 3.118,3.961 4.821,9.055 4.821,15.563 l 0,2.261 -9.926,0 z m 19.851,3.961 0,-34.23 -9.925,0 0,9.051 c -2.27,-3.676 -5.106,-6.504 -8.508,-8.204 -3.402,-1.695 -7.375,-2.546 -12.195,-2.546 -6.239,0 -11.063,1.699 -14.747,5.093 -3.687,3.676 -5.39,8.203 -5.39,14.145 0,6.789 2.269,11.883 6.808,15.277 4.536,3.395 11.344,5.09 20.133,5.09 l 13.899,0 0,0.852 c 0,4.523 -1.418,7.921 -4.539,10.464 -2.836,2.547 -7.09,3.68 -12.477,3.68 -3.406,0 -6.809,-0.285 -9.926,-1.133 -3.121,-0.847 -6.242,-1.98 -9.359,-3.675 l 0,9.05 c 3.687,1.414 7.09,2.547 10.492,3.114 3.402,0.847 6.805,1.128 9.926,1.128 8.508,0 15.031,-2.261 19.285,-6.789 4.254,-4.523 6.523,-11.316 6.523,-20.367" /></g></g></svg>