<?xml version="1.0" encoding="UTF-8" standalone="no"?>
<svg
   xmlns:dc="http://purl.org/dc/elements/1.1/"
   xmlns:cc="http://creativecommons.org/ns#"
   xmlns:rdf="http://www.w3.org/1999/02/22-rdf-syntax-ns#"
   xmlns:svg="http://www.w3.org/2000/svg"
   xmlns="http://www.w3.org/2000/svg"
   viewBox="0 0 562.5 192.5"
   height="192.5"
   width="562.5"
   xml:space="preserve"
   version="1.1"
   id="svg2"><metadata
     id="metadata8"><rdf:RDF><cc:Work
         rdf:about=""><dc:format>image/svg+xml</dc:format><dc:type
           rdf:resource="http://purl.org/dc/dcmitype/StillImage" /></cc:Work></rdf:RDF></metadata><defs
     id="defs6" /><g
     transform="matrix(1.25,0,0,-1.25,0,192.5)"
     id="g10"><g
       transform="scale(0.1,0.1)"
       id="g12"><path
         id="path14"
         style="fill:#ffd321;fill-opacity:1;fill-rule:evenodd;stroke:none"
         d="m 1143.23,750.406 -150.195,0 0,300.044 300.405,0 0,-300.044 -150.21,0" /><g
         transform="scale(0.999647,1.00035)"
         id="g16"><path
           id="path18"
           style="fill:none;stroke:#010101;stroke-width:7.0857501;stroke-linecap:butt;stroke-linejoin:round;stroke-miterlimit:10;stroke-dasharray:none;stroke-opacity:1"
           d="m 1143.64,750.142 -150.254,0 0,300.228 300.504,0 0,-300.228 -150.25,0 z" /></g><path
         id="path20"
         style="fill:#010101;fill-opacity:1;fill-rule:evenodd;stroke:none"
         d="m 1149.75,932.762 -25.22,-42.258 25.22,0 0,42.258 z m -1.7,9.926 12.47,0 0,-52.184 10.77,0 0,-8.793 -10.77,0 0,-19.285 -10.77,0 0,19.285 -34,0 0,10.211 32.3,50.766" /><path
         id="path22"
         style="fill:#ffd321;fill-opacity:1;fill-rule:evenodd;stroke:none"
         d="m 1143.23,450.074 -150.195,0 0,300.332 300.405,0 0,-300.332 -150.21,0" /><g
         transform="scale(0.999647,1.00035)"
         id="g24"><path
           id="path26"
           style="fill:none;stroke:#010101;stroke-width:7.0857501;stroke-linecap:butt;stroke-linejoin:round;stroke-miterlimit:10;stroke-dasharray:none;stroke-opacity:1"
           d="m 1143.64,450.197 -150.254,0 0,299.945 300.504,0 0,-299.945 -150.25,0 z" /></g><path
         id="path28"
         style="fill:#ffd321;fill-opacity:1;fill-rule:evenodd;stroke:none"
         d="m 1143.23,149.172 -150.195,0 0,300.617 300.405,0 0,-300.617 -150.21,0" /><g
         transform="scale(0.999647,1.00035)"
         id="g30"><path
           id="path32"
           style="fill:none;stroke:#010101;stroke-width:7.0857501;stroke-linecap:butt;stroke-linejoin:round;stroke-miterlimit:10;stroke-dasharray:none;stroke-opacity:1"
           d="m 1143.64,149.404 -150.254,0 0,300.512 300.504,0 0,-300.512 -150.25,0 z" /></g><path
         id="path34"
         style="fill:#ffffff;fill-opacity:1;fill-rule:evenodd;stroke:none"
         d="m 1943.84,750.406 -150.2,0 0,300.044 300.4,0 0,-300.044 -150.2,0" /><g
         transform="scale(0.999647,1.00035)"
         id="g36"><path
           id="path38"
           style="fill:none;stroke:#010101;stroke-width:7.0857501;stroke-linecap:butt;stroke-linejoin:round;stroke-miterlimit:10;stroke-dasharray:none;stroke-opacity:1"
           d="m 1944.24,750.142 -149.97,0 0,300.228 300.23,0 0,-300.228 -150.26,0 z" /></g><path
         id="path40"
         style="fill:#010101;fill-opacity:1;fill-rule:evenodd;stroke:none"
         d="m 1872.99,912.91 9.0664,0 0,29.7773 -9.0664,0 0,-29.7773 z" /><path
         id="path42"
         style="fill:#010101;fill-opacity:1;fill-rule:evenodd;stroke:none"
         d="m 1915.22,942.688 14.45,0 13.89,-40.84 14.17,40.84 14.45,0 0,-80.262 -9.92,0 0,70.902 -14.45,-42.258 -8.22,0 -14.45,42.258 0,-70.902 -9.92,0 0,80.262" /><path
         id="path44"
         style="fill:#010101;fill-opacity:1;fill-rule:evenodd;stroke:none"
         d="m 2005.05,912.91 9.0703,0 0,29.7773 -9.0703,0 0,-29.7773 z" /><path
         id="path46"
         style="fill:#ffffff;fill-opacity:1;fill-rule:evenodd;stroke:none"
         d="m 1943.84,450.074 -150.2,0 0,300.332 300.4,0 0,-300.332 -150.2,0" /><g
         transform="scale(0.999647,1.00035)"
         id="g48"><path
           id="path50"
           style="fill:none;stroke:#010101;stroke-width:7.0857501;stroke-linecap:butt;stroke-linejoin:round;stroke-miterlimit:10;stroke-dasharray:none;stroke-opacity:1"
           d="m 1944.24,450.197 -149.97,0 0,299.945 300.23,0 0,-299.945 -150.26,0 z" /></g><path
         id="path52"
         style="fill:#ffffff;fill-opacity:1;fill-rule:evenodd;stroke:none"
         d="m 1943.84,149.172 -150.2,0 0,300.617 300.4,0 0,-300.617 -150.2,0" /><g
         transform="scale(0.999647,1.00035)"
         id="g54"><path
           id="path56"
           style="fill:none;stroke:#010101;stroke-width:7.0857501;stroke-linecap:butt;stroke-linejoin:round;stroke-miterlimit:10;stroke-dasharray:none;stroke-opacity:1"
           d="m 1944.24,149.404 -149.97,0 0,300.512 300.23,0 0,-300.512 -150.26,0 z" /></g><path
         id="path58"
         style="fill:#ffffff;fill-opacity:1;fill-rule:evenodd;stroke:none"
         d="m 2744.45,750.406 -150.21,0 0,300.044 300.41,0 0,-300.044 -150.2,0" /><g
         transform="scale(0.999647,1.00035)"
         id="g60"><path
           id="path62"
           style="fill:none;stroke:#010101;stroke-width:7.0857501;stroke-linecap:butt;stroke-linejoin:round;stroke-miterlimit:10;stroke-dasharray:none;stroke-opacity:1"
           d="m 2745.13,750.142 -150.25,0 0,300.228 300.5,0 0,-300.228 -150.25,0 z" /></g><path
         id="path64"
         style="fill:#010101;fill-opacity:1;fill-rule:evenodd;stroke:none"
         d="m 2673.6,912.91 9.0664,0 0,29.7773 -9.0664,0 0,-29.7773 z" /><path
         id="path66"
         style="fill:#010101;fill-opacity:1;fill-rule:evenodd;stroke:none"
         d="m 2722.06,942.688 44.21,0 0,-9.079 -16.72,0 0,-62.105 16.72,0 0,-9.078 -44.21,0 0,9.078 16.72,0 0,62.105 -16.72,0 0,9.079" /><path
         id="path68"
         style="fill:#010101;fill-opacity:1;fill-rule:evenodd;stroke:none"
         d="m 2805.66,912.91 9.0703,0 0,29.7773 -9.0703,0 0,-29.7773 z" /><path
         id="path70"
         style="fill:#ffffff;fill-opacity:1;fill-rule:evenodd;stroke:none"
         d="m 2744.45,450.074 -150.21,0 0,300.332 300.41,0 0,-300.332 -150.2,0" /><g
         transform="scale(0.999647,1.00035)"
         id="g72"><path
           id="path74"
           style="fill:none;stroke:#010101;stroke-width:7.0857501;stroke-linecap:butt;stroke-linejoin:round;stroke-miterlimit:10;stroke-dasharray:none;stroke-opacity:1"
           d="m 2745.13,450.197 -150.25,0 0,299.945 300.5,0 0,-299.945 -150.25,0 z" /></g><path
         id="path76"
         style="fill:#ffffff;fill-opacity:1;fill-rule:evenodd;stroke:none"
         d="m 2744.45,149.172 -150.21,0 0,300.617 300.41,0 0,-300.617 -150.2,0" /><g
         transform="scale(0.999647,1.00035)"
         id="g78"><path
           id="path80"
           style="fill:none;stroke:#010101;stroke-width:7.0857501;stroke-linecap:butt;stroke-linejoin:round;stroke-miterlimit:10;stroke-dasharray:none;stroke-opacity:1"
           d="m 2745.13,149.404 -150.25,0 0,300.512 300.5,0 0,-300.512 -150.25,0 z" /></g><path
         id="path82"
         style="fill:#ffffff;fill-opacity:1;fill-rule:evenodd;stroke:none"
         d="m 3544.77,750.406 -150.2,0 0,300.044 300.4,0 0,-300.044 -150.2,0" /><g
         transform="scale(0.999647,1.00035)"
         id="g84"><path
           id="path86"
           style="fill:none;stroke:#010101;stroke-width:7.0857501;stroke-linecap:butt;stroke-linejoin:round;stroke-miterlimit:10;stroke-dasharray:none;stroke-opacity:1"
           d="m 3546.02,750.142 -150.26,0 0,300.228 300.51,0 0,-300.228 -150.25,0 z" /></g><path
         id="path88"
         style="fill:#010101;fill-opacity:1;fill-rule:evenodd;stroke:none"
         d="m 3473.92,912.91 9.0664,0 0,29.7773 -9.0664,0 0,-29.7773 z" /><path
         id="path90"
         style="fill:#010101;fill-opacity:1;fill-rule:evenodd;stroke:none"
         d="m 3521.25,942.688 52.14,0 0,-8.227 -41.94,-62.957 43.07,0 0,-9.078 -54.41,0 0,8.226 40.81,62.957 -39.67,0 0,9.079" /><path
         id="path92"
         style="fill:#010101;fill-opacity:1;fill-rule:evenodd;stroke:none"
         d="m 3605.98,912.91 9.0703,0 0,29.7773 -9.0703,0 0,-29.7773 z" /><path
         id="path94"
         style="fill:#ffffff;fill-opacity:1;fill-rule:evenodd;stroke:none"
         d="m 3544.77,450.074 -150.2,0 0,300.332 300.4,0 0,-300.332 -150.2,0" /><g
         transform="scale(0.999647,1.00035)"
         id="g96"><path
           id="path98"
           style="fill:none;stroke:#010101;stroke-width:7.0857501;stroke-linecap:butt;stroke-linejoin:round;stroke-miterlimit:10;stroke-dasharray:none;stroke-opacity:1"
           d="m 3546.02,450.197 -150.26,0 0,299.945 300.51,0 0,-299.945 -150.25,0 z" /></g><path
         id="path100"
         style="fill:#ffffff;fill-opacity:1;fill-rule:evenodd;stroke:none"
         d="m 3544.77,149.172 -150.2,0 0,300.617 300.4,0 0,-300.617 -150.2,0" /><g
         transform="scale(0.999647,1.00035)"
         id="g102"><path
           id="path104"
           style="fill:none;stroke:#010101;stroke-width:7.0857501;stroke-linecap:butt;stroke-linejoin:round;stroke-miterlimit:10;stroke-dasharray:none;stroke-opacity:1"
           d="m 3546.02,149.404 -150.26,0 0,300.512 300.51,0 0,-300.512 -150.25,0 z" /></g><path
         id="path106"
         style="fill:#ffffff;fill-opacity:1;fill-rule:evenodd;stroke:none"
         d="m 4345.37,750.406 -150.2,0 0,300.044 300.4,0 0,-300.044 -150.2,0" /><g
         transform="scale(0.999647,1.00035)"
         id="g108"><path
           id="path110"
           style="fill:none;stroke:#010101;stroke-width:7.0857501;stroke-linecap:butt;stroke-linejoin:round;stroke-miterlimit:10;stroke-dasharray:none;stroke-opacity:1"
           d="m 4346.62,750.142 -150.25,0 0,300.228 300.51,0 0,-300.228 -150.26,0 z" /></g><path
         id="path112"
         style="fill:#010101;fill-opacity:1;fill-rule:evenodd;stroke:none"
         d="m 4274.52,912.91 9.0664,0 0,29.7773 -9.0664,0 0,-29.7773 z" /><path
         id="path114"
         style="fill:#010101;fill-opacity:1;fill-rule:evenodd;stroke:none"
         d="m 4345.37,933.043 -11.62,-41.121 22.96,0 -11.34,41.121 z m -6.51,9.645 13.03,0 24.66,-80.262 -11.34,0 -5.95,20.703 -28.06,0 -5.66,-20.703 -11.34,0 24.66,80.262" /><path
         id="path116"
         style="fill:#010101;fill-opacity:1;fill-rule:evenodd;stroke:none"
         d="m 4406.59,912.91 9.0703,0 0,29.7773 -9.0703,0 0,-29.7773 z" /><path
         id="path118"
         style="fill:#ffffff;fill-opacity:1;fill-rule:evenodd;stroke:none"
         d="m 4345.37,450.074 -150.2,0 0,300.332 300.4,0 0,-300.332 -150.2,0" /><g
         transform="scale(0.999647,1.00035)"
         id="g120"><path
           id="path122"
           style="fill:none;stroke:#010101;stroke-width:7.0857501;stroke-linecap:butt;stroke-linejoin:round;stroke-miterlimit:10;stroke-dasharray:none;stroke-opacity:1"
           d="m 4346.62,450.197 -150.25,0 0,299.945 300.51,0 0,-299.945 -150.26,0 z" /></g><path
         id="path124"
         style="fill:#ffffff;fill-opacity:1;fill-rule:evenodd;stroke:none"
         d="m 4345.37,149.172 -150.2,0 0,300.617 300.4,0 0,-300.617 -150.2,0" /><g
         transform="scale(0.999647,1.00035)"
         id="g126"><path
           id="path128"
           style="fill:none;stroke:#010101;stroke-width:7.0857501;stroke-linecap:butt;stroke-linejoin:round;stroke-miterlimit:10;stroke-dasharray:none;stroke-opacity:1"
           d="m 4346.62,149.404 -150.25,0 0,300.512 300.51,0 0,-300.512 -150.26,0 z" /></g><path
         id="path130"
         style="fill:#010101;fill-opacity:1;fill-rule:evenodd;stroke:none"
         d="m 1143.52,640.086 c 22.67,0 39.96,-17.301 39.96,-39.988 0,-22.688 -17.29,-40.27 -39.96,-40.27 -22.67,0 -39.96,17.582 -39.96,40.27 0,22.687 17.29,39.988 39.96,39.988 z m -39.96,0 0,0 z m 80.2,-80.543 0,0" /><path
         id="path132"
         style="fill:#010101;fill-opacity:1;fill-rule:evenodd;stroke:none"
         d="m 2744.73,640.086 c 22.67,0 39.96,-17.301 39.96,-39.988 0,-22.688 -17.29,-40.27 -39.96,-40.27 -22.67,0 -39.96,17.582 -39.96,40.27 0,22.687 17.29,39.988 39.96,39.988 z m -39.96,0 0,0 z m 80.2,-80.543 0,0" /><path
         id="path134"
         style="fill:#010101;fill-opacity:1;fill-rule:evenodd;stroke:none"
         d="m 3545.05,640.086 c 22.67,0 39.96,-17.301 39.96,-39.988 0,-22.688 -17.29,-40.27 -39.96,-40.27 -22.67,0 -39.96,17.582 -39.96,40.27 0,22.687 17.29,39.988 39.96,39.988 z m -39.96,0 0,0 z m 80.2,-80.543 0,0" /><path
         id="path136"
         style="fill:#010101;fill-opacity:1;fill-rule:evenodd;stroke:none"
         d="m 1143.52,339.188 c 22.67,0 39.96,-17.301 39.96,-39.989 0,-22.687 -17.29,-39.988 -39.96,-39.988 -22.67,0 -39.96,17.301 -39.96,39.988 0,22.688 17.29,39.989 39.96,39.989 z m -39.96,0 0,0 z m 80.2,-80.262 0,0" /><path
         id="path138"
         style="fill:#010101;fill-opacity:1;fill-rule:evenodd;stroke:none"
         d="m 2744.73,339.188 c 22.67,0 39.96,-17.301 39.96,-39.989 0,-22.687 -17.29,-39.988 -39.96,-39.988 -22.67,0 -39.96,17.301 -39.96,39.988 0,22.688 17.29,39.989 39.96,39.989 z m -39.96,0 0,0 z m 80.2,-80.262 0,0" /><g
         transform="scale(0.999647,1.00035)"
         id="g140"><path
           id="path142"
           style="fill:none;stroke:#010101;stroke-width:7.37099981;stroke-linecap:butt;stroke-linejoin:round;stroke-miterlimit:10;stroke-dasharray:none;stroke-opacity:1"
           d="m 1183.89,599.32 548.58,0.566" /></g><path
         id="path144"
         style="fill:#010101;fill-opacity:1;fill-rule:evenodd;stroke:none"
         d="m 1793.64,600.098 -64.62,21.554 0,-43.109 64.62,21.555" /><g
         transform="scale(0.999647,1.00035)"
         id="g146"><path
           id="path148"
           style="fill:none;stroke:#010101;stroke-width:7.37099981;stroke-linecap:butt;stroke-linejoin:round;stroke-miterlimit:10;stroke-dasharray:none;stroke-opacity:1"
           d="m 1143.92,259.12 0,-255.15265 3202.98,0 0,83.34955" /></g><path
         id="path150"
         style="fill:#010101;fill-opacity:1;fill-rule:evenodd;stroke:none"
         d="m 4345.37,149.172 -21.53,-64.6603 43.07,0 -21.54,64.6603" /><path
         id="path152"
         style="fill:#010101;fill-opacity:1;fill-rule:evenodd;stroke:none"
         d="m 3545.05,339.188 c 22.67,0 39.96,-17.301 39.96,-39.989 0,-22.687 -17.29,-39.988 -39.96,-39.988 -22.67,0 -39.96,17.301 -39.96,39.988 0,22.688 17.29,39.989 39.96,39.989 z m -39.96,0 0,0 z m 80.2,-80.262 0,0" /><path
         id="path154"
         style="fill:#010101;fill-opacity:1;fill-rule:evenodd;stroke:none"
         d="m 1944.13,640.086 c 22.67,0 39.95,-17.301 39.95,-39.988 0,-22.688 -17.28,-40.27 -39.95,-40.27 -22.68,0 -39.97,17.582 -39.97,40.27 0,22.687 17.29,39.988 39.97,39.988 z m -39.97,0 0,0 z m 80.21,-80.543 0,0" /><path
         id="path156"
         style="fill:#010101;fill-opacity:1;fill-rule:evenodd;stroke:none"
         d="m 4345.66,339.188 c 22.67,0 39.96,-17.301 39.96,-39.989 0,-22.687 -17.29,-39.988 -39.96,-39.988 -22.68,0 -39.96,17.301 -39.96,39.988 0,22.688 17.28,39.989 39.96,39.989 z m -39.96,0 0,0 z m 80.2,-80.262 0,0" /><g
         transform="scale(0.999647,1.00035)"
         id="g158"><path
           id="path160"
           style="fill:none;stroke:#010101;stroke-width:7.0857501;stroke-linecap:butt;stroke-linejoin:round;stroke-miterlimit:10;stroke-dasharray:none;stroke-opacity:1"
           d="M 2024.19,379.608 1864.58,219.712" /></g><g
         transform="scale(0.999647,1.00035)"
         id="g162"><path
           id="path164"
           style="fill:none;stroke:#010101;stroke-width:7.0857501;stroke-linecap:butt;stroke-linejoin:round;stroke-miterlimit:10;stroke-dasharray:none;stroke-opacity:1"
           d="M 1864.58,379.608 2024.19,219.712" /></g><g
         transform="scale(0.999647,1.00035)"
         id="g166"><path
           id="path168"
           style="fill:none;stroke:#010101;stroke-width:7.0857501;stroke-linecap:butt;stroke-linejoin:round;stroke-miterlimit:10;stroke-dasharray:none;stroke-opacity:1"
           d="M 4426.57,679.549 4266.68,519.657" /></g><g
         transform="scale(0.999647,1.00035)"
         id="g170"><path
           id="path172"
           style="fill:none;stroke:#010101;stroke-width:7.0857501;stroke-linecap:butt;stroke-linejoin:round;stroke-miterlimit:10;stroke-dasharray:none;stroke-opacity:1"
           d="M 4266.68,679.549 4426.57,519.657" /></g><g
         transform="scale(0.999647,1.00035)"
         id="g174"><path
           id="path176"
           style="fill:none;stroke:#010101;stroke-width:7.37099981;stroke-linecap:butt;stroke-linejoin:round;stroke-miterlimit:10;stroke-dasharray:none;stroke-opacity:1"
           d="m 1984.78,599.32 548.57,0.566" /></g><path
         id="path178"
         style="fill:#010101;fill-opacity:1;fill-rule:evenodd;stroke:none"
         d="m 2594.24,600.098 -64.61,21.554 0,-43.109 64.61,21.555" /><g
         transform="scale(0.999647,1.00035)"
         id="g180"><path
           id="path182"
           style="fill:none;stroke:#010101;stroke-width:7.37099981;stroke-linecap:butt;stroke-linejoin:round;stroke-miterlimit:10;stroke-dasharray:none;stroke-opacity:1"
           d="m 2785.67,599.32 548.29,0.566" /></g><path
         id="path184"
         style="fill:#010101;fill-opacity:1;fill-rule:evenodd;stroke:none"
         d="m 3394.57,600.098 -64.62,21.554 0,-43.109 64.62,21.555" /><g
         transform="scale(0.999647,1.00035)"
         id="g186"><path
           id="path188"
           style="fill:none;stroke:#010101;stroke-width:7.37099981;stroke-linecap:butt;stroke-linejoin:round;stroke-miterlimit:10;stroke-dasharray:none;stroke-opacity:1"
           d="m 3586.28,599.32 548.57,0.566" /></g><path
         id="path190"
         style="fill:#010101;fill-opacity:1;fill-rule:evenodd;stroke:none"
         d="m 4195.17,600.098 -64.62,21.554 0,-43.109 64.62,21.555" /><g
         transform="scale(0.999647,1.00035)"
         id="g192"><path
           id="path194"
           style="fill:none;stroke:#010101;stroke-width:7.37099981;stroke-linecap:butt;stroke-linejoin:round;stroke-miterlimit:10;stroke-dasharray:none;stroke-opacity:1"
           d="m 2705.72,299.094 -549.14,0.281" /></g><path
         id="path196"
         style="fill:#010101;fill-opacity:1;fill-rule:evenodd;stroke:none"
         d="m 2094.04,299.48 64.62,-21.55 0,43.105 -64.62,-21.555" /><g
         transform="scale(0.999647,1.00035)"
         id="g198"><path
           id="path200"
           style="fill:none;stroke:#010101;stroke-width:7.37099981;stroke-linecap:butt;stroke-linejoin:round;stroke-miterlimit:10;stroke-dasharray:none;stroke-opacity:1"
           d="m 3506.33,299.094 -548.86,0.281" /></g><path
         id="path202"
         style="fill:#010101;fill-opacity:1;fill-rule:evenodd;stroke:none"
         d="m 2894.65,299.48 64.61,-21.55 0,43.105 -64.61,-21.555" /><g
         transform="scale(0.999647,1.00035)"
         id="g204"><path
           id="path206"
           style="fill:none;stroke:#010101;stroke-width:7.37099981;stroke-linecap:butt;stroke-linejoin:round;stroke-miterlimit:10;stroke-dasharray:none;stroke-opacity:1"
           d="m 4307.21,299.094 -549.13,0.281" /></g><path
         id="path208"
         style="fill:#010101;fill-opacity:1;fill-rule:evenodd;stroke:none"
         d="m 3694.97,299.48 64.62,-21.55 0,43.105 -64.62,-21.555" /><path
         id="path210"
         style="fill:#010101;fill-opacity:1;fill-rule:evenodd;stroke:none"
         d="m 1151.74,1468.77 c -5.67,0 -9.92,-2.84 -12.76,-8.23 -2.83,-5.67 -4.25,-13.9 -4.25,-24.96 0,-11.06 1.42,-19.28 4.25,-24.95 2.84,-5.39 7.09,-8.23 12.76,-8.23 5.67,0 9.92,2.84 12.75,8.23 2.83,5.67 4.25,13.89 4.25,24.95 0,11.06 -1.42,19.29 -4.25,24.96 -2.83,5.39 -7.08,8.23 -12.75,8.23 z m 0,8.5 c 9.06,0 15.87,-3.68 20.69,-10.77 4.81,-7.09 7.08,-17.3 7.08,-30.92 0,-13.61 -2.27,-23.82 -7.08,-30.91 -4.82,-7.09 -11.63,-10.78 -20.69,-10.78 -9.07,0 -15.87,3.69 -20.69,10.78 -4.82,7.09 -7.09,17.3 -7.09,30.91 0,13.62 2.27,23.83 7.09,30.92 4.82,7.09 11.62,10.77 20.69,10.77" /><path
         id="path212"
         style="fill:#010101;fill-opacity:1;fill-rule:evenodd;stroke:none"
         d="m 1961.7,1438.99 c 5.38,-1.14 9.35,-3.41 12.46,-7.09 2.84,-3.41 4.25,-7.94 4.25,-13.05 0,-7.94 -2.83,-14.18 -8.21,-18.43 -5.39,-4.26 -13.04,-6.53 -22.96,-6.53 -3.4,0 -7.08,0.29 -10.49,1.14 -3.68,0.57 -7.36,1.42 -11.05,2.83 l 0,10.5 c 3.12,-1.7 6.24,-3.12 9.92,-3.97 3.4,-0.85 7.37,-1.42 11.06,-1.42 6.8,0 12.18,1.42 15.58,3.97 3.69,2.84 5.38,6.81 5.38,11.91 0,4.82 -1.69,8.51 -5.09,11.35 -3.12,2.55 -7.66,3.96 -13.61,3.96 l -9.35,0 0,8.8 9.64,0 c 5.38,0 9.35,1.13 12.18,3.12 2.84,2.26 4.25,5.38 4.25,9.35 0,3.98 -1.41,7.38 -4.25,9.36 -3.12,2.27 -7.08,3.41 -12.47,3.41 -3.12,0 -6.23,-0.29 -9.64,-0.85 -3.39,-0.85 -7.08,-1.71 -11.05,-3.12 l 0,9.64 c 3.97,1.13 7.94,1.99 11.62,2.55 3.4,0.57 6.81,0.85 9.92,0.85 8.22,0 14.74,-1.98 19.56,-5.67 4.81,-3.69 7.08,-8.79 7.08,-15.03 0,-4.54 -1.13,-8.23 -3.68,-11.34 -2.55,-3.12 -6.24,-5.11 -11.05,-6.24" /><path
         id="path214"
         style="fill:#010101;fill-opacity:1;fill-rule:evenodd;stroke:none"
         d="m 2759.46,1466.5 -27.48,-42.83 27.48,0 0,42.83 z m -2.83,9.36 13.6,0 0,-52.19 11.34,0 0,-9.07 -11.34,0 0,-19 -10.77,0 0,19 -36.27,0 0,10.49 33.44,50.77" /><path
         id="path216"
         style="fill:#010101;fill-opacity:1;fill-rule:evenodd;stroke:none"
         d="m 3539.1,1404.67 37.97,0 0,-9.07 -51.01,0 0,9.07 c 4.25,4.26 9.64,9.93 17.01,17.3 7.08,7.09 11.33,11.63 13.32,13.9 3.4,3.97 5.95,7.09 7.36,9.92 1.42,2.55 1.99,5.39 1.99,7.94 0,4.26 -1.42,7.66 -4.54,10.5 -2.83,2.55 -6.8,3.97 -11.61,3.97 -3.41,0 -7.09,-0.57 -10.77,-1.7 -3.97,-1.42 -7.94,-3.12 -12.19,-5.68 l 0,11.06 c 4.25,1.71 8.5,3.12 12.19,3.98 3.97,0.85 7.36,1.41 10.48,1.41 8.22,0 14.74,-1.98 19.84,-6.23 4.82,-4.26 7.37,-9.65 7.37,-16.74 0,-3.12 -0.57,-6.24 -1.99,-9.36 -1.13,-2.83 -3.39,-6.52 -6.51,-10.49 -0.85,-0.85 -3.69,-3.97 -8.51,-9.07 -4.81,-4.83 -11.61,-11.92 -20.4,-20.71" /><path
         id="path218"
         style="fill:#010101;fill-opacity:1;fill-rule:evenodd;stroke:none"
         d="m 4332.34,1404.67 17.85,0 0,61.26 -19.27,-3.97 0,9.92 19.27,3.98 10.77,0 0,-71.19 17.85,0 0,-9.07 -46.47,0 0,9.07" /><path
         id="path220"
         style="fill:#010101;fill-opacity:1;fill-rule:evenodd;stroke:none"
         d="m 257.609,1462.52 9.922,0 0,-60.12 -9.922,0 0,60.12 z m 0,23.54 9.922,0 0,-12.47 -9.922,0 0,12.47" /><path
         id="path222"
         style="fill:#010101;fill-opacity:1;fill-rule:evenodd;stroke:none"
         d="m 338.664,1438.7 0,-36.3 -9.922,0 0,36.02 c 0,5.67 -1.133,9.92 -3.398,12.76 -2.27,2.84 -5.387,4.25 -9.918,4.25 -5.387,0 -9.637,-1.7 -12.754,-5.1 -3.117,-3.4 -4.535,-7.94 -4.535,-13.9 l 0,-34.03 -9.918,0 0,60.12 9.918,0 0,-9.35 c 2.265,3.68 5.101,6.24 8.504,8.22 3.117,1.7 6.8,2.56 11.05,2.56 6.801,0 12.188,-2.27 15.586,-6.53 3.684,-4.25 5.387,-10.49 5.387,-18.72" /><path
         id="path224"
         style="fill:#010101;fill-opacity:1;fill-rule:evenodd;stroke:none"
         d="m 397.895,1453.45 0,32.61 9.918,0 0,-83.66 -9.918,0 0,8.8 c -1.985,-3.69 -4.821,-6.25 -7.938,-7.95 -3.117,-1.7 -6.801,-2.55 -11.336,-2.55 -7.367,0 -13.32,2.84 -17.851,8.79 -4.536,5.67 -6.805,13.33 -6.805,22.97 0,9.36 2.269,17.02 6.805,22.69 4.531,5.96 10.484,8.8 17.851,8.8 4.535,0 8.219,-0.86 11.336,-2.56 3.117,-1.7 5.953,-4.25 7.938,-7.94 z m -33.727,-20.99 c 0,-7.37 1.418,-13.04 4.535,-17.3 2.836,-4.25 7.086,-6.23 12.188,-6.23 5.382,0 9.351,1.98 12.468,6.23 3.118,4.26 4.536,9.93 4.536,17.3 0,7.09 -1.418,12.77 -4.536,17.02 -3.117,4.25 -7.086,6.24 -12.468,6.24 -5.102,0 -9.352,-1.99 -12.188,-6.24 -3.117,-4.25 -4.535,-9.93 -4.535,-17.02" /><path
         id="path226"
         style="fill:#010101;fill-opacity:1;fill-rule:evenodd;stroke:none"
         d="m 479.23,1434.73 0,-4.82 -45.628,0 c 0.566,-6.8 2.55,-11.91 6.234,-15.31 3.684,-3.69 8.785,-5.39 15.305,-5.39 3.968,0 7.652,0.57 11.05,1.42 3.688,0.85 7.372,2.26 10.77,4.25 l 0,-9.36 c -3.684,-1.7 -7.082,-2.83 -11.051,-3.68 -3.683,-0.86 -7.367,-1.14 -11.336,-1.14 -9.636,0 -17.004,2.84 -22.672,8.51 -5.668,5.39 -8.504,13.04 -8.504,22.69 0,9.64 2.551,17.58 7.938,23.25 5.383,5.96 12.469,8.8 21.539,8.8 8.219,0 14.453,-2.56 19.27,-7.95 4.816,-5.1 7.085,-12.19 7.085,-21.27 z m -9.921,2.84 c 0,5.39 -1.7,9.64 -4.532,13.04 -3.117,3.12 -6.804,4.82 -11.902,4.82 -5.387,0 -9.922,-1.7 -13.32,-4.82 -3.117,-3.11 -5.102,-7.37 -5.668,-13.04 l 35.422,0" /><path
         id="path228"
         style="fill:#010101;fill-opacity:1;fill-rule:evenodd;stroke:none"
         d="m 495.668,1486.06 9.918,0 0,-49.34 29.473,25.8 12.468,0 -31.738,-28.07 33.156,-32.05 -12.754,0 -30.605,29.5 0,-29.5 -9.918,0 0,83.66" /><path
         id="path230"
         style="fill:#010101;fill-opacity:1;fill-rule:evenodd;stroke:none"
         d="m 598.539,1460.82 0,-9.36 c -2.832,1.42 -5.668,2.56 -8.785,3.13 -2.832,0.84 -5.949,1.13 -9.352,1.13 -4.816,0 -8.5,-0.85 -11.05,-2.27 -2.551,-1.42 -3.684,-3.69 -3.684,-6.81 0,-2.26 0.848,-3.97 2.551,-5.39 1.699,-1.41 5.383,-2.55 10.765,-3.68 l 3.121,-0.85 c 7.083,-1.42 12.184,-3.69 15.02,-6.24 3.117,-2.84 4.535,-6.81 4.535,-11.63 0,-5.67 -2.269,-9.92 -6.805,-13.33 -4.25,-3.12 -10.484,-4.82 -18.136,-4.82 -3.403,0 -6.52,0.28 -10.203,0.85 -3.399,0.57 -7.082,1.7 -11.051,2.84 l 0,10.21 c 3.683,-1.99 7.367,-3.4 10.769,-4.26 3.684,-0.85 7.082,-1.41 10.77,-1.41 4.531,0 8.219,0.85 10.769,2.27 2.547,1.69 3.684,3.96 3.684,6.8 0,2.84 -0.852,4.82 -2.836,6.24 -1.699,1.42 -5.668,2.83 -11.617,4.25 l -3.688,0.85 c -5.949,1.14 -10.484,3.12 -13.316,5.96 -2.551,2.55 -3.969,6.24 -3.969,10.78 0,5.67 1.985,10.21 5.949,13.33 4.254,3.11 9.922,4.54 17.29,4.54 3.683,0 7.085,-0.29 10.203,-0.86 3.398,-0.57 6.234,-1.13 9.066,-2.27" /><path
         id="path232"
         style="fill:#010101;fill-opacity:1;fill-rule:evenodd;stroke:none"
         d="m 617.527,1462.52 9.922,0 0,-60.12 -9.922,0 0,60.12 z m 0,23.54 9.922,0 0,-12.47 -9.922,0 0,12.47" /><path
         id="path234"
         style="fill:#010101;fill-opacity:1;fill-rule:evenodd;stroke:none"
         d="m 650.969,1416.02 11.336,0 0,-13.62 -11.336,0 0,13.62 z m 0,43.39 11.336,0 0,-13.62 -11.336,0 0,13.62" /><path
         id="path236"
         style="fill:#010101;fill-opacity:1;fill-rule:evenodd;stroke:none"
         d="m 1952.34,1261.74 c -5.66,0 -9.92,-2.84 -12.75,-8.23 -2.84,-5.67 -4.25,-13.89 -4.25,-24.96 0,-11.05 1.41,-19.28 4.25,-24.95 2.83,-5.39 7.09,-8.22 12.75,-8.22 5.67,0 9.92,2.83 12.75,8.22 2.84,5.67 4.26,13.9 4.26,24.95 0,11.07 -1.42,19.29 -4.26,24.96 -2.83,5.39 -7.08,8.23 -12.75,8.23 z m 0,8.51 c 9.07,0 15.87,-3.69 20.69,-10.78 4.82,-7.09 7.09,-17.3 7.09,-30.92 0,-13.61 -2.27,-23.82 -7.09,-30.91 -4.82,-7.09 -11.62,-10.77 -20.69,-10.77 -9.07,0 -15.87,3.68 -20.68,10.77 -4.82,7.09 -7.09,17.3 -7.09,30.91 0,13.62 2.27,23.83 7.09,30.92 4.81,7.09 11.61,10.78 20.68,10.78" /><path
         id="path238"
         style="fill:#010101;fill-opacity:1;fill-rule:evenodd;stroke:none"
         d="m 2731.41,1197.64 17.85,0 0,61.26 -19.27,-3.97 0,9.93 19.27,3.97 10.77,0 0,-71.19 17.86,0 0,-9.07 -46.48,0 0,9.07" /><path
         id="path240"
         style="fill:#010101;fill-opacity:1;fill-rule:evenodd;stroke:none"
         d="m 3540.52,1197.64 36.84,0 0,-9.07 -48.75,0 0,9.07 c 6.8,7.09 12.47,13.33 17.57,18.72 5.11,5.39 8.51,9.36 10.49,11.63 3.4,4.25 5.95,7.65 7.08,10.49 1.42,2.84 1.99,5.39 1.99,8.23 0,4.53 -1.42,8.22 -3.97,10.77 -2.55,2.56 -6.23,3.69 -10.77,3.69 -3.4,0 -6.8,-0.57 -10.48,-1.7 -3.4,-1.42 -7.37,-3.12 -11.34,-5.67 l 0,11.06 c 3.68,1.7 7.37,3.12 10.77,3.97 3.68,0.85 7.09,1.42 10.77,1.42 7.65,0 14.17,-1.99 18.99,-6.25 4.81,-4.25 7.08,-9.64 7.08,-16.45 0,-3.4 -0.85,-6.8 -2.27,-10.2 -1.7,-3.69 -4.25,-7.38 -7.93,-11.63 -1.98,-2.27 -4.82,-5.39 -8.79,-9.64 -3.68,-3.97 -9.63,-10.21 -17.28,-18.44" /><path
         id="path242"
         style="fill:#010101;fill-opacity:1;fill-rule:evenodd;stroke:none"
         d="m 4363.23,1231.96 c 5.38,-1.14 9.35,-3.41 12.47,-7.09 2.83,-3.41 4.25,-7.94 4.25,-13.05 0,-7.94 -2.84,-14.18 -8.22,-18.43 -5.39,-4.25 -13.04,-6.52 -22.96,-6.52 -3.4,0 -7.08,0.28 -10.48,1.13 -3.69,0.57 -7.37,1.42 -11.06,2.84 l 0,10.49 c 3.12,-1.7 6.24,-3.12 9.92,-3.97 3.4,-0.85 7.37,-1.42 11.06,-1.42 6.8,0 12.18,1.42 15.58,3.97 3.69,2.84 5.39,6.81 5.39,11.91 0,4.82 -1.7,8.51 -5.1,11.35 -3.12,2.55 -7.65,3.97 -13.61,3.97 l -9.35,0 0,8.79 9.64,0 c 5.38,0 9.35,1.13 12.18,3.12 2.84,2.27 4.26,5.39 4.26,9.36 0,3.97 -1.42,7.37 -4.26,9.36 -3.12,2.27 -7.08,3.4 -12.47,3.4 -3.11,0 -6.23,-0.28 -9.63,-0.85 -3.4,-0.85 -7.09,-1.7 -11.05,-3.12 l 0,9.64 c 3.96,1.14 7.93,1.99 11.62,2.55 3.39,0.57 6.8,0.86 9.91,0.86 8.22,0 14.74,-1.99 19.56,-5.68 4.82,-3.68 7.08,-8.79 7.08,-15.03 0,-4.54 -1.13,-8.22 -3.68,-11.34 -2.55,-3.12 -6.24,-5.11 -11.05,-6.24" /><path
         id="path244"
         style="fill:#010101;fill-opacity:1;fill-rule:evenodd;stroke:none"
         d="m 235.789,1262.3 0,-31.76 -9.918,0 0,83.1 9.918,0 0,-9.08 c 1.984,3.69 4.816,6.24 7.934,7.94 3.117,1.7 6.804,2.55 11.336,2.55 7.371,0 13.32,-2.83 17.855,-8.79 4.535,-5.67 6.801,-13.33 6.801,-22.69 0,-9.64 -2.266,-17.3 -6.801,-22.97 -4.535,-5.96 -10.484,-8.79 -17.855,-8.79 -4.532,0 -8.219,0.85 -11.336,2.55 -3.118,1.7 -5.95,4.26 -7.934,7.94 z m 33.723,21.27 c 0,7.09 -1.414,12.77 -4.532,17.02 -2.835,4.25 -7.085,6.24 -12.187,6.24 -5.383,0 -9.637,-1.99 -12.469,-6.24 -3.117,-4.25 -4.535,-9.93 -4.535,-17.02 0,-7.37 1.418,-13.04 4.535,-17.3 2.832,-4.25 7.086,-6.23 12.469,-6.23 5.102,0 9.352,1.98 12.187,6.23 3.118,4.26 4.532,9.93 4.532,17.3" /><path
         id="path246"
         style="fill:#010101;fill-opacity:1;fill-rule:evenodd;stroke:none"
         d="m 319.391,1306.55 c -5.383,0 -9.633,-1.99 -12.75,-6.25 -3.121,-3.96 -4.536,-9.64 -4.536,-16.73 0,-7.37 1.415,-13.04 4.536,-17.01 3.117,-4.26 7.367,-6.24 12.75,-6.24 5.101,0 9.351,1.98 12.472,6.24 3.117,3.97 4.532,9.64 4.532,17.01 0,7.09 -1.415,12.48 -4.532,16.73 -3.121,4.26 -7.371,6.25 -12.472,6.25 z m 0,8.5 c 8.504,0 15.304,-2.83 20.121,-8.5 4.82,-5.39 7.371,-13.34 7.371,-22.98 0,-9.92 -2.551,-17.86 -7.371,-23.25 -4.817,-5.68 -11.617,-8.51 -20.121,-8.51 -8.786,0 -15.586,2.83 -20.403,8.51 -4.82,5.39 -7.371,13.33 -7.371,23.25 0,9.64 2.551,17.59 7.371,22.98 4.817,5.67 11.617,8.5 20.403,8.5" /><path
         id="path248"
         style="fill:#010101;fill-opacity:1;fill-rule:evenodd;stroke:none"
         d="m 363.32,1253.51 9.91797,0 0,83.6641 -9.91797,0 0,-83.6641 z" /><path
         id="path250"
         style="fill:#010101;fill-opacity:1;fill-rule:evenodd;stroke:none"
         d="m 417.73,1306.55 c -5.382,0 -9.632,-1.99 -12.75,-6.25 -3.121,-3.96 -4.535,-9.64 -4.535,-16.73 0,-7.37 1.414,-13.04 4.535,-17.01 3.118,-4.26 7.368,-6.24 12.75,-6.24 5.102,0 9.352,1.98 12.473,6.24 3.117,3.97 4.531,9.64 4.531,17.01 0,7.09 -1.414,12.48 -4.531,16.73 -3.121,4.26 -7.371,6.25 -12.473,6.25 z m 0,8.5 c 8.504,0 15.305,-2.83 20.122,-8.5 4.82,-5.39 7.371,-13.34 7.371,-22.98 0,-9.92 -2.551,-17.86 -7.371,-23.25 -4.817,-5.68 -11.618,-8.51 -20.122,-8.51 -8.785,0 -15.585,2.83 -20.402,8.51 -4.82,5.39 -7.371,13.33 -7.371,23.25 0,9.64 2.551,17.59 7.371,22.98 4.817,5.67 11.617,8.5 20.402,8.5" /><path
         id="path252"
         style="fill:#010101;fill-opacity:1;fill-rule:evenodd;stroke:none"
         d="m 457.406,1313.64 46.762,0 0,-9.08 -37.125,-43.11 37.125,0 0,-7.94 -48.176,0 0,9.08 37.125,43.11 -35.711,0 0,7.94 z m 19.274,7.65 -13.039,20.14 7.371,0 9.918,-13.05 9.636,13.05 7.368,0 -13.036,-20.14 -8.218,0" /><path
         id="path254"
         style="fill:#010101;fill-opacity:1;fill-rule:evenodd;stroke:none"
         d="m 546.113,1283.86 c -7.937,0 -13.32,-0.85 -16.437,-2.84 -3.117,-1.7 -4.535,-4.82 -4.535,-9.36 0,-3.68 1.132,-6.52 3.402,-8.5 2.266,-1.99 5.383,-3.12 9.352,-3.12 5.382,0 9.918,1.98 13.32,5.95 3.117,3.97 4.816,9.08 4.816,15.6 l 0,2.27 -9.918,0 z m 19.836,3.97 0,-34.32 -9.918,0 0,9.08 c -2.269,-3.69 -5.101,-6.53 -8.504,-8.23 -3.398,-1.7 -7.367,-2.55 -12.183,-2.55 -6.235,0 -11.055,1.7 -14.739,5.1 -3.683,3.69 -5.382,8.23 -5.382,14.18 0,6.81 2.265,11.92 6.8,15.32 4.536,3.4 11.336,5.11 20.122,5.11 l 13.886,0 0,0.84 c 0,4.54 -1.418,7.94 -4.535,10.5 -2.832,2.55 -7.086,3.69 -12.469,3.69 -3.402,0 -6.8,-0.29 -9.918,-1.14 -3.117,-0.85 -6.234,-1.98 -9.355,-3.69 l 0,9.08 c 3.687,1.42 7.086,2.55 10.488,3.12 3.399,0.85 6.801,1.13 9.918,1.13 8.504,0 15.02,-2.26 19.274,-6.8 4.25,-4.54 6.515,-11.35 6.515,-20.42" /><path
         id="path256"
         style="fill:#010101;fill-opacity:1;fill-rule:evenodd;stroke:none"
         d="m 586.355,1313.64 9.918,0 0,-61.26 c 0,-7.66 -1.418,-13.33 -4.535,-16.74 -2.832,-3.4 -7.652,-5.1 -14.168,-5.1 l -3.683,0 0,8.51 2.551,0 c 3.964,0 6.515,0.85 7.933,2.55 1.418,1.7 1.984,5.39 1.984,10.78 l 0,61.26 z m 0,23.54 9.918,0 0,-12.48 -9.918,0 0,12.48" /><path
         id="path258"
         style="fill:#010101;fill-opacity:1;fill-rule:evenodd;stroke:none"
         d="m 617.527,1313.64 9.922,0 0,-60.13 -9.922,0 0,60.13 z m 0,23.54 9.922,0 0,-12.48 -9.922,0 0,12.48" /><path
         id="path260"
         style="fill:#010101;fill-opacity:1;fill-rule:evenodd;stroke:none"
         d="m 650.969,1267.13 11.336,0 0,-13.62 -11.336,0 0,13.62 z m 0,43.39 11.336,0 0,-13.62 -11.336,0 0,13.62" /></g></g></svg>