<?xml version="1.0" encoding="UTF-8" standalone="no"?>
<svg
   xmlns:dc="http://purl.org/dc/elements/1.1/"
   xmlns:cc="http://creativecommons.org/ns#"
   xmlns:rdf="http://www.w3.org/1999/02/22-rdf-syntax-ns#"
   xmlns:svg="http://www.w3.org/2000/svg"
   xmlns="http://www.w3.org/2000/svg"
   viewBox="0 0 600 328.75"
   height="328.75"
   width="600"
   xml:space="preserve"
   version="1.1"
   id="svg2"><metadata
     id="metadata8"><rdf:RDF><cc:Work
         rdf:about=""><dc:format>image/svg+xml</dc:format><dc:type
           rdf:resource="http://purl.org/dc/dcmitype/StillImage" /></cc:Work></rdf:RDF></metadata><defs
     id="defs6" /><g
     transform="matrix(1.25,0,0,-1.25,0,328.75)"
     id="g10"><g
       transform="scale(0.1,0.1)"
       id="g12"><path
         id="path14"
         style="fill:#ffd321;fill-opacity:1;fill-rule:evenodd;stroke:none"
         d="m 699.75,2217.75 -107.937,0 0,216.11 215.875,0 0,-216.11 -107.938,0" /><g
         transform="scale(0.999471,1.00053)"
         id="g16"><path
           id="path18"
           style="fill:none;stroke:#010101;stroke-width:7.08526993;stroke-linecap:butt;stroke-linejoin:round;stroke-miterlimit:10;stroke-dasharray:none;stroke-opacity:1"
           d="m 699.839,2216.58 -107.995,0 0,215.99 215.99,0 0,-215.99 -107.995,0 z" /></g><path
         id="path20"
         style="fill:#010101;fill-opacity:1;fill-rule:evenodd;stroke:none"
         d="m 705.984,2358.7 -27.48,-42.82 27.48,0 0,42.82 z m -2.832,9.36 13.598,0 0,-52.18 11.332,0 0,-9.08 -11.332,0 0,-19 -10.766,0 0,19 -36.261,0 0,10.5 33.429,50.76" /><path
         id="path22"
         style="fill:#ffd321;fill-opacity:1;fill-rule:evenodd;stroke:none"
         d="m 699.75,2001.65 -107.937,0 0,216.1 215.875,0 0,-216.1 -107.938,0" /><g
         transform="scale(0.999471,1.00053)"
         id="g24"><path
           id="path26"
           style="fill:none;stroke:#010101;stroke-width:7.08526993;stroke-linecap:butt;stroke-linejoin:round;stroke-miterlimit:10;stroke-dasharray:none;stroke-opacity:1"
           d="m 699.839,2000.59 -107.995,0 0,215.99 215.99,0 0,-215.99 -107.995,0 z" /></g><path
         id="path28"
         style="fill:#010101;fill-opacity:1;fill-rule:evenodd;stroke:none"
         d="m 708.816,2115.09 c 5.383,-1.14 9.348,-3.41 12.465,-7.09 2.832,-3.41 4.25,-7.94 4.25,-13.05 0,-7.94 -2.832,-14.18 -8.215,-18.43 -5.382,-4.25 -13.031,-6.52 -22.949,-6.52 -3.398,0 -7.082,0.28 -10.48,1.13 -3.684,0.57 -7.367,1.42 -11.051,2.83 l 0,10.5 c 3.117,-1.7 6.234,-3.12 9.918,-3.97 3.398,-0.85 7.363,-1.42 11.047,-1.42 6.801,0 12.183,1.42 15.582,3.97 3.683,2.84 5.383,6.81 5.383,11.91 0,4.82 -1.7,8.51 -5.098,11.35 -3.117,2.55 -7.652,3.97 -13.602,3.97 l -9.347,0 0,8.79 9.633,0 c 5.382,0 9.347,1.14 12.183,3.12 2.832,2.27 4.246,5.39 4.246,9.36 0,3.97 -1.414,7.37 -4.246,9.35 -3.117,2.27 -7.086,3.41 -12.469,3.41 -3.113,0 -6.23,-0.28 -9.628,-0.85 -3.403,-0.85 -7.086,-1.7 -11.051,-3.12 l 0,9.64 c 3.965,1.14 7.933,1.99 11.617,2.55 3.398,0.57 6.797,0.86 9.914,0.86 8.215,0 14.73,-1.99 19.547,-5.68 4.816,-3.68 7.082,-8.79 7.082,-15.03 0,-4.54 -1.133,-8.22 -3.68,-11.34 -2.551,-3.12 -6.234,-5.11 -11.051,-6.24" /><path
         id="path30"
         style="fill:#ffd321;fill-opacity:1;fill-rule:evenodd;stroke:none"
         d="m 699.75,1785.55 -107.937,0 0,216.1 215.875,0 0,-216.1 -107.938,0" /><g
         transform="scale(0.999471,1.00053)"
         id="g32"><path
           id="path34"
           style="fill:none;stroke:#010101;stroke-width:7.08526993;stroke-linecap:butt;stroke-linejoin:round;stroke-miterlimit:10;stroke-dasharray:none;stroke-opacity:1"
           d="m 699.839,1784.88 -107.995,0 0,215.71 215.99,0 0,-215.71 -107.995,0 z" /></g><path
         id="path36"
         style="fill:#010101;fill-opacity:1;fill-rule:evenodd;stroke:none"
         d="m 677.938,1864.67 17.847,0 0,61.26 -19.265,-3.97 0,9.92 19.265,3.98 10.766,0 0,-71.19 17.847,0 0,-9.08 -46.46,0 0,9.08" /><path
         id="path38"
         style="fill:#ffffff;fill-opacity:1;fill-rule:evenodd;stroke:none"
         d="m 1131.5,2217.75 -107.94,0 0,216.11 215.88,0 0,-216.11 -107.94,0" /><g
         transform="scale(0.999471,1.00053)"
         id="g40"><path
           id="path42"
           style="fill:none;stroke:#010101;stroke-width:7.08526993;stroke-linecap:butt;stroke-linejoin:round;stroke-miterlimit:10;stroke-dasharray:none;stroke-opacity:1"
           d="m 1131.82,2216.58 -108,0 0,215.99 215.99,0 0,-215.99 -107.99,0 z" /></g><path
         id="path44"
         style="fill:#010101;fill-opacity:1;fill-rule:evenodd;stroke:none"
         d="m 1060.68,2338.28 9.0664,0 0,29.7773 -9.0664,0 0,-29.7773 z" /><path
         id="path46"
         style="fill:#010101;fill-opacity:1;fill-rule:evenodd;stroke:none"
         d="m 1107.99,2368.06 52.12,0 0,-8.22 -41.93,-62.96 43.07,0 0,-9.08 -54.4,0 0,8.23 40.8,62.95 -39.66,0 0,9.08" /><path
         id="path48"
         style="fill:#010101;fill-opacity:1;fill-rule:evenodd;stroke:none"
         d="m 1192.69,2338.28 9.0664,0 0,29.7773 -9.0664,0 0,-29.7773 z" /><path
         id="path50"
         style="fill:#ffffff;fill-opacity:1;fill-rule:evenodd;stroke:none"
         d="m 1131.5,2001.65 -107.94,0 0,216.1 215.88,0 0,-216.1 -107.94,0" /><g
         transform="scale(0.999471,1.00053)"
         id="g52"><path
           id="path54"
           style="fill:none;stroke:#010101;stroke-width:7.08526993;stroke-linecap:butt;stroke-linejoin:round;stroke-miterlimit:10;stroke-dasharray:none;stroke-opacity:1"
           d="m 1131.82,2000.59 -108,0 0,215.99 215.99,0 0,-215.99 -107.99,0 z" /></g><path
         id="path56"
         style="fill:#010101;fill-opacity:1;fill-rule:evenodd;stroke:none"
         d="m 1109.69,2080.77 17.85,0 0,61.26 -19.27,-3.97 0,9.92 19.27,3.98 10.76,0 0,-71.19 17.85,0 0,-9.07 -46.46,0 0,9.07" /><path
         id="path58"
         style="fill:#ffffff;fill-opacity:1;fill-rule:evenodd;stroke:none"
         d="m 1131.5,1785.55 -107.94,0 0,216.1 215.88,0 0,-216.1 -107.94,0" /><g
         transform="scale(0.999471,1.00053)"
         id="g60"><path
           id="path62"
           style="fill:none;stroke:#010101;stroke-width:7.08526993;stroke-linecap:butt;stroke-linejoin:round;stroke-miterlimit:10;stroke-dasharray:none;stroke-opacity:1"
           d="m 1131.82,1784.88 -108,0 0,215.71 215.99,0 0,-215.71 -107.99,0 z" /></g><path
         id="path64"
         style="fill:#010101;fill-opacity:1;fill-rule:evenodd;stroke:none"
         d="m 1137.73,1926.5 -27.48,-42.83 27.48,0 0,42.83 z m -2.83,9.36 13.6,0 0,-52.19 11.33,0 0,-9.07 -11.33,0 0,-19.01 -10.77,0 0,19.01 -36.26,0 0,10.49 33.43,50.77" /><path
         id="path66"
         style="fill:#ffffff;fill-opacity:1;fill-rule:evenodd;stroke:none"
         d="m 1347.38,2217.75 -107.94,0 0,216.11 215.87,0 0,-216.11 -107.93,0" /><g
         transform="scale(0.999471,1.00053)"
         id="g68"><path
           id="path70"
           style="fill:none;stroke:#010101;stroke-width:7.08526993;stroke-linecap:butt;stroke-linejoin:round;stroke-miterlimit:10;stroke-dasharray:none;stroke-opacity:1"
           d="m 1347.8,2216.58 -107.99,0 0,215.99 215.99,0 0,-215.99 -108,0 z" /></g><path
         id="path72"
         style="fill:#010101;fill-opacity:1;fill-rule:evenodd;stroke:none"
         d="m 1276.55,2338.28 9.0664,0 0,29.7773 -9.0664,0 0,-29.7773 z" /><path
         id="path74"
         style="fill:#010101;fill-opacity:1;fill-rule:evenodd;stroke:none"
         d="m 1318.76,2368.06 14.45,0 13.88,-40.84 14.17,40.84 14.44,0 0,-80.26 -9.91,0 0,70.9 -14.45,-42.25 -8.21,0 -14.45,42.25 0,-70.9 -9.92,0 0,80.26" /><path
         id="path76"
         style="fill:#010101;fill-opacity:1;fill-rule:evenodd;stroke:none"
         d="m 1408.57,2338.28 9.0664,0 0,29.7773 -9.0664,0 0,-29.7773 z" /><path
         id="path78"
         style="fill:#ffffff;fill-opacity:1;fill-rule:evenodd;stroke:none"
         d="m 1347.38,2001.65 -107.94,0 0,216.1 215.87,0 0,-216.1 -107.93,0" /><g
         transform="scale(0.999471,1.00053)"
         id="g80"><path
           id="path82"
           style="fill:none;stroke:#010101;stroke-width:7.08526993;stroke-linecap:butt;stroke-linejoin:round;stroke-miterlimit:10;stroke-dasharray:none;stroke-opacity:1"
           d="m 1347.8,2000.59 -107.99,0 0,215.99 215.99,0 0,-215.99 -108,0 z" /></g><path
         id="path84"
         style="fill:#010101;fill-opacity:1;fill-rule:evenodd;stroke:none"
         d="m 1353.61,2142.6 -27.48,-42.83 27.48,0 0,42.83 z m -2.84,9.36 13.6,0 0,-52.19 11.33,0 0,-9.07 -11.33,0 0,-19 -10.76,0 0,19 -36.27,0 0,10.49 33.43,50.77" /><path
         id="path86"
         style="fill:#ffffff;fill-opacity:1;fill-rule:evenodd;stroke:none"
         d="m 1347.38,1785.55 -107.94,0 0,216.1 215.87,0 0,-216.1 -107.93,0" /><g
         transform="scale(0.999471,1.00053)"
         id="g88"><path
           id="path90"
           style="fill:none;stroke:#010101;stroke-width:7.08526993;stroke-linecap:butt;stroke-linejoin:round;stroke-miterlimit:10;stroke-dasharray:none;stroke-opacity:1"
           d="m 1347.8,1784.88 -107.99,0 0,215.71 215.99,0 0,-215.71 -108,0 z" /></g><path
         id="path92"
         style="fill:#010101;fill-opacity:1;fill-rule:evenodd;stroke:none"
         d="m 1347.09,1928.76 c -5.66,0 -9.91,-2.83 -12.75,-8.22 -2.83,-5.67 -4.25,-13.9 -4.25,-24.96 0,-11.06 1.42,-19.28 4.25,-24.95 2.84,-5.39 7.09,-8.23 12.75,-8.23 5.67,0 9.92,2.84 12.75,8.23 2.83,5.67 4.25,13.89 4.25,24.95 0,11.06 -1.42,19.29 -4.25,24.96 -2.83,5.39 -7.08,8.22 -12.75,8.22 z m 0,8.51 c 9.07,0 15.87,-3.68 20.68,-10.77 4.82,-7.09 7.09,-17.3 7.09,-30.92 0,-13.61 -2.27,-23.82 -7.09,-30.91 -4.81,-7.09 -11.61,-10.78 -20.68,-10.78 -9.06,0 -15.86,3.69 -20.68,10.78 -4.82,7.09 -7.08,17.3 -7.08,30.91 0,13.62 2.26,23.83 7.08,30.92 4.82,7.09 11.62,10.77 20.68,10.77" /><path
         id="path94"
         style="fill:#ffffff;fill-opacity:1;fill-rule:evenodd;stroke:none"
         d="m 915.625,2217.75 -107.937,0 0,216.11 215.872,0 0,-216.11 -107.935,0" /><g
         transform="scale(0.999471,1.00053)"
         id="g96"><path
           id="path98"
           style="fill:none;stroke:#010101;stroke-width:7.08526993;stroke-linecap:butt;stroke-linejoin:round;stroke-miterlimit:10;stroke-dasharray:none;stroke-opacity:1"
           d="m 915.828,2216.58 -107.994,0 0,215.99 215.986,0 0,-215.99 -107.992,0 z" /></g><path
         id="path100"
         style="fill:#010101;fill-opacity:1;fill-rule:evenodd;stroke:none"
         d="m 844.801,2338.28 9.06641,0 0,29.7773 -9.06641,0 0,-29.7773 z" /><path
         id="path102"
         style="fill:#010101;fill-opacity:1;fill-rule:evenodd;stroke:none"
         d="m 915.625,2358.42 -11.613,-41.12 22.945,0 -11.332,41.12 z m -6.516,9.64 13.032,0 24.648,-80.26 -11.332,0 -5.949,20.7 -28.047,0 -5.668,-20.7 -11.332,0 24.648,80.26" /><path
         id="path104"
         style="fill:#010101;fill-opacity:1;fill-rule:evenodd;stroke:none"
         d="m 976.82,2338.28 9.0625,0 0,29.7773 -9.0625,0 0,-29.7773 z" /><path
         id="path106"
         style="fill:#ffffff;fill-opacity:1;fill-rule:evenodd;stroke:none"
         d="m 915.625,2001.65 -107.937,0 0,216.1 215.872,0 0,-216.1 -107.935,0" /><g
         transform="scale(0.999471,1.00053)"
         id="g108"><path
           id="path110"
           style="fill:none;stroke:#010101;stroke-width:7.08526993;stroke-linecap:butt;stroke-linejoin:round;stroke-miterlimit:10;stroke-dasharray:none;stroke-opacity:1"
           d="m 915.828,2000.59 -107.994,0 0,215.99 215.986,0 0,-215.99 -107.992,0 z" /></g><path
         id="path112"
         style="fill:#010101;fill-opacity:1;fill-rule:evenodd;stroke:none"
         d="m 915.344,2144.87 c -5.668,0 -9.918,-2.84 -12.75,-8.23 -2.832,-5.67 -4.25,-13.89 -4.25,-24.96 0,-11.05 1.418,-19.28 4.25,-24.95 2.832,-5.39 7.082,-8.23 12.75,-8.23 5.664,0 9.914,2.84 12.746,8.23 2.836,5.67 4.25,13.9 4.25,24.95 0,11.07 -1.414,19.29 -4.25,24.96 -2.832,5.39 -7.082,8.23 -12.746,8.23 z m 0,8.51 c 9.062,0 15.863,-3.69 20.679,-10.78 4.817,-7.09 7.082,-17.3 7.082,-30.92 0,-13.61 -2.265,-23.82 -7.082,-30.91 -4.816,-7.09 -11.617,-10.77 -20.679,-10.77 -9.067,0 -15.867,3.68 -20.684,10.77 -4.816,7.09 -7.082,17.3 -7.082,30.91 0,13.62 2.266,23.83 7.082,30.92 4.817,7.09 11.617,10.78 20.684,10.78" /><path
         id="path114"
         style="fill:#ffffff;fill-opacity:1;fill-rule:evenodd;stroke:none"
         d="m 915.625,1785.55 -107.937,0 0,216.1 215.872,0 0,-216.1 -107.935,0" /><g
         transform="scale(0.999471,1.00053)"
         id="g116"><path
           id="path118"
           style="fill:none;stroke:#010101;stroke-width:7.08526993;stroke-linecap:butt;stroke-linejoin:round;stroke-miterlimit:10;stroke-dasharray:none;stroke-opacity:1"
           d="m 915.828,1784.88 -107.994,0 0,215.71 215.986,0 0,-215.71 -107.992,0 z" /></g><path
         id="path120"
         style="fill:#010101;fill-opacity:1;fill-rule:evenodd;stroke:none"
         d="m 901.176,1864.67 37.965,0 0,-9.08 -50.996,0 0,9.08 c 4.25,4.26 9.632,9.93 17,17.3 7.082,7.09 11.332,11.63 13.312,13.9 3.402,3.97 5.949,7.09 7.367,9.92 1.418,2.55 1.985,5.39 1.985,7.94 0,4.26 -1.418,7.66 -4.536,10.5 -2.832,2.55 -6.796,3.97 -11.613,3.97 -3.398,0 -7.082,-0.57 -10.765,-1.7 -3.965,-1.42 -7.934,-3.12 -12.184,-5.68 l 0,11.06 c 4.25,1.71 8.5,3.12 12.184,3.98 3.964,0.84 7.367,1.41 10.48,1.41 8.219,0 14.734,-1.98 19.832,-6.24 4.816,-4.25 7.367,-9.64 7.367,-16.73 0,-3.12 -0.566,-6.24 -1.984,-9.36 -1.133,-2.83 -3.399,-6.52 -6.516,-10.49 -0.851,-0.85 -3.683,-3.97 -8.5,-9.08 -4.816,-4.82 -11.613,-11.91 -20.398,-20.7" /><path
         id="path122"
         style="fill:#ffffff;fill-opacity:1;fill-rule:evenodd;stroke:none"
         d="m 1563.25,2217.75 -107.94,0 0,216.11 215.88,0 0,-216.11 -107.94,0" /><g
         transform="scale(0.999471,1.00053)"
         id="g124"><path
           id="path126"
           style="fill:none;stroke:#010101;stroke-width:7.08526993;stroke-linecap:butt;stroke-linejoin:round;stroke-miterlimit:10;stroke-dasharray:none;stroke-opacity:1"
           d="m 1563.79,2216.58 -107.99,0 0,215.99 215.99,0 0,-215.99 -108,0 z" /></g><path
         id="path128"
         style="fill:#010101;fill-opacity:1;fill-rule:evenodd;stroke:none"
         d="m 1492.43,2338.28 9.0625,0 0,29.7773 -9.0625,0 0,-29.7773 z" /><path
         id="path130"
         style="fill:#010101;fill-opacity:1;fill-rule:evenodd;stroke:none"
         d="m 1540.87,2368.06 44.19,0 0,-9.08 -16.71,0 0,-62.1 16.71,0 0,-9.08 -44.19,0 0,9.08 16.71,0 0,62.1 -16.71,0 0,9.08" /><path
         id="path132"
         style="fill:#010101;fill-opacity:1;fill-rule:evenodd;stroke:none"
         d="m 1624.44,2338.28 9.0664,0 0,29.7773 -9.0664,0 0,-29.7773 z" /><path
         id="path134"
         style="fill:#ffffff;fill-opacity:1;fill-rule:evenodd;stroke:none"
         d="m 1563.25,2001.65 -107.94,0 0,216.1 215.88,0 0,-216.1 -107.94,0" /><g
         transform="scale(0.999471,1.00053)"
         id="g136"><path
           id="path138"
           style="fill:none;stroke:#010101;stroke-width:7.08526993;stroke-linecap:butt;stroke-linejoin:round;stroke-miterlimit:10;stroke-dasharray:none;stroke-opacity:1"
           d="m 1563.79,2000.59 -107.99,0 0,215.99 215.99,0 0,-215.99 -108,0 z" /></g><path
         id="path140"
         style="fill:#010101;fill-opacity:1;fill-rule:evenodd;stroke:none"
         d="m 1548.8,2080.77 37.96,0 0,-9.07 -50.99,0 0,9.07 c 4.25,4.26 9.63,9.93 17,17.3 7.08,7.09 11.33,11.63 13.31,13.9 3.4,3.97 5.95,7.09 7.37,9.92 1.41,2.56 1.98,5.4 1.98,7.95 0,4.25 -1.41,7.65 -4.53,10.49 -2.83,2.55 -6.8,3.97 -11.61,3.97 -3.41,0 -7.09,-0.57 -10.77,-1.7 -3.97,-1.42 -7.93,-3.12 -12.18,-5.67 l 0,11.05 c 4.25,1.71 8.5,3.13 12.18,3.98 3.96,0.85 7.36,1.42 10.48,1.42 8.21,0 14.73,-1.99 19.83,-6.24 4.82,-4.26 7.37,-9.65 7.37,-16.74 0,-3.11 -0.57,-6.24 -1.99,-9.36 -1.13,-2.83 -3.4,-6.52 -6.51,-10.49 -0.85,-0.85 -3.68,-3.97 -8.5,-9.07 -4.82,-4.82 -11.62,-11.91 -20.4,-20.71" /><path
         id="path142"
         style="fill:#ffffff;fill-opacity:1;fill-rule:evenodd;stroke:none"
         d="m 1563.25,1785.55 -107.94,0 0,216.1 215.88,0 0,-216.1 -107.94,0" /><g
         transform="scale(0.999471,1.00053)"
         id="g144"><path
           id="path146"
           style="fill:none;stroke:#010101;stroke-width:7.08526993;stroke-linecap:butt;stroke-linejoin:round;stroke-miterlimit:10;stroke-dasharray:none;stroke-opacity:1"
           d="m 1563.79,1784.88 -107.99,0 0,215.71 215.99,0 0,-215.71 -108,0 z" /></g><path
         id="path148"
         style="fill:#010101;fill-opacity:1;fill-rule:evenodd;stroke:none"
         d="m 1572.32,1898.98 c 5.38,-1.13 9.34,-3.4 12.46,-7.09 2.83,-3.4 4.25,-7.94 4.25,-13.04 0,-7.94 -2.83,-14.18 -8.22,-18.44 -5.38,-4.25 -13.03,-6.52 -22.94,-6.52 -3.4,0 -7.08,0.29 -10.49,1.14 -3.68,0.56 -7.36,1.42 -11.04,2.83 l 0,10.5 c 3.11,-1.7 6.23,-3.12 9.91,-3.97 3.4,-0.85 7.37,-1.42 11.05,-1.42 6.8,0 12.18,1.42 15.58,3.97 3.69,2.83 5.39,6.81 5.39,11.91 0,4.82 -1.7,8.51 -5.11,11.35 -3.11,2.55 -7.64,3.96 -13.59,3.96 l -9.35,0 0,8.8 9.63,0 c 5.38,0 9.35,1.13 12.18,3.11 2.83,2.27 4.25,5.39 4.25,9.36 0,3.98 -1.42,7.38 -4.25,9.36 -3.12,2.27 -7.08,3.41 -12.46,3.41 -3.12,0 -6.24,-0.29 -9.64,-0.86 -3.39,-0.84 -7.08,-1.7 -11.04,-3.11 l 0,9.64 c 3.96,1.13 7.93,1.99 11.61,2.55 3.4,0.57 6.8,0.85 9.92,0.85 8.21,0 14.73,-1.98 19.54,-5.67 4.82,-3.69 7.09,-8.79 7.09,-15.03 0,-4.54 -1.14,-8.23 -3.69,-11.34 -2.55,-3.12 -6.23,-5.11 -11.04,-6.25" /><path
         id="path150"
         style="fill:#010101;fill-opacity:1;fill-rule:evenodd;stroke:none"
         d="m 706.266,2556.37 c -5.664,0 -9.914,-2.83 -12.746,-8.23 -2.836,-5.67 -4.25,-13.89 -4.25,-24.95 0,-11.06 1.414,-19.28 4.25,-24.96 2.832,-5.39 7.082,-8.22 12.746,-8.22 5.668,0 9.918,2.83 12.75,8.22 2.832,5.68 4.25,13.9 4.25,24.96 0,11.06 -1.418,19.28 -4.25,24.95 -2.832,5.4 -7.082,8.23 -12.75,8.23 z m 0,8.51 c 9.066,0 15.867,-3.69 20.683,-10.78 4.817,-7.09 7.082,-17.3 7.082,-30.91 0,-13.61 -2.265,-23.82 -7.082,-30.91 -4.816,-7.09 -11.617,-10.78 -20.683,-10.78 -9.063,0 -15.864,3.69 -20.68,10.78 -4.816,7.09 -7.082,17.3 -7.082,30.91 0,13.61 2.266,23.82 7.082,30.91 4.816,7.09 11.617,10.78 20.68,10.78" /><path
         id="path152"
         style="fill:#010101;fill-opacity:1;fill-rule:evenodd;stroke:none"
         d="m 900.609,2492.28 17.848,0 0,61.26 -19.262,-3.98 0,9.93 19.262,3.97 10.766,0 0,-71.18 17.847,0 0,-9.08 -46.461,0 0,9.08" /><path
         id="path154"
         style="fill:#010101;fill-opacity:1;fill-rule:evenodd;stroke:none"
         d="m 1123.85,2492.28 37.96,0 0,-9.08 -50.99,0 0,9.08 c 4.25,4.25 9.63,9.92 17,17.3 7.08,7.09 11.33,11.62 13.31,13.89 3.4,3.98 5.95,7.09 7.37,9.93 1.41,2.55 1.98,5.39 1.98,7.94 0,4.25 -1.41,7.66 -4.53,10.49 -2.83,2.56 -6.8,3.97 -11.62,3.97 -3.4,0 -7.08,-0.57 -10.76,-1.7 -3.97,-1.42 -7.93,-3.12 -12.18,-5.67 l 0,11.06 c 4.25,1.7 8.5,3.12 12.18,3.97 3.97,0.85 7.36,1.42 10.48,1.42 8.22,0 14.73,-1.99 19.83,-6.24 4.82,-4.25 7.37,-9.64 7.37,-16.73 0,-3.12 -0.57,-6.24 -1.98,-9.36 -1.14,-2.84 -3.41,-6.53 -6.52,-10.5 -0.85,-0.85 -3.68,-3.96 -8.5,-9.07 -4.82,-4.82 -11.62,-11.91 -20.4,-20.7" /><path
         id="path156"
         style="fill:#010101;fill-opacity:1;fill-rule:evenodd;stroke:none"
         d="m 1363.24,2526.59 c 5.38,-1.13 9.35,-3.4 12.46,-7.09 2.84,-3.4 4.25,-7.94 4.25,-13.04 0,-7.94 -2.83,-14.18 -8.21,-18.44 -5.38,-4.25 -13.03,-6.52 -22.95,-6.52 -3.4,0 -7.08,0.29 -10.48,1.13 -3.68,0.57 -7.36,1.42 -11.05,2.84 l 0,10.49 c 3.12,-1.7 6.23,-3.12 9.92,-3.97 3.39,-0.85 7.36,-1.42 11.05,-1.42 6.79,0 12.18,1.42 15.57,3.98 3.69,2.83 5.39,6.8 5.39,11.91 0,4.82 -1.7,8.5 -5.1,11.34 -3.12,2.55 -7.65,3.97 -13.6,3.97 l -9.35,0 0,8.79 9.63,0 c 5.39,0 9.36,1.14 12.19,3.12 2.83,2.27 4.25,5.39 4.25,9.36 0,3.97 -1.42,7.37 -4.25,9.36 -3.12,2.27 -7.08,3.4 -12.47,3.4 -3.11,0 -6.23,-0.28 -9.63,-0.85 -3.4,-0.85 -7.08,-1.7 -11.05,-3.12 l 0,9.65 c 3.97,1.13 7.93,1.98 11.62,2.55 3.39,0.56 6.8,0.85 9.91,0.85 8.22,0 14.73,-1.99 19.55,-5.67 4.81,-3.69 7.08,-8.8 7.08,-15.03 0,-4.54 -1.13,-8.23 -3.68,-11.35 -2.55,-3.12 -6.24,-5.1 -11.05,-6.24" /><path
         id="path158"
         style="fill:#010101;fill-opacity:1;fill-rule:evenodd;stroke:none"
         d="m 1576.28,2554.1 -27.48,-42.82 27.48,0 0,42.82 z m -2.83,9.36 13.6,0 0,-52.18 11.33,0 0,-9.08 -11.33,0 0,-19 -10.77,0 0,19 -36.26,0 0,10.5 33.43,50.76" /><path
         id="path160"
         style="fill:#010101;fill-opacity:1;fill-rule:evenodd;stroke:none"
         d="m 924.691,1682.88 c 5.383,-1.13 9.348,-3.4 12.465,-7.09 2.832,-3.4 4.25,-7.94 4.25,-13.04 0,-7.95 -2.832,-14.18 -8.215,-18.44 -5.382,-4.25 -13.031,-6.52 -22.949,-6.52 -3.398,0 -7.082,0.28 -10.48,1.14 -3.684,0.56 -7.367,1.41 -11.051,2.83 l 0,10.49 c 3.117,-1.7 6.234,-3.12 9.918,-3.97 3.398,-0.85 7.363,-1.42 11.047,-1.42 6.801,0 12.183,1.42 15.582,3.98 3.683,2.83 5.383,6.8 5.383,11.91 0,4.82 -1.7,8.5 -5.098,11.34 -3.117,2.55 -7.652,3.97 -13.602,3.97 l -9.347,0 0,8.79 9.633,0 c 5.382,0 9.347,1.14 12.179,3.12 2.836,2.27 4.25,5.39 4.25,9.36 0,3.97 -1.414,7.37 -4.25,9.36 -3.113,2.27 -7.082,3.4 -12.465,3.4 -3.113,0 -6.23,-0.28 -9.628,-0.85 -3.403,-0.85 -7.086,-1.7 -11.051,-3.12 l 0,9.65 c 3.965,1.13 7.933,1.98 11.617,2.55 3.398,0.56 6.797,0.85 9.914,0.85 8.215,0 14.73,-1.99 19.547,-5.67 4.816,-3.69 7.082,-8.8 7.082,-15.04 0,-4.53 -1.133,-8.22 -3.684,-11.34 -2.547,-3.12 -6.23,-5.1 -11.047,-6.24" /><path
         id="path162"
         style="fill:#010101;fill-opacity:1;fill-rule:evenodd;stroke:none"
         d="m 1117.05,1648.57 37.97,0 0,-9.08 -51,0 0,9.08 c 4.25,4.25 9.63,9.92 17,17.3 7.08,7.09 11.33,11.62 13.31,13.89 3.4,3.97 5.95,7.09 7.37,9.93 1.42,2.55 1.98,5.39 1.98,7.94 0,4.25 -1.41,7.66 -4.53,10.49 -2.83,2.56 -6.8,3.97 -11.61,3.97 -3.41,0 -7.09,-0.56 -10.77,-1.7 -3.97,-1.42 -7.93,-3.12 -12.18,-5.67 l 0,11.06 c 4.25,1.7 8.5,3.12 12.18,3.97 3.96,0.85 7.36,1.42 10.48,1.42 8.21,0 14.73,-1.99 19.83,-6.24 4.82,-4.25 7.37,-9.64 7.37,-16.73 0,-3.12 -0.57,-6.24 -1.99,-9.36 -1.13,-2.84 -3.39,-6.52 -6.51,-10.5 -0.85,-0.85 -3.68,-3.96 -8.5,-9.07 -4.82,-4.82 -11.61,-11.91 -20.4,-20.7" /><path
         id="path164"
         style="fill:#010101;fill-opacity:1;fill-rule:evenodd;stroke:none"
         d="m 1347.09,1712.66 c -5.66,0 -9.91,-2.84 -12.75,-8.22 -2.83,-5.67 -4.25,-13.9 -4.25,-24.96 0,-11.06 1.42,-19.28 4.25,-24.96 2.84,-5.39 7.09,-8.22 12.75,-8.22 5.67,0 9.92,2.83 12.75,8.22 2.83,5.68 4.25,13.9 4.25,24.96 0,11.06 -1.42,19.29 -4.25,24.96 -2.83,5.38 -7.08,8.22 -12.75,8.22 z m 0,8.51 c 9.07,0 15.87,-3.69 20.68,-10.78 4.82,-7.09 7.09,-17.3 7.09,-30.91 0,-13.61 -2.27,-23.82 -7.09,-30.91 -4.81,-7.09 -11.61,-10.78 -20.68,-10.78 -9.06,0 -15.86,3.69 -20.68,10.78 -4.82,7.09 -7.08,17.3 -7.08,30.91 0,13.61 2.26,23.82 7.08,30.91 4.82,7.09 11.62,10.78 20.68,10.78" /><path
         id="path166"
         style="fill:#010101;fill-opacity:1;fill-rule:evenodd;stroke:none"
         d="m 1541.43,1648.57 17.86,0 0,61.25 -19.27,-3.96 0,9.92 19.27,3.97 10.76,0 0,-71.18 17.85,0 0,-9.08 -46.47,0 0,9.08" /><path
         id="path168"
         style="fill:#010101;fill-opacity:1;fill-rule:evenodd;stroke:none"
         d="m 132.301,2545.59 9.914,0 0,-60.12 -9.914,0 0,60.12 z m 0,23.54 9.914,0 0,-12.48 -9.914,0 0,12.48" /><path
         id="path170"
         style="fill:#010101;fill-opacity:1;fill-rule:evenodd;stroke:none"
         d="m 213.324,2521.77 0,-36.3 -9.914,0 0,36.02 c 0,5.67 -1.133,9.92 -3.398,12.76 -2.27,2.84 -5.383,4.25 -9.918,4.25 -5.383,0 -9.633,-1.7 -12.746,-5.1 -3.118,-3.4 -4.535,-7.94 -4.535,-13.9 l 0,-34.03 -9.915,0 0,60.12 9.915,0 0,-9.36 c 2.265,3.69 5.101,6.24 8.5,8.23 3.117,1.7 6.796,2.55 11.046,2.55 6.801,0 12.184,-2.27 15.582,-6.52 3.684,-4.26 5.383,-10.49 5.383,-18.72" /><path
         id="path172"
         style="fill:#010101;fill-opacity:1;fill-rule:evenodd;stroke:none"
         d="m 272.535,2536.52 0,32.61 9.914,0 0,-83.66 -9.914,0 0,8.79 c -1.984,-3.69 -4.816,-6.24 -7.933,-7.94 -3.118,-1.7 -6.797,-2.55 -11.332,-2.55 -7.364,0 -13.313,2.84 -17.848,8.79 -4.531,5.67 -6.797,13.33 -6.797,22.97 0,9.36 2.266,17.02 6.797,22.69 4.535,5.96 10.484,8.79 17.848,8.79 4.535,0 8.214,-0.85 11.332,-2.55 3.117,-1.7 5.949,-4.25 7.933,-7.94 z m -33.715,-20.99 c 0,-7.37 1.418,-13.04 4.535,-17.3 2.833,-4.25 7.083,-6.24 12.18,-6.24 5.383,0 9.352,1.99 12.465,6.24 3.117,4.26 4.535,9.93 4.535,17.3 0,7.09 -1.418,12.76 -4.535,17.02 -3.113,4.25 -7.082,6.24 -12.465,6.24 -5.097,0 -9.347,-1.99 -12.18,-6.24 -3.117,-4.26 -4.535,-9.93 -4.535,-17.02" /><path
         id="path174"
         style="fill:#010101;fill-opacity:1;fill-rule:evenodd;stroke:none"
         d="m 353.84,2517.8 0,-4.82 -45.61,0 c 0.567,-6.81 2.551,-11.91 6.235,-15.32 3.68,-3.68 8.781,-5.38 15.297,-5.38 3.965,0 7.648,0.56 11.047,1.42 3.683,0.85 7.367,2.26 10.765,4.25 l 0,-9.36 c -3.683,-1.7 -7.082,-2.84 -11.047,-3.69 -3.683,-0.85 -7.367,-1.13 -11.332,-1.13 -9.632,0 -17,2.84 -22.664,8.51 -5.668,5.38 -8.5,13.04 -8.5,22.68 0,9.65 2.551,17.59 7.934,23.26 5.383,5.96 12.465,8.79 21.531,8.79 8.215,0 14.445,-2.55 19.262,-7.94 4.816,-5.11 7.082,-12.19 7.082,-21.27 z m -9.914,2.84 c 0,5.38 -1.699,9.64 -4.531,13.04 -3.118,3.12 -6.801,4.82 -11.899,4.82 -5.383,0 -9.918,-1.7 -13.316,-4.82 -3.117,-3.12 -5.098,-7.37 -5.664,-13.04 l 35.41,0" /><path
         id="path176"
         style="fill:#010101;fill-opacity:1;fill-rule:evenodd;stroke:none"
         d="m 370.273,2569.13 9.915,0 0,-49.34 29.464,25.8 12.465,0 -31.73,-28.07 33.148,-32.05 -12.75,0 -30.597,29.49 0,-29.49 -9.915,0 0,83.66" /><path
         id="path178"
         style="fill:#010101;fill-opacity:1;fill-rule:evenodd;stroke:none"
         d="m 473.109,2543.89 0,-9.36 c -2.832,1.42 -5.664,2.56 -8.781,3.12 -2.832,0.85 -5.949,1.14 -9.348,1.14 -4.816,0 -8.5,-0.85 -11.05,-2.27 -2.547,-1.42 -3.68,-3.69 -3.68,-6.81 0,-2.27 0.848,-3.97 2.547,-5.39 1.699,-1.41 5.383,-2.55 10.766,-3.68 l 3.117,-0.85 c 7.082,-1.42 12.183,-3.69 15.015,-6.24 3.118,-2.84 4.532,-6.81 4.532,-11.63 0,-5.67 -2.266,-9.93 -6.797,-13.33 -4.25,-3.12 -10.485,-4.82 -18.133,-4.82 -3.399,0 -6.516,0.28 -10.199,0.85 -3.399,0.57 -7.082,1.7 -11.047,2.84 l 0,10.2 c 3.679,-1.98 7.363,-3.4 10.765,-4.25 3.68,-0.85 7.082,-1.42 10.766,-1.42 4.531,0 8.215,0.85 10.762,2.27 2.551,1.7 3.683,3.97 3.683,6.81 0,2.84 -0.847,4.82 -2.832,6.24 -1.699,1.42 -5.664,2.83 -11.613,4.25 l -3.684,0.85 c -5.949,1.14 -10.484,3.12 -13.316,5.96 -2.551,2.55 -3.965,6.24 -3.965,10.77 0,5.68 1.981,10.22 5.949,13.33 4.25,3.12 9.914,4.54 17.282,4.54 3.683,0 7.082,-0.28 10.199,-0.85 3.398,-0.57 6.23,-1.13 9.062,-2.27" /><path
         id="path180"
         style="fill:#010101;fill-opacity:1;fill-rule:evenodd;stroke:none"
         d="m 492.094,2545.59 9.914,0 0,-60.12 -9.914,0 0,60.12 z m 0,23.54 9.914,0 0,-12.48 -9.914,0 0,12.48" /><path
         id="path182"
         style="fill:#010101;fill-opacity:1;fill-rule:evenodd;stroke:none"
         d="m 525.523,2499.08 11.332,0 0,-13.61 -11.332,0 0,13.61 z m 0,43.39 11.332,0 0,-13.61 -11.332,0 0,13.61" /><path
         id="path184"
         style="fill:#010101;fill-opacity:1;fill-rule:evenodd;stroke:none"
         d="m 90.6563,1667 0,-31.76 -9.9141,0 0,83.09 9.9141,0 0,-9.07 c 1.9843,3.69 4.8164,6.24 7.9335,7.94 3.1132,1.7 6.7972,2.55 11.3322,2.55 7.363,0 13.312,-2.84 17.848,-8.79 4.531,-5.67 6.796,-13.33 6.796,-22.69 0,-9.64 -2.265,-17.3 -6.796,-22.97 -4.536,-5.96 -10.485,-8.79 -17.848,-8.79 -4.535,0 -8.219,0.85 -11.3322,2.55 -3.1171,1.7 -5.9492,4.25 -7.9335,7.94 z m 33.7107,21.27 c 0,7.09 -1.414,12.76 -4.531,17.02 -2.832,4.25 -7.082,6.24 -12.184,6.24 -5.382,0 -9.6286,-1.99 -12.4645,-6.24 -3.1133,-4.26 -4.5312,-9.93 -4.5312,-17.02 0,-7.37 1.4179,-13.04 4.5312,-17.3 2.8359,-4.25 7.0825,-6.24 12.4645,-6.24 5.102,0 9.352,1.99 12.184,6.24 3.117,4.26 4.531,9.93 4.531,17.3" /><path
         id="path186"
         style="fill:#010101;fill-opacity:1;fill-rule:evenodd;stroke:none"
         d="m 174.23,1711.24 c -5.382,0 -9.632,-1.98 -12.75,-6.24 -3.117,-3.97 -4.531,-9.64 -4.531,-16.73 0,-7.37 1.414,-13.04 4.531,-17.02 3.118,-4.25 7.368,-6.23 12.75,-6.23 5.098,0 9.348,1.98 12.465,6.23 3.118,3.98 4.532,9.65 4.532,17.02 0,7.09 -1.414,12.48 -4.532,16.73 -3.117,4.26 -7.367,6.24 -12.465,6.24 z m 0,8.51 c 8.497,0 15.297,-2.84 20.114,-8.51 4.816,-5.38 7.367,-13.33 7.367,-22.97 0,-9.93 -2.551,-17.87 -7.367,-23.25 -4.817,-5.68 -11.617,-8.51 -20.114,-8.51 -8.785,0 -15.582,2.83 -20.398,8.51 -4.816,5.38 -7.367,13.32 -7.367,23.25 0,9.64 2.551,17.59 7.367,22.97 4.816,5.67 11.613,8.51 20.398,8.51" /><path
         id="path188"
         style="fill:#010101;fill-opacity:1;fill-rule:evenodd;stroke:none"
         d="m 218.141,1658.21 9.91406,0 0,83.6602 -9.91406,0 0,-83.6602 z" /><path
         id="path190"
         style="fill:#010101;fill-opacity:1;fill-rule:evenodd;stroke:none"
         d="m 272.535,1711.24 c -5.383,0 -9.633,-1.98 -12.75,-6.24 -3.117,-3.97 -4.531,-9.64 -4.531,-16.73 0,-7.37 1.414,-13.04 4.531,-17.02 3.117,-4.25 7.367,-6.23 12.75,-6.23 5.098,0 9.348,1.98 12.465,6.23 3.117,3.98 4.531,9.65 4.531,17.02 0,7.09 -1.414,12.48 -4.531,16.73 -3.117,4.26 -7.367,6.24 -12.465,6.24 z m 0,8.51 c 8.5,0 15.297,-2.84 20.113,-8.51 4.817,-5.38 7.368,-13.33 7.368,-22.97 0,-9.93 -2.551,-17.87 -7.368,-23.25 -4.816,-5.68 -11.613,-8.51 -20.113,-8.51 -8.781,0 -15.582,2.83 -20.398,8.51 -4.817,5.38 -7.367,13.32 -7.367,23.25 0,9.64 2.55,17.59 7.367,22.97 4.816,5.67 11.617,8.51 20.398,8.51" /><path
         id="path192"
         style="fill:#010101;fill-opacity:1;fill-rule:evenodd;stroke:none"
         d="m 312.195,1718.33 46.746,0 0,-9.07 -37.113,-43.11 37.113,0 0,-7.94 -48.16,0 0,9.08 37.11,43.1 -35.696,0 0,7.94 z m 19.266,7.66 -13.031,20.14 7.367,0 9.914,-13.05 9.633,13.05 7.363,0 -13.031,-20.14 -8.215,0" /><path
         id="path194"
         style="fill:#010101;fill-opacity:1;fill-rule:evenodd;stroke:none"
         d="m 400.871,1688.55 c -7.933,0 -13.316,-0.85 -16.433,-2.83 -3.118,-1.7 -4.532,-4.82 -4.532,-9.36 0,-3.69 1.133,-6.52 3.399,-8.51 2.265,-1.98 5.383,-3.12 9.347,-3.12 5.383,0 9.918,1.99 13.317,5.96 3.117,3.97 4.816,9.07 4.816,15.6 l 0,2.26 -9.914,0 z m 19.828,3.97 0,-34.31 -9.914,0 0,9.08 c -2.265,-3.69 -5.097,-6.53 -8.5,-8.23 -3.398,-1.7 -7.363,-2.55 -12.18,-2.55 -6.234,0 -11.05,1.7 -14.734,5.1 -3.68,3.69 -5.383,8.23 -5.383,14.18 0,6.81 2.27,11.91 6.801,15.32 4.531,3.4 11.332,5.1 20.113,5.1 l 13.883,0 0,0.85 c 0,4.54 -1.418,7.94 -4.531,10.49 -2.836,2.56 -7.086,3.69 -12.469,3.69 -3.398,0 -6.797,-0.28 -9.914,-1.13 -3.117,-0.85 -6.23,-1.99 -9.348,-3.69 l 0,9.08 c 3.684,1.41 7.082,2.55 10.481,3.12 3.402,0.84 6.801,1.13 9.918,1.13 8.496,0 15.012,-2.27 19.262,-6.8 4.25,-4.54 6.515,-11.35 6.515,-20.43" /><path
         id="path196"
         style="fill:#010101;fill-opacity:1;fill-rule:evenodd;stroke:none"
         d="m 441.098,1718.33 9.914,0 0,-61.26 c 0,-7.65 -1.414,-13.32 -4.532,-16.73 -2.832,-3.4 -7.648,-5.1 -14.164,-5.1 l -3.683,0 0,8.51 2.551,0 c 3.964,0 6.515,0.85 7.929,2.55 1.418,1.7 1.985,5.39 1.985,10.77 l 0,61.26 z m 0,23.54 9.914,0 0,-12.48 -9.914,0 0,12.48" /><path
         id="path198"
         style="fill:#010101;fill-opacity:1;fill-rule:evenodd;stroke:none"
         d="m 472.262,1718.33 9.914,0 0,-60.12 -9.914,0 0,60.12 z m 0,23.54 9.914,0 0,-12.48 -9.914,0 0,12.48" /><path
         id="path200"
         style="fill:#010101;fill-opacity:1;fill-rule:evenodd;stroke:none"
         d="m 505.691,1671.82 11.332,0 0,-13.61 -11.332,0 0,13.61 z m 0,43.39 11.332,0 0,-13.61 -11.332,0 0,13.61" /><path
         id="path202"
         style="fill:#ff8080;fill-opacity:1;fill-rule:evenodd;stroke:none"
         d="m 3821.43,2217.75 -107.93,0 0,216.11 215.87,0 0,-216.11 -107.94,0" /><g
         transform="scale(0.999471,1.00053)"
         id="g204"><path
           id="path206"
           style="fill:none;stroke:#010101;stroke-width:7.08526993;stroke-linecap:butt;stroke-linejoin:round;stroke-miterlimit:10;stroke-dasharray:none;stroke-opacity:1"
           d="m 3823.46,2216.58 -108,0 0,215.99 215.99,0 0,-215.99 -107.99,0 z" /></g><path
         id="path208"
         style="fill:#010101;fill-opacity:1;fill-rule:evenodd;stroke:none"
         d="m 3830.5,2331.19 c 5.38,-1.13 9.35,-3.4 12.46,-7.09 2.84,-3.4 4.25,-7.94 4.25,-13.05 0,-7.93 -2.83,-14.17 -8.21,-18.43 -5.38,-4.25 -13.04,-6.52 -22.95,-6.52 -3.4,0 -7.08,0.28 -10.48,1.13 -3.68,0.57 -7.37,1.42 -11.05,2.84 l 0,10.49 c 3.12,-1.7 6.23,-3.11 9.92,-3.97 3.4,-0.85 7.36,-1.41 11.04,-1.41 6.81,0 12.19,1.41 15.59,3.96 3.68,2.84 5.38,6.81 5.38,11.91 0,4.83 -1.7,8.51 -5.1,11.35 -3.12,2.55 -7.65,3.97 -13.6,3.97 l -9.35,0 0,8.79 9.64,0 c 5.38,0 9.34,1.14 12.17,3.12 2.84,2.27 4.25,5.39 4.25,9.36 0,3.97 -1.41,7.38 -4.25,9.36 -3.11,2.27 -7.08,3.4 -12.46,3.4 -3.12,0 -6.23,-0.28 -9.63,-0.85 -3.4,-0.85 -7.08,-1.7 -11.05,-3.12 l 0,9.64 c 3.97,1.14 7.93,1.99 11.61,2.56 3.41,0.57 6.8,0.85 9.92,0.85 8.22,0 14.73,-1.99 19.55,-5.68 4.81,-3.68 7.08,-8.78 7.08,-15.03 0,-4.53 -1.13,-8.22 -3.68,-11.34 -2.55,-3.12 -6.23,-5.1 -11.05,-6.24" /><path
         id="path210"
         style="fill:#ffd321;fill-opacity:1;fill-rule:evenodd;stroke:none"
         d="m 3821.43,2001.65 -107.93,0 0,216.1 215.87,0 0,-216.1 -107.94,0" /><g
         transform="scale(0.999471,1.00053)"
         id="g212"><path
           id="path214"
           style="fill:none;stroke:#010101;stroke-width:7.08526993;stroke-linecap:butt;stroke-linejoin:round;stroke-miterlimit:10;stroke-dasharray:none;stroke-opacity:1"
           d="m 3823.46,2000.59 -108,0 0,215.99 215.99,0 0,-215.99 -107.99,0 z" /></g><path
         id="path216"
         style="fill:#010101;fill-opacity:1;fill-rule:evenodd;stroke:none"
         d="m 3830.5,2115.09 c 5.38,-1.14 9.35,-3.41 12.46,-7.09 2.84,-3.41 4.25,-7.94 4.25,-13.05 0,-7.94 -2.83,-14.18 -8.21,-18.43 -5.38,-4.25 -13.04,-6.52 -22.95,-6.52 -3.4,0 -7.08,0.28 -10.48,1.13 -3.68,0.57 -7.37,1.42 -11.05,2.83 l 0,10.5 c 3.12,-1.7 6.23,-3.12 9.92,-3.97 3.4,-0.85 7.36,-1.42 11.04,-1.42 6.81,0 12.19,1.42 15.59,3.97 3.68,2.84 5.38,6.81 5.38,11.91 0,4.82 -1.7,8.51 -5.1,11.35 -3.12,2.55 -7.65,3.97 -13.6,3.97 l -9.35,0 0,8.79 9.64,0 c 5.38,0 9.34,1.14 12.17,3.12 2.84,2.27 4.25,5.39 4.25,9.36 0,3.97 -1.41,7.37 -4.25,9.35 -3.11,2.27 -7.08,3.41 -12.46,3.41 -3.12,0 -6.23,-0.28 -9.63,-0.85 -3.4,-0.85 -7.08,-1.7 -11.05,-3.12 l 0,9.64 c 3.97,1.14 7.93,1.99 11.61,2.55 3.41,0.57 6.8,0.86 9.92,0.86 8.22,0 14.73,-1.99 19.55,-5.68 4.81,-3.68 7.08,-8.79 7.08,-15.03 0,-4.54 -1.13,-8.22 -3.68,-11.34 -2.55,-3.12 -6.23,-5.11 -11.05,-6.24" /><path
         id="path218"
         style="fill:#ffd321;fill-opacity:1;fill-rule:evenodd;stroke:none"
         d="m 3821.43,1785.55 -107.93,0 0,216.1 215.87,0 0,-216.1 -107.94,0" /><g
         transform="scale(0.999471,1.00053)"
         id="g220"><path
           id="path222"
           style="fill:none;stroke:#010101;stroke-width:7.08526993;stroke-linecap:butt;stroke-linejoin:round;stroke-miterlimit:10;stroke-dasharray:none;stroke-opacity:1"
           d="m 3823.46,1784.88 -108,0 0,215.71 215.99,0 0,-215.71 -107.99,0 z" /></g><path
         id="path224"
         style="fill:#010101;fill-opacity:1;fill-rule:evenodd;stroke:none"
         d="m 3799.62,1864.67 17.85,0 0,61.26 -19.27,-3.97 0,9.92 19.27,3.98 10.76,0 0,-71.19 17.85,0 0,-9.08 -46.46,0 0,9.08" /><path
         id="path226"
         style="fill:#ffffff;fill-opacity:1;fill-rule:evenodd;stroke:none"
         d="m 4253.18,2217.75 -107.93,0 0,216.11 215.87,0 0,-216.11 -107.94,0" /><g
         transform="scale(0.999471,1.00053)"
         id="g228"><path
           id="path230"
           style="fill:none;stroke:#010101;stroke-width:7.08526993;stroke-linecap:butt;stroke-linejoin:round;stroke-miterlimit:10;stroke-dasharray:none;stroke-opacity:1"
           d="m 4255.44,2216.58 -108,0 0,215.99 215.7,0 0,-215.99 -107.7,0 z" /></g><path
         id="path232"
         style="fill:#010101;fill-opacity:1;fill-rule:evenodd;stroke:none"
         d="m 4182.36,2338.28 9.0625,0 0,29.7773 -9.0625,0 0,-29.7773 z" /><path
         id="path234"
         style="fill:#010101;fill-opacity:1;fill-rule:evenodd;stroke:none"
         d="m 4229.67,2368.06 52.13,0 0,-8.22 -41.93,-62.96 43.06,0 0,-9.08 -54.39,0 0,8.23 40.79,62.95 -39.66,0 0,9.08" /><path
         id="path236"
         style="fill:#010101;fill-opacity:1;fill-rule:evenodd;stroke:none"
         d="m 4314.38,2338.28 9.0664,0 0,29.7773 -9.0664,0 0,-29.7773 z" /><path
         id="path238"
         style="fill:#ffffff;fill-opacity:1;fill-rule:evenodd;stroke:none"
         d="m 4253.18,2001.65 -107.93,0 0,216.1 215.87,0 0,-216.1 -107.94,0" /><g
         transform="scale(0.999471,1.00053)"
         id="g240"><path
           id="path242"
           style="fill:none;stroke:#010101;stroke-width:7.08526993;stroke-linecap:butt;stroke-linejoin:round;stroke-miterlimit:10;stroke-dasharray:none;stroke-opacity:1"
           d="m 4255.44,2000.59 -108,0 0,215.99 215.7,0 0,-215.99 -107.7,0 z" /></g><path
         id="path244"
         style="fill:#010101;fill-opacity:1;fill-rule:evenodd;stroke:none"
         d="m 4231.37,2080.77 17.85,0 0,61.26 -19.27,-3.97 0,9.92 19.27,3.98 10.76,0 0,-71.19 17.85,0 0,-9.07 -46.46,0 0,9.07" /><path
         id="path246"
         style="fill:#ffffff;fill-opacity:1;fill-rule:evenodd;stroke:none"
         d="m 4253.18,1785.55 -107.93,0 0,216.1 215.87,0 0,-216.1 -107.94,0" /><g
         transform="scale(0.999471,1.00053)"
         id="g248"><path
           id="path250"
           style="fill:none;stroke:#010101;stroke-width:7.08526993;stroke-linecap:butt;stroke-linejoin:round;stroke-miterlimit:10;stroke-dasharray:none;stroke-opacity:1"
           d="m 4255.44,1784.88 -108,0 0,215.71 215.7,0 0,-215.71 -107.7,0 z" /></g><path
         id="path252"
         style="fill:#010101;fill-opacity:1;fill-rule:evenodd;stroke:none"
         d="m 4259.41,1926.5 -27.47,-42.83 27.47,0 0,42.83 z m -2.83,9.36 13.6,0 0,-52.19 11.33,0 0,-9.07 -11.33,0 0,-19.01 -10.77,0 0,19.01 -36.26,0 0,10.49 33.43,50.77" /><path
         id="path254"
         style="fill:#ffffff;fill-opacity:1;fill-rule:evenodd;stroke:none"
         d="m 4469.06,2217.75 -107.94,0 0,216.11 215.88,0 0,-216.11 -107.94,0" /><g
         transform="scale(0.999471,1.00053)"
         id="g256"><path
           id="path258"
           style="fill:none;stroke:#010101;stroke-width:7.08526993;stroke-linecap:butt;stroke-linejoin:round;stroke-miterlimit:10;stroke-dasharray:none;stroke-opacity:1"
           d="m 4471.14,2216.58 -108,0 0,215.99 215.99,0 0,-215.99 -107.99,0 z" /></g><path
         id="path260"
         style="fill:#010101;fill-opacity:1;fill-rule:evenodd;stroke:none"
         d="m 4398.23,2338.28 9.0625,0 0,29.7773 -9.0625,0 0,-29.7773 z" /><path
         id="path262"
         style="fill:#010101;fill-opacity:1;fill-rule:evenodd;stroke:none"
         d="m 4440.45,2368.06 14.44,0 13.88,-40.84 14.17,40.84 14.45,0 0,-80.26 -9.92,0 0,70.9 -14.45,-42.25 -8.21,0 -14.45,42.25 0,-70.9 -9.91,0 0,80.26" /><path
         id="path264"
         style="fill:#010101;fill-opacity:1;fill-rule:evenodd;stroke:none"
         d="m 4530.25,2338.28 9.0664,0 0,29.7773 -9.0664,0 0,-29.7773 z" /><path
         id="path266"
         style="fill:#ffffff;fill-opacity:1;fill-rule:evenodd;stroke:none"
         d="m 4469.06,2001.65 -107.94,0 0,216.1 215.88,0 0,-216.1 -107.94,0" /><g
         transform="scale(0.999471,1.00053)"
         id="g268"><path
           id="path270"
           style="fill:none;stroke:#010101;stroke-width:7.08526993;stroke-linecap:butt;stroke-linejoin:round;stroke-miterlimit:10;stroke-dasharray:none;stroke-opacity:1"
           d="m 4471.14,2000.59 -108,0 0,215.99 215.99,0 0,-215.99 -107.99,0 z" /></g><path
         id="path272"
         style="fill:#010101;fill-opacity:1;fill-rule:evenodd;stroke:none"
         d="m 4475.29,2142.6 -27.48,-42.83 27.48,0 0,42.83 z m -2.83,9.36 13.59,0 0,-52.19 11.34,0 0,-9.07 -11.34,0 0,-19 -10.76,0 0,19 -36.26,0 0,10.49 33.43,50.77" /><path
         id="path274"
         style="fill:#ffffff;fill-opacity:1;fill-rule:evenodd;stroke:none"
         d="m 4469.06,1785.55 -107.94,0 0,216.1 215.88,0 0,-216.1 -107.94,0" /><g
         transform="scale(0.999471,1.00053)"
         id="g276"><path
           id="path278"
           style="fill:none;stroke:#010101;stroke-width:7.08526993;stroke-linecap:butt;stroke-linejoin:round;stroke-miterlimit:10;stroke-dasharray:none;stroke-opacity:1"
           d="m 4471.14,1784.88 -108,0 0,215.71 215.99,0 0,-215.71 -107.99,0 z" /></g><path
         id="path280"
         style="fill:#010101;fill-opacity:1;fill-rule:evenodd;stroke:none"
         d="m 4468.77,1928.76 c -5.66,0 -9.91,-2.83 -12.74,-8.22 -2.84,-5.67 -4.25,-13.9 -4.25,-24.96 0,-11.06 1.41,-19.28 4.25,-24.95 2.83,-5.39 7.08,-8.23 12.74,-8.23 5.67,0 9.92,2.84 12.75,8.23 2.84,5.67 4.25,13.89 4.25,24.95 0,11.06 -1.41,19.29 -4.25,24.96 -2.83,5.39 -7.08,8.22 -12.75,8.22 z m 0,8.51 c 9.07,0 15.87,-3.68 20.69,-10.77 4.81,-7.09 7.08,-17.3 7.08,-30.92 0,-13.61 -2.27,-23.82 -7.08,-30.91 -4.82,-7.09 -11.62,-10.78 -20.69,-10.78 -9.06,0 -15.86,3.69 -20.68,10.78 -4.81,7.09 -7.08,17.3 -7.08,30.91 0,13.62 2.27,23.83 7.08,30.92 4.82,7.09 11.62,10.77 20.68,10.77" /><path
         id="path282"
         style="fill:#ffffff;fill-opacity:1;fill-rule:evenodd;stroke:none"
         d="m 4037.31,2217.75 -107.94,0 0,216.11 215.88,0 0,-216.11 -107.94,0" /><g
         transform="scale(0.999471,1.00053)"
         id="g284"><path
           id="path286"
           style="fill:none;stroke:#010101;stroke-width:7.08526993;stroke-linecap:butt;stroke-linejoin:round;stroke-miterlimit:10;stroke-dasharray:none;stroke-opacity:1"
           d="m 4039.45,2216.58 -108,0 0,215.99 215.99,0 0,-215.99 -107.99,0 z" /></g><path
         id="path288"
         style="fill:#010101;fill-opacity:1;fill-rule:evenodd;stroke:none"
         d="m 3966.48,2338.28 9.0664,0 0,29.7773 -9.0664,0 0,-29.7773 z" /><path
         id="path290"
         style="fill:#010101;fill-opacity:1;fill-rule:evenodd;stroke:none"
         d="m 4037.31,2358.42 -11.61,-41.12 22.94,0 -11.33,41.12 z m -6.52,9.64 13.03,0 24.65,-80.26 -11.33,0 -5.95,20.7 -28.05,0 -5.66,-20.7 -11.34,0 24.65,80.26" /><path
         id="path292"
         style="fill:#010101;fill-opacity:1;fill-rule:evenodd;stroke:none"
         d="m 4098.5,2338.28 9.0664,0 0,29.7773 -9.0664,0 0,-29.7773 z" /><path
         id="path294"
         style="fill:#ffffff;fill-opacity:1;fill-rule:evenodd;stroke:none"
         d="m 4037.31,2001.65 -107.94,0 0,216.1 215.88,0 0,-216.1 -107.94,0" /><g
         transform="scale(0.999471,1.00053)"
         id="g296"><path
           id="path298"
           style="fill:none;stroke:#010101;stroke-width:7.08526993;stroke-linecap:butt;stroke-linejoin:round;stroke-miterlimit:10;stroke-dasharray:none;stroke-opacity:1"
           d="m 4039.45,2000.59 -108,0 0,215.99 215.99,0 0,-215.99 -107.99,0 z" /></g><path
         id="path300"
         style="fill:#010101;fill-opacity:1;fill-rule:evenodd;stroke:none"
         d="m 4037.03,2144.87 c -5.67,0 -9.92,-2.84 -12.75,-8.23 -2.83,-5.67 -4.25,-13.89 -4.25,-24.96 0,-11.05 1.42,-19.28 4.25,-24.95 2.83,-5.39 7.08,-8.23 12.75,-8.23 5.66,0 9.91,2.84 12.74,8.23 2.84,5.67 4.25,13.9 4.25,24.95 0,11.07 -1.41,19.29 -4.25,24.96 -2.83,5.39 -7.08,8.23 -12.74,8.23 z m 0,8.51 c 9.06,0 15.86,-3.69 20.68,-10.78 4.81,-7.09 7.08,-17.3 7.08,-30.92 0,-13.61 -2.27,-23.82 -7.08,-30.91 -4.82,-7.09 -11.62,-10.77 -20.68,-10.77 -9.07,0 -15.87,3.68 -20.69,10.77 -4.81,7.09 -7.08,17.3 -7.08,30.91 0,13.62 2.27,23.83 7.08,30.92 4.82,7.09 11.62,10.78 20.69,10.78" /><path
         id="path302"
         style="fill:#ffcccc;fill-opacity:1;fill-rule:evenodd;stroke:none"
         d="m 4037.31,1785.55 -107.94,0 0,216.1 215.88,0 0,-216.1 -107.94,0" /><g
         transform="scale(0.999471,1.00053)"
         id="g304"><path
           id="path306"
           style="fill:none;stroke:#010101;stroke-width:7.08526993;stroke-linecap:butt;stroke-linejoin:round;stroke-miterlimit:10;stroke-dasharray:none;stroke-opacity:1"
           d="m 4039.45,1784.88 -108,0 0,215.71 215.99,0 0,-215.71 -107.99,0 z" /></g><path
         id="path308"
         style="fill:#010101;fill-opacity:1;fill-rule:evenodd;stroke:none"
         d="m 4043.54,1926.5 -27.48,-42.83 27.48,0 0,42.83 z m -2.83,9.36 13.6,0 0,-52.19 11.33,0 0,-9.07 -11.33,0 0,-19.01 -10.77,0 0,19.01 -36.26,0 0,10.49 33.43,50.77" /><path
         id="path310"
         style="fill:#ffffff;fill-opacity:1;fill-rule:evenodd;stroke:none"
         d="m 4684.93,2217.75 -107.93,0 0,216.11 215.87,0 0,-216.11 -107.94,0" /><g
         transform="scale(0.999471,1.00053)"
         id="g312"><path
           id="path314"
           style="fill:none;stroke:#010101;stroke-width:7.08526993;stroke-linecap:butt;stroke-linejoin:round;stroke-miterlimit:10;stroke-dasharray:none;stroke-opacity:1"
           d="m 4687.13,2216.58 -108,0 0,215.99 215.99,0 0,-215.99 -107.99,0 z" /></g><path
         id="path316"
         style="fill:#010101;fill-opacity:1;fill-rule:evenodd;stroke:none"
         d="m 4614.11,2338.28 9.0625,0 0,29.7773 -9.0625,0 0,-29.7773 z" /><path
         id="path318"
         style="fill:#010101;fill-opacity:1;fill-rule:evenodd;stroke:none"
         d="m 4662.55,2368.06 44.2,0 0,-9.08 -16.72,0 0,-62.1 16.72,0 0,-9.08 -44.2,0 0,9.08 16.72,0 0,62.1 -16.72,0 0,9.08" /><path
         id="path320"
         style="fill:#010101;fill-opacity:1;fill-rule:evenodd;stroke:none"
         d="m 4746.13,2338.28 9.0664,0 0,29.7773 -9.0664,0 0,-29.7773 z" /><path
         id="path322"
         style="fill:#ffcccc;fill-opacity:1;fill-rule:evenodd;stroke:none"
         d="m 4684.93,2001.65 -107.93,0 0,216.1 215.87,0 0,-216.1 -107.94,0" /><g
         transform="scale(0.999471,1.00053)"
         id="g324"><path
           id="path326"
           style="fill:none;stroke:#010101;stroke-width:7.08526993;stroke-linecap:butt;stroke-linejoin:round;stroke-miterlimit:10;stroke-dasharray:none;stroke-opacity:1"
           d="m 4687.13,2000.59 -108,0 0,215.99 215.99,0 0,-215.99 -107.99,0 z" /></g><path
         id="path328"
         style="fill:#010101;fill-opacity:1;fill-rule:evenodd;stroke:none"
         d="m 4663.12,2080.77 17.84,0 0,61.26 -19.26,-3.97 0,9.92 19.26,3.98 10.77,0 0,-71.19 17.85,0 0,-9.07 -46.46,0 0,9.07" /><path
         id="path330"
         style="fill:#ffffff;fill-opacity:1;fill-rule:evenodd;stroke:none"
         d="m 4684.93,1785.55 -107.93,0 0,216.1 215.87,0 0,-216.1 -107.94,0" /><g
         transform="scale(0.999471,1.00053)"
         id="g332"><path
           id="path334"
           style="fill:none;stroke:#010101;stroke-width:7.08526993;stroke-linecap:butt;stroke-linejoin:round;stroke-miterlimit:10;stroke-dasharray:none;stroke-opacity:1"
           d="m 4687.13,1784.88 -108,0 0,215.71 215.99,0 0,-215.71 -107.99,0 z" /></g><path
         id="path336"
         style="fill:#010101;fill-opacity:1;fill-rule:evenodd;stroke:none"
         d="m 4694,1898.98 c 5.38,-1.13 9.35,-3.4 12.46,-7.09 2.84,-3.4 4.25,-7.94 4.25,-13.04 0,-7.94 -2.83,-14.18 -8.21,-18.44 -5.39,-4.25 -13.04,-6.52 -22.95,-6.52 -3.4,0 -7.08,0.29 -10.48,1.14 -3.69,0.56 -7.37,1.42 -11.05,2.83 l 0,10.5 c 3.12,-1.7 6.23,-3.12 9.91,-3.97 3.4,-0.85 7.37,-1.42 11.05,-1.42 6.8,0 12.18,1.42 15.59,3.97 3.68,2.83 5.38,6.81 5.38,11.91 0,4.82 -1.7,8.51 -5.1,11.35 -3.12,2.55 -7.65,3.96 -13.6,3.96 l -9.35,0 0,8.8 9.63,0 c 5.38,0 9.35,1.13 12.18,3.11 2.84,2.27 4.25,5.39 4.25,9.36 0,3.98 -1.41,7.38 -4.25,9.36 -3.11,2.27 -7.08,3.41 -12.46,3.41 -3.12,0 -6.23,-0.29 -9.63,-0.86 -3.4,-0.84 -7.08,-1.7 -11.05,-3.11 l 0,9.64 c 3.97,1.13 7.93,1.99 11.61,2.55 3.4,0.57 6.8,0.85 9.92,0.85 8.22,0 14.73,-1.98 19.55,-5.67 4.81,-3.69 7.08,-8.79 7.08,-15.03 0,-4.54 -1.13,-8.23 -3.68,-11.34 -2.55,-3.12 -6.24,-5.11 -11.05,-6.25" /><path
         id="path338"
         style="fill:#010101;fill-opacity:1;fill-rule:evenodd;stroke:none"
         d="m 3827.95,2556.37 c -5.66,0 -9.91,-2.83 -12.75,-8.23 -2.83,-5.67 -4.25,-13.89 -4.25,-24.95 0,-11.06 1.42,-19.28 4.25,-24.96 2.84,-5.39 7.09,-8.22 12.75,-8.22 5.67,0 9.92,2.83 12.75,8.22 2.83,5.68 4.25,13.9 4.25,24.96 0,11.06 -1.42,19.28 -4.25,24.95 -2.83,5.4 -7.08,8.23 -12.75,8.23 z m 0,8.51 c 9.07,0 15.87,-3.69 20.68,-10.78 4.82,-7.09 7.08,-17.3 7.08,-30.91 0,-13.61 -2.26,-23.82 -7.08,-30.91 -4.81,-7.09 -11.61,-10.78 -20.68,-10.78 -9.07,0 -15.86,3.69 -20.68,10.78 -4.82,7.09 -7.08,17.3 -7.08,30.91 0,13.61 2.26,23.82 7.08,30.91 4.82,7.09 11.61,10.78 20.68,10.78" /><path
         id="path340"
         style="fill:#010101;fill-opacity:1;fill-rule:evenodd;stroke:none"
         d="m 4022.29,2492.28 17.85,0 0,61.26 -19.26,-3.98 0,9.93 19.26,3.97 10.77,0 0,-71.18 17.84,0 0,-9.08 -46.46,0 0,9.08" /><path
         id="path342"
         style="fill:#010101;fill-opacity:1;fill-rule:evenodd;stroke:none"
         d="m 4245.54,2492.28 37.96,0 0,-9.08 -51,0 0,9.08 c 4.25,4.25 9.63,9.92 17,17.3 7.08,7.09 11.33,11.62 13.32,13.89 3.39,3.98 5.95,7.09 7.36,9.93 1.42,2.55 1.98,5.39 1.98,7.94 0,4.25 -1.41,7.66 -4.53,10.49 -2.83,2.56 -6.8,3.97 -11.61,3.97 -3.4,0 -7.09,-0.57 -10.77,-1.7 -3.96,-1.42 -7.93,-3.12 -12.18,-5.67 l 0,11.06 c 4.25,1.7 8.5,3.12 12.18,3.97 3.97,0.85 7.37,1.42 10.48,1.42 8.22,0 14.73,-1.99 19.83,-6.24 4.82,-4.25 7.37,-9.64 7.37,-16.73 0,-3.12 -0.57,-6.24 -1.98,-9.36 -1.14,-2.84 -3.4,-6.53 -6.52,-10.5 -0.85,-0.85 -3.68,-3.96 -8.5,-9.07 -4.81,-4.82 -11.61,-11.91 -20.39,-20.7" /><path
         id="path344"
         style="fill:#010101;fill-opacity:1;fill-rule:evenodd;stroke:none"
         d="m 4484.92,2526.59 c 5.38,-1.13 9.35,-3.4 12.47,-7.09 2.83,-3.4 4.25,-7.94 4.25,-13.04 0,-7.94 -2.84,-14.18 -8.22,-18.44 -5.38,-4.25 -13.03,-6.52 -22.95,-6.52 -3.4,0 -7.08,0.29 -10.48,1.13 -3.68,0.57 -7.36,1.42 -11.04,2.84 l 0,10.49 c 3.11,-1.7 6.23,-3.12 9.91,-3.97 3.4,-0.85 7.37,-1.42 11.05,-1.42 6.8,0 12.18,1.42 15.58,3.98 3.68,2.83 5.38,6.8 5.38,11.91 0,4.82 -1.7,8.5 -5.1,11.34 -3.11,2.55 -7.64,3.97 -13.59,3.97 l -9.36,0 0,8.79 9.64,0 c 5.38,0 9.34,1.14 12.18,3.12 2.83,2.27 4.25,5.39 4.25,9.36 0,3.97 -1.42,7.37 -4.25,9.36 -3.12,2.27 -7.08,3.4 -12.46,3.4 -3.12,0 -6.24,-0.28 -9.64,-0.85 -3.4,-0.85 -7.08,-1.7 -11.05,-3.12 l 0,9.65 c 3.97,1.13 7.94,1.98 11.62,2.55 3.4,0.56 6.8,0.85 9.91,0.85 8.22,0 14.73,-1.99 19.55,-5.67 4.82,-3.69 7.08,-8.8 7.08,-15.03 0,-4.54 -1.13,-8.23 -3.68,-11.35 -2.55,-3.12 -6.23,-5.1 -11.05,-6.24" /><path
         id="path346"
         style="fill:#010101;fill-opacity:1;fill-rule:evenodd;stroke:none"
         d="m 4697.96,2554.1 -27.48,-42.82 27.48,0 0,42.82 z m -2.83,9.36 13.6,0 0,-52.18 11.33,0 0,-9.08 -11.33,0 0,-19 -10.77,0 0,19 -36.26,0 0,10.5 33.43,50.76" /><path
         id="path348"
         style="fill:#010101;fill-opacity:1;fill-rule:evenodd;stroke:none"
         d="m 4022.86,1648.57 37.96,0 0,-9.08 -50.99,0 0,9.08 c 4.25,4.25 9.63,9.92 17,17.3 7.08,7.09 11.33,11.62 13.31,13.89 3.4,3.97 5.95,7.09 7.37,9.93 1.42,2.55 1.98,5.39 1.98,7.94 0,4.25 -1.42,7.66 -4.53,10.49 -2.83,2.56 -6.8,3.97 -11.62,3.97 -3.4,0 -7.08,-0.56 -10.76,-1.7 -3.97,-1.42 -7.94,-3.12 -12.19,-5.67 l 0,11.06 c 4.25,1.7 8.5,3.12 12.19,3.97 3.96,0.85 7.36,1.42 10.48,1.42 8.21,0 14.73,-1.99 19.83,-6.24 4.82,-4.25 7.37,-9.64 7.37,-16.73 0,-3.12 -0.57,-6.24 -1.99,-9.36 -1.13,-2.84 -3.39,-6.52 -6.51,-10.5 -0.85,-0.85 -3.69,-3.96 -8.5,-9.07 -4.82,-4.82 -11.62,-11.91 -20.4,-20.7" /><path
         id="path350"
         style="fill:#010101;fill-opacity:1;fill-rule:evenodd;stroke:none"
         d="m 4662.55,1648.57 17.85,0 0,61.25 -19.26,-3.96 0,9.92 19.26,3.97 10.76,0 0,-71.18 17.85,0 0,-9.08 -46.46,0 0,9.08" /><path
         id="path352"
         style="fill:#010101;fill-opacity:1;fill-rule:evenodd;stroke:none"
         d="m 4468.77,1712.66 c -5.66,0 -9.91,-2.84 -12.74,-8.22 -2.84,-5.67 -4.25,-13.9 -4.25,-24.96 0,-11.06 1.41,-19.28 4.25,-24.96 2.83,-5.39 7.08,-8.22 12.74,-8.22 5.67,0 9.92,2.83 12.75,8.22 2.84,5.68 4.25,13.9 4.25,24.96 0,11.06 -1.41,19.29 -4.25,24.96 -2.83,5.38 -7.08,8.22 -12.75,8.22 z m 0,8.51 c 9.07,0 15.87,-3.69 20.69,-10.78 4.81,-7.09 7.08,-17.3 7.08,-30.91 0,-13.61 -2.27,-23.82 -7.08,-30.91 -4.82,-7.09 -11.62,-10.78 -20.69,-10.78 -9.06,0 -15.86,3.69 -20.68,10.78 -4.81,7.09 -7.08,17.3 -7.08,30.91 0,13.61 2.27,23.82 7.08,30.91 4.82,7.09 11.62,10.78 20.68,10.78" /><path
         id="path354"
         style="fill:#010101;fill-opacity:1;fill-rule:evenodd;stroke:none"
         d="m 3253.98,2545.59 9.92,0 0,-60.12 -9.92,0 0,60.12 z m 0,23.54 9.92,0 0,-12.48 -9.92,0 0,12.48" /><path
         id="path356"
         style="fill:#010101;fill-opacity:1;fill-rule:evenodd;stroke:none"
         d="m 3335.01,2521.77 0,-36.3 -9.92,0 0,36.02 c 0,5.67 -1.13,9.92 -3.4,12.76 -2.26,2.84 -5.38,4.25 -9.91,4.25 -5.39,0 -9.64,-1.7 -12.75,-5.1 -3.12,-3.4 -4.53,-7.94 -4.53,-13.9 l 0,-34.03 -9.92,0 0,60.12 9.92,0 0,-9.36 c 2.26,3.69 5.09,6.24 8.5,8.23 3.11,1.7 6.79,2.55 11.04,2.55 6.8,0 12.19,-2.27 15.59,-6.52 3.68,-4.26 5.38,-10.49 5.38,-18.72" /><path
         id="path358"
         style="fill:#010101;fill-opacity:1;fill-rule:evenodd;stroke:none"
         d="m 3394.22,2536.52 0,32.61 9.91,0 0,-83.66 -9.91,0 0,8.79 c -1.99,-3.69 -4.82,-6.24 -7.93,-7.94 -3.12,-1.7 -6.81,-2.55 -11.34,-2.55 -7.36,0 -13.31,2.84 -17.84,8.79 -4.54,5.67 -6.81,13.33 -6.81,22.97 0,9.36 2.27,17.02 6.81,22.69 4.53,5.96 10.48,8.79 17.84,8.79 4.53,0 8.22,-0.85 11.34,-2.55 3.11,-1.7 5.94,-4.25 7.93,-7.94 z m -33.72,-20.99 c 0,-7.37 1.42,-13.04 4.54,-17.3 2.83,-4.25 7.08,-6.24 12.18,-6.24 5.38,0 9.35,1.99 12.46,6.24 3.12,4.26 4.54,9.93 4.54,17.3 0,7.09 -1.42,12.76 -4.54,17.02 -3.11,4.25 -7.08,6.24 -12.46,6.24 -5.1,0 -9.35,-1.99 -12.18,-6.24 -3.12,-4.26 -4.54,-9.93 -4.54,-17.02" /><path
         id="path360"
         style="fill:#010101;fill-opacity:1;fill-rule:evenodd;stroke:none"
         d="m 3475.52,2517.8 0,-4.82 -45.61,0 c 0.57,-6.81 2.55,-11.91 6.23,-15.32 3.69,-3.68 8.79,-5.38 15.31,-5.38 3.96,0 7.64,0.56 11.04,1.42 3.69,0.85 7.37,2.26 10.77,4.25 l 0,-9.36 c -3.69,-1.7 -7.08,-2.84 -11.05,-3.69 -3.68,-0.85 -7.37,-1.13 -11.33,-1.13 -9.63,0 -17,2.84 -22.67,8.51 -5.66,5.38 -8.5,13.04 -8.5,22.68 0,9.65 2.56,17.59 7.94,23.26 5.38,5.96 12.46,8.79 21.53,8.79 8.21,0 14.45,-2.55 19.26,-7.94 4.82,-5.11 7.08,-12.19 7.08,-21.27 z m -9.91,2.84 c 0,5.38 -1.7,9.64 -4.53,13.04 -3.12,3.12 -6.8,4.82 -11.9,4.82 -5.38,0 -9.92,-1.7 -13.32,-4.82 -3.11,-3.12 -5.1,-7.37 -5.66,-13.04 l 35.41,0" /><path
         id="path362"
         style="fill:#010101;fill-opacity:1;fill-rule:evenodd;stroke:none"
         d="m 3491.96,2569.13 9.91,0 0,-49.34 29.47,25.8 12.46,0 -31.73,-28.07 33.14,-32.05 -12.74,0 -30.6,29.49 0,-29.49 -9.91,0 0,83.66" /><path
         id="path364"
         style="fill:#010101;fill-opacity:1;fill-rule:evenodd;stroke:none"
         d="m 3594.79,2543.89 0,-9.36 c -2.83,1.42 -5.66,2.56 -8.78,3.12 -2.83,0.85 -5.95,1.14 -9.35,1.14 -4.81,0 -8.5,-0.85 -11.05,-2.27 -2.54,-1.42 -3.68,-3.69 -3.68,-6.81 0,-2.27 0.85,-3.97 2.55,-5.39 1.7,-1.41 5.38,-2.55 10.77,-3.68 l 3.11,-0.85 c 7.09,-1.42 12.18,-3.69 15.02,-6.24 3.11,-2.84 4.53,-6.81 4.53,-11.63 0,-5.67 -2.27,-9.93 -6.8,-13.33 -4.25,-3.12 -10.48,-4.82 -18.13,-4.82 -3.4,0 -6.52,0.28 -10.2,0.85 -3.4,0.57 -7.08,1.7 -11.05,2.84 l 0,10.2 c 3.68,-1.98 7.37,-3.4 10.77,-4.25 3.68,-0.85 7.08,-1.42 10.76,-1.42 4.54,0 8.22,0.85 10.77,2.27 2.55,1.7 3.68,3.97 3.68,6.81 0,2.84 -0.85,4.82 -2.83,6.24 -1.7,1.42 -5.67,2.83 -11.62,4.25 l -3.68,0.85 c -5.95,1.14 -10.48,3.12 -13.31,5.96 -2.56,2.55 -3.97,6.24 -3.97,10.77 0,5.68 1.98,10.22 5.95,13.33 4.25,3.12 9.91,4.54 17.28,4.54 3.68,0 7.08,-0.28 10.2,-0.85 3.4,-0.57 6.23,-1.13 9.06,-2.27" /><path
         id="path366"
         style="fill:#010101;fill-opacity:1;fill-rule:evenodd;stroke:none"
         d="m 3613.77,2545.59 9.92,0 0,-60.12 -9.92,0 0,60.12 z m 0,23.54 9.92,0 0,-12.48 -9.92,0 0,12.48" /><path
         id="path368"
         style="fill:#010101;fill-opacity:1;fill-rule:evenodd;stroke:none"
         d="m 3647.2,2499.08 11.34,0 0,-13.61 -11.34,0 0,13.61 z m 0,43.39 11.34,0 0,-13.61 -11.34,0 0,13.61" /><path
         id="path370"
         style="fill:#010101;fill-opacity:1;fill-rule:evenodd;stroke:none"
         d="m 3212.34,1659.06 0,-31.76 -9.92,0 0,83.09 9.92,0 0,-9.07 c 1.98,3.68 4.82,6.23 7.93,7.94 3.12,1.7 6.8,2.55 11.34,2.55 7.36,0 13.31,-2.84 17.84,-8.79 4.53,-5.67 6.8,-13.33 6.8,-22.69 0,-9.64 -2.27,-17.3 -6.8,-22.97 -4.53,-5.96 -10.48,-8.79 -17.84,-8.79 -4.54,0 -8.22,0.85 -11.34,2.55 -3.11,1.7 -5.95,4.26 -7.93,7.94 z m 33.71,21.27 c 0,7.09 -1.41,12.76 -4.53,17.02 -2.83,4.25 -7.08,6.24 -12.18,6.24 -5.39,0 -9.64,-1.99 -12.47,-6.24 -3.12,-4.26 -4.53,-9.93 -4.53,-17.02 0,-7.37 1.41,-13.04 4.53,-17.3 2.83,-4.25 7.08,-6.24 12.47,-6.24 5.1,0 9.35,1.99 12.18,6.24 3.12,4.26 4.53,9.93 4.53,17.3" /><path
         id="path372"
         style="fill:#010101;fill-opacity:1;fill-rule:evenodd;stroke:none"
         d="m 3295.91,1703.3 c -5.38,0 -9.63,-1.98 -12.75,-6.24 -3.11,-3.97 -4.53,-9.64 -4.53,-16.73 0,-7.37 1.42,-13.04 4.53,-17.02 3.12,-4.25 7.37,-6.24 12.75,-6.24 5.1,0 9.35,1.99 12.47,6.24 3.12,3.98 4.53,9.65 4.53,17.02 0,7.09 -1.41,12.48 -4.53,16.73 -3.12,4.26 -7.37,6.24 -12.47,6.24 z m 0,8.51 c 8.5,0 15.3,-2.84 20.12,-8.51 4.81,-5.39 7.36,-13.33 7.36,-22.97 0,-9.93 -2.55,-17.87 -7.36,-23.26 -4.82,-5.67 -11.62,-8.5 -20.12,-8.5 -8.78,0 -15.58,2.83 -20.39,8.5 -4.82,5.39 -7.37,13.33 -7.37,23.26 0,9.64 2.55,17.58 7.37,22.97 4.81,5.67 11.61,8.51 20.39,8.51" /><path
         id="path374"
         style="fill:#010101;fill-opacity:1;fill-rule:evenodd;stroke:none"
         d="m 3339.82,1650.27 9.9141,0 0,83.6602 -9.9141,0 0,-83.6602 z" /><path
         id="path376"
         style="fill:#010101;fill-opacity:1;fill-rule:evenodd;stroke:none"
         d="m 3394.22,1703.3 c -5.38,0 -9.63,-1.98 -12.75,-6.24 -3.12,-3.97 -4.53,-9.64 -4.53,-16.73 0,-7.37 1.41,-13.04 4.53,-17.02 3.12,-4.25 7.37,-6.24 12.75,-6.24 5.1,0 9.35,1.99 12.46,6.24 3.12,3.98 4.53,9.65 4.53,17.02 0,7.09 -1.41,12.48 -4.53,16.73 -3.11,4.26 -7.36,6.24 -12.46,6.24 z m 0,8.51 c 8.49,0 15.3,-2.84 20.11,-8.51 4.82,-5.39 7.37,-13.33 7.37,-22.97 0,-9.93 -2.55,-17.87 -7.37,-23.26 -4.81,-5.67 -11.62,-8.5 -20.11,-8.5 -8.79,0 -15.58,2.83 -20.4,8.5 -4.82,5.39 -7.37,13.33 -7.37,23.26 0,9.64 2.55,17.58 7.37,22.97 4.82,5.67 11.61,8.51 20.4,8.51" /><path
         id="path378"
         style="fill:#010101;fill-opacity:1;fill-rule:evenodd;stroke:none"
         d="m 3433.88,1710.39 46.75,0 0,-9.07 -37.12,-43.11 37.12,0 0,-7.94 -48.17,0 0,9.07 37.11,43.11 -35.69,0 0,7.94 z m 19.26,7.66 -13.03,20.13 7.37,0 9.91,-13.04 9.64,13.04 7.36,0 -13.03,-20.13 -8.22,0" /><path
         id="path380"
         style="fill:#010101;fill-opacity:1;fill-rule:evenodd;stroke:none"
         d="m 3522.55,1680.61 c -7.93,0 -13.31,-0.85 -16.43,-2.83 -3.12,-1.71 -4.53,-4.82 -4.53,-9.36 0,-3.69 1.13,-6.53 3.4,-8.51 2.26,-1.98 5.38,-3.12 9.35,-3.12 5.38,0 9.91,1.99 13.31,5.96 3.12,3.97 4.82,9.07 4.82,15.59 l 0,2.27 -9.92,0 z m 19.83,3.97 0,-34.31 -9.91,0 0,9.07 c -2.27,-3.68 -5.1,-6.52 -8.5,-8.22 -3.4,-1.7 -7.37,-2.55 -12.18,-2.55 -6.24,0 -11.05,1.7 -14.74,5.1 -3.68,3.69 -5.38,8.22 -5.38,14.18 0,6.81 2.27,11.91 6.8,15.31 4.53,3.41 11.33,5.11 20.12,5.11 l 13.88,0 0,0.85 c 0,4.54 -1.42,7.94 -4.54,10.49 -2.83,2.56 -7.08,3.69 -12.46,3.69 -3.4,0 -6.8,-0.28 -9.92,-1.13 -3.11,-0.85 -6.23,-1.99 -9.34,-3.69 l 0,9.07 c 3.68,1.42 7.08,2.56 10.48,3.13 3.4,0.85 6.8,1.13 9.91,1.13 8.5,0 15.02,-2.27 19.27,-6.81 4.25,-4.54 6.51,-11.34 6.51,-20.42" /><path
         id="path382"
         style="fill:#010101;fill-opacity:1;fill-rule:evenodd;stroke:none"
         d="m 3562.78,1710.39 9.92,0 0,-61.26 c 0,-7.65 -1.42,-13.33 -4.54,-16.73 -2.83,-3.4 -7.64,-5.1 -14.16,-5.1 l -3.68,0 0,8.5 2.55,0 c 3.96,0 6.51,0.86 7.93,2.56 1.41,1.7 1.98,5.39 1.98,10.77 l 0,61.26 z m 0,23.54 9.92,0 0,-12.48 -9.92,0 0,12.48" /><path
         id="path384"
         style="fill:#010101;fill-opacity:1;fill-rule:evenodd;stroke:none"
         d="m 3593.95,1710.39 9.91,0 0,-60.12 -9.91,0 0,60.12 z m 0,23.54 9.91,0 0,-12.48 -9.91,0 0,12.48" /><path
         id="path386"
         style="fill:#010101;fill-opacity:1;fill-rule:evenodd;stroke:none"
         d="m 3627.38,1663.88 11.33,0 0,-13.61 -11.33,0 0,13.61 z m 0,43.39 11.33,0 0,-13.61 -11.33,0 0,13.61" /><path
         id="path388"
         style="fill:#010101;fill-opacity:1;fill-rule:evenodd;stroke:none"
         d="m 2140.61,2212.08 44.2,0 0,-9.08 -16.72,0 0,-62.11 16.72,0 0,-9.07 -44.2,0 0,9.07 16.72,0 0,62.11 -16.72,0 0,9.08" /><path
         id="path390"
         style="fill:#010101;fill-opacity:1;fill-rule:evenodd;stroke:none"
         d="m 2208.04,2192.23 43.63,0 0,-9.08 -34.56,-43.39 34.56,0 0,-7.94 -45.04,0 0,9.07 34.56,43.4 -33.15,0 0,7.94" /><path
         id="path392"
         style="fill:#010101;fill-opacity:1;fill-rule:evenodd;stroke:none"
         d="m 2296.15,2153.66 c 0,-4.54 0.85,-7.66 2.55,-9.93 1.41,-2.27 3.96,-3.4 7.08,-3.4 l 11.61,0 0,-8.51 -12.46,0 c -5.95,0 -10.48,1.98 -13.88,5.67 -3.12,3.69 -4.82,9.08 -4.82,16.17 l 0,54.16 -15.86,0 0,7.66 25.78,0 0,-61.82" /><path
         id="path394"
         style="fill:#010101;fill-opacity:1;fill-rule:evenodd;stroke:none"
         d="m 2361.02,2184.86 c -5.1,0 -8.78,-1.99 -11.33,-5.96 -2.55,-3.69 -3.97,-9.64 -3.97,-17.02 0,-7.65 1.42,-13.61 3.97,-17.3 2.55,-3.97 6.23,-5.95 11.33,-5.95 5.1,0 8.78,1.98 11.34,5.95 2.54,3.69 3.96,9.65 3.96,17.3 0,7.38 -1.42,13.33 -3.96,17.02 -2.56,3.97 -6.24,5.96 -11.34,5.96 z m 0,8.5 c 8.22,0 14.73,-2.83 19.27,-8.22 4.25,-5.39 6.51,-13.05 6.51,-23.26 0,-10.49 -2.26,-18.15 -6.51,-23.54 -4.54,-5.38 -10.77,-8.22 -19.27,-8.22 -8.5,0 -14.73,2.84 -19.26,8.22 -4.25,5.39 -6.52,13.05 -6.52,23.54 0,10.21 2.27,17.87 6.52,23.26 4.53,5.39 10.76,8.22 19.26,8.22" /><path
         id="path396"
         style="fill:#010101;fill-opacity:1;fill-rule:evenodd;stroke:none"
         d="m 2450.55,2134.94 c -2.55,-1.7 -5.39,-2.83 -8.22,-3.69 -2.83,-0.85 -5.67,-1.13 -8.5,-1.13 -9.35,0 -16.71,2.84 -21.81,8.51 -5.39,5.39 -7.93,13.33 -7.93,23.25 0,9.64 2.54,17.58 7.93,22.98 5.1,5.67 12.46,8.5 21.81,8.5 2.83,0 5.67,-0.28 8.5,-1.13 2.55,-0.85 5.38,-1.99 8.22,-3.41 l 0,-10.49 c -2.55,2.27 -5.1,3.97 -7.94,5.11 -2.55,0.85 -5.38,1.42 -8.78,1.42 -6.23,0 -11.05,-1.99 -14.17,-5.96 -3.39,-3.97 -5.09,-9.64 -5.09,-17.02 0,-7.65 1.7,-13.33 5.09,-17.3 3.12,-3.97 7.94,-5.95 14.17,-5.95 3.4,0 6.52,0.57 9.06,1.7 2.84,0.85 5.39,2.55 7.66,4.82 l 0,-10.21" /><path
         id="path398"
         style="fill:#010101;fill-opacity:1;fill-rule:evenodd;stroke:none"
         d="m 2473.49,2191.95 25.22,0 0,-52.47 19.54,0 0,-7.66 -49.01,0 0,7.66 19.55,0 0,44.81 -15.3,0 0,7.66 z m 15.3,23.53 9.92,0 0,-12.48 -9.92,0 0,12.48" /><path
         id="path400"
         style="fill:#010101;fill-opacity:1;fill-rule:evenodd;stroke:none"
         d="m 2573.21,2215.2 c -4.81,-8.22 -8.21,-16.45 -10.76,-24.39 -2.27,-8.22 -3.4,-16.45 -3.4,-24.67 0,-8.23 1.13,-16.45 3.4,-24.39 2.55,-8.23 5.95,-16.45 10.76,-24.68 l -8.5,0 c -5.38,8.51 -9.63,16.73 -12.17,24.96 -2.56,7.94 -3.97,16.17 -3.97,24.11 0,7.94 1.41,16.16 3.97,24.1 2.54,8.23 6.79,16.45 12.17,24.96 l 8.5,0" /><path
         id="path402"
         style="fill:#010101;fill-opacity:1;fill-rule:evenodd;stroke:none"
         d="m 2611.74,2139.48 0,-30.63 -9.91,0 0,83.1 9.91,0 0,-7.95 c 1.7,3.13 3.97,5.39 6.52,7.09 2.83,1.42 5.95,2.27 9.63,2.27 7.08,0 12.75,-2.83 17,-8.5 4.25,-5.68 6.23,-13.34 6.23,-23.26 0,-9.93 -1.98,-17.58 -6.23,-23.26 -4.25,-5.38 -9.92,-8.22 -17,-8.22 -3.68,0 -6.8,0.85 -9.63,2.27 -2.83,1.7 -4.82,3.97 -6.52,7.09 z m 28.9,22.4 c 0,7.38 -1.13,13.33 -3.68,17.02 -2.27,3.97 -5.95,5.96 -10.77,5.96 -4.53,0 -8.21,-1.99 -10.76,-5.96 -2.55,-3.69 -3.69,-9.64 -3.69,-17.02 0,-7.65 1.14,-13.33 3.69,-17.3 2.55,-3.97 6.23,-5.95 10.76,-5.95 4.82,0 8.5,1.98 10.77,5.95 2.55,3.69 3.68,9.65 3.68,17.3" /><path
         id="path404"
         style="fill:#010101;fill-opacity:1;fill-rule:evenodd;stroke:none"
         d="m 2709.77,2189.96 0,-9.64 c -2.84,1.7 -5.67,2.83 -8.5,3.68 -2.84,0.86 -5.95,1.14 -8.79,1.14 -4.53,0 -7.93,-0.85 -9.91,-2.27 -2.27,-1.42 -3.4,-3.69 -3.4,-6.52 0,-2.84 0.85,-4.83 2.55,-5.96 1.7,-1.42 5.66,-2.55 12.18,-3.97 l 3.97,-0.85 c 5.09,-0.85 8.78,-2.55 11.33,-5.39 2.55,-2.84 3.68,-6.52 3.68,-11.06 0,-5.96 -1.98,-10.49 -6.23,-13.9 -4.25,-3.4 -10.2,-5.1 -17.85,-5.1 -2.83,0 -5.95,0.28 -9.35,0.85 -3.11,0.57 -6.8,1.7 -10.48,2.83 l 0,10.22 c 3.68,-1.99 7.37,-3.41 10.48,-4.26 3.4,-0.85 6.8,-1.42 9.64,-1.42 4.53,0 7.93,0.86 10.19,2.55 2.55,1.99 3.68,4.26 3.68,7.66 0,4.54 -4.53,7.66 -13.31,9.36 l -0.28,0.29 -3.69,0.85 c -5.66,0.85 -9.91,2.83 -12.46,5.38 -2.55,2.84 -3.97,6.25 -3.97,10.78 0,5.96 1.98,10.21 5.95,13.33 3.69,3.12 9.35,4.82 16.43,4.82 3.41,0 6.52,-0.28 9.35,-0.85 3.12,-0.56 5.95,-1.42 8.79,-2.55" /><path
         id="path406"
         style="fill:#010101;fill-opacity:1;fill-rule:evenodd;stroke:none"
         d="m 2750.56,2147.99 13.6,0 0,-11.06 -10.77,-20.71 -8.21,0 5.38,20.71 0,11.06" /><path
         id="path408"
         style="fill:#010101;fill-opacity:1;fill-rule:evenodd;stroke:none"
         d="m 2875.5,2140.89 36.82,0 0,-9.07 -48.72,0 0,9.07 c 6.79,7.1 12.46,13.34 17.56,18.72 5.1,5.39 8.5,9.36 10.48,11.63 3.4,4.26 5.95,7.66 7.09,10.49 1.41,2.84 1.98,5.4 1.98,8.23 0,4.54 -1.42,8.22 -3.97,10.77 -2.55,2.56 -6.23,3.69 -10.76,3.69 -3.4,0 -6.8,-0.56 -10.48,-1.7 -3.4,-1.42 -7.37,-3.12 -11.34,-5.67 l 0,11.06 c 3.69,1.7 7.37,3.12 10.77,3.97 3.68,0.85 7.08,1.42 10.77,1.42 7.64,0 14.16,-1.99 18.98,-6.24 4.81,-4.26 7.08,-9.64 7.08,-16.45 0,-3.4 -0.85,-6.81 -2.27,-10.21 -1.7,-3.69 -4.25,-7.37 -7.93,-11.63 -1.99,-2.27 -4.82,-5.38 -8.78,-9.64 -3.69,-3.97 -9.64,-10.21 -17.28,-18.44" /><path
         id="path410"
         style="fill:#010101;fill-opacity:1;fill-rule:evenodd;stroke:none"
         d="m 2940.09,2215.2 8.5,0 c 5.38,-8.51 9.63,-16.73 12.18,-24.96 2.55,-7.94 3.96,-16.16 3.96,-24.1 0,-7.94 -1.41,-16.17 -3.96,-24.11 -2.55,-8.23 -6.8,-16.45 -12.18,-24.96 l -8.5,0 c 4.81,8.23 8.21,16.45 10.76,24.68 2.27,8.22 3.4,16.16 3.4,24.39 0,8.22 -1.13,16.45 -3.4,24.67 -2.55,7.94 -5.95,16.17 -10.76,24.39" /><g
         transform="scale(0.999471,1.00053)"
         id="g412"><path
           id="path414"
           style="fill:none;stroke:#010101;stroke-width:7.36969995;stroke-linecap:butt;stroke-linejoin:round;stroke-miterlimit:10;stroke-dasharray:none;stroke-opacity:1"
           d="m 1772.13,2077.4 1554.16,0" /></g><path
         id="path416"
         style="fill:#010101;fill-opacity:1;fill-rule:evenodd;stroke:none"
         d="m 3401.3,2078.5 -80.17,26.66 0,-53.6 80.17,26.94" /><path
         id="path418"
         style="fill:#ffd321;fill-opacity:1;fill-rule:evenodd;stroke:none"
         d="m 700.602,918.582 -107.938,0 0,216.098 215.875,0 0,-216.098 -107.937,0" /><g
         transform="scale(0.999471,1.00053)"
         id="g420"><path
           id="path422"
           style="fill:none;stroke:#010101;stroke-width:7.08526993;stroke-linecap:butt;stroke-linejoin:round;stroke-miterlimit:10;stroke-dasharray:none;stroke-opacity:1"
           d="m 700.687,918.096 -107.994,0 0,215.984 215.989,0 0,-215.984 -107.995,0 z" /></g><path
         id="path424"
         style="fill:#010101;fill-opacity:1;fill-rule:evenodd;stroke:none"
         d="m 709.668,1032.02 c 5.383,-1.13 9.348,-3.4 12.465,-7.09 2.832,-3.4 4.25,-7.94 4.25,-13.05 0,-7.93 -2.836,-14.177 -8.219,-18.431 -5.383,-4.254 -13.031,-6.519 -22.945,-6.519 -3.399,0 -7.082,0.281 -10.485,1.133 -3.679,0.566 -7.363,1.417 -11.046,2.835 l 0,10.492 c 3.117,-1.699 6.234,-3.117 9.914,-3.968 3.402,-0.852 7.367,-1.418 11.05,-1.418 6.797,0 12.18,1.418 15.582,3.969 3.68,2.837 5.383,6.807 5.383,11.907 0,4.83 -1.703,8.51 -5.101,11.35 -3.118,2.55 -7.649,3.97 -13.598,3.97 l -9.348,0 0,8.79 9.633,0 c 5.383,0 9.348,1.14 12.18,3.12 2.832,2.27 4.25,5.39 4.25,9.36 0,3.97 -1.418,7.37 -4.25,9.36 -3.117,2.27 -7.082,3.4 -12.465,3.4 -3.117,0 -6.234,-0.28 -9.633,-0.85 -3.398,-0.85 -7.082,-1.7 -11.047,-3.12 l 0,9.64 c 3.965,1.14 7.93,1.99 11.614,2.56 3.402,0.56 6.8,0.84 9.918,0.84 8.214,0 14.73,-1.98 19.546,-5.67 4.817,-3.68 7.082,-8.79 7.082,-15.03 0,-4.53 -1.132,-8.22 -3.683,-11.34 -2.551,-3.12 -6.231,-5.1 -11.047,-6.24" /><path
         id="path426"
         style="fill:#ffd321;fill-opacity:1;fill-rule:evenodd;stroke:none"
         d="m 700.602,702.477 -107.938,0 0,216.105 215.875,0 0,-216.105 -107.937,0" /><g
         transform="scale(0.999471,1.00053)"
         id="g428"><path
           id="path430"
           style="fill:none;stroke:#010101;stroke-width:7.08526993;stroke-linecap:butt;stroke-linejoin:round;stroke-miterlimit:10;stroke-dasharray:none;stroke-opacity:1"
           d="m 700.687,702.105 -107.994,0 0,215.991 215.989,0 0,-215.991 -107.995,0 z" /></g><path
         id="path432"
         style="fill:#ffd321;fill-opacity:1;fill-rule:evenodd;stroke:none"
         d="m 700.602,486.375 -107.938,0 0,216.102 215.875,0 0,-216.102 -107.937,0" /><g
         transform="scale(0.999471,1.00053)"
         id="g434"><path
           id="path436"
           style="fill:none;stroke:#010101;stroke-width:7.08526993;stroke-linecap:butt;stroke-linejoin:round;stroke-miterlimit:10;stroke-dasharray:none;stroke-opacity:1"
           d="m 700.687,486.399 -107.994,0 0,215.706 215.989,0 0,-215.706 -107.995,0 z" /></g><path
         id="path438"
         style="fill:#ffffff;fill-opacity:1;fill-rule:evenodd;stroke:none"
         d="m 1276.27,915.461 -107.94,0 0,216.099 215.87,0 0,-216.099 -107.93,0" /><g
         transform="scale(0.999471,1.00053)"
         id="g440"><path
           id="path442"
           style="fill:none;stroke:#010101;stroke-width:7.08526993;stroke-linecap:butt;stroke-linejoin:round;stroke-miterlimit:10;stroke-dasharray:none;stroke-opacity:1"
           d="m 1276.66,914.977 -107.99,0 0,215.983 215.98,0 0,-215.983 -107.99,0 z" /></g><path
         id="path444"
         style="fill:#010101;fill-opacity:1;fill-rule:evenodd;stroke:none"
         d="m 1205.44,1035.99 9.0664,0 0,29.7773 -9.0664,0 0,-29.7773 z" /><path
         id="path446"
         style="fill:#010101;fill-opacity:1;fill-rule:evenodd;stroke:none"
         d="m 1247.65,1065.77 14.45,0 13.88,-40.84 14.17,40.84 14.45,0 0,-80.258 -9.92,0 0,70.898 -14.45,-42.26 -8.21,0 -14.45,42.26 0,-70.898 -9.92,0 0,80.258" /><path
         id="path448"
         style="fill:#010101;fill-opacity:1;fill-rule:evenodd;stroke:none"
         d="m 1337.46,1035.99 9.0625,0 0,29.7773 -9.0625,0 0,-29.7773 z" /><path
         id="path450"
         style="fill:#ffffff;fill-opacity:1;fill-rule:evenodd;stroke:none"
         d="m 1276.27,699.359 -107.94,0 0,216.102 215.87,0 0,-216.102 -107.93,0" /><g
         transform="scale(0.999471,1.00053)"
         id="g452"><path
           id="path454"
           style="fill:none;stroke:#010101;stroke-width:7.08526993;stroke-linecap:butt;stroke-linejoin:round;stroke-miterlimit:10;stroke-dasharray:none;stroke-opacity:1"
           d="m 1276.66,698.989 -107.99,0 0,215.988 215.98,0 0,-215.988 -107.99,0 z" /></g><path
         id="path456"
         style="fill:#ffffff;fill-opacity:1;fill-rule:evenodd;stroke:none"
         d="m 1276.27,483.254 -107.94,0 0,216.105 215.87,0 0,-216.105 -107.93,0" /><g
         transform="scale(0.999471,1.00053)"
         id="g458"><path
           id="path460"
           style="fill:none;stroke:#010101;stroke-width:7.08526993;stroke-linecap:butt;stroke-linejoin:round;stroke-miterlimit:10;stroke-dasharray:none;stroke-opacity:1"
           d="m 1276.66,483.283 -107.99,0 0,215.706 215.98,0 0,-215.706 -107.99,0 z" /></g><path
         id="path462"
         style="fill:#ffffff;fill-opacity:1;fill-rule:evenodd;stroke:none"
         d="m 1848.82,915.746 -107.94,0 0,216.104 215.59,0 0,-216.104 -107.65,0" /><g
         transform="scale(0.999471,1.00053)"
         id="g464"><path
           id="path466"
           style="fill:none;stroke:#010101;stroke-width:7.08526993;stroke-linecap:butt;stroke-linejoin:round;stroke-miterlimit:10;stroke-dasharray:none;stroke-opacity:1"
           d="m 1849.51,915.262 -107.99,0 0,215.988 215.98,0 0,-215.988 -107.99,0 z" /></g><path
         id="path468"
         style="fill:#010101;fill-opacity:1;fill-rule:evenodd;stroke:none"
         d="m 1813.12,1036.27 9.0664,0 0,29.7773 -9.0664,0 0,-29.7773 z" /><path
         id="path470"
         style="fill:#010101;fill-opacity:1;fill-rule:evenodd;stroke:none"
         d="m 1843.43,985.793 10.7656,0 0,80.2578 -10.7656,0 0,-80.2578 z" /><path
         id="path472"
         style="fill:#010101;fill-opacity:1;fill-rule:evenodd;stroke:none"
         d="m 1875.45,1036.27 9.0664,0 0,29.7773 -9.0664,0 0,-29.7773 z" /><path
         id="path474"
         style="fill:#ffffff;fill-opacity:1;fill-rule:evenodd;stroke:none"
         d="m 1848.82,699.641 -107.94,0 0,216.105 215.59,0 0,-216.105 -107.65,0" /><g
         transform="scale(0.999471,1.00053)"
         id="g476"><path
           id="path478"
           style="fill:none;stroke:#010101;stroke-width:7.08526993;stroke-linecap:butt;stroke-linejoin:round;stroke-miterlimit:10;stroke-dasharray:none;stroke-opacity:1"
           d="m 1849.51,699.271 -107.99,0 0,215.991 215.98,0 0,-215.991 -107.99,0 z" /></g><path
         id="path480"
         style="fill:#ffffff;fill-opacity:1;fill-rule:evenodd;stroke:none"
         d="m 1848.82,483.539 -107.94,0 0,216.102 215.59,0 0,-216.102 -107.65,0" /><g
         transform="scale(0.999471,1.00053)"
         id="g482"><path
           id="path484"
           style="fill:none;stroke:#010101;stroke-width:7.08526993;stroke-linecap:butt;stroke-linejoin:round;stroke-miterlimit:10;stroke-dasharray:none;stroke-opacity:1"
           d="m 1849.51,483.564 -107.99,0 0,215.707 215.98,0 0,-215.707 -107.99,0 z" /></g><path
         id="path486"
         style="fill:#ffffff;fill-opacity:1;fill-rule:evenodd;stroke:none"
         d="m 3100.72,915.746 -107.94,0 0,216.104 215.88,0 0,-216.104 -107.94,0" /><g
         transform="scale(0.999471,1.00053)"
         id="g488"><path
           id="path490"
           style="fill:none;stroke:#cc0101;stroke-width:7.08526993;stroke-linecap:butt;stroke-linejoin:round;stroke-miterlimit:10;stroke-dasharray:none;stroke-opacity:1"
           d="m 3102.36,915.262 -107.99,0 0,215.988 215.99,0 0,-215.988 -108,0 z" /></g><path
         id="path492"
         style="fill:#010101;fill-opacity:1;fill-rule:evenodd;stroke:none"
         d="m 3029.89,1036.27 9.0664,0 0,29.7773 -9.0664,0 0,-29.7773 z" /><path
         id="path494"
         style="fill:#010101;fill-opacity:1;fill-rule:evenodd;stroke:none"
         d="m 3077.2,1066.05 52.13,0 0,-8.22 -41.93,-62.963 43.06,0 0,-9.074 -54.39,0 0,8.227 40.8,62.96 -39.67,0 0,9.07" /><path
         id="path496"
         style="fill:#010101;fill-opacity:1;fill-rule:evenodd;stroke:none"
         d="m 3161.91,1036.27 9.0664,0 0,29.7773 -9.0664,0 0,-29.7773 z" /><path
         id="path498"
         style="fill:#ffffff;fill-opacity:1;fill-rule:evenodd;stroke:none"
         d="m 3100.72,699.641 -107.94,0 0,216.105 215.88,0 0,-216.105 -107.94,0" /><g
         transform="scale(0.999471,1.00053)"
         id="g500"><path
           id="path502"
           style="fill:none;stroke:#cc0101;stroke-width:7.08526993;stroke-linecap:butt;stroke-linejoin:round;stroke-miterlimit:10;stroke-dasharray:none;stroke-opacity:1"
           d="m 3102.36,699.271 -107.99,0 0,215.991 215.99,0 0,-215.991 -108,0 z" /></g><path
         id="path504"
         style="fill:#ffffff;fill-opacity:1;fill-rule:evenodd;stroke:none"
         d="m 3100.72,483.539 -107.94,0 0,216.102 215.88,0 0,-216.102 -107.94,0" /><g
         transform="scale(0.999471,1.00053)"
         id="g506"><path
           id="path508"
           style="fill:none;stroke:#cc0101;stroke-width:7.08526993;stroke-linecap:butt;stroke-linejoin:round;stroke-miterlimit:10;stroke-dasharray:none;stroke-opacity:1"
           d="m 3102.36,483.564 -107.99,0 0,215.707 215.99,0 0,-215.707 -108,0 z" /></g><path
         id="path510"
         style="fill:#ffffff;fill-opacity:1;fill-rule:evenodd;stroke:none"
         d="m 4354.61,917.445 -107.94,0 0,216.105 215.87,0 0,-216.105 -107.93,0" /><g
         transform="scale(0.999471,1.00053)"
         id="g512"><path
           id="path514"
           style="fill:none;stroke:#010101;stroke-width:7.08526993;stroke-linecap:butt;stroke-linejoin:round;stroke-miterlimit:10;stroke-dasharray:none;stroke-opacity:1"
           d="m 4356.63,916.96 -107.71,0 0,215.99 215.7,0 0,-215.99 -107.99,0 z" /></g><path
         id="path516"
         style="fill:#010101;fill-opacity:1;fill-rule:evenodd;stroke:none"
         d="m 4297.38,1037.98 9.0664,0 0,29.7773 -9.0664,0 0,-29.7773 z" /><path
         id="path518"
         style="fill:#010101;fill-opacity:1;fill-rule:evenodd;stroke:none"
         d="m 4354.61,1056.98 -14.74,-39.99 29.47,0 -14.73,39.99 z m -6.24,10.77 12.18,0 30.6,-80.254 -11.33,0 -7.09,20.414 -36.26,0 -7.36,-20.414 -11.33,0 30.59,80.254" /><path
         id="path520"
         style="fill:#010101;fill-opacity:1;fill-rule:evenodd;stroke:none"
         d="m 4403.05,1037.98 9.0664,0 0,29.7773 -9.0664,0 0,-29.7773 z" /><path
         id="path522"
         style="fill:#ffffff;fill-opacity:1;fill-rule:evenodd;stroke:none"
         d="m 4354.61,701.344 -107.94,0 0,216.101 215.87,0 0,-216.101 -107.93,0" /><g
         transform="scale(0.999471,1.00053)"
         id="g524"><path
           id="path526"
           style="fill:none;stroke:#010101;stroke-width:7.08526993;stroke-linecap:butt;stroke-linejoin:round;stroke-miterlimit:10;stroke-dasharray:none;stroke-opacity:1"
           d="m 4356.63,700.973 -107.71,0 0,215.987 215.7,0 0,-215.987 -107.99,0 z" /></g><path
         id="path528"
         style="fill:#ffffff;fill-opacity:1;fill-rule:evenodd;stroke:none"
         d="m 4354.61,485.238 -107.94,0 0,216.106 215.87,0 0,-216.106 -107.93,0" /><g
         transform="scale(0.999471,1.00053)"
         id="g530"><path
           id="path532"
           style="fill:none;stroke:#010101;stroke-width:7.08526993;stroke-linecap:butt;stroke-linejoin:round;stroke-miterlimit:10;stroke-dasharray:none;stroke-opacity:1"
           d="m 4356.63,485.267 -107.71,0 0,215.706 215.7,0 0,-215.706 -107.99,0 z" /></g><path
         id="path534"
         style="fill:#010101;fill-opacity:1;fill-rule:evenodd;stroke:none"
         d="m 700.316,839.457 c 16.149,0 28.899,-12.48 28.899,-28.644 0,-16.165 -12.75,-28.926 -28.899,-28.926 -16.148,0 -28.613,12.761 -28.613,28.926 0,16.164 12.465,28.644 28.613,28.644 z m -28.613,0 0,0 z m 57.793,-57.855 0,0" /><path
         id="path536"
         style="fill:#010101;fill-opacity:1;fill-rule:evenodd;stroke:none"
         d="m 1848.53,836.621 c 16.15,0 28.9,-12.48 28.9,-28.644 0,-16.164 -12.75,-28.926 -28.9,-28.926 -16.15,0 -28.61,12.762 -28.61,28.926 0,16.164 12.46,28.644 28.61,28.644 z m -28.61,0 0,0 z m 57.79,-57.855 0,0" /><path
         id="path538"
         style="fill:#010101;fill-opacity:1;fill-rule:evenodd;stroke:none"
         d="m 3100.44,836.621 c 16.14,0 28.89,-12.48 28.89,-28.644 0,-16.164 -12.75,-28.926 -28.89,-28.926 -16.15,0 -28.62,12.762 -28.62,28.926 0,16.164 12.47,28.644 28.62,28.644 z m -28.62,0 0,0 z m 57.8,-57.855 0,0" /><path
         id="path540"
         style="fill:#010101;fill-opacity:1;fill-rule:evenodd;stroke:none"
         d="m 700.316,623.352 c 16.149,0 28.899,-12.477 28.899,-28.641 0,-16.168 -12.75,-28.93 -28.899,-28.93 -16.148,0 -28.613,12.762 -28.613,28.93 0,16.164 12.465,28.641 28.613,28.641 z m -28.613,0 0,0 z m 57.793,-57.852 0,0" /><path
         id="path542"
         style="fill:#010101;fill-opacity:1;fill-rule:evenodd;stroke:none"
         d="m 1848.53,620.516 c 16.15,0 28.9,-12.477 28.9,-28.641 0,-16.168 -12.75,-28.93 -28.9,-28.93 -16.15,0 -28.61,12.762 -28.61,28.93 0,16.164 12.46,28.641 28.61,28.641 z m -28.61,0 0,0 z m 57.79,-57.852 0,0" /><g
         transform="scale(0.999471,1.00053)"
         id="g544"><path
           id="path546"
           style="fill:none;stroke:#010101;stroke-width:7.36969995;stroke-linecap:butt;stroke-linejoin:round;stroke-miterlimit:10;stroke-dasharray:none;stroke-opacity:1"
           d="m 729.882,809.818 377.278,-2.554" /></g><path
         id="path548"
         style="fill:#010101;fill-opacity:1;fill-rule:evenodd;stroke:none"
         d="m 1168.33,807.41 -64.59,21.836 0,-43.105 64.59,21.269" /><g
         transform="scale(0.999471,1.00053)"
         id="g550"><path
           id="path552"
           style="fill:none;stroke:#010101;stroke-width:7.36969995;stroke-linecap:butt;stroke-linejoin:round;stroke-miterlimit:10;stroke-dasharray:none;stroke-opacity:1"
           d="m 701.254,565.201 0,-225.627 3655.656,0 0,83.616" /></g><path
         id="path554"
         style="fill:#010101;fill-opacity:1;fill-rule:evenodd;stroke:none"
         d="m 4354.61,485.238 -21.54,-64.66 43.07,0 -21.53,64.66" /><path
         id="path556"
         style="fill:#010101;fill-opacity:1;fill-rule:evenodd;stroke:none"
         d="m 3100.44,620.516 c 16.14,0 28.89,-12.477 28.89,-28.641 0,-16.168 -12.75,-28.93 -28.89,-28.93 -16.15,0 -28.62,12.762 -28.62,28.93 0,16.164 12.47,28.641 28.62,28.641 z m -28.62,0 0,0 z m 57.8,-57.852 0,0" /><path
         id="path558"
         style="fill:#010101;fill-opacity:1;fill-rule:evenodd;stroke:none"
         d="m 1275.98,836.336 c 16.15,0 28.9,-12.477 28.9,-28.645 0,-16.164 -12.75,-28.925 -28.9,-28.925 -16.14,0 -28.61,12.761 -28.61,28.925 0,16.168 12.47,28.645 28.61,28.645 z m -28.61,0 0,0 z m 57.79,-57.856 0,0" /><path
         id="path560"
         style="fill:#010101;fill-opacity:1;fill-rule:evenodd;stroke:none"
         d="m 4354.32,622.219 c 16.15,0 28.9,-12.481 28.9,-28.645 0,-16.164 -12.75,-28.926 -28.9,-28.926 -16.15,0 -28.61,12.762 -28.61,28.926 0,16.164 12.46,28.645 28.61,28.645 z m -28.61,0 0,0 z m 57.79,-57.856 0,0" /><g
         transform="scale(0.999471,1.00053)"
         id="g562"><path
           id="path564"
           style="fill:none;stroke:#010101;stroke-width:7.08526993;stroke-linecap:butt;stroke-linejoin:round;stroke-miterlimit:10;stroke-dasharray:none;stroke-opacity:1"
           d="M 4414.17,866.506 4299.37,751.427" /></g><g
         transform="scale(0.999471,1.00053)"
         id="g566"><path
           id="path568"
           style="fill:none;stroke:#010101;stroke-width:7.08526993;stroke-linecap:butt;stroke-linejoin:round;stroke-miterlimit:10;stroke-dasharray:none;stroke-opacity:1"
           d="m 4299.37,866.506 114.8,-115.079" /></g><g
         transform="scale(0.999471,1.00053)"
         id="g570"><path
           id="path572"
           style="fill:none;stroke:#010101;stroke-width:7.36969995;stroke-linecap:butt;stroke-linejoin:round;stroke-miterlimit:10;stroke-dasharray:none;stroke-opacity:1"
           d="m 1305.86,806.698 374.15,0.566" /></g><path
         id="path574"
         style="fill:#010101;fill-opacity:1;fill-rule:evenodd;stroke:none"
         d="m 1740.88,807.691 -64.59,21.555 0,-43.105 64.59,21.55" /><g
         transform="scale(0.999471,1.00053)"
         id="g576"><path
           id="path578"
           style="fill:none;stroke:#010101;stroke-width:7.36969995;stroke-linecap:butt;stroke-linejoin:round;stroke-miterlimit:10;stroke-dasharray:none;stroke-opacity:1"
           d="m 1878.71,806.983 1053.87,0.281" /></g><path
         id="path580"
         style="fill:#010101;fill-opacity:1;fill-rule:evenodd;stroke:none"
         d="m 2992.78,807.691 -64.59,21.555 0,-43.105 64.59,21.55" /><g
         transform="scale(0.999471,1.00053)"
         id="g582"><path
           id="path584"
           style="fill:none;stroke:#010101;stroke-width:7.36969995;stroke-linecap:butt;stroke-linejoin:round;stroke-miterlimit:10;stroke-dasharray:none;stroke-opacity:1"
           d="m 3131.27,806.983 1055.85,1.983" /></g><path
         id="path586"
         style="fill:#010101;fill-opacity:1;fill-rule:evenodd;stroke:none"
         d="m 4246.67,809.395 -64.6,21.554 0,-43.109 64.6,21.555" /><g
         transform="scale(0.999471,1.00053)"
         id="g588"><path
           id="path590"
           style="fill:none;stroke:#010101;stroke-width:7.36969995;stroke-linecap:butt;stroke-linejoin:round;stroke-miterlimit:10;stroke-dasharray:none;stroke-opacity:1"
           d="m 1821.17,590.992 -374.44,0" /></g><path
         id="path592"
         style="fill:#010101;fill-opacity:1;fill-rule:evenodd;stroke:none"
         d="m 1384.2,591.305 64.6,-21.551 0,43.105 -64.6,-21.554" /><g
         transform="scale(0.999471,1.00053)"
         id="g594"><path
           id="path596"
           style="fill:none;stroke:#010101;stroke-width:7.36969995;stroke-linecap:butt;stroke-linejoin:round;stroke-miterlimit:10;stroke-dasharray:none;stroke-opacity:1"
           d="M 3073.73,590.992 2019.3,591.277" /></g><path
         id="path598"
         style="fill:#010101;fill-opacity:1;fill-rule:evenodd;stroke:none"
         d="m 1956.47,591.59 64.59,-21.555 0,43.11 -64.59,-21.555" /><g
         transform="scale(0.999471,1.00053)"
         id="g600"><path
           id="path602"
           style="fill:none;stroke:#010101;stroke-width:7.36969995;stroke-linecap:butt;stroke-linejoin:round;stroke-miterlimit:10;stroke-dasharray:none;stroke-opacity:1"
           d="M 4328.28,592.694 3272.15,591.277" /></g><path
         id="path604"
         style="fill:#010101;fill-opacity:1;fill-rule:evenodd;stroke:none"
         d="m 3208.66,591.59 64.59,-21.555 0,43.11 -64.59,-21.555" /><g
         transform="scale(0.999471,1.00053)"
         id="g606"><path
           id="path608"
           style="fill:none;stroke:#010101;stroke-width:7.08526993;stroke-linecap:butt;stroke-linejoin:round;stroke-miterlimit:10;stroke-dasharray:none;stroke-opacity:1"
           d="M 1334.2,648.532 1219.12,533.452" /></g><g
         transform="scale(0.999471,1.00053)"
         id="g610"><path
           id="path612"
           style="fill:none;stroke:#010101;stroke-width:7.08526993;stroke-linecap:butt;stroke-linejoin:round;stroke-miterlimit:10;stroke-dasharray:none;stroke-opacity:1"
           d="M 1219.12,648.532 1334.2,533.452" /></g><g
         transform="scale(0.999471,1.00053)"
         id="g614"><path
           id="path616"
           style="fill:none;stroke:#cc0101;stroke-width:14.45400047;stroke-linecap:butt;stroke-linejoin:round;stroke-miterlimit:10;stroke-dasharray:none;stroke-opacity:1"
           d="M 3556.16,651.936 3441.08,536.853" /></g><g
         transform="scale(0.999471,1.00053)"
         id="g618"><path
           id="path620"
           style="fill:none;stroke:#cc0101;stroke-width:14.45400047;stroke-linecap:butt;stroke-linejoin:round;stroke-miterlimit:10;stroke-dasharray:none;stroke-opacity:1"
           d="M 3441.08,651.936 3556.16,536.853" /></g><path
         id="path622"
         style="fill:#010101;fill-opacity:1;fill-rule:evenodd;stroke:none"
         d="m 118.984,1247.55 9.918,0 0,-60.12 -9.918,0 0,60.12 z m 0,23.54 9.918,0 0,-12.47 -9.918,0 0,12.47" /><path
         id="path624"
         style="fill:#010101;fill-opacity:1;fill-rule:evenodd;stroke:none"
         d="m 200.012,1223.73 0,-36.3 -9.918,0 0,36.02 c 0,5.67 -1.133,9.93 -3.399,12.76 -2.265,2.84 -5.382,4.25 -9.918,4.25 -5.379,0 -9.629,-1.69 -12.746,-5.1 -3.117,-3.4 -4.535,-7.94 -4.535,-13.9 l 0,-34.03 -9.914,0 0,60.12 9.914,0 0,-9.35 c 2.27,3.68 5.102,6.24 8.5,8.22 3.117,1.71 6.801,2.55 11.051,2.55 6.797,0 12.18,-2.26 15.582,-6.52 3.68,-4.25 5.383,-10.49 5.383,-18.72" /><path
         id="path626"
         style="fill:#010101;fill-opacity:1;fill-rule:evenodd;stroke:none"
         d="m 259.219,1238.48 0,32.61 9.918,0 0,-83.66 -9.918,0 0,8.8 c -1.981,-3.69 -4.817,-6.25 -7.93,-7.94 -3.117,-1.71 -6.801,-2.56 -11.332,-2.56 -7.367,0 -13.316,2.84 -17.852,8.79 -4.531,5.68 -6.796,13.33 -6.796,22.98 0,9.36 2.265,17.01 6.796,22.68 4.536,5.96 10.485,8.79 17.852,8.79 4.531,0 8.215,-0.84 11.332,-2.55 3.113,-1.7 5.949,-4.25 7.93,-7.94 z m -33.711,-20.98 c 0,-7.38 1.414,-13.05 4.531,-17.3 2.832,-4.26 7.082,-6.24 12.184,-6.24 5.382,0 9.347,1.98 12.465,6.24 3.117,4.25 4.531,9.92 4.531,17.3 0,7.09 -1.414,12.76 -4.531,17.01 -3.118,4.26 -7.083,6.24 -12.465,6.24 -5.102,0 -9.352,-1.98 -12.184,-6.24 -3.117,-4.25 -4.531,-9.92 -4.531,-17.01" /><path
         id="path628"
         style="fill:#010101;fill-opacity:1;fill-rule:evenodd;stroke:none"
         d="m 340.527,1219.76 0,-4.82 -45.613,0 c 0.566,-6.8 2.551,-11.91 6.234,-15.31 3.684,-3.69 8.782,-5.39 15.297,-5.39 3.969,0 7.649,0.57 11.051,1.42 3.684,0.85 7.363,2.27 10.766,4.25 l 0,-9.36 c -3.684,-1.7 -7.082,-2.84 -11.051,-3.68 -3.684,-0.85 -7.363,-1.14 -11.332,-1.14 -9.633,0 -16.996,2.84 -22.664,8.51 -5.664,5.39 -8.5,13.05 -8.5,22.69 0,9.64 2.551,17.58 7.933,23.25 5.383,5.96 12.465,8.79 21.532,8.79 8.215,0 14.449,-2.55 19.265,-7.93 4.817,-5.11 7.082,-12.2 7.082,-21.28 z m -9.918,2.84 c 0,5.39 -1.699,9.64 -4.531,13.04 -3.117,3.13 -6.801,4.82 -11.898,4.82 -5.383,0 -9.914,-1.69 -13.317,-4.82 -3.113,-3.11 -5.097,-7.37 -5.664,-13.04 l 35.41,0" /><path
         id="path630"
         style="fill:#010101;fill-opacity:1;fill-rule:evenodd;stroke:none"
         d="m 356.957,1271.09 9.918,0 0,-49.34 29.461,25.8 12.465,0 -31.727,-28.07 33.145,-32.05 -12.75,0 -30.594,29.5 0,-29.5 -9.918,0 0,83.66" /><path
         id="path632"
         style="fill:#010101;fill-opacity:1;fill-rule:evenodd;stroke:none"
         d="m 459.797,1245.86 0,-9.36 c -2.832,1.41 -5.668,2.55 -8.785,3.12 -2.832,0.84 -5.949,1.13 -9.348,1.13 -4.816,0 -8.5,-0.85 -11.047,-2.27 -2.551,-1.42 -3.683,-3.69 -3.683,-6.8 0,-2.27 0.847,-3.98 2.55,-5.39 1.7,-1.42 5.383,-2.56 10.766,-3.69 l 3.113,-0.85 c 7.082,-1.42 12.184,-3.69 15.016,-6.24 3.117,-2.84 4.535,-6.81 4.535,-11.63 0,-5.67 -2.269,-9.92 -6.801,-13.33 -4.25,-3.12 -10.48,-4.82 -18.133,-4.82 -3.398,0 -6.515,0.29 -10.199,0.85 -3.398,0.57 -7.082,1.71 -11.047,2.84 l 0,10.21 c 3.684,-1.99 7.368,-3.4 10.766,-4.25 3.684,-0.86 7.082,-1.42 10.766,-1.42 4.531,0 8.214,0.85 10.765,2.27 2.551,1.7 3.684,3.97 3.684,6.8 0,2.84 -0.852,4.82 -2.836,6.24 -1.699,1.42 -5.664,2.84 -11.613,4.25 l -3.684,0.86 c -5.949,1.13 -10.48,3.12 -13.316,5.95 -2.547,2.55 -3.965,6.24 -3.965,10.78 0,5.67 1.984,10.21 5.949,13.33 4.25,3.11 9.914,4.53 17.281,4.53 3.684,0 7.082,-0.28 10.199,-0.84 3.399,-0.58 6.235,-1.14 9.067,-2.27" /><path
         id="path634"
         style="fill:#010101;fill-opacity:1;fill-rule:evenodd;stroke:none"
         d="m 478.777,1247.55 9.914,0 0,-60.12 -9.914,0 0,60.12 z m 0,23.54 9.914,0 0,-12.47 -9.914,0 0,12.47" /><path
         id="path636"
         style="fill:#010101;fill-opacity:1;fill-rule:evenodd;stroke:none"
         d="m 512.207,1201.05 11.332,0 0,-13.62 -11.332,0 0,13.62 z m 0,43.39 11.332,0 0,-13.62 -11.332,0 0,13.62" /><path
         id="path638"
         style="fill:#010101;fill-opacity:1;fill-rule:evenodd;stroke:none"
         d="m 701.734,1260.32 c -5.668,0 -9.914,-2.84 -12.75,-8.23 -2.832,-5.67 -4.25,-13.89 -4.25,-24.95 0,-11.06 1.418,-19.29 4.25,-24.96 2.836,-5.39 7.082,-8.22 12.75,-8.22 5.664,0 9.914,2.83 12.75,8.22 2.832,5.67 4.246,13.9 4.246,24.96 0,11.06 -1.414,19.28 -4.246,24.95 -2.836,5.39 -7.086,8.23 -12.75,8.23 z m 0,8.51 c 9.067,0 15.864,-3.69 20.68,-10.78 4.816,-7.09 7.082,-17.3 7.082,-30.91 0,-13.62 -2.266,-23.82 -7.082,-30.91 -4.816,-7.09 -11.613,-10.78 -20.68,-10.78 -9.066,0 -15.863,3.69 -20.679,10.78 -4.817,7.09 -7.086,17.29 -7.086,30.91 0,13.61 2.269,23.82 7.086,30.91 4.816,7.09 11.613,10.78 20.679,10.78" /><path
         id="path640"
         style="fill:#010101;fill-opacity:1;fill-rule:evenodd;stroke:none"
         d="m 1286.75,1230.54 c 5.38,-1.13 9.35,-3.4 12.46,-7.09 2.84,-3.4 4.25,-7.94 4.25,-13.04 0,-7.95 -2.83,-14.18 -8.21,-18.44 -5.39,-4.25 -13.04,-6.52 -22.95,-6.52 -3.4,0 -7.08,0.28 -10.48,1.13 -3.68,0.57 -7.37,1.42 -11.05,2.84 l 0,10.49 c 3.12,-1.7 6.23,-3.12 9.91,-3.97 3.41,-0.85 7.37,-1.42 11.05,-1.42 6.8,0 12.18,1.42 15.59,3.97 3.68,2.84 5.38,6.81 5.38,11.92 0,4.82 -1.7,8.5 -5.1,11.34 -3.12,2.55 -7.65,3.97 -13.6,3.97 l -9.35,0 0,8.79 9.64,0 c 5.38,0 9.34,1.13 12.17,3.12 2.84,2.27 4.25,5.39 4.25,9.36 0,3.97 -1.41,7.37 -4.25,9.36 -3.11,2.27 -7.08,3.4 -12.46,3.4 -3.12,0 -6.23,-0.28 -9.63,-0.85 -3.4,-0.85 -7.08,-1.7 -11.05,-3.12 l 0,9.64 c 3.97,1.14 7.93,1.99 11.61,2.56 3.41,0.56 6.8,0.85 9.92,0.85 8.22,0 14.73,-1.99 19.55,-5.67 4.81,-3.69 7.08,-8.8 7.08,-15.03 0,-4.54 -1.13,-8.23 -3.68,-11.35 -2.55,-3.12 -6.23,-5.1 -11.05,-6.24" /><path
         id="path642"
         style="fill:#010101;fill-opacity:1;fill-rule:evenodd;stroke:none"
         d="m 1854.2,1257.77 -25.22,-42.26 25.22,0 0,42.26 z m -1.7,9.92 12.46,0 0,-52.18 10.77,0 0,-8.79 -10.77,0 0,-19.29 -10.76,0 0,19.29 -34,0 0,10.21 32.3,50.76" /><path
         id="path644"
         style="fill:#010101;fill-opacity:1;fill-rule:evenodd;stroke:none"
         d="m 3087.69,1196.51 37.96,0 0,-9.08 -50.99,0 0,9.08 c 4.25,4.25 9.63,9.92 16.99,17.3 7.08,7.09 11.33,11.63 13.32,13.89 3.4,3.98 5.95,7.09 7.37,9.93 1.41,2.55 1.98,5.39 1.98,7.94 0,4.25 -1.42,7.66 -4.53,10.49 -2.84,2.56 -6.81,3.98 -11.62,3.98 -3.4,0 -7.08,-0.57 -10.77,-1.71 -3.96,-1.42 -7.93,-3.12 -12.18,-5.67 l 0,11.06 c 4.25,1.7 8.5,3.12 12.18,3.97 3.97,0.85 7.37,1.42 10.49,1.42 8.21,0 14.73,-1.98 19.82,-6.24 4.82,-4.25 7.37,-9.64 7.37,-16.73 0,-3.12 -0.56,-6.24 -1.98,-9.36 -1.14,-2.83 -3.4,-6.52 -6.52,-10.49 -0.85,-0.85 -3.68,-3.97 -8.49,-9.08 -4.82,-4.82 -11.62,-11.91 -20.4,-20.7" /><path
         id="path646"
         style="fill:#010101;fill-opacity:1;fill-rule:evenodd;stroke:none"
         d="m 4334.77,1196.51 16.72,0 0,61.54 -18.13,-4.25 0,9.92 18.13,3.97 10.76,0 0,-71.18 16.72,0 0,-9.08 -44.2,0 0,9.08" /><g
         transform="scale(0.999471,1.00053)"
         id="g648"><path
           id="path650"
           style="fill:none;stroke:#017827;stroke-width:14.45400047;stroke-linecap:butt;stroke-linejoin:round;stroke-miterlimit:10;stroke-dasharray:none;stroke-opacity:1"
           d="m 1957.5,807.264 486.12,0 0,-671.207 580.51,0" /></g><g
         transform="scale(0.999471,1.00053)"
         id="g652"><path
           id="path654"
           style="fill:none;stroke:#017827;stroke-width:14.45400047;stroke-linecap:butt;stroke-linejoin:round;stroke-miterlimit:10;stroke-dasharray:none;stroke-opacity:1"
           d="m 3024.13,136.057 155.9,0" /></g><g
         transform="scale(0.999471,1.00053)"
         id="g656"><path
           id="path658"
           style="fill:none;stroke:#017827;stroke-width:14.73939991;stroke-linecap:butt;stroke-linejoin:round;stroke-miterlimit:10;stroke-dasharray:none;stroke-opacity:1"
           d="m 3180.03,135.772 569.73,0 0,673.194 426.88,0" /></g><path
         id="path660"
         style="fill:#017827;fill-opacity:1;fill-rule:evenodd;stroke:none"
         d="m 4246.67,809.395 -75.64,25.242 0,-50.485 75.64,25.243" /><g
         transform="scale(0.999471,1.00053)"
         id="g662"><path
           id="path664"
           style="fill:none;stroke:#017827;stroke-width:14.45400047;stroke-linecap:butt;stroke-linejoin:round;stroke-miterlimit:10;stroke-dasharray:none;stroke-opacity:1"
           d="m 3024.13,7.93721 155.9,0" /></g><g
         transform="scale(0.999471,1.00053)"
         id="g666"><path
           id="path668"
           style="fill:none;stroke:#017827;stroke-width:14.45400047;stroke-linecap:butt;stroke-linejoin:round;stroke-miterlimit:10;stroke-dasharray:none;stroke-opacity:1"
           d="m 4328.28,592.694 -434.81,0 0,-584.75679 -713.44,0" /></g><g
         transform="scale(0.999471,1.00053)"
         id="g670"><path
           id="path672"
           style="fill:none;stroke:#017827;stroke-width:14.73939991;stroke-linecap:butt;stroke-linejoin:round;stroke-miterlimit:10;stroke-dasharray:none;stroke-opacity:1"
           d="m 3024.13,7.6522 -724.22,0 0,583.6248 -270.12,0" /></g><path
         id="path674"
         style="fill:#017827;fill-opacity:1;fill-rule:evenodd;stroke:none"
         d="m 1956.47,591.59 75.64,-25.242 0,50.48 -75.64,-25.238" /><g
         transform="scale(0.999471,1.00053)"
         id="g676"><path
           id="path678"
           style="fill:none;stroke:#cc0101;stroke-width:14.45400047;stroke-linecap:butt;stroke-linejoin:round;stroke-miterlimit:10;stroke-dasharray:none;stroke-opacity:1"
           d="M 2772.14,864.238 2657.06,749.158" /></g><g
         transform="scale(0.999471,1.00053)"
         id="g680"><path
           id="path682"
           style="fill:none;stroke:#cc0101;stroke-width:14.45400047;stroke-linecap:butt;stroke-linejoin:round;stroke-miterlimit:10;stroke-dasharray:none;stroke-opacity:1"
           d="m 2657.06,864.238 115.08,-115.08" /></g></g></g></svg>