<?xml version="1.0" encoding="UTF-8" standalone="no"?>
<svg
   xmlns:dc="http://purl.org/dc/elements/1.1/"
   xmlns:cc="http://creativecommons.org/ns#"
   xmlns:rdf="http://www.w3.org/1999/02/22-rdf-syntax-ns#"
   xmlns:svg="http://www.w3.org/2000/svg"
   xmlns="http://www.w3.org/2000/svg"
   viewBox="0 0 541.25 123.75"
   height="123.75"
   width="541.25"
   xml:space="preserve"
   version="1.1"
   id="svg2"><metadata
     id="metadata8"><rdf:RDF><cc:Work
         rdf:about=""><dc:format>image/svg+xml</dc:format><dc:type
           rdf:resource="http://purl.org/dc/dcmitype/StillImage" /></cc:Work></rdf:RDF></metadata><defs
     id="defs6" /><g
     transform="matrix(1.25,0,0,-1.25,0,123.75)"
     id="g10"><g
       transform="scale(0.1,0.1)"
       id="g12"><path
         id="path14"
         style="fill:#ffffff;fill-opacity:1;fill-rule:evenodd;stroke:none"
         d="m 219.789,553.676 -216.1015,0 0,215.742 432.2075,0 0,-215.742 -216.106,0" /><g
         transform="scale(1.00018,0.999824)"
         id="g16"><path
           id="path18"
           style="fill:none;stroke:#010101;stroke-width:7.08624983;stroke-linecap:butt;stroke-linejoin:round;stroke-miterlimit:10;stroke-dasharray:none;stroke-opacity:1"
           d="m 219.469,553.773 -216.06726,0 0,216.066 432.13126,0 0,-216.066 -216.064,0 z" /></g><path
         id="path20"
         style="fill:#010101;fill-opacity:1;fill-rule:evenodd;stroke:none"
         d="m 161.938,687.203 c 0,1.703 0,6.52 -4.825,6.52 -4.535,0 -5.105,-4.25 -4.82,-6.52 l 1.133,-24.379 c 0,-2.551 1.137,-4.254 3.687,-4.254 1.418,0 3.407,0.852 3.407,4.254 l 1.418,24.379" /><path
         id="path22"
         style="fill:#010101;fill-opacity:1;fill-rule:evenodd;stroke:none"
         d="m 243.613,656.02 c 0,34.871 -2.554,38.273 -24.105,38.273 -21.84,0 -24.391,-3.402 -24.391,-38.273 0,-34.872 2.551,-37.989 24.391,-37.989 21.551,0 24.105,3.117 24.105,37.989 z m -7.656,1.132 c 0,-7.371 0,-16.726 -1.418,-23.246 -1.418,-5.953 -3.973,-8.789 -15.031,-8.789 -11.063,0 -13.613,2.836 -15.031,8.223 -1.418,6.234 -1.418,17.008 -1.418,23.812 0,7.657 0,16.161 1.132,21.832 1.704,6.801 5.391,8.219 15.317,8.219 9.355,0 13.328,-1.418 15.031,-7.652 1.418,-5.672 1.418,-15.028 1.418,-22.399" /><path
         id="path24"
         style="fill:#010101;fill-opacity:1;fill-rule:evenodd;stroke:none"
         d="m 286.719,687.203 c 0,1.703 0,6.52 -4.821,6.52 -4.539,0 -5.105,-4.25 -4.82,-6.52 l 1.133,-24.379 c 0,-2.551 1.137,-4.254 3.687,-4.254 1.418,0 3.403,0.852 3.403,4.254 l 1.418,24.379" /><path
         id="path26"
         style="fill:#ffffff;fill-opacity:1;fill-rule:evenodd;stroke:none"
         d="m 651.996,553.676 -216.101,0 0,215.742 431.921,0 0,-215.742 -215.82,0" /><g
         transform="scale(1.00018,0.999824)"
         id="g28"><path
           id="path30"
           style="fill:none;stroke:#010101;stroke-width:7.08624983;stroke-linecap:butt;stroke-linejoin:round;stroke-miterlimit:10;stroke-dasharray:none;stroke-opacity:1"
           d="m 651.596,553.773 -216.063,0 0,216.066 432.13,0 0,-216.066 -216.067,0 z" /></g><path
         id="path32"
         style="fill:#010101;fill-opacity:1;fill-rule:evenodd;stroke:none"
         d="m 594.141,687.203 c 0,1.703 0,6.52 -4.821,6.52 -4.535,0 -5.105,-4.25 -4.82,-6.52 l 1.133,-24.379 c 0,-2.551 1.137,-4.254 3.687,-4.254 1.418,0 3.403,0.852 3.403,4.254 l 1.418,24.379" /><path
         id="path34"
         style="fill:#010101;fill-opacity:1;fill-rule:evenodd;stroke:none"
         d="m 677.805,655.168 c 0,19.277 -9.926,37.422 -25.809,37.422 l -23.82,0 c -1.703,0 -4.824,0 -4.824,-3.402 0,-3.684 3.121,-3.684 4.824,-3.684 l 2.551,0 0,-59.254 -2.551,0 c -1.703,0 -4.824,0 -4.824,-3.402 0,-3.684 3.121,-3.684 4.824,-3.684 l 23.82,0 c 15.598,0 25.809,17.293 25.809,36.004 z m -7.657,0.285 c 0,-14.461 -7.089,-29.203 -20.136,-29.203 l -11.629,0 0,59.254 11.344,0 c 13.898,0 20.421,-16.445 20.421,-30.051" /><path
         id="path36"
         style="fill:#010101;fill-opacity:1;fill-rule:evenodd;stroke:none"
         d="m 718.926,687.203 c 0,1.703 0,6.52 -4.821,6.52 -4.539,0 -5.105,-4.25 -4.82,-6.52 l 1.133,-24.379 c 0,-2.551 1.133,-4.254 3.687,-4.254 1.418,0 3.403,0.852 3.403,4.254 l 1.418,24.379" /><path
         id="path38"
         style="fill:#ffffff;fill-opacity:1;fill-rule:evenodd;stroke:none"
         d="m 1083.92,553.676 -216.104,0 0,215.742 432.204,0 0,-215.742 -216.1,0" /><g
         transform="scale(1.00018,0.999824)"
         id="g40"><path
           id="path42"
           style="fill:none;stroke:#010101;stroke-width:7.08624983;stroke-linecap:butt;stroke-linejoin:round;stroke-miterlimit:10;stroke-dasharray:none;stroke-opacity:1"
           d="m 1083.73,553.773 -216.067,0 0,216.066 432.127,0 0,-216.066 -216.06,0 z" /></g><path
         id="path44"
         style="fill:#010101;fill-opacity:1;fill-rule:evenodd;stroke:none"
         d="m 1026.07,687.203 c 0,1.703 0,6.52 -4.83,6.52 -4.53,0 -5.1,-4.25 -4.82,-6.52 l 1.14,-24.379 c 0,-2.551 1.13,-4.254 3.68,-4.254 1.42,0 3.41,0.852 3.41,4.254 l 1.42,24.379" /><path
         id="path46"
         style="fill:#010101;fill-opacity:1;fill-rule:evenodd;stroke:none"
         d="m 1112,624.266 0,9.64 c 0,2.27 0,5.102 -3.98,5.102 -3.97,0 -3.97,-2.832 -3.97,-5.102 l 0,-7.656 -32.04,0 0,27.5 15.88,0 c 0,-3.969 0,-6.234 3.97,-6.234 3.69,0 3.69,2.832 3.69,4.816 l 0,10.207 c 0,1.984 0,4.82 -3.69,4.82 -3.97,0 -3.97,-2.269 -3.97,-6.519 l -15.88,0 0,24.664 29.49,0 0,-5.672 c 0,-2.266 0,-4.82 3.69,-4.82 3.97,0 3.97,2.554 3.97,4.82 l 0,7.938 c 0,3.687 -0.57,4.82 -4.82,4.82 l -43.39,0 c -1.7,0 -4.82,0 -4.82,-3.402 0,-3.684 3.12,-3.684 4.82,-3.684 l 3.4,0 0,-59.254 -3.4,0 c -1.7,0 -4.82,0 -4.82,-3.402 0,-3.684 3.12,-3.684 4.82,-3.684 l 46.23,0 c 3.96,0 4.82,1.133 4.82,5.102" /><path
         id="path48"
         style="fill:#010101;fill-opacity:1;fill-rule:evenodd;stroke:none"
         d="m 1150.85,687.203 c 0,1.703 0,6.52 -4.82,6.52 -4.54,0 -5.11,-4.25 -4.82,-6.52 l 1.13,-24.379 c 0,-2.551 1.14,-4.254 3.69,-4.254 1.42,0 3.4,0.852 3.4,4.254 l 1.42,24.379" /><path
         id="path50"
         style="fill:#ffffff;fill-opacity:1;fill-rule:evenodd;stroke:none"
         d="m 1516.13,553.676 -216.11,0 0,215.742 432.21,0 0,-215.742 -216.1,0" /><g
         transform="scale(1.00018,0.999824)"
         id="g52"><path
           id="path54"
           style="fill:none;stroke:#010101;stroke-width:7.08624983;stroke-linecap:butt;stroke-linejoin:round;stroke-miterlimit:10;stroke-dasharray:none;stroke-opacity:1"
           d="m 1515.86,553.773 -216.07,0 0,216.066 432.14,0 0,-216.066 -216.07,0 z" /></g><path
         id="path56"
         style="fill:#010101;fill-opacity:1;fill-rule:evenodd;stroke:none"
         d="m 1458.27,687.203 c 0,1.703 0,6.52 -4.82,6.52 -4.54,0 -5.11,-4.25 -4.82,-6.52 l 1.13,-24.379 c 0,-2.551 1.14,-4.254 3.69,-4.254 1.42,0 3.4,0.852 3.4,4.254 l 1.42,24.379" /><path
         id="path58"
         style="fill:#010101;fill-opacity:1;fill-rule:evenodd;stroke:none"
         d="m 1546.47,630.504 c 0,2.269 -1.13,3.969 -3.97,3.969 -3.69,0 -3.97,-2.836 -3.97,-3.969 0,-0.852 -0.28,-5.668 -2.55,-5.668 -3.12,0 -3.12,5.383 -3.12,12.187 0,8.223 0,8.79 -1.14,11.907 -1.7,3.402 -4.53,5.957 -5.95,6.804 6.52,3.969 10.21,10.493 10.21,17.012 0,9.922 -8.79,19.844 -22.97,19.844 l -20.42,0 c -1.7,0 -4.82,0 -4.82,-3.402 0,-3.684 3.12,-3.684 4.82,-3.684 l 2.55,0 0,-59.254 -2.55,0 c -1.7,0 -4.82,0 -4.82,-3.402 0,-3.684 3.12,-3.684 4.82,-3.684 l 13.04,0 c 1.71,0 5.11,0 5.11,3.684 0,3.402 -3.4,3.402 -5.11,3.402 l -2.55,0 0,26.367 9.36,0 c 2.27,0 5.95,0 9.92,-3.402 2.56,-2.551 2.56,-5.387 2.56,-10.488 0,-8.223 0,-11.907 2.27,-15.879 1.98,-3.118 5.1,-5.102 8.79,-5.102 7.94,0 10.49,8.504 10.49,12.758 z m -18.43,42.242 c 0,-5.953 -5.11,-13.043 -16.17,-13.043 l -8.79,0 0,25.801 8.79,0 c 11.06,0 16.17,-7.09 16.17,-12.758" /><path
         id="path60"
         style="fill:#010101;fill-opacity:1;fill-rule:evenodd;stroke:none"
         d="m 1583.05,687.203 c 0,1.703 0,6.52 -4.82,6.52 -4.53,0 -5.1,-4.25 -4.82,-6.52 l 1.14,-24.379 c 0,-2.551 1.13,-4.254 3.68,-4.254 1.42,0 3.41,0.852 3.41,4.254 l 1.41,24.379" /><path
         id="path62"
         style="fill:#ffffff;fill-opacity:1;fill-rule:evenodd;stroke:none"
         d="m 1948.33,553.676 -216.1,0 0,215.742 432.2,0 0,-215.742 -216.1,0" /><g
         transform="scale(1.00018,0.999824)"
         id="g64"><path
           id="path66"
           style="fill:none;stroke:#010101;stroke-width:7.08624983;stroke-linecap:butt;stroke-linejoin:round;stroke-miterlimit:10;stroke-dasharray:none;stroke-opacity:1"
           d="m 1947.7,553.773 -215.77,0 0,216.066 431.84,0 0,-216.066 -216.07,0 z" /></g><path
         id="path68"
         style="fill:#010101;fill-opacity:1;fill-rule:evenodd;stroke:none"
         d="m 250.703,854.184 c 0,11.343 -0.851,21.832 -6.523,31.468 -3.969,6.524 -11.344,10.774 -19.285,10.774 -5.957,0 -14.465,-2.551 -19.852,-11.906 -5.672,-9.356 -6.238,-22.114 -6.238,-30.336 0,-5.954 0,-19.844 5.386,-29.481 6.239,-10.492 15.317,-12.191 20.418,-12.191 7.094,0 15.602,2.836 20.704,12.758 4.824,8.789 5.39,19.277 5.39,28.914 z m -9.926,1.418 c 0,-8.219 0,-16.442 -2.836,-24.379 -2.836,-8.223 -8.507,-10.774 -13.046,-10.774 -16.165,0 -16.165,23.813 -16.165,35.153 0,7.656 0,13.609 1.985,19.847 2.269,8.219 7.09,13.039 13.894,13.039 16.168,0 16.168,-21.828 16.168,-32.886" /><path
         id="path70"
         style="fill:#010101;fill-opacity:1;fill-rule:evenodd;stroke:none"
         d="m 678.656,815.063 0,7.371 -15.316,0 0,73.711 -2.551,0 c -8.226,-7.938 -19.57,-7.938 -23.824,-7.938 l 0,-7.371 c 3.402,0 9.359,0 16.164,2.832 l 0,-61.234 -15.313,0 0,-7.371 40.84,0" /><path
         id="path72"
         style="fill:#010101;fill-opacity:1;fill-rule:evenodd;stroke:none"
         d="m 1113.41,815.063 0,9.07 -22.4,0 c -1.42,0 -2.84,-0.281 -4.26,-0.281 l -13.32,0 19.85,17.859 c 12.48,10.488 20.13,17.012 20.13,28.633 0,13.609 -9.92,25.801 -26.09,25.801 -12.76,0 -20.42,-7.372 -24.11,-19.278 l 5.68,-6.804 c 3.12,13.89 9.36,17.859 16.73,17.859 10.78,0 17.3,-8.223 17.3,-17.859 0,-11.059 -7.66,-17.864 -16.45,-25.801 l -22.12,-20.977 0,-8.222 49.06,0" /><path
         id="path74"
         style="fill:#010101;fill-opacity:1;fill-rule:evenodd;stroke:none"
         d="m 1546.75,836.891 c 0,9.355 -7.09,17.293 -16.73,20.695 8.23,4.254 13.33,11.91 13.33,20.414 0,10.207 -10.21,18.145 -22.69,18.145 -9.92,0 -18.43,-5.106 -23.53,-12.758 l 4.82,-6.805 c 5.1,10.488 14.18,12.191 18.71,12.191 6.24,0 12.2,-3.402 12.2,-11.058 0,-4.25 -2.56,-14.742 -15.6,-15.875 -2.27,-0.285 -4.25,-0.285 -6.52,-0.285 l 0,-7.938 9.07,0 c 11.63,0 15.32,-9.355 15.32,-16.726 0,-9.356 -5.68,-16.442 -14.75,-16.442 -9.93,0 -19,5.387 -23.54,11.625 -0.85,-4.82 -0.85,-4.82 -1.42,-7.656 5.96,-7.086 15.03,-11.906 25.24,-11.906 15.04,0 26.09,11.621 26.09,24.379" /><path
         id="path76"
         style="fill:#010101;fill-opacity:1;fill-rule:evenodd;stroke:none"
         d="m 1980.66,835.191 0,7.653 -12.19,0 0,50.75 -11.63,0 -30.91,-50.75 0,-7.653 32.61,0 0,-20.128 9.93,0 0,20.128 12.19,0 z m -21.55,7.653 -23.25,0 7.37,11.91 c 3.68,6.234 15.88,26.93 15.88,33.168 l 0,-45.078" /><path
         id="path78"
         style="fill:#ffffff;fill-opacity:1;fill-rule:evenodd;stroke:none"
         d="m 2380.54,553.676 -216.11,0 0,215.742 432.21,0 0,-215.742 -216.1,0" /><g
         transform="scale(1.00018,0.999824)"
         id="g80"><path
           id="path82"
           style="fill:none;stroke:#010101;stroke-width:7.08624983;stroke-linecap:butt;stroke-linejoin:round;stroke-miterlimit:10;stroke-dasharray:none;stroke-opacity:1"
           d="m 2379.83,553.773 -216.06,0 0,216.066 432.13,0 0,-216.066 -216.07,0 z" /></g><path
         id="path84"
         style="fill:#ffffff;fill-opacity:1;fill-rule:evenodd;stroke:none"
         d="m 2812.75,553.676 -216.11,0 0,215.742 431.93,0 0,-215.742 -215.82,0" /><g
         transform="scale(1.00018,0.999824)"
         id="g86"><path
           id="path88"
           style="fill:none;stroke:#010101;stroke-width:7.08624983;stroke-linecap:butt;stroke-linejoin:round;stroke-miterlimit:10;stroke-dasharray:none;stroke-opacity:1"
           d="m 2811.97,553.773 -216.07,0 0,216.066 432.13,0 0,-216.066 -216.06,0 z" /></g><path
         id="path90"
         style="fill:#ffffff;fill-opacity:1;fill-rule:evenodd;stroke:none"
         d="m 3244.67,553.676 -216.1,0 0,215.742 432.2,0 0,-215.742 -216.1,0" /><g
         transform="scale(1.00018,0.999824)"
         id="g92"><path
           id="path94"
           style="fill:none;stroke:#010101;stroke-width:7.08624983;stroke-linecap:butt;stroke-linejoin:round;stroke-miterlimit:10;stroke-dasharray:none;stroke-opacity:1"
           d="m 3244.1,553.773 -216.07,0 0,216.066 432.13,0 0,-216.066 -216.06,0 z" /></g><path
         id="path96"
         style="fill:#ffffff;fill-opacity:1;fill-rule:evenodd;stroke:none"
         d="m 3676.88,553.676 -216.11,0 0,215.742 432.21,0 0,-215.742 -216.1,0" /><g
         transform="scale(1.00018,0.999824)"
         id="g98"><path
           id="path100"
           style="fill:none;stroke:#010101;stroke-width:7.08624983;stroke-linecap:butt;stroke-linejoin:round;stroke-miterlimit:10;stroke-dasharray:none;stroke-opacity:1"
           d="m 3676.23,553.773 -216.07,0 0,216.066 432.13,0 0,-216.066 -216.06,0 z" /></g><path
         id="path102"
         style="fill:#ffffff;fill-opacity:1;fill-rule:evenodd;stroke:none"
         d="m 4109.08,553.676 -216.1,0 0,215.742 432.2,0 0,-215.742 -216.1,0" /><g
         transform="scale(1.00018,0.999824)"
         id="g104"><path
           id="path106"
           style="fill:none;stroke:#010101;stroke-width:7.08624983;stroke-linecap:butt;stroke-linejoin:round;stroke-miterlimit:10;stroke-dasharray:none;stroke-opacity:1"
           d="m 4108.07,553.773 -215.78,0 0,216.066 431.85,0 0,-216.066 -216.07,0 z" /></g><path
         id="path108"
         style="fill:#010101;fill-opacity:1;fill-rule:evenodd;stroke:none"
         d="m 2410.03,839.445 c 0,15.024 -10.49,26.93 -23.25,26.93 -1.7,0 -7.38,0 -13.05,-4.82 l 0,23.816 32.33,0 0,8.223 -41.68,0 0,-44.512 8.78,0 c 3.69,8.789 11.07,9.356 13.34,9.356 4.82,0 12.19,-3.684 12.19,-18.711 0,-14.743 -8.79,-19.278 -15.88,-19.278 -6.24,0 -14.47,2.836 -19.01,10.774 l -4.25,-7.09 c 1.7,-2.551 9.93,-11.621 23.26,-11.621 15.03,0 27.22,11.906 27.22,26.933" /><path
         id="path110"
         style="fill:#010101;fill-opacity:1;fill-rule:evenodd;stroke:none"
         d="m 2843.38,841.996 c 0,6.52 -1.14,12.473 -5.11,18.992 -4.82,7.657 -9.07,9.641 -14.75,9.641 -4.54,0 -13.33,-1.418 -20.7,-9.922 1.13,16.16 9.36,28.066 22.4,28.066 2.27,0 6.81,0 12.76,-2.55 l 0,7.652 c -5.67,2.27 -10.49,2.27 -13.04,2.27 -17.3,0 -32.9,-16.727 -32.9,-42.528 0,-32.883 14.46,-41.105 25.81,-41.105 7.37,0 12.76,2.551 17.3,7.937 5.96,6.52 8.23,11.906 8.23,21.547 z m -10.5,0 c 0,-4.82 0,-9.641 -3.12,-14.742 -2.27,-3.688 -5.67,-6.805 -11.91,-6.805 -12.76,0 -14.46,17.012 -15.03,20.981 0,1.699 0,1.984 0.28,3.117 0,9.07 5.67,18.426 15.32,18.426 4.53,0 8.79,-1.7 11.91,-7.371 2.27,-4.25 2.55,-8.219 2.55,-13.606" /><path
         id="path112"
         style="fill:#010101;fill-opacity:1;fill-rule:evenodd;stroke:none"
         d="m 3275.3,885.371 0,8.223 -51.34,0 0,-9.074 23.54,0 c 1.42,0 2.84,0 4.26,0 l 14.74,0 c -18.71,-19.563 -28.92,-43.661 -28.92,-70.875 l 10.78,0 c 0,31.183 13.04,56.418 26.94,71.726" /><path
         id="path114"
         style="fill:#010101;fill-opacity:1;fill-rule:evenodd;stroke:none"
         d="m 3707.5,836.891 c 0,7.371 -4.54,16.16 -16.73,20.695 7.37,2.269 15.03,8.508 15.03,17.578 0,11.059 -10.21,20.981 -23.82,20.981 -14.18,0 -24.11,-10.207 -24.11,-20.981 0,-9.07 7.66,-15.309 15.03,-17.578 -12.47,-4.535 -16.73,-13.606 -16.73,-20.695 0,-13.325 11.35,-24.379 25.53,-24.379 14.74,0 25.8,11.34 25.8,24.379 z m -10.49,38.273 c 0,-7.371 -5.39,-13.609 -15.31,-13.609 -9.36,0 -15.04,5.672 -15.04,13.609 0,7.938 5.96,13.609 15.04,13.609 9.92,0 15.31,-5.953 15.31,-13.609 z m 0,-38.273 c 0,-11.055 -7.09,-16.442 -15.03,-16.442 -8.51,0 -15.32,5.668 -15.32,16.442 0,12.757 9.08,16.726 15.04,16.726 6.8,0 15.31,-4.535 15.31,-16.726" /><path
         id="path116"
         style="fill:#010101;fill-opacity:1;fill-rule:evenodd;stroke:none"
         d="m 4139.71,855.32 c 0,32.602 -14.18,40.825 -25.24,40.825 -6.81,0 -12.76,-2.27 -18.15,-8.223 -5.96,-6.52 -7.94,-11.906 -7.94,-20.981 0,-8.218 1.7,-14.171 5.67,-20.125 4.25,-6.523 8.22,-8.789 14.18,-8.789 10.21,0 17.58,5.953 20.7,9.922 -1.98,-21.547 -12.48,-27.5 -20.42,-27.5 -3.4,0 -7.94,0.567 -12.47,4.535 l -3.97,-6.804 c 5.38,-4.25 10.77,-5.668 16.44,-5.668 16.17,0 31.2,16.726 31.2,42.808 z m -11.06,9.071 c 0,-9.922 -5.95,-18.711 -15.31,-18.711 -6.53,0 -9.36,3.687 -11.35,6.519 -3.12,4.821 -3.12,9.641 -3.12,14.742 0,5.106 0,10.207 3.97,15.594 1.42,1.985 4.54,6.238 11.63,6.238 12.48,0 13.9,-17.293 14.18,-21.832 0,-0.566 0,-1.699 0,-2.55" /><path
         id="path118"
         style="fill:#ffffff;fill-opacity:1;fill-rule:evenodd;stroke:none"
         d="m 219.789,3.96875 -216.1015,0 0,215.74225 432.2075,0 0,-215.74225 -216.106,0" /><g
         transform="scale(1.00018,0.999824)"
         id="g120"><path
           id="path122"
           style="fill:none;stroke:#010101;stroke-width:7.08624983;stroke-linecap:butt;stroke-linejoin:round;stroke-miterlimit:10;stroke-dasharray:none;stroke-opacity:1"
           d="m 219.469,3.96945 -216.06726,0 0,216.06555 432.13126,0 0,-216.06555 -216.064,0 z" /></g><path
         id="path124"
         style="fill:#010101;fill-opacity:1;fill-rule:evenodd;stroke:none"
         d="m 161.938,137.496 c 0,1.703 0,6.524 -4.825,6.524 -4.535,0 -5.105,-4.254 -4.82,-6.524 l 1.133,-24.379 c 0,-2.551 1.137,-4.254 3.687,-4.254 1.418,0 3.407,0.852 3.407,4.254 l 1.418,24.379" /><path
         id="path126"
         style="fill:#010101;fill-opacity:1;fill-rule:evenodd;stroke:none"
         d="m 248.148,73.1445 c 0,3.4024 -2.835,3.4024 -5.953,3.4024 l 0,59.2501 c 3.118,0 5.953,0 5.953,3.683 0,3.403 -3.117,3.403 -4.82,3.403 l -6.523,0 c -4.535,0 -5.387,-1.418 -6.239,-4.535 l -6.804,-21.547 c -1.703,-4.817 -3.688,-10.488 -4.254,-14.457 l -0.285,0 c -0.852,5.953 -11.344,37.422 -11.629,37.707 -1.133,2.832 -3.684,2.832 -5.672,2.832 l -6.238,0 c -1.704,0 -5.106,0 -5.106,-3.403 0,-3.683 3.121,-3.683 6.242,-3.683 l 0,-59.2501 c -3.121,0 -6.242,0 -6.242,-3.4024 0,-3.6875 3.402,-3.6875 5.106,-3.6875 l 9.074,0 c 1.703,0 4.824,0 4.824,3.6875 0,3.4024 -3.121,3.4024 -6.242,3.4024 l 0,57.8321 0.285,0 c 0.566,-3.684 1.133,-4.82 2.551,-9.356 l 8.508,-26.648 c 0.285,-0.8516 1.136,-4.2539 4.824,-4.2539 1.418,0 3.402,0.8516 4.254,3.1211 0.566,1.6992 11.625,35.4378 11.625,37.1368 l 0,-57.8321 c -3.117,0 -6.239,0 -6.239,-3.4024 0,-3.6875 3.403,-3.6875 5.106,-3.6875 l 9.074,0 c 1.703,0 4.82,0 4.82,3.6875" /><path
         id="path128"
         style="fill:#010101;fill-opacity:1;fill-rule:evenodd;stroke:none"
         d="m 286.719,137.496 c 0,1.703 0,6.524 -4.821,6.524 -4.539,0 -5.105,-4.254 -4.82,-6.524 l 1.133,-24.379 c 0,-2.551 1.137,-4.254 3.687,-4.254 1.418,0 3.403,0.852 3.403,4.254 l 1.418,24.379" /><path
         id="path130"
         style="fill:#ffffff;fill-opacity:1;fill-rule:evenodd;stroke:none"
         d="m 651.996,3.96875 -216.101,0 0,215.74225 431.921,0 0,-215.74225 -215.82,0" /><g
         transform="scale(1.00018,0.999824)"
         id="g132"><path
           id="path134"
           style="fill:none;stroke:#010101;stroke-width:7.08624983;stroke-linecap:butt;stroke-linejoin:round;stroke-miterlimit:10;stroke-dasharray:none;stroke-opacity:1"
           d="m 651.596,3.96945 -216.063,0 0,216.06555 432.13,0 0,-216.06555 -216.067,0 z" /></g><path
         id="path136"
         style="fill:#010101;fill-opacity:1;fill-rule:evenodd;stroke:none"
         d="m 594.141,137.496 c 0,1.703 0,6.524 -4.821,6.524 -4.535,0 -5.105,-4.254 -4.82,-6.524 l 1.133,-24.379 c 0,-2.551 1.137,-4.254 3.687,-4.254 1.418,0 3.403,0.852 3.403,4.254 l 1.418,24.379" /><path
         id="path138"
         style="fill:#010101;fill-opacity:1;fill-rule:evenodd;stroke:none"
         d="m 675.82,106.313 c 0,34.871 -2.554,38.273 -24.109,38.273 -21.836,0 -24.387,-3.402 -24.387,-38.273 0,-34.8716 2.551,-37.9888 24.387,-37.9888 21.555,0 24.109,3.1172 24.109,37.9888 z m -7.66,1.132 c 0,-7.371 0,-16.7262 -1.418,-23.2458 -1.418,-5.9531 -3.969,-8.789 -15.031,-8.789 -11.059,0 -13.609,2.8359 -15.027,8.2226 -1.418,6.2383 -1.418,17.0082 -1.418,23.8122 0,7.657 0,16.16 1.132,21.832 1.704,6.801 5.387,8.219 15.313,8.219 9.359,0 13.332,-1.418 15.031,-7.652 1.418,-5.672 1.418,-15.028 1.418,-22.399" /><path
         id="path140"
         style="fill:#010101;fill-opacity:1;fill-rule:evenodd;stroke:none"
         d="m 718.926,137.496 c 0,1.703 0,6.524 -4.821,6.524 -4.539,0 -5.105,-4.254 -4.82,-6.524 l 1.133,-24.379 c 0,-2.551 1.133,-4.254 3.687,-4.254 1.418,0 3.403,0.852 3.403,4.254 l 1.418,24.379" /><path
         id="path142"
         style="fill:#ffffff;fill-opacity:1;fill-rule:evenodd;stroke:none"
         d="m 1083.92,3.96875 -216.104,0 0,215.74225 432.204,0 0,-215.74225 -216.1,0" /><g
         transform="scale(1.00018,0.999824)"
         id="g144"><path
           id="path146"
           style="fill:none;stroke:#010101;stroke-width:7.08624983;stroke-linecap:butt;stroke-linejoin:round;stroke-miterlimit:10;stroke-dasharray:none;stroke-opacity:1"
           d="m 1083.73,3.96945 -216.067,0 0,216.06555 432.127,0 0,-216.06555 -216.06,0 z" /></g><path
         id="path148"
         style="fill:#010101;fill-opacity:1;fill-rule:evenodd;stroke:none"
         d="m 1026.07,137.496 c 0,1.703 0,6.524 -4.83,6.524 -4.53,0 -5.1,-4.254 -4.82,-6.524 l 1.14,-24.379 c 0,-2.551 1.13,-4.254 3.68,-4.254 1.42,0 3.41,0.852 3.41,4.254 l 1.42,24.379" /><path
         id="path150"
         style="fill:#010101;fill-opacity:1;fill-rule:evenodd;stroke:none"
         d="m 1109.73,105.461 c 0,19.277 -9.93,37.422 -25.81,37.422 l -23.82,0 c -1.71,0 -4.82,0 -4.82,-3.403 0,-3.683 3.11,-3.683 4.82,-3.683 l 2.55,0 0,-59.2501 -2.55,0 c -1.71,0 -4.82,0 -4.82,-3.4024 0,-3.6875 3.11,-3.6875 4.82,-3.6875 l 23.82,0 c 15.6,0 25.81,17.293 25.81,36.004 z m -7.66,0.285 c 0,-14.4608 -7.09,-29.1991 -20.14,-29.1991 l -11.63,0 0,59.2501 11.35,0 c 13.9,0 20.42,-16.445 20.42,-30.051" /><path
         id="path152"
         style="fill:#010101;fill-opacity:1;fill-rule:evenodd;stroke:none"
         d="m 1150.85,137.496 c 0,1.703 0,6.524 -4.82,6.524 -4.54,0 -5.11,-4.254 -4.82,-6.524 l 1.13,-24.379 c 0,-2.551 1.14,-4.254 3.69,-4.254 1.42,0 3.4,0.852 3.4,4.254 l 1.42,24.379" /><path
         id="path154"
         style="fill:#ffffff;fill-opacity:1;fill-rule:evenodd;stroke:none"
         d="m 1516.13,3.96875 -216.11,0 0,215.74225 432.21,0 0,-215.74225 -216.1,0" /><g
         transform="scale(1.00018,0.999824)"
         id="g156"><path
           id="path158"
           style="fill:none;stroke:#010101;stroke-width:7.08624983;stroke-linecap:butt;stroke-linejoin:round;stroke-miterlimit:10;stroke-dasharray:none;stroke-opacity:1"
           d="m 1515.86,3.96945 -216.07,0 0,216.06555 432.14,0 0,-216.06555 -216.07,0 z" /></g><path
         id="path160"
         style="fill:#010101;fill-opacity:1;fill-rule:evenodd;stroke:none"
         d="m 1458.27,137.496 c 0,1.703 0,6.524 -4.82,6.524 -4.54,0 -5.11,-4.254 -4.82,-6.524 l 1.13,-24.379 c 0,-2.551 1.14,-4.254 3.69,-4.254 1.42,0 3.4,0.852 3.4,4.254 l 1.42,24.379" /><path
         id="path162"
         style="fill:#010101;fill-opacity:1;fill-rule:evenodd;stroke:none"
         d="m 1544.2,74.5586 0,9.6406 c 0,2.2696 0,5.1016 -3.97,5.1016 -3.97,0 -3.97,-2.832 -3.97,-5.1016 l 0,-7.6523 -32.05,0 0,27.4961 15.89,0 c 0,-3.969 0,-6.2344 3.97,-6.2344 3.68,0 3.68,2.8324 3.68,4.8204 l 0,10.203 c 0,1.984 0,4.82 -3.68,4.82 -3.97,0 -3.97,-2.269 -3.97,-6.519 l -15.89,0 0,24.664 29.5,0 0,-5.672 c 0,-2.266 0,-4.816 3.68,-4.816 3.98,0 3.98,2.55 3.98,4.816 l 0,7.941 c 0,3.684 -0.57,4.817 -4.83,4.817 l -43.39,0 c -1.7,0 -4.82,0 -4.82,-3.403 0,-3.683 3.12,-3.683 4.82,-3.683 l 3.41,0 0,-59.2501 -3.41,0 c -1.7,0 -4.82,0 -4.82,-3.4024 0,-3.6875 3.12,-3.6875 4.82,-3.6875 l 46.23,0 c 3.97,0 4.82,1.1328 4.82,5.1016" /><path
         id="path164"
         style="fill:#010101;fill-opacity:1;fill-rule:evenodd;stroke:none"
         d="m 1583.05,137.496 c 0,1.703 0,6.524 -4.82,6.524 -4.53,0 -5.1,-4.254 -4.82,-6.524 l 1.14,-24.379 c 0,-2.551 1.13,-4.254 3.68,-4.254 1.42,0 3.41,0.852 3.41,4.254 l 1.41,24.379" /><path
         id="path166"
         style="fill:#ffffff;fill-opacity:1;fill-rule:evenodd;stroke:none"
         d="m 1948.33,3.96875 -216.1,0 0,215.74225 432.2,0 0,-215.74225 -216.1,0" /><g
         transform="scale(1.00018,0.999824)"
         id="g168"><path
           id="path170"
           style="fill:none;stroke:#010101;stroke-width:7.08624983;stroke-linecap:butt;stroke-linejoin:round;stroke-miterlimit:10;stroke-dasharray:none;stroke-opacity:1"
           d="m 1947.7,3.96945 -215.77,0 0,216.06555 431.84,0 0,-216.06555 -216.07,0 z" /></g><path
         id="path172"
         style="fill:#010101;fill-opacity:1;fill-rule:evenodd;stroke:none"
         d="m 1890.48,137.496 c 0,1.703 0,6.524 -4.82,6.524 -4.54,0 -5.11,-4.254 -4.82,-6.524 l 1.13,-24.379 c 0,-2.551 1.14,-4.254 3.69,-4.254 1.41,0 3.4,0.852 3.4,4.254 l 1.42,24.379" /><path
         id="path174"
         style="fill:#010101;fill-opacity:1;fill-rule:evenodd;stroke:none"
         d="m 1978.68,80.7969 c 0,2.2695 -1.14,3.9687 -3.97,3.9687 -3.69,0 -3.97,-2.8359 -3.97,-3.9687 0,-0.8516 -0.29,-5.668 -2.56,-5.668 -3.11,0 -3.11,5.3867 -3.11,12.1875 0,8.2227 0,8.7891 -1.14,11.9102 -1.7,3.4024 -4.54,5.9534 -5.96,6.8004 6.53,3.969 10.21,10.493 10.21,17.012 0,9.922 -8.79,19.844 -22.97,19.844 l -20.42,0 c -1.7,0 -4.82,0 -4.82,-3.403 0,-3.683 3.12,-3.683 4.82,-3.683 l 2.55,0 0,-59.2501 -2.55,0 c -1.7,0 -4.82,0 -4.82,-3.4024 0,-3.6875 3.12,-3.6875 4.82,-3.6875 l 13.05,0 c 1.7,0 5.11,0 5.11,3.6875 0,3.4024 -3.41,3.4024 -5.11,3.4024 l -2.55,0 0,26.3631 9.35,0 c 2.27,0 5.96,0 9.93,-3.4022 2.56,-2.5508 2.56,-5.3867 2.56,-10.4883 0,-8.2226 0,-11.9062 2.26,-15.875 1.99,-3.1211 5.11,-5.1054 8.79,-5.1054 7.95,0 10.5,8.5078 10.5,12.7578 z m -18.44,42.2421 c 0,-5.953 -5.1,-13.043 -16.16,-13.043 l -8.79,0 0,25.801 8.79,0 c 11.06,0 16.16,-7.09 16.16,-12.758" /><path
         id="path176"
         style="fill:#010101;fill-opacity:1;fill-rule:evenodd;stroke:none"
         d="m 2015.26,137.496 c 0,1.703 0,6.524 -4.82,6.524 -4.54,0 -5.1,-4.254 -4.82,-6.524 l 1.13,-24.379 c 0,-2.551 1.14,-4.254 3.69,-4.254 1.42,0 3.4,0.852 3.4,4.254 l 1.42,24.379" /><path
         id="path178"
         style="fill:#ffffff;fill-opacity:1;fill-rule:evenodd;stroke:none"
         d="m 2380.54,3.96875 -216.11,0 0,215.74225 432.21,0 0,-215.74225 -216.1,0" /><g
         transform="scale(1.00018,0.999824)"
         id="g180"><path
           id="path182"
           style="fill:none;stroke:#010101;stroke-width:7.08624983;stroke-linecap:butt;stroke-linejoin:round;stroke-miterlimit:10;stroke-dasharray:none;stroke-opacity:1"
           d="m 2379.83,3.96945 -216.06,0 0,216.06555 432.13,0 0,-216.06555 -216.07,0 z" /></g><path
         id="path184"
         style="fill:#ffffff;fill-opacity:1;fill-rule:evenodd;stroke:none"
         d="m 2812.75,3.96875 -216.11,0 0,215.74225 431.93,0 0,-215.74225 -215.82,0" /><g
         transform="scale(1.00018,0.999824)"
         id="g186"><path
           id="path188"
           style="fill:none;stroke:#010101;stroke-width:7.08624983;stroke-linecap:butt;stroke-linejoin:round;stroke-miterlimit:10;stroke-dasharray:none;stroke-opacity:1"
           d="m 2811.97,3.96945 -216.07,0 0,216.06555 432.13,0 0,-216.06555 -216.06,0 z" /></g><path
         id="path190"
         style="fill:#ffffff;fill-opacity:1;fill-rule:evenodd;stroke:none"
         d="m 3244.67,3.96875 -216.1,0 0,215.74225 432.2,0 0,-215.74225 -216.1,0" /><g
         transform="scale(1.00018,0.999824)"
         id="g192"><path
           id="path194"
           style="fill:none;stroke:#010101;stroke-width:7.08624983;stroke-linecap:butt;stroke-linejoin:round;stroke-miterlimit:10;stroke-dasharray:none;stroke-opacity:1"
           d="m 3244.1,3.96945 -216.07,0 0,216.06555 432.13,0 0,-216.06555 -216.06,0 z" /></g><path
         id="path196"
         style="fill:#ffffff;fill-opacity:1;fill-rule:evenodd;stroke:none"
         d="m 3676.88,3.96875 -216.11,0 0,215.74225 432.21,0 0,-215.74225 -216.1,0" /><g
         transform="scale(1.00018,0.999824)"
         id="g198"><path
           id="path200"
           style="fill:none;stroke:#010101;stroke-width:7.08624983;stroke-linecap:butt;stroke-linejoin:round;stroke-miterlimit:10;stroke-dasharray:none;stroke-opacity:1"
           d="m 3676.23,3.96945 -216.07,0 0,216.06555 432.13,0 0,-216.06555 -216.06,0 z" /></g><path
         id="path202"
         style="fill:#ffffff;fill-opacity:1;fill-rule:evenodd;stroke:none"
         d="m 4109.08,3.96875 -216.1,0 0,215.74225 432.2,0 0,-215.74225 -216.1,0" /><g
         transform="scale(1.00018,0.999824)"
         id="g204"><path
           id="path206"
           style="fill:none;stroke:#010101;stroke-width:7.08624983;stroke-linecap:butt;stroke-linejoin:round;stroke-miterlimit:10;stroke-dasharray:none;stroke-opacity:1"
           d="m 4108.07,3.96945 -215.78,0 0,216.06555 431.85,0 0,-216.06555 -216.07,0 z" /></g><g
         transform="scale(1.00018,0.999824)"
         id="g208"><path
           id="path210"
           style="fill:none;stroke:#010101;stroke-width:7.37230015;stroke-linecap:butt;stroke-linejoin:round;stroke-miterlimit:10;stroke-dasharray:none;stroke-opacity:1"
           d="m 1515.86,553.773 c 0,-218.05 330.9,-214.647 413.7,-71.454" /></g><path
         id="path212"
         style="fill:#010101;fill-opacity:1;fill-rule:evenodd;stroke:none"
         d="m 1948.33,553.676 -47.08,-70.59 51.62,-13.895 -4.54,84.485" /><g
         transform="scale(1.00018,0.999824)"
         id="g214"><path
           id="path216"
           style="fill:none;stroke:#010101;stroke-width:7.37230015;stroke-linecap:butt;stroke-linejoin:round;stroke-miterlimit:10;stroke-dasharray:none;stroke-opacity:1"
           d="m 1083.73,553.773 c 0,-218.05 330.9,-214.647 413.7,-71.454" /></g><path
         id="path218"
         style="fill:#010101;fill-opacity:1;fill-rule:evenodd;stroke:none"
         d="m 1516.13,553.676 -47.08,-70.59 51.61,-13.895 -4.53,84.485" /><g
         transform="scale(1.00018,0.999824)"
         id="g220"><path
           id="path222"
           style="fill:none;stroke:#010101;stroke-width:7.37230015;stroke-linecap:butt;stroke-linejoin:round;stroke-miterlimit:10;stroke-dasharray:none;stroke-opacity:1"
           d="m 651.881,553.773 c 0,-218.05 330.622,-214.647 413.419,-71.454" /></g><path
         id="path224"
         style="fill:#010101;fill-opacity:1;fill-rule:evenodd;stroke:none"
         d="m 1083.92,553.676 -47.08,-70.59 51.62,-13.895 -4.54,84.485" /><g
         transform="scale(1.00018,0.999824)"
         id="g226"><path
           id="path228"
           style="fill:none;stroke:#010101;stroke-width:7.37230015;stroke-linecap:butt;stroke-linejoin:round;stroke-miterlimit:10;stroke-dasharray:none;stroke-opacity:1"
           d="m 219.75,553.773 c 0,-218.05 330.903,-214.647 413.701,-71.454" /></g><path
         id="path230"
         style="fill:#010101;fill-opacity:1;fill-rule:evenodd;stroke:none"
         d="m 651.996,553.676 -47.078,-70.59 51.617,-13.895 -4.539,84.485" /></g></g></svg>