<?xml version="1.0" encoding="UTF-8" standalone="no"?>
<svg
   xmlns:dc="http://purl.org/dc/elements/1.1/"
   xmlns:cc="http://creativecommons.org/ns#"
   xmlns:rdf="http://www.w3.org/1999/02/22-rdf-syntax-ns#"
   xmlns:svg="http://www.w3.org/2000/svg"
   xmlns="http://www.w3.org/2000/svg"
   viewBox="0 0 327.5 165"
   height="165"
   width="327.5"
   xml:space="preserve"
   version="1.1"
   id="svg2"><metadata
     id="metadata8"><rdf:RDF><cc:Work
         rdf:about=""><dc:format>image/svg+xml</dc:format><dc:type
           rdf:resource="http://purl.org/dc/dcmitype/StillImage" /></cc:Work></rdf:RDF></metadata><defs
     id="defs6" /><g
     transform="matrix(1.25,0,0,-1.25,0,165)"
     id="g10"><g
       transform="scale(0.1,0.1)"
       id="g12"><path
         id="path14"
         style="fill:#ffffff;fill-opacity:1;fill-rule:evenodd;stroke:none"
         d="m 821.027,520.449 -164.261,0 0,327.367 328.523,0 0,-327.367 -164.262,0" /><g
         transform="scale(1.00177,0.998235)"
         id="g16"><path
           id="path18"
           style="fill:none;stroke:#010101;stroke-width:7.99996758;stroke-linecap:butt;stroke-linejoin:round;stroke-miterlimit:10;stroke-dasharray:none;stroke-opacity:1"
           d="m 819.58,521.37 -163.972,0 0,327.946 327.945,0 0,-327.946 -163.973,0 z" /></g><path
         id="path20"
         style="fill:#010101;fill-opacity:1;fill-rule:evenodd;stroke:none"
         d="m 750.102,696.574 9.07813,0 0,29.6836 -9.07813,0 0,-29.6836 z" /><path
         id="path22"
         style="fill:#010101;fill-opacity:1;fill-rule:evenodd;stroke:none"
         d="m 811.098,655.016 c 9.363,0 15.886,2.261 19.574,6.785 3.691,4.523 5.391,12.722 5.391,24.312 0,11.875 -1.7,20.071 -5.391,24.594 -3.688,4.523 -10.211,6.785 -19.574,6.785 l -5.106,0 0,-62.476 5.106,0 z m 0.285,71.242 c 12.48,0 21.558,-3.11 27.234,-9.613 5.957,-6.504 8.793,-16.68 8.793,-30.532 0,-13.57 -2.836,-23.746 -8.793,-30.25 -5.676,-6.5 -14.754,-9.609 -27.234,-9.609 l -16.172,0 0,80.004 16.172,0" /><path
         id="path24"
         style="fill:#010101;fill-opacity:1;fill-rule:evenodd;stroke:none"
         d="m 882.309,696.574 9.07813,0 0,29.6836 -9.07813,0 0,-29.6836 z" /><path
         id="path26"
         style="fill:#ffffff;fill-opacity:1;fill-rule:evenodd;stroke:none"
         d="m 1149.55,520.449 -164.542,0 0,327.367 328.812,0 0,-327.367 -164.27,0" /><g
         transform="scale(1.00177,0.998235)"
         id="g28"><path
           id="path30"
           style="fill:none;stroke:#010101;stroke-width:7.99996758;stroke-linecap:butt;stroke-linejoin:round;stroke-miterlimit:10;stroke-dasharray:none;stroke-opacity:1"
           d="m 1147.52,521.37 -164.248,0 0,327.946 328.228,0 0,-327.946 -163.98,0 z" /></g><path
         id="path32"
         style="fill:#010101;fill-opacity:1;fill-rule:evenodd;stroke:none"
         d="m 1078.63,696.574 9.0781,0 0,29.6836 -9.0781,0 0,-29.6836 z" /><path
         id="path34"
         style="fill:#010101;fill-opacity:1;fill-rule:evenodd;stroke:none"
         d="m 1126.86,726.258 47.37,0 0,-9.047 -36.59,0 0,-23.746 35.18,0 0,-9.047 -35.18,0 0,-29.121 37.73,0 0,-9.043 -48.51,0 0,80.004" /><path
         id="path36"
         style="fill:#010101;fill-opacity:1;fill-rule:evenodd;stroke:none"
         d="m 1210.83,696.574 9.0781,0 0,29.6836 -9.0781,0 0,-29.6836 z" /><path
         id="path38"
         style="fill:#ffffff;fill-opacity:1;fill-rule:evenodd;stroke:none"
         d="m 492.504,520.449 -164.262,0 0,327.367 328.524,0 0,-327.367 -164.262,0" /><g
         transform="scale(1.00177,0.998235)"
         id="g40"><path
           id="path42"
           style="fill:none;stroke:#010101;stroke-width:7.99996758;stroke-linecap:butt;stroke-linejoin:round;stroke-miterlimit:10;stroke-dasharray:none;stroke-opacity:1"
           d="m 491.636,521.37 -163.972,0 0,327.946 327.944,0 0,-327.946 -163.972,0 z" /></g><path
         id="path44"
         style="fill:#010101;fill-opacity:1;fill-rule:evenodd;stroke:none"
         d="m 421.578,696.574 9.07813,0 0,29.6836 -9.07813,0 0,-29.6836 z" /><path
         id="path46"
         style="fill:#010101;fill-opacity:1;fill-rule:evenodd;stroke:none"
         d="m 507.824,686.113 c 0,11.875 -1.136,20.071 -3.687,25.16 -2.27,5.09 -6.242,7.633 -11.918,7.633 -5.391,0 -9.36,-2.543 -11.633,-7.633 -2.551,-5.089 -3.688,-13.285 -3.688,-25.16 0,-11.875 1.137,-20.07 3.688,-25.16 2.273,-5.09 6.242,-7.633 11.633,-7.633 5.676,0 9.648,2.543 11.918,7.633 2.551,4.805 3.687,13.285 3.687,25.16 z m 11.348,0 c 0,-13.851 -2.27,-24.312 -6.527,-31.379 -4.54,-6.785 -11.348,-10.179 -20.426,-10.179 -8.793,0 -15.602,3.394 -20.141,10.179 -4.258,6.786 -6.527,17.243 -6.527,31.379 0,13.852 2.269,24.313 6.527,31.379 4.539,6.785 11.348,10.176 20.141,10.176 9.078,0 15.886,-3.391 20.426,-10.176 4.257,-7.066 6.527,-17.527 6.527,-31.379" /><path
         id="path48"
         style="fill:#010101;fill-opacity:1;fill-rule:evenodd;stroke:none"
         d="m 553.781,696.574 9.07813,0 0,29.6836 -9.07813,0 0,-29.6836 z" /><path
         id="path50"
         style="fill:#ffffff;fill-opacity:1;fill-rule:evenodd;stroke:none"
         d="m 1478.08,520.449 -164.26,0 0,327.367 328.23,0 0,-327.367 -163.97,0" /><g
         transform="scale(1.00177,0.998235)"
         id="g52"><path
           id="path54"
           style="fill:none;stroke:#010101;stroke-width:7.99996758;stroke-linecap:butt;stroke-linejoin:round;stroke-miterlimit:10;stroke-dasharray:none;stroke-opacity:1"
           d="m 1475.47,521.37 -163.97,0 0,327.946 327.38,0 0,-327.946 -163.41,0 z" /></g><path
         id="path56"
         style="fill:#010101;fill-opacity:1;fill-rule:evenodd;stroke:none"
         d="m 1407.15,696.574 9.0781,0 0,29.6836 -9.0781,0 0,-29.6836 z" /><path
         id="path58"
         style="fill:#010101;fill-opacity:1;fill-rule:evenodd;stroke:none"
         d="m 1485.74,684.133 c 2.83,-0.848 5.1,-1.977 7.09,-3.957 1.99,-1.977 4.54,-5.938 7.38,-11.871 l 10.77,-22.051 -11.62,0 -9.37,20.351 c -2.83,5.657 -5.39,9.333 -7.37,11.028 -2.27,1.695 -5.39,2.543 -8.8,2.543 l -10.5,0 0,-33.922 -10.78,0 0,80.004 22.42,0 c 8.79,0 15.6,-1.981 20.14,-5.938 4.82,-3.957 7.09,-9.613 7.09,-17.246 0,-5.086 -1.42,-9.609 -4.25,-13.004 -2.84,-3.109 -7.1,-5.371 -12.2,-5.937 z m -22.42,33.359 0,-28.551 11.92,0 c 5.39,0 9.08,1.129 11.63,3.391 2.56,2.543 3.97,5.938 3.97,10.742 0,4.805 -1.41,8.199 -3.97,10.742 -2.83,2.547 -6.81,3.676 -11.91,3.676 l -11.64,0" /><path
         id="path60"
         style="fill:#010101;fill-opacity:1;fill-rule:evenodd;stroke:none"
         d="m 1539.36,696.574 9.0781,0 0,29.6836 -9.0781,0 0,-29.6836 z" /><path
         id="path62"
         style="fill:#010101;fill-opacity:1;fill-rule:evenodd;stroke:none"
         d="m 492.219,1003.87 c -5.672,0 -9.93,-2.83 -12.766,-8.202 -2.836,-5.652 -4.254,-13.852 -4.254,-24.875 0,-11.027 1.418,-19.227 4.254,-24.879 2.836,-5.371 7.094,-8.199 12.766,-8.199 5.676,0 9.929,2.828 12.765,8.199 2.84,5.652 4.258,13.852 4.258,24.879 0,11.023 -1.418,19.223 -4.258,24.875 -2.836,5.372 -7.089,8.202 -12.765,8.202 z m 0,8.48 c 9.078,0 15.886,-3.68 20.711,-10.74 4.824,-7.071 7.093,-17.251 7.093,-30.817 0,-13.57 -2.269,-23.75 -7.093,-30.816 -4.825,-7.067 -11.633,-10.743 -20.711,-10.743 -9.078,0 -15.887,3.676 -20.711,10.743 -4.82,7.066 -7.09,17.246 -7.09,30.816 0,13.566 2.27,23.746 7.09,30.817 4.824,7.06 11.633,10.74 20.711,10.74" /><path
         id="path64"
         style="fill:#010101;fill-opacity:1;fill-rule:evenodd;stroke:none"
         d="m 799.184,939.977 17.871,0 0,61.063 -19.289,-3.958 0,9.898 19.289,3.95 10.781,0 0,-70.953 17.875,0 0,-9.047 -46.527,0 0,9.047" /><path
         id="path66"
         style="fill:#010101;fill-opacity:1;fill-rule:evenodd;stroke:none"
         d="m 1135.08,939.977 38.02,0 0,-9.047 -51.06,0 0,9.047 c 4.25,4.242 9.64,9.894 17.01,17.246 7.1,7.066 11.35,11.59 13.34,13.851 3.4,3.957 5.96,7.067 7.38,9.895 1.41,2.543 1.98,5.371 1.98,7.914 0,4.242 -1.42,7.633 -4.54,10.461 -2.83,2.546 -6.81,3.956 -11.63,3.956 -3.4,0 -7.09,-0.56 -10.78,-1.69 -3.97,-1.42 -7.94,-3.114 -12.2,-5.657 l 0,11.027 c 4.26,1.69 8.51,3.11 12.2,3.95 3.97,0.85 7.38,1.42 10.5,1.42 8.22,0 14.75,-1.98 19.86,-6.22 4.82,-4.24 7.37,-9.614 7.37,-16.681 0,-3.109 -0.57,-6.219 -1.98,-9.328 -1.14,-2.828 -3.41,-6.504 -6.53,-10.461 -0.85,-0.847 -3.69,-3.957 -8.51,-9.047 -4.82,-4.804 -11.63,-11.871 -20.43,-20.636" /><path
         id="path68"
         style="fill:#010101;fill-opacity:1;fill-rule:evenodd;stroke:none"
         d="m 1487.16,974.184 c 5.39,-1.129 9.36,-3.391 12.48,-7.067 2.84,-3.394 4.25,-7.918 4.25,-13.004 0,-7.918 -2.83,-14.136 -8.22,-18.375 -5.39,-4.242 -13.05,-6.504 -22.98,-6.504 -3.41,0 -7.1,0.282 -10.5,1.133 -3.69,0.563 -7.38,1.41 -11.06,2.824 l 0,10.461 c 3.12,-1.695 6.24,-3.109 9.92,-3.957 3.41,-0.847 7.38,-1.414 11.07,-1.414 6.81,0 12.2,1.414 15.6,3.957 3.69,2.828 5.39,6.785 5.39,11.875 0,4.805 -1.7,8.481 -5.1,11.309 -3.12,2.543 -7.66,3.957 -13.62,3.957 l -9.36,0 0,8.762 9.64,0 c 5.39,0 9.37,1.132 12.2,3.109 2.84,2.262 4.26,5.371 4.26,9.332 0,3.957 -1.42,7.348 -4.26,9.328 -3.12,2.26 -7.09,3.39 -12.48,3.39 -3.12,0 -6.24,-0.28 -9.65,-0.85 -3.4,-0.84 -7.09,-1.69 -11.06,-3.106 l 0,9.616 c 3.97,1.13 7.94,1.97 11.63,2.54 3.4,0.57 6.81,0.85 9.93,0.85 8.23,0 14.75,-1.98 19.58,-5.65 4.82,-3.68 7.09,-8.77 7.09,-14.989 0,-4.523 -1.14,-8.199 -3.69,-11.309 -2.55,-3.109 -6.24,-5.086 -11.06,-6.218" /><path
         id="path70"
         style="fill:#010101;fill-opacity:1;fill-rule:evenodd;stroke:none"
         d="m 492.219,415.57 c -5.672,0 -9.93,-2.828 -12.766,-8.199 -2.836,-5.656 -4.254,-13.851 -4.254,-24.879 0,-11.023 1.418,-19.222 4.254,-24.875 2.836,-5.375 7.094,-8.199 12.766,-8.199 5.676,0 9.929,2.824 12.765,8.199 2.84,5.653 4.258,13.852 4.258,24.875 0,11.028 -1.418,19.223 -4.258,24.879 -2.836,5.371 -7.089,8.199 -12.765,8.199 z m 0,8.481 c 9.078,0 15.886,-3.676 20.711,-10.742 4.824,-7.071 7.093,-17.246 7.093,-30.817 0,-13.57 -2.269,-23.746 -7.093,-30.812 -4.825,-7.071 -11.633,-10.742 -20.711,-10.742 -9.078,0 -15.887,3.671 -20.711,10.742 -4.82,7.066 -7.09,17.242 -7.09,30.812 0,13.571 2.27,23.746 7.09,30.817 4.824,7.066 11.633,10.742 20.711,10.742" /><path
         id="path72"
         style="fill:#010101;fill-opacity:1;fill-rule:evenodd;stroke:none"
         d="m 799.184,351.68 17.871,0 0,61.062 -19.289,-3.957 0,9.895 19.289,3.957 10.781,0 0,-70.957 17.875,0 0,-9.047 -46.527,0 0,9.047" /><path
         id="path74"
         style="fill:#010101;fill-opacity:1;fill-rule:evenodd;stroke:none"
         d="m 1135.08,351.68 38.02,0 0,-9.047 -51.06,0 0,9.047 c 4.25,4.238 9.64,9.894 17.01,17.242 7.1,7.07 11.35,11.594 13.34,13.855 3.4,3.957 5.96,7.067 7.38,9.895 1.41,2.543 1.98,5.371 1.98,7.914 0,4.242 -1.42,7.633 -4.54,10.461 -2.83,2.543 -6.81,3.957 -11.63,3.957 -3.4,0 -7.09,-0.566 -10.78,-1.695 -3.97,-1.414 -7.94,-3.11 -12.2,-5.657 l 0,11.028 c 4.26,1.695 8.51,3.109 12.2,3.957 3.97,0.847 7.38,1.414 10.5,1.414 8.22,0 14.75,-1.981 19.86,-6.219 4.82,-4.242 7.37,-9.613 7.37,-16.68 0,-3.109 -0.57,-6.218 -1.98,-9.332 -1.14,-2.824 -3.41,-6.5 -6.53,-10.457 -0.85,-0.847 -3.69,-3.957 -8.51,-9.047 -4.82,-4.804 -11.63,-11.875 -20.43,-20.636" /><path
         id="path76"
         style="fill:#010101;fill-opacity:1;fill-rule:evenodd;stroke:none"
         d="m 1487.16,385.887 c 5.39,-1.133 9.36,-3.395 12.48,-7.071 2.84,-3.39 4.25,-7.914 4.25,-13.003 0,-7.915 -2.83,-14.133 -8.22,-18.375 -5.39,-4.239 -13.05,-6.5 -22.98,-6.5 -3.41,0 -7.1,0.281 -10.5,1.128 -3.69,0.567 -7.38,1.414 -11.06,2.829 l 0,10.46 c 3.12,-1.699 6.24,-3.113 9.92,-3.96 3.41,-0.848 7.38,-1.411 11.07,-1.411 6.81,0 12.2,1.411 15.6,3.957 3.69,2.825 5.39,6.786 5.39,11.872 0,4.808 -1.7,8.48 -5.1,11.308 -3.12,2.547 -7.66,3.957 -13.62,3.957 l -9.36,0 0,8.766 9.64,0 c 5.39,0 9.37,1.129 12.2,3.109 2.84,2.262 4.26,5.371 4.26,9.328 0,3.957 -1.42,7.352 -4.26,9.328 -3.12,2.262 -7.09,3.395 -12.48,3.395 -3.12,0 -6.24,-0.281 -9.65,-0.848 -3.4,-0.847 -7.09,-1.695 -11.06,-3.109 l 0,9.609 c 3.97,1.133 7.94,1.981 11.63,2.547 3.4,0.563 6.81,0.848 9.93,0.848 8.23,0 14.75,-1.981 19.58,-5.656 4.82,-3.672 7.09,-8.762 7.09,-14.981 0,-4.523 -1.14,-8.199 -3.69,-11.309 -2.55,-3.109 -6.24,-5.089 -11.06,-6.218" /><path
         id="path78"
         style="fill:#010101;fill-opacity:1;fill-rule:evenodd;stroke:none"
         d="m 529.953,1242.75 9.93,0 0,-59.93 -9.93,0 0,59.93 z m 0,23.46 9.93,0 0,-12.44 -9.93,0 0,12.44" /><path
         id="path80"
         style="fill:#010101;fill-opacity:1;fill-rule:evenodd;stroke:none"
         d="m 611.09,1219 0,-36.18 -9.93,0 0,35.9 c 0,5.66 -1.133,9.89 -3.402,12.72 -2.27,2.83 -5.391,4.24 -9.93,4.24 -5.39,0 -9.648,-1.7 -12.769,-5.09 -3.121,-3.39 -4.539,-7.91 -4.539,-13.85 l 0,-33.92 -9.93,0 0,59.93 9.93,0 0,-9.33 c 2.269,3.67 5.109,6.22 8.511,8.2 3.121,1.7 6.809,2.54 11.067,2.54 6.808,0 12.199,-2.26 15.601,-6.5 3.688,-4.24 5.391,-10.46 5.391,-18.66" /><path
         id="path82"
         style="fill:#010101;fill-opacity:1;fill-rule:evenodd;stroke:none"
         d="m 670.383,1233.7 0,32.51 9.93,0 0,-83.39 -9.93,0 0,8.76 c -1.985,-3.67 -4.824,-6.22 -7.942,-7.92 -3.121,-1.69 -6.812,-2.54 -11.351,-2.54 -7.375,0 -13.332,2.83 -17.871,8.76 -4.539,5.66 -6.809,13.29 -6.809,22.9 0,9.33 2.27,16.97 6.809,22.62 4.539,5.94 10.496,8.76 17.871,8.76 4.539,0 8.23,-0.84 11.351,-2.54 3.118,-1.7 5.957,-4.24 7.942,-7.92 z m -33.762,-20.92 c 0,-7.35 1.422,-13 4.539,-17.24 2.84,-4.24 7.094,-6.22 12.199,-6.22 5.391,0 9.364,1.98 12.485,6.22 3.121,4.24 4.539,9.89 4.539,17.24 0,7.07 -1.418,12.72 -4.539,16.97 -3.121,4.23 -7.094,6.21 -12.485,6.21 -5.105,0 -9.359,-1.98 -12.199,-6.21 -3.117,-4.25 -4.539,-9.9 -4.539,-16.97" /><path
         id="path84"
         style="fill:#010101;fill-opacity:1;fill-rule:evenodd;stroke:none"
         d="m 751.805,1215.04 0,-4.8 -45.676,0 c 0.566,-6.79 2.555,-11.88 6.242,-15.27 3.688,-3.67 8.793,-5.37 15.32,-5.37 3.973,0 7.661,0.57 11.063,1.42 3.687,0.84 7.379,2.26 10.781,4.23 l 0,-9.32 c -3.687,-1.7 -7.094,-2.83 -11.062,-3.68 -3.692,-0.85 -7.379,-1.13 -11.348,-1.13 -9.648,0 -17.023,2.83 -22.699,8.48 -5.672,5.37 -8.508,13.01 -8.508,22.62 0,9.61 2.551,17.53 7.941,23.18 5.391,5.94 12.485,8.76 21.563,8.76 8.226,0 14.469,-2.54 19.289,-7.91 4.824,-5.09 7.094,-12.16 7.094,-21.21 z m -9.93,2.83 c 0,5.37 -1.703,9.61 -4.539,13.01 -3.121,3.1 -6.809,4.8 -11.914,4.8 -5.391,0 -9.93,-1.7 -13.336,-4.8 -3.121,-3.11 -5.106,-7.35 -5.672,-13.01 l 35.461,0" /><path
         id="path86"
         style="fill:#010101;fill-opacity:1;fill-rule:evenodd;stroke:none"
         d="m 768.258,1266.21 9.93,0 0,-49.19 29.507,25.73 12.481,0 -31.774,-27.99 33.192,-31.94 -12.766,0 -30.64,29.4 0,-29.4 -9.93,0 0,83.39" /><path
         id="path88"
         style="fill:#010101;fill-opacity:1;fill-rule:evenodd;stroke:none"
         d="m 871.242,1241.05 0,-9.33 c -2.836,1.42 -5.672,2.55 -8.793,3.11 -2.84,0.85 -5.957,1.13 -9.363,1.13 -4.824,0 -8.512,-0.84 -11.063,-2.26 -2.554,-1.41 -3.691,-3.67 -3.691,-6.78 0,-2.26 0.852,-3.96 2.555,-5.37 1.703,-1.42 5.39,-2.55 10.781,-3.68 l 3.121,-0.85 c 7.09,-1.41 12.199,-3.67 15.035,-6.22 3.121,-2.82 4.539,-6.78 4.539,-11.59 0,-5.65 -2.269,-9.89 -6.808,-13.28 -4.254,-3.11 -10.496,-4.81 -18.157,-4.81 -3.406,0 -6.527,0.28 -10.214,0.85 -3.403,0.57 -7.09,1.69 -11.063,2.83 l 0,10.17 c 3.688,-1.98 7.375,-3.39 10.781,-4.24 3.688,-0.85 7.09,-1.41 10.778,-1.41 4.543,0 8.23,0.85 10.781,2.26 2.555,1.7 3.687,3.96 3.687,6.78 0,2.83 -0.847,4.81 -2.835,6.23 -1.704,1.41 -5.672,2.82 -11.633,4.23 l -3.688,0.85 c -5.957,1.13 -10.496,3.11 -13.332,5.94 -2.555,2.54 -3.972,6.22 -3.972,10.74 0,5.66 1.984,10.18 5.957,13.29 4.257,3.11 9.929,4.52 17.304,4.52 3.692,0 7.094,-0.28 10.215,-0.84 3.406,-0.57 6.242,-1.14 9.078,-2.27" /><path
         id="path90"
         style="fill:#010101;fill-opacity:1;fill-rule:evenodd;stroke:none"
         d="m 890.25,1242.75 9.93,0 0,-59.93 -9.93,0 0,59.93 z m 0,23.46 9.93,0 0,-12.44 -9.93,0 0,12.44" /><path
         id="path92"
         style="fill:#010101;fill-opacity:1;fill-rule:evenodd;stroke:none"
         d="m 571.656,176.121 0,-31.66 -9.929,0 0,82.828 9.929,0 0,-9.043 c 1.985,3.672 4.821,6.219 7.942,7.914 3.121,1.695 6.808,2.543 11.347,2.543 7.379,0 13.336,-2.824 17.875,-8.762 4.539,-5.656 6.809,-13.289 6.809,-22.617 0,-9.613 -2.27,-17.246 -6.809,-22.898 -4.539,-5.938 -10.496,-8.762 -17.875,-8.762 -4.539,0 -8.226,0.848 -11.347,2.543 -3.121,1.695 -5.957,4.238 -7.942,7.914 z m 33.758,21.203 c 0,7.067 -1.418,12.723 -4.539,16.961 -2.836,4.242 -7.09,6.223 -12.199,6.223 -5.387,0 -9.645,-1.981 -12.481,-6.223 -3.121,-4.238 -4.539,-9.894 -4.539,-16.961 0,-7.351 1.418,-13.004 4.539,-17.246 2.836,-4.238 7.094,-6.219 12.481,-6.219 5.109,0 9.363,1.981 12.199,6.219 3.121,4.242 4.539,9.895 4.539,17.246" /><path
         id="path94"
         style="fill:#010101;fill-opacity:1;fill-rule:evenodd;stroke:none"
         d="m 655.348,220.223 c -5.391,0 -9.645,-1.977 -12.766,-6.219 -3.121,-3.957 -4.539,-9.613 -4.539,-16.68 0,-7.351 1.418,-13.004 4.539,-16.961 3.121,-4.242 7.375,-6.218 12.766,-6.218 5.105,0 9.363,1.976 12.48,6.218 3.121,3.957 4.539,9.61 4.539,16.961 0,7.067 -1.418,12.438 -4.539,16.68 -3.117,4.242 -7.375,6.219 -12.48,6.219 z m 0,8.48 c 8.511,0 15.32,-2.824 20.14,-8.48 4.825,-5.371 7.379,-13.285 7.379,-22.899 0,-9.894 -2.554,-17.808 -7.379,-23.179 -4.82,-5.657 -11.629,-8.481 -20.14,-8.481 -8.797,0 -15.606,2.824 -20.426,8.481 -4.824,5.371 -7.379,13.285 -7.379,23.179 0,9.614 2.555,17.528 7.379,22.899 4.82,5.656 11.629,8.48 20.426,8.48" /><path
         id="path96"
         style="fill:#010101;fill-opacity:1;fill-rule:evenodd;stroke:none"
         d="m 699.32,167.359 9.92969,0 0,83.3945 -9.92969,0 0,-83.3945 z" /><path
         id="path98"
         style="fill:#010101;fill-opacity:1;fill-rule:evenodd;stroke:none"
         d="m 753.789,220.223 c -5.387,0 -9.644,-1.977 -12.766,-6.219 -3.121,-3.957 -4.539,-9.613 -4.539,-16.68 0,-7.351 1.418,-13.004 4.539,-16.961 3.122,-4.242 7.379,-6.218 12.766,-6.218 5.109,0 9.363,1.976 12.484,6.218 3.122,3.957 4.54,9.61 4.54,16.961 0,7.067 -1.418,12.438 -4.54,16.68 -3.121,4.242 -7.375,6.219 -12.484,6.219 z m 0,8.48 c 8.512,0 15.32,-2.824 20.145,-8.48 4.824,-5.371 7.375,-13.285 7.375,-22.899 0,-9.894 -2.551,-17.808 -7.375,-23.179 -4.825,-5.657 -11.633,-8.481 -20.145,-8.481 -8.793,0 -15.601,2.824 -20.426,8.481 -4.82,5.371 -7.375,13.285 -7.375,23.179 0,9.614 2.555,17.528 7.375,22.899 4.825,5.656 11.633,8.48 20.426,8.48" /><path
         id="path100"
         style="fill:#010101;fill-opacity:1;fill-rule:evenodd;stroke:none"
         d="m 793.508,227.289 46.812,0 0,-9.043 -37.164,-42.973 37.164,0 0,-7.914 -48.23,0 0,9.047 37.164,42.969 -35.746,0 0,7.914 z m 19.293,7.633 -13.051,20.074 7.375,0 9.93,-13.004 9.648,13.004 7.375,0 -13.051,-20.074 -8.226,0" /><path
         id="path102"
         style="fill:#010101;fill-opacity:1;fill-rule:evenodd;stroke:none"
         d="m 882.309,197.605 c -7.946,0 -13.336,-0.847 -16.457,-2.824 -3.122,-1.695 -4.539,-4.808 -4.539,-9.328 0,-3.676 1.136,-6.504 3.406,-8.484 2.269,-1.977 5.39,-3.11 9.359,-3.11 5.391,0 9.93,1.981 13.336,5.938 3.121,3.957 4.824,9.047 4.824,15.551 l 0,2.257 -9.929,0 z m 19.859,3.961 0,-34.207 -9.93,0 0,9.047 c -2.269,-3.676 -5.109,-6.504 -8.511,-8.199 -3.407,-1.695 -7.379,-2.543 -12.2,-2.543 -6.242,0 -11.066,1.695 -14.754,5.086 -3.687,3.676 -5.39,8.199 -5.39,14.137 0,6.785 2.269,11.871 6.808,15.265 4.539,3.391 11.348,5.086 20.145,5.086 l 13.902,0 0,0.852 c 0,4.523 -1.422,7.914 -4.539,10.457 -2.84,2.547 -7.094,3.676 -12.484,3.676 -3.406,0 -6.809,-0.282 -9.93,-1.129 -3.121,-0.848 -6.242,-1.981 -9.363,-3.676 l 0,9.047 c 3.687,1.414 7.094,2.543 10.496,3.109 3.406,0.848 6.812,1.129 9.93,1.129 8.511,0 15.039,-2.262 19.293,-6.785 4.254,-4.523 6.527,-11.305 6.527,-20.352" /><path
         id="path104"
         style="fill:#010101;fill-opacity:1;fill-rule:evenodd;stroke:none"
         d="m 922.594,227.289 9.929,0 0,-61.062 c 0,-7.633 -1.421,-13.286 -4.539,-16.68 -2.839,-3.391 -7.66,-5.086 -14.187,-5.086 l -3.688,0 0,8.48 2.555,0 c 3.969,0 6.524,0.848 7.941,2.543 1.418,1.696 1.989,5.371 1.989,10.743 l 0,61.062 z m 0,23.465 9.929,0 0,-12.438 -9.929,0 0,12.438" /><path
         id="path106"
         style="fill:#010101;fill-opacity:1;fill-rule:evenodd;stroke:none"
         d="m 953.801,227.289 9.929,0 0,-59.93 -9.929,0 0,59.93 z m 0,23.465 9.929,0 0,-12.438 -9.929,0 0,12.438" /><path
         id="path108"
         style="fill:#010101;fill-opacity:1;fill-rule:evenodd;stroke:none"
         d="m 1792.42,724.844 0,-4.809 -45.68,0 c 0.57,-6.781 2.55,-11.871 6.24,-15.265 3.69,-3.672 8.8,-5.372 15.32,-5.372 3.97,0 7.66,0.567 11.07,1.415 3.68,0.847 7.37,2.261 10.78,4.242 l 0,-9.328 c -3.69,-1.7 -7.1,-2.829 -11.07,-3.676 -3.69,-0.848 -7.37,-1.133 -11.35,-1.133 -9.64,0 -17.02,2.828 -22.69,8.48 -5.68,5.372 -8.51,13.004 -8.51,22.618 0,9.613 2.55,17.527 7.94,23.179 5.39,5.938 12.48,8.766 21.56,8.766 8.23,0 14.47,-2.543 19.29,-7.914 4.83,-5.09 7.1,-12.156 7.1,-21.203 z m -9.93,2.824 c 0,5.375 -1.7,9.613 -4.54,13.008 -3.12,3.109 -6.81,4.804 -11.92,4.804 -5.39,0 -9.93,-1.695 -13.33,-4.804 -3.12,-3.113 -5.11,-7.352 -5.68,-13.008 l 35.47,0" /><path
         id="path110"
         style="fill:#010101;fill-opacity:1;fill-rule:evenodd;stroke:none"
         d="m 1809.44,692.613 9.9297,0 0,83.3984 -9.9297,0 0,-83.3984 z" /><path
         id="path112"
         style="fill:#010101;fill-opacity:1;fill-rule:evenodd;stroke:none"
         d="m 1892,724.844 0,-4.809 -45.68,0 c 0.57,-6.781 2.55,-11.871 6.24,-15.265 3.69,-3.672 8.8,-5.372 15.32,-5.372 3.97,0 7.66,0.567 11.07,1.415 3.68,0.847 7.37,2.261 10.78,4.242 l 0,-9.328 c -3.69,-1.7 -7.1,-2.829 -11.07,-3.676 -3.69,-0.848 -7.37,-1.133 -11.35,-1.133 -9.64,0 -17.02,2.828 -22.69,8.48 -5.67,5.372 -8.51,13.004 -8.51,22.618 0,9.613 2.55,17.527 7.94,23.179 5.39,5.938 12.48,8.766 21.56,8.766 8.23,0 14.47,-2.543 19.29,-7.914 4.83,-5.09 7.1,-12.156 7.1,-21.203 z m -9.93,2.824 c 0,5.375 -1.71,9.613 -4.54,13.008 -3.12,3.109 -6.81,4.804 -11.92,4.804 -5.39,0 -9.93,-1.695 -13.33,-4.804 -3.12,-3.113 -5.11,-7.352 -5.68,-13.008 l 35.47,0" /><path
         id="path114"
         style="fill:#010101;fill-opacity:1;fill-rule:evenodd;stroke:none"
         d="m 1955.83,740.957 c 2.55,4.523 5.39,7.633 8.79,9.895 3.41,1.98 7.66,3.109 12.2,3.109 6.24,0 11.07,-2.262 14.47,-6.504 3.41,-4.519 5.11,-10.742 5.11,-18.656 l 0,-36.188 -9.93,0 0,35.907 c 0,5.652 -1.14,9.894 -3.12,12.718 -1.99,2.828 -5.11,4.242 -9.37,4.242 -5.1,0 -9.07,-1.695 -11.91,-5.089 -3.12,-3.391 -4.54,-7.914 -4.54,-13.852 l 0,-33.926 -9.93,0 0,35.907 c 0,5.652 -1.14,9.894 -3.12,12.718 -1.99,2.828 -5.1,4.242 -9.36,4.242 -5.11,0 -9.08,-1.695 -11.92,-5.089 -3.12,-3.391 -4.54,-8.2 -4.54,-13.852 l 0,-33.926 -9.93,0 0,59.934 9.93,0 0,-9.328 c 2.27,3.676 4.82,6.5 8.23,8.199 3.12,1.695 6.81,2.543 11.06,2.543 4.26,0 7.95,-1.129 11.07,-3.391 3.12,-2.261 5.39,-5.375 6.81,-9.613" /><path
         id="path116"
         style="fill:#010101;fill-opacity:1;fill-rule:evenodd;stroke:none"
         d="m 2068.74,724.844 0,-4.809 -45.67,0 c 0.56,-6.781 2.55,-11.871 6.23,-15.265 3.7,-3.672 8.8,-5.372 15.33,-5.372 3.97,0 7.66,0.567 11.06,1.415 3.69,0.847 7.38,2.261 10.78,4.242 l 0,-9.328 c -3.69,-1.7 -7.09,-2.829 -11.06,-3.676 -3.69,-0.848 -7.38,-1.133 -11.35,-1.133 -9.65,0 -17.02,2.828 -22.7,8.48 -5.67,5.372 -8.51,13.004 -8.51,22.618 0,9.613 2.56,17.527 7.95,23.179 5.38,5.938 12.48,8.766 21.56,8.766 8.22,0 14.46,-2.543 19.29,-7.914 4.82,-5.09 7.09,-12.156 7.09,-21.203 z m -9.93,2.824 c 0,5.375 -1.7,9.613 -4.54,13.008 -3.12,3.109 -6.81,4.804 -11.91,4.804 -5.4,0 -9.93,-1.695 -13.34,-4.804 -3.12,-3.113 -5.11,-7.352 -5.67,-13.008 l 35.46,0" /><path
         id="path118"
         style="fill:#010101;fill-opacity:1;fill-rule:evenodd;stroke:none"
         d="m 2135.7,728.801 0,-36.188 -9.93,0 0,35.907 c 0,5.652 -1.14,9.894 -3.41,12.718 -2.27,2.828 -5.39,4.242 -9.93,4.242 -5.39,0 -9.64,-1.695 -12.77,-5.089 -3.12,-3.391 -4.53,-7.914 -4.53,-13.852 l 0,-33.926 -9.93,0 0,59.934 9.93,0 0,-9.328 c 2.26,3.676 5.1,6.219 8.51,8.199 3.12,1.695 6.81,2.543 11.06,2.543 6.81,0 12.2,-2.262 15.6,-6.504 3.69,-4.238 5.4,-10.457 5.4,-18.656" /><path
         id="path120"
         style="fill:#010101;fill-opacity:1;fill-rule:evenodd;stroke:none"
         d="m 2165.2,769.508 0,-16.961 20.43,0 0,-7.633 -20.43,0 0,-32.512 c 0,-5.086 0.57,-8.195 1.98,-9.609 1.42,-1.414 4.26,-1.98 8.23,-1.98 l 10.22,0 0,-8.2 -10.22,0 c -7.66,0 -12.77,1.414 -15.89,4.242 -2.83,2.829 -4.25,7.915 -4.25,15.547 l 0,32.512 -7.38,0 0,7.633 7.38,0 0,16.961 9.93,0" /><path
         id="path122"
         style="fill:#010101;fill-opacity:1;fill-rule:evenodd;stroke:none"
         d="m 2198.68,752.547 9.93,0 0,-59.934 -9.93,0 0,59.934 z m 0,23.465 9.93,0 0,-12.438 -9.93,0 0,12.438" /></g></g></svg>