<?xml version="1.0" encoding="UTF-8" standalone="no"?>
<svg
   xmlns:dc="http://purl.org/dc/elements/1.1/"
   xmlns:cc="http://creativecommons.org/ns#"
   xmlns:rdf="http://www.w3.org/1999/02/22-rdf-syntax-ns#"
   xmlns:svg="http://www.w3.org/2000/svg"
   xmlns="http://www.w3.org/2000/svg"
   viewBox="0 0 413.75 275"
   height="275"
   width="413.75"
   xml:space="preserve"
   version="1.1"
   id="svg2"><metadata
     id="metadata8"><rdf:RDF><cc:Work
         rdf:about=""><dc:format>image/svg+xml</dc:format><dc:type
           rdf:resource="http://purl.org/dc/dcmitype/StillImage" /></cc:Work></rdf:RDF></metadata><defs
     id="defs6" /><g
     transform="matrix(1.25,0,0,-1.25,0,275)"
     id="g10"><g
       transform="scale(0.1,0.1)"
       id="g12"><g
         transform="scale(0.999295,1.0007)"
         id="g14"><path
           id="path16"
           style="fill:none;stroke:#010101;stroke-width:7.09348011;stroke-linecap:butt;stroke-linejoin:round;stroke-miterlimit:10;stroke-dasharray:none;stroke-opacity:1"
           d="m 2931.94,1069.64 3.4,254.86" /></g><g
         transform="scale(0.999295,1.0007)"
         id="g18"><path
           id="path20"
           style="fill:none;stroke:#010101;stroke-width:7.09348011;stroke-linecap:butt;stroke-linejoin:round;stroke-miterlimit:10;stroke-dasharray:none;stroke-opacity:1"
           d="m 2083.37,1069.64 3.41,254.86" /></g><g
         transform="scale(0.999295,1.0007)"
         id="g22"><path
           id="path24"
           style="fill:none;stroke:#010101;stroke-width:7.09348011;stroke-linecap:butt;stroke-linejoin:round;stroke-miterlimit:10;stroke-dasharray:none;stroke-opacity:1"
           d="m 1234.53,1069.64 3.4,254.86" /></g><g
         transform="scale(0.999295,1.0007)"
         id="g26"><path
           id="path28"
           style="fill:none;stroke:#010101;stroke-width:7.09348011;stroke-linecap:butt;stroke-linejoin:round;stroke-miterlimit:10;stroke-dasharray:none;stroke-opacity:1"
           d="m 385.967,1069.64 3.405,254.86" /></g><g
         transform="scale(0.999295,1.0007)"
         id="g30"><path
           id="path32"
           style="fill:none;stroke:#010101;stroke-width:7.09348011;stroke-linecap:butt;stroke-linejoin:round;stroke-miterlimit:10;stroke-dasharray:none;stroke-opacity:1"
           d="m 2507.66,1621.35 3.4,254.57" /></g><g
         transform="scale(0.999295,1.0007)"
         id="g34"><path
           id="path36"
           style="fill:none;stroke:#010101;stroke-width:7.09348011;stroke-linecap:butt;stroke-linejoin:round;stroke-miterlimit:10;stroke-dasharray:none;stroke-opacity:1"
           d="m 810.251,1621.35 3.119,254.57" /></g><path
         id="path38"
         style="fill:#ffffff;fill-opacity:1;fill-rule:evenodd;stroke:none"
         d="m 165.621,3.97656 -161.65225,0 0,323.75744 323.30425,0 0,-323.75744 -161.652,0" /><g
         transform="scale(0.999295,1.0007)"
         id="g40"><path
           id="path42"
           style="fill:none;stroke:#010101;stroke-width:7.09348011;stroke-linecap:butt;stroke-linejoin:round;stroke-miterlimit:10;stroke-dasharray:none;stroke-opacity:1"
           d="m 165.738,4.25872 -161.76645,0 0,323.24528 323.53245,0 0,-323.24528 -161.766,0 z" /></g><path
         id="path44"
         style="fill:#010101;fill-opacity:1;fill-rule:evenodd;stroke:none"
         d="m 145.488,134.332 18.434,0 0,66.738 -19.852,-4.257 0,10.792 19.567,4.258 11.91,0 0,-77.531 18.152,0 0,-9.941 -48.211,0 0,9.941" /><path
         id="path46"
         style="fill:#ffffff;fill-opacity:1;fill-rule:evenodd;stroke:none"
         d="m 591.305,3.97656 -161.653,0 0,323.75744 323.024,0 0,-323.75744 -161.371,0" /><g
         transform="scale(0.999295,1.0007)"
         id="g48"><path
           id="path50"
           style="fill:none;stroke:#010101;stroke-width:7.09348011;stroke-linecap:butt;stroke-linejoin:round;stroke-miterlimit:10;stroke-dasharray:none;stroke-opacity:1"
           d="m 591.44,4.25872 -161.485,0 0,323.24528 322.966,0 0,-323.24528 -161.481,0 z" /></g><path
         id="path52"
         style="fill:#010101;fill-opacity:1;fill-rule:evenodd;stroke:none"
         d="m 571.172,134.332 18.433,0 0,66.738 -19.851,-4.257 0,10.792 19.566,4.258 11.91,0 0,-77.531 18.153,0 0,-9.941 -48.211,0 0,9.941" /><path
         id="path54"
         style="fill:#ffffff;fill-opacity:1;fill-rule:evenodd;stroke:none"
         d="m 1015.57,3.97656 -161.652,0 0,323.75744 323.302,0 0,-323.75744 -161.65,0" /><g
         transform="scale(0.999295,1.0007)"
         id="g56"><path
           id="path58"
           style="fill:none;stroke:#010101;stroke-width:7.09348011;stroke-linecap:butt;stroke-linejoin:round;stroke-miterlimit:10;stroke-dasharray:none;stroke-opacity:1"
           d="m 1016.01,4.25872 -161.771,0 0,323.24528 323.531,0 0,-323.24528 -161.76,0 z" /></g><path
         id="path60"
         style="fill:#010101;fill-opacity:1;fill-rule:evenodd;stroke:none"
         d="m 995.438,134.332 18.432,0 0,66.738 -19.85,-4.257 0,10.792 19.57,4.258 11.91,0 0,-77.531 18.15,0 0,-9.941 -48.212,0 0,9.941" /><path
         id="path62"
         style="fill:#ffffff;fill-opacity:1;fill-rule:evenodd;stroke:none"
         d="m 1439.27,3.97656 -161.65,0 0,323.75744 323.02,0 0,-323.75744 -161.37,0" /><g
         transform="scale(0.999295,1.0007)"
         id="g64"><path
           id="path66"
           style="fill:none;stroke:#010101;stroke-width:7.09348011;stroke-linecap:butt;stroke-linejoin:round;stroke-miterlimit:10;stroke-dasharray:none;stroke-opacity:1"
           d="m 1440.28,4.25872 -161.76,0 0,323.24528 323.25,0 0,-323.24528 -161.49,0 z" /></g><path
         id="path68"
         style="fill:#010101;fill-opacity:1;fill-rule:evenodd;stroke:none"
         d="m 1419.13,134.332 18.44,0 0,66.738 -19.86,-4.257 0,10.792 19.58,4.258 11.91,0 0,-77.531 18.15,0 0,-9.941 -48.22,0 0,9.941" /><path
         id="path70"
         style="fill:#ffffff;fill-opacity:1;fill-rule:evenodd;stroke:none"
         d="m 1863.54,3.97656 -161.66,0 0,323.75744 323.31,0 0,-323.75744 -161.65,0" /><g
         transform="scale(0.999295,1.0007)"
         id="g72"><path
           id="path74"
           style="fill:none;stroke:#010101;stroke-width:7.09348011;stroke-linecap:butt;stroke-linejoin:round;stroke-miterlimit:10;stroke-dasharray:none;stroke-opacity:1"
           d="m 1864.85,4.25872 -161.77,0 0,323.24528 323.54,0 0,-323.24528 -161.77,0 z" /></g><path
         id="path76"
         style="fill:#010101;fill-opacity:1;fill-rule:evenodd;stroke:none"
         d="m 1843.4,134.332 18.44,0 0,66.738 -19.86,-4.257 0,10.792 19.57,4.258 11.91,0 0,-77.531 18.15,0 0,-9.941 -48.21,0 0,9.941" /><path
         id="path78"
         style="fill:#ffffff;fill-opacity:1;fill-rule:evenodd;stroke:none"
         d="m 2287.52,3.97656 -161.65,0 0,323.75744 323.02,0 0,-323.75744 -161.37,0" /><g
         transform="scale(0.999295,1.0007)"
         id="g80"><path
           id="path82"
           style="fill:none;stroke:#010101;stroke-width:7.09348011;stroke-linecap:butt;stroke-linejoin:round;stroke-miterlimit:10;stroke-dasharray:none;stroke-opacity:1"
           d="m 2288.85,4.25872 -161.77,0 0,323.24528 323.25,0 0,-323.24528 -161.48,0 z" /></g><path
         id="path84"
         style="fill:#010101;fill-opacity:1;fill-rule:evenodd;stroke:none"
         d="m 2267.38,134.332 18.44,0 0,66.738 -19.86,-4.257 0,10.792 19.57,4.258 11.92,0 0,-77.531 18.14,0 0,-9.941 -48.21,0 0,9.941" /><path
         id="path86"
         style="fill:#ffffff;fill-opacity:1;fill-rule:evenodd;stroke:none"
         d="m 2711.79,3.97656 -161.66,0 0,323.75744 323.3,0 0,-323.75744 -161.64,0" /><g
         transform="scale(0.999295,1.0007)"
         id="g88"><path
           id="path90"
           style="fill:none;stroke:#010101;stroke-width:7.09348011;stroke-linecap:butt;stroke-linejoin:round;stroke-miterlimit:10;stroke-dasharray:none;stroke-opacity:1"
           d="m 2713.41,4.25872 -161.76,0 0,323.24528 323.53,0 0,-323.24528 -161.77,0 z" /></g><path
         id="path92"
         style="fill:#010101;fill-opacity:1;fill-rule:evenodd;stroke:none"
         d="m 2691.65,134.332 18.43,0 0,66.738 -19.85,-4.257 0,10.792 19.57,4.258 11.91,0 0,-77.531 18.15,0 0,-9.941 -48.21,0 0,9.941" /><path
         id="path94"
         style="fill:#ffffff;fill-opacity:1;fill-rule:evenodd;stroke:none"
         d="m 3135.48,3.97656 -161.65,0 0,323.75744 323.02,0 0,-323.75744 -161.37,0" /><g
         transform="scale(0.999295,1.0007)"
         id="g96"><path
           id="path98"
           style="fill:none;stroke:#010101;stroke-width:7.09348011;stroke-linecap:butt;stroke-linejoin:round;stroke-miterlimit:10;stroke-dasharray:none;stroke-opacity:1"
           d="m 3137.69,4.25872 -161.76,0 0,323.24528 323.25,0 0,-323.24528 -161.49,0 z" /></g><path
         id="path100"
         style="fill:#010101;fill-opacity:1;fill-rule:evenodd;stroke:none"
         d="m 3115.35,134.332 18.43,0 0,66.738 -19.85,-4.257 0,10.792 19.57,4.258 11.91,0 0,-77.531 18.15,0 0,-9.941 -48.21,0 0,9.941" /><path
         id="path102"
         style="fill:#010101;fill-opacity:1;fill-rule:evenodd;stroke:none"
         d="m 315.078,548.402 19.57,0 0,-23.57 -19.57,0 0,23.57 z m 62.961,0 19.852,0 0,-23.57 -19.852,0 0,23.57 z m -126.484,0 19.851,0 0,-23.57 -19.851,0 0,23.57" /><path
         id="path104"
         style="fill:#010101;fill-opacity:1;fill-rule:evenodd;stroke:none"
         d="m 745.016,548.402 19.57,0 0,-23.57 -19.57,0 0,23.57 z m 62.961,0 19.851,0 0,-23.57 -19.851,0 0,23.57 z m -126.485,0 19.852,0 0,-23.57 -19.852,0 0,23.57" /><path
         id="path106"
         style="fill:#010101;fill-opacity:1;fill-rule:evenodd;stroke:none"
         d="m 1174.39,548.402 19.57,0 0,-23.57 -19.57,0 0,23.57 z m 62.96,0 19.85,0 0,-23.57 -19.85,0 0,23.57 z m -126.49,0 19.85,0 0,-23.57 -19.85,0 0,23.57" /><path
         id="path108"
         style="fill:#010101;fill-opacity:1;fill-rule:evenodd;stroke:none"
         d="m 1604.32,548.402 19.57,0 0,-23.57 -19.57,0 0,23.57 z m 62.97,0 19.85,0 0,-23.57 -19.85,0 0,23.57 z m -126.49,0 19.85,0 0,-23.57 -19.85,0 0,23.57" /><path
         id="path110"
         style="fill:#010101;fill-opacity:1;fill-rule:evenodd;stroke:none"
         d="m 2033.98,548.402 19.57,0 0,-23.57 -19.57,0 0,23.57 z m 62.96,0 19.85,0 0,-23.57 -19.85,0 0,23.57 z m -126.49,0 19.85,0 0,-23.57 -19.85,0 0,23.57" /><path
         id="path112"
         style="fill:#010101;fill-opacity:1;fill-rule:evenodd;stroke:none"
         d="m 2463.92,548.402 19.56,0 0,-23.57 -19.56,0 0,23.57 z m 62.96,0 19.85,0 0,-23.57 -19.85,0 0,23.57 z m -126.49,0 19.85,0 0,-23.57 -19.85,0 0,23.57" /><path
         id="path114"
         style="fill:#010101;fill-opacity:1;fill-rule:evenodd;stroke:none"
         d="m 2828.63,524.832 19.5703,0 0,23.5703 -19.5703,0 0,-23.5703 z" /><path
         id="path116"
         style="fill:#010101;fill-opacity:1;fill-rule:evenodd;stroke:none"
         d="m 2888.75,524.832 19.5664,0 0,23.5703 -19.5664,0 0,-23.5703 z" /><path
         id="path118"
         style="fill:#010101;fill-opacity:1;fill-rule:evenodd;stroke:none"
         d="m 2948.59,524.832 19.5664,0 0,23.5703 -19.5664,0 0,-23.5703 z" /><path
         id="path120"
         style="fill:#ffffff;fill-opacity:1;fill-rule:evenodd;stroke:none"
         d="m 382.578,768.504 -378.60925,0 0,323.476 757.21525,0 0,-323.476 -378.606,0" /><g
         transform="scale(0.999295,1.0007)"
         id="g122"><path
           id="path124"
           style="fill:none;stroke:#010101;stroke-width:7.09348011;stroke-linecap:butt;stroke-linejoin:round;stroke-miterlimit:10;stroke-dasharray:none;stroke-opacity:1"
           d="m 382.848,767.963 -378.87645,0 0,323.537 757.46345,0 0,-323.537 -378.587,0 z" /></g><path
         id="path126"
         style="fill:#010101;fill-opacity:1;fill-rule:evenodd;stroke:none"
         d="m 337.484,929.246 -7.941,-40.609 -10.777,0 7.941,40.894 c 0,0 0,0.285 0,0.852 0.852,2.558 1.133,4.828 1.133,6.25 0,3.125 -1.133,5.68 -2.836,7.383 -1.699,1.703 -4.535,2.554 -7.938,2.554 -4.824,0 -9.078,-1.703 -12.48,-5.394 -3.688,-3.692 -5.957,-8.805 -7.375,-15.336 l -7.09,-37.203 -10.773,0 12.761,65.601 10.778,0 -1.703,-9.652 c 2.836,3.691 5.957,6.531 9.359,8.519 3.402,1.989 7.09,2.84 10.777,2.84 5.672,0 9.641,-1.422 12.762,-4.261 3.117,-2.84 4.535,-6.817 4.535,-11.926 0,-1.137 0,-2.84 -0.281,-4.547 -0.285,-1.988 -0.566,-3.691 -0.852,-5.965" /><path
         id="path128"
         style="fill:#010101;fill-opacity:1;fill-rule:evenodd;stroke:none"
         d="m 398.742,976.109 11.059,0 -46.227,-98.832 -11.058,0 46.226,98.832" /><path
         id="path130"
         style="fill:#010101;fill-opacity:1;fill-rule:evenodd;stroke:none"
         d="m 461.418,965.316 -27.512,-46.293 27.512,0 0,46.293 z m -1.703,10.793 13.613,0 0,-57.086 11.629,0 0,-9.656 -11.629,0 0,-20.73 -11.91,0 0,20.73 -36.867,0 0,11.078 35.164,55.664" /><path
         id="path132"
         style="fill:#ffffff;fill-opacity:1;fill-rule:evenodd;stroke:none"
         d="m 1230.82,768.504 -378.601,0 0,323.476 756.921,0 0,-323.476 -378.32,0" /><g
         transform="scale(0.999295,1.0007)"
         id="g134"><path
           id="path136"
           style="fill:none;stroke:#010101;stroke-width:7.09348011;stroke-linecap:butt;stroke-linejoin:round;stroke-miterlimit:10;stroke-dasharray:none;stroke-opacity:1"
           d="m 1231.41,767.963 -378.876,0 0,323.537 757.746,0 0,-323.537 -378.87,0 z" /></g><path
         id="path138"
         style="fill:#010101;fill-opacity:1;fill-rule:evenodd;stroke:none"
         d="m 1185.73,929.246 -7.94,-40.609 -10.77,0 7.93,40.894 c 0,0 0,0.285 0,0.852 0.85,2.558 1.14,4.828 1.14,6.25 0,3.125 -1.14,5.68 -2.84,7.383 -1.7,1.703 -4.54,2.554 -7.94,2.554 -4.82,0 -9.07,-1.703 -12.47,-5.394 -3.69,-3.692 -5.96,-8.805 -7.38,-15.336 l -7.09,-37.203 -10.78,0 12.77,65.601 10.77,0 -1.7,-9.652 c 2.84,3.691 5.96,6.531 9.36,8.519 3.4,1.989 7.09,2.84 10.78,2.84 5.67,0 9.64,-1.422 12.76,-4.261 3.12,-2.84 4.54,-6.817 4.54,-11.926 0,-1.137 0,-2.84 -0.29,-4.547 -0.28,-1.988 -0.56,-3.691 -0.85,-5.965" /><path
         id="path140"
         style="fill:#010101;fill-opacity:1;fill-rule:evenodd;stroke:none"
         d="m 1246.99,976.109 11.06,0 -46.23,-98.832 -11.06,0 46.23,98.832" /><path
         id="path142"
         style="fill:#010101;fill-opacity:1;fill-rule:evenodd;stroke:none"
         d="m 1309.66,965.316 -27.5,-46.293 27.5,0 0,46.293 z m -1.7,10.793 13.61,0 0,-57.086 11.63,0 0,-9.656 -11.63,0 0,-20.73 -11.91,0 0,20.73 -36.86,0 0,11.078 35.16,55.664" /><path
         id="path144"
         style="fill:#ffffff;fill-opacity:1;fill-rule:evenodd;stroke:none"
         d="m 2078.79,768.504 -378.61,0 0,323.476 757.21,0 0,-323.476 -378.6,0" /><g
         transform="scale(0.999295,1.0007)"
         id="g146"><path
           id="path148"
           style="fill:none;stroke:#010101;stroke-width:7.09348011;stroke-linecap:butt;stroke-linejoin:round;stroke-miterlimit:10;stroke-dasharray:none;stroke-opacity:1"
           d="m 2080.26,767.963 -378.88,0 0,323.537 757.46,0 0,-323.537 -378.58,0 z" /></g><path
         id="path150"
         style="fill:#010101;fill-opacity:1;fill-rule:evenodd;stroke:none"
         d="m 2033.7,929.246 -7.95,-40.609 -10.77,0 7.94,40.894 c 0,0 0,0.285 0,0.852 0.85,2.558 1.13,4.828 1.13,6.25 0,3.125 -1.13,5.68 -2.83,7.383 -1.7,1.703 -4.54,2.554 -7.94,2.554 -4.82,0 -9.08,-1.703 -12.48,-5.394 -3.69,-3.692 -5.96,-8.805 -7.37,-15.336 l -7.09,-37.203 -10.78,0 12.76,65.601 10.78,0 -1.71,-9.652 c 2.84,3.691 5.96,6.531 9.36,8.519 3.41,1.989 7.09,2.84 10.78,2.84 5.67,0 9.64,-1.422 12.76,-4.261 3.12,-2.84 4.54,-6.817 4.54,-11.926 0,-1.137 0,-2.84 -0.28,-4.547 -0.29,-1.988 -0.57,-3.691 -0.85,-5.965" /><path
         id="path152"
         style="fill:#010101;fill-opacity:1;fill-rule:evenodd;stroke:none"
         d="m 2094.95,976.109 11.07,0 -46.23,-98.832 -11.06,0 46.22,98.832" /><path
         id="path154"
         style="fill:#010101;fill-opacity:1;fill-rule:evenodd;stroke:none"
         d="m 2157.63,965.316 -27.51,-46.293 27.51,0 0,46.293 z m -1.7,10.793 13.61,0 0,-57.086 11.63,0 0,-9.656 -11.63,0 0,-20.73 -11.91,0 0,20.73 -36.87,0 0,11.078 35.17,55.664" /><path
         id="path156"
         style="fill:#ffffff;fill-opacity:1;fill-rule:evenodd;stroke:none"
         d="m 2926.75,768.504 -378.32,0 0,323.476 756.93,0 0,-323.476 -378.61,0" /><g
         transform="scale(0.999295,1.0007)"
         id="g158"><path
           id="path160"
           style="fill:none;stroke:#010101;stroke-width:7.09348011;stroke-linecap:butt;stroke-linejoin:round;stroke-miterlimit:10;stroke-dasharray:none;stroke-opacity:1"
           d="m 2928.82,767.963 -378.88,0 0,323.537 757.75,0 0,-323.537 -378.87,0 z" /></g><path
         id="path162"
         style="fill:#010101;fill-opacity:1;fill-rule:evenodd;stroke:none"
         d="m 2881.94,929.246 -7.94,-40.609 -10.77,0 7.94,40.894 c 0,0 0,0.285 0,0.852 0.85,2.558 1.13,4.828 1.13,6.25 0,3.125 -1.13,5.68 -2.84,7.383 -1.7,1.703 -4.53,2.554 -7.94,2.554 -4.82,0 -9.07,-1.703 -12.47,-5.394 -3.69,-3.692 -5.96,-8.805 -7.38,-15.336 l -7.09,-37.203 -10.78,0 12.77,65.601 10.77,0 -1.7,-9.652 c 2.84,3.691 5.96,6.531 9.36,8.519 3.41,1.989 7.09,2.84 10.78,2.84 5.67,0 9.64,-1.422 12.76,-4.261 3.12,-2.84 4.54,-6.817 4.54,-11.926 0,-1.137 0,-2.84 -0.29,-4.547 -0.28,-1.988 -0.56,-3.691 -0.85,-5.965" /><path
         id="path164"
         style="fill:#010101;fill-opacity:1;fill-rule:evenodd;stroke:none"
         d="m 2943.2,976.109 11.06,0 -46.22,-98.832 -11.07,0 46.23,98.832" /><path
         id="path166"
         style="fill:#010101;fill-opacity:1;fill-rule:evenodd;stroke:none"
         d="m 3005.88,965.316 -27.51,-46.293 27.51,0 0,46.293 z m -1.7,10.793 13.61,0 0,-57.086 11.62,0 0,-9.656 -11.62,0 0,-20.73 -11.91,0 0,20.73 -36.87,0 0,11.078 35.17,55.664" /><path
         id="path168"
         style="fill:#ffffff;fill-opacity:1;fill-rule:evenodd;stroke:none"
         d="m 803.438,1320.32 -799.46925,0 0,323.75 1598.66125,0 0,-323.75 -799.192,0" /><g
         transform="scale(0.999295,1.0007)"
         id="g170"><path
           id="path172"
           style="fill:none;stroke:#010101;stroke-width:7.09348011;stroke-linecap:butt;stroke-linejoin:round;stroke-miterlimit:10;stroke-dasharray:none;stroke-opacity:1"
           d="m 803.723,1319.67 -799.75145,0 0,323.25 1599.78845,0 0,-323.25 -800.037,0 z" /></g><path
         id="path174"
         style="fill:#010101;fill-opacity:1;fill-rule:evenodd;stroke:none"
         d="m 464.254,1479.64 -7.941,-40.61 -10.778,0 7.942,40.9 c 0,0 0,0.28 0,0.85 0.851,2.55 1.132,4.83 1.132,6.24 0,3.13 -1.132,5.68 -2.836,7.39 -1.699,1.7 -4.535,2.55 -7.941,2.55 -4.82,0 -9.074,-1.7 -12.477,-5.39 -3.687,-3.69 -5.957,-8.8 -7.375,-15.34 l -7.089,-37.2 -10.778,0 12.766,65.6 10.773,0 -1.699,-9.65 c 2.836,3.69 5.953,6.53 9.36,8.52 3.402,1.98 7.089,2.84 10.777,2.84 5.672,0 9.64,-1.43 12.762,-4.27 3.117,-2.84 4.535,-6.81 4.535,-11.92 0,-1.14 0,-2.84 -0.282,-4.54 -0.285,-1.99 -0.57,-3.7 -0.851,-5.97" /><path
         id="path176"
         style="fill:#010101;fill-opacity:1;fill-rule:evenodd;stroke:none"
         d="m 525.512,1526.5 11.058,0 -46.226,-98.83 -11.059,0 46.227,98.83" /><path
         id="path178"
         style="fill:#010101;fill-opacity:1;fill-rule:evenodd;stroke:none"
         d="m 566.918,1448.97 40.27,0 0,-9.94 -53.032,0 0,9.94 c 7.371,7.67 13.61,14.48 19,20.44 5.672,5.97 9.36,9.95 11.344,12.5 3.969,4.83 6.523,8.52 7.941,11.64 1.418,2.84 1.985,5.97 1.985,9.09 0,4.83 -1.418,8.81 -4.254,11.36 -2.836,2.84 -6.809,4.27 -11.91,4.27 -3.407,0 -7.09,-0.57 -11.063,-1.99 -3.969,-1.14 -8.222,-3.13 -12.476,-5.68 l 0,11.92 c 3.968,1.99 7.941,3.41 11.91,4.27 3.969,0.85 7.656,1.41 11.629,1.41 8.508,0 15.312,-2.27 20.418,-6.81 5.386,-4.55 7.941,-10.51 7.941,-17.89 0,-3.7 -0.851,-7.67 -2.555,-11.36 -1.699,-3.69 -4.535,-7.96 -8.507,-12.5 -2.266,-2.56 -5.387,-5.96 -9.641,-10.51 -3.973,-4.54 -10.492,-11.08 -19,-20.16" /><path
         id="path180"
         style="fill:#010101;fill-opacity:1;fill-rule:evenodd;stroke:none"
         d="m 694.535,1469.7 61.824,0 0,-10.22 -61.824,0 0,10.22 z m 0,23.85 61.824,0 0,-9.93 -61.824,0 0,9.93" /><path
         id="path182"
         style="fill:#010101;fill-opacity:1;fill-rule:evenodd;stroke:none"
         d="m 855.055,1448.97 40.269,0 0,-9.94 -53.031,0 0,9.94 c 7.371,7.67 13.613,14.48 19,20.44 5.672,5.97 9.359,9.95 11.344,12.5 3.972,4.83 6.523,8.52 7.941,11.64 1.418,2.84 1.985,5.97 1.985,9.09 0,4.83 -1.418,8.81 -4.254,11.36 -2.836,2.84 -6.805,4.27 -11.911,4.27 -3.402,0 -7.089,-0.57 -11.062,-1.99 -3.969,-1.14 -8.223,-3.13 -12.477,-5.68 l 0,11.92 c 3.969,1.99 7.942,3.41 11.911,4.27 3.972,0.85 7.656,1.41 11.628,1.41 8.508,0 15.313,-2.27 20.418,-6.81 5.391,-4.55 7.942,-10.51 7.942,-17.89 0,-3.7 -0.852,-7.67 -2.551,-11.36 -1.703,-3.69 -4.539,-7.96 -8.508,-12.5 -2.269,-2.56 -5.39,-5.96 -9.644,-10.51 -3.969,-4.54 -10.492,-11.08 -19,-20.16" /><path
         id="path184"
         style="fill:#010101;fill-opacity:1;fill-rule:evenodd;stroke:none"
         d="m 918.863,1542.4 6.524,0 -5.672,-29.53 18.433,14.77 8.227,0 -17.586,-14.2 12.481,-23.86 -7.09,0 -10.496,19.88 -5.672,-4.55 -2.836,-15.33 -6.52,0 10.207,52.82" /><path
         id="path186"
         style="fill:#010101;fill-opacity:1;fill-rule:evenodd;stroke:none"
         d="m 989.48,1468 72.3164,0 0,8.2344 -72.3164,0 0,-8.2344 z" /><path
         id="path188"
         style="fill:#010101;fill-opacity:1;fill-rule:evenodd;stroke:none"
         d="m 1149.43,1448.97 18.43,0 0,66.74 -19.85,-4.26 0,10.79 19.57,4.26 11.91,0 0,-77.53 18.15,0 0,-9.94 -48.21,0 0,9.94" /><path
         id="path190"
         style="fill:#ffffff;fill-opacity:1;fill-rule:evenodd;stroke:none"
         d="m 2499.65,1320.32 -799.47,0 0,323.75 1598.66,0 0,-323.75 -799.19,0" /><g
         transform="scale(0.999295,1.0007)"
         id="g192"><path
           id="path194"
           style="fill:none;stroke:#010101;stroke-width:7.09348011;stroke-linecap:butt;stroke-linejoin:round;stroke-miterlimit:10;stroke-dasharray:none;stroke-opacity:1"
           d="m 2501.13,1319.67 -799.75,0 0,323.25 1599.78,0 0,-323.25 -800.03,0 z" /></g><path
         id="path196"
         style="fill:#010101;fill-opacity:1;fill-rule:evenodd;stroke:none"
         d="m 2145.43,1479.64 -7.94,-40.61 -10.78,0 7.95,40.9 c 0,0 0,0.28 0,0.85 0.85,2.55 1.13,4.83 1.13,6.24 0,3.13 -1.13,5.68 -2.83,7.39 -1.71,1.7 -4.54,2.55 -7.94,2.55 -4.82,0 -9.08,-1.7 -12.48,-5.39 -3.69,-3.69 -5.96,-8.8 -7.38,-15.34 l -7.09,-37.2 -10.77,0 12.76,65.6 10.78,0 -1.71,-9.65 c 2.84,3.69 5.96,6.53 9.36,8.52 3.4,1.98 7.09,2.84 10.78,2.84 5.67,0 9.64,-1.43 12.76,-4.27 3.12,-2.84 4.54,-6.81 4.54,-11.92 0,-1.14 0,-2.84 -0.28,-4.54 -0.29,-1.99 -0.57,-3.7 -0.86,-5.97" /><path
         id="path198"
         style="fill:#010101;fill-opacity:1;fill-rule:evenodd;stroke:none"
         d="m 2206.69,1526.5 11.06,0 -46.22,-98.83 -11.07,0 46.23,98.83" /><path
         id="path200"
         style="fill:#010101;fill-opacity:1;fill-rule:evenodd;stroke:none"
         d="m 2248.1,1448.97 40.27,0 0,-9.94 -53.03,0 0,9.94 c 7.37,7.67 13.61,14.48 19,20.44 5.67,5.97 9.36,9.95 11.34,12.5 3.97,4.83 6.52,8.52 7.94,11.64 1.42,2.84 1.99,5.97 1.99,9.09 0,4.83 -1.42,8.81 -4.26,11.36 -2.83,2.84 -6.8,4.27 -11.91,4.27 -3.4,0 -7.09,-0.57 -11.06,-1.99 -3.97,-1.14 -8.22,-3.13 -12.48,-5.68 l 0,11.92 c 3.97,1.99 7.94,3.41 11.91,4.27 3.98,0.85 7.66,1.41 11.63,1.41 8.51,0 15.31,-2.27 20.42,-6.81 5.39,-4.55 7.94,-10.51 7.94,-17.89 0,-3.7 -0.85,-7.67 -2.55,-11.36 -1.7,-3.69 -4.54,-7.96 -8.51,-12.5 -2.27,-2.56 -5.39,-5.96 -9.64,-10.51 -3.97,-4.54 -10.49,-11.08 -19,-20.16" /><path
         id="path202"
         style="fill:#010101;fill-opacity:1;fill-rule:evenodd;stroke:none"
         d="m 2375.72,1469.7 61.82,0 0,-10.22 -61.82,0 0,10.22 z m 0,23.85 61.82,0 0,-9.93 -61.82,0 0,9.93" /><path
         id="path204"
         style="fill:#010101;fill-opacity:1;fill-rule:evenodd;stroke:none"
         d="m 2536.23,1448.97 40.28,0 0,-9.94 -53.04,0 0,9.94 c 7.38,7.67 13.62,14.48 19,20.44 5.67,5.97 9.36,9.95 11.35,12.5 3.97,4.83 6.52,8.52 7.94,11.64 1.42,2.84 1.99,5.97 1.99,9.09 0,4.83 -1.42,8.81 -4.26,11.36 -2.84,2.84 -6.81,4.27 -11.91,4.27 -3.4,0 -7.09,-0.57 -11.06,-1.99 -3.97,-1.14 -8.23,-3.13 -12.48,-5.68 l 0,11.92 c 3.97,1.99 7.94,3.41 11.91,4.27 3.97,0.85 7.66,1.41 11.63,1.41 8.51,0 15.31,-2.27 20.42,-6.81 5.39,-4.55 7.94,-10.51 7.94,-17.89 0,-3.7 -0.85,-7.67 -2.55,-11.36 -1.71,-3.69 -4.54,-7.96 -8.51,-12.5 -2.27,-2.56 -5.39,-5.96 -9.65,-10.51 -3.96,-4.54 -10.49,-11.08 -19,-20.16" /><path
         id="path206"
         style="fill:#010101;fill-opacity:1;fill-rule:evenodd;stroke:none"
         d="m 2600.05,1542.4 6.52,0 -5.68,-29.53 18.44,14.77 8.22,0 -17.58,-14.2 12.48,-23.86 -7.09,0 -10.49,19.88 -5.67,-4.55 -2.84,-15.33 -6.52,0 10.21,52.82" /><path
         id="path208"
         style="fill:#010101;fill-opacity:1;fill-rule:evenodd;stroke:none"
         d="m 2700.72,1468 72.3164,0 0,8.2344 -72.3164,0 0,-8.2344 z" /><path
         id="path210"
         style="fill:#010101;fill-opacity:1;fill-rule:evenodd;stroke:none"
         d="m 2860.67,1448.97 18.44,0 0,66.74 -19.86,-4.26 0,10.79 19.57,4.26 11.91,0 0,-77.53 18.16,0 0,-9.94 -48.22,0 0,9.94" /><path
         id="path212"
         style="fill:#ffffff;fill-opacity:1;fill-rule:evenodd;stroke:none"
         d="m 1650.27,1872.41 -1646.5825,0 0,323.48 3292.8825,0 0,-323.48 -1646.3,0" /><g
         transform="scale(0.999295,1.0007)"
         id="g214"><path
           id="path216"
           style="fill:none;stroke:#010101;stroke-width:7.09348011;stroke-linecap:butt;stroke-linejoin:round;stroke-miterlimit:10;stroke-dasharray:none;stroke-opacity:1"
           d="m 1651.43,1871.09 -1647.7399,0 0,323.54 3295.1999,0 0,-323.54 -1647.46,0 z" /></g><path
         id="path218"
         style="fill:#010101;fill-opacity:1;fill-rule:evenodd;stroke:none"
         d="m 1512.16,2031.45 -7.95,-40.61 -10.77,0 7.94,40.89 c 0,0 0,0.29 0,0.86 0.85,2.55 1.13,4.83 1.13,6.25 0,3.12 -1.13,5.68 -2.83,7.38 -1.7,1.71 -4.54,2.56 -7.95,2.56 -4.82,0 -9.07,-1.71 -12.47,-5.4 -3.69,-3.69 -5.96,-8.81 -7.38,-15.34 l -7.09,-37.2 -10.77,0 12.76,65.61 10.77,0 -1.69,-9.66 c 2.83,3.69 5.95,6.53 9.35,8.52 3.41,1.99 7.09,2.84 10.78,2.84 5.67,0 9.64,-1.42 12.76,-4.26 3.12,-2.84 4.54,-6.82 4.54,-11.93 0,-1.14 0,-2.84 -0.28,-4.54 -0.29,-1.99 -0.57,-3.7 -0.85,-5.97" /><path
         id="path220"
         style="fill:#010101;fill-opacity:1;fill-rule:evenodd;stroke:none"
         d="m 1598.37,2021.51 61.83,0 0,-10.22 -61.83,0 0,10.22 z m 0,23.86 61.83,0 0,-9.94 -61.83,0 0,9.94" /><path
         id="path222"
         style="fill:#010101;fill-opacity:1;fill-rule:evenodd;stroke:none"
         d="m 1758.89,2000.78 40.27,0 0,-9.94 -53.03,0 0,9.94 c 7.37,7.67 13.61,14.49 19,20.45 5.67,5.96 9.35,9.94 11.34,12.49 3.97,4.83 6.52,8.52 7.94,11.65 1.42,2.84 1.98,5.96 1.98,9.09 0,4.83 -1.41,8.8 -4.25,11.36 -2.84,2.84 -6.8,4.25 -11.91,4.25 -3.4,0 -7.09,-0.56 -11.06,-1.98 -3.97,-1.14 -8.22,-3.13 -12.48,-5.68 l 0,11.93 c 3.97,1.98 7.94,3.4 11.92,4.26 3.96,0.85 7.65,1.42 11.62,1.42 8.51,0 15.32,-2.28 20.42,-6.82 5.39,-4.54 7.94,-10.51 7.94,-17.89 0,-3.69 -0.85,-7.67 -2.55,-11.36 -1.7,-3.69 -4.54,-7.95 -8.51,-12.5 -2.27,-2.56 -5.39,-5.96 -9.64,-10.5 -3.97,-4.55 -10.5,-11.08 -19,-20.17" /><path
         id="path224"
         style="fill:#010101;fill-opacity:1;fill-rule:evenodd;stroke:none"
         d="m 1822.7,2094.21 6.52,0 -5.67,-29.53 18.43,14.77 8.23,0 -17.58,-14.2 12.47,-23.86 -7.09,0 -10.49,19.88 -5.67,-4.54 -2.84,-15.34 -6.52,0 10.21,52.82" /></g></g></svg>