<?xml version="1.0" encoding="UTF-8" standalone="no"?>
<svg
   xmlns:dc="http://purl.org/dc/elements/1.1/"
   xmlns:cc="http://creativecommons.org/ns#"
   xmlns:rdf="http://www.w3.org/1999/02/22-rdf-syntax-ns#"
   xmlns:svg="http://www.w3.org/2000/svg"
   xmlns="http://www.w3.org/2000/svg"
   viewBox="0 0 371.25 355"
   height="355"
   width="371.25"
   xml:space="preserve"
   version="1.1"
   id="svg2"><metadata
     id="metadata8"><rdf:RDF><cc:Work
         rdf:about=""><dc:format>image/svg+xml</dc:format><dc:type
           rdf:resource="http://purl.org/dc/dcmitype/StillImage" /></cc:Work></rdf:RDF></metadata><defs
     id="defs6" /><g
     transform="matrix(1.25,0,0,-1.25,0,355)"
     id="g10"><g
       transform="scale(0.1,0.1)"
       id="g12"><path
         id="path14"
         style="fill:#ffffff;fill-opacity:1;fill-rule:evenodd;stroke:none"
         d="m 1432.77,2835.51 c 242.62,0 428.05,-52.06 428.05,-120.24 0,-68.18 -185.43,-120.23 -428.05,-120.23 -242.62,0 -427.77,52.05 -427.77,120.23 0,68.18 185.15,120.24 427.77,120.24 z m -427.77,0 0,0 z m 856.1,-241.03 0,0" /><g
         transform="scale(1.00035,0.999647)"
         id="g16"><path
           id="path18"
           style="fill:none;stroke:#010101;stroke-width:7.07361984;stroke-linecap:butt;stroke-linejoin:round;stroke-miterlimit:10;stroke-dasharray:none;stroke-opacity:1"
           d="m 1432.26,2836.79 c 242.25,0 427.62,-52.07 427.62,-120.27 0,-68.21 -185.37,-120.28 -427.62,-120.28 -242.53,0 -427.61,52.07 -427.61,120.28 0,68.2 185.08,120.27 427.61,120.27 z" /></g><g
         transform="scale(1.00035,0.999647)"
         id="g20"><path
           id="path22"
           style="fill:none;stroke:#010101;stroke-width:7.07361984;stroke-linecap:butt;stroke-linejoin:round;stroke-miterlimit:10;stroke-dasharray:none;stroke-opacity:1"
           d="m 1004.65,2836.79 0,0 z" /></g><g
         transform="scale(1.00035,0.999647)"
         id="g24"><path
           id="path26"
           style="fill:none;stroke:#010101;stroke-width:7.07361984;stroke-linecap:butt;stroke-linejoin:round;stroke-miterlimit:10;stroke-dasharray:none;stroke-opacity:1"
           d="m 1860.16,2595.67 0,0 z" /></g><path
         id="path28"
         style="fill:#010101;fill-opacity:1;fill-rule:evenodd;stroke:none"
         d="m 1237.71,2664.07 0,7.64 -46.14,0 45.58,70.44 0,4.81 -56.91,0 0,-7.35 23.5,0 c 1.42,0 2.83,0.28 4.25,0.28 l 16.14,0 -45.58,-71.01 0,-4.81 59.16,0" /><path
         id="path30"
         style="fill:#010101;fill-opacity:1;fill-rule:evenodd;stroke:none"
         d="m 1318.11,2664.07 -30.29,83.17 -10.47,0 -30.3,-83.17 9.06,0 8.78,24.33 33.69,0 8.78,-24.33 10.75,0 z m -22.08,31.12 -28.59,0 14.15,43.28 14.44,-43.28" /><path
         id="path32"
         style="fill:#010101;fill-opacity:1;fill-rule:evenodd;stroke:none"
         d="m 1386.91,2669.45 -0.57,8.48 c -3.39,-2.54 -6.79,-4.81 -10.76,-6.22 -3.68,-1.13 -7.92,-1.13 -11.89,-1.13 -7.64,0 -14.72,4.24 -19.53,10.18 -5.38,7.07 -7.93,16.13 -7.93,24.9 0,9.05 2.55,18.1 7.93,24.89 4.81,6.22 11.89,10.47 19.53,10.47 3.4,0 7.08,-0.29 10.48,-1.41 3.68,-1.14 6.79,-3.12 9.9,-5.1 l 1.7,9.9 c -3.68,1.42 -7.07,2.55 -10.75,3.11 -3.97,0.86 -7.65,0.86 -11.33,0.86 -10.47,0 -19.81,-4.81 -26.61,-12.45 -7.36,-8.21 -11.04,-19.24 -11.04,-30.27 0,-11.04 3.68,-21.79 11.04,-30.27 6.8,-7.64 16.14,-12.45 26.61,-12.45 3.97,0 8.21,0 12.18,1.13 3.96,1.13 7.64,3.39 11.04,5.38 z m -8.78,98.73 -7.08,0 -11.6,-11.6 -11.9,11.6 -6.79,0 15.01,-16.13 7.07,0 15.29,16.13" /><path
         id="path34"
         style="fill:#010101;fill-opacity:1;fill-rule:evenodd;stroke:none"
         d="m 1458.53,2664.07 0,8.2 -15.85,0 c -1.42,0 -2.83,-0.28 -4.25,-0.28 l -23.78,0 0,31.69 39.07,0 0,7.07 -39.07,0 0,28.57 16.42,0 c 1.41,0 2.83,0 4.25,0 l 21.51,0 0,7.64 -52.37,0 0,-82.89 54.07,0" /><path
         id="path36"
         style="fill:#010101;fill-opacity:1;fill-rule:evenodd;stroke:none"
         d="m 1538.93,2739.04 0,7.64 -71.34,0 0,-7.64 15.86,0 c 1.41,0 2.82,0 4.24,0 l 10.47,0 0,-74.69 10.2,0 0,74.69 10.75,0 c 1.42,0 2.84,0 4.25,0 l 15.57,0" /><path
         id="path38"
         style="fill:#010101;fill-opacity:1;fill-rule:evenodd;stroke:none"
         d="m 1608.29,2664.07 0,8.2 -15.85,0 c -1.42,0 -2.83,-0.28 -4.25,-0.28 l -23.78,0 0,31.69 39.07,0 0,7.07 -39.07,0 0,28.57 16.42,0 c 1.42,0 2.83,0 4.25,0 l 21.51,0 0,7.64 -52.37,0 0,-82.89 54.07,0" /><path
         id="path40"
         style="fill:#010101;fill-opacity:1;fill-rule:evenodd;stroke:none"
         d="m 1688.69,2664.07 -32.84,50.07 31.43,32.82 -11.33,0 -41.9,-44.13 0,44.13 -9.91,0 0,-82.89 9.91,0 0,27.16 15.58,16.12 28.02,-43.28 11.04,0" /><path
         id="path42"
         style="fill:#ffffff;fill-opacity:1;fill-rule:evenodd;stroke:none"
         d="m 1002.74,2370.42 969.9,0 -109.28,-230.56 -969.329,0 108.709,230.56 z m -108.709,0 0,0 z m 1078.609,-230.56 0,0" /><g
         transform="scale(1.00035,0.999647)"
         id="g44"><path
           id="path46"
           style="fill:none;stroke:#010101;stroke-width:7.07361984;stroke-linecap:butt;stroke-linejoin:round;stroke-miterlimit:10;stroke-dasharray:none;stroke-opacity:1"
           d="m 1002.39,2371.26 969.27,0 -109.24,-230.65 -968.99,0 108.96,230.65 z" /></g><g
         transform="scale(1.00035,0.999647)"
         id="g48"><path
           id="path50"
           style="fill:none;stroke:#010101;stroke-width:7.07361984;stroke-linecap:butt;stroke-linejoin:round;stroke-miterlimit:10;stroke-dasharray:none;stroke-opacity:1"
           d="m 893.43,2371.26 0,0 z" /></g><g
         transform="scale(1.00035,0.999647)"
         id="g52"><path
           id="path54"
           style="fill:none;stroke:#010101;stroke-width:7.07361984;stroke-linecap:butt;stroke-linejoin:round;stroke-miterlimit:10;stroke-dasharray:none;stroke-opacity:1"
           d="m 1971.66,2140.61 0,0 z" /></g><path
         id="path56"
         style="fill:#010101;fill-opacity:1;fill-rule:evenodd;stroke:none"
         d="m 1207.99,2288.09 -9.06,0 -15,-39.88 c -4.82,-12.73 -10.76,-28.58 -11.89,-34.23 l -0.29,0 c -1.13,5.09 -4.81,14.99 -7.64,22.63 l -19.25,51.48 -10.76,0 31.7,-83.17 10.76,0 31.43,83.17" /><path
         id="path58"
         style="fill:#010101;fill-opacity:1;fill-rule:evenodd;stroke:none"
         d="m 1281.59,2204.92 0,82.89 -10.47,0 0,-36.21 -39.92,0 0,36.21 -10.19,0 0,-82.89 10.19,0 0,39.61 39.92,0 0,-39.61 10.47,0" /><path
         id="path60"
         style="fill:#010101;fill-opacity:1;fill-rule:evenodd;stroke:none"
         d="m 1372.75,2246.23 c 0,25.18 -17.27,44.13 -36.52,44.13 -20.1,0 -36.8,-19.24 -36.8,-44.13 0,-25.18 17.27,-43.85 36.52,-43.85 19.82,0 36.8,18.67 36.8,43.85 z m -10.19,1.69 c 0,-23.48 -13.02,-37.9 -26.33,-37.9 -13.87,0 -26.61,14.71 -26.61,37.9 0,22.07 13.02,35.08 26.33,35.08 13.87,0 26.61,-13.57 26.61,-35.08" /><path
         id="path62"
         style="fill:#010101;fill-opacity:1;fill-rule:evenodd;stroke:none"
         d="m 1457.12,2245.66 c 0,23.2 -16.14,42.15 -36.24,42.15 l -30.58,0 0,-82.89 30.58,0 c 20.1,0 36.24,18.11 36.24,40.74 z m -10.19,0 c 0,-21.78 -13.31,-33.95 -28.88,-33.95 l -17.84,0 0,69.31 17.84,0 c 16.13,0 28.88,-13.57 28.88,-35.36" /><path
         id="path64"
         style="fill:#010101;fill-opacity:1;fill-rule:evenodd;stroke:none"
         d="m 1484.01,2248.49 0,9.62 -9.62,0 0,-9.62 9.62,0 z m 0,-43.57 0,9.62 -9.62,0 0,-9.62 9.62,0" /><path
         id="path66"
         style="fill:#010101;fill-opacity:1;fill-rule:evenodd;stroke:none"
         d="m 1597.25,2208.32 c 0,3.68 -3.11,3.68 -4.81,3.68 -5.1,0 -6.23,0.56 -7.36,0.84 l 0,26.03 c 0,8.49 -6.51,18.67 -23.78,18.67 -5.1,0 -17.27,0 -17.27,-8.77 0,-3.68 2.54,-5.66 5.38,-5.66 1.98,0 5.09,1.14 5.38,5.66 0,0.85 0,1.13 2.54,1.42 1.7,0 3.12,0 4.25,0 9.06,0 15.29,-3.68 15.29,-12.45 -21.24,0 -35.96,-5.94 -35.96,-17.54 0,-8.2 7.65,-16.13 19.82,-16.13 4.53,0 11.89,0.85 17.55,4.53 2.55,-3.96 8.21,-3.96 12.74,-3.96 3.4,0 6.23,0 6.23,3.68 z m -20.38,12.45 c 0,-2.83 0,-5.38 -4.53,-7.36 -4.53,-1.98 -9.91,-1.98 -10.76,-1.98 -7.36,0 -12.45,3.96 -12.45,8.77 0,5.94 10.47,10.47 27.74,10.47 l 0,-9.9" /><path
         id="path68"
         style="fill:#010101;fill-opacity:1;fill-rule:evenodd;stroke:none"
         d="m 1619.33,2204.92 0,9.62 -9.62,0 0,-9.62 3.11,0 -3.11,-14.99 4.81,0 4.81,14.99" /><path
         id="path70"
         style="fill:#010101;fill-opacity:1;fill-rule:evenodd;stroke:none"
         d="m 1728.61,2230.67 c 0,14.71 -10.48,26.59 -23.22,26.59 -5.66,0 -11.03,-2.26 -15.28,-5.94 l 0,21.78 c 0,3.68 -0.57,4.81 -4.82,4.81 l -8.77,0 c -1.7,0 -4.81,0 -4.81,-3.68 0,-3.68 3.11,-3.68 4.81,-3.68 l 5.38,0 0,-60.82 c 0,-2.26 0,-4.81 4.24,-4.81 3.97,0 3.97,2.27 3.97,5.38 5.09,-5.09 10.19,-6.23 13.87,-6.23 13.02,0 24.63,11.32 24.63,26.6 z m -8.21,0 c 0,-11.32 -8.21,-19.24 -16.7,-19.24 -9.34,0 -13.59,10.47 -13.59,16.41 l 0,8.77 c 0,7.07 7.07,13.29 14.44,13.29 9.06,0 15.85,-8.77 15.85,-19.23" /><path
         id="path72"
         style="fill:#ffffff;fill-opacity:1;fill-rule:evenodd;stroke:none"
         d="m 1433.05,1323.13 431.73,-222.93 -431.73,-222.927 -431.44,222.927 431.44,222.93 0,0 z m -431.44,0 0,0 z m 863.17,-445.857 0,0" /><g
         transform="scale(1.00035,0.999647)"
         id="g74"><path
           id="path76"
           style="fill:none;stroke:#010101;stroke-width:7.07361984;stroke-linecap:butt;stroke-linejoin:round;stroke-miterlimit:10;stroke-dasharray:none;stroke-opacity:1"
           d="m 1432.54,1323.87 431.3,-223 -431.3,-223.286 -431.28,223.286 431.28,223 0,0 z" /></g><g
         transform="scale(1.00035,0.999647)"
         id="g78"><path
           id="path80"
           style="fill:none;stroke:#010101;stroke-width:7.07361984;stroke-linecap:butt;stroke-linejoin:round;stroke-miterlimit:10;stroke-dasharray:none;stroke-opacity:1"
           d="m 1001.26,1323.87 0,0 z" /></g><g
         transform="scale(1.00035,0.999647)"
         id="g82"><path
           id="path84"
           style="fill:none;stroke:#010101;stroke-width:7.07361984;stroke-linecap:butt;stroke-linejoin:round;stroke-miterlimit:10;stroke-dasharray:none;stroke-opacity:1"
           d="m 1863.84,877.584 0,0 z" /></g><path
         id="path86"
         style="fill:#010101;fill-opacity:1;fill-rule:evenodd;stroke:none"
         d="m 1328.59,1061.72 c 0,3.68 -3.12,3.68 -4.81,3.68 l -12.46,0 0,39.33 c 0,3.67 -0.85,4.81 -4.81,4.81 l -16.99,0 c -1.98,0 -5.09,0 -5.09,-3.68 0,-3.68 3.11,-3.68 5.09,-3.68 l 13.59,0 0,-36.78 -14.72,0 c -1.7,0 -4.82,0 -4.82,-3.68 0,-3.67 3.12,-3.67 4.82,-3.67 l 35.39,0 c 1.69,0 4.81,0 4.81,3.67 z m -16.99,62.81 c 0,3.39 -2.55,5.94 -5.94,5.94 -3.4,0 -5.95,-2.55 -5.95,-5.94 0,-3.4 2.55,-5.94 5.95,-5.94 3.39,0 5.94,2.54 5.94,5.94" /><path
         id="path88"
         style="fill:#010101;fill-opacity:1;fill-rule:evenodd;stroke:none"
         d="m 1457.4,1069.08 c 0,2.26 -1.7,3.11 -2.83,3.96 l -34.54,21.78 34.54,21.5 c 1.13,0.85 2.83,1.98 2.83,4.25 0,2.54 -2.27,3.96 -4.25,3.96 -1.13,0 -1.41,0 -3.11,-1.14 l -39.35,-24.6 c -1.14,-0.86 -2.55,-1.7 -2.55,-3.97 0,-1.69 0.85,-2.82 1.98,-3.68 l 39.92,-25.17 c 1.7,-1.13 1.98,-1.13 3.11,-1.13 1.98,0 4.25,1.41 4.25,4.24" /><path
         id="path90"
         style="fill:#010101;fill-opacity:1;fill-rule:evenodd;stroke:none"
         d="m 1586.49,1083.79 c 0,14.71 -10.47,26.59 -23.21,26.59 -5.66,0 -11.04,-2.26 -15.29,-5.94 l 0,21.79 c 0,3.67 -0.56,4.81 -4.81,4.81 l -8.78,0 c -1.7,0 -4.81,0 -4.81,-3.68 0,-3.68 3.11,-3.68 4.81,-3.68 l 5.38,0 0,-60.82 c 0,-2.27 0,-4.81 4.25,-4.81 3.96,0 3.96,2.26 3.96,5.37 5.1,-5.09 10.19,-6.22 13.87,-6.22 13.03,0 24.63,11.31 24.63,26.59 z m -8.21,0 c 0,-11.32 -8.21,-19.24 -16.7,-19.24 -9.34,0 -13.59,10.47 -13.59,16.41 l 0,8.77 c 0,7.07 7.08,13.3 14.44,13.3 9.06,0 15.85,-8.77 15.85,-19.24" /><path
         id="path92"
         style="fill:#ffffff;fill-opacity:1;fill-rule:evenodd;stroke:none"
         d="m 1887.99,787.027 1077.48,0 -121.45,-267.058 -1077.19,0 121.16,267.058 z m -121.16,0 0,0 z m 1198.64,-267.058 0,0" /><g
         transform="scale(1.00035,0.999647)"
         id="g94"><path
           id="path96"
           style="fill:none;stroke:#010101;stroke-width:7.07361984;stroke-linecap:butt;stroke-linejoin:round;stroke-miterlimit:10;stroke-dasharray:none;stroke-opacity:1"
           d="m 1887.04,787.306 1077.39,0 -121.41,-267.153 -1077.1,0 121.12,267.153 z" /></g><g
         transform="scale(1.00035,0.999647)"
         id="g98"><path
           id="path100"
           style="fill:none;stroke:#010101;stroke-width:7.07361984;stroke-linecap:butt;stroke-linejoin:round;stroke-miterlimit:10;stroke-dasharray:none;stroke-opacity:1"
           d="m 1765.92,787.306 0,0 z" /></g><g
         transform="scale(1.00035,0.999647)"
         id="g102"><path
           id="path104"
           style="fill:none;stroke:#010101;stroke-width:7.07361984;stroke-linecap:butt;stroke-linejoin:round;stroke-miterlimit:10;stroke-dasharray:none;stroke-opacity:1"
           d="m 2964.43,520.153 0,0 z" /></g><path
         id="path106"
         style="fill:#010101;fill-opacity:1;fill-rule:evenodd;stroke:none"
         d="m 1939.8,603.145 10.1914,0 0,82.8867 -10.1914,0 0,-82.8867 z" /><path
         id="path108"
         style="fill:#010101;fill-opacity:1;fill-rule:evenodd;stroke:none"
         d="m 2027,603.145 0,7.636 -46.15,0 45.58,70.442 0,4.808 -56.9,0 0,-7.355 23.49,0 c 1.42,0 2.84,0.285 4.25,0.285 l 16.14,0 -45.58,-71.008 0,-4.808 59.17,0" /><path
         id="path110"
         style="fill:#010101;fill-opacity:1;fill-rule:evenodd;stroke:none"
         d="m 2104.57,603.145 0,82.886 -10.48,0 0,-36.211 -39.92,0 0,36.211 -10.19,0 0,-82.886 10.19,0 0,39.605 39.92,0 0,-39.605 10.48,0" /><path
         id="path112"
         style="fill:#010101;fill-opacity:1;fill-rule:evenodd;stroke:none"
         d="m 2195.72,644.445 c 0,25.18 -17.27,44.133 -36.52,44.133 -20.09,0 -36.8,-19.238 -36.8,-44.133 0,-25.175 17.27,-43.847 36.52,-43.847 19.82,0 36.8,18.672 36.8,43.847 z m -10.19,1.7 c 0,-23.481 -13.02,-37.911 -26.33,-37.911 -13.87,0 -26.61,14.711 -26.61,37.911 0,22.066 13.02,35.078 26.33,35.078 13.87,0 26.61,-13.578 26.61,-35.078" /><path
         id="path114"
         style="fill:#010101;fill-opacity:1;fill-rule:evenodd;stroke:none"
         d="m 2280.09,643.879 c 0,23.199 -16.14,42.152 -36.24,42.152 l -30.57,0 0,-82.886 30.57,0 c 20.1,0 36.24,18.105 36.24,40.734 z m -10.2,0 c 0,-21.781 -13.3,-33.945 -28.87,-33.945 l -17.84,0 0,69.308 17.84,0 c 16.14,0 28.87,-13.578 28.87,-35.363" /><path
         id="path116"
         style="fill:#010101;fill-opacity:1;fill-rule:evenodd;stroke:none"
         d="m 2307.27,646.711 0,9.617 -9.63,0 0,-9.617 9.63,0 z m 0,-43.566 0,9.617 -9.63,0 0,-9.617 9.63,0" /><path
         id="path118"
         style="fill:#010101;fill-opacity:1;fill-rule:evenodd;stroke:none"
         d="m 2415.13,607.953 0,7.07 c 0,2.266 0,4.813 -3.97,4.813 -4.24,0 -4.24,-2.547 -4.24,-4.813 l 0,-4.523 -32.28,0 37.37,35.359 c 2.55,2.266 2.55,2.547 2.55,4.813 0,3.961 -2.55,3.961 -4.81,3.961 l -40.77,0 c -3.96,0 -4.81,-0.852 -4.81,-4.813 l 0,-5.656 c 0,-2.262 0,-4.809 3.96,-4.809 4.25,0 4.25,2.547 4.25,4.809 l 0,3.113 29.73,0 -37.38,-35.363 c -2.54,-2.266 -2.54,-2.547 -2.54,-4.809 0,-3.96 2.54,-3.96 4.81,-3.96 l 45.58,0 c 2.55,0.847 2.55,3.109 2.55,4.808" /><path
         id="path120"
         style="fill:#010101;fill-opacity:1;fill-rule:evenodd;stroke:none"
         d="m 2483.35,606.82 c 0,3.68 -2.55,3.68 -6.79,3.68 l 0,28.855 c 0,2.547 0,16.125 -10.47,16.125 -3.69,0 -8.78,-1.699 -11.89,-6.226 -1.99,3.961 -5.38,6.226 -9.35,6.226 -3.68,0 -7.36,-1.699 -10.19,-4.527 -0.28,3.68 -2.55,3.68 -4.81,3.68 l -3.68,0 c -1.98,0 -5.1,0 -5.1,-3.68 0,-3.676 2.55,-3.676 6.8,-3.676 l 0,-36.777 c -4.25,0 -6.8,0 -6.8,-3.68 0,-3.675 3.4,-3.675 5.1,-3.675 l 10.47,0 c 1.7,0 4.81,0 4.81,3.675 0,3.68 -2.54,3.68 -6.79,3.68 l 0,21.215 c 0,10.75 4.81,16.41 9.91,16.41 2.83,0 4.25,-1.98 4.25,-9.902 l 0,-27.723 c -2.27,0 -5.1,0 -5.1,-3.68 0,-3.675 3.11,-3.675 4.81,-3.675 l 9.06,0 c 1.7,0 4.81,0 4.81,3.675 0,3.68 -2.54,3.68 -6.79,3.68 l 0,21.215 c 0,10.75 4.81,16.41 9.91,16.41 2.83,0 4.25,-1.98 4.25,-9.902 l 0,-27.723 c -2.27,0 -5.1,0 -5.1,-3.68 0,-3.675 3.11,-3.675 4.81,-3.675 l 9.06,0 c 1.7,0 4.81,0 4.81,3.675" /><path
         id="path122"
         style="fill:#010101;fill-opacity:1;fill-rule:evenodd;stroke:none"
         d="m 2546.77,606.82 c 0,3.68 -3.12,3.68 -5.1,3.68 l -5.09,0 0,27.723 c 0,12.164 -6.23,17.257 -15.58,17.257 -8.2,0 -13.58,-4.246 -15.85,-6.507 0,3.961 0,5.66 -4.81,5.66 l -8.78,0 c -1.7,0 -4.81,0 -4.81,-3.68 0,-3.676 3.11,-3.676 4.81,-3.676 l 5.38,0 0,-36.777 -5.38,0 c -1.7,0 -4.81,0 -4.81,-3.68 0,-3.675 3.11,-3.675 4.81,-3.675 l 18.97,0 c 1.7,0 4.81,0 4.81,3.675 0,3.68 -2.83,3.68 -4.81,3.68 l -5.38,0 0,21.215 c 0,11.883 9.06,16.41 15.01,16.41 6.51,0 7.92,-3.395 7.92,-10.469 l 0,-27.156 -4.53,0 c -1.98,0 -4.81,0 -4.81,-3.68 0,-3.675 3.12,-3.675 4.81,-3.675 l 18.41,0 c 1.69,0 4.81,0 4.81,3.675" /><path
         id="path124"
         style="fill:#010101;fill-opacity:1;fill-rule:evenodd;stroke:none"
         d="m 2604.8,628.887 c 0,14.992 -11.32,26.875 -24.63,26.875 -13.58,0 -24.63,-11.883 -24.63,-26.875 0,-15.278 11.33,-26.594 24.63,-26.594 13.03,0 24.63,11.602 24.63,26.594 z m -8.49,0.847 c 0,-11.031 -7.36,-20.086 -16.14,-20.086 -8.77,0 -16.42,9.055 -16.42,20.086 0,10.75 7.93,18.672 16.42,18.672 8.5,0 16.14,-7.922 16.14,-18.672" /><path
         id="path126"
         style="fill:#010101;fill-opacity:1;fill-rule:evenodd;stroke:none"
         d="m 2669.07,607.953 0,7.07 c 0,2.266 0,4.813 -3.96,4.813 -4.25,0 -4.25,-2.547 -4.25,-4.813 l 0,-4.523 -32.28,0 37.37,35.359 c 2.55,2.266 2.55,2.547 2.55,4.813 0,3.961 -2.55,3.961 -4.81,3.961 l -40.77,0 c -3.96,0 -4.81,-0.852 -4.81,-4.813 l 0,-5.656 c 0,-2.262 0,-4.809 3.96,-4.809 4.25,0 4.25,2.547 4.25,4.809 l 0,3.113 29.72,0 -37.36,-35.363 c -2.55,-2.266 -2.55,-2.547 -2.55,-4.809 0,-3.96 2.55,-3.96 4.81,-3.96 l 45.58,0 c 2.55,0.847 2.55,3.109 2.55,4.808" /><path
         id="path128"
         style="fill:#010101;fill-opacity:1;fill-rule:evenodd;stroke:none"
         d="m 2731.35,615.875 c 0,3.395 -3.4,3.395 -4.25,3.395 -1.98,0 -3.11,-0.286 -3.68,-2.547 -2.83,-5.942 -9.34,-7.075 -12.46,-7.075 -9.05,0 -18.11,5.942 -20.09,16.125 l 35.67,0 c 2.55,0 4.81,0 4.81,4.528 0,13.578 -7.64,25.461 -23.21,25.461 -14.16,0 -25.77,-12.164 -25.77,-26.875 0,-14.426 12.18,-26.594 27.75,-26.594 15.57,0 21.23,10.75 21.23,13.582 z m -8.49,16.973 -31.71,0 c 1.7,9.054 8.78,15.558 16.99,15.558 6.22,0 13.58,-3.109 14.72,-15.558" /><path
         id="path130"
         style="fill:#010101;fill-opacity:1;fill-rule:evenodd;stroke:none"
         d="m 2800.14,606.82 c 0,3.68 -3.11,3.68 -4.81,3.68 l -3.96,0 -17.84,23.195 14.72,13.582 4.25,0 c 1.98,0 5.09,0 5.09,3.676 0,3.68 -3.11,3.68 -5.09,3.68 l -18.4,0 c -1.98,0 -4.81,0 -4.81,-3.68 0,-3.676 3.11,-3.676 4.81,-3.676 l 4.53,0 -19.54,-18.109 0,42.152 c 0,3.68 -0.56,4.813 -4.81,4.813 l -7.64,0 c -1.98,0 -4.82,0 -4.82,-3.68 0,-3.676 2.84,-3.676 4.82,-3.676 l 5.94,0 0,-58.277 -5.94,0 c -1.98,0 -4.82,0 -4.82,-3.68 0,-3.675 2.84,-3.675 4.82,-3.675 l 18.4,0 c 1.7,0 4.81,0 4.81,3.675 0,3.68 -2.83,3.68 -4.81,3.68 l -5.95,0 0,9.617 9.63,8.77 14.16,-18.387 c -4.25,0 -6.52,0 -6.52,-3.68 0,-3.675 2.83,-3.675 4.82,-3.675 l 14.15,0 c 1.7,0 4.81,0 4.81,3.675" /><path
         id="path132"
         style="fill:#ffffff;fill-opacity:1;fill-rule:evenodd;stroke:none"
         d="m 2365.87,244.992 c 242.33,0 427.76,-52.054 427.76,-120.234 0,-68.176 -185.43,-120.23066 -427.76,-120.23066 -242.62,0 -427.77,52.05466 -427.77,120.23066 0,68.18 185.15,120.234 427.77,120.234 z m -427.77,0 0,0 z m 855.81,-241.03106 0,0" /><g
         transform="scale(1.00035,0.999647)"
         id="g134"><path
           id="path136"
           style="fill:none;stroke:#010101;stroke-width:7.07361984;stroke-linecap:butt;stroke-linejoin:round;stroke-miterlimit:10;stroke-dasharray:none;stroke-opacity:1"
           d="m 2364.75,245.36 c 242.53,0 427.9,-52.069 427.9,-120.273 0,-68.2036 -185.37,-120.27671 -427.9,-120.27671 -242.53,0 -427.61,52.07311 -427.61,120.27671 0,68.204 185.08,120.273 427.61,120.273 z" /></g><g
         transform="scale(1.00035,0.999647)"
         id="g138"><path
           id="path140"
           style="fill:none;stroke:#010101;stroke-width:7.07361984;stroke-linecap:butt;stroke-linejoin:round;stroke-miterlimit:10;stroke-dasharray:none;stroke-opacity:1"
           d="m 1937.14,245.36 0,0 z" /></g><g
         transform="scale(1.00035,0.999647)"
         id="g142"><path
           id="path144"
           style="fill:none;stroke:#010101;stroke-width:7.07361984;stroke-linecap:butt;stroke-linejoin:round;stroke-miterlimit:10;stroke-dasharray:none;stroke-opacity:1"
           d="m 2792.93,4.24369 0,0 z" /></g><path
         id="path146"
         style="fill:#010101;fill-opacity:1;fill-rule:evenodd;stroke:none"
         d="m 2244.42,73.5547 -32.84,50.0743 31.42,32.816 -11.32,0 -41.9,-44.132 0,44.132 -9.91,0 0,-82.8903 9.91,0 0,27.1563 15.57,16.129 28.03,-43.2853 11.04,0" /><path
         id="path148"
         style="fill:#010101;fill-opacity:1;fill-rule:evenodd;stroke:none"
         d="m 2329.06,114.859 c 0,25.176 -17.27,44.129 -36.52,44.129 -20.09,0 -36.8,-19.234 -36.8,-44.129 0,-25.1793 17.27,-43.8512 36.52,-43.8512 19.82,0 36.8,18.6719 36.8,43.8512 z m -10.19,1.696 c 0,-23.4808 -13.02,-37.9105 -26.33,-37.9105 -13.87,0 -26.61,14.711 -26.61,37.9105 0,22.066 13.03,35.078 26.33,35.078 13.87,0 26.61,-13.578 26.61,-35.078" /><path
         id="path150"
         style="fill:#010101;fill-opacity:1;fill-rule:evenodd;stroke:none"
         d="m 2406.35,73.5547 0,82.8903 -9.06,0 0,-74.1208 -0.28,0 -9.63,20.0858 -26.33,54.035 -14.72,0 0,-82.8903 9.06,0 0,74.1213 9.91,-20.086 26.33,-54.0353 14.72,0" /><path
         id="path152"
         style="fill:#010101;fill-opacity:1;fill-rule:evenodd;stroke:none"
         d="m 2483.07,73.5547 0,8.2031 -15.86,0 c -1.41,0 -2.82,-0.2812 -4.24,-0.2812 l -23.78,0 0,31.6834 39.07,0 0,7.074 -39.07,0 0,28.571 16.42,0 c 1.41,0 2.83,0 4.25,0 l 21.51,0 0,7.64 -52.37,0 0,-82.8903 54.07,0" /><path
         id="path154"
         style="fill:#010101;fill-opacity:1;fill-rule:evenodd;stroke:none"
         d="m 2556.39,78.9297 -0.56,8.4883 c -3.4,-2.5469 -6.8,-4.8125 -10.76,-6.2266 -3.68,-1.1289 -7.93,-1.1289 -11.89,-1.1289 -7.64,0 -14.72,4.2422 -19.54,10.1836 -5.37,7.0703 -7.92,16.1249 -7.92,24.8949 0,9.05 2.55,18.105 7.92,24.894 4.82,6.223 11.9,10.469 19.54,10.469 3.39,0 7.08,-0.285 10.47,-1.414 3.68,-1.133 6.8,-3.113 9.91,-5.094 l 1.7,9.902 c -3.68,1.415 -7.08,2.547 -10.76,3.11 -3.96,0.851 -7.64,0.851 -11.32,0.851 -10.48,0 -19.82,-4.808 -26.61,-12.449 -7.36,-8.203 -11.04,-19.238 -11.04,-30.269 0,-11.036 3.68,-21.7855 11.04,-30.2699 6.79,-7.6406 16.13,-12.4492 26.61,-12.4492 3.96,0 8.21,0 12.17,1.1328 3.97,1.1328 7.65,3.3945 11.04,5.375" /><g
         transform="scale(1.00035,0.999647)"
         id="g156"><path
           id="path158"
           style="fill:none;stroke:#010101;stroke-width:7.3579998;stroke-linecap:butt;stroke-linejoin:round;stroke-miterlimit:10;stroke-dasharray:none;stroke-opacity:1"
           d="m 1432.83,2595.39 -0.29,-152.25" /></g><path
         id="path160"
         style="fill:#010101;fill-opacity:1;fill-rule:evenodd;stroke:none"
         d="m 1433.05,2370.42 25.2,75.25 -50.39,0 25.19,-75.25" /><g
         transform="scale(1.00035,0.999647)"
         id="g162"><path
           id="path164"
           style="fill:none;stroke:#010101;stroke-width:7.3579998;stroke-linecap:butt;stroke-linejoin:round;stroke-miterlimit:10;stroke-dasharray:none;stroke-opacity:1"
           d="m 1863.84,1100.59 501.47,0 0,-241.404" /></g><path
         id="path166"
         style="fill:#010101;fill-opacity:1;fill-rule:evenodd;stroke:none"
         d="m 2366.15,786.746 25.2,75.535 -50.4,0 25.2,-75.535" /><g
         transform="scale(1.00035,0.999647)"
         id="g168"><path
           id="path170"
           style="fill:none;stroke:#010101;stroke-width:7.3579998;stroke-linecap:butt;stroke-linejoin:round;stroke-miterlimit:10;stroke-dasharray:none;stroke-opacity:1"
           d="m 1001.26,1100.59 -530.348,0 0,-151.974" /></g><path
         id="path172"
         style="fill:#010101;fill-opacity:1;fill-rule:evenodd;stroke:none"
         d="m 471.078,876.141 25.195,75.535 -50.39,0 25.195,-75.535" /><g
         transform="scale(1.00035,0.999647)"
         id="g174"><path
           id="path176"
           style="fill:none;stroke:#010101;stroke-width:7.3579998;stroke-linecap:butt;stroke-linejoin:round;stroke-miterlimit:10;stroke-dasharray:none;stroke-opacity:1"
           d="m 470.912,495.534 0,-252.436 961.628,0 0,562.605" /></g><path
         id="path178"
         style="fill:#010101;fill-opacity:1;fill-rule:evenodd;stroke:none"
         d="m 1433.05,877.555 -25.19,-75.532 50.39,0 -25.2,75.532" /><g
         transform="scale(1.00035,0.999647)"
         id="g180"><path
           id="path182"
           style="fill:none;stroke:#010101;stroke-width:7.3579998;stroke-linecap:butt;stroke-linejoin:round;stroke-miterlimit:10;stroke-dasharray:none;stroke-opacity:1"
           d="M 2365.31,520.153 2365.6,316.96" /></g><path
         id="path184"
         style="fill:#010101;fill-opacity:1;fill-rule:evenodd;stroke:none"
         d="m 2366.43,244.707 25.2,75.535 -50.39,0 25.19,-75.535" /><path
         id="path186"
         style="fill:#010101;fill-opacity:1;fill-rule:evenodd;stroke:none"
         d="m 888.367,1169.79 c 0,23.2 -16.137,42.16 -36.234,42.16 l -30.578,0 0,-82.9 30.578,0 c 20.097,0 36.234,18.11 36.234,40.74 z m -10.191,0 c 0,-21.78 -13.305,-33.95 -28.875,-33.95 l -17.836,0 0,69.31 17.836,0 c 16.137,0 28.875,-13.58 28.875,-35.36" /><path
         id="path188"
         style="fill:#010101;fill-opacity:1;fill-rule:evenodd;stroke:none"
         d="m 965.09,1129.05 -30.293,83.18 -10.477,0 -30.289,-83.18 9.059,0 8.773,24.33 33.692,0 8.777,-24.33 10.758,0 z m -22.082,31.12 -28.594,0 14.152,43.29 14.442,-43.29" /><path
         id="path190"
         style="fill:#010101;fill-opacity:1;fill-rule:evenodd;stroke:none"
         d="m 1988.21,1129.05 0,82.9 -9.06,0 0,-74.13 -0.28,0 -9.63,20.09 -26.33,54.04 -14.71,0 0,-82.9 9.05,0 0,74.13 9.91,-20.09 26.33,-54.04 14.72,0" /><path
         id="path192"
         style="fill:#010101;fill-opacity:1;fill-rule:evenodd;stroke:none"
         d="m 2064.65,1129.05 0,8.21 -15.85,0 c -1.42,0 -2.84,-0.28 -4.25,-0.28 l -23.78,0 0,31.68 39.07,0 0,7.07 -39.07,0 0,28.57 16.42,0 c 1.41,0 2.83,0 4.24,0 l 21.52,0 0,7.65 -52.37,0 0,-82.9 54.07,0" /><path
         id="path194"
         style="fill:#ffffff;fill-opacity:1;fill-rule:evenodd;stroke:none"
         d="m 1433.05,1552.55 -405.11,0 0,362.97 810.23,0 0,-362.97 -405.12,0" /><g
         transform="scale(1.00035,0.999647)"
         id="g196"><path
           id="path198"
           style="fill:none;stroke:#010101;stroke-width:7.07361984;stroke-linecap:butt;stroke-linejoin:round;stroke-miterlimit:10;stroke-dasharray:none;stroke-opacity:1"
           d="m 1432.54,1553.39 -404.97,0 0,362.8 809.67,0 0,-362.8 -404.7,0 z" /></g><path
         id="path200"
         style="fill:#010101;fill-opacity:1;fill-rule:evenodd;stroke:none"
         d="m 1140.61,1776.89 0,7.08 c 0,2.26 0,4.81 -3.96,4.81 -4.25,0 -4.25,-2.55 -4.25,-4.81 l 0,-4.53 -32.27,0 37.37,35.36 c 2.54,2.27 2.54,2.55 2.54,4.81 0,3.96 -2.54,3.96 -4.81,3.96 l -40.77,0 c -3.96,0 -4.81,-0.84 -4.81,-4.8 l 0,-5.66 c 0,-2.27 0,-4.81 3.97,-4.81 4.24,0 4.24,2.54 4.24,4.81 l 0,3.11 29.73,0 -37.37,-35.36 c -2.55,-2.27 -2.55,-2.55 -2.55,-4.81 0,-3.96 2.55,-3.96 4.81,-3.96 l 45.58,0 c 2.55,0.84 2.55,3.11 2.55,4.8" /><path
         id="path202"
         style="fill:#010101;fill-opacity:1;fill-rule:evenodd;stroke:none"
         d="m 1208.84,1775.76 c 0,3.68 -2.55,3.68 -6.8,3.68 l 0,28.86 c 0,2.54 0,16.12 -10.47,16.12 -3.68,0 -8.78,-1.69 -11.89,-6.22 -1.98,3.96 -5.38,6.22 -9.34,6.22 -3.68,0 -7.36,-1.69 -10.2,-4.53 -0.28,3.68 -2.54,3.68 -4.81,3.68 l -3.68,0 c -1.98,0 -5.1,0 -5.1,-3.68 0,-3.67 2.55,-3.67 6.8,-3.67 l 0,-36.78 c -4.25,0 -6.8,0 -6.8,-3.68 0,-3.67 3.4,-3.67 5.1,-3.67 l 10.48,0 c 1.69,0 4.81,0 4.81,3.67 0,3.68 -2.55,3.68 -6.8,3.68 l 0,21.22 c 0,10.75 4.82,16.41 9.91,16.41 2.83,0 4.25,-1.98 4.25,-9.91 l 0,-27.72 c -2.26,0 -5.1,0 -5.1,-3.68 0,-3.67 3.12,-3.67 4.82,-3.67 l 9.05,0 c 1.7,0 4.82,0 4.82,3.67 0,3.68 -2.55,3.68 -6.8,3.68 l 0,21.22 c 0,10.75 4.82,16.41 9.91,16.41 2.83,0 4.25,-1.98 4.25,-9.91 l 0,-27.72 c -2.27,0 -5.1,0 -5.1,-3.68 0,-3.67 3.12,-3.67 4.81,-3.67 l 9.06,0 c 1.7,0 4.82,0 4.82,3.67" /><path
         id="path204"
         style="fill:#010101;fill-opacity:1;fill-rule:evenodd;stroke:none"
         d="m 1272.25,1775.76 c 0,3.68 -3.11,3.68 -5.09,3.68 l -5.1,0 0,27.72 c 0,12.17 -6.23,17.26 -15.57,17.26 -8.21,0 -13.59,-4.24 -15.85,-6.51 0,3.97 0,5.66 -4.82,5.66 l -8.77,0 c -1.7,0 -4.82,0 -4.82,-3.68 0,-3.67 3.12,-3.67 4.82,-3.67 l 5.38,0 0,-36.78 -5.38,0 c -1.7,0 -4.82,0 -4.82,-3.68 0,-3.67 3.12,-3.67 4.82,-3.67 l 18.97,0 c 1.69,0 4.81,0 4.81,3.67 0,3.68 -2.83,3.68 -4.81,3.68 l -5.38,0 0,21.22 c 0,11.88 9.06,16.41 15,16.41 6.51,0 7.93,-3.4 7.93,-10.47 l 0,-27.16 -4.53,0 c -1.99,0 -4.82,0 -4.82,-3.68 0,-3.67 3.12,-3.67 4.82,-3.67 l 18.4,0 c 1.7,0 4.81,0 4.81,3.67" /><path
         id="path206"
         style="fill:#010101;fill-opacity:1;fill-rule:evenodd;stroke:none"
         d="m 1330.29,1797.83 c 0,14.99 -11.33,26.88 -24.63,26.88 -13.59,0 -24.63,-11.89 -24.63,-26.88 0,-15.28 11.32,-26.59 24.63,-26.59 13.02,0 24.63,11.6 24.63,26.59 z m -8.5,0.85 c 0,-11.04 -7.36,-20.09 -16.13,-20.09 -8.78,0 -16.42,9.05 -16.42,20.09 0,10.75 7.92,18.67 16.42,18.67 8.49,0 16.13,-7.92 16.13,-18.67" /><path
         id="path208"
         style="fill:#010101;fill-opacity:1;fill-rule:evenodd;stroke:none"
         d="m 1394.55,1776.89 0,7.08 c 0,2.26 0,4.81 -3.96,4.81 -4.25,0 -4.25,-2.55 -4.25,-4.81 l 0,-4.53 -32.27,0 37.37,35.36 c 2.54,2.27 2.54,2.55 2.54,4.81 0,3.96 -2.54,3.96 -4.81,3.96 l -40.76,0 c -3.97,0 -4.82,-0.84 -4.82,-4.8 l 0,-5.66 c 0,-2.27 0,-4.81 3.96,-4.81 4.25,0 4.25,2.54 4.25,4.81 l 0,3.11 29.73,0 -37.37,-35.36 c -2.55,-2.27 -2.55,-2.55 -2.55,-4.81 0,-3.96 2.55,-3.96 4.81,-3.96 l 45.58,0 c 2.55,0.84 2.55,3.11 2.55,4.8" /><path
         id="path210"
         style="fill:#010101;fill-opacity:1;fill-rule:evenodd;stroke:none"
         d="m 1456.83,1784.82 c 0,3.39 -3.4,3.39 -4.24,3.39 -1.98,0 -3.12,-0.28 -3.68,-2.55 -2.84,-5.94 -9.35,-7.07 -12.46,-7.07 -9.06,0 -18.12,5.95 -20.1,16.13 l 35.67,0 c 2.55,0 4.81,0 4.81,4.53 0,13.57 -7.64,25.46 -23.21,25.46 -14.16,0 -25.76,-12.17 -25.76,-26.88 0,-14.43 12.17,-26.59 27.74,-26.59 15.57,0 21.23,10.75 21.23,13.58 z m -8.49,16.97 -31.71,0 c 1.7,9.05 8.78,15.56 16.99,15.56 6.23,0 13.59,-3.11 14.72,-15.56" /><path
         id="path212"
         style="fill:#010101;fill-opacity:1;fill-rule:evenodd;stroke:none"
         d="m 1525.63,1775.76 c 0,3.68 -3.12,3.68 -4.82,3.68 l -3.96,0 -17.83,23.2 14.71,13.58 4.25,0 c 1.98,0 5.1,0 5.1,3.67 0,3.68 -3.12,3.68 -5.1,3.68 l -18.4,0 c -1.98,0 -4.81,0 -4.81,-3.68 0,-3.67 3.11,-3.67 4.81,-3.67 l 4.53,0 -19.53,-18.11 0,42.16 c 0,3.67 -0.57,4.8 -4.81,4.8 l -7.65,0 c -1.98,0 -4.81,0 -4.81,-3.68 0,-3.67 2.83,-3.67 4.81,-3.67 l 5.95,0 0,-58.28 -5.95,0 c -1.98,0 -4.81,0 -4.81,-3.68 0,-3.67 2.83,-3.67 4.81,-3.67 l 18.4,0 c 1.7,0 4.82,0 4.82,3.67 0,3.68 -2.84,3.68 -4.82,3.68 l -5.94,0 0,9.62 9.62,8.77 14.16,-18.39 c -4.25,0 -6.52,0 -6.52,-3.68 0,-3.67 2.84,-3.67 4.82,-3.67 l 14.15,0 c 1.7,0 4.82,0 4.82,3.67" /><path
         id="path214"
         style="fill:#010101;fill-opacity:1;fill-rule:evenodd;stroke:none"
         d="m 1650.19,1817.63 c 0,4.25 -4.53,4.25 -6.23,4.25 l -41.33,0 c -1.7,0 -6.23,0 -6.23,-4.25 0,-4.24 3.96,-4.24 5.38,-4.24 l 43.03,0 c 1.42,0 5.38,0 5.38,4.24 z m 0,-18.1 c 0,4.24 -3.96,4.24 -5.38,4.24 l -43.03,0 c -1.42,0 -5.38,0 -5.38,-4.24 0,-4.24 4.53,-4.24 6.23,-4.24 l 41.33,0 c 1.7,0 6.23,0 6.23,4.24" /><path
         id="path216"
         style="fill:#010101;fill-opacity:1;fill-rule:evenodd;stroke:none"
         d="m 1775.89,1808.58 c 0,22.06 -12.46,37.91 -25.48,37.91 -13.59,0 -25.48,-16.13 -25.48,-37.91 0,-22.35 12.17,-37.91 25.48,-37.91 13.3,0 25.48,16.13 25.48,37.91 z m -8.5,1.13 c 0,-17.54 -7.64,-31.68 -16.98,-31.68 -9.34,0 -17.27,14.14 -17.27,31.68 0,17.54 8.49,29.42 17.27,29.42 8.77,0 16.98,-11.59 16.98,-29.42" /><path
         id="path218"
         style="fill:#010101;fill-opacity:1;fill-rule:evenodd;stroke:none"
         d="m 1328.59,1615.36 c 0,3.68 -3.12,3.68 -4.81,3.68 l -12.46,0 0,39.32 c 0,3.68 -0.85,4.81 -4.81,4.81 l -16.99,0 c -1.98,0 -5.09,0 -5.09,-3.68 0,-3.68 3.11,-3.68 5.09,-3.68 l 13.59,0 0,-36.77 -14.72,0 c -1.7,0 -4.82,0 -4.82,-3.68 0,-3.68 3.12,-3.68 4.82,-3.68 l 35.39,0 c 1.69,0 4.81,0 4.81,3.68 z m -16.99,62.8 c 0,3.4 -2.55,5.95 -5.94,5.95 -3.4,0 -5.95,-2.55 -5.95,-5.95 0,-3.39 2.55,-5.94 5.95,-5.94 3.39,0 5.94,2.55 5.94,5.94" /><path
         id="path220"
         style="fill:#010101;fill-opacity:1;fill-rule:evenodd;stroke:none"
         d="m 1459.66,1657.23 c 0,4.24 -4.53,4.24 -6.23,4.24 l -41.33,0 c -1.69,0 -6.22,0 -6.22,-4.24 0,-4.25 3.96,-4.25 5.37,-4.25 l 43.04,0 c 1.41,0 5.37,0 5.37,4.25 z m 0,-18.11 c 0,4.25 -3.96,4.25 -5.37,4.25 l -43.04,0 c -1.41,0 -5.37,0 -5.37,-4.25 0,-4.24 4.53,-4.24 6.22,-4.24 l 41.33,0 c 1.7,0 6.23,0 6.23,4.24" /><path
         id="path222"
         style="fill:#010101;fill-opacity:1;fill-rule:evenodd;stroke:none"
         d="m 1585.08,1648.18 c 0,22.06 -12.46,37.91 -25.48,37.91 -13.59,0 -25.48,-16.13 -25.48,-37.91 0,-22.35 12.17,-37.91 25.48,-37.91 13.3,0 25.48,16.12 25.48,37.91 z m -8.49,1.13 c 0,-17.54 -7.65,-31.69 -16.99,-31.69 -9.35,0 -17.27,14.15 -17.27,31.69 0,17.54 8.49,29.42 17.27,29.42 8.78,0 16.99,-11.6 16.99,-29.42" /><path
         id="path224"
         style="fill:#ffffff;fill-opacity:1;fill-rule:evenodd;stroke:none"
         d="m 471.078,495.359 -467.39831,0 0,380.782 934.51531,0 0,-380.782 -467.117,0" /><g
         transform="scale(1.00035,0.999647)"
         id="g226"><path
           id="path228"
           style="fill:none;stroke:#010101;stroke-width:7.07361984;stroke-linecap:butt;stroke-linejoin:round;stroke-miterlimit:10;stroke-dasharray:none;stroke-opacity:1"
           d="m 470.631,495.534 -466.95261,0 0,380.916 934.18561,0 0,-380.916 -467.233,0 z" /></g><path
         id="path230"
         style="fill:#010101;fill-opacity:1;fill-rule:evenodd;stroke:none"
         d="m 146.93,728.75 0,7.074 c 0,2.262 0,4.809 -3.965,4.809 -4.246,0 -4.246,-2.547 -4.246,-4.809 l 0,-4.527 -32.274,0 37.371,35.363 c 2.547,2.262 2.547,2.547 2.547,4.809 0,3.961 -2.547,3.961 -4.812,3.961 l -40.766,0 c -3.9647,0 -4.8123,-0.848 -4.8123,-4.809 l 0,-5.66 c 0,-2.262 0,-4.809 3.9609,-4.809 4.2464,0 4.2464,2.547 4.2464,4.809 l 0,3.113 29.726,0 -37.3708,-35.363 c -2.5469,-2.262 -2.5469,-2.547 -2.5469,-4.809 0,-3.961 2.5469,-3.961 4.8125,-3.961 l 45.5822,0 c 2.547,0.848 2.547,3.114 2.547,4.809" /><path
         id="path232"
         style="fill:#010101;fill-opacity:1;fill-rule:evenodd;stroke:none"
         d="m 215.156,727.617 c 0,3.68 -2.547,3.68 -6.793,3.68 l 0,28.855 c 0,2.547 0,16.125 -10.476,16.125 -3.68,0 -8.778,-1.695 -11.891,-6.222 -1.98,3.961 -5.379,6.222 -9.34,6.222 -3.683,0 -7.363,-1.695 -10.195,-4.527 -0.281,3.68 -2.547,3.68 -4.813,3.68 l -3.679,0 c -1.981,0 -5.094,0 -5.094,-3.68 0,-3.676 2.547,-3.676 6.793,-3.676 l 0,-36.777 c -4.246,0 -6.793,0 -6.793,-3.68 0,-3.676 3.395,-3.676 5.094,-3.676 l 10.476,0 c 1.7,0 4.813,0 4.813,3.676 0,3.68 -2.547,3.68 -6.797,3.68 l 0,21.219 c 0,10.75 4.816,16.406 9.91,16.406 2.832,0 4.246,-1.981 4.246,-9.902 l 0,-27.723 c -2.265,0 -5.094,0 -5.094,-3.68 0,-3.676 3.114,-3.676 4.813,-3.676 l 9.059,0 c 1.699,0 4.812,0 4.812,3.676 0,3.68 -2.547,3.68 -6.793,3.68 l 0,21.219 c 0,10.75 4.813,16.406 9.906,16.406 2.832,0 4.246,-1.981 4.246,-9.902 l 0,-27.723 c -2.265,0 -5.093,0 -5.093,-3.68 0,-3.676 3.113,-3.676 4.812,-3.676 l 9.059,0 c 1.699,0 4.812,0 4.812,3.676" /><path
         id="path234"
         style="fill:#010101;fill-opacity:1;fill-rule:evenodd;stroke:none"
         d="m 278.57,727.617 c 0,3.68 -3.113,3.68 -5.097,3.68 l -5.094,0 0,27.723 c 0,12.164 -6.227,17.257 -15.57,17.257 -8.211,0 -13.59,-4.242 -15.856,-6.507 0,3.96 0,5.66 -4.812,5.66 l -8.774,0 c -1.699,0 -4.812,0 -4.812,-3.68 0,-3.676 3.113,-3.676 4.812,-3.676 l 5.379,0 0,-36.777 -5.379,0 c -1.699,0 -4.812,0 -4.812,-3.68 0,-3.676 3.113,-3.676 4.812,-3.676 l 18.965,0 c 1.699,0 4.813,0 4.813,3.676 0,3.68 -2.829,3.68 -4.813,3.68 l -5.379,0 0,21.219 c 0,11.879 9.063,16.406 15.004,16.406 6.512,0 7.93,-3.395 7.93,-10.469 l 0,-27.156 -4.532,0 c -1.98,0 -4.812,0 -4.812,-3.68 0,-3.676 3.113,-3.676 4.812,-3.676 l 18.403,0 c 1.699,0 4.812,0 4.812,3.676" /><path
         id="path236"
         style="fill:#010101;fill-opacity:1;fill-rule:evenodd;stroke:none"
         d="m 336.605,749.684 c 0,14.996 -11.324,26.879 -24.628,26.879 -13.59,0 -24.629,-11.883 -24.629,-26.879 0,-15.274 11.324,-26.59 24.629,-26.59 13.023,0 24.628,11.597 24.628,26.59 z m -8.492,0.851 c 0,-11.035 -7.359,-20.086 -16.136,-20.086 -8.778,0 -16.422,9.051 -16.422,20.086 0,10.75 7.929,18.672 16.422,18.672 8.492,0 16.136,-7.922 16.136,-18.672" /><path
         id="path238"
         style="fill:#010101;fill-opacity:1;fill-rule:evenodd;stroke:none"
         d="m 400.871,728.75 0,7.074 c 0,2.262 0,4.809 -3.965,4.809 -4.246,0 -4.246,-2.547 -4.246,-4.809 l 0,-4.527 -32.273,0 37.367,35.363 c 2.551,2.262 2.551,2.547 2.551,4.809 0,3.961 -2.551,3.961 -4.813,3.961 l -40.769,0 c -3.961,0 -4.813,-0.848 -4.813,-4.809 l 0,-5.66 c 0,-2.262 0,-4.809 3.965,-4.809 4.246,0 4.246,2.547 4.246,4.809 l 0,3.113 29.727,0 -37.371,-35.363 c -2.547,-2.262 -2.547,-2.547 -2.547,-4.809 0,-3.961 2.547,-3.961 4.812,-3.961 l 45.578,0 c 2.551,0.848 2.551,3.114 2.551,4.809" /><path
         id="path240"
         style="fill:#010101;fill-opacity:1;fill-rule:evenodd;stroke:none"
         d="m 463.152,736.672 c 0,3.394 -3.398,3.394 -4.246,3.394 -1.984,0 -3.117,-0.281 -3.679,-2.546 -2.832,-5.942 -9.344,-7.071 -12.457,-7.071 -9.059,0 -18.122,5.942 -20.102,16.125 l 35.672,0 c 2.547,0 4.812,0 4.812,4.524 0,13.582 -7.644,25.465 -23.214,25.465 -14.157,0 -25.762,-12.168 -25.762,-26.879 0,-14.426 12.172,-26.59 27.742,-26.59 15.57,0 21.234,10.75 21.234,13.578 z m -8.492,16.973 -31.707,0 c 1.695,9.054 8.774,15.562 16.985,15.562 6.226,0 13.589,-3.113 14.722,-15.562" /><path
         id="path242"
         style="fill:#010101;fill-opacity:1;fill-rule:evenodd;stroke:none"
         d="m 531.945,727.617 c 0,3.68 -3.113,3.68 -4.812,3.68 l -3.965,0 -17.836,23.199 14.723,13.578 4.246,0 c 1.98,0 5.097,0 5.097,3.676 0,3.68 -3.117,3.68 -5.097,3.68 l -18.403,0 c -1.98,0 -4.812,0 -4.812,-3.68 0,-3.676 3.113,-3.676 4.812,-3.676 l 4.532,0 -19.535,-18.105 0,42.152 c 0,3.676 -0.567,4.809 -4.813,4.809 l -7.644,0 c -1.981,0 -4.813,0 -4.813,-3.68 0,-3.676 2.832,-3.676 4.813,-3.676 l 5.945,0 0,-58.277 -5.945,0 c -1.981,0 -4.813,0 -4.813,-3.68 0,-3.676 2.832,-3.676 4.813,-3.676 l 18.402,0 c 1.699,0 4.812,0 4.812,3.676 0,3.68 -2.832,3.68 -4.812,3.68 l -5.945,0 0,9.617 9.625,8.77 14.156,-18.387 c -4.246,0 -6.512,0 -6.512,-3.68 0,-3.676 2.832,-3.676 4.813,-3.676 l 14.156,0 c 1.699,0 4.812,0 4.812,3.676" /><path
         id="path244"
         style="fill:#010101;fill-opacity:1;fill-rule:evenodd;stroke:none"
         d="m 656.508,760.434 c 0,4.246 -4.246,4.246 -5.66,4.246 l -16.989,0 0,16.972 c 0,1.414 0,5.661 -4.246,5.661 -4.246,0 -4.246,-4.247 -4.246,-5.661 l 0,-16.972 -16.984,0 c -1.418,0 -5.664,0 -5.664,-4.246 0,-4.243 4.246,-4.243 5.664,-4.243 l 16.984,0 0,-16.972 c 0,-1.414 0,-5.66 4.246,-5.66 4.246,0 4.246,4.246 4.246,5.66 l 0,16.972 16.989,0 c 1.414,0 5.66,0 5.66,4.243" /><path
         id="path246"
         style="fill:#010101;fill-opacity:1;fill-rule:evenodd;stroke:none"
         d="m 719.922,769.488 c 0,4.242 -4.527,4.242 -6.227,4.242 l -41.332,0 c -1.699,0 -6.23,0 -6.23,-4.242 0,-4.242 3.965,-4.242 5.379,-4.242 l 43.031,0 c 1.418,0 5.379,0 5.379,4.242 z m 0,-18.105 c 0,4.242 -3.961,4.242 -5.379,4.242 l -43.031,0 c -1.414,0 -5.379,0 -5.379,-4.242 0,-4.242 4.531,-4.242 6.23,-4.242 l 41.332,0 c 1.7,0 6.227,0 6.227,4.242" /><path
         id="path248"
         style="fill:#010101;fill-opacity:1;fill-rule:evenodd;stroke:none"
         d="m 851,727.336 c 0,3.68 -3.117,3.68 -4.812,3.68 -5.098,0 -6.231,0.562 -7.364,0.847 l 0,26.028 c 0,8.484 -6.511,18.672 -23.781,18.672 -5.094,0 -17.266,0 -17.266,-8.774 0,-3.676 2.547,-5.656 5.379,-5.656 1.981,0 5.094,1.133 5.379,5.656 0,0.852 0,1.133 2.547,1.418 1.699,0 3.113,0 4.246,0 9.059,0 15.289,-3.68 15.289,-12.449 -21.234,0 -35.957,-5.942 -35.957,-17.539 0,-8.203 7.645,-16.125 19.82,-16.125 4.528,0 11.887,0.847 17.551,4.523 2.547,-3.957 8.211,-3.957 12.739,-3.957 3.398,0 6.23,0 6.23,3.676 z m -20.383,12.449 c 0,-2.832 0,-5.375 -4.531,-7.355 -4.531,-1.981 -9.91,-1.981 -10.758,-1.981 -7.359,0 -12.457,3.961 -12.457,8.77 0,5.941 10.477,10.465 27.746,10.465 l 0,-9.899" /><path
         id="path250"
         style="fill:#010101;fill-opacity:1;fill-rule:evenodd;stroke:none"
         d="m 334.906,567.215 c 0,3.676 -3.113,3.676 -4.812,3.676 l -12.457,0 0,39.324 c 0,3.68 -0.848,4.808 -4.813,4.808 l -16.984,0 c -1.981,0 -5.098,0 -5.098,-3.675 0,-3.68 3.117,-3.68 5.098,-3.68 l 13.59,0 0,-36.777 -14.723,0 c -1.699,0 -4.812,0 -4.812,-3.676 0,-3.68 3.113,-3.68 4.812,-3.68 l 35.387,0 c 1.699,0 4.812,0 4.812,3.68 z m -16.984,62.805 c 0,3.394 -2.547,5.941 -5.945,5.941 -3.399,0 -5.946,-2.547 -5.946,-5.941 0,-3.395 2.547,-5.942 5.946,-5.942 3.398,0 5.945,2.547 5.945,5.942" /><path
         id="path252"
         style="fill:#010101;fill-opacity:1;fill-rule:evenodd;stroke:none"
         d="m 465.984,600.031 c 0,4.242 -4.25,4.242 -5.664,4.242 l -16.984,0 0,16.977 c 0,1.414 0,5.656 -4.246,5.656 -4.25,0 -4.25,-4.242 -4.25,-5.656 l 0,-16.977 -16.985,0 c -1.414,0 -5.66,0 -5.66,-4.242 0,-4.242 4.246,-4.242 5.66,-4.242 l 16.985,0 0,-16.976 c 0,-1.415 0,-5.657 4.25,-5.657 4.246,0 4.246,4.242 4.246,5.657 l 0,16.976 16.984,0 c 1.414,0 5.664,0 5.664,4.242" /><path
         id="path254"
         style="fill:#010101;fill-opacity:1;fill-rule:evenodd;stroke:none"
         d="m 529.398,609.082 c 0,4.246 -4.531,4.246 -6.23,4.246 l -41.332,0 c -1.699,0 -6.227,0 -6.227,-4.246 0,-4.242 3.961,-4.242 5.379,-4.242 l 43.032,0 c 1.414,0 5.378,0 5.378,4.242 z m 0,-18.105 c 0,4.246 -3.964,4.246 -5.378,4.246 l -43.032,0 c -1.418,0 -5.379,0 -5.379,-4.246 0,-4.243 4.528,-4.243 6.227,-4.243 l 41.332,0 c 1.699,0 6.23,0 6.23,4.243" /><path
         id="path256"
         style="fill:#010101;fill-opacity:1;fill-rule:evenodd;stroke:none"
         d="m 651.129,567.215 c 0,3.676 -2.828,3.676 -4.813,3.676 l -10.757,0 0,62.238 c 0,1.699 0,4.812 -3.68,4.812 -2.266,0 -3.113,-1.418 -3.68,-2.832 -4.531,-10.183 -10.758,-11.597 -13.023,-11.879 -1.981,0 -4.528,-0.285 -4.528,-3.679 0,-2.828 2.262,-3.395 3.961,-3.395 2.266,0 7.364,0.567 12.457,5.094 l 0,-50.359 -10.757,0 c -1.981,0 -4.813,0 -4.813,-3.676 0,-3.68 3.113,-3.68 4.813,-3.68 l 30.007,0 c 1.7,0 4.813,0 4.813,3.68" /><g
         transform="scale(1.00035,0.999647)"
         id="g258"><path
           id="path260"
           style="fill:none;stroke:#010101;stroke-width:7.3579998;stroke-linecap:butt;stroke-linejoin:round;stroke-miterlimit:10;stroke-dasharray:none;stroke-opacity:1"
           d="m 1432.54,2140.9 0,-152.83" /></g><path
         id="path262"
         style="fill:#010101;fill-opacity:1;fill-rule:evenodd;stroke:none"
         d="m 1433.05,1915.23 25.2,75.54 -50.39,0 25.19,-75.54" /><g
         transform="scale(1.00035,0.999647)"
         id="g264"><path
           id="path266"
           style="fill:none;stroke:#010101;stroke-width:7.3579998;stroke-linecap:butt;stroke-linejoin:round;stroke-miterlimit:10;stroke-dasharray:none;stroke-opacity:1"
           d="m 1432.54,1552.82 0,-157.07" /></g><path
         id="path268"
         style="fill:#010101;fill-opacity:1;fill-rule:evenodd;stroke:none"
         d="m 1433.05,1323.13 25.2,75.53 -50.39,0 25.19,-75.53" /></g></g></svg>