<?xml version="1.0" encoding="UTF-8" standalone="no"?>
<svg
   xmlns:dc="http://purl.org/dc/elements/1.1/"
   xmlns:cc="http://creativecommons.org/ns#"
   xmlns:rdf="http://www.w3.org/1999/02/22-rdf-syntax-ns#"
   xmlns:svg="http://www.w3.org/2000/svg"
   xmlns="http://www.w3.org/2000/svg"
   viewBox="0 0 487.5 291.25"
   height="291.25"
   width="487.5"
   xml:space="preserve"
   version="1.1"
   id="svg2"><metadata
     id="metadata8"><rdf:RDF><cc:Work
         rdf:about=""><dc:format>image/svg+xml</dc:format><dc:type
           rdf:resource="http://purl.org/dc/dcmitype/StillImage" /></cc:Work></rdf:RDF></metadata><defs
     id="defs6" /><g
     transform="matrix(1.25,0,0,-1.25,0,291.25)"
     id="g10"><g
       transform="scale(0.1,0.1)"
       id="g12"><path
         id="path14"
         style="fill:#ffffff;fill-opacity:1;fill-rule:evenodd;stroke:none"
         d="m 2447.96,2325.61 c 242.34,0 427.77,-52.13 427.77,-120.4 0,-68.28 -185.43,-120.41 -427.77,-120.41 -242.61,0 -427.76,52.13 -427.76,120.41 0,68.27 185.15,120.4 427.76,120.4 z m -427.76,0 0,0 z m 855.81,-241.37 0,0" /><g
         transform="scale(0.999647,1.00035)"
         id="g16"><path
           id="path18"
           style="fill:none;stroke:#010101;stroke-width:7.07861996;stroke-linecap:butt;stroke-linejoin:round;stroke-miterlimit:10;stroke-dasharray:none;stroke-opacity:1"
           d="m 2448.55,2325.07 c 242.7,0 428.2,-52.11 428.2,-120.36 0,-68.25 -185.5,-120.36 -428.2,-120.36 -242.7,0 -427.92,52.11 -427.92,120.36 0,68.25 185.22,120.36 427.92,120.36 z" /></g><g
         transform="scale(0.999647,1.00035)"
         id="g20"><path
           id="path22"
           style="fill:none;stroke:#010101;stroke-width:7.07861996;stroke-linecap:butt;stroke-linejoin:round;stroke-miterlimit:10;stroke-dasharray:none;stroke-opacity:1"
           d="m 2020.63,2325.07 0,0 z" /></g><g
         transform="scale(0.999647,1.00035)"
         id="g24"><path
           id="path26"
           style="fill:none;stroke:#010101;stroke-width:7.07861996;stroke-linecap:butt;stroke-linejoin:round;stroke-miterlimit:10;stroke-dasharray:none;stroke-opacity:1"
           d="m 2877.03,2083.79 0,0 z" /></g><path
         id="path28"
         style="fill:#010101;fill-opacity:1;fill-rule:evenodd;stroke:none"
         d="m 2252.91,2153.93 0,7.65 -46.14,0 45.57,70.54 0,4.82 -56.9,0 0,-7.37 23.5,0 c 1.42,0 2.83,0.29 4.24,0.29 l 16.14,0 -45.58,-71.11 0,-4.82 59.17,0" /><path
         id="path30"
         style="fill:#010101;fill-opacity:1;fill-rule:evenodd;stroke:none"
         d="m 2333.31,2153.93 -30.29,83.29 -10.48,0 -30.29,-83.29 9.06,0 8.78,24.36 33.69,0 8.77,-24.36 10.76,0 z m -22.08,31.16 -28.59,0 14.15,43.35 14.44,-43.35" /><path
         id="path32"
         style="fill:#010101;fill-opacity:1;fill-rule:evenodd;stroke:none"
         d="m 2402.11,2159.31 -0.57,8.5 c -3.4,-2.55 -6.8,-4.81 -10.76,-6.23 -3.68,-1.13 -7.93,-1.13 -11.89,-1.13 -7.64,0 -14.72,4.25 -19.53,10.19 -5.38,7.09 -7.93,16.15 -7.93,24.93 0,9.07 2.55,18.14 7.93,24.93 4.81,6.24 11.89,10.49 19.53,10.49 3.4,0 7.08,-0.29 10.47,-1.42 3.68,-1.13 6.8,-3.12 9.91,-5.1 l 1.7,9.92 c -3.68,1.41 -7.08,2.55 -10.76,3.11 -3.96,0.85 -7.64,0.85 -11.32,0.85 -10.48,0 -19.82,-4.81 -26.61,-12.46 -7.36,-8.22 -11.04,-19.26 -11.04,-30.32 0,-11.04 3.68,-21.81 11.04,-30.31 6.79,-7.65 16.13,-12.46 26.61,-12.46 3.96,0 8.21,0 12.17,1.13 3.97,1.13 7.65,3.4 11.05,5.38 z m -8.78,98.87 -7.08,0 -11.61,-11.61 -11.89,11.61 -6.79,0 15,-16.14 7.08,0 15.29,16.14" /><path
         id="path34"
         style="fill:#010101;fill-opacity:1;fill-rule:evenodd;stroke:none"
         d="m 2473.73,2153.93 0,8.21 -15.85,0 c -1.42,0 -2.84,-0.28 -4.25,-0.28 l -23.78,0 0,31.73 39.06,0 0,7.09 -39.06,0 0,28.61 16.42,0 c 1.41,0 2.83,0 4.25,0 l 21.51,0 0,7.65 -52.37,0 0,-83.01 54.07,0" /><path
         id="path36"
         style="fill:#010101;fill-opacity:1;fill-rule:evenodd;stroke:none"
         d="m 2554.13,2229 0,7.65 -71.34,0 0,-7.65 15.85,0 c 1.41,0 2.83,0 4.25,0 l 10.47,0 0,-74.79 10.19,0 0,74.79 10.76,0 c 1.42,0 2.83,0 4.25,0 l 15.57,0" /><path
         id="path38"
         style="fill:#010101;fill-opacity:1;fill-rule:evenodd;stroke:none"
         d="m 2623.49,2153.93 0,8.21 -15.86,0 c -1.41,0 -2.83,-0.28 -4.24,-0.28 l -23.78,0 0,31.73 39.07,0 0,7.09 -39.07,0 0,28.61 16.42,0 c 1.41,0 2.83,0 4.24,0 l 21.52,0 0,7.65 -52.38,0 0,-83.01 54.08,0" /><path
         id="path40"
         style="fill:#010101;fill-opacity:1;fill-rule:evenodd;stroke:none"
         d="m 2703.89,2153.93 -32.84,50.14 31.42,32.87 -11.32,0 -41.9,-44.2 0,44.2 -9.91,0 0,-83.01 9.91,0 0,27.2 15.57,16.14 28.03,-43.34 11.04,0" /><path
         id="path42"
         style="fill:#ffffff;fill-opacity:1;fill-rule:evenodd;stroke:none"
         d="m 1137.21,1859.86 2749.19,0 -127.11,-230.88 -2749.19,0 127.11,230.88 z m -127.11,0 0,0 z m 2876.3,-230.88 0,0" /><g
         transform="scale(0.999647,1.00035)"
         id="g44"><path
           id="path46"
           style="fill:none;stroke:#010101;stroke-width:7.07861996;stroke-linecap:butt;stroke-linejoin:round;stroke-miterlimit:10;stroke-dasharray:none;stroke-opacity:1"
           d="m 1137.61,1859.21 2749.88,0 -127.16,-230.81 -2749.87,0 127.15,230.81 z" /></g><g
         transform="scale(0.999647,1.00035)"
         id="g48"><path
           id="path50"
           style="fill:none;stroke:#010101;stroke-width:7.07861996;stroke-linecap:butt;stroke-linejoin:round;stroke-miterlimit:10;stroke-dasharray:none;stroke-opacity:1"
           d="m 1010.46,1859.21 0,0 z" /></g><g
         transform="scale(0.999647,1.00035)"
         id="g52"><path
           id="path54"
           style="fill:none;stroke:#010101;stroke-width:7.07861996;stroke-linecap:butt;stroke-linejoin:round;stroke-miterlimit:10;stroke-dasharray:none;stroke-opacity:1"
           d="m 3887.49,1628.4 0,0 z" /></g><path
         id="path56"
         style="fill:#010101;fill-opacity:1;fill-rule:evenodd;stroke:none"
         d="m 1381.81,1777.43 -9.06,0 -15,-39.95 c -4.82,-12.75 -10.76,-28.61 -11.89,-34.28 l -0.29,0 c -1.13,5.1 -4.81,15.01 -7.64,22.66 l -19.25,51.57 -10.76,0 31.71,-83.3 10.76,0 31.42,83.3" /><path
         id="path58"
         style="fill:#010101;fill-opacity:1;fill-rule:evenodd;stroke:none"
         d="m 1455.42,1694.13 0,83.01 -10.48,0 0,-36.26 -39.91,0 0,36.26 -10.2,0 0,-83.01 10.2,0 0,39.67 39.91,0 0,-39.67 10.48,0" /><path
         id="path60"
         style="fill:#010101;fill-opacity:1;fill-rule:evenodd;stroke:none"
         d="m 1546.57,1735.5 c 0,25.21 -17.27,44.19 -36.52,44.19 -20.09,0 -36.8,-19.26 -36.8,-44.19 0,-25.22 17.27,-43.91 36.52,-43.91 19.82,0 36.8,18.69 36.8,43.91 z m -10.19,1.7 c 0,-23.52 -13.02,-37.97 -26.33,-37.97 -13.87,0 -26.6,14.73 -26.6,37.97 0,22.09 13.01,35.12 26.32,35.12 13.87,0 26.61,-13.59 26.61,-35.12" /><path
         id="path62"
         style="fill:#010101;fill-opacity:1;fill-rule:evenodd;stroke:none"
         d="m 1630.94,1734.93 c 0,23.23 -16.14,42.21 -36.24,42.21 l -30.57,0 0,-83.01 30.57,0 c 20.1,0 36.24,18.14 36.24,40.8 z m -10.19,0 c 0,-21.82 -13.31,-34 -28.88,-34 l -17.83,0 0,69.41 17.83,0 c 16.14,0 28.88,-13.6 28.88,-35.41" /><path
         id="path64"
         style="fill:#010101;fill-opacity:1;fill-rule:evenodd;stroke:none"
         d="m 1657.83,1737.76 0,9.63 -9.62,0 0,-9.63 9.62,0 z m 0,-43.63 0,9.64 -9.62,0 0,-9.64 9.62,0" /><path
         id="path66"
         style="fill:#010101;fill-opacity:1;fill-rule:evenodd;stroke:none"
         d="m 1771.07,1697.54 c 0,3.67 -3.11,3.67 -4.81,3.67 -5.1,0 -6.23,0.57 -7.36,0.86 l 0,26.06 c 0,8.5 -6.51,18.7 -23.78,18.7 -5.1,0 -17.27,0 -17.27,-8.78 0,-3.69 2.55,-5.67 5.38,-5.67 1.98,0 5.09,1.13 5.38,5.67 0,0.84 0,1.13 2.55,1.41 1.7,0 3.11,0 4.24,0 9.06,0 15.29,-3.68 15.29,-12.46 -21.23,0 -35.95,-5.95 -35.95,-17.57 0,-8.22 7.64,-16.14 19.81,-16.14 4.53,0 11.9,0.84 17.56,4.53 2.54,-3.97 8.21,-3.97 12.73,-3.97 3.4,0 6.23,0 6.23,3.69 z m -20.38,12.46 c 0,-2.84 0,-5.38 -4.53,-7.37 -4.53,-1.98 -9.91,-1.98 -10.76,-1.98 -7.36,0 -12.45,3.97 -12.45,8.78 0,5.95 10.47,10.48 27.74,10.48 l 0,-9.91" /><path
         id="path68"
         style="fill:#010101;fill-opacity:1;fill-rule:evenodd;stroke:none"
         d="m 1793.16,1694.13 0,9.64 -9.63,0 0,-9.64 3.11,0 -3.11,-15.01 4.81,0 4.82,15.01" /><path
         id="path70"
         style="fill:#010101;fill-opacity:1;fill-rule:evenodd;stroke:none"
         d="m 1902.43,1719.91 c 0,14.73 -10.47,26.63 -23.21,26.63 -5.67,0 -11.04,-2.26 -15.29,-5.95 l 0,21.82 c 0,3.68 -0.57,4.82 -4.81,4.82 l -8.78,0 c -1.7,0 -4.81,0 -4.81,-3.69 0,-3.68 3.11,-3.68 4.81,-3.68 l 5.38,0 0,-60.91 c 0,-2.27 0,-4.82 4.25,-4.82 3.96,0 3.96,2.27 3.96,5.39 5.1,-5.1 10.19,-6.23 13.87,-6.23 13.02,0 24.63,11.33 24.63,26.62 z m -8.21,0 c 0,-11.33 -8.21,-19.26 -16.7,-19.26 -9.34,0 -13.59,10.48 -13.59,16.43 l 0,8.78 c 0,7.09 7.08,13.32 14.44,13.32 9.06,0 15.85,-8.78 15.85,-19.27" /><path
         id="path72"
         style="fill:#010101;fill-opacity:1;fill-rule:evenodd;stroke:none"
         d="m 2010.01,1664.95 c 0,0.57 0,0.57 -1.98,2.84 -11.89,11.9 -18.69,31.73 -18.69,56.37 0,23.23 5.66,43.35 19.54,57.51 1.13,1.14 1.13,1.42 1.13,1.71 0,0.56 -0.56,0.84 -0.85,0.84 -1.7,0 -11.61,-8.5 -17.27,-20.4 -6.23,-12.18 -9.06,-24.93 -9.06,-39.66 0,-10.76 1.7,-24.93 7.93,-37.96 7.08,-14.16 16.99,-22.09 18.4,-22.09 0.29,0 0.85,0.28 0.85,0.84" /><path
         id="path74"
         style="fill:#010101;fill-opacity:1;fill-rule:evenodd;stroke:none"
         d="m 2064.93,1694.13 0,35.13 c 0,11.33 -8.49,19.83 -19.53,19.83 -7.08,0 -12.46,-1.7 -18.4,-5.09 l 0.84,-7.94 c 5.1,3.97 10.76,5.95 17.56,5.95 5.66,0 10.19,-4.25 10.19,-13.31 l 0,-5.1 c -5.38,0 -12.46,0 -19.54,-2.27 -8.21,-2.83 -12.73,-7.37 -12.73,-13.31 0,-5.39 3.11,-15.02 13.3,-15.02 6.51,0 15.01,1.98 19.25,5.67 l 0,-4.54 9.06,0 z m -9.34,16.15 c 0,-2.55 0,-5.38 -3.68,-7.65 -3.4,-1.98 -7.36,-2.55 -9.34,-2.55 -6.23,0 -10.76,3.69 -10.76,7.94 0,8.21 16.7,9.91 23.78,9.91 l 0,-7.65" /><path
         id="path76"
         style="fill:#010101;fill-opacity:1;fill-rule:evenodd;stroke:none"
         d="m 2141.65,1694.13 0,3.41 c -7.92,0 -8.21,0.56 -8.21,5.38 l 0,43.91 -16.42,-1.13 0,-3.69 c 7.64,0 8.78,-0.56 8.78,-6.51 l 0,-32.58 c 0,-5.38 -1.42,-5.38 -9.06,-5.38 l 0,-3.41 c 3.4,0 9.06,0 12.46,0 1.41,0 8.49,0 12.45,0 z m -6.79,72.25 c 0,3.68 -2.83,5.94 -5.66,5.94 -3.4,0 -5.95,-2.55 -5.95,-5.94 0,-3.12 2.83,-5.67 5.95,-5.67 3.39,0 5.66,2.83 5.66,5.67" /><path
         id="path78"
         style="fill:#010101;fill-opacity:1;fill-rule:evenodd;stroke:none"
         d="m 2207.33,1694.13 0,3.41 c -5.94,0 -8.78,0 -9.06,3.67 l 0,22.1 c 0,11.33 0,14.45 -2.55,18.42 -3.68,4.53 -9.34,5.38 -13.3,5.38 -11.61,0 -16.14,-9.91 -17.27,-12.47 l 0,12.47 -16.14,-1.41 0,-3.4 c 7.93,0 9.06,-0.85 9.06,-6.8 l 0,-32.3 c 0,-5.66 -1.41,-5.66 -9.06,-5.66 l 0,-3.41 c 3.12,0.29 9.35,0.29 12.74,0.29 3.4,0 9.91,0 13.02,-0.29 l 0,3.41 c -7.64,0 -9.06,0 -9.06,5.66 l 0,22.1 c 0,12.75 8.22,19.54 15.86,19.54 7.36,0 9.06,-6.23 9.06,-13.59 l 0,-28.05 c 0,-5.66 -1.42,-5.66 -9.06,-5.66 l 0,-3.41 c 3.11,0.29 9.34,0.29 12.74,0.29 3.68,0 9.9,0 13.02,-0.29" /><path
         id="path80"
         style="fill:#010101;fill-opacity:1;fill-rule:evenodd;stroke:none"
         d="m 2307.55,1719.91 c 0,14.73 -10.48,26.63 -23.21,26.63 -5.67,0 -11.05,-2.26 -15.29,-5.95 l 0,21.82 c 0,3.68 -0.57,4.82 -4.82,4.82 l -8.77,0 c -1.7,0 -4.82,0 -4.82,-3.69 0,-3.68 3.12,-3.68 4.82,-3.68 l 5.38,0 0,-60.91 c 0,-2.27 0,-4.82 4.24,-4.82 3.97,0 3.97,2.27 3.97,5.39 5.09,-5.1 10.19,-6.23 13.87,-6.23 13.02,0 24.63,11.33 24.63,26.62 z m -8.21,0 c 0,-11.33 -8.21,-19.26 -16.7,-19.26 -9.35,0 -13.59,10.48 -13.59,16.43 l 0,8.78 c 0,7.09 7.08,13.32 14.43,13.32 9.06,0 15.86,-8.78 15.86,-19.27" /><path
         id="path82"
         style="fill:#010101;fill-opacity:1;fill-rule:evenodd;stroke:none"
         d="m 2394.46,1709.43 c 0,6.52 -3.96,10.2 -5.1,11.34 -4.24,3.68 -7.64,4.53 -15.28,5.94 -3.68,0.57 -12.46,2.27 -12.46,9.64 0,3.68 2.55,9.06 13.31,9.06 13.02,0 13.87,-11.05 13.87,-14.73 0.28,-1.13 1.13,-1.13 1.41,-1.13 1.42,0 1.42,0.85 1.42,2.83 l 0,12.46 c 0,2.27 0,2.84 -1.13,2.84 -1.14,0 -3.4,-2.55 -4.25,-3.68 -3.68,2.83 -7.36,3.68 -11.32,3.68 -14.44,0 -18.69,-7.93 -18.69,-14.45 0,-1.42 0,-5.67 4.53,-9.63 3.96,-3.4 7.93,-4.25 13.31,-5.39 6.79,-1.41 8.21,-1.69 11.32,-3.96 1.98,-1.98 3.68,-4.54 3.68,-7.93 0,-5.11 -3.11,-11.05 -13.59,-11.05 -7.92,0 -13.59,4.81 -16.13,16.71 -0.57,2.27 -0.85,2.27 -0.85,2.27 0,0.57 -0.57,0.57 -0.85,0.57 -1.42,0 -1.42,-0.57 -1.42,-2.84 l 0,-16.15 c 0,-2.26 0,-2.83 1.14,-2.83 0.56,0 0.84,0 2.82,2.55 0.57,0.85 0.57,1.13 2.27,3.12 4.53,-5.67 11.04,-5.67 13.02,-5.67 12.74,0 18.97,7.08 18.97,16.43" /><path
         id="path84"
         style="fill:#010101;fill-opacity:1;fill-rule:evenodd;stroke:none"
         d="m 2438.06,1709.15 0,6.8 -2.55,0 0,-6.52 c 0,-8.78 -3.68,-13.88 -8.21,-13.88 -8.21,0 -8.21,11.33 -8.21,13.32 l 0,33.71 16.98,0 0,3.4 -16.98,0 0,22.09 -2.55,0 c -0.28,-11.33 -4.53,-22.94 -15.29,-22.94 l 0,-2.55 10.2,0 0,-33.43 c 0,-13.32 8.77,-16.15 15,-16.15 7.64,0 11.61,7.37 11.61,16.15" /><path
         id="path86"
         style="fill:#010101;fill-opacity:1;fill-rule:evenodd;stroke:none"
         d="m 2501.47,1704.9 0,6.8 -2.83,0 0,-6.8 c 0,-6.8 -2.83,-7.93 -4.53,-7.93 -4.53,0 -4.53,6.51 -4.53,8.21 l 0,20.97 c 0,6.51 0,11.33 -5.38,16.15 -3.96,3.68 -9.34,5.38 -14.72,5.38 -9.91,0 -17.27,-6.52 -17.27,-14.17 0,-3.68 2.27,-5.38 4.81,-5.38 3.12,0 5.1,1.98 5.1,5.1 0,4.82 -4.24,4.82 -6.23,4.82 2.83,5.09 8.5,7.36 13.31,7.36 5.66,0 12.74,-4.82 12.74,-15.58 l 0,-4.81 c -24.06,0 -33.41,-10.2 -33.41,-19.56 0,-9.34 11.04,-12.46 18.4,-12.46 7.93,0 13.31,4.82 15.57,10.48 0.57,-5.66 4.25,-9.91 9.35,-9.91 2.54,0 9.62,1.7 9.62,11.33 z m -19.53,5.67 c 0,-11.34 -8.78,-15.3 -14.16,-15.3 -5.66,0 -10.76,4.53 -10.76,10.48 0,16.43 20.39,16.43 24.92,16.43 l 0,-11.61" /><path
         id="path88"
         style="fill:#010101;fill-opacity:1;fill-rule:evenodd;stroke:none"
         d="m 2603.67,1720.2 c 0,15.3 -11.32,26.91 -24.35,26.91 -10.47,0 -16.13,-7.36 -16.41,-7.93 l 0,7.93 -16.71,-1.13 0,-3.68 c 8.21,0 9.06,-0.85 9.06,-5.95 l 0,-56.66 c 0,-5.39 -1.42,-5.39 -9.06,-5.39 l 0,-3.4 c 3.12,0.29 9.63,0.29 13.02,0.29 3.4,0 9.91,0 13.03,-0.29 l 0,3.4 c -7.65,0 -9.34,0 -9.34,5.39 l 0,20.96 c 2.26,-2.83 7.07,-7.65 15,-7.65 13.59,0 25.76,11.62 25.76,27.2 z m -9.06,0 c 0,-14.45 -8.21,-24.93 -17.55,-24.93 -3.68,0 -7.08,1.7 -9.34,3.96 -2.83,2.84 -4.81,5.1 -4.81,8.5 l 0,24.93 c 0,2.27 0,2.27 1.41,4.25 3.68,5.39 9.63,7.65 14.16,7.65 8.77,0 16.13,-11.05 16.13,-24.36" /><path
         id="path90"
         style="fill:#010101;fill-opacity:1;fill-rule:evenodd;stroke:none"
         d="m 2664.82,1719.91 c 0,15.3 -11.61,27.77 -25.48,27.77 -14.44,0 -25.76,-12.75 -25.76,-27.77 0,-15.29 11.89,-26.91 25.48,-26.91 14.15,0 25.76,11.62 25.76,26.91 z m -9.06,1.14 c 0,-4.25 0,-11.62 -3.11,-17.28 -3.4,-5.95 -8.78,-8.22 -13.31,-8.22 -4.53,0 -9.91,1.99 -13.3,7.93 -3.4,5.39 -3.4,12.47 -3.4,17.57 0,4.53 0,11.9 3.68,17.28 3.39,5.1 8.49,7.08 12.74,7.08 4.81,0 9.62,-2.27 13.02,-7.08 3.68,-5.38 3.68,-13.03 3.68,-17.28" /><path
         id="path92"
         style="fill:#010101;fill-opacity:1;fill-rule:evenodd;stroke:none"
         d="m 2715.5,1716.23 -2.55,0 c -1.13,-13.6 -3.12,-19.55 -17.27,-19.55 l -14.72,0 33.12,45.9 c 1.13,1.13 1.13,1.42 1.13,1.98 0,1.14 -0.85,1.14 -2.83,1.14 l -37.65,0 -1.42,-18.99 2.83,0 c 0.57,12.18 2.84,16.72 15.86,16.72 l 13.87,0 -34.26,-47.03 c 0,-2.27 0.29,-2.27 3.12,-2.27 l 38.79,0 1.98,22.1" /><path
         id="path94"
         style="fill:#010101;fill-opacity:1;fill-rule:evenodd;stroke:none"
         d="m 2750.32,1694.13 0,3.41 c -7.93,0 -8.21,0.56 -8.21,5.38 l 0,43.91 -16.42,-1.13 0,-3.69 c 7.64,0 8.77,-0.56 8.77,-6.51 l 0,-32.58 c 0,-5.38 -1.41,-5.38 -9.06,-5.38 l 0,-3.41 c 3.4,0 9.06,0 12.46,0 1.42,0 8.49,0 12.46,0 z m -6.8,72.25 c 0,3.68 -2.83,5.94 -5.66,5.94 -3.4,0 -5.95,-2.55 -5.95,-5.94 0,-3.12 2.84,-5.67 5.95,-5.67 3.4,0 5.66,2.83 5.66,5.67" /><path
         id="path96"
         style="fill:#010101;fill-opacity:1;fill-rule:evenodd;stroke:none"
         d="m 2792.78,1709.15 0,6.8 -2.55,0 0,-6.52 c 0,-8.78 -3.68,-13.88 -8.21,-13.88 -8.21,0 -8.21,11.33 -8.21,13.32 l 0,33.71 16.99,0 0,3.4 -16.99,0 0,22.09 -2.54,0 c -0.29,-11.33 -4.53,-22.94 -15.29,-22.94 l 0,-2.55 10.19,0 0,-33.43 c 0,-13.32 8.78,-16.15 15.01,-16.15 7.64,0 11.6,7.37 11.6,16.15" /><path
         id="path98"
         style="fill:#010101;fill-opacity:1;fill-rule:evenodd;stroke:none"
         d="m 2828.17,1694.13 0,3.41 c -7.93,0 -8.21,0.56 -8.21,5.38 l 0,43.91 -16.42,-1.13 0,-3.69 c 7.64,0 8.78,-0.56 8.78,-6.51 l 0,-32.58 c 0,-5.38 -1.42,-5.38 -9.06,-5.38 l 0,-3.41 c 3.39,0 9.06,0 12.45,0 1.42,0 8.5,0 12.46,0 z m -6.79,72.25 c 0,3.68 -2.84,5.94 -5.67,5.94 -3.39,0 -5.94,-2.55 -5.94,-5.94 0,-3.12 2.83,-5.67 5.94,-5.67 3.4,0 5.67,2.83 5.67,5.67" /><path
         id="path100"
         style="fill:#010101;fill-opacity:1;fill-rule:evenodd;stroke:none"
         d="m 2891.3,1742.3 0,3.4 c -3.68,0 -5.38,0 -9.06,0 l -9.62,0 0,-3.4 c 4.81,0 5.66,-3.69 5.66,-4.82 0,-1.13 -0.28,-1.7 -0.85,-3.12 l -12.46,-31.16 -13.3,33.71 c -0.57,1.7 -0.57,1.7 -0.57,2.27 0,3.12 4.53,3.12 6.51,3.12 l 0,3.4 c -2.83,0 -9.06,0 -12.45,0 l -11.33,0 0,-3.4 c 6.51,0 7.93,-0.57 9.34,-4.25 l 16.99,-42.78 c 0.57,-1.7 0.85,-2.27 2.27,-2.27 0.84,0 1.69,0.29 2.54,2.27 l 15.57,39.09 c 0.85,2.84 3.12,7.94 10.76,7.94" /><path
         id="path102"
         style="fill:#010101;fill-opacity:1;fill-rule:evenodd;stroke:none"
         d="m 2956.13,1694.13 0,3.41 c -5.95,0 -8.77,0 -9.06,3.67 l 0,22.1 c 0,11.33 0,14.45 -2.55,18.42 -3.68,4.53 -9.34,5.38 -13.3,5.38 -11.61,0 -16.14,-9.91 -17.27,-12.47 l 0,12.47 -16.14,-1.41 0,-3.4 c 7.93,0 9.06,-0.85 9.06,-6.8 l 0,-32.3 c 0,-5.66 -1.41,-5.66 -9.06,-5.66 l 0,-3.41 c 3.12,0.29 9.34,0.29 12.74,0.29 3.4,0 9.91,0 13.02,-0.29 l 0,3.41 c -7.64,0 -9.05,0 -9.05,5.66 l 0,22.1 c 0,12.75 8.21,19.54 15.85,19.54 7.36,0 9.06,-6.23 9.06,-13.59 l 0,-28.05 c 0,-5.66 -1.42,-5.66 -9.06,-5.66 l 0,-3.41 c 3.11,0.29 9.34,0.29 12.74,0.29 3.68,0 9.91,0 13.02,-0.29" /><path
         id="path104"
         style="fill:#010101;fill-opacity:1;fill-rule:evenodd;stroke:none"
         d="m 2987.55,1694.13 0,3.41 c -7.92,0 -8.21,0.56 -8.21,5.38 l 0,43.91 -16.41,-1.13 0,-3.69 c 7.64,0 8.77,-0.56 8.77,-6.51 l 0,-32.58 c 0,-5.38 -1.41,-5.38 -9.06,-5.38 l 0,-3.41 c 3.4,0 9.06,0 12.46,0 1.42,0 8.49,0 12.45,0 z m -6.79,72.25 c 0,3.68 -2.83,5.94 -5.66,5.94 -3.4,0 -5.95,-2.55 -5.95,-5.94 0,-3.12 2.83,-5.67 5.95,-5.67 3.4,0 5.66,2.83 5.66,5.67" /><path
         id="path106"
         style="fill:#010101;fill-opacity:1;fill-rule:evenodd;stroke:none"
         d="m 3079.28,1708.58 c 0,0.85 -0.85,0.85 -1.13,0.85 -1.13,0 -1.42,-0.28 -1.7,-1.7 -2.55,-8.5 -9.06,-12.18 -15.57,-12.18 -7.36,0 -16.99,6.52 -16.99,24.65 0,20.11 10.19,24.93 16.14,24.93 4.53,0 11.04,-1.7 13.87,-6.52 -1.42,0 -5.95,0 -5.95,-4.81 0,-3.12 2.27,-5.1 5.1,-5.1 2.55,0 5.1,1.7 5.1,5.38 0,7.93 -8.5,13.6 -18.12,13.6 -14.15,0 -25.2,-12.47 -25.2,-27.48 0,-15.3 11.33,-27.2 24.92,-27.2 15.85,0 19.53,14.45 19.53,15.58" /><path
         id="path108"
         style="fill:#010101;fill-opacity:1;fill-rule:evenodd;stroke:none"
         d="m 3131.94,1708.58 c 0,0.57 -0.57,1.13 -1.14,1.13 -1.13,0 -1.41,-0.56 -1.69,-1.13 -3.12,-10.2 -11.05,-13.03 -16.14,-13.03 -4.81,0 -16.99,3.4 -16.99,24.36 l 0,2.27 33.13,0 c 2.54,0 2.83,0 2.83,2.27 0,11.9 -6.51,23.23 -20.96,23.23 -13.58,0 -24.06,-12.47 -24.06,-27.2 0,-15.86 12.18,-27.48 25.48,-27.48 14.16,0 19.54,13.03 19.54,15.58 z m -7.37,15.87 -28.59,0 c 1.13,18.69 11.61,20.96 15,20.96 12.75,0 13.59,-17 13.59,-20.96" /><path
         id="path110"
         style="fill:#010101;fill-opacity:1;fill-rule:evenodd;stroke:none"
         d="m 3165.63,1694.13 0,3.41 c -7.65,0 -9.06,0 -9.06,5.66 l 0,74.23 -16.71,-1.14 0,-3.4 c 8.21,0 9.06,-0.85 9.06,-6.8 l 0,-62.89 c 0,-5.66 -1.41,-5.66 -9.06,-5.66 l 0,-3.41 c 3.4,0.29 9.34,0.29 12.74,0.29 3.68,0 9.63,0 13.03,-0.29" /><path
         id="path112"
         style="fill:#010101;fill-opacity:1;fill-rule:evenodd;stroke:none"
         d="m 3197.33,1694.13 0,3.41 c -7.92,0 -8.21,0.56 -8.21,5.38 l 0,43.91 -16.42,-1.13 0,-3.69 c 7.65,0 8.78,-0.56 8.78,-6.51 l 0,-32.58 c 0,-5.38 -1.42,-5.38 -9.06,-5.38 l 0,-3.41 c 3.4,0 9.06,0 12.46,0 1.41,0 8.49,0 12.45,0 z m -6.79,72.25 c 0,3.68 -2.83,5.94 -5.66,5.94 -3.4,0 -5.95,-2.55 -5.95,-5.94 0,-3.12 2.83,-5.67 5.95,-5.67 3.39,0 5.66,2.83 5.66,5.67" /><path
         id="path114"
         style="fill:#010101;fill-opacity:1;fill-rule:evenodd;stroke:none"
         d="m 3282.54,1709.43 c 0,6.52 -3.96,10.2 -5.09,11.34 -4.25,3.68 -7.65,4.53 -15.29,5.94 -3.68,0.57 -12.45,2.27 -12.45,9.64 0,3.68 2.54,9.06 13.3,9.06 13.03,0 13.87,-11.05 13.87,-14.73 0.28,-1.13 1.14,-1.13 1.42,-1.13 1.41,0 1.41,0.85 1.41,2.83 l 0,12.46 c 0,2.27 0,2.84 -1.13,2.84 -1.13,0 -3.4,-2.55 -4.24,-3.68 -3.68,2.83 -7.37,3.68 -11.33,3.68 -14.44,0 -18.68,-7.93 -18.68,-14.45 0,-1.42 0,-5.67 4.53,-9.63 3.96,-3.4 7.92,-4.25 13.3,-5.39 6.8,-1.41 8.21,-1.69 11.32,-3.96 1.99,-1.98 3.68,-4.54 3.68,-7.93 0,-5.11 -3.11,-11.05 -13.58,-11.05 -7.93,0 -13.59,4.81 -16.14,16.71 -0.56,2.27 -0.85,2.27 -0.85,2.27 0,0.57 -0.57,0.57 -0.85,0.57 -1.41,0 -1.41,-0.57 -1.41,-2.84 l 0,-16.15 c 0,-2.26 0,-2.83 1.13,-2.83 0.56,0 0.85,0 2.83,2.55 0.57,0.85 0.57,1.13 2.26,3.12 4.54,-5.67 11.04,-5.67 13.03,-5.67 12.74,0 18.96,7.08 18.96,16.43 z m -0.84,66.01 -1.7,1.7 -16.42,-13.03 -16.7,13.03 -1.7,-1.7 18.4,-19.26 18.12,19.26" /><path
         id="path116"
         style="fill:#010101;fill-opacity:1;fill-rule:evenodd;stroke:none"
         d="m 3326.14,1709.15 0,6.8 -2.55,0 0,-6.52 c 0,-8.78 -3.68,-13.88 -8.21,-13.88 -8.2,0 -8.2,11.33 -8.2,13.32 l 0,33.71 16.98,0 0,3.4 -16.98,0 0,22.09 -2.55,0 c -0.29,-11.33 -4.53,-22.94 -15.29,-22.94 l 0,-2.55 10.19,0 0,-33.43 c 0,-13.32 8.78,-16.15 15.01,-16.15 7.64,0 11.6,7.37 11.6,16.15" /><path
         id="path118"
         style="fill:#010101;fill-opacity:1;fill-rule:evenodd;stroke:none"
         d="m 3381.06,1708.58 c 0,0.57 -0.56,1.13 -1.13,1.13 -1.13,0 -1.41,-0.56 -1.7,-1.13 -3.11,-10.2 -11.04,-13.03 -16.13,-13.03 -4.81,0 -16.99,3.4 -16.99,24.36 l 0,2.27 33.12,0 c 2.55,0 2.83,0 2.83,2.27 0,11.9 -6.51,23.23 -20.95,23.23 -13.58,0 -24.06,-12.47 -24.06,-27.2 0,-15.86 12.17,-27.48 25.48,-27.48 14.15,0 19.53,13.03 19.53,15.58 z m -7.36,15.87 -28.59,0 c 1.13,18.69 11.61,20.96 15,20.96 12.75,0 13.59,-17 13.59,-20.96" /><path
         id="path120"
         style="fill:#010101;fill-opacity:1;fill-rule:evenodd;stroke:none"
         d="m 3444.76,1742.3 0,3.4 c -3.68,0 -5.38,0 -9.06,0 l -9.62,0 0,-3.4 c 4.81,0 5.66,-3.69 5.66,-4.82 0,-1.13 -0.28,-1.7 -0.85,-3.12 l -12.46,-31.16 -13.3,33.71 c -0.57,1.7 -0.57,1.7 -0.57,2.27 0,3.12 4.53,3.12 6.51,3.12 l 0,3.4 c -2.83,0 -9.06,0 -12.45,0 l -11.33,0 0,-3.4 c 6.51,0 7.93,-0.57 9.34,-4.25 l 16.99,-42.78 c 0.57,-1.7 0.85,-2.27 2.27,-2.27 0.84,0 1.69,0.29 2.54,2.27 l 15.57,39.09 c 0.85,2.84 3.12,7.94 10.76,7.94" /><path
         id="path122"
         style="fill:#010101;fill-opacity:1;fill-rule:evenodd;stroke:none"
         d="m 3476.18,1694.13 0,3.41 c -7.92,0 -8.2,0.56 -8.2,5.38 l 0,43.91 -16.43,-1.13 0,-3.69 c 7.65,0 8.78,-0.56 8.78,-6.51 l 0,-32.58 c 0,-5.38 -1.41,-5.38 -9.06,-5.38 l 0,-3.41 c 3.4,0 9.06,0 12.46,0 1.41,0 8.49,0 12.45,0 z m -6.79,72.25 c 0,3.68 -2.83,5.94 -5.66,5.94 -3.4,0 -5.94,-2.55 -5.94,-5.94 0,-3.12 2.82,-5.67 5.94,-5.67 3.4,0 5.66,2.83 5.66,5.67" /><path
         id="path124"
         style="fill:#010101;fill-opacity:1;fill-rule:evenodd;stroke:none"
         d="m 3509.31,1694.13 0,3.41 c -7.65,0 -9.06,0 -9.06,5.66 l 0,74.23 -16.7,-1.14 0,-3.4 c 8.2,0 9.06,-0.85 9.06,-6.8 l 0,-62.89 c 0,-5.66 -1.42,-5.66 -9.06,-5.66 l 0,-3.41 c 3.39,0.29 9.34,0.29 12.74,0.29 3.67,0 9.62,0 13.02,-0.29" /><path
         id="path126"
         style="fill:#010101;fill-opacity:1;fill-rule:evenodd;stroke:none"
         d="m 3541.02,1694.13 0,3.41 c -7.93,0 -8.22,0.56 -8.22,5.38 l 0,43.91 -16.41,-1.13 0,-3.69 c 7.64,0 8.77,-0.56 8.77,-6.51 l 0,-32.58 c 0,-5.38 -1.41,-5.38 -9.06,-5.38 l 0,-3.41 c 3.4,0 9.06,0 12.46,0 1.41,0 8.49,0 12.46,0 z m -6.8,72.25 c 0,3.68 -2.83,5.94 -5.66,5.94 -3.4,0 -5.95,-2.55 -5.95,-5.94 0,-3.12 2.84,-5.67 5.95,-5.67 3.4,0 5.66,2.83 5.66,5.67" /><path
         id="path128"
         style="fill:#010101;fill-opacity:1;fill-rule:evenodd;stroke:none"
         d="m 3578.1,1724.16 c 0,9.07 -1.13,24.09 -7.92,37.97 -7.08,14.44 -16.71,22.09 -18.13,22.09 -0.56,0 -1.13,-0.28 -1.13,-0.84 0,-0.29 0,-0.57 1.99,-2.84 12.17,-11.9 18.68,-31.73 18.68,-56.38 0,-23.23 -5.38,-43.34 -19.25,-57.51 -1.42,-1.13 -1.42,-1.13 -1.42,-1.7 0,-0.56 0.57,-0.84 1.13,-0.84 1.7,0 11.33,8.49 17.27,20.39 6.23,12.18 8.78,25.21 8.78,39.66" /><path
         id="path130"
         style="fill:#ffffff;fill-opacity:1;fill-rule:evenodd;stroke:none"
         d="m 2445.7,1394.97 431.44,-223.24 -431.44,-223.523 -431.44,223.523 431.44,223.24 0,0 z m -431.44,0 0,0 z m 862.88,-446.763 0,0" /><g
         transform="scale(0.999647,1.00035)"
         id="g132"><path
           id="path134"
           style="fill:none;stroke:#010101;stroke-width:7.07861996;stroke-linecap:butt;stroke-linejoin:round;stroke-miterlimit:10;stroke-dasharray:none;stroke-opacity:1"
           d="m 2446.28,1394.76 431.88,-223.16 -431.88,-223.447 -431.6,223.447 431.6,223.16 0,0 z" /></g><g
         transform="scale(0.999647,1.00035)"
         id="g136"><path
           id="path138"
           style="fill:none;stroke:#010101;stroke-width:7.07861996;stroke-linecap:butt;stroke-linejoin:round;stroke-miterlimit:10;stroke-dasharray:none;stroke-opacity:1"
           d="m 2014.68,1394.76 0,0 z" /></g><g
         transform="scale(0.999647,1.00035)"
         id="g140"><path
           id="path142"
           style="fill:none;stroke:#010101;stroke-width:7.07861996;stroke-linecap:butt;stroke-linejoin:round;stroke-miterlimit:10;stroke-dasharray:none;stroke-opacity:1"
           d="m 2878.16,948.153 0,0 z" /></g><path
         id="path144"
         style="fill:#010101;fill-opacity:1;fill-rule:evenodd;stroke:none"
         d="m 2317.46,1132.92 c 0,3.68 -3.12,3.68 -4.82,3.68 -5.09,0 -6.22,0.57 -7.35,0.85 l 0,26.06 c 0,8.5 -6.52,18.7 -23.79,18.7 -5.09,0 -17.27,0 -17.27,-8.78 0,-3.68 2.55,-5.67 5.38,-5.67 1.98,0 5.1,1.13 5.38,5.67 0,0.85 0,1.13 2.55,1.41 1.7,0 3.11,0 4.25,0 9.05,0 15.28,-3.68 15.28,-12.46 -21.23,0 -35.95,-5.95 -35.95,-17.56 0,-8.22 7.65,-16.15 19.82,-16.15 4.52,0 11.89,0.85 17.55,4.53 2.55,-3.97 8.21,-3.97 12.74,-3.97 3.4,0 6.23,0 6.23,3.69 z m -20.39,12.46 c 0,-2.83 0,-5.38 -4.53,-7.36 -4.52,-1.99 -9.9,-1.99 -10.75,-1.99 -7.36,0 -12.46,3.97 -12.46,8.79 0,5.95 10.47,10.48 27.74,10.48 l 0,-9.92" /><path
         id="path146"
         style="fill:#010101;fill-opacity:1;fill-rule:evenodd;stroke:none"
         d="m 2419.66,1197.23 c 0,6.23 -4.82,6.79 -5.95,6.79 -1.13,0 -5.94,-0.56 -5.94,-6.79 l 0.84,-28.05 0.29,-14.45 c 0,-3.12 3.11,-3.12 4.81,-3.12 4.25,0 4.53,0.85 4.81,5.67 l 0.57,20.68 c 0,6.24 0.57,13.03 0.57,19.27 z m 0,-61.77 c 0,3.41 -2.55,5.95 -5.95,5.95 -3.4,0 -5.94,-2.54 -5.94,-5.95 0,-3.39 2.54,-5.94 5.94,-5.94 3.4,0 5.95,2.55 5.95,5.94" /><path
         id="path148"
         style="fill:#010101;fill-opacity:1;fill-rule:evenodd;stroke:none"
         d="m 2504.02,1175.13 c 0,4.25 -4.53,4.25 -6.23,4.25 l -41.33,0 c -1.7,0 -6.23,0 -6.23,-4.25 0,-4.25 3.97,-4.25 5.38,-4.25 l 43.03,0 c 1.41,0 5.38,0 5.38,4.25 z m 0,-18.13 c 0,4.25 -3.97,4.25 -5.38,4.25 l -43.03,0 c -1.41,0 -5.38,0 -5.38,-4.25 0,-4.25 4.53,-4.25 6.23,-4.25 l 41.33,0 c 1.7,0 6.23,0 6.23,4.25" /><path
         id="path150"
         style="fill:#010101;fill-opacity:1;fill-rule:evenodd;stroke:none"
         d="m 2631.13,1155.3 c 0,14.73 -10.47,26.63 -23.21,26.63 -5.67,0 -11.04,-2.27 -15.29,-5.95 l 0,21.81 c 0,3.69 -0.57,4.82 -4.81,4.82 l -8.78,0 c -1.7,0 -4.81,0 -4.81,-3.68 0,-3.69 3.11,-3.69 4.81,-3.69 l 5.38,0 0,-60.91 c 0,-2.26 0,-4.81 4.25,-4.81 3.96,0 3.96,2.27 3.96,5.38 5.1,-5.1 10.19,-6.23 13.87,-6.23 13.02,0 24.63,11.33 24.63,26.63 z m -8.21,0 c 0,-11.34 -8.21,-19.27 -16.7,-19.27 -9.34,0 -13.59,10.49 -13.59,16.43 l 0,8.79 c 0,7.08 7.08,13.31 14.44,13.31 9.06,0 15.85,-8.78 15.85,-19.26" /><path
         id="path152"
         style="fill:#ffffff;fill-opacity:1;fill-rule:evenodd;stroke:none"
         d="m 2817.98,784.176 1077.76,0 -121.45,-267.438 -1077.48,0 121.17,267.438 z m -121.17,0 0,0 z m 1198.93,-267.438 0,0" /><g
         transform="scale(0.999647,1.00035)"
         id="g154"><path
           id="path156"
           style="fill:none;stroke:#010101;stroke-width:7.07861996;stroke-linecap:butt;stroke-linejoin:round;stroke-miterlimit:10;stroke-dasharray:none;stroke-opacity:1"
           d="m 2818.97,783.899 1077.86,0 -121.49,-267.343 -1077.57,0 121.2,267.343 z" /></g><g
         transform="scale(0.999647,1.00035)"
         id="g158"><path
           id="path160"
           style="fill:none;stroke:#010101;stroke-width:7.07861996;stroke-linecap:butt;stroke-linejoin:round;stroke-miterlimit:10;stroke-dasharray:none;stroke-opacity:1"
           d="m 2697.77,783.899 0,0 z" /></g><g
         transform="scale(0.999647,1.00035)"
         id="g162"><path
           id="path164"
           style="fill:none;stroke:#010101;stroke-width:7.07861996;stroke-linecap:butt;stroke-linejoin:round;stroke-miterlimit:10;stroke-dasharray:none;stroke-opacity:1"
           d="m 3896.83,516.556 0,0 z" /></g><path
         id="path166"
         style="fill:#010101;fill-opacity:1;fill-rule:evenodd;stroke:none"
         d="m 3060.59,600.031 10.1914,0 0,83.0039 -10.1914,0 0,-83.0039 z" /><path
         id="path168"
         style="fill:#010101;fill-opacity:1;fill-rule:evenodd;stroke:none"
         d="m 3147.79,600.031 0,7.649 -46.15,0 45.58,70.539 0,4.816 -56.9,0 0,-7.363 23.5,0 c 1.41,0 2.83,0.281 4.24,0.281 l 16.14,0 -45.58,-71.109 0,-4.813 59.17,0" /><path
         id="path170"
         style="fill:#010101;fill-opacity:1;fill-rule:evenodd;stroke:none"
         d="m 3225.36,600.031 0,83.004 -10.48,0 0,-36.262 -39.92,0 0,36.262 -10.19,0 0,-83.004 10.19,0 0,39.66 39.92,0 0,-39.66 10.48,0" /><path
         id="path172"
         style="fill:#010101;fill-opacity:1;fill-rule:evenodd;stroke:none"
         d="m 3316.52,641.391 c 0,25.214 -17.27,44.195 -36.52,44.195 -20.1,0 -36.8,-19.266 -36.8,-44.195 0,-25.215 17.26,-43.911 36.51,-43.911 19.82,0 36.81,18.696 36.81,43.911 z m -10.2,1.699 c 0,-23.512 -13.02,-37.961 -26.32,-37.961 -13.87,0 -26.61,14.73 -26.61,37.961 0,22.098 13.02,35.129 26.32,35.129 13.88,0 26.61,-13.598 26.61,-35.129" /><path
         id="path174"
         style="fill:#010101;fill-opacity:1;fill-rule:evenodd;stroke:none"
         d="m 3400.88,640.824 c 0,23.231 -16.14,42.211 -36.24,42.211 l -30.57,0 0,-83.004 30.57,0 c 20.1,0 36.24,18.129 36.24,40.793 z m -10.19,0 c 0,-21.812 -13.31,-33.996 -28.88,-33.996 l -17.83,0 0,69.41 17.83,0 c 16.14,0 28.88,-13.597 28.88,-35.414" /><path
         id="path176"
         style="fill:#010101;fill-opacity:1;fill-rule:evenodd;stroke:none"
         d="m 3428.06,643.656 0,9.633 -9.63,0 0,-9.633 9.63,0 z m 0,-43.625 0,9.629 -9.63,0 0,-9.629 9.63,0" /><path
         id="path178"
         style="fill:#010101;fill-opacity:1;fill-rule:evenodd;stroke:none"
         d="m 3541.3,603.43 c 0,3.683 -3.12,3.683 -4.82,3.683 -5.09,0 -6.22,0.567 -7.35,0.848 l 0,26.066 c 0,8.496 -6.52,18.696 -23.79,18.696 -5.09,0 -17.27,0 -17.27,-8.782 0,-3.683 2.56,-5.668 5.38,-5.668 1.99,0 5.1,1.133 5.38,5.668 0,0.848 0,1.133 2.55,1.418 1.7,0 3.12,0 4.25,0 9.06,0 15.28,-3.683 15.28,-12.468 -21.23,0 -35.95,-5.95 -35.95,-17.563 0,-8.215 7.65,-16.148 19.82,-16.148 4.53,0 11.89,0.851 17.55,4.531 2.55,-3.965 8.21,-3.965 12.74,-3.965 3.4,0 6.23,0 6.23,3.684 z m -20.39,12.465 c 0,-2.832 0,-5.383 -4.52,-7.368 -4.53,-1.98 -9.91,-1.98 -10.76,-1.98 -7.36,0 -12.46,3.965 -12.46,8.781 0,5.949 10.47,10.481 27.74,10.481 l 0,-9.914" /><path
         id="path180"
         style="fill:#ffffff;fill-opacity:1;fill-rule:evenodd;stroke:none"
         d="m 3295.85,269.703 c 242.62,0 428.05,-52.129 428.05,-120.402 0,-68.2776 -185.43,-120.4026 -428.05,-120.4026 -242.62,0 -427.76,52.125 -427.76,120.4026 0,68.273 185.14,120.402 427.76,120.402 z m -427.76,0 0,0 z m 856.09,-241.3749 0,0" /><g
         transform="scale(0.999647,1.00035)"
         id="g182"><path
           id="path184"
           style="fill:none;stroke:#010101;stroke-width:7.07861996;stroke-linecap:butt;stroke-linejoin:round;stroke-miterlimit:10;stroke-dasharray:none;stroke-opacity:1"
           d="m 3297.02,269.889 c 242.7,0 427.91,-52.107 427.91,-120.36 0,-68.2491 -185.21,-120.3596 -427.91,-120.3596 -242.71,0 -427.92,52.1105 -427.92,120.3596 0,68.253 185.21,120.36 427.92,120.36 z" /></g><g
         transform="scale(0.999647,1.00035)"
         id="g186"><path
           id="path188"
           style="fill:none;stroke:#010101;stroke-width:7.07861996;stroke-linecap:butt;stroke-linejoin:round;stroke-miterlimit:10;stroke-dasharray:none;stroke-opacity:1"
           d="m 2869.1,269.889 0,0 z" /></g><g
         transform="scale(0.999647,1.00035)"
         id="g190"><path
           id="path192"
           style="fill:none;stroke:#010101;stroke-width:7.07861996;stroke-linecap:butt;stroke-linejoin:round;stroke-miterlimit:10;stroke-dasharray:none;stroke-opacity:1"
           d="m 3725.21,28.6032 0,0 z" /></g><path
         id="path194"
         style="fill:#010101;fill-opacity:1;fill-rule:evenodd;stroke:none"
         d="m 3174.4,98.0234 -32.84,50.1406 31.42,32.863 -11.32,0 -41.9,-44.195 0,44.195 -9.9,0 0,-83.0036 9.9,0 0,27.1956 15.57,16.148 28.03,-43.3436 11.04,0" /><path
         id="path196"
         style="fill:#010101;fill-opacity:1;fill-rule:evenodd;stroke:none"
         d="m 3259.05,139.383 c 0,25.215 -17.27,44.195 -36.52,44.195 -20.1,0 -36.81,-19.265 -36.81,-44.195 0,-25.215 17.27,-43.9103 36.53,-43.9103 19.81,0 36.8,18.6953 36.8,43.9103 z m -10.19,1.699 c 0,-23.512 -13.03,-37.961 -26.33,-37.961 -13.87,0 -26.61,14.731 -26.61,37.961 0,22.098 13.02,35.129 26.33,35.129 13.87,0 26.61,-13.598 26.61,-35.129" /><path
         id="path198"
         style="fill:#010101;fill-opacity:1;fill-rule:evenodd;stroke:none"
         d="m 3336.33,98.0234 0,83.0036 -9.06,0 0,-74.222 -0.28,0 -9.62,20.113 -26.33,54.109 -14.72,0 0,-83.0036 9.06,0 0,74.2226 9.91,-20.113 26.32,-54.1096 14.72,0" /><path
         id="path200"
         style="fill:#010101;fill-opacity:1;fill-rule:evenodd;stroke:none"
         d="m 3413.05,98.0234 0,8.2146 -15.85,0 c -1.41,0 -2.83,-0.285 -4.25,-0.285 l -23.78,0 0,31.731 39.07,0 0,7.082 -39.07,0 0,28.613 16.42,0 c 1.42,0 2.84,0 4.25,0 l 21.52,0 0,7.648 -52.38,0 0,-83.0036 54.07,0" /><path
         id="path202"
         style="fill:#010101;fill-opacity:1;fill-rule:evenodd;stroke:none"
         d="m 3486.38,103.406 -0.57,8.496 c -3.4,-2.547 -6.79,-4.816 -10.76,-6.23 -3.68,-1.133 -7.92,-1.133 -11.89,-1.133 -7.64,0 -14.72,4.25 -19.53,10.199 -5.38,7.082 -7.93,16.145 -7.93,24.93 0,9.066 2.55,18.129 7.93,24.93 4.81,6.23 11.89,10.48 19.53,10.48 3.4,0 7.08,-0.281 10.48,-1.414 3.68,-1.133 6.79,-3.117 9.91,-5.101 l 1.7,9.917 c -3.69,1.415 -7.08,2.547 -10.76,3.114 -3.97,0.851 -7.65,0.851 -11.33,0.851 -10.47,0 -19.82,-4.816 -26.61,-12.465 -7.36,-8.214 -11.04,-19.265 -11.04,-30.312 0,-11.051 3.68,-21.816 11.04,-30.313 6.79,-7.652 16.14,-12.4683 26.61,-12.4683 3.97,0 8.21,0 12.18,1.1367 3.96,1.1329 7.64,3.3986 11.04,5.3826" /><g
         transform="scale(0.999647,1.00035)"
         id="g204"><path
           id="path206"
           style="fill:none;stroke:#010101;stroke-width:7.36320019;stroke-linecap:butt;stroke-linejoin:round;stroke-miterlimit:10;stroke-dasharray:none;stroke-opacity:1"
           d="m 2449.4,2083.5 -0.29,-152.08" /></g><path
         id="path208"
         style="fill:#010101;fill-opacity:1;fill-rule:evenodd;stroke:none"
         d="m 2448.25,1859.86 25.2,75.64 -50.4,0 25.2,-75.64" /><g
         transform="scale(0.999647,1.00035)"
         id="g210"><path
           id="path212"
           style="fill:none;stroke:#010101;stroke-width:7.36320019;stroke-linecap:butt;stroke-linejoin:round;stroke-miterlimit:10;stroke-dasharray:none;stroke-opacity:1"
           d="m 2877.88,1171.32 419.42,0 0,-315.489" /></g><path
         id="path214"
         style="fill:#010101;fill-opacity:1;fill-rule:evenodd;stroke:none"
         d="m 3296.13,783.891 25.2,75.64 -50.39,0 25.19,-75.64" /><g
         transform="scale(0.999647,1.00035)"
         id="g216"><path
           id="path218"
           style="fill:none;stroke:#010101;stroke-width:7.36320019;stroke-linecap:butt;stroke-linejoin:round;stroke-miterlimit:10;stroke-dasharray:none;stroke-opacity:1"
           d="m 2014.97,1171.32 -924.93,0 0,-138.49" /></g><path
         id="path220"
         style="fill:#010101;fill-opacity:1;fill-rule:evenodd;stroke:none"
         d="m 1089.65,960.953 25.2,75.637 -50.39,0 25.19,-75.637" /><g
         transform="scale(0.999647,1.00035)"
         id="g222"><path
           id="path224"
           style="fill:none;stroke:#010101;stroke-width:7.36320019;stroke-linecap:butt;stroke-linejoin:round;stroke-miterlimit:10;stroke-dasharray:none;stroke-opacity:1"
           d="m 1738.28,148.963 0,-144.99956 708.28,0 0,871.97356" /></g><path
         id="path226"
         style="fill:#010101;fill-opacity:1;fill-rule:evenodd;stroke:none"
         d="m 2445.7,948.488 -25.2,-75.64 50.4,0 -25.2,75.64" /><g
         transform="scale(0.999647,1.00035)"
         id="g228"><path
           id="path230"
           style="fill:none;stroke:#010101;stroke-width:7.36320019;stroke-linecap:butt;stroke-linejoin:round;stroke-miterlimit:10;stroke-dasharray:none;stroke-opacity:1"
           d="m 3297.3,516.556 0.28,-175.016" /></g><path
         id="path232"
         style="fill:#010101;fill-opacity:1;fill-rule:evenodd;stroke:none"
         d="m 3296.42,269.418 25.19,75.641 -50.39,0 25.2,-75.641" /><path
         id="path234"
         style="fill:#010101;fill-opacity:1;fill-rule:evenodd;stroke:none"
         d="m 1899.6,1248.79 c 0,23.23 -16.14,42.21 -36.24,42.21 l -30.57,0 0,-83.01 30.57,0 c 20.1,0 36.24,18.13 36.24,40.8 z m -10.19,0 c 0,-21.82 -13.3,-34 -28.87,-34 l -17.84,0 0,69.41 17.84,0 c 16.13,0 28.87,-13.6 28.87,-35.41" /><path
         id="path236"
         style="fill:#010101;fill-opacity:1;fill-rule:evenodd;stroke:none"
         d="m 1976.32,1207.99 -30.29,83.29 -10.48,0 -30.29,-83.29 9.06,0 8.78,24.37 33.69,0 8.77,-24.37 10.76,0 z m -22.08,31.16 -28.6,0 14.16,43.35 14.44,-43.35" /><path
         id="path238"
         style="fill:#010101;fill-opacity:1;fill-rule:evenodd;stroke:none"
         d="m 2999.45,1207.99 0,83.01 -9.06,0 0,-74.23 -0.29,0 -9.62,20.12 -26.33,54.11 -14.72,0 0,-83.01 9.06,0 0,74.22 9.9,-20.11 26.33,-54.11 14.73,0" /><path
         id="path240"
         style="fill:#010101;fill-opacity:1;fill-rule:evenodd;stroke:none"
         d="m 3075.88,1207.99 0,8.22 -15.85,0 c -1.42,0 -2.83,-0.29 -4.25,-0.29 l -23.78,0 0,31.73 39.07,0 0,7.08 -39.07,0 0,28.62 16.42,0 c 1.42,0 2.83,0 4.25,0 l 21.51,0 0,7.65 -52.37,0 0,-83.01 54.07,0" /><g
         transform="scale(0.999647,1.00035)"
         id="g242"><path
           id="path244"
           style="fill:none;stroke:#010101;stroke-width:7.36320019;stroke-linecap:butt;stroke-linejoin:round;stroke-miterlimit:10;stroke-dasharray:none;stroke-opacity:1"
           d="m 2449.11,1628.68 -1.7,-161.99" /></g><path
         id="path246"
         style="fill:#010101;fill-opacity:1;fill-rule:evenodd;stroke:none"
         d="m 2445.7,1394.97 26.05,75.36 -50.39,0.56 24.34,-75.92" /><path
         id="path248"
         style="fill:#ffffff;fill-opacity:1;fill-rule:evenodd;stroke:none"
         d="m 1089.65,960.953 431.73,-222.957 -431.73,-223.523 -431.158,223.523 431.158,222.957 0,0 z m -431.158,0 0,0 z m 862.888,-446.48 0,0" /><g
         transform="scale(0.999647,1.00035)"
         id="g250"><path
           id="path252"
           style="fill:none;stroke:#010101;stroke-width:7.07861996;stroke-linecap:butt;stroke-linejoin:round;stroke-miterlimit:10;stroke-dasharray:none;stroke-opacity:1"
           d="m 1090.04,960.899 431.88,-223.163 -431.88,-223.445 -431.6,223.445 431.6,223.163 0,0 z" /></g><g
         transform="scale(0.999647,1.00035)"
         id="g254"><path
           id="path256"
           style="fill:none;stroke:#010101;stroke-width:7.07861996;stroke-linecap:butt;stroke-linejoin:round;stroke-miterlimit:10;stroke-dasharray:none;stroke-opacity:1"
           d="m 658.44,960.899 0,0 z" /></g><g
         transform="scale(0.999647,1.00035)"
         id="g258"><path
           id="path260"
           style="fill:none;stroke:#010101;stroke-width:7.07861996;stroke-linecap:butt;stroke-linejoin:round;stroke-miterlimit:10;stroke-dasharray:none;stroke-opacity:1"
           d="m 1521.92,514.291 0,0 z" /></g><path
         id="path262"
         style="fill:#010101;fill-opacity:1;fill-rule:evenodd;stroke:none"
         d="m 993.113,699.184 c 0,3.683 -3.113,3.683 -4.812,3.683 -5.094,0 -6.227,0.567 -7.36,0.852 l 0,26.062 c 0,8.5 -6.511,18.699 -23.781,18.699 -5.094,0 -17.269,0 -17.269,-8.785 0,-3.683 2.55,-5.664 5.379,-5.664 1.984,0 5.097,1.133 5.378,5.664 0,0.852 0,1.133 2.551,1.418 1.696,0 3.114,0 4.246,0 9.059,0 15.285,-3.683 15.285,-12.465 -21.23,0 -35.953,-5.949 -35.953,-17.566 0,-8.215 7.645,-16.148 19.817,-16.148 4.531,0 11.89,0.851 17.554,4.535 2.547,-3.969 8.207,-3.969 12.739,-3.969 3.398,0 6.226,0 6.226,3.684 z m -20.383,12.464 c 0,-2.832 0,-5.382 -4.527,-7.363 -4.531,-1.984 -9.91,-1.984 -10.758,-1.984 -7.363,0 -12.457,3.965 -12.457,8.781 0,5.949 10.473,10.484 27.742,10.484 l 0,-9.918" /><path
         id="path264"
         style="fill:#010101;fill-opacity:1;fill-rule:evenodd;stroke:none"
         d="m 1114,732.613 c 0,1.418 -0.85,2.832 -2.27,3.684 l -39.91,24.93 c -1.42,1.132 -1.98,1.132 -2.84,1.132 -1.98,0 -4.24,-1.414 -4.24,-3.964 0,-2.266 1.42,-3.399 2.83,-4.25 l 34.25,-21.532 -34.25,-21.812 c -1.41,-0.852 -2.83,-1.699 -2.83,-3.969 0,-2.832 2.26,-4.246 4.24,-4.246 0.86,0 1.42,0 2.84,1.133 l 39.63,24.929 c 0.85,0.567 2.55,1.7 2.55,3.965" /><path
         id="path266"
         style="fill:#010101;fill-opacity:1;fill-rule:evenodd;stroke:none"
         d="m 1243.09,721.566 c 0,14.731 -10.47,26.629 -23.21,26.629 -5.67,0 -11.04,-2.265 -15.29,-5.949 l 0,21.813 c 0,3.683 -0.57,4.816 -4.81,4.816 l -8.78,0 c -1.7,0 -4.81,0 -4.81,-3.684 0,-3.679 3.11,-3.679 4.81,-3.679 l 5.38,0 0,-60.91 c 0,-2.266 0,-4.817 4.25,-4.817 3.96,0 3.96,2.266 3.96,5.383 5.1,-5.102 10.19,-6.234 13.87,-6.234 13.02,0 24.63,11.332 24.63,26.632 z m -8.21,0 c 0,-11.332 -8.21,-19.265 -16.7,-19.265 -9.34,0 -13.59,10.48 -13.59,16.429 l 0,8.786 c 0,7.082 7.08,13.312 14.44,13.312 9.06,0 15.85,-8.781 15.85,-19.262" /><path
         id="path268"
         style="fill:#ffffff;fill-opacity:1;fill-rule:evenodd;stroke:none"
         d="m 375.109,149.301 -371.42931,0 0,271.117 742.57031,0 0,-271.117 -371.141,0" /><g
         transform="scale(0.999647,1.00035)"
         id="g270"><path
           id="path272"
           style="fill:none;stroke:#010101;stroke-width:7.07861996;stroke-linecap:butt;stroke-linejoin:round;stroke-miterlimit:10;stroke-dasharray:none;stroke-opacity:1"
           d="m 374.957,149.529 -371.55736,0 0,270.741 743.11436,0 0,-270.741 -371.557,0 z" /></g><path
         id="path274"
         style="fill:#010101;fill-opacity:1;fill-rule:evenodd;stroke:none"
         d="m 246.863,246.188 c 0,3.683 -3.113,3.683 -4.812,3.683 -5.098,0 -6.227,0.567 -7.36,0.848 l 0,26.066 c 0,8.496 -6.511,18.695 -23.781,18.695 -5.097,0 -17.269,0 -17.269,-8.781 0,-3.683 2.547,-5.664 5.379,-5.664 1.98,0 5.093,1.133 5.378,5.664 0,0.852 0,1.133 2.547,1.418 1.7,0 3.114,0 4.246,0 9.059,0 15.289,-3.683 15.289,-12.465 -21.234,0 -35.953,-5.949 -35.953,-17.566 0,-8.215 7.645,-16.148 19.817,-16.148 4.527,0 11.89,0.851 17.551,4.535 2.55,-3.969 8.21,-3.969 12.742,-3.969 3.394,0 6.226,0 6.226,3.684 z m -20.383,12.464 c 0,-2.832 0,-5.382 -4.531,-7.367 -4.527,-1.98 -9.906,-1.98 -10.758,-1.98 -7.359,0 -12.457,3.965 -12.457,8.781 0,5.949 10.477,10.484 27.746,10.484 l 0,-9.918" /><path
         id="path276"
         style="fill:#010101;fill-opacity:1;fill-rule:evenodd;stroke:none"
         d="m 367.746,279.617 c 0,4.25 -4.246,4.25 -5.66,4.25 l -37.938,0 c -1.414,0 -5.66,0 -5.66,-4.25 0,-4.25 4.246,-4.25 5.66,-4.25 l 37.938,0 c 1.414,0 5.66,0 5.66,4.25" /><path
         id="path278"
         style="fill:#010101;fill-opacity:1;fill-rule:evenodd;stroke:none"
         d="m 433.426,288.398 c 0,4.25 -4.528,4.25 -6.227,4.25 l -41.332,0 c -1.699,0 -6.23,0 -6.23,-4.25 0,-4.25 3.965,-4.25 5.379,-4.25 l 43.031,0 c 1.414,0 5.379,0 5.379,4.25 z m 0,-18.128 c 0,4.25 -3.965,4.25 -5.379,4.25 l -43.031,0 c -1.414,0 -5.379,0 -5.379,-4.25 0,-4.25 4.531,-4.25 6.23,-4.25 l 41.332,0 c 1.699,0 6.227,0 6.227,4.25" /><path
         id="path280"
         style="fill:#010101;fill-opacity:1;fill-rule:evenodd;stroke:none"
         d="m 560.539,268.57 c 0,14.731 -10.476,26.629 -23.215,26.629 -5.664,0 -11.043,-2.265 -15.289,-5.949 l 0,21.813 c 0,3.683 -0.566,4.816 -4.812,4.816 l -8.774,0 c -1.699,0 -4.812,0 -4.812,-3.684 0,-3.679 3.113,-3.679 4.812,-3.679 l 5.379,0 0,-60.911 c 0,-2.269 0,-4.816 4.246,-4.816 3.961,0 3.961,2.266 3.961,5.383 5.098,-5.102 10.192,-6.234 13.875,-6.234 13.02,0 24.629,11.332 24.629,26.632 z m -8.211,0 c 0,-11.332 -8.211,-19.265 -16.703,-19.265 -9.344,0 -13.59,10.48 -13.59,16.429 l 0,8.786 c 0,7.082 7.078,13.312 14.438,13.312 9.062,0 15.855,-8.781 15.855,-19.262" /><path
         id="path282"
         style="fill:#ffffff;fill-opacity:1;fill-rule:evenodd;stroke:none"
         d="m 1737.67,149.301 -371.43,0 0,271.117 742.85,0 0,-271.117 -371.42,0" /><g
         transform="scale(0.999647,1.00035)"
         id="g284"><path
           id="path286"
           style="fill:none;stroke:#010101;stroke-width:7.07861996;stroke-linecap:butt;stroke-linejoin:round;stroke-miterlimit:10;stroke-dasharray:none;stroke-opacity:1"
           d="m 1738,149.529 -371.28,0 0,270.741 742.84,0 0,-270.741 -371.56,0 z" /></g><path
         id="path288"
         style="fill:#010101;fill-opacity:1;fill-rule:evenodd;stroke:none"
         d="m 1605.46,268.57 c 0,14.731 -10.48,26.629 -23.21,26.629 -5.66,0 -11.04,-2.265 -15.29,-5.949 l 0,21.813 c 0,3.683 -0.57,4.816 -4.82,4.816 l -8.77,0 c -1.7,0 -4.81,0 -4.81,-3.684 0,-3.679 3.11,-3.679 4.81,-3.679 l 5.38,0 0,-60.911 c 0,-2.269 0,-4.816 4.25,-4.816 3.96,0 3.96,2.266 3.96,5.383 5.09,-5.102 10.19,-6.234 13.87,-6.234 13.02,0 24.63,11.332 24.63,26.632 z m -8.21,0 c 0,-11.332 -8.21,-19.265 -16.7,-19.265 -9.34,0 -13.59,10.48 -13.59,16.429 l 0,8.786 c 0,7.082 7.08,13.312 14.44,13.312 9.06,0 15.85,-8.781 15.85,-19.262" /><path
         id="path290"
         style="fill:#010101;fill-opacity:1;fill-rule:evenodd;stroke:none"
         d="m 1730.31,279.617 c 0,4.25 -4.25,4.25 -5.67,4.25 l -37.93,0 c -1.42,0 -5.66,0 -5.66,-4.25 0,-4.25 4.24,-4.25 5.66,-4.25 l 37.93,0 c 1.42,0 5.67,0 5.67,4.25" /><path
         id="path292"
         style="fill:#010101;fill-opacity:1;fill-rule:evenodd;stroke:none"
         d="m 1795.99,288.398 c 0,4.25 -4.53,4.25 -6.23,4.25 l -41.33,0 c -1.7,0 -6.23,0 -6.23,-4.25 0,-4.25 3.96,-4.25 5.38,-4.25 l 43.03,0 c 1.41,0 5.38,0 5.38,4.25 z m 0,-18.128 c 0,4.25 -3.97,4.25 -5.38,4.25 l -43.03,0 c -1.42,0 -5.38,0 -5.38,-4.25 0,-4.25 4.53,-4.25 6.23,-4.25 l 41.33,0 c 1.7,0 6.23,0 6.23,4.25" /><path
         id="path294"
         style="fill:#010101;fill-opacity:1;fill-rule:evenodd;stroke:none"
         d="m 1927.06,246.188 c 0,3.683 -3.11,3.683 -4.81,3.683 -5.1,0 -6.23,0.567 -7.36,0.848 l 0,26.066 c 0,8.496 -6.51,18.695 -23.78,18.695 -5.1,0 -17.27,0 -17.27,-8.781 0,-3.683 2.55,-5.664 5.38,-5.664 1.98,0 5.09,1.133 5.38,5.664 0,0.852 0,1.133 2.54,1.418 1.7,0 3.12,0 4.25,0 9.06,0 15.29,-3.683 15.29,-12.465 -21.23,0 -35.95,-5.949 -35.95,-17.566 0,-8.215 7.64,-16.148 19.81,-16.148 4.53,0 11.89,0.851 17.55,4.535 2.55,-3.969 8.21,-3.969 12.74,-3.969 3.4,0 6.23,0 6.23,3.684 z m -20.38,12.464 c 0,-2.832 0,-5.382 -4.53,-7.367 -4.53,-1.98 -9.91,-1.98 -10.76,-1.98 -7.36,0 -12.46,3.965 -12.46,8.781 0,5.949 10.48,10.484 27.75,10.484 l 0,-9.918" /><g
         transform="scale(0.999647,1.00035)"
         id="g296"><path
           id="path298"
           style="fill:none;stroke:#010101;stroke-width:7.36320019;stroke-linecap:butt;stroke-linejoin:round;stroke-miterlimit:10;stroke-dasharray:none;stroke-opacity:1"
           d="m 375.242,148.963 0,-144.99956 2071.318,0 0,871.97356" /></g><path
         id="path300"
         style="fill:#010101;fill-opacity:1;fill-rule:evenodd;stroke:none"
         d="m 2445.7,948.488 -25.2,-75.64 50.4,0 -25.2,75.64" /><g
         transform="scale(0.999647,1.00035)"
         id="g302"><path
           id="path304"
           style="fill:none;stroke:#010101;stroke-width:7.36320019;stroke-linecap:butt;stroke-linejoin:round;stroke-miterlimit:10;stroke-dasharray:none;stroke-opacity:1"
           d="m 658.725,737.736 -283.483,0 0,-245.535" /></g><path
         id="path306"
         style="fill:#010101;fill-opacity:1;fill-rule:evenodd;stroke:none"
         d="m 375.109,420.133 25.196,75.64 -50.395,0 25.199,-75.64" /><g
         transform="scale(0.999647,1.00035)"
         id="g308"><path
           id="path310"
           style="fill:none;stroke:#010101;stroke-width:7.36320019;stroke-linecap:butt;stroke-linejoin:round;stroke-miterlimit:10;stroke-dasharray:none;stroke-opacity:1"
           d="m 1521.63,737.736 216.65,0 0,-245.535" /></g><path
         id="path312"
         style="fill:#010101;fill-opacity:1;fill-rule:evenodd;stroke:none"
         d="m 1737.67,420.133 25.19,75.64 -50.39,0 25.2,-75.64" /><path
         id="path314"
         style="fill:#010101;fill-opacity:1;fill-rule:evenodd;stroke:none"
         d="m 574.41,816.754 c 0,23.23 -16.137,42.211 -36.238,42.211 l -30.574,0 0,-83.008 30.574,0 c 20.101,0 36.238,18.133 36.238,40.797 z m -10.191,0 c 0,-21.813 -13.305,-33.996 -28.875,-33.996 l -17.836,0 0,69.41 17.836,0 c 16.136,0 28.875,-13.602 28.875,-35.414" /><path
         id="path316"
         style="fill:#010101;fill-opacity:1;fill-rule:evenodd;stroke:none"
         d="m 651.129,775.957 -30.289,83.293 -10.477,0 -30.293,-83.293 9.063,0 8.773,24.367 33.692,0 8.773,-24.367 10.758,0 z m -22.082,31.164 -28.59,0 14.152,43.344 14.438,-43.344" /><path
         id="path318"
         style="fill:#010101;fill-opacity:1;fill-rule:evenodd;stroke:none"
         d="m 1623.86,775.957 0,83.008 -9.06,0 0,-74.223 -0.28,0 -9.63,20.113 -26.32,54.11 -14.73,0 0,-83.008 9.06,0 0,74.227 9.91,-20.114 26.33,-54.113 14.72,0" /><path
         id="path320"
         style="fill:#010101;fill-opacity:1;fill-rule:evenodd;stroke:none"
         d="m 1700.3,775.957 0,8.219 -15.85,0 c -1.42,0 -2.84,-0.285 -4.25,-0.285 l -23.78,0 0,31.73 39.06,0 0,7.082 -39.06,0 0,28.613 16.42,0 c 1.41,0 2.83,0 4.25,0 l 21.51,0 0,7.649 -52.37,0 0,-83.008 54.07,0" /></g></g></svg>