<?xml version="1.0" encoding="UTF-8" standalone="no"?>
<!-- Created with Inkscape (http://www.inkscape.org/) -->

<svg
   xmlns:dc="http://purl.org/dc/elements/1.1/"
   xmlns:cc="http://creativecommons.org/ns#"
   xmlns:rdf="http://www.w3.org/1999/02/22-rdf-syntax-ns#"
   xmlns:svg="http://www.w3.org/2000/svg"
   xmlns="http://www.w3.org/2000/svg"
   xmlns:inkscape="http://www.inkscape.org/namespaces/inkscape"
   version="1.1"
   width="536.25"
   height="192.5"
   id="svg2"
   xml:space="preserve"><metadata
     id="metadata8"><rdf:RDF><cc:Work
         rdf:about=""><dc:format>image/svg+xml</dc:format><dc:type
           rdf:resource="http://purl.org/dc/dcmitype/StillImage" /></cc:Work></rdf:RDF></metadata><defs
     id="defs6" /><g
     transform="matrix(1.25,0,0,-1.25,0,192.5)"
     id="g10"><g
       transform="scale(0.1,0.1)"
       id="g12"><path
         d="m 1675.51,1535.86 496.58,-255.74 -496.58,-256.3 -496.3,256.3 496.3,255.74 0,0 z m -496.3,0 0,0 z m 992.88,-512.04 0,0"
         inkscape:connector-curvature="0"
         id="path14"
         style="fill:#ffffff;fill-opacity:1;fill-rule:evenodd;stroke:none" /><g
         transform="scale(1.00124,0.998764)"
         id="g16"><path
           d="m 1673.44,1538.05 495.69,-256.35 -495.69,-256.34 -495.69,256.34 495.69,256.35 0,0 z"
           inkscape:connector-curvature="0"
           id="path18"
           style="fill:none;stroke:#010101;stroke-width:7.07948017;stroke-linecap:butt;stroke-linejoin:round;stroke-miterlimit:10;stroke-opacity:1;stroke-dasharray:none" /></g><g
         transform="scale(1.00124,0.998764)"
         id="g20"><path
           d="m 1177.75,1538.05 0,0 z"
           inkscape:connector-curvature="0"
           id="path22"
           style="fill:none;stroke:#010101;stroke-width:7.07948017;stroke-linecap:butt;stroke-linejoin:round;stroke-miterlimit:10;stroke-opacity:1;stroke-dasharray:none" /></g><g
         transform="scale(1.00124,0.998764)"
         id="g24"><path
           d="m 2169.13,1025.36 0,0 z"
           inkscape:connector-curvature="0"
           id="path26"
           style="fill:none;stroke:#010101;stroke-width:7.07948017;stroke-linecap:butt;stroke-linejoin:round;stroke-miterlimit:10;stroke-opacity:1;stroke-dasharray:none" /></g><path
         d="m 1316.75,1252.96 c 0,12.45 -15.31,15 -19.28,15.56 l -8.22,1.42 c -3.41,0.28 -11.63,1.98 -11.63,6.51 0,3.11 3.97,6.78 15.31,6.78 9.93,0 11.63,-3.67 11.91,-6.78 0.29,-1.99 0.57,-3.97 4.26,-3.97 3.97,0 3.97,2.55 3.97,4.81 l 0,8.21 c 0,1.98 0,5.09 -3.41,5.09 -2.83,0 -3.4,-1.7 -3.68,-2.55 -5.39,2.55 -10.5,2.55 -12.77,2.55 -20.13,0 -22.96,-9.9 -22.96,-14.14 0,-11.04 12.76,-13.02 23.82,-14.72 5.95,-0.84 15.31,-2.54 15.31,-8.77 0,-4.52 -4.25,-8.48 -15.31,-8.48 -5.68,0 -12.2,1.41 -15.32,10.47 -0.57,2.26 -1.13,3.67 -4.25,3.67 -4.25,0 -4.25,-2.55 -4.25,-5.09 l 0,-11.6 c 0,-1.7 0,-4.81 3.68,-4.81 1.14,0 3.12,0 4.54,4.53 5.96,-4.24 12.19,-4.24 15.6,-4.24 19,0 22.68,9.89 22.68,15.55"
         inkscape:connector-curvature="0"
         id="path28"
         style="fill:#010101;fill-opacity:1;fill-rule:evenodd;stroke:none" /><path
         d="m 1379.15,1252.96 c 0,1.99 0,4.53 -4.26,4.53 -3.97,0 -3.97,-2.54 -3.97,-4.53 -0.28,-7.35 -7.09,-8.48 -9.92,-8.48 -9.08,0 -9.08,6.22 -9.08,9.05 l 0,28.57 19.57,0 c 1.99,0 4.82,0 4.82,3.68 0,3.68 -2.83,3.68 -4.82,3.68 l -19.57,0 0,9.62 c 0,2.26 0,5.09 -3.97,5.09 -4.25,0 -4.25,-2.55 -4.25,-5.09 l 0,-9.62 -10.5,0 c -1.98,0 -4.82,0 -4.82,-3.68 0,-3.68 2.84,-3.68 4.82,-3.68 l 10.5,0 0,-29.14 c 0,-11.59 7.94,-15.84 16.73,-15.84 9.07,0 18.72,5.09 18.72,15.84"
         inkscape:connector-curvature="0"
         id="path30"
         style="fill:#010101;fill-opacity:1;fill-rule:evenodd;stroke:none" /><path
         d="m 1451.46,1241.37 c 0,3.67 -3.12,3.67 -4.82,3.67 -5.1,0 -6.23,0.57 -7.37,0.85 l 0,26.03 c 0,8.49 -6.52,18.67 -23.82,18.67 -5.11,0 -17.3,0 -17.3,-8.77 0,-3.68 2.55,-5.66 5.39,-5.66 1.98,0 5.1,1.13 5.39,5.66 0,0.85 0,1.13 2.55,1.41 1.7,0 3.12,0 4.25,0 9.07,0 15.32,-3.67 15.32,-12.44 -21.27,0 -36.02,-5.94 -36.02,-17.54 0,-8.21 7.66,-16.13 19.85,-16.13 4.54,0 11.91,0.85 17.58,4.53 2.56,-3.96 8.23,-3.96 12.77,-3.96 3.4,0 6.23,0 6.23,3.68 z m -20.41,12.44 c 0,-2.83 0,-5.37 -4.54,-7.35 -4.54,-1.98 -9.93,-1.98 -10.78,-1.98 -7.37,0 -12.48,3.96 -12.48,8.77 0,5.94 10.5,10.46 27.8,10.46 l 0,-9.9"
         inkscape:connector-curvature="0"
         id="path32"
         style="fill:#010101;fill-opacity:1;fill-rule:evenodd;stroke:none" /><path
         d="m 1511.02,1282.67 c 0,2.54 -1.42,7.64 -11.34,7.64 -6.24,0 -13.9,-2.27 -20.42,-9.9 l 0,4.24 c 0,3.68 -0.85,4.81 -4.82,4.81 l -13.33,0 c -1.7,0 -4.54,0 -4.54,-3.68 0,-3.68 2.84,-3.68 4.54,-3.68 l 9.93,0 0,-36.78 -9.93,0 c -1.7,0 -4.54,0 -4.54,-3.67 0,-3.68 2.84,-3.68 4.54,-3.68 l 31.48,0 c 1.7,0 4.82,0 4.82,3.68 0,3.67 -3.12,3.67 -4.82,3.67 l -13.33,0 0,15 c 0,11.03 7.09,22.63 21.55,22.63 0,-2.83 2.27,-5.37 5.11,-5.37 2.83,0 5.1,1.98 5.1,5.09"
         inkscape:connector-curvature="0"
         id="path34"
         style="fill:#010101;fill-opacity:1;fill-rule:evenodd;stroke:none" /><path
         d="m 1572.28,1263.71 c 0,15 -11.35,26.88 -24.67,26.88 -13.62,0 -24.68,-11.88 -24.68,-26.88 0,-15.27 11.35,-26.59 24.68,-26.59 13.04,0 24.67,11.6 24.67,26.59 z m -8.51,0.85 c 0,-11.03 -7.37,-20.08 -16.16,-20.08 -8.8,0 -16.45,9.05 -16.45,20.08 0,10.75 7.94,18.67 16.45,18.67 8.5,0 16.16,-7.92 16.16,-18.67"
         inkscape:connector-curvature="0"
         id="path36"
         style="fill:#010101;fill-opacity:1;fill-rule:evenodd;stroke:none" /><path
         d="m 1634.95,1252.96 c 0,12.45 -15.31,15 -19.28,15.56 l -8.22,1.42 c -3.41,0.28 -11.63,1.98 -11.63,6.51 0,3.11 3.97,6.78 15.31,6.78 9.93,0 11.63,-3.67 11.91,-6.78 0.29,-1.99 0.57,-3.97 4.26,-3.97 3.97,0 3.97,2.55 3.97,4.81 l 0,8.21 c 0,1.98 0,5.09 -3.41,5.09 -2.83,0 -3.4,-1.7 -3.68,-2.55 -5.39,2.55 -10.5,2.55 -12.77,2.55 -20.13,0 -22.96,-9.9 -22.96,-14.14 0,-11.04 12.76,-13.02 23.82,-14.72 5.95,-0.84 15.31,-2.54 15.31,-8.77 0,-4.52 -4.25,-8.48 -15.31,-8.48 -5.68,0 -12.2,1.41 -15.32,10.47 -0.57,2.26 -1.13,3.67 -4.25,3.67 -4.25,0 -4.25,-2.55 -4.25,-5.09 l 0,-11.6 c 0,-1.7 0,-4.81 3.68,-4.81 1.14,0 3.12,0 4.54,4.53 5.95,-4.24 12.19,-4.24 15.6,-4.24 19,0 22.68,9.89 22.68,15.55"
         inkscape:connector-curvature="0"
         id="path38"
         style="fill:#010101;fill-opacity:1;fill-rule:evenodd;stroke:none" /><path
         d="m 1697.35,1252.96 c 0,1.99 0,4.53 -4.26,4.53 -3.97,0 -3.97,-2.54 -3.97,-4.53 -0.28,-7.35 -7.09,-8.48 -9.92,-8.48 -9.08,0 -9.08,6.22 -9.08,9.05 l 0,28.57 19.57,0 c 1.99,0 4.82,0 4.82,3.68 0,3.68 -2.83,3.68 -4.82,3.68 l -19.57,0 0,9.62 c 0,2.26 0,5.09 -3.97,5.09 -4.26,0 -4.26,-2.55 -4.26,-5.09 l 0,-9.62 -10.49,0 c -1.98,0 -4.82,0 -4.82,-3.68 0,-3.68 2.84,-3.68 4.82,-3.68 l 10.49,0 0,-29.14 c 0,-11.59 7.95,-15.84 16.74,-15.84 9.07,0 18.72,5.09 18.72,15.84"
         inkscape:connector-curvature="0"
         id="path40"
         style="fill:#010101;fill-opacity:1;fill-rule:evenodd;stroke:none" /><path
         d="m 1826.95,1274.75 c 0,1.41 -0.85,2.83 -2.27,3.68 l -39.98,24.89 c -1.42,1.13 -1.99,1.13 -2.84,1.13 -1.98,0 -4.25,-1.41 -4.25,-3.96 0,-2.26 1.41,-3.39 2.83,-4.24 l 34.32,-21.5 -34.32,-21.79 c -1.42,-0.84 -2.83,-1.69 -2.83,-3.96 0,-2.82 2.27,-4.24 4.25,-4.24 0.85,0 1.42,0 2.84,1.13 l 39.7,24.9 c 0.85,0.56 2.55,1.69 2.55,3.96"
         inkscape:connector-curvature="0"
         id="path42"
         style="fill:#010101;fill-opacity:1;fill-rule:evenodd;stroke:none" /><path
         d="m 1892.75,1283.52 c 0,4.24 -4.54,4.24 -6.24,4.24 l -41.41,0 c -1.7,0 -6.24,0 -6.24,-4.24 0,-4.25 3.97,-4.25 5.39,-4.25 l 43.11,0 c 1.42,0 5.39,0 5.39,4.25 z m 0,-18.11 c 0,4.25 -3.97,4.25 -5.39,4.25 l -43.11,0 c -1.42,0 -5.39,0 -5.39,-4.25 0,-4.24 4.54,-4.24 6.24,-4.24 l 41.41,0 c 1.7,0 6.24,0 6.24,4.24"
         inkscape:connector-curvature="0"
         id="path44"
         style="fill:#010101;fill-opacity:1;fill-rule:evenodd;stroke:none" /><path
         d="m 2014.7,1241.65 c 0,3.67 -2.84,3.67 -4.82,3.67 l -10.78,0 0,62.24 c 0,1.7 0,4.82 -3.69,4.82 -2.27,0 -3.12,-1.42 -3.69,-2.84 -4.54,-10.18 -10.77,-11.59 -13.04,-11.88 -1.99,0 -4.54,-0.28 -4.54,-3.68 0,-2.82 2.27,-3.39 3.97,-3.39 2.27,0 7.37,0.57 12.48,5.09 l 0,-50.36 -10.78,0 c -1.98,0 -4.82,0 -4.82,-3.67 0,-3.68 3.12,-3.68 4.82,-3.68 l 30.07,0 c 1.69,0 4.82,0 4.82,3.68"
         inkscape:connector-curvature="0"
         id="path46"
         style="fill:#010101;fill-opacity:1;fill-rule:evenodd;stroke:none" /><path
         d="m 2082.76,1258.62 c 0,9.06 -7.66,16.13 -16.73,18.67 9.64,3.12 15.03,9.06 15.03,15.85 0,9.9 -10.21,19.24 -24.39,19.24 -14.47,0 -24.39,-9.63 -24.39,-19.24 0,-6.79 5.39,-12.73 14.74,-15.85 -8.79,-2.54 -16.45,-9.61 -16.45,-18.67 0,-11.6 11.07,-22.07 26.1,-22.07 15.03,0 26.09,10.47 26.09,22.07 z m -9.93,34.52 c 0,-7.08 -7.37,-12.17 -16.16,-12.17 -8.79,0 -16.17,5.38 -16.17,12.17 0,6.22 6.52,11.88 16.17,11.88 9.36,0 16.16,-5.66 16.16,-11.88 z m 1.71,-34.23 c 0,-8.49 -7.95,-15 -17.87,-15 -9.93,0 -17.87,6.51 -17.87,15 0,7.07 6.81,14.71 17.87,14.71 11.06,0 17.87,-7.64 17.87,-14.71"
         inkscape:connector-curvature="0"
         id="path48"
         style="fill:#010101;fill-opacity:1;fill-rule:evenodd;stroke:none" /><path
         d="M 3061.75,948.562 3558.33,692.82 3061.75,436.516 2565.73,692.82 l 496.02,255.742 0,0 z m -496.02,0 0,0 z m 992.6,-512.046 0,0"
         inkscape:connector-curvature="0"
         id="path50"
         style="fill:#ffffff;fill-opacity:1;fill-rule:evenodd;stroke:none" /><g
         transform="scale(1.00124,0.998764)"
         id="g52"><path
           d="m 3057.97,950.022 495.97,-256.345 -495.97,-256.621 -495.69,256.621 495.69,256.345 0,0 z"
           inkscape:connector-curvature="0"
           id="path54"
           style="fill:none;stroke:#010101;stroke-width:7.07948017;stroke-linecap:butt;stroke-linejoin:round;stroke-miterlimit:10;stroke-opacity:1;stroke-dasharray:none" /></g><g
         transform="scale(1.00124,0.998764)"
         id="g56"><path
           d="m 2562.28,950.022 0,0 z"
           inkscape:connector-curvature="0"
           id="path58"
           style="fill:none;stroke:#010101;stroke-width:7.07948017;stroke-linecap:butt;stroke-linejoin:round;stroke-miterlimit:10;stroke-opacity:1;stroke-dasharray:none" /></g><g
         transform="scale(1.00124,0.998764)"
         id="g60"><path
           d="m 3553.94,437.056 0,0 z"
           inkscape:connector-curvature="0"
           id="path62"
           style="fill:none;stroke:#010101;stroke-width:7.07948017;stroke-linecap:butt;stroke-linejoin:round;stroke-miterlimit:10;stroke-opacity:1;stroke-dasharray:none" /></g><path
         d="m 2767.09,665.664 c 0,12.449 -15.32,14.992 -19.29,15.559 l -8.22,1.414 c -3.41,0.285 -11.63,1.98 -11.63,6.508 0,3.113 3.97,6.789 15.31,6.789 9.93,0 11.63,-3.676 11.92,-6.789 0.28,-1.981 0.56,-3.961 4.25,-3.961 3.97,0 3.97,2.546 3.97,4.808 l 0,8.207 c 0,1.977 0,5.09 -3.4,5.09 -2.84,0 -3.41,-1.695 -3.69,-2.547 -5.39,2.547 -10.49,2.547 -12.76,2.547 -20.14,0 -22.98,-9.902 -22.98,-14.144 0,-11.032 12.77,-13.012 23.83,-14.711 5.95,-0.848 15.31,-2.547 15.31,-8.77 0,-4.527 -4.25,-8.488 -15.31,-8.488 -5.67,0 -12.2,1.414 -15.32,10.469 -0.56,2.261 -1.13,3.675 -4.25,3.675 -4.26,0 -4.26,-2.543 -4.26,-5.09 l 0,-11.601 c 0,-1.695 0,-4.809 3.69,-4.809 1.13,0 3.12,0 4.54,4.528 5.95,-4.243 12.2,-4.243 15.6,-4.243 19,0 22.69,9.899 22.69,15.559"
         inkscape:connector-curvature="0"
         id="path64"
         style="fill:#010101;fill-opacity:1;fill-rule:evenodd;stroke:none" /><path
         d="m 2829.48,665.664 c 0,1.981 0,4.527 -4.26,4.527 -3.97,0 -3.97,-2.546 -3.97,-4.527 -0.28,-7.355 -7.09,-8.488 -9.92,-8.488 -9.08,0 -9.08,6.226 -9.08,9.054 l 0,28.571 19.57,0 c 1.98,0 4.82,0 4.82,3.679 0,3.676 -2.84,3.676 -4.82,3.676 l -19.57,0 0,9.621 c 0,2.262 0,5.09 -3.97,5.09 -4.25,0 -4.25,-2.543 -4.25,-5.09 l 0,-9.621 -10.49,0 c -1.99,0 -4.83,0 -4.83,-3.676 0,-3.679 2.84,-3.679 4.83,-3.679 l 10.49,0 0,-29.137 c 0,-11.598 7.94,-15.844 16.73,-15.844 9.08,0 18.72,5.094 18.72,15.844"
         inkscape:connector-curvature="0"
         id="path66"
         style="fill:#010101;fill-opacity:1;fill-rule:evenodd;stroke:none" /><path
         d="m 2901.8,654.066 c 0,3.676 -3.12,3.676 -4.83,3.676 -5.1,0 -6.24,0.567 -7.37,0.848 l 0,26.027 c 0,8.488 -6.52,18.672 -23.82,18.672 -5.11,0 -17.3,0 -17.3,-8.769 0,-3.676 2.55,-5.657 5.39,-5.657 1.98,0 5.1,1.129 5.38,5.657 0,0.847 0,1.132 2.56,1.414 1.7,0 3.12,0 4.25,0 9.08,0 15.32,-3.676 15.32,-12.446 -21.27,0 -36.02,-5.941 -36.02,-17.543 0,-8.203 7.66,-16.125 19.85,-16.125 4.54,0 11.91,0.852 17.58,4.528 2.56,-3.961 8.23,-3.961 12.76,-3.961 3.41,0 6.25,0 6.25,3.679 z m -20.42,12.446 c 0,-2.828 0,-5.375 -4.54,-7.356 -4.54,-1.98 -9.93,-1.98 -10.78,-1.98 -7.37,0 -12.48,3.961 -12.48,8.769 0,5.942 10.5,10.469 27.8,10.469 l 0,-9.902"
         inkscape:connector-curvature="0"
         id="path68"
         style="fill:#010101;fill-opacity:1;fill-rule:evenodd;stroke:none" /><path
         d="m 2961.35,695.367 c 0,2.547 -1.42,7.641 -11.34,7.641 -6.24,0 -13.9,-2.266 -20.42,-9.903 l 0,4.243 c 0,3.679 -0.85,4.808 -4.82,4.808 l -13.33,0 c -1.71,0 -4.54,0 -4.54,-3.676 0,-3.679 2.83,-3.679 4.54,-3.679 l 9.92,0 0,-36.774 -9.92,0 c -1.71,0 -4.54,0 -4.54,-3.679 0,-3.676 2.83,-3.676 4.54,-3.676 l 31.48,0 c 1.7,0 4.82,0 4.82,3.676 0,3.679 -3.12,3.679 -4.82,3.679 l -13.33,0 0,14.993 c 0,11.031 7.09,22.632 21.55,22.632 0,-2.832 2.27,-5.375 5.11,-5.375 2.83,0 5.1,1.981 5.1,5.09"
         inkscape:connector-curvature="0"
         id="path70"
         style="fill:#010101;fill-opacity:1;fill-rule:evenodd;stroke:none" /><path
         d="m 3022.61,676.414 c 0,14.992 -11.34,26.875 -24.67,26.875 -13.62,0 -24.68,-11.883 -24.68,-26.875 0,-15.277 11.35,-26.594 24.68,-26.594 13.04,0 24.67,11.602 24.67,26.594 z m -8.51,0.848 c 0,-11.032 -7.37,-20.086 -16.16,-20.086 -8.8,0 -16.45,9.054 -16.45,20.086 0,10.75 7.94,18.672 16.45,18.672 8.51,0 16.16,-7.922 16.16,-18.672"
         inkscape:connector-curvature="0"
         id="path72"
         style="fill:#010101;fill-opacity:1;fill-rule:evenodd;stroke:none" /><path
         d="m 3085.29,665.664 c 0,12.449 -15.32,14.992 -19.29,15.559 l -8.22,1.414 c -3.41,0.285 -11.63,1.98 -11.63,6.508 0,3.113 3.97,6.789 15.31,6.789 9.93,0 11.63,-3.676 11.92,-6.789 0.28,-1.981 0.56,-3.961 4.25,-3.961 3.97,0 3.97,2.546 3.97,4.808 l 0,8.207 c 0,1.977 0,5.09 -3.4,5.09 -2.84,0 -3.41,-1.695 -3.69,-2.547 -5.39,2.547 -10.49,2.547 -12.76,2.547 -20.14,0 -22.98,-9.902 -22.98,-14.144 0,-11.032 12.77,-13.012 23.83,-14.711 5.95,-0.848 15.31,-2.547 15.31,-8.77 0,-4.527 -4.25,-8.488 -15.31,-8.488 -5.67,0 -12.2,1.414 -15.32,10.469 -0.57,2.261 -1.13,3.675 -4.25,3.675 -4.26,0 -4.26,-2.543 -4.26,-5.09 l 0,-11.601 c 0,-1.695 0,-4.809 3.69,-4.809 1.13,0 3.12,0 4.54,4.528 5.95,-4.243 12.2,-4.243 15.6,-4.243 19,0 22.69,9.899 22.69,15.559"
         inkscape:connector-curvature="0"
         id="path74"
         style="fill:#010101;fill-opacity:1;fill-rule:evenodd;stroke:none" /><path
         d="m 3147.68,665.664 c 0,1.981 0,4.527 -4.26,4.527 -3.97,0 -3.97,-2.546 -3.97,-4.527 -0.28,-7.355 -7.09,-8.488 -9.92,-8.488 -9.08,0 -9.08,6.226 -9.08,9.054 l 0,28.571 19.57,0 c 1.98,0 4.82,0 4.82,3.679 0,3.676 -2.84,3.676 -4.82,3.676 l -19.57,0 0,9.621 c 0,2.262 0,5.09 -3.97,5.09 -4.25,0 -4.25,-2.543 -4.25,-5.09 l 0,-9.621 -10.5,0 c -1.98,0 -4.82,0 -4.82,-3.676 0,-3.679 2.84,-3.679 4.82,-3.679 l 10.5,0 0,-29.137 c 0,-11.598 7.94,-15.844 16.73,-15.844 9.08,0 18.72,5.094 18.72,15.844"
         inkscape:connector-curvature="0"
         id="path76"
         style="fill:#010101;fill-opacity:1;fill-rule:evenodd;stroke:none" /><path
         d="m 3277.28,687.445 c 0,1.418 -0.85,2.832 -2.27,3.68 l -39.98,24.895 c -1.42,1.132 -1.99,1.132 -2.84,1.132 -1.99,0 -4.26,-1.414 -4.26,-3.961 0,-2.261 1.42,-3.394 2.84,-4.242 l 34.32,-21.504 -34.32,-21.781 c -1.42,-0.848 -2.84,-1.699 -2.84,-3.961 0,-2.828 2.27,-4.242 4.26,-4.242 0.85,0 1.42,0 2.84,1.129 l 39.7,24.898 c 0.85,0.563 2.55,1.696 2.55,3.957"
         inkscape:connector-curvature="0"
         id="path78"
         style="fill:#010101;fill-opacity:1;fill-rule:evenodd;stroke:none" /><path
         d="m 3405.18,673.301 c 0,12.164 -9.35,23.765 -23.53,23.765 -4.26,0 -9.36,-0.847 -14.47,-3.394 l 0,22.633 28.93,0 c 1.7,0 4.82,0 4.82,3.675 0,3.68 -2.84,3.68 -4.82,3.68 l -32.33,0 c -3.97,0 -4.82,-1.133 -4.82,-4.812 l 0,-31.965 c 0,-2.266 0,-4.813 3.97,-4.813 1.98,0 2.55,0.567 3.4,1.7 3.4,3.96 8.23,5.941 15.32,5.941 9.64,0 15.03,-8.77 15.03,-16.41 0,-9.617 -8.51,-16.692 -18.44,-16.692 -3.4,0 -11.06,0.852 -14.46,7.356 0.57,0.851 1.7,1.418 1.7,3.961 0,3.394 -2.84,5.375 -5.39,5.375 -1.7,0 -5.39,-1.129 -5.39,-5.656 0,-9.903 10.21,-18.391 23.54,-18.391 15.03,0 26.94,10.75 26.94,24.047"
         inkscape:connector-curvature="0"
         id="path80"
         style="fill:#010101;fill-opacity:1;fill-rule:evenodd;stroke:none" /><path
         d="m 570.887,3.96094 -567.1995,0 0,263.09806 1134.1125,0 0,-263.09806 -566.913,0"
         inkscape:connector-curvature="0"
         id="path82"
         style="fill:#ffffff;fill-opacity:1;fill-rule:evenodd;stroke:none" /><g
         transform="scale(1.00124,0.998764)"
         id="g84"><path
           d="m 569.897,4.24744 -566.49886,0 0,263.42356 1133.00186,0 0,-263.42356 -566.503,0 z"
           inkscape:connector-curvature="0"
           id="path86"
           style="fill:none;stroke:#010101;stroke-width:7.07948017;stroke-linecap:butt;stroke-linejoin:round;stroke-miterlimit:10;stroke-opacity:1;stroke-dasharray:none" /></g><path
         d="m 117.695,106.371 c 0,3.395 -3.406,3.395 -4.254,3.395 -1.703,0 -3.121,-0.286 -3.972,-2.828 -0.567,-1.415 -2.836,-7.0747 -11.9104,-7.0747 -9.9258,0 -18.7188,8.2027 -18.7188,19.2387 0,5.656 3.4024,19.519 19.5704,19.519 2.5508,0 7.0898,0 7.0898,-1.133 0.281,-4.242 2.551,-5.941 5.387,-5.941 2.836,0 5.39,2.265 5.39,5.66 0,8.77 -12.48,8.77 -17.8668,8.77 -20.7032,0 -27.793,-16.411 -27.793,-26.875 0,-14.43 11.3437,-26.5942 26.375,-26.5942 16.7308,0 20.7028,11.5972 20.7028,13.8632"
         inkscape:connector-curvature="0"
         id="path88"
         style="fill:#010101;fill-opacity:1;fill-rule:evenodd;stroke:none" /><path
         d="m 180.938,106.086 c 0,3.394 -3.403,3.394 -4.254,3.394 -1.985,0 -3.122,-0.281 -3.688,-2.542 -2.836,-5.942 -9.359,-7.0747 -12.476,-7.0747 -9.079,0 -18.153,5.9417 -20.137,16.1247 l 35.734,0 c 2.551,0 4.821,0 4.821,4.528 0,13.578 -7.657,25.461 -23.258,25.461 -14.18,0 -25.805,-12.165 -25.805,-26.875 0,-14.43 12.195,-26.5942 27.793,-26.5942 15.598,0 21.27,10.7502 21.27,13.5782 z m -8.508,16.976 -31.766,0 c 1.703,9.051 8.793,15.559 17.016,15.559 6.242,0 13.613,-3.113 14.75,-15.559"
         inkscape:connector-curvature="0"
         id="path90"
         style="fill:#010101;fill-opacity:1;fill-rule:evenodd;stroke:none" /><path
         d="m 250.703,97.0352 c 0,3.6758 -3.121,3.6758 -5.105,3.6758 l -5.106,0 0,27.727 c 0,12.164 -6.238,17.257 -15.597,17.257 -8.223,0 -13.614,-4.246 -15.883,-6.507 0,3.96 0,5.656 -4.821,5.656 l -8.789,0 c -1.703,0 -4.824,0 -4.824,-3.676 0,-3.68 3.121,-3.68 4.824,-3.68 l 5.387,0 0,-36.777 -5.387,0 c -1.703,0 -4.824,0 -4.824,-3.6758 0,-3.6797 3.121,-3.6797 4.824,-3.6797 l 19,0 c 1.7,0 4.821,0 4.821,3.6797 0,3.6758 -2.836,3.6758 -4.821,3.6758 l -5.39,0 0,21.219 c 0,11.882 9.078,16.41 15.031,16.41 6.523,0 7.941,-3.395 7.941,-10.469 l 0,-27.16 -4.539,0 c -1.984,0 -4.82,0 -4.82,-3.6758 0,-3.6797 3.121,-3.6797 4.82,-3.6797 l 18.438,0 c 1.699,0 4.82,0 4.82,3.6797"
         inkscape:connector-curvature="0"
         id="path92"
         style="fill:#010101;fill-opacity:1;fill-rule:evenodd;stroke:none" /><path
         d="m 315.078,96.75 c 0,3.68 -3.117,3.68 -4.82,3.68 -5.106,0 -6.238,0.566 -7.371,0.847 l 0,26.028 c 0,8.488 -6.524,18.672 -23.825,18.672 -5.105,0 -17.3,0 -17.3,-8.77 0,-3.68 2.554,-5.66 5.39,-5.66 1.985,0 5.106,1.133 5.387,5.66 0,0.848 0,1.133 2.555,1.414 1.699,0 3.117,0 4.254,0 9.074,0 15.312,-3.676 15.312,-12.449 -21.269,0 -36.015,-5.938 -36.015,-17.539 0,-8.203 7.656,-16.1252 19.851,-16.1252 4.535,0 11.91,0.8477 17.582,4.5274 2.551,-3.961 8.227,-3.961 12.762,-3.961 3.402,0 6.238,0 6.238,3.6758 z m -20.418,12.449 c 0,-2.828 0,-5.375 -4.539,-7.355 -4.535,-1.9807 -9.926,-1.9807 -10.773,-1.9807 -7.375,0 -12.481,3.9607 -12.481,8.7697 0,5.941 10.492,10.469 27.793,10.469 l 0,-9.903"
         inkscape:connector-curvature="0"
         id="path94"
         style="fill:#010101;fill-opacity:1;fill-rule:evenodd;stroke:none" /><path
         d="m 438.445,138.902 c 0,4.246 -4.539,4.246 -6.238,4.246 l -41.406,0 c -1.703,0 -6.239,0 -6.239,-4.246 0,-4.242 3.969,-4.242 5.387,-4.242 l 43.11,0 c 1.418,0 5.386,0 5.386,4.242 z m 0,-18.105 c 0,4.246 -3.968,4.246 -5.386,4.246 l -43.11,0 c -1.418,0 -5.387,0 -5.387,-4.246 0,-4.242 4.536,-4.242 6.239,-4.242 l 41.406,0 c 1.699,0 6.238,0 6.238,4.242"
         inkscape:connector-curvature="0"
         id="path96"
         style="fill:#010101;fill-opacity:1;fill-rule:evenodd;stroke:none" /><path
         d="m 565.781,119.102 c 0,14.71 -10.492,26.593 -23.254,26.593 -5.672,0 -11.062,-2.265 -15.316,-5.941 0,3.394 -0.281,5.09 -4.82,5.09 l -8.789,0 c -1.704,0 -4.825,0 -4.825,-3.676 0,-3.68 3.121,-3.68 4.825,-3.68 l 5.386,0 0,-63.3669 -5.386,0 c -1.704,0 -4.825,0 -4.825,-3.6797 0,-3.6758 3.121,-3.6758 4.825,-3.6758 l 19,0 c 1.699,0 4.82,0 4.82,3.6758 0,3.6797 -2.836,3.6797 -4.82,3.6797 l -5.391,0 0,24.6094 c 5.105,-5.0899 10.211,-6.2227 13.898,-6.2227 13.047,0 24.672,11.3162 24.672,26.5942 z m -8.222,0 c 0,-11.317 -8.227,-19.2387 -16.735,-19.2387 -9.359,0 -13.613,10.4687 -13.613,16.4097 l 0,8.77 c 0,7.07 7.09,13.297 14.465,13.297 9.074,0 15.883,-8.774 15.883,-19.238"
         inkscape:connector-curvature="0"
         id="path98"
         style="fill:#010101;fill-opacity:1;fill-rule:evenodd;stroke:none" /><path
         d="m 627.039,119.102 c 0,14.992 -11.344,26.875 -24.672,26.875 -13.613,0 -24.676,-11.883 -24.676,-26.875 0,-15.278 11.348,-26.5942 24.676,-26.5942 13.043,0 24.672,11.5972 24.672,26.5942 z m -8.508,0.847 c 0,-11.031 -7.375,-20.0857 -16.164,-20.0857 -8.793,0 -16.449,9.0547 -16.449,20.0857 0,10.75 7.941,18.672 16.449,18.672 8.508,0 16.164,-7.922 16.164,-18.672"
         inkscape:connector-curvature="0"
         id="path100"
         style="fill:#010101;fill-opacity:1;fill-rule:evenodd;stroke:none" /><path
         d="m 690.566,97.0352 c 0,3.6758 -3.121,3.6758 -4.82,3.6758 l -15.598,0 0,60.824 c 0,3.68 -0.851,4.809 -4.824,4.809 l -19,0 c -1.984,0 -4.82,0 -4.82,-3.676 0,-3.68 3.117,-3.68 4.535,-3.68 l 15.602,0 0,-58.277 -15.317,0 c -1.984,0 -4.82,0 -4.82,-3.6758 0,-3.6797 3.117,-3.6797 4.535,-3.6797 l 39.707,0 c 1.699,0 4.82,0 4.82,3.6797"
         inkscape:connector-curvature="0"
         id="path102"
         style="fill:#010101;fill-opacity:1;fill-rule:evenodd;stroke:none" /><path
         d="m 759.766,97.0352 c 0,3.6758 -3.121,3.6758 -5.106,3.6758 l -5.105,0 0,27.727 c 0,12.164 -6.239,17.257 -15.598,17.257 -8.223,0 -13.613,-4.246 -15.883,-6.507 0,3.96 0,5.656 -4.82,5.656 l -8.793,0 c -1.699,0 -4.82,0 -4.82,-3.676 0,-3.68 3.121,-3.68 4.82,-3.68 l 5.391,0 0,-36.777 -5.391,0 c -1.699,0 -4.82,0 -4.82,-3.6758 0,-3.6797 3.121,-3.6797 4.82,-3.6797 l 19.004,0 c 1.699,0 4.82,0 4.82,3.6797 0,3.6758 -2.836,3.6758 -4.82,3.6758 l -5.391,0 0,21.219 c 0,11.882 9.078,16.41 15.031,16.41 6.524,0 7.942,-3.395 7.942,-10.469 l 0,-27.16 -4.539,0 c -1.985,0 -4.82,0 -4.82,-3.6758 0,-3.6797 3.121,-3.6797 4.82,-3.6797 l 18.433,0 c 1.704,0 4.825,0 4.825,3.6797"
         inkscape:connector-curvature="0"
         id="path104"
         style="fill:#010101;fill-opacity:1;fill-rule:evenodd;stroke:none" /><path
         d="m 824.141,96.75 c 0,3.68 -3.118,3.68 -4.821,3.68 -5.105,0 -6.238,0.566 -7.375,0.847 l 0,26.028 c 0,8.488 -6.519,18.672 -23.82,18.672 -5.105,0 -17.301,0 -17.301,-8.77 0,-3.68 2.555,-5.66 5.391,-5.66 1.984,0 5.101,1.133 5.387,5.66 0,0.848 0,1.133 2.55,1.414 1.703,0 3.121,0 4.254,0 9.078,0 15.317,-3.676 15.317,-12.449 -21.27,0 -36.016,-5.938 -36.016,-17.539 0,-8.203 7.656,-16.1252 19.852,-16.1252 4.535,0 11.91,0.8477 17.582,4.5274 2.55,-3.961 8.222,-3.961 12.761,-3.961 3.403,0 6.239,0 6.239,3.6758 z m -20.418,12.449 c 0,-2.828 0,-5.375 -4.539,-7.355 -4.536,-1.9807 -9.926,-1.9807 -10.778,-1.9807 -7.371,0 -12.476,3.9607 -12.476,8.7697 0,5.941 10.492,10.469 27.793,10.469 l 0,-9.903"
         inkscape:connector-curvature="0"
         id="path106"
         style="fill:#010101;fill-opacity:1;fill-rule:evenodd;stroke:none" /><path
         d="m 883.414,113.441 c 0,3.961 -2.836,3.961 -4.254,3.961 -1.133,0 -3.969,0 -3.969,-3.675 -0.851,-11.598 -10.777,-14.4301 -15.601,-14.4301 -11.059,0 -21.27,12.7301 -21.27,30.5551 0,17.824 10.496,30.554 21.27,30.554 7.094,0 13.613,-5.66 15.316,-15.277 0.285,-1.981 0.567,-3.961 4.254,-3.961 4.254,0 4.254,2.547 4.254,4.809 l 0,16.691 c 0,1.98 0,4.809 -3.687,4.809 -2.27,0 -2.836,-1.133 -3.403,-1.981 -0.285,-0.281 -0.285,-0.566 -1.703,-3.676 -3.969,3.395 -9.641,5.657 -15.598,5.657 -15.597,0 -28.925,-15.844 -28.925,-37.625 0,-21.786 13.328,-37.9106 28.925,-37.9106 13.899,0 24.391,10.7496 24.391,21.4996"
         inkscape:connector-curvature="0"
         id="path108"
         style="fill:#010101;fill-opacity:1;fill-rule:evenodd;stroke:none" /><path
         d="m 944.672,106.086 c 0,3.394 -3.402,3.394 -4.254,3.394 -1.984,0 -3.121,-0.281 -3.688,-2.542 -2.835,-5.942 -9.359,-7.0747 -12.476,-7.0747 -9.078,0 -18.152,5.9417 -20.137,16.1247 l 35.735,0 c 2.55,0 4.82,0 4.82,4.528 0,13.578 -7.656,25.461 -23.254,25.461 -14.18,0 -25.809,-12.165 -25.809,-26.875 0,-14.43 12.196,-26.5942 27.793,-26.5942 15.598,0 21.27,10.7502 21.27,13.5782 z m -8.508,16.976 -31.762,0 c 1.7,9.051 8.789,15.559 17.016,15.559 6.238,0 13.609,-3.113 14.746,-15.559"
         inkscape:connector-curvature="0"
         id="path110"
         style="fill:#010101;fill-opacity:1;fill-rule:evenodd;stroke:none" /><path
         d="m 1014.15,97.0352 c 0,3.6758 -3.11,3.6758 -5.1,3.6758 l -5.1,0 0,27.727 c 0,12.164 -6.247,17.257 -15.602,17.257 -8.227,0 -13.614,-4.246 -15.883,-6.507 0,3.96 0,5.656 -4.82,5.656 l -8.793,0 c -1.704,0 -4.821,0 -4.821,-3.676 0,-3.68 3.117,-3.68 4.821,-3.68 l 5.386,0 0,-36.777 -5.386,0 c -1.704,0 -4.821,0 -4.821,-3.6758 0,-3.6797 3.117,-3.6797 4.821,-3.6797 l 19,0 c 1.703,0 4.824,0 4.824,3.6797 0,3.6758 -2.836,3.6758 -4.824,3.6758 l -5.387,0 0,21.219 c 0,11.882 9.074,16.41 15.031,16.41 6.524,0 7.942,-3.395 7.942,-10.469 l 0,-27.16 -4.54,0 c -1.984,0 -4.82,0 -4.82,-3.6758 0,-3.6797 3.117,-3.6797 4.82,-3.6797 l 18.432,0 c 1.71,0 4.82,0 4.82,3.6797"
         inkscape:connector-curvature="0"
         id="path112"
         style="fill:#010101;fill-opacity:1;fill-rule:evenodd;stroke:none" /><path
         d="m 1078.82,96.75 c 0,3.68 -3.12,3.68 -4.83,3.68 -5.1,0 -6.24,0.566 -7.37,0.847 l 0,26.028 c 0,8.488 -6.52,18.672 -23.82,18.672 -5.11,0 -17.3,0 -17.3,-8.77 0,-3.68 2.55,-5.66 5.39,-5.66 1.98,0 5.1,1.133 5.38,5.66 0,0.848 0,1.133 2.56,1.414 1.7,0 3.12,0 4.25,0 9.08,0 15.31,-3.676 15.31,-12.449 -21.27,0 -36.01,-5.938 -36.01,-17.539 0,-8.203 7.66,-16.1252 19.85,-16.1252 4.54,0 11.91,0.8477 17.58,4.5274 2.56,-3.961 8.23,-3.961 12.76,-3.961 3.41,0 6.25,0 6.25,3.6758 z m -20.43,12.449 c 0,-2.828 0,-5.375 -4.53,-7.355 -4.54,-1.9807 -9.93,-1.9807 -10.78,-1.9807 -7.37,0 -12.48,3.9607 -12.48,8.7697 0,5.941 10.49,10.469 27.79,10.469 l 0,-9.903"
         inkscape:connector-curvature="0"
         id="path114"
         style="fill:#010101;fill-opacity:1;fill-rule:evenodd;stroke:none" /><path
         d="m 2256.89,3.96094 -709,0 0,263.09806 1417.72,0 0,-263.09806 -708.72,0"
         inkscape:connector-curvature="0"
         id="path116"
         style="fill:#ffffff;fill-opacity:1;fill-rule:evenodd;stroke:none" /><g
         transform="scale(1.00124,0.998764)"
         id="g118"><path
           d="m 2253.82,4.24744 -707.84,0 0,263.42356 1415.97,0 0,-263.42356 -708.13,0 z"
           inkscape:connector-curvature="0"
           id="path120"
           style="fill:none;stroke:#010101;stroke-width:7.07948017;stroke-linecap:butt;stroke-linejoin:round;stroke-miterlimit:10;stroke-opacity:1;stroke-dasharray:none" /></g><path
         d="m 1676.36,106.371 c 0,3.395 -3.4,3.395 -4.25,3.395 -1.71,0 -3.13,-0.286 -3.97,-2.828 -0.57,-1.415 -2.84,-7.0747 -11.92,-7.0747 -9.92,0 -18.71,8.2027 -18.71,19.2387 0,5.656 3.4,19.519 19.56,19.519 2.56,0 7.09,0 7.09,-1.133 0.29,-4.242 2.56,-5.941 5.39,-5.941 2.84,0 5.39,2.265 5.39,5.66 0,8.77 -12.48,8.77 -17.87,8.77 -20.7,0 -27.79,-16.411 -27.79,-26.875 0,-14.43 11.34,-26.5942 26.38,-26.5942 16.73,0 20.7,11.5972 20.7,13.8632"
         inkscape:connector-curvature="0"
         id="path122"
         style="fill:#010101;fill-opacity:1;fill-rule:evenodd;stroke:none" /><path
         d="m 1739.6,106.086 c 0,3.394 -3.4,3.394 -4.25,3.394 -1.99,0 -3.12,-0.281 -3.69,-2.542 -2.84,-5.942 -9.36,-7.0747 -12.48,-7.0747 -9.07,0 -18.15,5.9417 -20.13,16.1247 l 35.73,0 c 2.55,0 4.82,0 4.82,4.528 0,13.578 -7.65,25.461 -23.25,25.461 -14.18,0 -25.81,-12.165 -25.81,-26.875 0,-14.43 12.19,-26.5942 27.79,-26.5942 15.6,0 21.27,10.7502 21.27,13.5782 z m -8.51,16.976 -31.76,0 c 1.7,9.051 8.79,15.559 17.02,15.559 6.24,0 13.61,-3.113 14.74,-15.559"
         inkscape:connector-curvature="0"
         id="path124"
         style="fill:#010101;fill-opacity:1;fill-rule:evenodd;stroke:none" /><path
         d="m 1809.37,97.0352 c 0,3.6758 -3.12,3.6758 -5.11,3.6758 l -5.1,0 0,27.727 c 0,12.164 -6.24,17.257 -15.6,17.257 -8.22,0 -13.61,-4.246 -15.88,-6.507 0,3.96 0,5.656 -4.82,5.656 l -8.79,0 c -1.71,0 -4.82,0 -4.82,-3.676 0,-3.68 3.11,-3.68 4.82,-3.68 l 5.38,0 0,-36.777 -5.38,0 c -1.71,0 -4.82,0 -4.82,-3.6758 0,-3.6797 3.11,-3.6797 4.82,-3.6797 l 19,0 c 1.7,0 4.82,0 4.82,3.6797 0,3.6758 -2.84,3.6758 -4.82,3.6758 l -5.39,0 0,21.219 c 0,11.882 9.07,16.41 15.03,16.41 6.52,0 7.94,-3.395 7.94,-10.469 l 0,-27.16 -4.54,0 c -1.98,0 -4.82,0 -4.82,-3.6758 0,-3.6797 3.12,-3.6797 4.82,-3.6797 l 18.44,0 c 1.7,0 4.82,0 4.82,3.6797"
         inkscape:connector-curvature="0"
         id="path126"
         style="fill:#010101;fill-opacity:1;fill-rule:evenodd;stroke:none" /><path
         d="m 1873.75,96.75 c 0,3.68 -3.13,3.68 -4.82,3.68 -5.11,0 -6.25,0.566 -7.38,0.847 l 0,26.028 c 0,8.488 -6.52,18.672 -23.82,18.672 -5.11,0 -17.3,0 -17.3,-8.77 0,-3.68 2.55,-5.66 5.39,-5.66 1.98,0 5.1,1.133 5.39,5.66 0,0.848 0,1.133 2.55,1.414 1.7,0 3.12,0 4.25,0 9.08,0 15.31,-3.676 15.31,-12.449 -21.27,0 -36.01,-5.938 -36.01,-17.539 0,-8.203 7.65,-16.1252 19.85,-16.1252 4.54,0 11.91,0.8477 17.59,4.5274 2.55,-3.961 8.22,-3.961 12.76,-3.961 3.4,0 6.24,0 6.24,3.6758 z m -20.43,12.449 c 0,-2.828 0,-5.375 -4.53,-7.355 -4.54,-1.9807 -9.93,-1.9807 -10.78,-1.9807 -7.37,0 -12.47,3.9607 -12.47,8.7697 0,5.941 10.49,10.469 27.78,10.469 l 0,-9.903"
         inkscape:connector-curvature="0"
         id="path128"
         style="fill:#010101;fill-opacity:1;fill-rule:evenodd;stroke:none" /><path
         d="m 1997.11,138.902 c 0,4.246 -4.54,4.246 -6.24,4.246 l -41.41,0 c -1.69,0 -6.23,0 -6.23,-4.246 0,-4.242 3.97,-4.242 5.39,-4.242 l 43.1,0 c 1.42,0 5.39,0 5.39,4.242 z m 0,-18.105 c 0,4.246 -3.97,4.246 -5.39,4.246 l -43.1,0 c -1.42,0 -5.39,0 -5.39,-4.246 0,-4.242 4.54,-4.242 6.23,-4.242 l 41.41,0 c 1.7,0 6.24,0 6.24,4.242"
         inkscape:connector-curvature="0"
         id="path130"
         style="fill:#010101;fill-opacity:1;fill-rule:evenodd;stroke:none" /><path
         d="m 2124.45,119.102 c 0,14.71 -10.5,26.593 -23.26,26.593 -5.67,0 -11.06,-2.265 -15.31,-5.941 0,3.394 -0.29,5.09 -4.82,5.09 l -8.79,0 c -1.71,0 -4.82,0 -4.82,-3.676 0,-3.68 3.11,-3.68 4.82,-3.68 l 5.38,0 0,-63.3669 -5.38,0 c -1.71,0 -4.82,0 -4.82,-3.6797 0,-3.6758 3.11,-3.6758 4.82,-3.6758 l 19,0 c 1.7,0 4.82,0 4.82,3.6758 0,3.6797 -2.84,3.6797 -4.82,3.6797 l -5.39,0 0,24.6094 c 5.1,-5.0899 10.21,-6.2227 13.89,-6.2227 13.05,0 24.68,11.3162 24.68,26.5942 z m -8.23,0 c 0,-11.317 -8.22,-19.2387 -16.73,-19.2387 -9.36,0 -13.61,10.4687 -13.61,16.4097 l 0,8.77 c 0,7.07 7.09,13.297 14.46,13.297 9.08,0 15.88,-8.774 15.88,-19.238"
         inkscape:connector-curvature="0"
         id="path132"
         style="fill:#010101;fill-opacity:1;fill-rule:evenodd;stroke:none" /><path
         d="m 2185.71,119.102 c 0,14.992 -11.35,26.875 -24.68,26.875 -13.61,0 -24.67,-11.883 -24.67,-26.875 0,-15.278 11.34,-26.5942 24.67,-26.5942 13.05,0 24.68,11.5972 24.68,26.5942 z m -8.51,0.847 c 0,-11.031 -7.38,-20.0857 -16.17,-20.0857 -8.79,0 -16.45,9.0547 -16.45,20.0857 0,10.75 7.94,18.672 16.45,18.672 8.51,0 16.17,-7.922 16.17,-18.672"
         inkscape:connector-curvature="0"
         id="path134"
         style="fill:#010101;fill-opacity:1;fill-rule:evenodd;stroke:none" /><path
         d="m 2249.23,97.0352 c 0,3.6758 -3.12,3.6758 -4.82,3.6758 l -15.6,0 0,60.824 c 0,3.68 -0.85,4.809 -4.82,4.809 l -19,0 c -1.99,0 -4.82,0 -4.82,-3.676 0,-3.68 3.12,-3.68 4.54,-3.68 l 15.59,0 0,-58.277 -15.31,0 c -1.99,0 -4.82,0 -4.82,-3.6758 0,-3.6797 3.12,-3.6797 4.54,-3.6797 l 39.7,0 c 1.7,0 4.82,0 4.82,3.6797"
         inkscape:connector-curvature="0"
         id="path136"
         style="fill:#010101;fill-opacity:1;fill-rule:evenodd;stroke:none" /><path
         d="m 2318.43,97.0352 c 0,3.6758 -3.12,3.6758 -5.11,3.6758 l -5.1,0 0,27.727 c 0,12.164 -6.24,17.257 -15.6,17.257 -8.22,0 -13.61,-4.246 -15.88,-6.507 0,3.96 0,5.656 -4.82,5.656 l -8.79,0 c -1.7,0 -4.82,0 -4.82,-3.676 0,-3.68 3.12,-3.68 4.82,-3.68 l 5.39,0 0,-36.777 -5.39,0 c -1.7,0 -4.82,0 -4.82,-3.6758 0,-3.6797 3.12,-3.6797 4.82,-3.6797 l 19,0 c 1.7,0 4.82,0 4.82,3.6797 0,3.6758 -2.84,3.6758 -4.82,3.6758 l -5.39,0 0,21.219 c 0,11.882 9.08,16.41 15.03,16.41 6.52,0 7.94,-3.395 7.94,-10.469 l 0,-27.16 -4.53,0 c -1.99,0 -4.82,0 -4.82,-3.6758 0,-3.6797 3.11,-3.6797 4.82,-3.6797 l 18.43,0 c 1.7,0 4.82,0 4.82,3.6797"
         inkscape:connector-curvature="0"
         id="path138"
         style="fill:#010101;fill-opacity:1;fill-rule:evenodd;stroke:none" /><path
         d="m 2382.81,96.75 c 0,3.68 -3.12,3.68 -4.83,3.68 -5.1,0 -6.23,0.566 -7.37,0.847 l 0,26.028 c 0,8.488 -6.52,18.672 -23.82,18.672 -5.11,0 -17.3,0 -17.3,-8.77 0,-3.68 2.55,-5.66 5.39,-5.66 1.98,0 5.1,1.133 5.39,5.66 0,0.848 0,1.133 2.55,1.414 1.7,0 3.12,0 4.25,0 9.08,0 15.32,-3.676 15.32,-12.449 -21.27,0 -36.02,-5.938 -36.02,-17.539 0,-8.203 7.66,-16.1252 19.85,-16.1252 4.54,0 11.91,0.8477 17.58,4.5274 2.56,-3.961 8.23,-3.961 12.77,-3.961 3.4,0 6.24,0 6.24,3.6758 z m -20.42,12.449 c 0,-2.828 0,-5.375 -4.54,-7.355 -4.54,-1.9807 -9.92,-1.9807 -10.78,-1.9807 -7.37,0 -12.48,3.9607 -12.48,8.7697 0,5.941 10.5,10.469 27.8,10.469 l 0,-9.903"
         inkscape:connector-curvature="0"
         id="path140"
         style="fill:#010101;fill-opacity:1;fill-rule:evenodd;stroke:none" /><path
         d="m 2442.08,113.441 c 0,3.961 -2.84,3.961 -4.26,3.961 -1.13,0 -3.96,0 -3.96,-3.675 -0.86,-11.598 -10.78,-14.4301 -15.6,-14.4301 -11.06,0 -21.27,12.7301 -21.27,30.5551 0,17.824 10.49,30.554 21.27,30.554 7.09,0 13.61,-5.66 15.31,-15.277 0.29,-1.981 0.57,-3.961 4.25,-3.961 4.26,0 4.26,2.547 4.26,4.809 l 0,16.691 c 0,1.98 0,4.809 -3.69,4.809 -2.27,0 -2.83,-1.133 -3.4,-1.981 -0.28,-0.281 -0.28,-0.566 -1.7,-3.676 -3.97,3.395 -9.65,5.657 -15.6,5.657 -15.6,0 -28.93,-15.844 -28.93,-37.625 0,-21.786 13.33,-37.9106 28.93,-37.9106 13.9,0 24.39,10.7496 24.39,21.4996"
         inkscape:connector-curvature="0"
         id="path142"
         style="fill:#010101;fill-opacity:1;fill-rule:evenodd;stroke:none" /><path
         d="m 2503.34,106.086 c 0,3.394 -3.41,3.394 -4.26,3.394 -1.98,0 -3.12,-0.281 -3.68,-2.542 -2.84,-5.942 -9.36,-7.0747 -12.48,-7.0747 -9.08,0 -18.15,5.9417 -20.14,16.1247 l 35.74,0 c 2.55,0 4.82,0 4.82,4.528 0,13.578 -7.66,25.461 -23.26,25.461 -14.18,0 -25.81,-12.165 -25.81,-26.875 0,-14.43 12.2,-26.5942 27.8,-26.5942 15.59,0 21.27,10.7502 21.27,13.5782 z m -8.51,16.976 -31.76,0 c 1.7,9.051 8.79,15.559 17.01,15.559 6.24,0 13.62,-3.113 14.75,-15.559"
         inkscape:connector-curvature="0"
         id="path144"
         style="fill:#010101;fill-opacity:1;fill-rule:evenodd;stroke:none" /><path
         d="m 2572.82,97.0352 c 0,3.6758 -3.12,3.6758 -5.11,3.6758 l -5.1,0 0,27.727 c 0,12.164 -6.24,17.257 -15.6,17.257 -8.22,0 -13.61,-4.246 -15.88,-6.507 0,3.96 0,5.656 -4.82,5.656 l -8.79,0 c -1.7,0 -4.82,0 -4.82,-3.676 0,-3.68 3.12,-3.68 4.82,-3.68 l 5.39,0 0,-36.777 -5.39,0 c -1.7,0 -4.82,0 -4.82,-3.6758 0,-3.6797 3.12,-3.6797 4.82,-3.6797 l 19,0 c 1.7,0 4.82,0 4.82,3.6797 0,3.6758 -2.84,3.6758 -4.82,3.6758 l -5.39,0 0,21.219 c 0,11.882 9.08,16.41 15.03,16.41 6.52,0 7.94,-3.395 7.94,-10.469 l 0,-27.16 -4.54,0 c -1.98,0 -4.82,0 -4.82,-3.6758 0,-3.6797 3.12,-3.6797 4.82,-3.6797 l 18.44,0 c 1.7,0 4.82,0 4.82,3.6797"
         inkscape:connector-curvature="0"
         id="path146"
         style="fill:#010101;fill-opacity:1;fill-rule:evenodd;stroke:none" /><path
         d="m 2637.48,96.75 c 0,3.68 -3.12,3.68 -4.82,3.68 -5.11,0 -6.24,0.566 -7.37,0.847 l 0,26.028 c 0,8.488 -6.53,18.672 -23.83,18.672 -5.1,0 -17.3,0 -17.3,-8.77 0,-3.68 2.55,-5.66 5.39,-5.66 1.99,0 5.11,1.133 5.39,5.66 0,0.848 0,1.133 2.55,1.414 1.71,0 3.12,0 4.26,0 9.07,0 15.31,-3.676 15.31,-12.449 -21.27,0 -36.02,-5.938 -36.02,-17.539 0,-8.203 7.66,-16.1252 19.85,-16.1252 4.54,0 11.92,0.8477 17.59,4.5274 2.55,-3.961 8.22,-3.961 12.76,-3.961 3.4,0 6.24,0 6.24,3.6758 z m -20.42,12.449 c 0,-2.828 0,-5.375 -4.54,-7.355 -4.54,-1.9807 -9.92,-1.9807 -10.77,-1.9807 -7.38,0 -12.48,3.9607 -12.48,8.7697 0,5.941 10.49,10.469 27.79,10.469 l 0,-9.903"
         inkscape:connector-curvature="0"
         id="path148"
         style="fill:#010101;fill-opacity:1;fill-rule:evenodd;stroke:none" /><path
         d="m 2757.73,172.285 c 0,1.981 -1.71,4.246 -4.26,4.246 -2.55,0 -3.4,-1.98 -3.97,-3.394 l -39.7,-82.6097 c -0.85,-1.9804 -0.85,-1.9804 -0.85,-2.8281 0,-2.2617 1.7,-4.2422 3.97,-4.2422 2.83,0 3.69,1.6953 4.25,3.3946 l 39.71,82.6054 c 0.85,1.981 0.85,1.981 0.85,2.828"
         inkscape:connector-curvature="0"
         id="path150"
         style="fill:#010101;fill-opacity:1;fill-rule:evenodd;stroke:none" /><path
         d="m 2885.91,98.168 0,3.109 c 0,2.266 0,5.094 -4.25,5.094 -4.25,0 -4.25,-2.266 -4.25,-5.66 l -28.36,0 c 7.09,5.941 18.43,14.996 23.82,19.805 7.37,6.789 13.04,14.429 13.04,24.046 0,14.145 -12.19,23.2 -26.94,23.2 -14.18,0 -23.54,-9.903 -23.54,-20.086 0,-4.246 3.41,-5.66 5.39,-5.66 2.56,0 5.39,1.98 5.39,5.375 0,1.414 -0.57,3.113 -1.7,3.961 1.7,5.375 7.37,9.054 13.9,9.054 9.92,0 19,-5.379 19,-15.844 0,-8.488 -5.68,-15.558 -13.62,-22.066 l -26.66,-22.066 c -0.84,-1.1331 -1.7,-1.6995 -1.7,-3.3948 0,-3.6797 3.12,-3.6797 4.82,-3.6797 l 40.84,0 c 3.97,0 4.82,1.1328 4.82,4.8125"
         inkscape:connector-curvature="0"
         id="path152"
         style="fill:#010101;fill-opacity:1;fill-rule:evenodd;stroke:none" /><path
         d="m 3933.25,5.09375 -352.23,0 0,261.96525 704.18,0 0,-261.96525 -351.95,0"
         inkscape:connector-curvature="0"
         id="path154"
         style="fill:#ffffff;fill-opacity:1;fill-rule:evenodd;stroke:none" /><g
         transform="scale(1.00124,0.998764)"
         id="g156"><path
           d="m 3928.11,5.38165 -351.51,0 0,262.28935 703.03,0 0,-262.28935 -351.52,0 z"
           inkscape:connector-curvature="0"
           id="path158"
           style="fill:none;stroke:#010101;stroke-width:7.07948017;stroke-linecap:butt;stroke-linejoin:round;stroke-miterlimit:10;stroke-opacity:1;stroke-dasharray:none" /></g><path
         d="m 3734.45,106.938 c 0,3.394 -3.41,3.394 -4.26,3.394 -1.7,0 -3.12,-0.285 -3.97,-2.828 -0.57,-1.418 -2.84,-7.074 -11.91,-7.074 -9.93,0 -18.72,8.203 -18.72,19.238 0,5.656 3.41,19.52 19.57,19.52 2.55,0 7.09,0 7.09,-1.133 0.29,-4.243 2.55,-5.942 5.39,-5.942 2.83,0 5.39,2.266 5.39,5.66 0,8.77 -12.48,8.77 -17.87,8.77 -20.7,0 -27.79,-16.41 -27.79,-26.875 0,-14.43 11.34,-26.5938 26.37,-26.5938 16.73,0 20.71,11.5978 20.71,13.8638"
         inkscape:connector-curvature="0"
         id="path160"
         style="fill:#010101;fill-opacity:1;fill-rule:evenodd;stroke:none" /><path
         d="m 3797.69,106.652 c 0,3.395 -3.4,3.395 -4.26,3.395 -1.98,0 -3.12,-0.281 -3.68,-2.543 -2.84,-5.942 -9.36,-7.074 -12.48,-7.074 -9.07,0 -18.15,5.941 -20.14,16.125 l 35.74,0 c 2.55,0 4.82,0 4.82,4.527 0,13.578 -7.66,25.461 -23.26,25.461 -14.18,0 -25.81,-12.164 -25.81,-26.875 0,-14.43 12.2,-26.5938 27.8,-26.5938 15.6,0 21.27,10.7498 21.27,13.5778 z m -8.51,16.977 -31.76,0 c 1.7,9.051 8.79,15.559 17.01,15.559 6.24,0 13.62,-3.114 14.75,-15.559"
         inkscape:connector-curvature="0"
         id="path162"
         style="fill:#010101;fill-opacity:1;fill-rule:evenodd;stroke:none" /><path
         d="m 3867.45,97.6016 c 0,3.6754 -3.12,3.6754 -5.1,3.6754 l -5.11,0 0,27.727 c 0,12.164 -6.24,17.254 -15.6,17.254 -8.22,0 -13.61,-4.242 -15.87,-6.504 0,3.961 0,5.656 -4.83,5.656 l -8.79,0 c -1.7,0 -4.82,0 -4.82,-3.676 0,-3.679 3.12,-3.679 4.82,-3.679 l 5.39,0 0,-36.778 -5.39,0 c -1.7,0 -4.82,0 -4.82,-3.6754 0,-3.6797 3.12,-3.6797 4.82,-3.6797 l 19,0 c 1.71,0 4.82,0 4.82,3.6797 0,3.6754 -2.83,3.6754 -4.82,3.6754 l -5.38,0 0,21.219 c 0,11.883 9.07,16.406 15.03,16.406 6.52,0 7.93,-3.394 7.93,-10.464 l 0,-27.161 -4.53,0 c -1.99,0 -4.82,0 -4.82,-3.6754 0,-3.6797 3.12,-3.6797 4.82,-3.6797 l 18.43,0 c 1.7,0 4.82,0 4.82,3.6797"
         inkscape:connector-curvature="0"
         id="path164"
         style="fill:#010101;fill-opacity:1;fill-rule:evenodd;stroke:none" /><path
         d="m 3931.83,97.3164 c 0,3.6796 -3.12,3.6796 -4.82,3.6796 -5.1,0 -6.24,0.566 -7.37,0.848 l 0,26.027 c 0,8.488 -6.53,18.672 -23.83,18.672 -5.1,0 -17.29,0 -17.29,-8.77 0,-3.679 2.55,-5.66 5.38,-5.66 1.99,0 5.11,1.133 5.39,5.66 0,0.848 0,1.129 2.55,1.415 1.7,0 3.12,0 4.26,0 9.07,0 15.31,-3.68 15.31,-12.45 -21.27,0 -36.02,-5.941 -36.02,-17.539 0,-8.203 7.66,-16.1248 19.86,-16.1248 4.54,0 11.91,0.8477 17.58,4.5274 2.55,-3.961 8.22,-3.961 12.76,-3.961 3.41,0 6.24,0 6.24,3.6758 z m -20.42,12.4496 c 0,-2.828 0,-5.375 -4.53,-7.356 -4.54,-1.98 -9.93,-1.98 -10.78,-1.98 -7.38,0 -12.48,3.961 -12.48,8.769 0,5.942 10.49,10.469 27.79,10.469 l 0,-9.902"
         inkscape:connector-curvature="0"
         id="path166"
         style="fill:#010101;fill-opacity:1;fill-rule:evenodd;stroke:none" /><path
         d="m 4055.2,139.469 c 0,4.246 -4.54,4.246 -6.24,4.246 l -41.41,0 c -1.7,0 -6.24,0 -6.24,-4.246 0,-4.242 3.97,-4.242 5.39,-4.242 l 43.11,0 c 1.42,0 5.39,0 5.39,4.242 z m 0,-18.106 c 0,4.246 -3.97,4.246 -5.39,4.246 l -43.11,0 c -1.42,0 -5.39,0 -5.39,-4.246 0,-4.242 4.54,-4.242 6.24,-4.242 l 41.41,0 c 1.7,0 6.24,0 6.24,4.242"
         inkscape:connector-curvature="0"
         id="path168"
         style="fill:#010101;fill-opacity:1;fill-rule:evenodd;stroke:none" /><path
         d="m 4181.11,130.418 c 0,22.066 -12.47,37.906 -25.52,37.906 -13.61,0 -25.52,-16.125 -25.52,-37.906 0,-22.352 12.19,-37.9102 25.52,-37.9102 13.33,0 25.52,16.1252 25.52,37.9102 z m -8.5,1.129 c 0,-17.539 -7.66,-31.6837 -17.02,-31.6837 -9.36,0 -17.3,14.1447 -17.3,31.6837 0,17.543 8.51,29.422 17.3,29.422 8.79,0 17.02,-11.598 17.02,-29.422"
         inkscape:connector-curvature="0"
         id="path170"
         style="fill:#010101;fill-opacity:1;fill-rule:evenodd;stroke:none" /><g
         transform="scale(1.00124,0.998764)"
         id="g172"><path
           d="m 2169.13,1281.7 888.84,0 0,-259.73"
           inkscape:connector-curvature="0"
           id="path174"
           style="fill:none;stroke:#010101;stroke-width:7.36450005;stroke-linecap:butt;stroke-linejoin:round;stroke-miterlimit:10;stroke-opacity:1;stroke-dasharray:none" /></g><path
         d="m 3061.75,948.562 25.23,75.538 -50.48,0 25.25,-75.538"
         inkscape:connector-curvature="0"
         id="path176"
         style="fill:#010101;fill-opacity:1;fill-rule:evenodd;stroke:none" /><g
         transform="scale(1.00124,0.998764)"
         id="g178"><path
           d="m 1177.75,1281.7 -607.568,0 0,-942.085"
           inkscape:connector-curvature="0"
           id="path180"
           style="fill:none;stroke:#010101;stroke-width:7.36450005;stroke-linecap:butt;stroke-linejoin:round;stroke-miterlimit:10;stroke-opacity:1;stroke-dasharray:none" /></g><path
         d="m 570.887,267.059 25.242,75.535 -50.484,0 25.242,-75.535"
         inkscape:connector-curvature="0"
         id="path182"
         style="fill:#010101;fill-opacity:1;fill-rule:evenodd;stroke:none" /><g
         transform="scale(1.00124,0.998764)"
         id="g184"><path
           d="m 2562.56,693.677 -308.45,0 0,-354.062"
           inkscape:connector-curvature="0"
           id="path186"
           style="fill:none;stroke:#010101;stroke-width:7.36450005;stroke-linecap:butt;stroke-linejoin:round;stroke-miterlimit:10;stroke-opacity:1;stroke-dasharray:none" /></g><path
         d="m 2256.89,267.059 25.24,75.535 -50.48,0 25.24,-75.535"
         inkscape:connector-curvature="0"
         id="path188"
         style="fill:#010101;fill-opacity:1;fill-rule:evenodd;stroke:none" /><g
         transform="scale(1.00124,0.998764)"
         id="g190"><path
           d="m 3553.66,693.677 374.74,0 0,-354.062"
           inkscape:connector-curvature="0"
           id="path192"
           style="fill:none;stroke:#010101;stroke-width:7.36450005;stroke-linecap:butt;stroke-linejoin:round;stroke-miterlimit:10;stroke-opacity:1;stroke-dasharray:none" /></g><path
         d="m 3933.25,267.059 25.24,75.535 -50.48,0 25.24,-75.535"
         inkscape:connector-curvature="0"
         id="path194"
         style="fill:#010101;fill-opacity:1;fill-rule:evenodd;stroke:none" /><path
         d="m 2441.51,761.566 c 0,23.2 -16.16,42.153 -36.3,42.153 l -30.63,0 0,-82.891 30.63,0 c 20.14,0 36.3,18.106 36.3,40.738 z m -10.21,0 c 0,-21.781 -13.33,-33.949 -28.92,-33.949 l -17.87,0 0,69.313 17.87,0 c 16.16,0 28.92,-13.578 28.92,-35.364"
         inkscape:connector-curvature="0"
         id="path196"
         style="fill:#010101;fill-opacity:1;fill-rule:evenodd;stroke:none" /><path
         d="m 2518.37,720.828 -30.35,83.172 -10.49,0 -30.35,-83.172 9.08,0 8.79,24.332 33.75,0 8.79,-24.332 10.78,0 z m -22.12,31.121 -28.64,0 14.18,43.281 14.46,-43.281"
         inkscape:connector-curvature="0"
         id="path198"
         style="fill:#010101;fill-opacity:1;fill-rule:evenodd;stroke:none" /><path
         d="m 3728.21,720.828 0,82.891 -9.08,0 0,-74.121 -0.28,0 -9.65,20.086 -26.37,54.035 -14.75,0 0,-82.891 9.08,0 0,74.121 9.92,-20.086 26.38,-54.035 14.75,0"
         inkscape:connector-curvature="0"
         id="path200"
         style="fill:#010101;fill-opacity:1;fill-rule:evenodd;stroke:none" /><path
         d="m 3804.78,720.828 0,8.207 -15.89,0 c -1.41,0 -2.83,-0.285 -4.25,-0.285 l -23.82,0 0,31.684 39.14,0 0,7.074 -39.14,0 0,28.574 16.45,0 c 1.42,0 2.84,0 4.25,0 l 21.55,0 0,7.637 -52.46,0 0,-82.891 54.17,0"
         inkscape:connector-curvature="0"
         id="path202"
         style="fill:#010101;fill-opacity:1;fill-rule:evenodd;stroke:none" /><path
         d="m 910.074,1349.71 c 0,23.2 -16.168,42.16 -36.301,42.16 l -30.628,0 0,-82.89 30.628,0 c 20.133,0 36.301,18.11 36.301,40.73 z m -10.211,0 c 0,-21.78 -13.328,-33.94 -28.925,-33.94 l -17.868,0 0,69.31 17.868,0 c 16.164,0 28.925,-13.58 28.925,-35.37"
         inkscape:connector-curvature="0"
         id="path204"
         style="fill:#010101;fill-opacity:1;fill-rule:evenodd;stroke:none" /><path
         d="m 986.93,1308.98 -30.348,83.17 -10.492,0 -30.344,-83.17 9.074,0 8.789,24.33 33.75,0 8.793,-24.33 10.778,0 z m -22.121,31.12 -28.645,0 14.18,43.28 14.465,-43.28"
         inkscape:connector-curvature="0"
         id="path206"
         style="fill:#010101;fill-opacity:1;fill-rule:evenodd;stroke:none" /><path
         d="m 2550.98,1308.98 0,82.89 -9.07,0 0,-74.12 -0.29,0 -9.64,20.09 -26.37,54.03 -14.75,0 0,-82.89 9.07,0 0,74.12 9.93,-20.09 26.37,-54.03 14.75,0"
         inkscape:connector-curvature="0"
         id="path208"
         style="fill:#010101;fill-opacity:1;fill-rule:evenodd;stroke:none" /><path
         d="m 2627.55,1308.98 0,8.2 -15.88,0 c -1.42,0 -2.83,-0.28 -4.25,-0.28 l -23.82,0 0,31.69 39.13,0 0,7.07 -39.13,0 0,28.57 16.44,0 c 1.42,0 2.84,0 4.26,0 l 21.55,0 0,7.64 -52.46,0 0,-82.89 54.16,0"
         inkscape:connector-curvature="0"
         id="path210"
         style="fill:#010101;fill-opacity:1;fill-rule:evenodd;stroke:none" /></g></g></svg>