<?xml version="1.0" encoding="UTF-8" standalone="no"?>
<svg
   xmlns:dc="http://purl.org/dc/elements/1.1/"
   xmlns:cc="http://creativecommons.org/ns#"
   xmlns:rdf="http://www.w3.org/1999/02/22-rdf-syntax-ns#"
   xmlns:svg="http://www.w3.org/2000/svg"
   xmlns="http://www.w3.org/2000/svg"
   viewBox="0 0 503.75 63.75"
   height="63.75"
   width="503.75"
   xml:space="preserve"
   version="1.1"
   id="svg2"><metadata
     id="metadata8"><rdf:RDF><cc:Work
         rdf:about=""><dc:format>image/svg+xml</dc:format><dc:type
           rdf:resource="http://purl.org/dc/dcmitype/StillImage" /></cc:Work></rdf:RDF></metadata><defs
     id="defs6" /><g
     transform="matrix(1.25,0,0,-1.25,0,63.75)"
     id="g10"><g
       transform="scale(0.1,0.1)"
       id="g12"><path
         id="path14"
         style="fill:#ffffff;fill-opacity:1;fill-rule:evenodd;stroke:none"
         d="m 1255.59,3.96094 -611.649,0 0,502.25006 1223.289,0 0,-502.25006 -611.64,0" /><g
         transform="scale(1.00088,0.999117)"
         id="g16"><path
           id="path18"
           style="fill:none;stroke:#010101;stroke-width:7.0718298;stroke-linecap:butt;stroke-linejoin:round;stroke-miterlimit:10;stroke-dasharray:none;stroke-opacity:1"
           d="m 1254.48,4.24594 -611.107,0 0,502.69806 1221.927,0 0,-502.69806 -610.82,0 z" /></g><path
         id="path20"
         style="fill:#ffffff;fill-opacity:1;fill-rule:evenodd;stroke:none"
         d="m 895.793,75.7891 -179.895,0 0,358.8749 359.792,0 0,-358.8749 -179.897,0" /><g
         transform="scale(1.00088,0.999117)"
         id="g22"><path
           id="path24"
           style="fill:none;stroke:#010101;stroke-width:7.0718298;stroke-linecap:butt;stroke-linejoin:round;stroke-miterlimit:10;stroke-dasharray:none;stroke-opacity:1"
           d="m 895.002,75.8561 -179.735,0 0,359.1919 359.473,0 0,-359.1919 -179.738,0 z" /></g><path
         id="path26"
         style="fill:#010101;fill-opacity:1;fill-rule:evenodd;stroke:none"
         d="m 865.766,208.141 27.48,0 0,99.828 -29.746,-6.785 0,16.117 29.461,6.504 17.848,0 0,-115.664 27.199,0 0,-14.989 -72.242,0 0,14.989" /><path
         id="path28"
         style="fill:#ffffff;fill-opacity:1;fill-rule:evenodd;stroke:none"
         d="m 1255.59,75.7891 -179.9,0 0,358.8749 359.79,0 0,-358.8749 -179.89,0" /><g
         transform="scale(1.00088,0.999117)"
         id="g30"><path
           id="path32"
           style="fill:none;stroke:#010101;stroke-width:7.0718298;stroke-linecap:butt;stroke-linejoin:round;stroke-miterlimit:10;stroke-dasharray:none;stroke-opacity:1"
           d="m 1254.48,75.8561 -179.74,0 0,359.1919 359.47,0 0,-359.1919 -179.73,0 z" /></g><path
         id="path34"
         style="fill:#010101;fill-opacity:1;fill-rule:evenodd;stroke:none"
         d="m 1213.94,323.805 82.44,0 0,-7.633 -47.03,-123.02 -18.41,0 45.61,115.664 -62.61,0 0,14.989" /><path
         id="path36"
         style="fill:#ffffff;fill-opacity:1;fill-rule:evenodd;stroke:none"
         d="m 1615.38,75.7891 -179.9,0 0,358.8749 359.79,0 0,-358.8749 -179.89,0" /><g
         transform="scale(1.00088,0.999117)"
         id="g38"><path
           id="path40"
           style="fill:none;stroke:#010101;stroke-width:7.0718298;stroke-linecap:butt;stroke-linejoin:round;stroke-miterlimit:10;stroke-dasharray:none;stroke-opacity:1"
           d="m 1613.95,75.8561 -179.74,0 0,359.1919 359.19,0 0,-359.1919 -179.45,0 z" /></g><path
         id="path42"
         style="fill:#010101;fill-opacity:1;fill-rule:evenodd;stroke:none"
         d="m 1629.54,263.285 c 8.5,-2.262 15.3,-6.504 19.83,-12.16 4.54,-5.937 6.8,-13.008 6.8,-21.773 0,-12.161 -3.96,-21.493 -12.18,-28.563 -8.22,-6.789 -19.26,-10.184 -33.71,-10.184 -5.95,0 -12.19,0.567 -18.42,1.7 -6.23,1.129 -12.46,2.828 -18.41,4.808 l 0,17.532 c 5.95,-3.11 11.9,-5.372 17.56,-6.786 5.95,-1.414 11.62,-2.265 17.28,-2.265 9.92,0 17.28,2.265 22.39,6.508 5.38,4.523 7.93,10.746 7.93,18.945 0,7.637 -2.55,13.574 -7.93,18.101 -5.11,4.524 -12.19,6.786 -20.97,6.786 l -13.6,0 0,14.421 13.6,0 c 7.93,0 14.45,1.7 18.98,5.375 4.54,3.395 6.8,8.485 6.8,14.708 0,6.785 -1.98,11.875 -6.23,15.55 -4.25,3.676 -10.48,5.375 -18.13,5.375 -5.38,0 -10.77,-0.566 -16.15,-1.699 -5.67,-1.129 -11.62,-3.109 -17.57,-5.371 l 0,16.402 c 7.09,1.981 13.32,3.395 18.98,4.243 5.39,0.847 10.49,1.414 14.74,1.414 12.75,0 22.94,-3.11 30.59,-9.618 7.65,-6.218 11.33,-14.703 11.33,-25.449 0,-7.07 -1.98,-13.012 -5.94,-17.816 -3.97,-4.809 -9.92,-8.203 -17.57,-10.184" /><path
         id="path44"
         style="fill:#010101;fill-opacity:1;fill-rule:evenodd;stroke:none"
         d="m 132.586,265.266 -5.383,0 c -9.633,0 -16.715,-1.696 -21.531,-4.809 -4.817,-3.391 -7.0822,-8.199 -7.0822,-14.703 0,-5.941 1.6992,-10.465 5.3832,-13.859 3.679,-3.11 8.496,-4.805 14.73,-4.805 9.067,0 16.149,3.109 21.246,9.332 5.102,5.937 7.649,14.422 7.649,25.168 l 0,3.676 -15.012,0 z m 31.16,6.789 0,-55.996 -16.148,0 0,14.707 c -3.399,-5.942 -7.93,-10.184 -13.032,-13.008 -5.382,-2.828 -11.613,-4.242 -19.261,-4.242 -9.918,0 -17.848,2.828 -23.7972,8.48 -5.9531,5.656 -9.0664,13.293 -9.0664,22.625 0,11.031 3.6836,19.231 11.0469,24.887 7.3667,5.656 18.1327,8.484 32.2967,8.484 l 21.813,0 0,2.547 c 0,7.918 -1.981,13.574 -5.95,16.965 -3.964,3.68 -10.195,5.375 -18.98,5.375 -5.383,0 -11.047,-0.848 -16.715,-2.262 -5.664,-1.699 -11.0467,-3.961 -16.4296,-7.07 l 0,16.117 c 5.9493,2.266 11.6136,3.961 17.2816,5.094 5.383,1.129 10.765,1.695 15.863,1.695 8.215,0 15.016,-1.133 20.965,-3.676 5.668,-2.261 10.48,-5.937 13.883,-10.746 2.265,-2.828 3.964,-6.504 4.816,-10.746 0.848,-4.242 1.414,-10.746 1.414,-19.23" /><g
         transform="scale(1.00088,0.999117)"
         id="g46"><path
           id="path48"
           style="fill:none;stroke:#010101;stroke-width:7.35930014;stroke-linecap:butt;stroke-linejoin:round;stroke-miterlimit:10;stroke-dasharray:none;stroke-opacity:1"
           d="m 219.08,269.746 327.207,0" /></g><path
         id="path50"
         style="fill:#010101;fill-opacity:1;fill-rule:evenodd;stroke:none"
         d="m 643.941,269.508 -101.707,33.937 0,-67.871 101.707,33.934" /><path
         id="path52"
         style="fill:#ffffff;fill-opacity:1;fill-rule:evenodd;stroke:none"
         d="m 3414.05,3.96094 -611.65,0 0,502.25006 1223.29,0 0,-502.25006 -611.64,0" /><g
         transform="scale(1.00088,0.999117)"
         id="g54"><path
           id="path56"
           style="fill:none;stroke:#010101;stroke-width:7.0718298;stroke-linecap:butt;stroke-linejoin:round;stroke-miterlimit:10;stroke-dasharray:none;stroke-opacity:1"
           d="m 3411.03,4.24594 -611.1,0 0,502.69806 1221.93,0 0,-502.69806 -610.83,0 z" /></g><path
         id="path58"
         style="fill:#ffffff;fill-opacity:1;fill-rule:evenodd;stroke:none"
         d="m 3054.26,75.7891 -179.9,0 0,358.8749 359.79,0 0,-358.8749 -179.89,0" /><g
         transform="scale(1.00088,0.999117)"
         id="g60"><path
           id="path62"
           style="fill:none;stroke:#010101;stroke-width:7.0718298;stroke-linecap:butt;stroke-linejoin:round;stroke-miterlimit:10;stroke-dasharray:none;stroke-opacity:1"
           d="m 3051.56,75.8561 -179.73,0 0,359.1919 359.47,0 0,-359.1919 -179.74,0 z" /></g><path
         id="path64"
         style="fill:#010101;fill-opacity:1;fill-rule:evenodd;stroke:none"
         d="m 3024.23,208.141 27.48,0 0,99.828 -29.75,-6.785 0,16.117 29.47,6.504 17.84,0 0,-115.664 27.2,0 0,-14.989 -72.24,0 0,14.989" /><path
         id="path66"
         style="fill:#ffffff;fill-opacity:1;fill-rule:evenodd;stroke:none"
         d="m 3414.05,75.7891 -179.9,0 0,358.8749 359.8,0 0,-358.8749 -179.9,0" /><g
         transform="scale(1.00088,0.999117)"
         id="g68"><path
           id="path70"
           style="fill:none;stroke:#010101;stroke-width:7.0718298;stroke-linecap:butt;stroke-linejoin:round;stroke-miterlimit:10;stroke-dasharray:none;stroke-opacity:1"
           d="m 3411.03,75.8561 -179.73,0 0,359.1919 359.47,0 0,-359.1919 -179.74,0 z" /></g><path
         id="path72"
         style="fill:#010101;fill-opacity:1;fill-rule:evenodd;stroke:none"
         d="m 3393.09,208.141 60.05,0 0,-14.989 -79.6,0 0,14.989 c 11.05,11.593 20.39,21.777 28.61,30.543 8.22,8.765 13.88,14.988 17,18.664 5.95,7.07 9.91,12.726 11.9,17.25 1.98,4.242 3.11,8.769 3.11,13.293 0,7.351 -2.27,13.007 -6.51,17.25 -4.25,4.242 -10.2,6.222 -17.57,6.222 -5.38,0 -11.04,-0.847 -16.71,-2.828 -5.95,-1.98 -12.18,-4.808 -18.7,-8.765 l 0,17.816 c 5.95,2.828 11.9,5.09 17.85,6.504 5.66,1.414 11.61,2.262 17.28,2.262 12.75,0 22.95,-3.395 30.88,-10.18 7.65,-6.789 11.61,-15.84 11.61,-26.867 0,-5.375 -1.41,-11.032 -3.96,-16.684 -2.55,-5.656 -6.8,-11.879 -12.47,-18.668 -3.4,-3.676 -8.21,-9.047 -14.45,-15.555 -6.23,-6.785 -15.58,-16.964 -28.32,-30.257" /><path
         id="path74"
         style="fill:#ffffff;fill-opacity:1;fill-rule:evenodd;stroke:none"
         d="m 3773.84,75.7891 -179.89,0 0,358.8749 359.78,0 0,-358.8749 -179.89,0" /><g
         transform="scale(1.00088,0.999117)"
         id="g76"><path
           id="path78"
           style="fill:none;stroke:#010101;stroke-width:7.0718298;stroke-linecap:butt;stroke-linejoin:round;stroke-miterlimit:10;stroke-dasharray:none;stroke-opacity:1"
           d="m 3770.22,75.8561 -179.45,0 0,359.1919 359.19,0 0,-359.1919 -179.74,0 z" /></g><path
         id="path80"
         style="fill:#010101;fill-opacity:1;fill-rule:evenodd;stroke:none"
         d="m 3788,263.285 c 8.5,-2.262 15.3,-6.504 19.84,-12.16 4.53,-5.937 6.8,-13.008 6.8,-21.773 0,-12.161 -3.97,-21.493 -12.19,-28.563 -8.21,-6.789 -19.26,-10.184 -33.71,-10.184 -5.95,0 -12.18,0.567 -18.42,1.7 -6.23,1.129 -12.46,2.828 -18.41,4.808 l 0,17.532 c 5.95,-3.11 11.9,-5.372 17.57,-6.786 5.95,-1.414 11.61,-2.265 17.28,-2.265 9.91,0 17.28,2.265 22.38,6.508 5.38,4.523 7.93,10.746 7.93,18.945 0,7.637 -2.55,13.574 -7.93,18.101 -5.1,4.524 -12.18,6.786 -20.97,6.786 l -13.6,0 0,14.421 13.6,0 c 7.94,0 14.45,1.7 18.99,5.375 4.53,3.395 6.79,8.485 6.79,14.708 0,6.785 -1.98,11.875 -6.23,15.55 -4.25,3.676 -10.48,5.375 -18.13,5.375 -5.38,0 -10.77,-0.566 -16.15,-1.699 -5.66,-1.129 -11.61,-3.109 -17.56,-5.371 l 0,16.402 c 7.08,1.981 13.31,3.395 18.98,4.243 5.38,0.847 10.48,1.414 14.73,1.414 12.75,0 22.95,-3.11 30.6,-9.618 7.65,-6.218 11.33,-14.703 11.33,-25.449 0,-7.07 -1.98,-13.012 -5.95,-17.816 -3.97,-4.809 -9.92,-8.203 -17.57,-10.184" /><path
         id="path82"
         style="fill:#010101;fill-opacity:1;fill-rule:evenodd;stroke:none"
         d="m 2310.31,264.984 c 0,12.442 -1.98,22.059 -5.95,28.278 -3.97,6.508 -9.91,9.617 -17.84,9.617 -7.65,0 -13.6,-3.109 -17.85,-9.617 -3.97,-6.504 -5.95,-15.836 -5.95,-28.278 0,-12.445 1.98,-21.777 5.95,-28.281 4.25,-6.504 10.2,-9.613 17.85,-9.613 7.93,0 13.87,3.109 17.84,9.613 3.97,6.223 5.95,15.836 5.95,28.281 z m -47.59,36.762 c 2.55,4.527 6.23,8.203 10.76,10.746 4.54,2.547 9.63,3.961 15.58,3.961 11.9,0 21.25,-4.523 28.05,-13.574 6.8,-9.051 10.2,-21.492 10.2,-37.613 0,-16.118 -3.4,-28.844 -10.2,-37.895 -6.8,-9.332 -16.15,-13.855 -28.05,-13.855 -5.95,0 -11.04,1.129 -15.58,3.675 -4.53,2.543 -7.93,6.219 -10.76,11.028 l 0,-12.16 -16.15,0 0,136.308 16.15,0 0,-50.621" /><g
         transform="scale(1.00088,0.999117)"
         id="g84"><path
           id="path86"
           style="fill:none;stroke:#010101;stroke-width:7.35930014;stroke-linecap:butt;stroke-linejoin:round;stroke-miterlimit:10;stroke-dasharray:none;stroke-opacity:1"
           d="m 2375.64,269.746 326.92,0" /></g><path
         id="path88"
         style="fill:#010101;fill-opacity:1;fill-rule:evenodd;stroke:none"
         d="m 2802.4,269.508 -101.99,33.937 0,-67.871 101.99,33.934" /></g></g></svg>