<?xml version="1.0" encoding="UTF-8" standalone="no"?>
<svg
   xmlns:dc="http://purl.org/dc/elements/1.1/"
   xmlns:cc="http://creativecommons.org/ns#"
   xmlns:rdf="http://www.w3.org/1999/02/22-rdf-syntax-ns#"
   xmlns:svg="http://www.w3.org/2000/svg"
   xmlns="http://www.w3.org/2000/svg"
   viewBox="0 0 233.75 92.5"
   height="92.5"
   width="233.75"
   xml:space="preserve"
   version="1.1"
   id="svg2"><metadata
     id="metadata8"><rdf:RDF><cc:Work
         rdf:about=""><dc:format>image/svg+xml</dc:format><dc:type
           rdf:resource="http://purl.org/dc/dcmitype/StillImage" /></cc:Work></rdf:RDF></metadata><defs
     id="defs6" /><g
     transform="matrix(1.25,0,0,-1.25,0,92.5)"
     id="g10"><g
       transform="scale(0.1,0.1)"
       id="g12"><path
         id="path14"
         style="fill:#ffffff;fill-opacity:1;fill-rule:evenodd;stroke:none"
         d="m 1252.44,116.281 -613.155,0 0,507.297 1226.595,0 0,-507.297 -613.44,0" /><g
         transform="scale(0.998243,1.00176)"
         id="g16"><path
           id="path18"
           style="fill:none;stroke:#010101;stroke-width:7.1100502;stroke-linecap:butt;stroke-linejoin:round;stroke-miterlimit:10;stroke-dasharray:none;stroke-opacity:1"
           d="m 1254.65,116.362 -614.525,0 0,506.122 1228.755,0 0,-506.122 -614.23,0 z" /></g><path
         id="path20"
         style="fill:#ffffff;fill-opacity:1;fill-rule:evenodd;stroke:none"
         d="m 891.762,189.238 -180.34,0 0,361.953 360.398,0 0,-361.953 -180.058,0" /><g
         transform="scale(0.998243,1.00176)"
         id="g22"><path
           id="path24"
           style="fill:none;stroke:#010101;stroke-width:7.1100502;stroke-linecap:butt;stroke-linejoin:round;stroke-miterlimit:10;stroke-dasharray:none;stroke-opacity:1"
           d="m 893.046,189.191 -180.657,0 0,361.033 361.311,0 0,-361.033 -180.654,0 z" /></g><path
         id="path26"
         style="fill:#010101;fill-opacity:1;fill-rule:evenodd;stroke:none"
         d="m 861.656,322.621 27.547,0 0,100.891 -29.82,-6.84 0,16.242 29.539,6.555 17.891,0 0,-116.848 27.261,0 0,-15.105 -72.418,0 0,15.105" /><path
         id="path28"
         style="fill:#ffffff;fill-opacity:1;fill-rule:evenodd;stroke:none"
         d="m 1252.16,189.238 -180.34,0 0,361.953 360.68,0 0,-361.953 -180.34,0" /><g
         transform="scale(0.998243,1.00176)"
         id="g30"><path
           id="path32"
           style="fill:none;stroke:#010101;stroke-width:7.1100502;stroke-linecap:butt;stroke-linejoin:round;stroke-miterlimit:10;stroke-dasharray:none;stroke-opacity:1"
           d="m 1254.36,189.191 -180.66,0 0,361.033 361.32,0 0,-361.033 -180.66,0 z" /></g><path
         id="path34"
         style="fill:#010101;fill-opacity:1;fill-rule:evenodd;stroke:none"
         d="m 1231.14,322.621 60.21,0 0,-15.105 -79.81,0 0,15.105 c 11.08,11.684 20.45,21.945 28.69,30.777 8.23,8.836 13.91,15.106 17.04,18.813 5.96,7.125 9.94,12.824 11.93,17.383 1.98,4.277 3.12,8.836 3.12,13.394 0,7.41 -2.27,13.114 -6.53,17.387 -4.26,4.273 -10.23,6.27 -17.61,6.27 -5.39,0 -11.07,-0.856 -16.75,-2.848 -5.97,-1.996 -12.22,-4.848 -18.75,-8.836 l 0,17.953 c 5.96,2.852 11.93,5.133 17.89,6.555 5.68,1.426 11.64,2.281 17.32,2.281 12.79,0 23.01,-3.422 30.96,-10.262 7.67,-6.84 11.65,-15.957 11.65,-27.074 0,-5.414 -1.43,-11.113 -3.98,-16.812 -2.56,-5.704 -6.82,-11.973 -12.5,-18.813 -3.4,-3.703 -8.23,-9.117 -14.48,-15.676 -6.25,-6.84 -15.62,-17.097 -28.4,-30.492" /><path
         id="path36"
         style="fill:#ffffff;fill-opacity:1;fill-rule:evenodd;stroke:none"
         d="m 1612.84,189.238 -180.34,0 0,361.953 360.68,0 0,-361.953 -180.34,0" /><g
         transform="scale(0.998243,1.00176)"
         id="g38"><path
           id="path40"
           style="fill:none;stroke:#010101;stroke-width:7.1100502;stroke-linecap:butt;stroke-linejoin:round;stroke-miterlimit:10;stroke-dasharray:none;stroke-opacity:1"
           d="m 1615.39,189.191 -180.37,0 0,361.033 361.03,0 0,-361.033 -180.66,0 z" /></g><path
         id="path42"
         style="fill:#010101;fill-opacity:1;fill-rule:evenodd;stroke:none"
         d="m 1627.04,378.195 c 8.51,-2.281 15.33,-6.554 19.88,-12.254 4.54,-5.988 6.81,-13.113 6.81,-21.945 0,-12.258 -3.97,-21.66 -12.21,-28.785 -8.23,-6.84 -19.31,-10.262 -33.8,-10.262 -5.96,0 -12.21,0.571 -18.45,1.711 -6.25,1.141 -12.5,2.852 -18.47,4.844 l 0,17.672 c 5.97,-3.137 11.93,-5.414 17.61,-6.84 5.97,-1.426 11.64,-2.281 17.32,-2.281 9.95,0 17.33,2.281 22.44,6.554 5.4,4.563 7.96,10.832 7.96,19.094 0,7.695 -2.56,13.684 -7.96,18.242 -5.11,4.559 -12.21,6.84 -21.01,6.84 l -13.64,0 0,14.535 13.64,0 c 7.95,0 14.48,1.711 19.02,5.414 4.55,3.422 6.82,8.551 6.82,14.821 0,6.84 -1.99,11.968 -6.25,15.675 -4.26,3.704 -10.5,5.415 -18.18,5.415 -5.39,0 -10.78,-0.571 -16.18,-1.711 -5.68,-1.137 -11.64,-3.133 -17.61,-5.414 l 0,16.531 c 7.1,1.996 13.35,3.418 19.03,4.273 5.39,0.856 10.51,1.426 14.76,1.426 12.79,0 23.01,-3.137 30.68,-9.691 7.67,-6.27 11.36,-14.821 11.36,-25.649 0,-7.125 -1.99,-13.109 -5.97,-17.957 -3.97,-4.844 -9.94,-8.262 -17.6,-10.258" /><path
         id="path44"
         style="fill:#010101;fill-opacity:1;fill-rule:evenodd;stroke:none"
         d="m 132.91,586.246 -5.394,0 c -9.657,0 -16.754,-1.711 -21.582,-4.848 -4.829,-3.418 -7.102,-8.261 -7.102,-14.82 0,-5.984 1.703,-10.543 5.395,-13.965 3.695,-3.133 8.519,-4.843 14.769,-4.843 9.09,0 16.188,3.136 21.301,9.406 5.109,5.984 7.668,14.535 7.668,25.363 l 0,3.707 -15.055,0 z m 31.242,6.84 0,-56.43 -16.187,0 0,14.821 c -3.41,-5.989 -7.953,-10.262 -13.067,-13.114 -5.394,-2.847 -11.64,-4.273 -19.308,-4.273 -9.942,0 -17.8947,2.851 -23.8595,8.551 -5.961,5.699 -9.086,13.394 -9.086,22.8 0,11.114 3.6914,19.379 11.0743,25.079 7.3862,5.699 18.1762,8.55 32.3792,8.55 l 21.867,0 0,2.567 c 0,7.976 -1.988,13.679 -5.965,17.383 -3.977,3.707 -10.223,5.414 -19.027,5.414 -5.399,0 -11.078,-0.856 -16.758,-2.278 -5.68,-1.711 -11.0744,-3.992 -16.4728,-7.125 l 0,16.242 c 5.9648,2.282 11.6448,3.993 17.3238,5.133 5.399,1.141 10.793,1.707 15.907,1.707 8.234,0 15.05,-1.136 21.015,-3.703 5.68,-2.281 10.508,-5.984 13.914,-10.832 2.274,-2.848 3.977,-6.555 4.828,-11.113 0.856,-4.274 1.422,-10.828 1.422,-19.379" /><path
         id="path46"
         style="fill:#010101;fill-opacity:1;fill-rule:evenodd;stroke:none"
         d="m 152.223,130.531 c 0,12.539 -1.989,21.946 -5.961,28.5 -3.977,6.555 -9.942,9.688 -17.895,9.688 -7.668,0 -13.633,-3.133 -17.89,-9.688 -3.977,-6.554 -5.965,-15.961 -5.965,-28.5 0,-12.543 1.988,-22.23 5.965,-28.785 4.257,-6.5546 10.222,-9.6913 17.89,-9.6913 7.953,0 13.918,3.1367 17.895,9.6913 3.972,6.555 5.961,15.957 5.961,28.785 z m -47.711,37.047 c 2.554,4.563 6.25,8.266 10.793,10.832 4.543,2.567 9.656,3.988 15.621,3.988 11.926,0 21.297,-4.558 28.113,-13.679 6.816,-9.117 10.227,-21.946 10.227,-37.903 0,-16.531 -3.411,-29.355 -10.227,-38.4762 -6.816,-9.4062 -16.187,-13.9648 -28.113,-13.9648 -5.965,0 -11.078,1.1406 -15.621,3.7031 -4.543,2.5664 -7.953,6.2735 -10.793,11.1172 l 0,-12.2539 -16.1878,0 0,137.3676 16.1878,0 0,-50.731" /><g
         transform="scale(0.998243,1.00176)"
         id="g48"><path
           id="path50"
           style="fill:none;stroke:#010101;stroke-width:7.39699984;stroke-linecap:butt;stroke-linejoin:round;stroke-miterlimit:10;stroke-dasharray:none;stroke-opacity:1"
           d="M 200.289,572.131 550.507,422.484" /></g><path
         id="path52"
         style="fill:#010101;fill-opacity:1;fill-rule:evenodd;stroke:none"
         d="m 639.285,384.75 -80.656,71.82 -26.695,-62.984 107.351,-8.836" /><g
         transform="scale(0.998243,1.00176)"
         id="g54"><path
           id="path56"
           style="fill:none;stroke:#010101;stroke-width:7.39699984;stroke-linecap:butt;stroke-linejoin:round;stroke-miterlimit:10;stroke-dasharray:none;stroke-opacity:1"
           d="M 198.579,145.666 554.204,337.703" /></g><path
         id="path58"
         style="fill:#010101;fill-opacity:1;fill-rule:evenodd;stroke:none"
         d="m 639.285,384.75 -106.219,-18.523 32.379,-60.422 73.84,78.945" /></g></g></svg>