<?xml version="1.0" encoding="UTF-8" standalone="no"?>
<svg
   xmlns:dc="http://purl.org/dc/elements/1.1/"
   xmlns:cc="http://creativecommons.org/ns#"
   xmlns:rdf="http://www.w3.org/1999/02/22-rdf-syntax-ns#"
   xmlns:svg="http://www.w3.org/2000/svg"
   xmlns="http://www.w3.org/2000/svg"
   viewBox="0 0 363.75 376.25"
   height="376.25"
   width="363.75"
   xml:space="preserve"
   version="1.1"
   id="svg2"><metadata
     id="metadata8"><rdf:RDF><cc:Work
         rdf:about=""><dc:format>image/svg+xml</dc:format><dc:type
           rdf:resource="http://purl.org/dc/dcmitype/StillImage" /></cc:Work></rdf:RDF></metadata><defs
     id="defs6" /><g
     transform="matrix(1.25,0,0,-1.25,0,376.25)"
     id="g10"><g
       transform="scale(0.1,0.1)"
       id="g12"><path
         id="path14"
         style="fill:#ffffff;fill-opacity:1;fill-rule:evenodd;stroke:none"
         d="m 1371.46,3006.31 c 242.78,0 428.34,-52.07 428.34,-120.27 0,-68.21 -185.56,-120.28 -428.34,-120.28 -242.79,0 -428.069,52.07 -428.069,120.28 0,68.2 185.279,120.27 428.069,120.27 z m -428.069,0 0,0 z m 856.699,-241.12 0,0" /><g
         transform="scale(1.00053,0.99947)"
         id="g16"><path
           id="path18"
           style="fill:none;stroke:#010101;stroke-width:7.07739019;stroke-linecap:butt;stroke-linejoin:round;stroke-miterlimit:10;stroke-dasharray:none;stroke-opacity:1"
           d="m 1370.73,3008.19 c 242.38,0 427.84,-52.1 427.84,-120.34 0,-68.24 -185.46,-120.34 -427.84,-120.34 -242.66,0 -427.839,52.1 -427.839,120.34 0,68.24 185.179,120.34 427.839,120.34 z" /></g><g
         transform="scale(1.00053,0.99947)"
         id="g20"><path
           id="path22"
           style="fill:none;stroke:#010101;stroke-width:7.07739019;stroke-linecap:butt;stroke-linejoin:round;stroke-miterlimit:10;stroke-dasharray:none;stroke-opacity:1"
           d="m 942.891,3008.19 0,0 z" /></g><g
         transform="scale(1.00053,0.99947)"
         id="g24"><path
           id="path26"
           style="fill:none;stroke:#010101;stroke-width:7.07739019;stroke-linecap:butt;stroke-linejoin:round;stroke-miterlimit:10;stroke-dasharray:none;stroke-opacity:1"
           d="m 1798.85,2766.94 0,0 z" /></g><path
         id="path28"
         style="fill:#010101;fill-opacity:1;fill-rule:evenodd;stroke:none"
         d="m 1176.26,2834.81 0,7.64 -46.18,0 45.62,70.47 0,4.81 -56.95,0 0,-7.36 23.52,0 c 1.41,0 2.83,0.29 4.25,0.29 l 16.14,0 -45.61,-71.04 0,-4.81 59.21,0" /><path
         id="path30"
         style="fill:#010101;fill-opacity:1;fill-rule:evenodd;stroke:none"
         d="m 1256.72,2834.81 -30.31,83.2 -10.49,0 -30.31,-83.2 9.07,0 8.78,24.34 33.71,0 8.78,-24.34 10.77,0 z m -22.1,31.13 -28.61,0 14.16,43.3 14.45,-43.3" /><path
         id="path32"
         style="fill:#010101;fill-opacity:1;fill-rule:evenodd;stroke:none"
         d="m 1325.56,2840.19 -0.56,8.49 c -3.41,-2.55 -6.8,-4.81 -10.77,-6.23 -3.68,-1.13 -7.93,-1.13 -11.9,-1.13 -7.65,0 -14.73,4.25 -19.55,10.19 -5.38,7.07 -7.93,16.13 -7.93,24.9 0,9.06 2.55,18.11 7.93,24.91 4.82,6.22 11.9,10.47 19.55,10.47 3.4,0 7.08,-0.29 10.48,-1.42 3.69,-1.13 6.8,-3.11 9.92,-5.09 l 1.7,9.9 c -3.68,1.42 -7.09,2.55 -10.77,3.12 -3.96,0.84 -7.65,0.84 -11.33,0.84 -10.48,0 -19.83,-4.8 -26.63,-12.45 -7.36,-8.21 -11.05,-19.24 -11.05,-30.28 0,-11.03 3.69,-21.79 11.05,-30.28 6.8,-7.64 16.15,-12.45 26.63,-12.45 3.97,0 8.22,0 12.18,1.13 3.97,1.13 7.65,3.4 11.05,5.38 z m -8.78,98.77 -7.08,0 -11.62,-11.61 -11.9,11.61 -6.8,0 15.02,-16.14 7.08,0 15.3,16.14" /><path
         id="path34"
         style="fill:#010101;fill-opacity:1;fill-rule:evenodd;stroke:none"
         d="m 1397.23,2834.81 0,8.21 -15.86,0 c -1.42,0 -2.83,-0.29 -4.25,-0.29 l -23.8,0 0,31.7 39.1,0 0,7.08 -39.1,0 0,28.58 16.43,0 c 1.42,0 2.84,0 4.25,0 l 21.54,0 0,7.64 -52.41,0 0,-82.92 54.1,0" /><path
         id="path36"
         style="fill:#010101;fill-opacity:1;fill-rule:evenodd;stroke:none"
         d="m 1477.69,2909.8 0,7.65 -71.39,0 0,-7.65 15.87,0 c 1.41,0 2.83,0 4.24,0 l 10.49,0 0,-74.71 10.2,0 0,74.71 10.76,0 c 1.42,0 2.84,0 4.25,0 l 15.58,0" /><path
         id="path38"
         style="fill:#010101;fill-opacity:1;fill-rule:evenodd;stroke:none"
         d="m 1547.1,2834.81 0,8.21 -15.86,0 c -1.42,0 -2.84,-0.29 -4.25,-0.29 l -23.8,0 0,31.7 39.1,0 0,7.08 -39.1,0 0,28.58 16.43,0 c 1.42,0 2.83,0 4.25,0 l 21.53,0 0,7.64 -52.41,0 0,-82.92 54.11,0" /><path
         id="path40"
         style="fill:#010101;fill-opacity:1;fill-rule:evenodd;stroke:none"
         d="m 1627.56,2834.81 -32.86,50.09 31.44,32.83 -11.33,0 -41.93,-44.15 0,44.15 -9.92,0 0,-82.92 9.92,0 0,27.17 15.58,16.13 28.05,-43.3 11.05,0" /><path
         id="path42"
         style="fill:#ffffff;fill-opacity:1;fill-rule:evenodd;stroke:none"
         d="m 941.121,2501.44 970.589,0 -109.35,-230.65 -970.309,0 109.07,230.65 z m -109.07,0 0,0 z m 1079.659,-230.65 0,0" /><g
         transform="scale(1.00053,0.99947)"
         id="g44"><path
           id="path46"
           style="fill:none;stroke:#010101;stroke-width:7.07739019;stroke-linecap:butt;stroke-linejoin:round;stroke-miterlimit:10;stroke-dasharray:none;stroke-opacity:1"
           d="m 940.623,2502.76 969.787,0 -109.29,-230.76 -969.51,0 109.013,230.76 z" /></g><g
         transform="scale(1.00053,0.99947)"
         id="g48"><path
           id="path50"
           style="fill:none;stroke:#010101;stroke-width:7.07739019;stroke-linecap:butt;stroke-linejoin:round;stroke-miterlimit:10;stroke-dasharray:none;stroke-opacity:1"
           d="m 831.61,2502.76 0,0 z" /></g><g
         transform="scale(1.00053,0.99947)"
         id="g52"><path
           id="path54"
           style="fill:none;stroke:#010101;stroke-width:7.07739019;stroke-linecap:butt;stroke-linejoin:round;stroke-miterlimit:10;stroke-dasharray:none;stroke-opacity:1"
           d="m 1910.41,2272 0,0 z" /></g><path
         id="path56"
         style="fill:#010101;fill-opacity:1;fill-rule:evenodd;stroke:none"
         d="m 1214.22,2419.09 -9.06,0 -15.02,-39.91 c -4.81,-12.73 -10.76,-28.58 -11.89,-34.24 l -0.29,0 c -1.13,5.09 -4.82,15 -7.65,22.64 l -19.26,51.51 -10.77,0 31.73,-83.21 10.77,0 31.44,83.21" /><path
         id="path58"
         style="fill:#010101;fill-opacity:1;fill-rule:evenodd;stroke:none"
         d="m 1287.88,2335.88 0,82.92 -10.48,0 0,-36.22 -39.95,0 0,36.22 -10.2,0 0,-82.92 10.2,0 0,39.62 39.95,0 0,-39.62 10.48,0" /><path
         id="path60"
         style="fill:#010101;fill-opacity:1;fill-rule:evenodd;stroke:none"
         d="m 1379.11,2377.2 c 0,25.19 -17.29,44.15 -36.55,44.15 -20.11,0 -36.83,-19.24 -36.83,-44.15 0,-25.19 17.28,-43.86 36.55,-43.86 19.83,0 36.83,18.67 36.83,43.86 z m -10.2,1.7 c 0,-23.49 -13.03,-37.92 -26.35,-37.92 -13.88,0 -26.63,14.71 -26.63,37.92 0,22.07 13.03,35.09 26.35,35.09 13.88,0 26.63,-13.58 26.63,-35.09" /><path
         id="path62"
         style="fill:#010101;fill-opacity:1;fill-rule:evenodd;stroke:none"
         d="m 1463.53,2376.63 c 0,23.21 -16.15,42.17 -36.26,42.17 l -30.6,0 0,-82.92 30.6,0 c 20.11,0 36.26,18.12 36.26,40.75 z m -10.2,0 c 0,-21.79 -13.31,-33.95 -28.9,-33.95 l -17.84,0 0,69.33 17.84,0 c 16.15,0 28.9,-13.58 28.9,-35.38" /><path
         id="path64"
         style="fill:#010101;fill-opacity:1;fill-rule:evenodd;stroke:none"
         d="m 1490.44,2379.46 0,9.63 -9.63,0 0,-9.63 9.63,0 z m 0,-43.58 0,9.62 -9.63,0 0,-9.62 9.63,0" /><path
         id="path66"
         style="fill:#010101;fill-opacity:1;fill-rule:evenodd;stroke:none"
         d="m 1602.91,2339.56 c 0,3.68 -3.11,3.68 -5.1,3.68 l -5.1,0 0,27.73 c 0,12.17 -6.23,17.27 -15.58,17.27 -8.22,0 -13.6,-4.25 -15.86,-6.51 0,3.96 0,5.66 -4.82,5.66 l -8.78,0 c -1.7,0 -4.82,0 -4.82,-3.68 0,-3.68 3.12,-3.68 4.82,-3.68 l 5.38,0 0,-36.79 -5.38,0 c -1.7,0 -4.82,0 -4.82,-3.68 0,-3.68 3.12,-3.68 4.82,-3.68 l 18.98,0 c 1.7,0 4.81,0 4.81,3.68 0,3.68 -2.83,3.68 -4.81,3.68 l -5.38,0 0,21.22 c 0,11.89 9.06,16.42 15.01,16.42 6.52,0 7.93,-3.4 7.93,-10.47 l 0,-27.17 -4.53,0 c -1.98,0 -4.82,0 -4.82,-3.68 0,-3.68 3.12,-3.68 4.82,-3.68 l 18.41,0 c 1.71,0 4.82,0 4.82,3.68" /><path
         id="path68"
         style="fill:#ffffff;fill-opacity:1;fill-rule:evenodd;stroke:none"
         d="m 1371.74,1323.59 432.03,-223 -432.03,-223.008 -431.752,223.008 431.752,223 0,0 z m -431.752,0 0,0 z m 863.782,-446.008 0,0" /><g
         transform="scale(1.00053,0.99947)"
         id="g70"><path
           id="path72"
           style="fill:none;stroke:#010101;stroke-width:7.07739019;stroke-linecap:butt;stroke-linejoin:round;stroke-miterlimit:10;stroke-dasharray:none;stroke-opacity:1"
           d="m 1371.01,1324.58 431.52,-223.13 -431.52,-223.403 -431.519,223.403 431.519,223.13 0,0 z" /></g><g
         transform="scale(1.00053,0.99947)"
         id="g74"><path
           id="path76"
           style="fill:none;stroke:#010101;stroke-width:7.07739019;stroke-linecap:butt;stroke-linejoin:round;stroke-miterlimit:10;stroke-dasharray:none;stroke-opacity:1"
           d="m 939.491,1324.58 0,0 z" /></g><g
         transform="scale(1.00053,0.99947)"
         id="g78"><path
           id="path80"
           style="fill:none;stroke:#010101;stroke-width:7.07739019;stroke-linecap:butt;stroke-linejoin:round;stroke-miterlimit:10;stroke-dasharray:none;stroke-opacity:1"
           d="m 1802.53,878.047 0,0 z" /></g><path
         id="path82"
         style="fill:#010101;fill-opacity:1;fill-rule:evenodd;stroke:none"
         d="m 1267.2,1062.1 c 0,3.68 -3.11,3.68 -4.81,3.68 l -12.47,0 0,39.33 c 0,3.68 -0.85,4.82 -4.81,4.82 l -17,0 c -1.99,0 -5.1,0 -5.1,-3.68 0,-3.68 3.11,-3.68 5.1,-3.68 l 13.59,0 0,-36.79 -14.73,0 c -1.7,0 -4.81,0 -4.81,-3.68 0,-3.68 3.11,-3.68 4.81,-3.68 l 35.42,0 c 1.7,0 4.81,0 4.81,3.68 z m -17,62.83 c 0,3.39 -2.55,5.94 -5.95,5.94 -3.39,0 -5.95,-2.55 -5.95,-5.94 0,-3.4 2.56,-5.95 5.95,-5.95 3.4,0 5.95,2.55 5.95,5.95" /><path
         id="path84"
         style="fill:#010101;fill-opacity:1;fill-rule:evenodd;stroke:none"
         d="m 1396.1,1069.46 c 0,2.26 -1.7,3.11 -2.83,3.96 l -34.56,21.79 34.56,21.51 c 1.13,0.85 2.83,1.98 2.83,4.24 0,2.55 -2.26,3.97 -4.25,3.97 -1.13,0 -1.41,0 -3.11,-1.14 l -39.38,-24.62 c -1.13,-0.85 -2.55,-1.7 -2.55,-3.96 0,-1.7 0.85,-2.83 1.98,-3.68 l 39.95,-25.19 c 1.7,-1.13 1.98,-1.13 3.11,-1.13 1.99,0 4.25,1.42 4.25,4.25" /><path
         id="path86"
         style="fill:#010101;fill-opacity:1;fill-rule:evenodd;stroke:none"
         d="m 1528.4,1062.1 c 0,3.68 -3.11,3.68 -5.1,3.68 l -5.1,0 0,27.73 c 0,12.17 -6.23,17.26 -15.57,17.26 -8.22,0 -13.61,-4.24 -15.87,-6.5 0,3.96 0,5.66 -4.82,5.66 l -8.78,0 c -1.7,0 -4.82,0 -4.82,-3.68 0,-3.68 3.12,-3.68 4.82,-3.68 l 5.38,0 0,-36.79 -5.38,0 c -1.7,0 -4.82,0 -4.82,-3.68 0,-3.68 3.12,-3.68 4.82,-3.68 l 18.98,0 c 1.7,0 4.82,0 4.82,3.68 0,3.68 -2.83,3.68 -4.82,3.68 l -5.38,0 0,21.22 c 0,11.89 9.06,16.42 15.01,16.42 6.52,0 7.94,-3.4 7.94,-10.47 l 0,-27.17 -4.54,0 c -1.98,0 -4.81,0 -4.81,-3.68 0,-3.68 3.11,-3.68 4.81,-3.68 l 18.42,0 c 1.7,0 4.81,0 4.81,3.68" /><path
         id="path88"
         style="fill:#ffffff;fill-opacity:1;fill-rule:evenodd;stroke:none"
         d="m 1827,787.305 1078.24,0 -121.53,-267.149 -1077.96,0 121.25,267.149 z m -121.25,0 0,0 z m 1199.49,-267.149 0,0" /><g
         transform="scale(1.00053,0.99947)"
         id="g90"><path
           id="path92"
           style="fill:none;stroke:#010101;stroke-width:7.07739019;stroke-linecap:butt;stroke-linejoin:round;stroke-miterlimit:10;stroke-dasharray:none;stroke-opacity:1"
           d="m 1825.75,787.722 1077.95,0 -121.47,-267.29 -1077.67,0 121.19,267.29 z" /></g><g
         transform="scale(1.00053,0.99947)"
         id="g94"><path
           id="path96"
           style="fill:none;stroke:#010101;stroke-width:7.07739019;stroke-linecap:butt;stroke-linejoin:round;stroke-miterlimit:10;stroke-dasharray:none;stroke-opacity:1"
           d="m 1704.56,787.722 0,0 z" /></g><g
         transform="scale(1.00053,0.99947)"
         id="g98"><path
           id="path100"
           style="fill:none;stroke:#010101;stroke-width:7.07739019;stroke-linecap:butt;stroke-linejoin:round;stroke-miterlimit:10;stroke-dasharray:none;stroke-opacity:1"
           d="m 2903.7,520.432 0,0 z" /></g><path
         id="path102"
         style="fill:#010101;fill-opacity:1;fill-rule:evenodd;stroke:none"
         d="m 1942.59,603.355 10.1953,0 0,82.918 -10.1953,0 0,-82.918 z" /><path
         id="path104"
         style="fill:#010101;fill-opacity:1;fill-rule:evenodd;stroke:none"
         d="m 2029.84,603.355 0,7.641 -46.17,0 45.61,70.469 0,4.808 -56.94,0 0,-7.355 23.51,0 c 1.42,0 2.83,0.281 4.25,0.281 l 16.15,0 -45.61,-71.031 0,-4.813 59.2,0" /><path
         id="path106"
         style="fill:#010101;fill-opacity:1;fill-rule:evenodd;stroke:none"
         d="m 2107.47,603.355 0,82.918 -10.48,0 0,-36.222 -39.95,0 0,36.222 -10.2,0 0,-82.918 10.2,0 0,39.622 39.95,0 0,-39.622 10.48,0" /><path
         id="path108"
         style="fill:#010101;fill-opacity:1;fill-rule:evenodd;stroke:none"
         d="m 2198.69,644.676 c 0,25.183 -17.28,44.144 -36.55,44.144 -20.11,0 -36.82,-19.242 -36.82,-44.144 0,-25.188 17.28,-43.867 36.54,-43.867 19.84,0 36.83,18.679 36.83,43.867 z m -10.2,1.695 c 0,-23.488 -13.03,-37.922 -26.35,-37.922 -13.87,0 -26.62,14.719 -26.62,37.922 0,22.074 13.03,35.094 26.34,35.094 13.89,0 26.63,-13.586 26.63,-35.094" /><path
         id="path110"
         style="fill:#010101;fill-opacity:1;fill-rule:evenodd;stroke:none"
         d="m 2283.11,644.109 c 0,23.204 -16.14,42.164 -36.26,42.164 l -30.59,0 0,-82.918 30.59,0 c 20.12,0 36.26,18.114 36.26,40.754 z m -10.19,0 c 0,-21.793 -13.32,-33.961 -28.9,-33.961 l -17.85,0 0,69.336 17.85,0 c 16.15,0 28.9,-13.586 28.9,-35.375" /><path
         id="path112"
         style="fill:#010101;fill-opacity:1;fill-rule:evenodd;stroke:none"
         d="m 2310.31,646.938 0,9.621 -9.63,0 0,-9.621 9.63,0 z m 0,-43.583 0,9.622 -9.63,0 0,-9.622 9.63,0" /><path
         id="path114"
         style="fill:#010101;fill-opacity:1;fill-rule:evenodd;stroke:none"
         d="m 2421.08,651.184 c 0,3.679 -3.12,3.679 -4.81,3.679 l -14.17,0 c -1.7,0 -4.81,0 -4.81,-3.679 0,-3.68 2.83,-3.68 4.81,-3.68 l 3.4,0 -13.03,-38.488 -13.03,38.488 3.4,0 c 1.7,0 4.53,0 4.53,3.68 0,3.679 -2.83,3.679 -4.53,3.679 l -14.17,0 c -1.98,0 -4.81,0 -4.81,-3.679 0,-3.68 3.11,-3.68 4.81,-3.68 l 3.69,0 13.59,-40.75 c 1.42,-3.965 3.97,-3.965 6.52,-3.965 2.26,0 5.1,0 6.23,3.965 l 13.88,40.75 3.69,0 c 1.69,0 4.81,0 4.81,3.68" /><path
         id="path116"
         style="fill:#010101;fill-opacity:1;fill-rule:evenodd;stroke:none"
         d="m 2479.44,618.355 c 0,12.454 -15.3,15 -19.26,15.567 l -8.22,1.414 c -3.4,0.281 -11.61,1.98 -11.61,6.508 0,3.113 3.96,6.793 15.29,6.793 9.92,0 11.62,-3.68 11.9,-6.793 0.29,-1.981 0.57,-3.961 4.25,-3.961 3.97,0 3.97,2.547 3.97,4.808 l 0,8.207 c 0,1.985 0,5.098 -3.4,5.098 -2.83,0 -3.4,-1.699 -3.68,-2.551 -5.39,2.551 -10.48,2.551 -12.75,2.551 -20.12,0 -22.95,-9.906 -22.95,-14.152 0,-11.035 12.75,-13.016 23.8,-14.715 5.95,-0.852 15.29,-2.547 15.29,-8.774 0,-4.527 -4.24,-8.492 -15.29,-8.492 -5.67,0 -12.18,1.418 -15.3,10.473 -0.57,2.266 -1.13,3.68 -4.25,3.68 -4.25,0 -4.25,-2.547 -4.25,-5.094 l 0,-11.606 c 0,-1.695 0,-4.808 3.68,-4.808 1.14,0 3.12,0 4.54,4.527 5.94,-4.246 12.18,-4.246 15.58,-4.246 18.98,0 22.66,9.906 22.66,15.566" /><path
         id="path118"
         style="fill:#010101;fill-opacity:1;fill-rule:evenodd;stroke:none"
         d="m 2544.32,629.109 c 0,15 -11.34,26.887 -24.65,26.887 -13.6,0 -24.65,-11.887 -24.65,-26.887 0,-15.281 11.34,-26.601 24.65,-26.601 13.03,0 24.65,11.601 24.65,26.601 z m -8.5,0.848 c 0,-11.035 -7.37,-20.094 -16.15,-20.094 -8.78,0 -16.43,9.059 -16.43,20.094 0,10.754 7.93,18.68 16.43,18.68 8.5,0 16.15,-7.926 16.15,-18.68" /><path
         id="path120"
         style="fill:#010101;fill-opacity:1;fill-rule:evenodd;stroke:none"
         d="m 2605.51,618.355 c 0,1.981 0,4.528 -4.25,4.528 -3.97,0 -3.97,-2.547 -3.97,-4.528 -0.28,-7.359 -7.08,-8.492 -9.91,-8.492 -9.07,0 -9.07,6.227 -9.07,9.059 l 0,28.582 19.55,0 c 1.98,0 4.82,0 4.82,3.68 0,3.679 -2.84,3.679 -4.82,3.679 l -19.55,0 0,9.621 c 0,2.266 0,5.094 -3.96,5.094 -4.25,0 -4.25,-2.547 -4.25,-5.094 l 0,-9.621 -10.48,0 c -1.99,0 -4.82,0 -4.82,-3.679 0,-3.68 2.83,-3.68 4.82,-3.68 l 10.48,0 0,-29.149 c 0,-11.601 7.93,-15.847 16.71,-15.847 9.07,0 18.7,5.094 18.7,15.847" /><path
         id="path122"
         style="fill:#010101;fill-opacity:1;fill-rule:evenodd;stroke:none"
         d="m 2677.47,606.754 c 0,3.676 -3.12,3.676 -4.82,3.676 -5.1,0 -6.23,0.566 -7.36,0.851 l 0,26.035 c 0,8.489 -6.52,18.68 -23.8,18.68 -5.1,0 -17.28,0 -17.28,-8.773 0,-3.68 2.55,-5.66 5.38,-5.66 1.98,0 5.1,1.128 5.38,5.66 0,0.847 0,1.129 2.55,1.414 1.7,0 3.12,0 4.25,0 9.07,0 15.3,-3.68 15.3,-12.453 -21.25,0 -35.98,-5.942 -35.98,-17.547 0,-8.207 7.65,-16.129 19.83,-16.129 4.54,0 11.9,0.847 17.57,4.527 2.55,-3.961 8.21,-3.961 12.74,-3.961 3.41,0 6.24,0 6.24,3.68 z m -20.4,12.449 c 0,-2.828 0,-5.375 -4.53,-7.355 -4.54,-1.985 -9.92,-1.985 -10.77,-1.985 -7.36,0 -12.46,3.965 -12.46,8.774 0,5.945 10.48,10.472 27.76,10.472 l 0,-9.906" /><path
         id="path124"
         style="fill:#ffffff;fill-opacity:1;fill-rule:evenodd;stroke:none"
         d="m 2304.93,245.078 c 242.79,0 428.35,-52.07 428.35,-120.273 0,-68.2034 -185.56,-120.27766 -428.35,-120.27766 -242.5,0 -427.79,52.07426 -427.79,120.27766 0,68.203 185.29,120.273 427.79,120.273 z m -427.79,0 0,0 z m 856.42,-241.11706 0,0" /><g
         transform="scale(1.00053,0.99947)"
         id="g126"><path
           id="path128"
           style="fill:none;stroke:#010101;stroke-width:7.07739019;stroke-linecap:butt;stroke-linejoin:round;stroke-miterlimit:10;stroke-dasharray:none;stroke-opacity:1"
           d="m 2303.71,245.489 c 242.66,0 428.12,-52.097 428.12,-120.337 0,-68.239 -185.46,-120.33695 -428.12,-120.33695 -242.66,0 -427.84,52.09795 -427.84,120.33695 0,68.24 185.18,120.337 427.84,120.337 z" /></g><g
         transform="scale(1.00053,0.99947)"
         id="g130"><path
           id="path132"
           style="fill:none;stroke:#010101;stroke-width:7.07739019;stroke-linecap:butt;stroke-linejoin:round;stroke-miterlimit:10;stroke-dasharray:none;stroke-opacity:1"
           d="m 1875.87,245.489 0,0 z" /></g><g
         transform="scale(1.00053,0.99947)"
         id="g134"><path
           id="path136"
           style="fill:none;stroke:#010101;stroke-width:7.07739019;stroke-linecap:butt;stroke-linejoin:round;stroke-miterlimit:10;stroke-dasharray:none;stroke-opacity:1"
           d="m 2732.12,4.24834 0,0 z" /></g><path
         id="path138"
         style="fill:#010101;fill-opacity:1;fill-rule:evenodd;stroke:none"
         d="m 2183.68,73.582 -32.87,50.09 31.45,32.828 -11.33,0 -41.93,-44.148 0,44.148 -9.91,0 0,-82.918 9.91,0 0,27.168 15.58,16.129 28.05,-43.297 11.05,0" /><path
         id="path140"
         style="fill:#010101;fill-opacity:1;fill-rule:evenodd;stroke:none"
         d="m 2268.38,114.898 c 0,25.188 -17.28,44.149 -36.54,44.149 -20.12,0 -36.83,-19.246 -36.83,-44.149 0,-25.1871 17.28,-43.8628 36.54,-43.8628 19.84,0 36.83,18.6757 36.83,43.8628 z m -10.2,1.7 c 0,-23.4925 -13.03,-37.9222 -26.34,-37.9222 -13.88,0 -26.63,14.7148 -26.63,37.9222 0,22.074 13.03,35.09 26.34,35.09 13.89,0 26.63,-13.583 26.63,-35.09" /><path
         id="path142"
         style="fill:#010101;fill-opacity:1;fill-rule:evenodd;stroke:none"
         d="m 2345.72,73.582 0,82.918 -9.06,0 0,-74.1484 -0.28,0 -9.64,20.0934 -26.35,54.055 -14.73,0 0,-82.918 9.07,0 0,74.145 9.91,-20.094 26.35,-54.051 14.73,0" /><path
         id="path144"
         style="fill:#010101;fill-opacity:1;fill-rule:evenodd;stroke:none"
         d="m 2422.5,73.582 0,8.2071 -15.87,0 c -1.41,0 -2.83,-0.2852 -4.25,-0.2852 l -23.79,0 0,31.6951 39.09,0 0,7.074 -39.09,0 0,28.586 16.43,0 c 1.41,0 2.83,0 4.25,0 l 21.53,0 0,7.641 -52.41,0 0,-82.918 54.11,0" /><path
         id="path146"
         style="fill:#010101;fill-opacity:1;fill-rule:evenodd;stroke:none"
         d="m 2495.88,78.957 -0.57,8.4922 c -3.4,-2.5508 -6.8,-4.8125 -10.77,-6.2265 -3.68,-1.1329 -7.93,-1.1329 -11.9,-1.1329 -7.65,0 -14.73,4.2461 -19.55,10.1875 -5.38,7.0743 -7.93,16.1327 -7.93,24.9027 0,9.058 2.55,18.113 7.93,24.906 4.82,6.227 11.9,10.469 19.55,10.469 3.4,0 7.09,-0.282 10.49,-1.414 3.68,-1.133 6.8,-3.114 9.91,-5.094 l 1.7,9.906 c -3.68,1.414 -7.08,2.547 -10.76,3.113 -3.97,0.848 -7.66,0.848 -11.34,0.848 -10.48,0 -19.83,-4.812 -26.63,-12.453 -7.36,-8.207 -11.05,-19.242 -11.05,-30.281 0,-11.035 3.69,-21.7894 11.05,-30.2816 6.8,-7.6406 16.15,-12.4492 26.63,-12.4492 3.97,0 8.22,0 12.18,1.1328 3.97,1.1289 7.65,3.3946 11.06,5.375" /><g
         transform="scale(1.00053,0.99947)"
         id="g148"><path
           id="path150"
           style="fill:none;stroke:#010101;stroke-width:7.36189985;stroke-linecap:butt;stroke-linejoin:round;stroke-miterlimit:10;stroke-dasharray:none;stroke-opacity:1"
           d="m 1371.3,2766.66 -0.29,-191.98" /></g><path
         id="path152"
         style="fill:#010101;fill-opacity:1;fill-rule:evenodd;stroke:none"
         d="m 1371.74,2501.44 25.21,75.27 -50.43,0 25.22,-75.27" /><g
         transform="scale(1.00053,0.99947)"
         id="g154"><path
           id="path156"
           style="fill:none;stroke:#010101;stroke-width:7.36189985;stroke-linecap:butt;stroke-linejoin:round;stroke-miterlimit:10;stroke-dasharray:none;stroke-opacity:1"
           d="m 1802.53,1101.17 501.46,0 0,-241.527" /></g><path
         id="path158"
         style="fill:#010101;fill-opacity:1;fill-rule:evenodd;stroke:none"
         d="m 2305.21,787.023 25.22,75.563 -50.43,0 25.21,-75.563" /><g
         transform="scale(1.00053,0.99947)"
         id="g160"><path
           id="path162"
           style="fill:none;stroke:#010101;stroke-width:7.36189985;stroke-linecap:butt;stroke-linejoin:round;stroke-miterlimit:10;stroke-dasharray:none;stroke-opacity:1"
           d="m 939.491,1101.17 -530.622,0 0,-152.335" /></g><path
         id="path164"
         style="fill:#010101;fill-opacity:1;fill-rule:evenodd;stroke:none"
         d="m 409.086,876.168 25.215,75.562 -50.43,0 25.215,-75.562" /><g
         transform="scale(1.00053,0.99947)"
         id="g166"><path
           id="path168"
           style="fill:none;stroke:#010101;stroke-width:7.36189985;stroke-linecap:butt;stroke-linejoin:round;stroke-miterlimit:10;stroke-dasharray:none;stroke-opacity:1"
           d="m 408.869,496.361 0,-252.286 962.141,0 0,562.055" /></g><path
         id="path170"
         style="fill:#010101;fill-opacity:1;fill-rule:evenodd;stroke:none"
         d="m 1371.74,877.867 -25.22,-75.562 50.43,0 -25.21,75.562" /><g
         transform="scale(1.00053,0.99947)"
         id="g172"><path
           id="path174"
           style="fill:none;stroke:#010101;stroke-width:7.36189985;stroke-linecap:butt;stroke-linejoin:round;stroke-miterlimit:10;stroke-dasharray:none;stroke-opacity:1"
           d="m 2303.99,520.432 0.29,-203.303" /></g><path
         id="path176"
         style="fill:#010101;fill-opacity:1;fill-rule:evenodd;stroke:none"
         d="m 2305.5,244.797 25.21,75.558 -50.43,0 25.22,-75.558" /><path
         id="path178"
         style="fill:#010101;fill-opacity:1;fill-rule:evenodd;stroke:none"
         d="m 826.668,1170.21 c 0,23.2 -16.148,42.16 -36.262,42.16 l -30.593,0 0,-82.92 30.593,0 c 20.114,0 36.262,18.12 36.262,40.76 z m -10.199,0 c 0,-21.8 -13.313,-33.96 -28.895,-33.96 l -17.847,0 0,69.33 17.847,0 c 16.149,0 28.895,-13.58 28.895,-35.37" /><path
         id="path180"
         style="fill:#010101;fill-opacity:1;fill-rule:evenodd;stroke:none"
         d="m 903.445,1129.45 -30.316,83.21 -10.481,0 -30.312,-83.21 9.066,0 8.782,24.34 33.711,0 8.785,-24.34 10.765,0 z m -22.097,31.13 -28.614,0 14.164,43.3 14.45,-43.3" /><path
         id="path182"
         style="fill:#010101;fill-opacity:1;fill-rule:evenodd;stroke:none"
         d="m 1927.29,1129.45 0,82.92 -9.07,0 0,-74.14 -0.28,0 -9.63,20.09 -26.35,54.05 -14.73,0 0,-82.92 9.07,0 0,74.15 9.91,-20.09 26.35,-54.06 14.73,0" /><path
         id="path184"
         style="fill:#010101;fill-opacity:1;fill-rule:evenodd;stroke:none"
         d="m 2003.78,1129.45 0,8.21 -15.86,0 c -1.42,0 -2.84,-0.28 -4.25,-0.28 l -23.8,0 0,31.69 39.09,0 0,7.08 -39.09,0 0,28.58 16.43,0 c 1.42,0 2.83,0 4.25,0 l 21.53,0 0,7.64 -52.41,0 0,-82.92 54.11,0" /><path
         id="path186"
         style="fill:#ffffff;fill-opacity:1;fill-rule:evenodd;stroke:none"
         d="m 1371.74,1611.68 -405.404,0 0,380.07 810.804,0 0,-380.07 -405.4,0" /><g
         transform="scale(1.00053,0.99947)"
         id="g188"><path
           id="path190"
           style="fill:none;stroke:#010101;stroke-width:7.07739019;stroke-linecap:butt;stroke-linejoin:round;stroke-miterlimit:10;stroke-dasharray:none;stroke-opacity:1"
           d="m 1371.01,1612.82 -405.186,0 0,379.99 810.096,0 0,-379.99 -404.91,0 z" /></g><path
         id="path192"
         style="fill:#010101;fill-opacity:1;fill-rule:evenodd;stroke:none"
         d="m 1267.2,1843.46 c 0,3.68 -3.11,3.68 -4.81,3.68 l -12.47,0 0,39.34 c 0,3.68 -0.85,4.81 -4.81,4.81 l -17,0 c -1.99,0 -5.1,0 -5.1,-3.68 0,-3.68 3.11,-3.68 5.1,-3.68 l 13.59,0 0,-36.79 -14.73,0 c -1.7,0 -4.81,0 -4.81,-3.68 0,-3.67 3.11,-3.67 4.81,-3.67 l 35.42,0 c 1.7,0 4.81,0 4.81,3.67 z m -17,62.83 c 0,3.39 -2.55,5.94 -5.95,5.94 -3.39,0 -5.95,-2.55 -5.95,-5.94 0,-3.4 2.56,-5.95 5.95,-5.95 3.4,0 5.95,2.55 5.95,5.95" /><path
         id="path194"
         style="fill:#010101;fill-opacity:1;fill-rule:evenodd;stroke:none"
         d="m 1398.37,1885.35 c 0,4.24 -4.53,4.24 -6.23,4.24 l -41.37,0 c -1.7,0 -6.23,0 -6.23,-4.24 0,-4.25 3.97,-4.25 5.39,-4.25 l 43.05,0 c 1.42,0 5.39,0 5.39,4.25 z m 0,-18.12 c 0,4.25 -3.97,4.25 -5.39,4.25 l -43.05,0 c -1.42,0 -5.39,0 -5.39,-4.25 0,-4.24 4.53,-4.24 6.23,-4.24 l 41.37,0 c 1.7,0 6.23,0 6.23,4.24" /><path
         id="path196"
         style="fill:#010101;fill-opacity:1;fill-rule:evenodd;stroke:none"
         d="m 1523.87,1876.29 c 0,22.07 -12.46,37.92 -25.49,37.92 -13.6,0 -25.5,-16.13 -25.5,-37.92 0,-22.36 12.18,-37.92 25.5,-37.92 13.31,0 25.49,16.13 25.49,37.92 z m -8.5,1.13 c 0,-17.54 -7.65,-31.69 -16.99,-31.69 -9.36,0 -17.29,14.15 -17.29,31.69 0,17.55 8.5,29.44 17.29,29.44 8.78,0 16.99,-11.61 16.99,-29.44" /><path
         id="path198"
         style="fill:#010101;fill-opacity:1;fill-rule:evenodd;stroke:none"
         d="m 1145.95,1727.15 c 0,3.68 -3.12,3.68 -4.82,3.68 l -14.16,0 c -1.7,0 -4.82,0 -4.82,-3.68 0,-3.68 2.83,-3.68 4.82,-3.68 l 3.4,0 -13.03,-38.49 -13.04,38.49 3.4,0 c 1.7,0 4.53,0 4.53,3.68 0,3.68 -2.83,3.68 -4.53,3.68 l -14.16,0 c -1.99,0 -4.82,0 -4.82,-3.68 0,-3.68 3.12,-3.68 4.82,-3.68 l 3.68,0 13.6,-40.75 c 1.41,-3.96 3.97,-3.96 6.52,-3.96 2.26,0 5.09,0 6.23,3.96 l 13.88,40.75 3.68,0 c 1.7,0 4.82,0 4.82,3.68" /><path
         id="path200"
         style="fill:#010101;fill-opacity:1;fill-rule:evenodd;stroke:none"
         d="m 1204.31,1694.32 c 0,12.45 -15.3,15 -19.27,15.57 l -8.21,1.41 c -3.4,0.29 -11.62,1.98 -11.62,6.51 0,3.11 3.97,6.79 15.3,6.79 9.92,0 11.62,-3.68 11.9,-6.79 0.28,-1.98 0.57,-3.96 4.25,-3.96 3.97,0 3.97,2.54 3.97,4.81 l 0,8.21 c 0,1.98 0,5.09 -3.4,5.09 -2.84,0 -3.4,-1.7 -3.69,-2.55 -5.38,2.55 -10.48,2.55 -12.75,2.55 -20.11,0 -22.94,-9.91 -22.94,-14.15 0,-11.04 12.74,-13.02 23.79,-14.72 5.95,-0.84 15.3,-2.54 15.3,-8.77 0,-4.53 -4.25,-8.49 -15.3,-8.49 -5.66,0 -12.18,1.42 -15.29,10.47 -0.57,2.27 -1.14,3.68 -4.25,3.68 -4.25,0 -4.25,-2.55 -4.25,-5.09 l 0,-11.6 c 0,-1.7 0,-4.82 3.68,-4.82 1.13,0 3.11,0 4.53,4.53 5.95,-4.24 12.19,-4.24 15.58,-4.24 18.99,0 22.67,9.9 22.67,15.56" /><path
         id="path202"
         style="fill:#010101;fill-opacity:1;fill-rule:evenodd;stroke:none"
         d="m 1269.18,1705.07 c 0,15 -11.33,26.89 -24.64,26.89 -13.6,0 -24.65,-11.89 -24.65,-26.89 0,-15.28 11.33,-26.6 24.65,-26.6 13.03,0 24.64,11.61 24.64,26.6 z m -8.5,0.86 c 0,-11.04 -7.36,-20.1 -16.14,-20.1 -8.79,0 -16.43,9.06 -16.43,20.1 0,10.75 7.93,18.67 16.43,18.67 8.5,0 16.14,-7.92 16.14,-18.67" /><path
         id="path204"
         style="fill:#010101;fill-opacity:1;fill-rule:evenodd;stroke:none"
         d="m 1330.38,1694.32 c 0,1.98 0,4.53 -4.25,4.53 -3.97,0 -3.97,-2.55 -3.97,-4.53 -0.28,-7.36 -7.08,-8.49 -9.91,-8.49 -9.07,0 -9.07,6.23 -9.07,9.06 l 0,28.58 19.55,0 c 1.98,0 4.81,0 4.81,3.68 0,3.68 -2.83,3.68 -4.81,3.68 l -19.55,0 0,9.62 c 0,2.26 0,5.09 -3.97,5.09 -4.25,0 -4.25,-2.54 -4.25,-5.09 l 0,-9.62 -10.48,0 c -1.98,0 -4.81,0 -4.81,-3.68 0,-3.68 2.83,-3.68 4.81,-3.68 l 10.48,0 0,-29.15 c 0,-11.6 7.94,-15.85 16.72,-15.85 9.07,0 18.7,5.1 18.7,15.85" /><path
         id="path206"
         style="fill:#010101;fill-opacity:1;fill-rule:evenodd;stroke:none"
         d="m 1402.34,1682.72 c 0,3.68 -3.12,3.68 -4.82,3.68 -5.1,0 -6.23,0.56 -7.37,0.85 l 0,26.03 c 0,8.49 -6.51,18.68 -23.79,18.68 -5.1,0 -17.29,0 -17.29,-8.77 0,-3.68 2.56,-5.66 5.39,-5.66 1.98,0 5.1,1.13 5.38,5.66 0,0.85 0,1.13 2.55,1.41 1.7,0 3.12,0 4.25,0 9.06,0 15.3,-3.68 15.3,-12.45 -21.25,0 -35.98,-5.94 -35.98,-17.54 0,-8.21 7.65,-16.14 19.83,-16.14 4.53,0 11.9,0.85 17.57,4.53 2.54,-3.96 8.21,-3.96 12.74,-3.96 3.4,0 6.24,0 6.24,3.68 z m -20.4,12.45 c 0,-2.83 0,-5.38 -4.53,-7.36 -4.54,-1.98 -9.92,-1.98 -10.77,-1.98 -7.37,0 -12.46,3.96 -12.46,8.78 0,5.94 10.48,10.46 27.76,10.46 l 0,-9.9" /><path
         id="path208"
         style="fill:#010101;fill-opacity:1;fill-rule:evenodd;stroke:none"
         d="m 1525.57,1724.89 c 0,4.24 -4.53,4.24 -6.23,4.24 l -41.36,0 c -1.7,0 -6.24,0 -6.24,-4.24 0,-4.25 3.97,-4.25 5.39,-4.25 l 43.06,0 c 1.42,0 5.38,0 5.38,4.25 z m 0,-18.12 c 0,4.25 -3.96,4.25 -5.38,4.25 l -43.06,0 c -1.42,0 -5.39,0 -5.39,-4.25 0,-4.24 4.54,-4.24 6.24,-4.24 l 41.36,0 c 1.7,0 6.23,0 6.23,4.24" /><path
         id="path210"
         style="fill:#010101;fill-opacity:1;fill-rule:evenodd;stroke:none"
         d="m 1651.36,1715.83 c 0,22.07 -12.47,37.92 -25.5,37.92 -13.6,0 -25.5,-16.13 -25.5,-37.92 0,-22.36 12.18,-37.92 25.5,-37.92 13.32,0 25.5,16.13 25.5,37.92 z m -8.5,1.13 c 0,-17.55 -7.65,-31.69 -17,-31.69 -9.35,0 -17.28,14.14 -17.28,31.69 0,17.55 8.5,29.43 17.28,29.43 8.78,0 17,-11.6 17,-29.43" /><path
         id="path212"
         style="fill:#ffffff;fill-opacity:1;fill-rule:evenodd;stroke:none"
         d="m 409.086,496.383 -405.40241,0 0,380.07 810.51941,0 0,-380.07 -405.117,0" /><g
         transform="scale(1.00053,0.99947)"
         id="g214"><path
           id="path216"
           style="fill:none;stroke:#010101;stroke-width:7.07739019;stroke-linecap:butt;stroke-linejoin:round;stroke-miterlimit:10;stroke-dasharray:none;stroke-opacity:1"
           d="m 408.584,496.646 -404.90236,0 0,380.272 810.09036,0 0,-380.272 -405.188,0 z" /></g><path
         id="path218"
         style="fill:#010101;fill-opacity:1;fill-rule:evenodd;stroke:none"
         d="m 272.816,728.16 c 0,3.68 -3.113,3.68 -4.816,3.68 l -12.465,0 0,39.336 c 0,3.679 -0.847,4.808 -4.816,4.808 l -16.996,0 c -1.985,0 -5.098,0 -5.098,-3.675 0,-3.68 3.113,-3.68 5.098,-3.68 l 13.597,0 0,-36.789 -14.73,0 c -1.699,0 -4.817,0 -4.817,-3.68 0,-3.68 3.118,-3.68 4.817,-3.68 l 35.41,0 c 1.703,0 4.816,0 4.816,3.68 z m -16.996,62.824 c 0,3.399 -2.55,5.946 -5.949,5.946 -3.398,0 -5.949,-2.547 -5.949,-5.946 0,-3.394 2.551,-5.941 5.949,-5.941 3.399,0 5.949,2.547 5.949,5.941" /><path
         id="path220"
         style="fill:#010101;fill-opacity:1;fill-rule:evenodd;stroke:none"
         d="m 403.984,760.988 c 0,4.242 -4.246,4.242 -5.664,4.242 l -17,0 0,16.981 c 0,1.418 0,5.66 -4.246,5.66 -4.25,0 -4.25,-4.242 -4.25,-5.66 l 0,-16.981 -17,0 c -1.414,0 -5.664,0 -5.664,-4.242 0,-4.246 4.25,-4.246 5.664,-4.246 l 17,0 0,-16.98 c 0,-1.414 0,-5.66 4.25,-5.66 4.246,0 4.246,4.246 4.246,5.66 l 0,16.98 17,0 c 1.418,0 5.664,0 5.664,4.246" /><path
         id="path222"
         style="fill:#010101;fill-opacity:1;fill-rule:evenodd;stroke:none"
         d="m 467.445,770.043 c 0,4.246 -4.531,4.246 -6.234,4.246 l -41.359,0 c -1.7,0 -6.235,0 -6.235,-4.246 0,-4.246 3.969,-4.246 5.383,-4.246 l 43.063,0 c 1.417,0 5.382,0 5.382,4.246 z m 0,-18.113 c 0,4.246 -3.965,4.246 -5.382,4.246 l -43.063,0 c -1.414,0 -5.383,0 -5.383,-4.246 0,-4.242 4.535,-4.242 6.235,-4.242 l 41.359,0 c 1.703,0 6.234,0 6.234,4.242" /><path
         id="path224"
         style="fill:#010101;fill-opacity:1;fill-rule:evenodd;stroke:none"
         d="m 589.266,728.16 c 0,3.68 -2.836,3.68 -4.817,3.68 l -10.765,0 0,62.258 c 0,1.699 0,4.812 -3.684,4.812 -2.266,0 -3.117,-1.414 -3.684,-2.832 -4.531,-10.187 -10.765,-11.601 -13.031,-11.887 -1.984,0 -4.531,-0.281 -4.531,-3.675 0,-2.832 2.266,-3.399 3.965,-3.399 2.265,0 7.367,0.567 12.465,5.094 l 0,-50.371 -10.766,0 c -1.984,0 -4.816,0 -4.816,-3.68 0,-3.68 3.117,-3.68 4.816,-3.68 l 30.031,0 c 1.699,0 4.817,0 4.817,3.68" /><path
         id="path226"
         style="fill:#010101;fill-opacity:1;fill-rule:evenodd;stroke:none"
         d="m 151.281,611.848 c 0,3.675 -3.117,3.675 -4.816,3.675 l -14.164,0 c -1.699,0 -4.817,0 -4.817,-3.675 0,-3.68 2.832,-3.68 4.817,-3.68 l 3.398,0 -13.031,-38.488 -13.031,38.488 3.398,0 c 1.703,0 4.535,0 4.535,3.68 0,3.675 -2.832,3.675 -4.535,3.675 l -14.1639,0 c -1.9844,0 -4.8164,0 -4.8164,-3.675 0,-3.68 3.1172,-3.68 4.8164,-3.68 l 3.6839,0 13.597,-40.754 c 1.418,-3.961 3.969,-3.961 6.516,-3.961 2.266,0 5.102,0 6.234,3.961 l 13.883,40.754 3.68,0 c 1.699,0 4.816,0 4.816,3.68" /><path
         id="path228"
         style="fill:#010101;fill-opacity:1;fill-rule:evenodd;stroke:none"
         d="m 209.641,579.02 c 0,12.449 -15.297,14.996 -19.262,15.562 L 182.16,596 c -3.398,0.281 -11.613,1.98 -11.613,6.508 0,3.113 3.965,6.793 15.297,6.793 9.918,0 11.617,-3.68 11.898,-6.793 0.285,-1.981 0.567,-3.961 4.25,-3.961 3.969,0 3.969,2.547 3.969,4.808 l 0,8.208 c 0,1.98 0,5.093 -3.402,5.093 -2.832,0 -3.399,-1.695 -3.684,-2.547 -5.383,2.547 -10.48,2.547 -12.746,2.547 -20.113,0 -22.949,-9.902 -22.949,-14.148 0,-11.039 12.75,-13.02 23.797,-14.715 5.949,-0.852 15.3,-2.547 15.3,-8.773 0,-4.528 -4.25,-8.493 -15.3,-8.493 -5.664,0 -12.18,1.414 -15.297,10.473 -0.567,2.262 -1.133,3.68 -4.25,3.68 -4.25,0 -4.25,-2.547 -4.25,-5.094 l 0,-11.606 c 0,-1.695 0,-4.808 3.683,-4.808 1.133,0 3.117,0 4.535,4.527 5.95,-4.246 12.18,-4.246 15.579,-4.246 18.984,0 22.664,9.906 22.664,15.567" /><path
         id="path230"
         style="fill:#010101;fill-opacity:1;fill-rule:evenodd;stroke:none"
         d="m 274.52,589.773 c 0,14.997 -11.332,26.883 -24.649,26.883 -13.598,0 -24.648,-11.886 -24.648,-26.883 0,-15.281 11.332,-26.601 24.648,-26.601 13.031,0 24.649,11.601 24.649,26.601 z m -8.5,0.848 c 0,-11.035 -7.368,-20.094 -16.149,-20.094 -8.781,0 -16.433,9.059 -16.433,20.094 0,10.754 7.933,18.68 16.433,18.68 8.5,0 16.149,-7.926 16.149,-18.68" /><path
         id="path232"
         style="fill:#010101;fill-opacity:1;fill-rule:evenodd;stroke:none"
         d="m 335.711,579.02 c 0,1.98 0,4.527 -4.25,4.527 -3.965,0 -3.965,-2.547 -3.965,-4.527 -0.285,-7.36 -7.082,-8.493 -9.918,-8.493 -9.062,0 -9.062,6.227 -9.062,9.059 l 0,28.582 19.547,0 c 1.98,0 4.816,0 4.816,3.68 0,3.675 -2.836,3.675 -4.816,3.675 l -19.547,0 0,9.625 c 0,2.262 0,5.094 -3.969,5.094 -4.25,0 -4.25,-2.547 -4.25,-5.094 l 0,-9.625 -10.481,0 c -1.984,0 -4.816,0 -4.816,-3.675 0,-3.68 2.832,-3.68 4.816,-3.68 l 10.481,0 0,-29.148 c 0,-11.606 7.933,-15.848 16.715,-15.848 9.066,0 18.699,5.094 18.699,15.848" /><path
         id="path234"
         style="fill:#010101;fill-opacity:1;fill-rule:evenodd;stroke:none"
         d="m 407.668,567.414 c 0,3.68 -3.117,3.68 -4.816,3.68 -5.098,0 -6.231,0.566 -7.364,0.847 l 0,26.039 c 0,8.489 -6.515,18.676 -23.797,18.676 -5.101,0 -17.281,0 -17.281,-8.773 0,-3.676 2.547,-5.66 5.383,-5.66 1.98,0 5.098,1.132 5.379,5.66 0,0.851 0,1.133 2.551,1.418 1.699,0 3.117,0 4.25,0 9.066,0 15.297,-3.68 15.297,-12.453 -21.247,0 -35.977,-5.942 -35.977,-17.547 0,-8.207 7.648,-16.129 19.832,-16.129 4.531,0 11.898,0.848 17.563,4.527 2.55,-3.965 8.214,-3.965 12.75,-3.965 3.398,0 6.23,0 6.23,3.68 z m -20.398,12.453 c 0,-2.828 0,-5.375 -4.532,-7.359 -4.531,-1.981 -9.914,-1.981 -10.765,-1.981 -7.368,0 -12.465,3.965 -12.465,8.774 0,5.945 10.48,10.472 27.762,10.472 l 0,-9.906" /><path
         id="path236"
         style="fill:#010101;fill-opacity:1;fill-rule:evenodd;stroke:none"
         d="m 530.906,600.527 c 0,4.243 -4.25,4.243 -5.668,4.243 l -16.996,0 0,16.98 c 0,1.418 0,5.66 -4.25,5.66 -4.25,0 -4.25,-4.242 -4.25,-5.66 l 0,-16.98 -17,0 c -1.414,0 -5.664,0 -5.664,-4.243 0,-4.246 4.25,-4.246 5.664,-4.246 l 17,0 0,-16.98 c 0,-1.414 0,-5.66 4.25,-5.66 4.25,0 4.25,4.246 4.25,5.66 l 0,16.98 16.996,0 c 1.418,0 5.668,0 5.668,4.246" /><path
         id="path238"
         style="fill:#010101;fill-opacity:1;fill-rule:evenodd;stroke:none"
         d="m 594.648,609.582 c 0,4.246 -4.535,4.246 -6.234,4.246 l -41.363,0 c -1.699,0 -6.231,0 -6.231,-4.246 0,-4.246 3.965,-4.246 5.383,-4.246 l 43.063,0 c 1.414,0 5.382,0 5.382,4.246 z m 0,-18.113 c 0,4.246 -3.968,4.246 -5.382,4.246 l -43.063,0 c -1.418,0 -5.383,0 -5.383,-4.246 0,-4.242 4.532,-4.242 6.231,-4.242 l 41.363,0 c 1.699,0 6.234,0 6.234,4.242" /><path
         id="path240"
         style="fill:#010101;fill-opacity:1;fill-rule:evenodd;stroke:none"
         d="m 717.598,567.699 c 0,3.68 -3.114,3.68 -4.817,3.68 l -12.465,0 0,39.336 c 0,3.68 -0.847,4.808 -4.816,4.808 l -16.996,0 c -1.984,0 -5.102,0 -5.102,-3.675 0,-3.68 3.118,-3.68 5.102,-3.68 l 13.598,0 0,-36.789 -14.731,0 c -1.699,0 -4.816,0 -4.816,-3.68 0,-3.679 3.117,-3.679 4.816,-3.679 l 35.41,0 c 1.703,0 4.817,0 4.817,3.679 z m -16.996,62.824 c 0,3.399 -2.551,5.946 -5.95,5.946 -3.398,0 -5.949,-2.547 -5.949,-5.946 0,-3.394 2.551,-5.941 5.949,-5.941 3.399,0 5.95,2.547 5.95,5.941" /><g
         transform="scale(1.00053,0.99947)"
         id="g242"><path
           id="path244"
           style="fill:none;stroke:#010101;stroke-width:7.36189985;stroke-linecap:butt;stroke-linejoin:round;stroke-miterlimit:10;stroke-dasharray:none;stroke-opacity:1"
           d="m 1371.01,2272.28 0,-207.55" /></g><path
         id="path246"
         style="fill:#010101;fill-opacity:1;fill-rule:evenodd;stroke:none"
         d="m 1371.74,1991.47 25.21,75.56 -50.43,0 25.22,-75.56" /><g
         transform="scale(1.00053,0.99947)"
         id="g248"><path
           id="path250"
           style="fill:none;stroke:#010101;stroke-width:7.36189985;stroke-linecap:butt;stroke-linejoin:round;stroke-miterlimit:10;stroke-dasharray:none;stroke-opacity:1"
           d="m 1371.01,1612.26 0,-215.76" /></g><path
         id="path252"
         style="fill:#010101;fill-opacity:1;fill-rule:evenodd;stroke:none"
         d="m 1371.74,1323.59 25.21,75.56 -50.43,0 25.22,-75.56" /></g></g></svg>