<?xml version="1.0" encoding="UTF-8" standalone="no"?>
<svg
   xmlns:dc="http://purl.org/dc/elements/1.1/"
   xmlns:cc="http://creativecommons.org/ns#"
   xmlns:rdf="http://www.w3.org/1999/02/22-rdf-syntax-ns#"
   xmlns:svg="http://www.w3.org/2000/svg"
   xmlns="http://www.w3.org/2000/svg"
   viewBox="0 0 620 498.75"
   height="498.75"
   width="620"
   xml:space="preserve"
   version="1.1"
   id="svg2"><metadata
     id="metadata8"><rdf:RDF><cc:Work
         rdf:about=""><dc:format>image/svg+xml</dc:format><dc:type
           rdf:resource="http://purl.org/dc/dcmitype/StillImage" /></cc:Work></rdf:RDF></metadata><defs
     id="defs6" /><g
     transform="matrix(1.25,0,0,-1.25,0,498.75)"
     id="g10"><g
       transform="scale(0.1,0.1)"
       id="g12"><path
         id="path14"
         style="fill:#ffffff;fill-opacity:1;fill-rule:evenodd;stroke:none"
         d="m 2469.59,3985.74 c 243.04,0 428.8,-52.15 428.8,-120.45 0,-68.3 -185.76,-120.44 -428.8,-120.44 -243.05,0 -428.52,52.14 -428.52,120.44 0,68.3 185.47,120.45 428.52,120.45 z m -428.52,0 0,0 z m 857.61,-241.46 0,0" /><g
         transform="scale(1.00035,0.999647)"
         id="g16"><path
           id="path18"
           style="fill:none;stroke:#010101;stroke-width:7.08658981;stroke-linecap:butt;stroke-linejoin:round;stroke-miterlimit:10;stroke-dasharray:none;stroke-opacity:1"
           d="m 2468.43,3987.43 c 242.97,0 428.66,-52.17 428.66,-120.49 0,-68.32 -185.69,-120.49 -428.66,-120.49 -242.95,0 -428.08,52.17 -428.08,120.49 0,68.32 185.13,120.49 428.08,120.49 z" /></g><g
         transform="scale(1.00035,0.999647)"
         id="g20"><path
           id="path22"
           style="fill:none;stroke:#010101;stroke-width:7.08658981;stroke-linecap:butt;stroke-linejoin:round;stroke-miterlimit:10;stroke-dasharray:none;stroke-opacity:1"
           d="m 2040.35,3987.43 0,0 z" /></g><g
         transform="scale(1.00035,0.999647)"
         id="g24"><path
           id="path26"
           style="fill:none;stroke:#010101;stroke-width:7.08658981;stroke-linecap:butt;stroke-linejoin:round;stroke-miterlimit:10;stroke-dasharray:none;stroke-opacity:1"
           d="m 2897.37,3745.89 0,0 z" /></g><path
         id="path28"
         style="fill:#010101;fill-opacity:1;fill-rule:evenodd;stroke:none"
         d="m 2274.19,3814 0,7.65 -46.23,0 45.66,70.56 0,4.83 -57,0 0,-7.38 23.54,0 c 1.41,0 2.83,0.29 4.25,0.29 l 16.16,0 -45.66,-71.13 0,-4.82 59.28,0" /><path
         id="path30"
         style="fill:#010101;fill-opacity:1;fill-rule:evenodd;stroke:none"
         d="m 2354.73,3814 -30.34,83.32 -10.5,0 -30.34,-83.32 9.07,0 8.79,24.37 33.75,0 8.79,-24.37 10.78,0 z m -22.12,31.17 -28.65,0 14.18,43.36 14.47,-43.36" /><path
         id="path32"
         style="fill:#010101;fill-opacity:1;fill-rule:evenodd;stroke:none"
         d="m 2423.64,3819.38 -0.56,8.5 c -3.4,-2.55 -6.81,-4.81 -10.78,-6.23 -3.69,-1.13 -7.94,-1.13 -11.91,-1.13 -7.66,0 -14.75,4.25 -19.57,10.2 -5.39,7.08 -7.94,16.15 -7.94,24.94 0,9.07 2.55,18.14 7.94,24.94 4.82,6.23 11.91,10.48 19.57,10.48 3.4,0 7.09,-0.28 10.49,-1.42 3.69,-1.13 6.81,-3.11 9.93,-5.1 l 1.7,9.92 c -3.69,1.42 -7.09,2.56 -10.78,3.12 -3.96,0.85 -7.65,0.85 -11.34,0.85 -10.49,0 -19.85,-4.82 -26.66,-12.47 -7.37,-8.22 -11.06,-19.27 -11.06,-30.32 0,-11.05 3.69,-21.82 11.06,-30.33 6.81,-7.65 16.17,-12.47 26.66,-12.47 3.97,0 8.22,0 12.2,1.14 3.96,1.13 7.65,3.4 11.05,5.38 z m -8.78,98.91 -7.09,0 -11.63,-11.62 -11.91,11.62 -6.81,0 15.03,-16.15 7.09,0 15.32,16.15" /><path
         id="path34"
         style="fill:#010101;fill-opacity:1;fill-rule:evenodd;stroke:none"
         d="m 2495.39,3814 0,8.21 -15.87,0 c -1.42,0 -2.84,-0.28 -4.26,-0.28 l -23.82,0 0,31.74 39.13,0 0,7.09 -39.13,0 0,28.62 16.45,0 c 1.41,0 2.83,0 4.25,0 l 21.56,0 0,7.66 -52.47,0 0,-83.04 54.16,0" /><path
         id="path36"
         style="fill:#010101;fill-opacity:1;fill-rule:evenodd;stroke:none"
         d="m 2575.94,3889.1 0,7.65 -71.47,0 0,-7.65 15.88,0 c 1.42,0 2.84,0 4.26,0 l 10.49,0 0,-74.82 10.21,0 0,74.82 10.78,0 c 1.41,0 2.83,0 4.25,0 l 15.6,0" /><path
         id="path38"
         style="fill:#010101;fill-opacity:1;fill-rule:evenodd;stroke:none"
         d="m 2645.42,3814 0,8.21 -15.88,0 c -1.42,0 -2.84,-0.28 -4.25,-0.28 l -23.83,0 0,31.74 39.14,0 0,7.09 -39.14,0 0,28.62 16.45,0 c 1.42,0 2.84,0 4.25,0 l 21.56,0 0,7.66 -52.47,0 0,-83.04 54.17,0" /><path
         id="path40"
         style="fill:#010101;fill-opacity:1;fill-rule:evenodd;stroke:none"
         d="m 2725.96,3814 -32.89,50.16 31.48,32.88 -11.35,0 -41.97,-44.22 0,44.22 -9.93,0 0,-83.04 9.93,0 0,27.2 15.6,16.16 28.07,-43.36 11.06,0" /><path
         id="path42"
         style="fill:#ffffff;fill-opacity:1;fill-rule:evenodd;stroke:none"
         d="m 1900.97,3480.15 1282.16,0 -144.36,-409.23 -1281.87,0 144.07,409.23 z m -144.07,0 0,0 z m 1426.23,-409.23 0,0" /><g
         transform="scale(1.00035,0.999647)"
         id="g44"><path
           id="path46"
           style="fill:none;stroke:#010101;stroke-width:7.08658981;stroke-linecap:butt;stroke-linejoin:round;stroke-miterlimit:10;stroke-dasharray:none;stroke-opacity:1"
           d="m 1900.3,3481.67 1281.42,0 -144.3,-409.66 -1281.14,0 144.02,409.66 z" /></g><g
         transform="scale(1.00035,0.999647)"
         id="g48"><path
           id="path50"
           style="fill:none;stroke:#010101;stroke-width:7.08658981;stroke-linecap:butt;stroke-linejoin:round;stroke-miterlimit:10;stroke-dasharray:none;stroke-opacity:1"
           d="m 1756.28,3481.67 0,0 z" /></g><g
         transform="scale(1.00035,0.999647)"
         id="g52"><path
           id="path54"
           style="fill:none;stroke:#010101;stroke-width:7.08658981;stroke-linecap:butt;stroke-linejoin:round;stroke-miterlimit:10;stroke-dasharray:none;stroke-opacity:1"
           d="m 3181.72,3072.01 0,0 z" /></g><path
         id="path56"
         style="fill:#010101;fill-opacity:1;fill-rule:evenodd;stroke:none"
         d="m 2363.52,3396.55 -9.07,0 -15.03,-39.96 c -4.83,-12.75 -10.78,-28.63 -11.92,-34.29 l -0.28,0 c -1.13,5.1 -4.82,15.02 -7.65,22.67 l -19.29,51.58 -10.78,0 31.77,-83.32 10.77,0 31.48,83.32" /><path
         id="path58"
         style="fill:#010101;fill-opacity:1;fill-rule:evenodd;stroke:none"
         d="m 2437.26,3313.23 0,83.04 -10.49,0 0,-36.28 -39.99,0 0,36.28 -10.21,0 0,-83.04 10.21,0 0,39.68 39.99,0 0,-39.68 10.49,0" /><path
         id="path60"
         style="fill:#010101;fill-opacity:1;fill-rule:evenodd;stroke:none"
         d="m 2528.58,3354.61 c 0,25.22 -17.3,44.21 -36.59,44.21 -20.13,0 -36.86,-19.27 -36.86,-44.21 0,-25.23 17.3,-43.93 36.58,-43.93 19.85,0 36.87,18.7 36.87,43.93 z m -10.21,1.7 c 0,-23.52 -13.05,-37.98 -26.38,-37.98 -13.89,0 -26.65,14.74 -26.65,37.98 0,22.1 13.04,35.14 26.37,35.14 13.9,0 26.66,-13.61 26.66,-35.14" /><path
         id="path62"
         style="fill:#010101;fill-opacity:1;fill-rule:evenodd;stroke:none"
         d="m 2613.09,3354.04 c 0,23.24 -16.16,42.23 -36.3,42.23 l -30.63,0 0,-83.04 30.63,0 c 20.14,0 36.3,18.14 36.3,40.81 z m -10.21,0 c 0,-21.82 -13.33,-34.01 -28.93,-34.01 l -17.86,0 0,69.43 17.86,0 c 16.17,0 28.93,-13.6 28.93,-35.42" /><path
         id="path64"
         style="fill:#010101;fill-opacity:1;fill-rule:evenodd;stroke:none"
         d="m 2640.03,3356.88 0,9.63 -9.64,0 0,-9.63 9.64,0 z m 0,-43.65 0,9.64 -9.64,0 0,-9.64 9.64,0" /><path
         id="path66"
         style="fill:#010101;fill-opacity:1;fill-rule:evenodd;stroke:none"
         d="m 2003.35,3140.64 c 0,3.68 -3.12,3.68 -4.82,3.68 -5.1,0 -6.24,0.57 -7.37,0.85 l 0,26.08 c 0,8.5 -6.53,18.7 -23.83,18.7 -5.1,0 -17.29,0 -17.29,-8.79 0,-3.68 2.55,-5.66 5.38,-5.66 1.99,0 5.11,1.13 5.39,5.66 0,0.86 0,1.14 2.55,1.42 1.71,0 3.12,0 4.26,0 9.07,0 15.31,-3.68 15.31,-12.47 -21.27,0 -36.02,-5.95 -36.02,-17.57 0,-8.22 7.66,-16.15 19.86,-16.15 4.53,0 11.91,0.85 17.58,4.53 2.55,-3.97 8.22,-3.97 12.76,-3.97 3.41,0 6.24,0 6.24,3.69 z m -20.42,12.47 c 0,-2.84 0,-5.39 -4.54,-7.37 -4.53,-1.98 -9.92,-1.98 -10.77,-1.98 -7.38,0 -12.48,3.96 -12.48,8.78 0,5.95 10.49,10.49 27.79,10.49 l 0,-9.92" /><path
         id="path68"
         style="fill:#010101;fill-opacity:1;fill-rule:evenodd;stroke:none"
         d="m 2025.47,3137.24 0,9.64 -9.64,0 0,-9.64 3.12,0 -3.12,-15.02 4.82,0 4.82,15.02" /><path
         id="path70"
         style="fill:#010101;fill-opacity:1;fill-rule:evenodd;stroke:none"
         d="m 2134.94,3163.03 c 0,14.74 -10.49,26.64 -23.25,26.64 -5.67,0 -11.06,-2.27 -15.32,-5.96 l 0,21.83 c 0,3.68 -0.57,4.82 -4.82,4.82 l -8.79,0 c -1.7,0 -4.82,0 -4.82,-3.69 0,-3.68 3.12,-3.68 4.82,-3.68 l 5.39,0 0,-60.94 c 0,-2.26 0,-4.81 4.25,-4.81 3.97,0 3.97,2.26 3.97,5.38 5.11,-5.1 10.21,-6.23 13.9,-6.23 13.04,0 24.67,11.33 24.67,26.64 z m -8.23,0 c 0,-11.34 -8.22,-19.27 -16.73,-19.27 -9.35,0 -13.61,10.48 -13.61,16.44 l 0,8.78 c 0,7.08 7.09,13.32 14.47,13.32 9.07,0 15.87,-8.79 15.87,-19.27" /><path
         id="path72"
         style="fill:#010101;fill-opacity:1;fill-rule:evenodd;stroke:none"
         d="m 2161.03,3137.24 0,9.64 -9.64,0 0,-9.64 3.12,0 -3.12,-15.02 4.82,0 4.82,15.02" /><path
         id="path74"
         style="fill:#010101;fill-opacity:1;fill-rule:evenodd;stroke:none"
         d="m 2267.95,3150.27 c 0,3.41 -3.4,3.41 -4.25,3.41 -1.71,0 -3.13,-0.29 -3.97,-2.84 -0.57,-1.41 -2.84,-7.08 -11.92,-7.08 -9.92,0 -18.71,8.22 -18.71,19.27 0,5.67 3.4,19.55 19.56,19.55 2.56,0 7.09,0 7.09,-1.13 0.29,-4.25 2.56,-5.95 5.39,-5.95 2.84,0 5.39,2.27 5.39,5.66 0,8.79 -12.48,8.79 -17.87,8.79 -20.7,0 -27.79,-16.44 -27.79,-26.92 0,-14.46 11.34,-26.64 26.38,-26.64 16.73,0 20.7,11.62 20.7,13.88" /><path
         id="path76"
         style="fill:#010101;fill-opacity:1;fill-rule:evenodd;stroke:none"
         d="m 2378.27,3108.05 c 0,0.56 0,0.56 -1.98,2.83 -11.91,11.91 -18.72,31.74 -18.72,56.4 0,23.24 5.67,43.36 19.57,57.53 1.13,1.13 1.13,1.42 1.13,1.7 0,0.57 -0.57,0.85 -0.85,0.85 -1.7,0 -11.63,-8.5 -17.3,-20.41 -6.24,-12.18 -9.08,-24.93 -9.08,-39.67 0,-10.77 1.71,-24.94 7.94,-37.98 7.09,-14.17 17.02,-22.1 18.44,-22.1 0.28,0 0.85,0.28 0.85,0.85" /><path
         id="path78"
         style="fill:#010101;fill-opacity:1;fill-rule:evenodd;stroke:none"
         d="m 2433.86,3151.69 c 0,0.85 -0.86,0.85 -1.14,0.85 -1.13,0 -1.42,-0.28 -1.7,-1.7 -2.55,-8.5 -9.07,-12.18 -15.6,-12.18 -7.37,0 -17.01,6.51 -17.01,24.65 0,20.12 10.2,24.94 16.16,24.94 4.54,0 11.06,-1.7 13.9,-6.52 -1.42,0 -5.96,0 -5.96,-4.82 0,-3.11 2.27,-5.1 5.11,-5.1 2.55,0 5.1,1.7 5.1,5.39 0,7.93 -8.51,13.6 -18.15,13.6 -14.18,0 -25.24,-12.47 -25.24,-27.49 0,-15.3 11.35,-27.2 24.96,-27.2 15.88,0 19.57,14.45 19.57,15.58" /><path
         id="path80"
         style="fill:#010101;fill-opacity:1;fill-rule:evenodd;stroke:none"
         d="m 2486.61,3151.69 c 0,0.57 -0.57,1.13 -1.14,1.13 -1.13,0 -1.42,-0.56 -1.7,-1.13 -3.12,-10.2 -11.06,-13.03 -16.16,-13.03 -4.83,0 -17.02,3.39 -17.02,24.37 l 0,2.27 33.18,0 c 2.55,0 2.84,0 2.84,2.26 0,11.9 -6.53,23.24 -20.99,23.24 -13.62,0 -24.11,-12.47 -24.11,-27.21 0,-15.87 12.2,-27.48 25.53,-27.48 14.17,0 19.57,13.03 19.57,15.58 z m -7.38,15.87 -28.64,0 c 1.13,18.71 11.62,20.98 15.03,20.98 12.76,0 13.61,-17.01 13.61,-20.98" /><path
         id="path82"
         style="fill:#010101;fill-opacity:1;fill-rule:evenodd;stroke:none"
         d="m 2520.35,3137.24 0,3.4 c -7.65,0 -9.07,0 -9.07,5.67 l 0,74.25 -16.73,-1.13 0,-3.41 c 8.22,0 9.07,-0.85 9.07,-6.8 l 0,-62.91 c 0,-5.67 -1.42,-5.67 -9.07,-5.67 l 0,-3.4 c 3.4,0.28 9.36,0.28 12.76,0.28 3.69,0 9.64,0 13.04,-0.28" /><path
         id="path84"
         style="fill:#010101;fill-opacity:1;fill-rule:evenodd;stroke:none"
         d="m 2580.19,3148.01 0,6.8 -2.83,0 0,-6.8 c 0,-6.8 -2.84,-7.94 -4.54,-7.94 -4.54,0 -4.54,6.52 -4.54,8.22 l 0,20.97 c 0,6.52 0,11.34 -5.39,16.16 -3.97,3.68 -9.35,5.38 -14.75,5.38 -9.92,0 -17.29,-6.52 -17.29,-14.17 0,-3.68 2.27,-5.38 4.82,-5.38 3.12,0 5.1,1.98 5.1,5.1 0,4.81 -4.25,4.81 -6.23,4.81 2.83,5.11 8.5,7.38 13.32,7.38 5.68,0 12.77,-4.83 12.77,-15.59 l 0,-4.82 c -24.11,0 -33.47,-10.2 -33.47,-19.56 0,-9.35 11.06,-12.46 18.43,-12.46 7.95,0 13.33,4.81 15.6,10.48 0.57,-5.67 4.26,-9.92 9.36,-9.92 2.55,0 9.64,1.7 9.64,11.34 z m -19.56,5.67 c 0,-11.34 -8.8,-15.31 -14.18,-15.31 -5.68,0 -10.78,4.54 -10.78,10.49 0,16.44 20.42,16.44 24.96,16.44 l 0,-11.62" /><path
         id="path86"
         style="fill:#010101;fill-opacity:1;fill-rule:evenodd;stroke:none"
         d="m 2663.86,3152.54 c 0,6.52 -3.98,10.21 -5.11,11.34 -4.25,3.68 -7.66,4.53 -15.31,5.95 -3.69,0.56 -12.48,2.27 -12.48,9.63 0,3.69 2.55,9.08 13.33,9.08 13.04,0 13.89,-11.06 13.89,-14.74 0.28,-1.14 1.14,-1.14 1.42,-1.14 1.42,0 1.42,0.85 1.42,2.84 l 0,12.47 c 0,2.26 0,2.83 -1.14,2.83 -1.13,0 -3.4,-2.55 -4.25,-3.68 -3.68,2.83 -7.37,3.68 -11.34,3.68 -14.47,0 -18.72,-7.93 -18.72,-14.45 0,-1.42 0,-5.67 4.54,-9.64 3.97,-3.4 7.94,-4.25 13.33,-5.38 6.8,-1.42 8.22,-1.7 11.34,-3.97 1.99,-1.98 3.68,-4.54 3.68,-7.93 0,-5.11 -3.11,-11.06 -13.6,-11.06 -7.95,0 -13.62,4.82 -16.17,16.72 -0.57,2.27 -0.85,2.27 -0.85,2.27 0,0.57 -0.57,0.57 -0.85,0.57 -1.42,0 -1.42,-0.57 -1.42,-2.84 l 0,-16.15 c 0,-2.27 0,-2.83 1.13,-2.83 0.57,0 0.85,0 2.84,2.55 0.57,0.84 0.57,1.13 2.27,3.11 4.54,-5.66 11.06,-5.66 13.05,-5.66 12.76,0 19,7.08 19,16.43 z m -0.86,66.03 -1.7,1.7 -16.44,-13.03 -16.74,13.03 -1.7,-1.7 18.44,-19.27 18.14,19.27" /><path
         id="path88"
         style="fill:#010101;fill-opacity:1;fill-rule:evenodd;stroke:none"
         d="m 2707.53,3152.26 0,6.8 -2.55,0 0,-6.52 c 0,-8.78 -3.69,-13.88 -8.23,-13.88 -8.22,0 -8.22,11.33 -8.22,13.32 l 0,33.72 17.01,0 0,3.4 -17.01,0 0,22.11 -2.55,0 c -0.29,-11.34 -4.54,-22.96 -15.32,-22.96 l 0,-2.55 10.21,0 0,-33.44 c 0,-13.32 8.79,-16.15 15.03,-16.15 7.66,0 11.63,7.36 11.63,16.15" /><path
         id="path90"
         style="fill:#010101;fill-opacity:1;fill-rule:evenodd;stroke:none"
         d="m 2762.83,3151.69 c 0,0.57 -0.56,1.13 -1.13,1.13 -1.14,0 -1.42,-0.56 -1.7,-1.13 -3.12,-10.2 -11.07,-13.03 -16.17,-13.03 -4.82,0 -17.02,3.39 -17.02,24.37 l 0,2.27 33.19,0 c 2.55,0 2.83,0 2.83,2.26 0,11.9 -6.52,23.24 -20.99,23.24 -13.61,0 -24.1,-12.47 -24.1,-27.21 0,-15.87 12.19,-27.48 25.52,-27.48 14.18,0 19.57,13.03 19.57,15.58 z m -7.37,15.87 -28.65,0 c 1.14,18.71 11.63,20.98 15.03,20.98 12.77,0 13.62,-17.01 13.62,-20.98" /><path
         id="path92"
         style="fill:#010101;fill-opacity:1;fill-rule:evenodd;stroke:none"
         d="m 2826.64,3185.42 0,3.4 c -3.69,0 -5.39,0 -9.07,0 l -9.64,0 0,-3.4 c 4.82,0 5.67,-3.69 5.67,-4.82 0,-1.14 -0.29,-1.7 -0.85,-3.12 l -12.48,-31.17 -13.33,33.72 c -0.57,1.7 -0.57,1.7 -0.57,2.27 0,3.12 4.54,3.12 6.52,3.12 l 0,3.4 c -2.83,0 -9.07,0 -12.48,0 l -11.34,0 0,-3.4 c 6.52,0 7.94,-0.57 9.36,-4.26 l 17.02,-42.79 c 0.56,-1.7 0.85,-2.26 2.26,-2.26 0.86,0 1.7,0.28 2.56,2.26 l 15.59,39.11 c 0.85,2.84 3.12,7.94 10.78,7.94" /><path
         id="path94"
         style="fill:#010101;fill-opacity:1;fill-rule:evenodd;stroke:none"
         d="m 2858.12,3137.24 0,3.4 c -7.94,0 -8.22,0.57 -8.22,5.38 l 0,43.93 -16.45,-1.13 0,-3.69 c 7.66,0 8.79,-0.56 8.79,-6.52 l 0,-32.59 c 0,-5.38 -1.42,-5.38 -9.08,-5.38 l 0,-3.4 c 3.41,0 9.08,0 12.48,0 1.42,0 8.51,0 12.48,0 z m -6.8,72.26 c 0,3.69 -2.84,5.96 -5.68,5.96 -3.4,0 -5.95,-2.55 -5.95,-5.96 0,-3.11 2.83,-5.66 5.95,-5.66 3.41,0 5.68,2.83 5.68,5.66" /><path
         id="path96"
         style="fill:#010101;fill-opacity:1;fill-rule:evenodd;stroke:none"
         d="m 2891.59,3137.24 0,3.4 c -7.66,0 -9.08,0 -9.08,5.67 l 0,74.25 -16.73,-1.13 0,-3.41 c 8.22,0 9.07,-0.85 9.07,-6.8 l 0,-62.91 c 0,-5.67 -1.42,-5.67 -9.07,-5.67 l 0,-3.4 c 3.4,0.28 9.36,0.28 12.76,0.28 3.69,0 9.64,0 13.05,-0.28" /><path
         id="path98"
         style="fill:#010101;fill-opacity:1;fill-rule:evenodd;stroke:none"
         d="m 2951.14,3148.01 0,6.8 -2.84,0 0,-6.8 c 0,-6.8 -2.83,-7.94 -4.53,-7.94 -4.54,0 -4.54,6.52 -4.54,8.22 l 0,20.97 c 0,6.52 0,11.34 -5.39,16.16 -3.97,3.68 -9.36,5.38 -14.75,5.38 -9.92,0 -17.29,-6.52 -17.29,-14.17 0,-3.68 2.26,-5.38 4.82,-5.38 3.11,0 5.1,1.98 5.1,5.1 0,4.81 -4.25,4.81 -6.24,4.81 2.84,5.11 8.51,7.38 13.33,7.38 5.67,0 12.76,-4.83 12.76,-15.59 l 0,-4.82 c -24.1,0 -33.46,-10.2 -33.46,-19.56 0,-9.35 11.06,-12.46 18.43,-12.46 7.94,0 13.33,4.81 15.6,10.48 0.57,-5.67 4.25,-9.92 9.36,-9.92 2.55,0 9.64,1.7 9.64,11.34 z m -19.57,5.67 c 0,-11.34 -8.79,-15.31 -14.18,-15.31 -5.67,0 -10.77,4.54 -10.77,10.49 0,16.44 20.42,16.44 24.95,16.44 l 0,-11.62" /><path
         id="path100"
         style="fill:#010101;fill-opacity:1;fill-rule:evenodd;stroke:none"
         d="m 2986.59,3167.28 c 0,9.07 -1.13,24.09 -7.94,37.97 -7.09,14.46 -16.73,22.11 -18.15,22.11 -0.57,0 -1.13,-0.28 -1.13,-0.85 0,-0.28 0,-0.57 1.98,-2.83 12.2,-11.91 18.72,-31.75 18.72,-56.4 0,-23.24 -5.39,-43.36 -19.28,-57.53 -1.42,-1.14 -1.42,-1.14 -1.42,-1.7 0,-0.57 0.56,-0.85 1.13,-0.85 1.7,0 11.34,8.5 17.3,20.4 6.24,12.19 8.79,25.22 8.79,39.68" /><path
         id="path102"
         style="fill:#ffffff;fill-opacity:1;fill-rule:evenodd;stroke:none"
         d="m 2469.87,2758.62 432.49,-223.32 -432.49,-223.6 -432.2,223.6 432.2,223.32 0,0 z m -432.2,0 0,0 z m 864.69,-446.92 0,0" /><g
         transform="scale(1.00035,0.999647)"
         id="g104"><path
           id="path106"
           style="fill:none;stroke:#010101;stroke-width:7.08658981;stroke-linecap:butt;stroke-linejoin:round;stroke-miterlimit:10;stroke-dasharray:none;stroke-opacity:1"
           d="m 2468.72,2759.59 432.33,-223.4 -432.33,-223.68 -431.77,223.68 431.77,223.4 0,0 z" /></g><g
         transform="scale(1.00035,0.999647)"
         id="g108"><path
           id="path110"
           style="fill:none;stroke:#010101;stroke-width:7.08658981;stroke-linecap:butt;stroke-linejoin:round;stroke-miterlimit:10;stroke-dasharray:none;stroke-opacity:1"
           d="m 2036.95,2759.59 0,0 z" /></g><g
         transform="scale(1.00035,0.999647)"
         id="g112"><path
           id="path114"
           style="fill:none;stroke:#010101;stroke-width:7.08658981;stroke-linecap:butt;stroke-linejoin:round;stroke-miterlimit:10;stroke-dasharray:none;stroke-opacity:1"
           d="m 2901.05,2312.51 0,0 z" /></g><path
         id="path116"
         style="fill:#010101;fill-opacity:1;fill-rule:evenodd;stroke:none"
         d="m 2373.16,2496.47 c 0,3.69 -3.11,3.69 -4.82,3.69 -5.1,0 -6.23,0.56 -7.37,0.84 l 0,26.08 c 0,8.5 -6.52,18.7 -23.82,18.7 -5.11,0 -17.3,0 -17.3,-8.78 0,-3.69 2.55,-5.67 5.39,-5.67 1.98,0 5.1,1.13 5.39,5.67 0,0.85 0,1.13 2.55,1.41 1.7,0 3.12,0 4.25,0 9.08,0 15.32,-3.68 15.32,-12.46 -21.27,0 -36.02,-5.96 -36.02,-17.57 0,-8.22 7.66,-16.16 19.85,-16.16 4.54,0 11.91,0.85 17.58,4.53 2.55,-3.96 8.23,-3.96 12.77,-3.96 3.4,0 6.23,0 6.23,3.68 z m -20.41,12.47 c 0,-2.83 0,-5.39 -4.54,-7.37 -4.54,-1.98 -9.93,-1.98 -10.78,-1.98 -7.37,0 -12.48,3.96 -12.48,8.79 0,5.94 10.5,10.48 27.8,10.48 l 0,-9.92" /><path
         id="path118"
         style="fill:#010101;fill-opacity:1;fill-rule:evenodd;stroke:none"
         d="m 2494.26,2504.12 c 0,2.27 -1.7,3.12 -2.83,3.97 l -34.6,21.82 34.6,21.54 c 1.13,0.85 2.83,1.98 2.83,4.25 0,2.55 -2.27,3.97 -4.25,3.97 -1.13,0 -1.42,0 -3.12,-1.13 l -39.42,-24.66 c -1.14,-0.85 -2.56,-1.7 -2.56,-3.97 0,-1.7 0.86,-2.83 1.99,-3.68 l 39.99,-25.23 c 1.7,-1.13 1.99,-1.13 3.12,-1.13 1.98,0 4.25,1.42 4.25,4.25" /><path
         id="path120"
         style="fill:#010101;fill-opacity:1;fill-rule:evenodd;stroke:none"
         d="m 2623.58,2518.86 c 0,14.74 -10.49,26.64 -23.25,26.64 -5.67,0 -11.06,-2.27 -15.31,-5.95 l 0,21.82 c 0,3.68 -0.57,4.82 -4.83,4.82 l -8.79,0 c -1.7,0 -4.82,0 -4.82,-3.69 0,-3.68 3.12,-3.68 4.82,-3.68 l 5.39,0 0,-60.93 c 0,-2.27 0,-4.82 4.25,-4.82 3.98,0 3.98,2.27 3.98,5.38 5.1,-5.09 10.2,-6.23 13.89,-6.23 13.05,0 24.67,11.33 24.67,26.64 z m -8.22,0 c 0,-11.34 -8.22,-19.27 -16.73,-19.27 -9.36,0 -13.61,10.48 -13.61,16.44 l 0,8.78 c 0,7.08 7.09,13.32 14.46,13.32 9.07,0 15.88,-8.79 15.88,-19.27" /><path
         id="path122"
         style="fill:#ffffff;fill-opacity:1;fill-rule:evenodd;stroke:none"
         d="m 1154.54,2203.43 432.49,-223.31 -432.49,-223.61 -431.927,223.61 431.927,223.31 0,0 z m -431.927,0 0,0 z m 864.417,-446.92 0,0" /><g
         transform="scale(1.00035,0.999647)"
         id="g124"><path
           id="path126"
           style="fill:none;stroke:#010101;stroke-width:7.08658981;stroke-linecap:butt;stroke-linejoin:round;stroke-miterlimit:10;stroke-dasharray:none;stroke-opacity:1"
           d="m 1154.13,2204.5 432.34,-223.4 -432.34,-223.68 -432.057,223.68 432.057,223.4 0,0 z" /></g><g
         transform="scale(1.00035,0.999647)"
         id="g128"><path
           id="path130"
           style="fill:none;stroke:#010101;stroke-width:7.08658981;stroke-linecap:butt;stroke-linejoin:round;stroke-miterlimit:10;stroke-dasharray:none;stroke-opacity:1"
           d="m 722.073,2204.5 0,0 z" /></g><g
         transform="scale(1.00035,0.999647)"
         id="g132"><path
           id="path134"
           style="fill:none;stroke:#010101;stroke-width:7.08658981;stroke-linecap:butt;stroke-linejoin:round;stroke-miterlimit:10;stroke-dasharray:none;stroke-opacity:1"
           d="m 1586.47,1757.42 0,0 z" /></g><path
         id="path136"
         style="fill:#010101;fill-opacity:1;fill-rule:evenodd;stroke:none"
         d="m 1057.83,1941.29 c 0,3.68 -3.12,3.68 -4.82,3.68 -5.11,0 -6.24,0.57 -7.38,0.85 l 0,26.08 c 0,8.5 -6.52,18.7 -23.82,18.7 -5.1,0 -17.3,0 -17.3,-8.78 0,-3.69 2.55,-5.67 5.39,-5.67 1.98,0 5.1,1.13 5.39,5.67 0,0.85 0,1.13 2.55,1.41 1.7,0 3.12,0 4.25,0 9.08,0 15.32,-3.68 15.32,-12.46 -21.27,0 -36.02,-5.96 -36.02,-17.58 0,-8.22 7.66,-16.15 19.85,-16.15 4.54,0 11.92,0.85 17.59,4.53 2.55,-3.96 8.22,-3.96 12.76,-3.96 3.4,0 6.24,0 6.24,3.68 z m -20.42,12.47 c 0,-2.83 0,-5.38 -4.54,-7.37 -4.54,-1.98 -9.92,-1.98 -10.78,-1.98 -7.37,0 -12.47,3.97 -12.47,8.78 0,5.95 10.49,10.49 27.79,10.49 l 0,-9.92" /><path
         id="path138"
         style="fill:#010101;fill-opacity:1;fill-rule:evenodd;stroke:none"
         d="m 1178.93,1948.94 c 0,2.27 -1.71,3.12 -2.84,3.97 l -34.6,21.82 34.6,21.54 c 1.13,0.85 2.84,1.98 2.84,4.25 0,2.55 -2.27,3.97 -4.26,3.97 -1.13,0 -1.42,0 -3.12,-1.13 l -39.42,-24.66 c -1.13,-0.85 -2.55,-1.7 -2.55,-3.97 0,-1.7 0.85,-2.83 1.98,-3.68 l 39.99,-25.23 c 1.7,-1.13 1.99,-1.13 3.12,-1.13 1.99,0 4.26,1.42 4.26,4.25" /><path
         id="path140"
         style="fill:#010101;fill-opacity:1;fill-rule:evenodd;stroke:none"
         d="m 1305.7,1950.93 c 0,3.4 -3.41,3.4 -4.26,3.4 -1.7,0 -3.12,-0.29 -3.97,-2.84 -0.57,-1.42 -2.84,-7.08 -11.91,-7.08 -9.93,0 -18.72,8.22 -18.72,19.27 0,5.67 3.41,19.55 19.57,19.55 2.55,0 7.09,0 7.09,-1.13 0.28,-4.25 2.55,-5.95 5.39,-5.95 2.83,0 5.39,2.26 5.39,5.67 0,8.78 -12.48,8.78 -17.87,8.78 -20.7,0 -27.79,-16.44 -27.79,-26.92 0,-14.45 11.34,-26.64 26.37,-26.64 16.73,0 20.71,11.62 20.71,13.89" /><path
         id="path142"
         style="fill:#ffffff;fill-opacity:1;fill-rule:evenodd;stroke:none"
         d="m 3792.02,2203.15 432.49,-223.32 -432.49,-223.6 -431.93,223.6 431.93,223.32 0,0 z m -431.93,0 0,0 z m 864.42,-446.92 0,0" /><g
         transform="scale(1.00035,0.999647)"
         id="g144"><path
           id="path146"
           style="fill:none;stroke:#010101;stroke-width:7.08658981;stroke-linecap:butt;stroke-linejoin:round;stroke-miterlimit:10;stroke-dasharray:none;stroke-opacity:1"
           d="m 3790.68,2204.21 432.34,-223.39 -432.34,-223.69 -432.06,223.69 432.06,223.39 0,0 z" /></g><g
         transform="scale(1.00035,0.999647)"
         id="g148"><path
           id="path150"
           style="fill:none;stroke:#010101;stroke-width:7.08658981;stroke-linecap:butt;stroke-linejoin:round;stroke-miterlimit:10;stroke-dasharray:none;stroke-opacity:1"
           d="m 3358.62,2204.21 0,0 z" /></g><g
         transform="scale(1.00035,0.999647)"
         id="g152"><path
           id="path154"
           style="fill:none;stroke:#010101;stroke-width:7.08658981;stroke-linecap:butt;stroke-linejoin:round;stroke-miterlimit:10;stroke-dasharray:none;stroke-opacity:1"
           d="m 4223.02,1757.13 0,0 z" /></g><path
         id="path156"
         style="fill:#010101;fill-opacity:1;fill-rule:evenodd;stroke:none"
         d="m 3691.34,1963.39 c 0,14.74 -10.5,26.65 -23.26,26.65 -5.67,0 -11.06,-2.27 -15.31,-5.96 l 0,21.83 c 0,3.68 -0.57,4.81 -4.82,4.81 l -8.79,0 c -1.71,0 -4.82,0 -4.82,-3.68 0,-3.68 3.11,-3.68 4.82,-3.68 l 5.38,0 0,-60.93 c 0,-2.27 0,-4.82 4.26,-4.82 3.97,0 3.97,2.27 3.97,5.38 5.1,-5.1 10.21,-6.23 13.89,-6.23 13.05,0 24.68,11.33 24.68,26.63 z m -8.23,0 c 0,-11.33 -8.22,-19.26 -16.73,-19.26 -9.36,0 -13.61,10.48 -13.61,16.43 l 0,8.79 c 0,7.08 7.09,13.32 14.46,13.32 9.08,0 15.88,-8.79 15.88,-19.28" /><path
         id="path158"
         style="fill:#010101;fill-opacity:1;fill-rule:evenodd;stroke:none"
         d="m 3816.41,1948.66 c 0,2.27 -1.71,3.12 -2.84,3.97 l -34.6,21.82 34.6,21.54 c 1.13,0.85 2.84,1.98 2.84,4.25 0,2.55 -2.27,3.97 -4.26,3.97 -1.13,0 -1.42,0 -3.12,-1.14 l -39.42,-24.66 c -1.13,-0.84 -2.55,-1.7 -2.55,-3.96 0,-1.7 0.85,-2.84 1.98,-3.68 l 39.99,-25.23 c 1.7,-1.13 1.99,-1.13 3.12,-1.13 1.99,0 4.26,1.41 4.26,4.25" /><path
         id="path160"
         style="fill:#010101;fill-opacity:1;fill-rule:evenodd;stroke:none"
         d="m 3943.18,1950.64 c 0,3.4 -3.41,3.4 -4.26,3.4 -1.7,0 -3.12,-0.28 -3.97,-2.83 -0.57,-1.42 -2.84,-7.08 -11.91,-7.08 -9.93,0 -18.72,8.21 -18.72,19.26 0,5.67 3.4,19.56 19.57,19.56 2.55,0 7.09,0 7.09,-1.13 0.28,-4.25 2.55,-5.95 5.39,-5.95 2.83,0 5.39,2.26 5.39,5.67 0,8.78 -12.48,8.78 -17.87,8.78 -20.7,0 -27.79,-16.44 -27.79,-26.93 0,-14.45 11.34,-26.63 26.37,-26.63 16.73,0 20.71,11.62 20.71,13.88" /><path
         id="path162"
         style="fill:#ffffff;fill-opacity:1;fill-rule:evenodd;stroke:none"
         d="m 435.324,1342.75 -431.6365,0 0,262.43 862.9925,0 0,-262.43 -431.356,0" /><g
         transform="scale(1.00035,0.999647)"
         id="g164"><path
           id="path166"
           style="fill:none;stroke:#010101;stroke-width:7.08658981;stroke-linecap:butt;stroke-linejoin:round;stroke-miterlimit:10;stroke-dasharray:none;stroke-opacity:1"
           d="m 434.89,1343.51 -431.48886,0 0,262.52 862.69186,0 0,-262.52 -431.203,0 z" /></g><path
         id="path168"
         style="fill:#010101;fill-opacity:1;fill-rule:evenodd;stroke:none"
         d="m 273.957,1435.42 c 0,3.69 -3.117,3.69 -5.105,3.69 l -5.106,0 0,27.77 c 0,12.19 -6.238,17.29 -15.598,17.29 -8.222,0 -13.609,-4.26 -15.878,-6.52 0,3.97 0,5.67 -4.825,5.67 l -8.789,0 c -1.703,0 -4.82,0 -4.82,-3.69 0,-3.68 3.117,-3.68 4.82,-3.68 l 5.387,0 0,-36.84 -5.387,0 c -1.703,0 -4.82,0 -4.82,-3.69 0,-3.68 3.117,-3.68 4.82,-3.68 l 19,0 c 1.703,0 4.821,0 4.821,3.68 0,3.69 -2.836,3.69 -4.821,3.69 l -5.386,0 0,21.25 c 0,11.9 9.074,16.44 15.031,16.44 6.519,0 7.937,-3.4 7.937,-10.49 l 0,-27.2 -4.535,0 c -1.984,0 -4.82,0 -4.82,-3.69 0,-3.68 3.117,-3.68 4.82,-3.68 l 18.434,0 c 1.703,0 4.82,0 4.82,3.68" /><path
         id="path170"
         style="fill:#010101;fill-opacity:1;fill-rule:evenodd;stroke:none"
         d="m 338.336,1435.14 c 0,3.68 -3.121,3.68 -4.824,3.68 -5.102,0 -6.239,0.57 -7.371,0.85 l 0,26.08 c 0,8.5 -6.524,18.7 -23.825,18.7 -5.105,0 -17.296,0 -17.296,-8.79 0,-3.68 2.55,-5.66 5.386,-5.66 1.985,0 5.106,1.13 5.387,5.66 0,0.86 0,1.14 2.555,1.42 1.699,0 3.121,0 4.254,0 9.074,0 15.312,-3.68 15.312,-12.47 -21.269,0 -36.016,-5.95 -36.016,-17.57 0,-8.22 7.657,-16.15 19.852,-16.15 4.539,0 11.91,0.85 17.582,4.53 2.555,-3.97 8.227,-3.97 12.762,-3.97 3.406,0 6.242,0 6.242,3.69 z m -20.422,12.47 c 0,-2.84 0,-5.39 -4.535,-7.37 -4.539,-1.99 -9.926,-1.99 -10.777,-1.99 -7.375,0 -12.481,3.97 -12.481,8.79 0,5.95 10.496,10.49 27.793,10.49 l 0,-9.92" /><path
         id="path172"
         style="fill:#010101;fill-opacity:1;fill-rule:evenodd;stroke:none"
         d="m 383.996,1426.64 0,51.86 c 0,3.96 -0.851,5.1 -4.824,5.1 l -19,0 c -1.984,0 -4.82,0 -4.82,-3.69 0,-3.68 2.836,-3.68 4.535,-3.68 l 15.601,0 0,-49.03 c 0,-1.98 0,-6.52 -3.121,-10.77 -3.121,-4.53 -6.808,-4.53 -9.644,-4.53 -3.403,0 -4.821,0.28 -6.52,0.28 0,0.57 0,0.85 0,1.7 0,3.12 -2.836,5.39 -5.39,5.39 -2.551,0 -5.387,-2.27 -5.387,-5.67 0,-9.07 11.91,-9.07 16.73,-9.07 17.301,0 21.84,14.45 21.84,22.11 z m 0,71.7 c 0,3.4 -2.555,5.95 -5.957,5.95 -3.402,0 -5.957,-2.55 -5.957,-5.95 0,-3.41 2.555,-5.96 5.957,-5.96 3.402,0 5.957,2.55 5.957,5.96" /><path
         id="path174"
         style="fill:#010101;fill-opacity:1;fill-rule:evenodd;stroke:none"
         d="m 525.227,1477.36 c 0,4.26 -4.536,4.26 -6.239,4.26 l -41.406,0 c -1.703,0 -6.238,0 -6.238,-4.26 0,-4.25 3.969,-4.25 5.386,-4.25 l 43.11,0 c 1.418,0 5.387,0 5.387,4.25 z m 0,-18.13 c 0,4.25 -3.969,4.25 -5.387,4.25 l -43.11,0 c -1.417,0 -5.386,0 -5.386,-4.25 0,-4.25 4.535,-4.25 6.238,-4.25 l 41.406,0 c 1.703,0 6.239,0 6.239,4.25" /><path
         id="path176"
         style="fill:#010101;fill-opacity:1;fill-rule:evenodd;stroke:none"
         d="m 656.535,1435.14 c 0,3.68 -3.121,3.68 -4.824,3.68 -5.102,0 -6.238,0.57 -7.371,0.85 l 0,26.08 c 0,8.5 -6.524,18.7 -23.824,18.7 -5.106,0 -17.297,0 -17.297,-8.79 0,-3.68 2.551,-5.66 5.386,-5.66 1.985,0 5.106,1.13 5.387,5.66 0,0.86 0,1.14 2.555,1.42 1.699,0 3.121,0 4.254,0 9.074,0 15.312,-3.68 15.312,-12.47 -21.269,0 -36.015,-5.95 -36.015,-17.57 0,-8.22 7.656,-16.15 19.851,-16.15 4.539,0 11.91,0.85 17.582,4.53 2.555,-3.97 8.227,-3.97 12.762,-3.97 3.406,0 6.242,0 6.242,3.69 z m -20.422,12.47 c 0,-2.84 0,-5.39 -4.535,-7.37 -4.539,-1.99 -9.926,-1.99 -10.777,-1.99 -7.375,0 -12.481,3.97 -12.481,8.79 0,5.95 10.496,10.49 27.793,10.49 l 0,-9.92" /><path
         id="path178"
         style="fill:#ffffff;fill-opacity:1;fill-rule:evenodd;stroke:none"
         d="m 3079.89,1342.75 -431.63,0 0,262.43 862.71,0 0,-262.43 -431.08,0" /><g
         transform="scale(1.00035,0.999647)"
         id="g180"><path
           id="path182"
           style="fill:none;stroke:#010101;stroke-width:7.08658981;stroke-linecap:butt;stroke-linejoin:round;stroke-miterlimit:10;stroke-dasharray:none;stroke-opacity:1"
           d="m 3078.53,1343.51 -431.49,0 0,262.52 862.69,0 0,-262.52 -431.2,0 z" /></g><path
         id="path184"
         style="fill:#010101;fill-opacity:1;fill-rule:evenodd;stroke:none"
         d="m 2918.53,1435.42 c 0,3.69 -3.12,3.69 -5.11,3.69 l -5.1,0 0,27.77 c 0,12.19 -6.24,17.29 -15.6,17.29 -8.22,0 -13.61,-4.26 -15.88,-6.52 0,3.97 0,5.67 -4.82,5.67 l -8.79,0 c -1.71,0 -4.82,0 -4.82,-3.69 0,-3.68 3.11,-3.68 4.82,-3.68 l 5.38,0 0,-36.84 -5.38,0 c -1.71,0 -4.82,0 -4.82,-3.69 0,-3.68 3.11,-3.68 4.82,-3.68 l 19,0 c 1.7,0 4.82,0 4.82,3.68 0,3.69 -2.84,3.69 -4.82,3.69 l -5.39,0 0,21.25 c 0,11.9 9.07,16.44 15.03,16.44 6.52,0 7.94,-3.4 7.94,-10.49 l 0,-27.2 -4.54,0 c -1.98,0 -4.82,0 -4.82,-3.69 0,-3.68 3.12,-3.68 4.82,-3.68 l 18.44,0 c 1.7,0 4.82,0 4.82,3.68" /><path
         id="path186"
         style="fill:#010101;fill-opacity:1;fill-rule:evenodd;stroke:none"
         d="m 2982.91,1435.14 c 0,3.68 -3.12,3.68 -4.83,3.68 -5.1,0 -6.24,0.57 -7.37,0.85 l 0,26.08 c 0,8.5 -6.52,18.7 -23.82,18.7 -5.11,0 -17.3,0 -17.3,-8.79 0,-3.68 2.55,-5.66 5.39,-5.66 1.98,0 5.1,1.13 5.38,5.66 0,0.86 0,1.14 2.56,1.42 1.7,0 3.12,0 4.25,0 9.08,0 15.31,-3.68 15.31,-12.47 -21.27,0 -36.01,-5.95 -36.01,-17.57 0,-8.22 7.66,-16.15 19.85,-16.15 4.54,0 11.91,0.85 17.58,4.53 2.56,-3.97 8.23,-3.97 12.76,-3.97 3.41,0 6.25,0 6.25,3.69 z m -20.43,12.47 c 0,-2.84 0,-5.39 -4.53,-7.37 -4.54,-1.99 -9.93,-1.99 -10.78,-1.99 -7.37,0 -12.48,3.97 -12.48,8.79 0,5.95 10.5,10.49 27.79,10.49 l 0,-9.92" /><path
         id="path188"
         style="fill:#010101;fill-opacity:1;fill-rule:evenodd;stroke:none"
         d="m 3028.57,1426.64 0,51.86 c 0,3.96 -0.86,5.1 -4.83,5.1 l -19,0 c -1.98,0 -4.82,0 -4.82,-3.69 0,-3.68 2.84,-3.68 4.54,-3.68 l 15.59,0 0,-49.03 c 0,-1.98 0,-6.52 -3.11,-10.77 -3.12,-4.53 -6.81,-4.53 -9.65,-4.53 -3.4,0 -4.82,0.28 -6.52,0.28 0,0.57 0,0.85 0,1.7 0,3.12 -2.83,5.39 -5.39,5.39 -2.55,0 -5.38,-2.27 -5.38,-5.67 0,-9.07 11.91,-9.07 16.73,-9.07 17.3,0 21.84,14.45 21.84,22.11 z m 0,71.7 c 0,3.4 -2.56,5.95 -5.96,5.95 -3.4,0 -5.96,-2.55 -5.96,-5.95 0,-3.41 2.56,-5.96 5.96,-5.96 3.4,0 5.96,2.55 5.96,5.96" /><path
         id="path190"
         style="fill:#010101;fill-opacity:1;fill-rule:evenodd;stroke:none"
         d="m 3169.8,1477.36 c 0,4.26 -4.54,4.26 -6.24,4.26 l -41.41,0 c -1.7,0 -6.24,0 -6.24,-4.26 0,-4.25 3.97,-4.25 5.39,-4.25 l 43.11,0 c 1.42,0 5.39,0 5.39,4.25 z m 0,-18.13 c 0,4.25 -3.97,4.25 -5.39,4.25 l -43.11,0 c -1.42,0 -5.39,0 -5.39,-4.25 0,-4.25 4.54,-4.25 6.24,-4.25 l 41.41,0 c 1.7,0 6.24,0 6.24,4.25" /><path
         id="path192"
         style="fill:#010101;fill-opacity:1;fill-rule:evenodd;stroke:none"
         d="m 3297.13,1457.53 c 0,14.73 -10.49,26.64 -23.25,26.64 -5.67,0 -11.06,-2.27 -15.32,-5.96 l 0,21.83 c 0,3.68 -0.56,4.82 -4.82,4.82 l -8.79,0 c -1.7,0 -4.82,0 -4.82,-3.69 0,-3.69 3.12,-3.69 4.82,-3.69 l 5.39,0 0,-60.93 c 0,-2.26 0,-4.81 4.25,-4.81 3.97,0 3.97,2.26 3.97,5.38 5.11,-5.1 10.21,-6.23 13.9,-6.23 13.05,0 24.67,11.33 24.67,26.64 z m -8.22,0 c 0,-11.34 -8.23,-19.28 -16.73,-19.28 -9.36,0 -13.62,10.49 -13.62,16.44 l 0,8.79 c 0,7.08 7.09,13.32 14.47,13.32 9.07,0 15.88,-8.79 15.88,-19.27" /><path
         id="path194"
         style="fill:#ffffff;fill-opacity:1;fill-rule:evenodd;stroke:none"
         d="m 1896.43,1342.75 -431.64,0 0,262.43 863,0 0,-262.43 -431.36,0" /><g
         transform="scale(1.00035,0.999647)"
         id="g196"><path
           id="path198"
           style="fill:none;stroke:#010101;stroke-width:7.08658981;stroke-linecap:butt;stroke-linejoin:round;stroke-miterlimit:10;stroke-dasharray:none;stroke-opacity:1"
           d="m 1895.76,1343.51 -431.48,0 0,262.52 862.4,0 0,-262.52 -430.92,0 z" /></g><path
         id="path200"
         style="fill:#010101;fill-opacity:1;fill-rule:evenodd;stroke:none"
         d="m 1735.07,1435.42 c 0,3.69 -3.12,3.69 -5.11,3.69 l -5.1,0 0,27.77 c 0,12.19 -6.24,17.29 -15.6,17.29 -8.23,0 -13.62,-4.26 -15.88,-6.52 0,3.97 0,5.67 -4.83,5.67 l -8.79,0 c -1.7,0 -4.82,0 -4.82,-3.69 0,-3.68 3.12,-3.68 4.82,-3.68 l 5.39,0 0,-36.84 -5.39,0 c -1.7,0 -4.82,0 -4.82,-3.69 0,-3.68 3.12,-3.68 4.82,-3.68 l 19.01,0 c 1.69,0 4.82,0 4.82,3.68 0,3.69 -2.84,3.69 -4.82,3.69 l -5.39,0 0,21.25 c 0,11.9 9.07,16.44 15.03,16.44 6.52,0 7.94,-3.4 7.94,-10.49 l 0,-27.2 -4.54,0 c -1.99,0 -4.82,0 -4.82,-3.69 0,-3.68 3.12,-3.68 4.82,-3.68 l 18.43,0 c 1.71,0 4.83,0 4.83,3.68" /><path
         id="path202"
         style="fill:#010101;fill-opacity:1;fill-rule:evenodd;stroke:none"
         d="m 1799.44,1435.14 c 0,3.68 -3.12,3.68 -4.82,3.68 -5.1,0 -6.24,0.57 -7.37,0.85 l 0,26.08 c 0,8.5 -6.53,18.7 -23.82,18.7 -5.11,0 -17.3,0 -17.3,-8.79 0,-3.68 2.55,-5.66 5.38,-5.66 1.99,0 5.11,1.13 5.39,5.66 0,0.86 0,1.14 2.55,1.42 1.71,0 3.12,0 4.26,0 9.08,0 15.31,-3.68 15.31,-12.47 -21.27,0 -36.02,-5.95 -36.02,-17.57 0,-8.22 7.66,-16.15 19.86,-16.15 4.53,0 11.91,0.85 17.58,4.53 2.55,-3.97 8.22,-3.97 12.76,-3.97 3.41,0 6.24,0 6.24,3.69 z m -20.42,12.47 c 0,-2.84 0,-5.39 -4.54,-7.37 -4.53,-1.99 -9.92,-1.99 -10.77,-1.99 -7.37,0 -12.48,3.97 -12.48,8.79 0,5.95 10.49,10.49 27.79,10.49 l 0,-9.92" /><path
         id="path204"
         style="fill:#010101;fill-opacity:1;fill-rule:evenodd;stroke:none"
         d="m 1845.1,1426.64 0,51.86 c 0,3.96 -0.85,5.1 -4.82,5.1 l -19,0 c -1.99,0 -4.82,0 -4.82,-3.69 0,-3.68 2.83,-3.68 4.54,-3.68 l 15.59,0 0,-49.03 c 0,-1.98 0,-6.52 -3.12,-10.77 -3.11,-4.53 -6.8,-4.53 -9.64,-4.53 -3.4,0 -4.82,0.28 -6.52,0.28 0,0.57 0,0.85 0,1.7 0,3.12 -2.84,5.39 -5.39,5.39 -2.55,0 -5.39,-2.27 -5.39,-5.67 0,-9.07 11.91,-9.07 16.74,-9.07 17.29,0 21.83,14.45 21.83,22.11 z m 0,71.7 c 0,3.4 -2.55,5.95 -5.96,5.95 -3.4,0 -5.95,-2.55 -5.95,-5.95 0,-3.41 2.55,-5.96 5.95,-5.96 3.41,0 5.96,2.55 5.96,5.96" /><path
         id="path206"
         style="fill:#010101;fill-opacity:1;fill-rule:evenodd;stroke:none"
         d="m 1986.34,1477.36 c 0,4.26 -4.54,4.26 -6.25,4.26 l -41.4,0 c -1.7,0 -6.24,0 -6.24,-4.26 0,-4.25 3.97,-4.25 5.39,-4.25 l 43.11,0 c 1.41,0 5.39,0 5.39,4.25 z m 0,-18.13 c 0,4.25 -3.98,4.25 -5.39,4.25 l -43.11,0 c -1.42,0 -5.39,0 -5.39,-4.25 0,-4.25 4.54,-4.25 6.24,-4.25 l 41.4,0 c 1.71,0 6.25,0 6.25,4.25" /><path
         id="path208"
         style="fill:#010101;fill-opacity:1;fill-rule:evenodd;stroke:none"
         d="m 2111.12,1444.77 c 0,3.41 -3.41,3.41 -4.26,3.41 -1.7,0 -3.11,-0.29 -3.97,-2.84 -0.56,-1.42 -2.83,-7.09 -11.91,-7.09 -9.92,0 -18.71,8.22 -18.71,19.28 0,5.67 3.4,19.55 19.56,19.55 2.56,0 7.09,0 7.09,-1.13 0.29,-4.25 2.56,-5.95 5.39,-5.95 2.84,0 5.39,2.26 5.39,5.66 0,8.79 -12.48,8.79 -17.87,8.79 -20.7,0 -27.79,-16.44 -27.79,-26.92 0,-14.46 11.35,-26.64 26.37,-26.64 16.74,0 20.71,11.62 20.71,13.88" /><path
         id="path210"
         style="fill:#ffffff;fill-opacity:1;fill-rule:evenodd;stroke:none"
         d="m 4523.42,1342.75 -431.64,0 0,262.43 863,0 0,-262.43 -431.36,0" /><g
         transform="scale(1.00035,0.999647)"
         id="g212"><path
           id="path214"
           style="fill:none;stroke:#010101;stroke-width:7.08658981;stroke-linecap:butt;stroke-linejoin:round;stroke-miterlimit:10;stroke-dasharray:none;stroke-opacity:1"
           d="m 4521.83,1343.51 -431.49,0 0,262.52 862.41,0 0,-262.52 -430.92,0 z" /></g><path
         id="path216"
         style="fill:#010101;fill-opacity:1;fill-rule:evenodd;stroke:none"
         d="m 4362.05,1435.42 c 0,3.69 -3.12,3.69 -5.1,3.69 l -5.11,0 0,27.77 c 0,12.19 -6.24,17.29 -15.59,17.29 -8.23,0 -13.62,-4.26 -15.89,-6.52 0,3.97 0,5.67 -4.82,5.67 l -8.79,0 c -1.7,0 -4.82,0 -4.82,-3.69 0,-3.68 3.12,-3.68 4.82,-3.68 l 5.39,0 0,-36.84 -5.39,0 c -1.7,0 -4.82,0 -4.82,-3.69 0,-3.68 3.12,-3.68 4.82,-3.68 l 19,0 c 1.7,0 4.82,0 4.82,3.68 0,3.69 -2.83,3.69 -4.82,3.69 l -5.39,0 0,21.25 c 0,11.9 9.08,16.44 15.03,16.44 6.53,0 7.95,-3.4 7.95,-10.49 l 0,-27.2 -4.54,0 c -1.99,0 -4.82,0 -4.82,-3.69 0,-3.68 3.11,-3.68 4.82,-3.68 l 18.43,0 c 1.7,0 4.82,0 4.82,3.68" /><path
         id="path218"
         style="fill:#010101;fill-opacity:1;fill-rule:evenodd;stroke:none"
         d="m 4426.43,1435.14 c 0,3.68 -3.12,3.68 -4.82,3.68 -5.11,0 -6.24,0.57 -7.38,0.85 l 0,26.08 c 0,8.5 -6.52,18.7 -23.82,18.7 -5.1,0 -17.3,0 -17.3,-8.79 0,-3.68 2.55,-5.66 5.39,-5.66 1.98,0 5.11,1.13 5.39,5.66 0,0.86 0,1.14 2.55,1.42 1.7,0 3.12,0 4.26,0 9.07,0 15.31,-3.68 15.31,-12.47 -21.27,0 -36.02,-5.95 -36.02,-17.57 0,-8.22 7.66,-16.15 19.85,-16.15 4.54,0 11.92,0.85 17.59,4.53 2.55,-3.97 8.22,-3.97 12.76,-3.97 3.4,0 6.24,0 6.24,3.69 z m -20.42,12.47 c 0,-2.84 0,-5.39 -4.54,-7.37 -4.54,-1.99 -9.92,-1.99 -10.77,-1.99 -7.38,0 -12.48,3.97 -12.48,8.79 0,5.95 10.49,10.49 27.79,10.49 l 0,-9.92" /><path
         id="path220"
         style="fill:#010101;fill-opacity:1;fill-rule:evenodd;stroke:none"
         d="m 4472.09,1426.64 0,51.86 c 0,3.96 -0.85,5.1 -4.82,5.1 l -19,0 c -1.99,0 -4.82,0 -4.82,-3.69 0,-3.68 2.83,-3.68 4.53,-3.68 l 15.6,0 0,-49.03 c 0,-1.98 0,-6.52 -3.12,-10.77 -3.12,-4.53 -6.8,-4.53 -9.64,-4.53 -3.41,0 -4.82,0.28 -6.52,0.28 0,0.57 0,0.85 0,1.7 0,3.12 -2.84,5.39 -5.39,5.39 -2.55,0 -5.39,-2.27 -5.39,-5.67 0,-9.07 11.91,-9.07 16.73,-9.07 17.3,0 21.84,14.45 21.84,22.11 z m 0,71.7 c 0,3.4 -2.55,5.95 -5.96,5.95 -3.4,0 -5.95,-2.55 -5.95,-5.95 0,-3.41 2.55,-5.96 5.95,-5.96 3.41,0 5.96,2.55 5.96,5.96" /><path
         id="path222"
         style="fill:#010101;fill-opacity:1;fill-rule:evenodd;stroke:none"
         d="m 4613.32,1477.36 c 0,4.26 -4.53,4.26 -6.24,4.26 l -41.4,0 c -1.7,0 -6.24,0 -6.24,-4.26 0,-4.25 3.97,-4.25 5.39,-4.25 l 43.1,0 c 1.42,0 5.39,0 5.39,4.25 z m 0,-18.13 c 0,4.25 -3.97,4.25 -5.39,4.25 l -43.1,0 c -1.42,0 -5.39,0 -5.39,-4.25 0,-4.25 4.54,-4.25 6.24,-4.25 l 41.4,0 c 1.71,0 6.24,0 6.24,4.25" /><path
         id="path224"
         style="fill:#010101;fill-opacity:1;fill-rule:evenodd;stroke:none"
         d="m 4738.11,1444.77 c 0,3.41 -3.41,3.41 -4.26,3.41 -1.7,0 -3.12,-0.29 -3.97,-2.84 -0.57,-1.42 -2.83,-7.09 -11.91,-7.09 -9.93,0 -18.72,8.22 -18.72,19.28 0,5.67 3.41,19.55 19.57,19.55 2.56,0 7.09,0 7.09,-1.13 0.29,-4.25 2.55,-5.95 5.39,-5.95 2.84,0 5.39,2.26 5.39,5.66 0,8.79 -12.48,8.79 -17.87,8.79 -20.7,0 -27.79,-16.44 -27.79,-26.92 0,-14.46 11.34,-26.64 26.37,-26.64 16.74,0 20.71,11.62 20.71,13.88" /><path
         id="path226"
         style="fill:#ffffff;fill-opacity:1;fill-rule:evenodd;stroke:none"
         d="m 1816.18,929.836 1282.15,0 -144.35,-409.512 -1281.87,0 144.07,409.512 z m -144.07,0 0,0 z m 1426.22,-409.512 0,0" /><g
         transform="scale(1.00035,0.999647)"
         id="g228"><path
           id="path230"
           style="fill:none;stroke:#010101;stroke-width:7.08658981;stroke-linecap:butt;stroke-linejoin:round;stroke-miterlimit:10;stroke-dasharray:none;stroke-opacity:1"
           d="m 1815.54,930.164 1281.41,0 -144.3,-409.656 -1281.13,0 144.02,409.656 z" /></g><g
         transform="scale(1.00035,0.999647)"
         id="g232"><path
           id="path234"
           style="fill:none;stroke:#010101;stroke-width:7.08658981;stroke-linecap:butt;stroke-linejoin:round;stroke-miterlimit:10;stroke-dasharray:none;stroke-opacity:1"
           d="m 1671.52,930.164 0,0 z" /></g><g
         transform="scale(1.00035,0.999647)"
         id="g236"><path
           id="path238"
           style="fill:none;stroke:#010101;stroke-width:7.08658981;stroke-linecap:butt;stroke-linejoin:round;stroke-miterlimit:10;stroke-dasharray:none;stroke-opacity:1"
           d="m 3096.95,520.508 0,0 z" /></g><path
         id="path240"
         style="fill:#010101;fill-opacity:1;fill-rule:evenodd;stroke:none"
         d="m 2200.73,754.41 10.2109,0 0,83.0391 -10.2109,0 0,-83.0391 z" /><path
         id="path242"
         style="fill:#010101;fill-opacity:1;fill-rule:evenodd;stroke:none"
         d="m 2288.09,754.41 0,7.653 -46.23,0 45.66,70.566 0,4.82 -57,0 0,-7.371 23.53,0 c 1.42,0 2.84,0.285 4.26,0.285 l 16.16,0 -45.66,-71.133 0,-4.82 59.28,0" /><path
         id="path244"
         style="fill:#010101;fill-opacity:1;fill-rule:evenodd;stroke:none"
         d="m 2365.79,754.41 0,83.039 -10.49,0 0,-36.277 -39.99,0 0,36.277 -10.21,0 0,-83.039 10.21,0 0,39.676 39.99,0 0,-39.676 10.49,0" /><path
         id="path246"
         style="fill:#010101;fill-opacity:1;fill-rule:evenodd;stroke:none"
         d="m 2457.11,795.789 c 0,25.223 -17.3,44.207 -36.58,44.207 -20.14,0 -36.87,-19.269 -36.87,-44.207 0,-25.223 17.3,-43.93 36.58,-43.93 19.85,0 36.87,18.707 36.87,43.93 z m -10.21,1.699 c 0,-23.523 -13.04,-37.976 -26.37,-37.976 -13.9,0 -26.66,14.738 -26.66,37.976 0,22.106 13.04,35.141 26.37,35.141 13.9,0 26.66,-13.602 26.66,-35.141" /><path
         id="path248"
         style="fill:#010101;fill-opacity:1;fill-rule:evenodd;stroke:none"
         d="m 2541.63,795.223 c 0,23.238 -16.17,42.226 -36.31,42.226 l -30.62,0 0,-83.039 30.62,0 c 20.14,0 36.31,18.137 36.31,40.813 z m -10.22,0 c 0,-21.825 -13.32,-34.012 -28.92,-34.012 l -17.87,0 0,69.434 17.87,0 c 16.16,0 28.92,-13.602 28.92,-35.422" /><path
         id="path250"
         style="fill:#010101;fill-opacity:1;fill-rule:evenodd;stroke:none"
         d="m 2568.85,798.055 0,9.636 -9.64,0 0,-9.636 9.64,0 z m 0,-43.645 0,9.637 -9.64,0 0,-9.637 9.64,0" /><path
         id="path252"
         style="fill:#010101;fill-opacity:1;fill-rule:evenodd;stroke:none"
         d="m 2351.33,598.543 c 0,3.684 -3.12,3.684 -5.11,3.684 l -5.1,0 0,27.773 c 0,12.184 -6.24,17.285 -15.6,17.285 -8.22,0 -13.61,-4.25 -15.88,-6.515 0,3.964 0,5.668 -4.82,5.668 l -8.79,0 c -1.71,0 -4.83,0 -4.83,-3.688 0,-3.684 3.12,-3.684 4.83,-3.684 l 5.38,0 0,-36.839 -5.38,0 c -1.71,0 -4.83,0 -4.83,-3.684 0,-3.688 3.12,-3.688 4.83,-3.688 l 19,0 c 1.7,0 4.82,0 4.82,3.688 0,3.684 -2.84,3.684 -4.82,3.684 l -5.39,0 0,21.253 c 0,11.903 9.07,16.438 15.03,16.438 6.52,0 7.94,-3.402 7.94,-10.484 l 0,-27.207 -4.54,0 c -1.98,0 -4.82,0 -4.82,-3.684 0,-3.688 3.12,-3.688 4.82,-3.688 l 18.44,0 c 1.7,0 4.82,0 4.82,3.688" /><path
         id="path254"
         style="fill:#010101;fill-opacity:1;fill-rule:evenodd;stroke:none"
         d="m 2415.7,598.258 c 0,3.683 -3.11,3.683 -4.82,3.683 -5.1,0 -6.24,0.567 -7.37,0.852 l 0,26.07 c 0,8.504 -6.52,18.707 -23.82,18.707 -5.11,0 -17.3,0 -17.3,-8.785 0,-3.683 2.55,-5.668 5.39,-5.668 1.98,0 5.1,1.133 5.38,5.668 0,0.848 0,1.133 2.56,1.414 1.7,0 3.12,0 4.25,0 9.08,0 15.32,-3.683 15.32,-12.469 -21.27,0 -36.02,-5.949 -36.02,-17.57 0,-8.219 7.66,-16.152 19.85,-16.152 4.54,0 11.91,0.847 17.58,4.535 2.56,-3.969 8.23,-3.969 12.76,-3.969 3.41,0 6.24,0 6.24,3.684 z m -20.41,12.469 c 0,-2.832 0,-5.383 -4.54,-7.368 -4.54,-1.984 -9.93,-1.984 -10.78,-1.984 -7.37,0 -12.48,3.969 -12.48,8.785 0,5.953 10.49,10.485 27.8,10.485 l 0,-9.918" /><path
         id="path256"
         style="fill:#010101;fill-opacity:1;fill-rule:evenodd;stroke:none"
         d="m 2461.36,589.754 0,51.863 c 0,3.969 -0.84,5.102 -4.82,5.102 l -19,0 c -1.98,0 -4.82,0 -4.82,-3.684 0,-3.683 2.84,-3.683 4.54,-3.683 l 15.6,0 0,-49.028 c 0,-1.984 0,-6.519 -3.12,-10.769 -3.12,-4.535 -6.81,-4.535 -9.65,-4.535 -3.4,0 -4.82,0.281 -6.52,0.281 0,0.57 0,0.851 0,1.703 0,3.117 -2.84,5.383 -5.39,5.383 -2.55,0 -5.39,-2.266 -5.39,-5.668 0,-9.067 11.92,-9.067 16.74,-9.067 17.3,0 21.83,14.453 21.83,22.102 z m 0,71.703 c 0,3.398 -2.55,5.949 -5.95,5.949 -3.41,0 -5.96,-2.551 -5.96,-5.949 0,-3.402 2.55,-5.953 5.96,-5.953 3.4,0 5.95,2.551 5.95,5.953" /><path
         id="path258"
         style="fill:#ffffff;fill-opacity:1;fill-rule:evenodd;stroke:none"
         d="m 2384.79,245.426 c 243.05,0 428.81,-52.149 428.81,-120.446 0,-68.3003 -185.76,-120.44484 -428.81,-120.44484 -243.04,0 -428.52,52.14454 -428.52,120.44484 0,68.297 185.48,120.446 428.52,120.446 z m -428.52,0 0,0 z m 857.61,-241.45725 0,0" /><g
         transform="scale(1.00035,0.999647)"
         id="g260"><path
           id="path262"
           style="fill:none;stroke:#010101;stroke-width:7.08658981;stroke-linecap:butt;stroke-linejoin:round;stroke-miterlimit:10;stroke-dasharray:none;stroke-opacity:1"
           d="m 2383.67,245.794 c 242.96,0 428.65,-52.163 428.65,-120.488 0,-68.3211 -185.69,-120.48789 -428.65,-120.48789 -242.68,0 -428.09,52.16679 -428.09,120.48789 0,68.325 185.41,120.488 428.09,120.488 z" /></g><g
         transform="scale(1.00035,0.999647)"
         id="g264"><path
           id="path266"
           style="fill:none;stroke:#010101;stroke-width:7.08658981;stroke-linecap:butt;stroke-linejoin:round;stroke-miterlimit:10;stroke-dasharray:none;stroke-opacity:1"
           d="m 1955.58,245.794 0,0 z" /></g><g
         transform="scale(1.00035,0.999647)"
         id="g268"><path
           id="path270"
           style="fill:none;stroke:#010101;stroke-width:7.08658981;stroke-linecap:butt;stroke-linejoin:round;stroke-miterlimit:10;stroke-dasharray:none;stroke-opacity:1"
           d="m 2812.61,4.2515 0,0 z" /></g><path
         id="path272"
         style="fill:#010101;fill-opacity:1;fill-rule:evenodd;stroke:none"
         d="m 2263.13,73.6836 -32.9,50.1644 31.48,32.871 -11.34,0 -41.98,-44.207 0,44.207 -9.92,0 0,-83.0354 9.92,0 0,27.2074 15.6,16.152 28.08,-43.3594 11.06,0" /><path
         id="path274"
         style="fill:#010101;fill-opacity:1;fill-rule:evenodd;stroke:none"
         d="m 2347.93,115.059 c 0,25.222 -17.3,44.211 -36.59,44.211 -20.14,0 -36.87,-19.27 -36.87,-44.211 0,-25.2231 17.3,-43.9262 36.58,-43.9262 19.86,0 36.88,18.7031 36.88,43.9262 z m -10.22,1.703 c 0,-23.5237 -13.04,-37.9768 -26.37,-37.9768 -13.89,0 -26.66,14.7382 -26.66,37.9768 0,22.105 13.05,35.14 26.37,35.14 13.9,0 26.66,-13.601 26.66,-35.14" /><path
         id="path276"
         style="fill:#010101;fill-opacity:1;fill-rule:evenodd;stroke:none"
         d="m 2425.35,73.6836 0,83.0354 -9.08,0 0,-74.2502 -0.28,0 -9.64,20.1212 -26.38,54.129 -14.75,0 0,-83.0354 9.08,0 0,74.2504 9.93,-20.121 26.37,-54.1294 14.75,0" /><path
         id="path278"
         style="fill:#010101;fill-opacity:1;fill-rule:evenodd;stroke:none"
         d="m 2502.2,73.6836 0,8.2187 -15.88,0 c -1.42,0 -2.84,-0.2812 -4.25,-0.2812 l -23.82,0 0,31.7379 39.13,0 0,7.086 -39.13,0 0,28.625 16.45,0 c 1.41,0 2.83,0 4.25,0 l 21.55,0 0,7.649 -52.46,0 0,-83.0354 54.16,0" /><path
         id="path280"
         style="fill:#010101;fill-opacity:1;fill-rule:evenodd;stroke:none"
         d="m 2575.66,79.0703 -0.57,8.5 c -3.41,-2.5508 -6.81,-4.8164 -10.78,-6.2344 -3.68,-1.1328 -7.94,-1.1328 -11.91,-1.1328 -7.66,0 -14.75,4.25 -19.57,10.2032 -5.39,7.082 -7.94,16.1527 -7.94,24.9377 0,9.07 2.55,18.136 7.94,24.937 4.82,6.239 11.91,10.489 19.57,10.489 3.4,0 7.09,-0.286 10.49,-1.418 3.69,-1.133 6.81,-3.118 9.93,-5.102 l 1.7,9.918 c -3.68,1.418 -7.09,2.551 -10.78,3.117 -3.97,0.852 -7.65,0.852 -11.34,0.852 -10.49,0 -19.85,-4.817 -26.66,-12.469 -7.37,-8.219 -11.06,-19.27 -11.06,-30.324 0,-11.051 3.69,-21.8206 11.06,-30.3245 6.81,-7.6523 16.17,-12.4687 26.66,-12.4687 3.97,0 8.23,0 12.19,1.1328 3.98,1.1328 7.66,3.4023 11.07,5.3867" /><g
         transform="scale(1.00035,0.999647)"
         id="g282"><path
           id="path284"
           style="fill:none;stroke:#010101;stroke-width:7.37099981;stroke-linecap:butt;stroke-linejoin:round;stroke-miterlimit:10;stroke-dasharray:none;stroke-opacity:1"
           d="M 2469.29,3745.6 2469,3553.67" /></g><path
         id="path286"
         style="fill:#010101;fill-opacity:1;fill-rule:evenodd;stroke:none"
         d="m 2469.87,3480.15 25.24,75.67 -50.48,0 25.24,-75.67" /><g
         transform="scale(1.00035,0.999647)"
         id="g288"><path
           id="path290"
           style="fill:none;stroke:#010101;stroke-width:7.37099981;stroke-linecap:butt;stroke-linejoin:round;stroke-miterlimit:10;stroke-dasharray:none;stroke-opacity:1"
           d="m 2469,3072.29 0,-240.41" /></g><path
         id="path292"
         style="fill:#010101;fill-opacity:1;fill-rule:evenodd;stroke:none"
         d="m 2469.87,2758.62 25.24,75.67 -50.48,0 25.24,-75.67" /><g
         transform="scale(1.00035,0.999647)"
         id="g294"><path
           id="path296"
           style="fill:none;stroke:#010101;stroke-width:7.37099981;stroke-linecap:butt;stroke-linejoin:round;stroke-miterlimit:10;stroke-dasharray:none;stroke-opacity:1"
           d="m 2901.05,2536.19 889.63,0 0,-259.97" /></g><path
         id="path298"
         style="fill:#010101;fill-opacity:1;fill-rule:evenodd;stroke:none"
         d="m 3792.02,2203.15 25.24,75.67 -50.49,0 25.25,-75.67" /><g
         transform="scale(1.00035,0.999647)"
         id="g300"><path
           id="path302"
           style="fill:none;stroke:#010101;stroke-width:7.37099981;stroke-linecap:butt;stroke-linejoin:round;stroke-miterlimit:10;stroke-dasharray:none;stroke-opacity:1"
           d="m 2036.95,2536.19 -882.82,0 0,-259.68" /></g><path
         id="path304"
         style="fill:#010101;fill-opacity:1;fill-rule:evenodd;stroke:none"
         d="m 1154.54,2203.43 25.24,75.67 -50.48,0 25.24,-75.67" /><g
         transform="scale(1.00035,0.999647)"
         id="g306"><path
           id="path308"
           style="fill:none;stroke:#010101;stroke-width:7.37099981;stroke-linecap:butt;stroke-linejoin:round;stroke-miterlimit:10;stroke-dasharray:none;stroke-opacity:1"
           d="m 722.358,1980.82 -287.187,0 0,-302.78" /></g><path
         id="path310"
         style="fill:#010101;fill-opacity:1;fill-rule:evenodd;stroke:none"
         d="m 435.324,1605.18 25.242,75.67 -50.48,0 25.238,-75.67" /><g
         transform="scale(1.00035,0.999647)"
         id="g312"><path
           id="path314"
           style="fill:none;stroke:#010101;stroke-width:7.37099981;stroke-linecap:butt;stroke-linejoin:round;stroke-miterlimit:10;stroke-dasharray:none;stroke-opacity:1"
           d="m 1586.18,1980.82 309.58,0 0,-302.78" /></g><path
         id="path316"
         style="fill:#010101;fill-opacity:1;fill-rule:evenodd;stroke:none"
         d="m 1896.43,1605.18 25.24,75.67 -50.48,0 25.24,-75.67" /><g
         transform="scale(1.00035,0.999647)"
         id="g318"><path
           id="path320"
           style="fill:none;stroke:#010101;stroke-width:7.37099981;stroke-linecap:butt;stroke-linejoin:round;stroke-miterlimit:10;stroke-dasharray:none;stroke-opacity:1"
           d="m 3358.91,1980.53 -280.1,0 0,-302.49" /></g><path
         id="path322"
         style="fill:#010101;fill-opacity:1;fill-rule:evenodd;stroke:none"
         d="m 3079.89,1605.18 25.25,75.67 -50.48,0 25.23,-75.67" /><g
         transform="scale(1.00035,0.999647)"
         id="g324"><path
           id="path326"
           style="fill:none;stroke:#010101;stroke-width:7.37099981;stroke-linecap:butt;stroke-linejoin:round;stroke-miterlimit:10;stroke-dasharray:none;stroke-opacity:1"
           d="m 4222.73,1980.53 299.1,0 0,-302.49" /></g><path
         id="path328"
         style="fill:#010101;fill-opacity:1;fill-rule:evenodd;stroke:none"
         d="m 4523.42,1605.18 25.24,75.67 -50.48,0 25.24,-75.67" /><g
         transform="scale(1.00035,0.999647)"
         id="g330"><path
           id="path332"
           style="fill:none;stroke:#010101;stroke-width:7.37099981;stroke-linecap:butt;stroke-linejoin:round;stroke-miterlimit:10;stroke-dasharray:none;stroke-opacity:1"
           d="m 435.171,1343.22 0,-617.741 1236.059,0" /></g><path
         id="path334"
         style="fill:#010101;fill-opacity:1;fill-rule:evenodd;stroke:none"
         d="m 1744.14,725.223 -75.72,25.222 0,-50.445 75.72,25.223" /><g
         transform="scale(1.00035,0.999647)"
         id="g336"><path
           id="path338"
           style="fill:none;stroke:#010101;stroke-width:7.37099981;stroke-linecap:butt;stroke-linejoin:round;stroke-miterlimit:10;stroke-dasharray:none;stroke-opacity:1"
           d="m 4521.83,1343.22 0,-617.741 -1424.59,0" /></g><path
         id="path340"
         style="fill:#010101;fill-opacity:1;fill-rule:evenodd;stroke:none"
         d="m 3026.01,725.223 75.72,-25.223 0,50.445 -75.72,-25.222" /><g
         transform="scale(1.00035,0.999647)"
         id="g342"><path
           id="path344"
           style="fill:none;stroke:#010101;stroke-width:7.37099981;stroke-linecap:butt;stroke-linejoin:round;stroke-miterlimit:10;stroke-dasharray:none;stroke-opacity:1"
           d="m 3078.81,1343.22 0,-206.39 -622.57,0 0,-134.37" /></g><path
         id="path346"
         style="fill:#010101;fill-opacity:1;fill-rule:evenodd;stroke:none"
         d="m 2457.11,929.836 25.24,75.664 -50.48,0 25.24,-75.664" /><g
         transform="scale(1.00035,0.999647)"
         id="g348"><path
           id="path350"
           style="fill:none;stroke:#010101;stroke-width:7.37099981;stroke-linecap:butt;stroke-linejoin:round;stroke-miterlimit:10;stroke-dasharray:none;stroke-opacity:1"
           d="m 1895.76,1343.22 0,-206.39 488.47,0 0,-134.37" /></g><path
         id="path352"
         style="fill:#010101;fill-opacity:1;fill-rule:evenodd;stroke:none"
         d="m 2385.07,929.836 25.25,75.664 -50.48,0 25.23,-75.664" /><g
         transform="scale(1.00035,0.999647)"
         id="g354"><path
           id="path356"
           style="fill:none;stroke:#010101;stroke-width:7.37099981;stroke-linecap:butt;stroke-linejoin:round;stroke-miterlimit:10;stroke-dasharray:none;stroke-opacity:1"
           d="m 2384.23,520.789 0.29,-203.267" /></g><path
         id="path358"
         style="fill:#010101;fill-opacity:1;fill-rule:evenodd;stroke:none"
         d="m 2385.36,245.141 25.24,75.668 -50.48,0 25.24,-75.668" /><path
         id="path360"
         style="fill:#010101;fill-opacity:1;fill-rule:evenodd;stroke:none"
         d="m 3150.8,2059.18 c 0,23.24 -16.17,42.23 -36.3,42.23 l -30.63,0 0,-83.03 30.63,0 c 20.13,0 36.3,18.13 36.3,40.8 z m -10.21,0 c 0,-21.82 -13.33,-34 -28.93,-34 l -17.87,0 0,69.43 17.87,0 c 16.16,0 28.93,-13.6 28.93,-35.43" /><path
         id="path362"
         style="fill:#010101;fill-opacity:1;fill-rule:evenodd;stroke:none"
         d="m 3227.65,2018.38 -30.35,83.32 -10.49,0 -30.34,-83.32 9.07,0 8.8,24.37 33.74,0 8.8,-24.37 10.77,0 z m -22.12,31.17 -28.64,0 14.18,43.36 14.46,-43.36" /><path
         id="path364"
         style="fill:#010101;fill-opacity:1;fill-rule:evenodd;stroke:none"
         d="m 4437.49,2018.38 0,83.03 -9.08,0 0,-74.25 -0.28,0 -9.64,20.12 -26.38,54.13 -14.74,0 0,-83.03 9.07,0 0,74.25 9.93,-20.13 26.37,-54.12 14.75,0" /><path
         id="path366"
         style="fill:#010101;fill-opacity:1;fill-rule:evenodd;stroke:none"
         d="m 4514.06,2018.38 0,8.21 -15.88,0 c -1.42,0 -2.84,-0.28 -4.25,-0.28 l -23.83,0 0,31.74 39.14,0 0,7.09 -39.14,0 0,28.62 16.45,0 c 1.42,0 2.84,0 4.25,0 l 21.56,0 0,7.65 -52.47,0 0,-83.03 54.17,0" /><path
         id="path368"
         style="fill:#010101;fill-opacity:1;fill-rule:evenodd;stroke:none"
         d="m 513.602,2059.18 c 0,23.24 -16.168,42.23 -36.305,42.23 l -30.625,0 0,-83.03 30.625,0 c 20.137,0 36.305,18.13 36.305,40.8 z m -10.211,0 c 0,-21.82 -13.328,-34 -28.93,-34 l -17.863,0 0,69.43 17.863,0 c 16.168,0 28.93,-13.6 28.93,-35.43" /><path
         id="path370"
         style="fill:#010101;fill-opacity:1;fill-rule:evenodd;stroke:none"
         d="m 590.457,2018.38 -30.348,83.32 -10.492,0 -30.344,-83.32 9.075,0 8.789,24.37 33.75,0 8.793,-24.37 10.777,0 z m -22.121,31.17 -28.645,0 14.18,43.36 14.465,-43.36" /><path
         id="path372"
         style="fill:#010101;fill-opacity:1;fill-rule:evenodd;stroke:none"
         d="m 1799.16,2018.38 0,83.03 -9.08,0 0,-74.25 -0.28,0 -9.64,20.12 -26.38,54.13 -14.74,0 0,-83.03 9.07,0 0,74.25 9.93,-20.13 26.37,-54.12 14.75,0" /><path
         id="path374"
         style="fill:#010101;fill-opacity:1;fill-rule:evenodd;stroke:none"
         d="m 1875.73,2018.38 0,8.21 -15.88,0 c -1.42,0 -2.84,-0.28 -4.26,-0.28 l -23.82,0 0,31.74 39.14,0 0,7.09 -39.14,0 0,28.62 16.45,0 c 1.42,0 2.84,0 4.26,0 l 21.55,0 0,7.65 -52.47,0 0,-83.03 54.17,0" /><path
         id="path376"
         style="fill:#010101;fill-opacity:1;fill-rule:evenodd;stroke:none"
         d="m 1789.52,2605.01 c 0,23.24 -16.17,42.23 -36.31,42.23 l -30.62,0 0,-83.04 30.62,0 c 20.14,0 36.31,18.14 36.31,40.81 z m -10.22,0 c 0,-21.82 -13.32,-34.01 -28.92,-34.01 l -17.87,0 0,69.44 17.87,0 c 16.16,0 28.92,-13.6 28.92,-35.43" /><path
         id="path378"
         style="fill:#010101;fill-opacity:1;fill-rule:evenodd;stroke:none"
         d="m 1866.37,2564.2 -30.34,83.32 -10.49,0 -30.35,-83.32 9.07,0 8.79,24.37 33.75,0 8.79,-24.37 10.78,0 z m -22.12,31.18 -28.64,0 14.18,43.36 14.46,-43.36" /><path
         id="path380"
         style="fill:#010101;fill-opacity:1;fill-rule:evenodd;stroke:none"
         d="m 3146.82,2564.2 0,83.04 -9.07,0 0,-74.25 -0.28,0 -9.65,20.12 -26.37,54.13 -14.75,0 0,-83.04 9.08,0 0,74.25 9.92,-20.12 26.38,-54.13 14.74,0" /><path
         id="path382"
         style="fill:#010101;fill-opacity:1;fill-rule:evenodd;stroke:none"
         d="m 3223.4,2564.2 0,8.22 -15.88,0 c -1.42,0 -2.84,-0.28 -4.26,-0.28 l -23.82,0 0,31.74 39.14,0 0,7.08 -39.14,0 0,28.63 16.45,0 c 1.41,0 2.84,0 4.25,0 l 21.56,0 0,7.65 -52.47,0 0,-83.04 54.17,0" /></g></g></svg>