<?xml version="1.0" encoding="UTF-8" standalone="no"?>
<svg
   xmlns:dc="http://purl.org/dc/elements/1.1/"
   xmlns:cc="http://creativecommons.org/ns#"
   xmlns:rdf="http://www.w3.org/1999/02/22-rdf-syntax-ns#"
   xmlns:svg="http://www.w3.org/2000/svg"
   xmlns="http://www.w3.org/2000/svg"
   viewBox="0 0 297.5 476.25"
   height="476.25"
   width="297.5"
   xml:space="preserve"
   version="1.1"
   id="svg2"><metadata
     id="metadata8"><rdf:RDF><cc:Work
         rdf:about=""><dc:format>image/svg+xml</dc:format><dc:type
           rdf:resource="http://purl.org/dc/dcmitype/StillImage" /></cc:Work></rdf:RDF></metadata><defs
     id="defs6" /><g
     transform="matrix(1.25,0,0,-1.25,0,476.25)"
     id="g10"><g
       transform="scale(0.1,0.1)"
       id="g12"><path
         id="path14"
         style="fill:#ffffff;fill-opacity:1;fill-rule:evenodd;stroke:none"
         d="m 856.055,3805.36 c 242.165,0 427.465,-52.11 427.465,-120.36 0,-68.25 -185.3,-120.36 -427.465,-120.36 -242.446,0 -427.461,52.11 -427.461,120.36 0,68.25 185.015,120.36 427.461,120.36 z m -427.461,0 0,0 z m 855.206,-241.29 0,0" /><g
         transform="scale(0.99947,1.00053)"
         id="g16"><path
           id="path18"
           style="fill:none;stroke:#010101;stroke-width:7.07488012;stroke-linecap:butt;stroke-linejoin:round;stroke-miterlimit:10;stroke-dasharray:none;stroke-opacity:1"
           d="m 856.227,3803.63 c 242.573,0 427.973,-52.09 427.973,-120.3 0,-68.21 -185.4,-120.3 -427.973,-120.3 -242.574,0 -427.406,52.09 -427.406,120.3 0,68.21 184.832,120.3 427.406,120.3 z" /></g><g
         transform="scale(0.99947,1.00053)"
         id="g20"><path
           id="path22"
           style="fill:none;stroke:#010101;stroke-width:7.07488012;stroke-linecap:butt;stroke-linejoin:round;stroke-miterlimit:10;stroke-dasharray:none;stroke-opacity:1"
           d="m 428.821,3803.63 0,0 z" /></g><g
         transform="scale(0.99947,1.00053)"
         id="g24"><path
           id="path26"
           style="fill:none;stroke:#010101;stroke-width:7.07488012;stroke-linecap:butt;stroke-linejoin:round;stroke-miterlimit:10;stroke-dasharray:none;stroke-opacity:1"
           d="m 1284.48,3562.47 0,0 z" /></g><path
         id="path28"
         style="fill:#010101;fill-opacity:1;fill-rule:evenodd;stroke:none"
         d="m 661.137,3633.74 0,7.65 -46.114,0 45.547,70.51 0,4.82 -56.863,0 0,-7.36 23.481,0 c 1.417,0 2.832,0.28 4.246,0.28 l 16.125,0 -45.547,-71.09 0,-4.81 59.125,0" /><path
         id="path30"
         style="fill:#010101;fill-opacity:1;fill-rule:evenodd;stroke:none"
         d="m 741.48,3633.74 -30.269,83.26 -10.469,0 -30.269,-83.26 9.054,0 8.77,24.35 33.664,0 8.769,-24.35 10.75,0 z m -22.066,31.15 -28.57,0 14.144,43.33 14.426,-43.33" /><path
         id="path32"
         style="fill:#010101;fill-opacity:1;fill-rule:evenodd;stroke:none"
         d="m 810.227,3639.12 -0.567,8.5 c -3.394,-2.55 -6.789,-4.82 -10.75,-6.23 -3.68,-1.14 -7.922,-1.14 -11.883,-1.14 -7.636,0 -14.711,4.25 -19.519,10.2 -5.375,7.08 -7.922,16.14 -7.922,24.92 0,9.06 2.547,18.13 7.922,24.92 4.808,6.23 11.883,10.48 19.519,10.48 3.395,0 7.075,-0.28 10.469,-1.41 3.676,-1.14 6.789,-3.12 9.902,-5.1 l 1.696,9.91 c -3.676,1.42 -7.071,2.55 -10.75,3.12 -3.961,0.84 -7.637,0.84 -11.317,0.84 -10.464,0 -19.8,-4.81 -26.593,-12.46 -7.356,-8.21 -11.032,-19.26 -11.032,-30.3 0,-11.05 3.676,-21.81 11.032,-30.3 6.793,-7.65 16.129,-12.46 26.593,-12.46 3.961,0 8.203,0 12.164,1.13 3.961,1.13 7.641,3.4 11.036,5.38 z m -8.77,98.84 -7.074,0 -11.598,-11.61 -11.883,11.61 -6.789,0 14.992,-16.14 7.075,0 15.277,16.14" /><path
         id="path34"
         style="fill:#010101;fill-opacity:1;fill-rule:evenodd;stroke:none"
         d="m 881.801,3633.74 0,8.21 -15.844,0 c -1.414,0 -2.828,-0.28 -4.242,-0.28 l -23.766,0 0,31.72 39.039,0 0,7.08 -39.039,0 0,28.6 16.41,0 c 1.414,0 2.829,0 4.243,0 l 21.5,0 0,7.65 -52.336,0 0,-82.98 54.035,0" /><path
         id="path36"
         style="fill:#010101;fill-opacity:1;fill-rule:evenodd;stroke:none"
         d="m 962.145,3708.79 0,7.64 -71.293,0 0,-7.64 15.843,0 c 1.414,0 2.828,0 4.243,0 l 10.468,0 0,-74.77 10.184,0 0,74.77 10.75,0 c 1.414,0 2.828,0 4.242,0 l 15.563,0" /><path
         id="path38"
         style="fill:#010101;fill-opacity:1;fill-rule:evenodd;stroke:none"
         d="m 1031.45,3633.74 0,8.21 -15.84,0 c -1.41,0 -2.83,-0.28 -4.24,-0.28 l -23.765,0 0,31.72 39.035,0 0,7.08 -39.035,0 0,28.6 16.405,0 c 1.42,0 2.83,0 4.24,0 l 21.51,0 0,7.65 -52.342,0 0,-82.98 54.032,0" /><path
         id="path40"
         style="fill:#010101;fill-opacity:1;fill-rule:evenodd;stroke:none"
         d="m 1111.8,3633.74 -32.82,50.13 31.4,32.85 -11.31,0 -41.87,-44.18 0,44.18 -9.9,0 0,-82.98 9.9,0 0,27.19 15.56,16.14 28.01,-43.33 11.03,0" /><path
         id="path42"
         style="fill:#ffffff;fill-opacity:1;fill-rule:evenodd;stroke:none"
         d="m 856.34,2064.81 431.14,-223.16 -431.14,-223.45 -431.141,223.45 431.141,223.16 0,0 z m -431.141,0 0,0 z m 862.281,-446.61 0,0" /><g
         transform="scale(0.99947,1.00053)"
         id="g44"><path
           id="path46"
           style="fill:none;stroke:#010101;stroke-width:7.07488012;stroke-linecap:butt;stroke-linejoin:round;stroke-miterlimit:10;stroke-dasharray:none;stroke-opacity:1"
           d="M 856.509,2064 1288.16,1840.96 856.509,1617.63 425.425,1840.96 856.509,2064 l 0,0 z" /></g><g
         transform="scale(0.99947,1.00053)"
         id="g48"><path
           id="path50"
           style="fill:none;stroke:#010101;stroke-width:7.07488012;stroke-linecap:butt;stroke-linejoin:round;stroke-miterlimit:10;stroke-dasharray:none;stroke-opacity:1"
           d="m 425.425,2064 0,0 z" /></g><g
         transform="scale(0.99947,1.00053)"
         id="g52"><path
           id="path54"
           style="fill:none;stroke:#010101;stroke-width:7.07488012;stroke-linecap:butt;stroke-linejoin:round;stroke-miterlimit:10;stroke-dasharray:none;stroke-opacity:1"
           d="m 1288.16,1617.63 0,0 z" /></g><path
         id="path56"
         style="fill:#010101;fill-opacity:1;fill-rule:evenodd;stroke:none"
         d="m 696.219,1802.85 c 0,3.68 -3.114,3.68 -4.813,3.68 -5.09,0 -6.222,0.57 -7.355,0.85 l 0,26.06 c 0,8.49 -6.504,18.69 -23.762,18.69 -5.094,0 -17.258,0 -17.258,-8.78 0,-3.68 2.547,-5.67 5.375,-5.67 1.981,0 5.094,1.14 5.375,5.67 0,0.85 0,1.13 2.547,1.42 1.699,0 3.113,0 4.242,0 9.055,0 15.278,-3.69 15.278,-12.47 -21.219,0 -35.93,-5.94 -35.93,-17.55 0,-8.22 7.641,-16.15 19.805,-16.15 4.527,0 11.882,0.85 17.539,4.53 2.547,-3.96 8.203,-3.96 12.73,-3.96 3.395,0 6.227,0 6.227,3.68 z m -20.371,12.46 c 0,-2.83 0,-5.38 -4.528,-7.36 -4.523,-1.99 -9.898,-1.99 -10.75,-1.99 -7.355,0 -12.445,3.97 -12.445,8.79 0,5.94 10.465,10.47 27.723,10.47 l 0,-9.91" /><path
         id="path58"
         style="fill:#010101;fill-opacity:1;fill-rule:evenodd;stroke:none"
         d="m 817.016,1810.5 c 0,2.26 -1.7,3.11 -2.828,3.96 l -34.516,21.81 34.516,21.52 c 1.128,0.85 2.828,1.98 2.828,4.25 0,2.55 -2.262,3.96 -4.243,3.96 -1.132,0 -1.418,0 -3.113,-1.13 l -39.324,-24.64 c -1.129,-0.85 -2.547,-1.69 -2.547,-3.96 0,-1.7 0.852,-2.83 1.981,-3.68 l 39.89,-25.21 c 1.695,-1.13 1.981,-1.13 3.113,-1.13 1.981,0 4.243,1.41 4.243,4.25" /><path
         id="path60"
         style="fill:#010101;fill-opacity:1;fill-rule:evenodd;stroke:none"
         d="m 882.648,1845.05 c 0,4.25 -4.527,4.25 -6.222,4.25 l -41.305,0 c -1.699,0 -6.223,0 -6.223,-4.25 0,-4.25 3.961,-4.25 5.375,-4.25 l 43,0 c 1.415,0 5.375,0 5.375,4.25 z m 0,-18.13 c 0,4.25 -3.96,4.25 -5.375,4.25 l -43,0 c -1.414,0 -5.375,0 -5.375,-4.25 0,-4.24 4.524,-4.24 6.223,-4.24 l 41.305,0 c 1.695,0 6.222,0 6.222,4.24" /><path
         id="path62"
         style="fill:#010101;fill-opacity:1;fill-rule:evenodd;stroke:none"
         d="m 1004.3,1803.13 c 0,3.69 -2.84,3.69 -4.816,3.69 l -10.75,0 0,62.3 c 0,1.7 0,4.81 -3.675,4.81 -2.266,0 -3.114,-1.41 -3.68,-2.83 -4.524,-10.19 -10.75,-11.61 -13.012,-11.89 -1.98,0 -4.527,-0.28 -4.527,-3.68 0,-2.83 2.265,-3.4 3.961,-3.4 2.262,0 7.355,0.57 12.449,5.1 l 0,-50.41 -10.75,0 c -1.98,0 -4.812,0 -4.812,-3.69 0,-3.68 3.113,-3.68 4.812,-3.68 l 29.984,0 c 1.696,0 4.816,0 4.816,3.68" /><path
         id="path64"
         style="fill:#010101;fill-opacity:1;fill-rule:evenodd;stroke:none"
         d="m 1071.63,1835.98 c 0,22.09 -12.45,37.95 -25.47,37.95 -13.57,0 -25.46,-16.14 -25.46,-37.95 0,-22.37 12.17,-37.94 25.46,-37.94 13.3,0 25.47,16.14 25.47,37.94 z m -8.49,1.14 c 0,-17.56 -7.64,-31.72 -16.98,-31.72 -9.33,0 -17.25,14.16 -17.25,31.72 0,17.56 8.48,29.45 17.25,29.45 8.77,0 16.98,-11.61 16.98,-29.45" /><path
         id="path66"
         style="fill:#ffffff;fill-opacity:1;fill-rule:evenodd;stroke:none"
         d="m 1778.59,1127.14 c 242.45,0 427.75,-52.11 427.75,-120.36 0,-68.257 -185.3,-120.362 -427.75,-120.362 -242.44,0 -427.46,52.105 -427.46,120.362 0,68.25 185.02,120.36 427.46,120.36 z m -427.46,0 0,0 z m 855.49,-241.288 0,0" /><g
         transform="scale(0.99947,1.00053)"
         id="g68"><path
           id="path70"
           style="fill:none;stroke:#010101;stroke-width:7.07488012;stroke-linecap:butt;stroke-linejoin:round;stroke-miterlimit:10;stroke-dasharray:none;stroke-opacity:1"
           d="m 1779.25,1126.54 c 242.58,0 427.97,-52.08 427.97,-120.3 0,-68.214 -185.39,-120.291 -427.97,-120.291 -242.29,0 -427.4,52.077 -427.4,120.291 0,68.22 185.11,120.3 427.4,120.3 z" /></g><g
         transform="scale(0.99947,1.00053)"
         id="g72"><path
           id="path74"
           style="fill:none;stroke:#010101;stroke-width:7.07488012;stroke-linecap:butt;stroke-linejoin:round;stroke-miterlimit:10;stroke-dasharray:none;stroke-opacity:1"
           d="m 1351.85,1126.54 0,0 z" /></g><g
         transform="scale(0.99947,1.00053)"
         id="g76"><path
           id="path78"
           style="fill:none;stroke:#010101;stroke-width:7.07488012;stroke-linecap:butt;stroke-linejoin:round;stroke-miterlimit:10;stroke-dasharray:none;stroke-opacity:1"
           d="m 2207.51,885.382 0,0 z" /></g><path
         id="path80"
         style="fill:#010101;fill-opacity:1;fill-rule:evenodd;stroke:none"
         d="m 1657.23,955.516 -32.82,50.124 31.4,32.86 -11.31,0 -41.87,-44.184 0,44.184 -9.9,0 0,-82.984 9.9,0 0,27.187 15.56,16.145 28.01,-43.332 11.03,0" /><path
         id="path82"
         style="fill:#010101;fill-opacity:1;fill-rule:evenodd;stroke:none"
         d="m 1741.82,996.863 c 0,25.207 -17.26,44.177 -36.5,44.177 -20.09,0 -36.78,-19.25 -36.78,-44.177 0,-25.203 17.26,-43.894 36.5,-43.894 19.8,0 36.78,18.691 36.78,43.894 z m -10.19,1.7 c 0,-23.504 -13.01,-37.95 -26.31,-37.95 -13.86,0 -26.59,14.727 -26.59,37.95 0,22.087 13.01,35.117 26.31,35.117 13.86,0 26.59,-13.59 26.59,-35.117" /><path
         id="path84"
         style="fill:#010101;fill-opacity:1;fill-rule:evenodd;stroke:none"
         d="m 1819.05,955.516 0,82.984 -9.05,0 0,-74.203 -0.29,0 -9.62,20.105 -26.31,54.098 -14.71,0 0,-82.984 9.06,0 0,74.194 9.9,-20.1 26.31,-54.094 14.71,0" /><path
         id="path86"
         style="fill:#010101;fill-opacity:1;fill-rule:evenodd;stroke:none"
         d="m 1895.71,955.516 0,8.214 -15.84,0 c -1.41,0 -2.83,-0.285 -4.24,-0.285 l -23.77,0 0,31.719 39.04,0 0,7.086 -39.04,0 0,28.6 16.41,0 c 1.42,0 2.83,0 4.25,0 l 21.5,0 0,7.65 -52.34,0 0,-82.984 54.03,0" /><path
         id="path88"
         style="fill:#010101;fill-opacity:1;fill-rule:evenodd;stroke:none"
         d="m 1968.98,960.898 -0.56,8.497 c -3.4,-2.551 -6.79,-4.817 -10.75,-6.231 -3.68,-1.133 -7.92,-1.133 -11.88,-1.133 -7.64,0 -14.72,4.246 -19.52,10.196 -5.38,7.078 -7.93,16.14 -7.93,24.921 0,9.062 2.55,18.122 7.93,24.922 4.8,6.23 11.88,10.48 19.52,10.48 3.39,0 7.07,-0.28 10.46,-1.42 3.68,-1.13 6.79,-3.11 9.91,-5.09 l 1.69,9.91 c -3.67,1.41 -7.07,2.55 -10.75,3.11 -3.96,0.85 -7.64,0.85 -11.31,0.85 -10.47,0 -19.81,-4.81 -26.59,-12.46 -7.36,-8.21 -11.04,-19.26 -11.04,-30.302 0,-11.046 3.68,-21.808 11.04,-30.304 6.78,-7.645 16.12,-12.461 26.59,-12.461 3.96,0 8.2,0 12.16,1.133 3.96,1.132 7.64,3.398 11.03,5.382" /><g
         transform="scale(0.99947,1.00053)"
         id="g90"><path
           id="path92"
           style="fill:none;stroke:#010101;stroke-width:7.35930014;stroke-linecap:butt;stroke-linejoin:round;stroke-miterlimit:10;stroke-dasharray:none;stroke-opacity:1"
           d="m 857.075,3562.18 -0.281,-128.22" /></g><path
         id="path94"
         style="fill:#010101;fill-opacity:1;fill-rule:evenodd;stroke:none"
         d="m 856.34,3363.57 25.176,75.61 -50.356,0 25.18,-75.61" /><g
         transform="scale(0.99947,1.00053)"
         id="g96"><path
           id="path98"
           style="fill:none;stroke:#010101;stroke-width:7.35930014;stroke-linecap:butt;stroke-linejoin:round;stroke-miterlimit:10;stroke-dasharray:none;stroke-opacity:1"
           d="m 1287.88,1840.67 492.22,0 0,-642.23" /></g><path
         id="path100"
         style="fill:#010101;fill-opacity:1;fill-rule:evenodd;stroke:none"
         d="m 1779.16,1126.85 25.18,75.62 -50.36,0 25.18,-75.62" /><path
         id="path102"
         style="fill:#010101;fill-opacity:1;fill-rule:evenodd;stroke:none"
         d="m 330.426,303.023 c 0,23.223 -16.125,42.2 -36.211,42.2 l -30.551,0 0,-82.981 30.551,0 c 20.086,0 36.211,18.125 36.211,40.781 z m -10.184,0 c 0,-21.804 -13.297,-33.984 -28.855,-33.984 l -17.824,0 0,69.387 17.824,0 c 16.125,0 28.855,-13.594 28.855,-35.403" /><path
         id="path104"
         style="fill:#010101;fill-opacity:1;fill-rule:evenodd;stroke:none"
         d="m 407.094,262.242 -30.27,83.262 -10.469,0 -30.269,-83.262 9.051,0 8.769,24.356 33.668,0 8.77,-24.356 10.75,0 z m -22.067,31.153 -28.574,0 14.145,43.332 14.429,-43.332" /><path
         id="path106"
         style="fill:#010101;fill-opacity:1;fill-rule:evenodd;stroke:none"
         d="m 1401.2,1876.2 0,82.98 -9.05,0 0,-74.2 -0.28,0 -9.62,20.11 -26.31,54.09 -14.71,0 0,-82.98 9.05,0 0,74.2 9.9,-20.11 26.31,-54.09 14.71,0" /><path
         id="path108"
         style="fill:#010101;fill-opacity:1;fill-rule:evenodd;stroke:none"
         d="m 1477.59,1876.2 0,8.21 -15.84,0 c -1.42,0 -2.84,-0.28 -4.25,-0.28 l -23.76,0 0,31.72 39.04,0 0,7.08 -39.04,0 0,28.6 16.4,0 c 1.42,0 2.83,0 4.25,0 l 21.5,0 0,7.65 -52.34,0 0,-82.98 54.04,0" /><path
         id="path110"
         style="fill:#ffffff;fill-opacity:1;fill-rule:evenodd;stroke:none"
         d="m 856.34,2293.36 -405.965,0 0,215.79 811.645,0 0,-215.79 -405.68,0" /><g
         transform="scale(0.99947,1.00053)"
         id="g112"><path
           id="path114"
           style="fill:none;stroke:#010101;stroke-width:7.07488012;stroke-linecap:butt;stroke-linejoin:round;stroke-miterlimit:10;stroke-dasharray:none;stroke-opacity:1"
           d="m 856.509,2292.14 -405.895,0 0,215.68 812.066,0 0,-215.68 -406.171,0 z" /></g><path
         id="path116"
         style="fill:#010101;fill-opacity:1;fill-rule:evenodd;stroke:none"
         d="m 755.91,2384.83 c 0,14.72 -10.469,26.62 -23.199,26.62 -5.656,0 -11.031,-2.27 -15.277,-5.95 l 0,21.81 c 0,3.68 -0.567,4.81 -4.809,4.81 l -8.77,0 c -1.699,0 -4.808,0 -4.808,-3.68 0,-3.68 3.109,-3.68 4.808,-3.68 l 5.375,0 0,-60.89 c 0,-2.26 0,-4.82 4.243,-4.82 3.961,0 3.961,2.27 3.961,5.39 5.093,-5.1 10.183,-6.23 13.863,-6.23 13.012,0 24.613,11.33 24.613,26.62 z m -8.207,0 c 0,-11.33 -8.203,-19.26 -16.687,-19.26 -9.336,0 -13.582,10.48 -13.582,16.43 l 0,8.77 c 0,7.09 7.074,13.32 14.429,13.32 9.051,0 15.84,-8.79 15.84,-19.26" /><path
         id="path118"
         style="fill:#010101;fill-opacity:1;fill-rule:evenodd;stroke:none"
         d="m 882.93,2404.65 c 0,4.25 -4.524,4.25 -6.223,4.25 l -41.305,0 c -1.695,0 -6.222,0 -6.222,-4.25 0,-4.25 3.961,-4.25 5.375,-4.25 l 43,0 c 1.414,0 5.375,0 5.375,4.25 z m 0,-18.12 c 0,4.24 -3.961,4.24 -5.375,4.24 l -43,0 c -1.414,0 -5.375,0 -5.375,-4.24 0,-4.25 4.527,-4.25 6.222,-4.25 l 41.305,0 c 1.699,0 6.223,0 6.223,4.25" /><path
         id="path120"
         style="fill:#010101;fill-opacity:1;fill-rule:evenodd;stroke:none"
         d="m 1004.3,2362.74 c 0,3.68 -2.84,3.68 -4.816,3.68 l -10.75,0 0,62.3 c 0,1.7 0,4.82 -3.675,4.82 -2.266,0 -3.114,-1.42 -3.68,-2.83 -4.524,-10.2 -10.75,-11.62 -13.012,-11.9 -1.98,0 -4.527,-0.28 -4.527,-3.68 0,-2.83 2.265,-3.4 3.961,-3.4 2.262,0 7.355,0.57 12.449,5.1 l 0,-50.41 -10.75,0 c -1.98,0 -4.812,0 -4.812,-3.68 0,-3.69 3.113,-3.69 4.812,-3.69 l 29.984,0 c 1.696,0 4.816,0 4.816,3.69" /><g
         transform="scale(0.99947,1.00053)"
         id="g122"><path
           id="path124"
           style="fill:none;stroke:#010101;stroke-width:7.35930014;stroke-linecap:butt;stroke-linejoin:round;stroke-miterlimit:10;stroke-dasharray:none;stroke-opacity:1"
           d="m 856.794,3146.1 0,-138.97" /></g><path
         id="path126"
         style="fill:#010101;fill-opacity:1;fill-rule:evenodd;stroke:none"
         d="m 856.34,2936.5 25.176,75.62 -50.356,0 25.18,-75.62" /><g
         transform="scale(0.99947,1.00053)"
         id="g128"><path
           id="path130"
           style="fill:none;stroke:#010101;stroke-width:7.35930014;stroke-linecap:butt;stroke-linejoin:round;stroke-miterlimit:10;stroke-dasharray:none;stroke-opacity:1"
           d="m 856.794,2719.26 0,-139.26" /></g><path
         id="path132"
         style="fill:#010101;fill-opacity:1;fill-rule:evenodd;stroke:none"
         d="m 856.34,2509.15 25.176,75.62 -50.356,0 25.18,-75.62" /><path
         id="path134"
         style="fill:#ffffff;fill-opacity:1;fill-rule:evenodd;stroke:none"
         d="m 856.34,3147.77 -405.965,0 0,215.8 811.645,0 0,-215.8 -405.68,0" /><g
         transform="scale(0.99947,1.00053)"
         id="g136"><path
           id="path138"
           style="fill:none;stroke:#010101;stroke-width:7.07488012;stroke-linecap:butt;stroke-linejoin:round;stroke-miterlimit:10;stroke-dasharray:none;stroke-opacity:1"
           d="m 856.509,3146.38 -405.895,0 0,215.69 812.066,0 0,-215.69 -406.171,0 z" /></g><path
         id="path140"
         style="fill:#010101;fill-opacity:1;fill-rule:evenodd;stroke:none"
         d="m 759.871,3216.87 c 0,3.68 -3.113,3.68 -4.812,3.68 -5.09,0 -6.223,0.57 -7.356,0.85 l 0,26.05 c 0,8.5 -6.504,18.69 -23.762,18.69 -5.093,0 -17.257,0 -17.257,-8.77 0,-3.69 2.546,-5.67 5.375,-5.67 1.98,0 5.093,1.14 5.375,5.67 0,0.84 0,1.13 2.546,1.41 1.7,0 3.114,0 4.243,0 9.054,0 15.277,-3.68 15.277,-12.46 -21.219,0 -35.926,-5.94 -35.926,-17.56 0,-8.21 7.637,-16.14 19.801,-16.14 4.527,0 11.883,0.85 17.539,4.53 2.547,-3.96 8.207,-3.96 12.731,-3.96 3.394,0 6.226,0 6.226,3.68 z m -20.371,12.46 c 0,-2.83 0,-5.38 -4.527,-7.37 -4.524,-1.98 -9.899,-1.98 -10.75,-1.98 -7.356,0 -12.446,3.97 -12.446,8.78 0,5.95 10.465,10.48 27.723,10.48 l 0,-9.91" /><path
         id="path142"
         style="fill:#010101;fill-opacity:1;fill-rule:evenodd;stroke:none"
         d="m 882.93,3259.07 c 0,4.24 -4.524,4.24 -6.223,4.24 l -41.305,0 c -1.695,0 -6.222,0 -6.222,-4.24 0,-4.25 3.961,-4.25 5.375,-4.25 l 43,0 c 1.414,0 5.375,0 5.375,4.25 z m 0,-18.13 c 0,4.25 -3.961,4.25 -5.375,4.25 l -43,0 c -1.414,0 -5.375,0 -5.375,-4.25 0,-4.25 4.527,-4.25 6.222,-4.25 l 41.305,0 c 1.699,0 6.223,0 6.223,4.25" /><path
         id="path144"
         style="fill:#010101;fill-opacity:1;fill-rule:evenodd;stroke:none"
         d="m 1008.25,3250 c 0,22.09 -12.441,37.95 -25.457,37.95 -13.578,0 -25.461,-16.14 -25.461,-37.95 0,-22.37 12.168,-37.95 25.461,-37.95 13.297,0 25.457,16.15 25.457,37.95 z m -8.48,1.14 c 0,-17.56 -7.641,-31.72 -16.977,-31.72 -9.332,0 -17.254,14.16 -17.254,31.72 0,17.56 8.484,29.45 17.254,29.45 8.773,0 16.977,-11.61 16.977,-29.45" /><path
         id="path146"
         style="fill:#ffffff;fill-opacity:1;fill-rule:evenodd;stroke:none"
         d="m 856.34,2720.7 -405.965,0 0,215.8 811.645,0 0,-215.8 -405.68,0" /><g
         transform="scale(0.99947,1.00053)"
         id="g148"><path
           id="path150"
           style="fill:none;stroke:#010101;stroke-width:7.07488012;stroke-linecap:butt;stroke-linejoin:round;stroke-miterlimit:10;stroke-dasharray:none;stroke-opacity:1"
           d="m 856.509,2719.26 -405.895,0 0,215.68 812.066,0 0,-215.68 -406.171,0 z" /></g><path
         id="path152"
         style="fill:#010101;fill-opacity:1;fill-rule:evenodd;stroke:none"
         d="m 728.184,2789.8 c 0,3.68 -3.11,3.68 -4.809,3.68 -5.094,0 -6.223,0.57 -7.355,0.86 l 0,26.05 c 0,8.5 -6.508,18.69 -23.762,18.69 -5.094,0 -17.258,0 -17.258,-8.78 0,-3.68 2.547,-5.66 5.375,-5.66 1.98,0 5.09,1.13 5.375,5.66 0,0.85 0,1.13 2.547,1.42 1.695,0 3.109,0 4.242,0 9.055,0 15.277,-3.68 15.277,-12.46 -21.218,0 -35.929,-5.95 -35.929,-17.56 0,-8.22 7.64,-16.15 19.804,-16.15 4.528,0 11.883,0.86 17.539,4.54 2.547,-3.97 8.204,-3.97 12.731,-3.97 3.394,0 6.223,0 6.223,3.68 z m -20.368,12.47 c 0,-2.84 0,-5.39 -4.527,-7.37 -4.527,-1.98 -9.902,-1.98 -10.75,-1.98 -7.355,0 -12.449,3.96 -12.449,8.78 0,5.94 10.469,10.48 27.726,10.48 l 0,-9.91" /><path
         id="path154"
         style="fill:#010101;fill-opacity:1;fill-rule:evenodd;stroke:none"
         d="m 851.246,2822.94 c 0,4.25 -4.242,4.25 -5.656,4.25 l -16.977,0 0,16.99 c 0,1.41 0,5.66 -4.242,5.66 -4.242,0 -4.242,-4.25 -4.242,-5.66 l 0,-16.99 -16.977,0 c -1.414,0 -5.656,0 -5.656,-4.25 0,-4.25 4.242,-4.25 5.656,-4.25 l 16.977,0 0,-16.99 c 0,-1.42 0,-5.66 4.242,-5.66 4.242,0 4.242,4.24 4.242,5.66 l 0,16.99 16.977,0 c 1.414,0 5.656,0 5.656,4.25" /><path
         id="path156"
         style="fill:#010101;fill-opacity:1;fill-rule:evenodd;stroke:none"
         d="m 914.617,2832 c 0,4.25 -4.527,4.25 -6.226,4.25 l -41.301,0 c -1.699,0 -6.227,0 -6.227,-4.25 0,-4.25 3.961,-4.25 5.375,-4.25 l 43.004,0 c 1.414,0 5.375,0 5.375,4.25 z m 0,-18.12 c 0,4.25 -3.961,4.25 -5.375,4.25 l -43.004,0 c -1.414,0 -5.375,0 -5.375,-4.25 0,-4.25 4.528,-4.25 6.227,-4.25 l 41.301,0 c 1.699,0 6.226,0 6.226,4.25" /><path
         id="path158"
         style="fill:#010101;fill-opacity:1;fill-rule:evenodd;stroke:none"
         d="m 1036.26,2790.09 c 0,3.68 -2.83,3.68 -4.81,3.68 l -10.75,0 0,62.3 c 0,1.7 0,4.82 -3.67,4.82 -2.27,0 -3.12,-1.42 -3.68,-2.84 -4.53,-10.19 -10.75,-11.61 -13.01,-11.89 -1.985,0 -4.531,-0.28 -4.531,-3.68 0,-2.83 2.261,-3.4 3.961,-3.4 2.26,0 7.36,0.57 12.44,5.1 l 0,-50.41 -10.75,0 c -1.976,0 -4.804,0 -4.804,-3.68 0,-3.68 3.114,-3.68 4.804,-3.68 l 29.99,0 c 1.7,0 4.81,0 4.81,3.68" /><path
         id="path160"
         style="fill:#ffffff;fill-opacity:1;fill-rule:evenodd;stroke:none"
         d="m 856.34,1114.68 -405.965,0 0,215.51 811.645,0 0,-215.51 -405.68,0" /><g
         transform="scale(0.99947,1.00053)"
         id="g162"><path
           id="path164"
           style="fill:none;stroke:#010101;stroke-width:7.07488012;stroke-linecap:butt;stroke-linejoin:round;stroke-miterlimit:10;stroke-dasharray:none;stroke-opacity:1"
           d="m 856.509,1114.09 -405.895,0 0,215.68 812.066,0 0,-215.68 -406.171,0 z" /></g><path
         id="path166"
         style="fill:#010101;fill-opacity:1;fill-rule:evenodd;stroke:none"
         d="m 565.516,1206.15 c 0,14.73 -10.465,26.62 -23.196,26.62 -5.66,0 -11.035,-2.27 -15.277,-5.95 0,3.4 -0.285,5.1 -4.809,5.1 l -8.769,0 c -1.699,0 -4.813,0 -4.813,-3.68 0,-3.68 3.114,-3.68 4.813,-3.68 l 5.375,0 0,-63.44 -5.375,0 c -1.699,0 -4.813,0 -4.813,-3.68 0,-3.68 3.114,-3.68 4.813,-3.68 l 18.953,0 c 1.695,0 4.809,0 4.809,3.68 0,3.68 -2.829,3.68 -4.809,3.68 l -5.375,0 0,24.64 c 5.094,-5.1 10.184,-6.23 13.863,-6.23 13.012,0 24.61,11.33 24.61,26.62 z m -8.203,0 c 0,-11.33 -8.204,-19.26 -16.692,-19.26 -9.336,0 -13.578,10.48 -13.578,16.43 l 0,8.78 c 0,7.08 7.07,13.31 14.426,13.31 9.054,0 15.844,-8.78 15.844,-19.26" /><path
         id="path168"
         style="fill:#010101;fill-opacity:1;fill-rule:evenodd;stroke:none"
         d="m 628.887,1225.13 c 0,2.54 -1.414,7.64 -11.317,7.64 -6.222,0 -13.863,-2.27 -20.367,-9.91 l 0,4.25 c 0,3.68 -0.851,4.81 -4.812,4.81 l -13.293,0 c -1.7,0 -4.528,0 -4.528,-3.68 0,-3.68 2.828,-3.68 4.528,-3.68 l 9.898,0 0,-36.82 -9.898,0 c -1.7,0 -4.528,0 -4.528,-3.68 0,-3.68 2.828,-3.68 4.528,-3.68 l 31.402,0 c 1.695,0 4.809,0 4.809,3.68 0,3.68 -3.114,3.68 -4.809,3.68 l -13.297,0 0,15.01 c 0,11.05 7.07,22.66 21.5,22.66 0,-2.84 2.262,-5.38 5.09,-5.38 2.832,0 5.094,1.98 5.094,5.1" /><path
         id="path170"
         style="fill:#010101;fill-opacity:1;fill-rule:evenodd;stroke:none"
         d="m 688.578,1184.06 c 0,3.68 -3.113,3.68 -4.808,3.68 l -12.45,0 0,39.37 c 0,3.68 -0.847,4.81 -4.808,4.81 l -16.973,0 c -1.98,0 -5.094,0 -5.094,-3.68 0,-3.68 3.114,-3.68 5.094,-3.68 l 13.578,0 0,-36.82 -14.711,0 c -1.695,0 -4.808,0 -4.808,-3.68 0,-3.68 3.113,-3.68 4.808,-3.68 l 35.364,0 c 1.695,0 4.808,0 4.808,3.68 z m -16.973,62.87 c 0,3.4 -2.546,5.95 -5.941,5.95 -3.394,0 -5.941,-2.55 -5.941,-5.95 0,-3.4 2.547,-5.95 5.941,-5.95 3.395,0 5.941,2.55 5.941,5.95" /><path
         id="path172"
         style="fill:#010101;fill-opacity:1;fill-rule:evenodd;stroke:none"
         d="m 759.02,1184.06 c 0,3.68 -3.11,3.68 -5.09,3.68 l -5.094,0 0,27.76 c 0,12.17 -6.223,17.27 -15.559,17.27 -8.203,0 -13.578,-4.25 -15.843,-6.51 0,3.96 0,5.66 -4.809,5.66 l -8.77,0 c -1.699,0 -4.808,0 -4.808,-3.68 0,-3.68 3.109,-3.68 4.808,-3.68 l 5.375,0 0,-36.82 -5.375,0 c -1.699,0 -4.808,0 -4.808,-3.68 0,-3.68 3.109,-3.68 4.808,-3.68 l 18.954,0 c 1.699,0 4.808,0 4.808,3.68 0,3.68 -2.828,3.68 -4.808,3.68 l -5.375,0 0,21.24 c 0,11.9 9.054,16.43 14.996,16.43 6.504,0 7.918,-3.4 7.918,-10.48 l 0,-27.19 -4.524,0 c -1.98,0 -4.812,0 -4.812,-3.68 0,-3.68 3.113,-3.68 4.812,-3.68 l 18.387,0 c 1.699,0 4.809,0 4.809,3.68" /><path
         id="path174"
         style="fill:#010101;fill-opacity:1;fill-rule:evenodd;stroke:none"
         d="m 814.754,1195.39 c 0,1.98 0,4.53 -4.246,4.53 -3.961,0 -3.961,-2.55 -3.961,-4.53 -0.281,-7.37 -7.07,-8.5 -9.902,-8.5 -9.051,0 -9.051,6.23 -9.051,9.06 l 0,28.61 19.519,0 c 1.981,0 4.809,0 4.809,3.68 0,3.68 -2.828,3.68 -4.809,3.68 l -19.519,0 0,9.63 c 0,2.27 0,5.1 -3.961,5.1 -4.242,0 -4.242,-2.55 -4.242,-5.1 l 0,-9.63 -10.469,0 c -1.981,0 -4.809,0 -4.809,-3.68 0,-3.68 2.828,-3.68 4.809,-3.68 l 10.469,0 0,-29.17 c 0,-11.61 7.922,-15.86 16.691,-15.86 9.051,0 18.672,5.1 18.672,15.86" /><path
         id="path176"
         style="fill:#010101;fill-opacity:1;fill-rule:evenodd;stroke:none"
         d="m 876.988,1173.86 c 0,1.7 -0.847,2.27 -3.109,3.69 -14.711,9.91 -20.371,26.05 -20.371,39.36 0,11.89 4.527,28.61 20.652,39.65 1.981,1.13 2.828,1.7 2.828,3.4 0,1.13 -0.562,3.4 -3.675,3.4 -3.68,0 -28.008,-15.86 -28.008,-46.45 0,-14.16 5.66,-24.92 9.617,-30.87 6.508,-8.78 15.562,-15.58 18.391,-15.58 3.113,0 3.675,2.27 3.675,3.4" /><path
         id="path178"
         style="fill:#010101;fill-opacity:1;fill-rule:evenodd;stroke:none"
         d="m 950.262,1183.78 c 0,3.68 -3.114,3.68 -4.809,3.68 -5.094,0 -6.226,0.56 -7.355,0.85 l 0,26.05 c 0,8.5 -6.508,18.69 -23.766,18.69 -5.09,0 -17.258,0 -17.258,-8.78 0,-3.68 2.547,-5.66 5.375,-5.66 1.981,0 5.094,1.13 5.375,5.66 0,0.86 0,1.14 2.547,1.42 1.699,0 3.113,0 4.246,0 9.051,0 15.274,-3.68 15.274,-12.46 -21.215,0 -35.926,-5.95 -35.926,-17.56 0,-8.21 7.637,-16.14 19.801,-16.14 4.527,0 11.882,0.85 17.543,4.53 2.543,-3.97 8.203,-3.97 12.73,-3.97 3.395,0 6.223,0 6.223,3.69 z m -20.371,12.46 c 0,-2.83 0,-5.38 -4.524,-7.36 -4.527,-1.99 -9.902,-1.99 -10.75,-1.99 -7.355,0 -12.449,3.97 -12.449,8.78 0,5.95 10.469,10.48 27.723,10.48 l 0,-9.91" /><path
         id="path180"
         style="fill:#010101;fill-opacity:1;fill-rule:evenodd;stroke:none"
         d="m 992.98,1183.49 c 0,7.08 -4.527,11.9 -9.902,11.9 -4.808,0 -7.355,-3.68 -7.355,-7.37 0,-4.53 3.394,-7.64 7.355,-7.64 0.567,0 1.414,0 2.262,0.28 -1.695,-7.36 -7.356,-9.34 -8.77,-9.63 -1.132,-0.57 -3.394,-1.13 -3.394,-3.4 0,-1.7 1.699,-3.96 3.961,-3.96 3.676,0 15.843,6.51 15.843,19.82" /><path
         id="path182"
         style="fill:#010101;fill-opacity:1;fill-rule:evenodd;stroke:none"
         d="m 1136.69,1206.15 c 0,14.73 -10.46,26.62 -23.19,26.62 -5.66,0 -11.04,-2.27 -15.28,-5.95 l 0,21.81 c 0,3.68 -0.57,4.81 -4.81,4.81 l -8.77,0 c -1.7,0 -4.81,0 -4.81,-3.68 0,-3.68 3.11,-3.68 4.81,-3.68 l 5.38,0 0,-60.89 c 0,-2.26 0,-4.81 4.24,-4.81 3.96,0 3.96,2.26 3.96,5.38 5.09,-5.1 10.18,-6.23 13.86,-6.23 13.01,0 24.61,11.33 24.61,26.62 z m -8.2,0 c 0,-11.33 -8.2,-19.26 -16.69,-19.26 -9.34,0 -13.58,10.48 -13.58,16.43 l 0,8.78 c 0,7.08 7.07,13.31 14.42,13.31 9.06,0 15.85,-8.78 15.85,-19.26" /><path
         id="path184"
         style="fill:#010101;fill-opacity:1;fill-rule:evenodd;stroke:none"
         d="m 1183.94,1216.91 c 0,14.16 -5.66,24.92 -9.62,30.87 -6.51,8.78 -15.56,15.58 -18.39,15.58 -2.83,0 -3.68,-2.27 -3.68,-3.4 0,-1.7 1.42,-2.55 1.98,-2.83 19.52,-13.03 21.5,-32.57 21.5,-40.22 0,-11.89 -4.52,-28.6 -20.65,-39.36 -1.7,-1.42 -2.83,-1.99 -2.83,-3.69 0,-1.13 0.85,-3.4 3.68,-3.4 3.68,0 28.01,15.86 28.01,46.45" /><path
         id="path186"
         style="fill:#ffffff;fill-opacity:1;fill-rule:evenodd;stroke:none"
         d="M 862.277,450.57 1293.42,227.41 862.277,3.96484 431.141,227.41 l 431.136,223.16 0,0 z m -431.136,0 0,0 z M 1293.42,3.96484 l 0,0" /><g
         transform="scale(0.99947,1.00053)"
         id="g188"><path
           id="path190"
           style="fill:none;stroke:#010101;stroke-width:7.07488012;stroke-linecap:butt;stroke-linejoin:round;stroke-miterlimit:10;stroke-dasharray:none;stroke-opacity:1"
           d="M 862.453,450.332 1294.1,227.571 862.453,4.24775 431.369,227.571 l 431.084,222.761 0,0 z" /></g><g
         transform="scale(0.99947,1.00053)"
         id="g192"><path
           id="path194"
           style="fill:none;stroke:#010101;stroke-width:7.07488012;stroke-linecap:butt;stroke-linejoin:round;stroke-miterlimit:10;stroke-dasharray:none;stroke-opacity:1"
           d="m 431.369,450.332 0,0 z" /></g><g
         transform="scale(0.99947,1.00053)"
         id="g196"><path
           id="path198"
           style="fill:none;stroke:#010101;stroke-width:7.07488012;stroke-linecap:butt;stroke-linejoin:round;stroke-miterlimit:10;stroke-dasharray:none;stroke-opacity:1"
           d="m 1294.1,4.24775 0,0 z" /></g><path
         id="path200"
         style="fill:#010101;fill-opacity:1;fill-rule:evenodd;stroke:none"
         d="m 698.195,210.984 c 0,14.727 -10.465,26.621 -23.195,26.621 -5.66,0 -11.035,-2.265 -15.277,-5.949 l 0,21.809 c 0,3.68 -0.567,4.812 -4.809,4.812 l -8.769,0 c -1.7,0 -4.809,0 -4.809,-3.679 0,-3.684 3.109,-3.684 4.809,-3.684 l 5.375,0 0,-60.887 c 0,-2.265 0,-4.812 4.242,-4.812 3.961,0 3.961,2.262 3.961,5.379 5.093,-5.098 10.183,-6.231 13.863,-6.231 13.012,0 24.609,11.328 24.609,26.621 z m -8.203,0 c 0,-11.328 -8.203,-19.257 -16.691,-19.257 -9.336,0 -13.578,10.476 -13.578,16.425 l 0,8.778 c 0,7.082 7.074,13.312 14.429,13.312 9.051,0 15.84,-8.781 15.84,-19.258" /><path
         id="path202"
         style="fill:#010101;fill-opacity:1;fill-rule:evenodd;stroke:none"
         d="m 822.957,196.258 c 0,2.265 -1.699,3.113 -2.828,3.965 l -34.516,21.804 34.516,21.524 c 1.129,0.851 2.828,1.984 2.828,4.25 0,2.547 -2.266,3.965 -4.246,3.965 -1.129,0 -1.414,0 -3.109,-1.133 l -39.325,-24.641 c -1.132,-0.847 -2.547,-1.699 -2.547,-3.965 0,-1.699 0.852,-2.832 1.981,-3.679 l 39.891,-25.207 c 1.695,-1.133 1.98,-1.133 3.109,-1.133 1.98,0 4.246,1.418 4.246,4.25" /><path
         id="path204"
         style="fill:#010101;fill-opacity:1;fill-rule:evenodd;stroke:none"
         d="m 888.59,230.809 c 0,4.246 -4.527,4.246 -6.227,4.246 l -41.3,0 c -1.7,0 -6.223,0 -6.223,-4.246 0,-4.25 3.957,-4.25 5.375,-4.25 l 43,0 c 1.414,0 5.375,0 5.375,4.25 z m 0,-18.125 c 0,4.246 -3.961,4.246 -5.375,4.246 l -43,0 c -1.418,0 -5.375,0 -5.375,-4.246 0,-4.25 4.523,-4.25 6.223,-4.25 l 41.3,0 c 1.7,0 6.227,0 6.227,4.25" /><path
         id="path206"
         style="fill:#010101;fill-opacity:1;fill-rule:evenodd;stroke:none"
         d="m 1010.23,188.895 c 0,3.679 -2.82,3.679 -4.8,3.679 l -10.754,0 0,62.305 c 0,1.699 0,4.816 -3.676,4.816 -2.266,0 -3.113,-1.418 -3.68,-2.832 -4.527,-10.195 -10.75,-11.613 -13.011,-11.894 -1.981,0 -4.528,-0.285 -4.528,-3.684 0,-2.832 2.262,-3.398 3.961,-3.398 2.262,0 7.356,0.566 12.446,5.097 l 0,-50.41 -10.75,0 c -1.981,0 -4.809,0 -4.809,-3.679 0,-3.68 3.113,-3.68 4.809,-3.68 l 29.992,0 c 1.7,0 4.8,0 4.8,3.68" /><path
         id="path208"
         style="fill:#010101;fill-opacity:1;fill-rule:evenodd;stroke:none"
         d="m 1077.57,221.746 c 0,22.09 -12.45,37.949 -25.46,37.949 -13.58,0 -25.47,-16.144 -25.47,-37.949 0,-22.375 12.17,-37.949 25.47,-37.949 13.29,0 25.46,16.141 25.46,37.949 z m -8.49,1.133 c 0,-17.559 -7.64,-31.719 -16.97,-31.719 -9.34,0 -17.26,14.16 -17.26,31.719 0,17.559 8.49,29.453 17.26,29.453 8.77,0 16.97,-11.613 16.97,-29.453" /><path
         id="path210"
         style="fill:#ffffff;fill-opacity:1;fill-rule:evenodd;stroke:none"
         d="m 862.277,640.883 -405.961,0 0,215.797 811.644,0 0,-215.797 -405.683,0" /><g
         transform="scale(0.99947,1.00053)"
         id="g212"><path
           id="path214"
           style="fill:none;stroke:#010101;stroke-width:7.07488012;stroke-linecap:butt;stroke-linejoin:round;stroke-miterlimit:10;stroke-dasharray:none;stroke-opacity:1"
           d="m 862.453,640.543 -405.895,0 0,215.683 812.072,0 0,-215.683 -406.177,0 z" /></g><path
         id="path216"
         style="fill:#010101;fill-opacity:1;fill-rule:evenodd;stroke:none"
         d="m 730.164,732.355 c 0,14.727 -10.465,26.622 -23.195,26.622 -5.66,0 -11.035,-2.266 -15.278,-5.95 l 0,21.809 c 0,3.68 -0.566,4.812 -4.808,4.812 l -8.77,0 c -1.699,0 -4.812,0 -4.812,-3.679 0,-3.684 3.113,-3.684 4.812,-3.684 l 5.375,0 0,-60.887 c 0,-2.265 0,-4.812 4.242,-4.812 3.961,0 3.961,2.266 3.961,5.379 5.09,-5.098 10.184,-6.231 13.86,-6.231 13.015,0 24.613,11.329 24.613,26.621 z m -8.203,0 c 0,-11.328 -8.203,-19.257 -16.691,-19.257 -9.336,0 -13.579,10.476 -13.579,16.425 l 0,8.778 c 0,7.082 7.071,13.312 14.426,13.312 9.055,0 15.844,-8.781 15.844,-19.258" /><path
         id="path218"
         style="fill:#010101;fill-opacity:1;fill-rule:evenodd;stroke:none"
         d="m 857.188,743.117 c 0,4.246 -4.243,4.246 -5.661,4.246 l -16.972,0 0,16.992 c 0,1.418 0,5.665 -4.242,5.665 -4.247,0 -4.247,-4.247 -4.247,-5.665 l 0,-16.992 -16.972,0 c -1.414,0 -5.656,0 -5.656,-4.246 0,-4.25 4.242,-4.25 5.656,-4.25 l 16.972,0 0,-16.992 c 0,-1.414 0,-5.664 4.247,-5.664 4.242,0 4.242,4.25 4.242,5.664 l 0,16.992 16.972,0 c 1.418,0 5.661,0 5.661,4.25" /><path
         id="path220"
         style="fill:#010101;fill-opacity:1;fill-rule:evenodd;stroke:none"
         d="m 920.559,752.18 c 0,4.246 -4.528,4.246 -6.227,4.246 l -41.301,0 c -1.699,0 -6.226,0 -6.226,-4.246 0,-4.25 3.961,-4.25 5.375,-4.25 l 43,0 c 1.418,0 5.379,0 5.379,4.25 z m 0,-18.125 c 0,4.246 -3.961,4.246 -5.379,4.246 l -43,0 c -1.414,0 -5.375,0 -5.375,-4.246 0,-4.25 4.527,-4.25 6.226,-4.25 l 41.301,0 c 1.699,0 6.227,0 6.227,4.25" /><path
         id="path222"
         style="fill:#010101;fill-opacity:1;fill-rule:evenodd;stroke:none"
         d="m 1042.2,710.266 c 0,3.679 -2.82,3.679 -4.81,3.679 l -10.75,0 0,62.305 c 0,1.699 0,4.816 -3.68,4.816 -2.26,0 -3.1,-1.418 -3.67,-2.832 -4.53,-10.195 -10.75,-11.613 -13.01,-11.894 -1.98,0 -4.53,-0.285 -4.53,-3.684 0,-2.832 2.26,-3.398 3.96,-3.398 2.26,0 7.36,0.566 12.45,5.097 l 0,-50.41 -10.75,0 c -1.98,0 -4.81,0 -4.81,-3.679 0,-3.68 3.11,-3.68 4.81,-3.68 l 29.98,0 c 1.7,0 4.81,0 4.81,3.68" /><g
         transform="scale(0.99947,1.00053)"
         id="g224"><path
           id="path226"
           style="fill:none;stroke:#010101;stroke-width:7.35930014;stroke-linecap:butt;stroke-linejoin:round;stroke-miterlimit:10;stroke-dasharray:none;stroke-opacity:1"
           d="m 856.794,1617.63 0,-215.97" /></g><path
         id="path228"
         style="fill:#010101;fill-opacity:1;fill-rule:evenodd;stroke:none"
         d="m 856.34,1330.19 25.176,75.61 -50.356,0 25.18,-75.61" /><g
         transform="scale(0.99947,1.00053)"
         id="g230"><path
           id="path232"
           style="fill:none;stroke:#010101;stroke-width:7.35930014;stroke-linecap:butt;stroke-linejoin:round;stroke-miterlimit:10;stroke-dasharray:none;stroke-opacity:1"
           d="m 862.735,640.543 0,-118.031" /></g><path
         id="path234"
         style="fill:#010101;fill-opacity:1;fill-rule:evenodd;stroke:none"
         d="m 862.277,450.57 25.18,75.618 -50.355,0 25.175,-75.618" /><g
         transform="scale(0.99947,1.00053)"
         id="g236"><path
           id="path238"
           style="fill:none;stroke:#010101;stroke-width:7.35930014;stroke-linecap:butt;stroke-linejoin:round;stroke-miterlimit:10;stroke-dasharray:none;stroke-opacity:1"
           d="m 431.369,227.29 -312.204,0 0,994.64 259.274,0" /></g><path
         id="path240"
         style="fill:#010101;fill-opacity:1;fill-rule:evenodd;stroke:none"
         d="m 450.375,1222.57 -75.531,24.93 0,-50.13 75.531,25.2" /><g
         transform="scale(0.99947,1.00053)"
         id="g242"><path
           id="path244"
           style="fill:none;stroke:#010101;stroke-width:7.35930014;stroke-linecap:butt;stroke-linejoin:round;stroke-miterlimit:10;stroke-dasharray:none;stroke-opacity:1"
           d="m 856.794,2292.14 0,-156.24" /></g><path
         id="path246"
         style="fill:#010101;fill-opacity:1;fill-rule:evenodd;stroke:none"
         d="m 856.34,2064.81 25.176,75.62 -50.356,0 25.18,-75.62" /><g
         transform="scale(0.99947,1.00053)"
         id="g248"><path
           id="path250"
           style="fill:none;stroke:#010101;stroke-width:7.35930014;stroke-linecap:butt;stroke-linejoin:round;stroke-miterlimit:10;stroke-dasharray:none;stroke-opacity:1"
           d="m 1293.82,227.29 1083.23,0 0,2599.81 -1042.19,0" /></g><path
         id="path252"
         style="fill:#010101;fill-opacity:1;fill-rule:evenodd;stroke:none"
         d="m 1262.02,2828.6 75.53,-25.2 0,50.4 -75.53,-25.2" /><g
         transform="scale(0.99947,1.00053)"
         id="g254"><path
           id="path256"
           style="fill:none;stroke:#010101;stroke-width:7.35930014;stroke-linecap:butt;stroke-linejoin:round;stroke-miterlimit:10;stroke-dasharray:none;stroke-opacity:1"
           d="m 856.794,1114.09 4.244,-185.687" /></g><path
         id="path258"
         style="fill:#010101;fill-opacity:1;fill-rule:evenodd;stroke:none"
         d="m 862.277,856.68 23.485,76.179 -50.36,-1.132 26.875,-75.047" /><path
         id="path260"
         style="fill:#010101;fill-opacity:1;fill-rule:evenodd;stroke:none"
         d="m 743.461,1514.84 c 0,23.22 -16.125,42.2 -36.211,42.2 l -30.555,0 0,-82.99 30.555,0 c 20.086,0 36.211,18.13 36.211,40.79 z m -10.184,0 c 0,-21.81 -13.297,-33.99 -28.855,-33.99 l -17.824,0 0,69.39 17.824,0 c 16.125,0 28.855,-13.6 28.855,-35.4" /><path
         id="path262"
         style="fill:#010101;fill-opacity:1;fill-rule:evenodd;stroke:none"
         d="m 820.129,1474.05 -30.274,83.27 -10.464,0 -30.27,-83.27 9.051,0 8.769,24.36 33.664,0 8.77,-24.36 10.754,0 z m -22.066,31.16 -28.575,0 14.145,43.33 14.43,-43.33" /><path
         id="path264"
         style="fill:#010101;fill-opacity:1;fill-rule:evenodd;stroke:none"
         d="m 1406.86,262.242 0,82.981 -9.05,0 0,-74.2 -0.28,0 -9.62,20.106 -26.31,54.094 -14.71,0 0,-82.981 9.05,0 0,74.199 9.9,-20.105 26.31,-54.094 14.71,0" /><path
         id="path266"
         style="fill:#010101;fill-opacity:1;fill-rule:evenodd;stroke:none"
         d="m 1483.25,262.242 0,8.215 -15.85,0 c -1.41,0 -2.83,-0.285 -4.24,-0.285 l -23.77,0 0,31.719 39.05,0 0,7.082 -39.05,0 0,28.601 16.41,0 c 1.42,0 2.83,0 4.25,0 l 21.5,0 0,7.649 -52.34,0 0,-82.981 54.04,0" /></g></g></svg>